G04*
G04 #@! TF.GenerationSoftware,Altium Limited,Altium Designer,24.0.1 (36)*
G04*
G04 Layer_Color=32896*
%FSLAX44Y44*%
%MOMM*%
G71*
G04*
G04 #@! TF.SameCoordinates,124752F4-CBEC-4B7B-B6B5-C58268B34DF0*
G04*
G04*
G04 #@! TF.FilePolarity,Positive*
G04*
G01*
G75*
%ADD10C,0.2000*%
%ADD13C,0.3000*%
%ADD17C,0.1600*%
%ADD18C,0.1500*%
G36*
X36000Y18000D02*
X-100883D01*
Y30290D01*
X36000D01*
Y18000D01*
D02*
G37*
G36*
X-115000D02*
X-222916D01*
Y30290D01*
X-115000D01*
Y18000D01*
D02*
G37*
G36*
X-236000D02*
X-299452D01*
Y30290D01*
X-236000D01*
Y18000D01*
D02*
G37*
G36*
X156000D02*
X51017D01*
Y30290D01*
X156000D01*
Y18000D01*
D02*
G37*
G36*
X261000D02*
X164981D01*
Y30290D01*
X261000D01*
Y18000D01*
D02*
G37*
%LPC*%
G36*
X-42389Y27290D02*
X-42506D01*
X-42589Y27282D01*
X-42681Y27273D01*
X-42797Y27265D01*
X-42922Y27257D01*
X-43056Y27232D01*
X-43339Y27182D01*
X-43630Y27098D01*
X-43764Y27048D01*
X-43897Y26990D01*
X-44014Y26923D01*
X-44122Y26840D01*
X-44130Y26832D01*
X-44147Y26823D01*
X-44172Y26799D01*
X-44205Y26765D01*
X-44247Y26715D01*
X-44289Y26665D01*
X-44338Y26607D01*
X-44388Y26540D01*
X-44489Y26374D01*
X-44572Y26190D01*
X-44605Y26082D01*
X-44630Y25974D01*
X-44647Y25857D01*
X-44655Y25732D01*
Y25724D01*
Y25715D01*
Y25665D01*
X-44647Y25590D01*
X-44630Y25491D01*
X-44605Y25382D01*
X-44563Y25266D01*
X-44514Y25141D01*
X-44439Y25016D01*
X-44430Y24999D01*
X-44397Y24966D01*
X-44347Y24899D01*
X-44272Y24824D01*
X-44180Y24741D01*
X-44072Y24649D01*
X-43939Y24549D01*
X-43780Y24457D01*
X-43797D01*
X-43839Y24441D01*
X-43905Y24424D01*
X-43980Y24399D01*
X-44064Y24374D01*
X-44155Y24341D01*
X-44247Y24299D01*
X-44322Y24258D01*
X-44338Y24249D01*
X-44372Y24224D01*
X-44422Y24183D01*
X-44497Y24124D01*
X-44572Y24049D01*
X-44647Y23966D01*
X-44722Y23866D01*
X-44788Y23758D01*
X-44797Y23741D01*
X-44813Y23708D01*
X-44847Y23641D01*
X-44880Y23558D01*
X-44905Y23449D01*
X-44938Y23324D01*
X-44955Y23183D01*
X-44963Y23033D01*
Y22941D01*
X-44955Y22891D01*
X-44947Y22841D01*
X-44930Y22708D01*
X-44897Y22550D01*
X-44847Y22375D01*
X-44772Y22191D01*
X-44680Y22008D01*
Y22000D01*
X-44663Y21983D01*
X-44655Y21958D01*
X-44630Y21925D01*
X-44563Y21841D01*
X-44480Y21733D01*
X-44363Y21616D01*
X-44230Y21491D01*
X-44064Y21367D01*
X-43880Y21258D01*
X-43872D01*
X-43855Y21250D01*
X-43830Y21233D01*
X-43789Y21217D01*
X-43730Y21200D01*
X-43672Y21175D01*
X-43597Y21150D01*
X-43514Y21133D01*
X-43422Y21108D01*
X-43314Y21083D01*
X-43197Y21058D01*
X-43081Y21042D01*
X-42947Y21025D01*
X-42806Y21008D01*
X-42506Y21000D01*
X-44963D01*
D01*
X-39931D01*
X-42372D01*
X-42297Y21008D01*
X-42214D01*
X-42131Y21017D01*
X-42031Y21025D01*
X-41823Y21050D01*
X-41598Y21083D01*
X-41381Y21125D01*
X-41189Y21192D01*
X-41181D01*
X-41173Y21200D01*
X-41148Y21208D01*
X-41114Y21225D01*
X-41023Y21275D01*
X-40914Y21333D01*
X-40789Y21416D01*
X-40656Y21508D01*
X-40523Y21625D01*
X-40398Y21758D01*
Y21766D01*
X-40381Y21775D01*
X-40364Y21800D01*
X-40348Y21825D01*
X-40290Y21908D01*
X-40223Y22025D01*
X-40148Y22158D01*
X-40073Y22325D01*
X-39998Y22508D01*
X-39931Y22708D01*
X-41623Y22933D01*
Y22924D01*
X-41631Y22908D01*
Y22883D01*
X-41639Y22850D01*
X-41664Y22758D01*
X-41698Y22658D01*
X-41739Y22533D01*
X-41797Y22416D01*
X-41856Y22316D01*
X-41931Y22225D01*
X-41939Y22216D01*
X-41972Y22191D01*
X-42014Y22166D01*
X-42072Y22133D01*
X-42156Y22091D01*
X-42247Y22066D01*
X-42347Y22041D01*
X-42464Y22033D01*
X-42522D01*
X-42581Y22050D01*
X-42664Y22066D01*
X-42756Y22091D01*
X-42847Y22133D01*
X-42939Y22191D01*
X-43031Y22275D01*
X-43039Y22283D01*
X-43064Y22325D01*
X-43106Y22375D01*
X-43147Y22450D01*
X-43189Y22550D01*
X-43231Y22658D01*
X-43256Y22791D01*
X-43264Y22941D01*
Y22950D01*
Y22958D01*
Y23008D01*
X-43256Y23091D01*
X-43239Y23183D01*
X-43205Y23291D01*
X-43172Y23399D01*
X-43114Y23508D01*
X-43039Y23599D01*
X-43031Y23608D01*
X-42997Y23633D01*
X-42947Y23674D01*
X-42881Y23716D01*
X-42797Y23758D01*
X-42697Y23799D01*
X-42581Y23824D01*
X-42447Y23833D01*
X-42414D01*
X-42364Y23824D01*
X-42306D01*
X-42231Y23808D01*
X-42131Y23791D01*
X-42031Y23766D01*
X-41906Y23733D01*
X-41989Y24941D01*
X-42014D01*
X-42039Y24932D01*
X-42072D01*
X-42139Y24924D01*
X-42264D01*
X-42322Y24932D01*
X-42397Y24949D01*
X-42489Y24974D01*
X-42581Y25016D01*
X-42672Y25066D01*
X-42764Y25132D01*
X-42772Y25141D01*
X-42797Y25166D01*
X-42839Y25215D01*
X-42881Y25274D01*
X-42914Y25349D01*
X-42955Y25432D01*
X-42980Y25524D01*
X-42989Y25632D01*
Y25640D01*
Y25682D01*
X-42980Y25732D01*
X-42972Y25790D01*
X-42947Y25857D01*
X-42922Y25932D01*
X-42881Y26007D01*
X-42822Y26074D01*
X-42814Y26082D01*
X-42789Y26099D01*
X-42756Y26124D01*
X-42706Y26157D01*
X-42639Y26190D01*
X-42556Y26215D01*
X-42464Y26232D01*
X-42364Y26240D01*
X-42314D01*
X-42256Y26232D01*
X-42189Y26215D01*
X-42114Y26199D01*
X-42031Y26165D01*
X-41947Y26115D01*
X-41873Y26057D01*
X-41864Y26049D01*
X-41839Y26024D01*
X-41814Y25974D01*
X-41772Y25907D01*
X-41731Y25824D01*
X-41689Y25715D01*
X-41656Y25582D01*
X-41623Y25424D01*
X-40023Y25707D01*
Y25715D01*
X-40031Y25740D01*
X-40048Y25782D01*
X-40065Y25832D01*
X-40081Y25899D01*
X-40115Y25974D01*
X-40190Y26140D01*
X-40290Y26332D01*
X-40423Y26523D01*
X-40589Y26715D01*
X-40681Y26799D01*
X-40781Y26882D01*
X-40789Y26890D01*
X-40806Y26898D01*
X-40839Y26923D01*
X-40889Y26948D01*
X-40948Y26973D01*
X-41014Y27015D01*
X-41098Y27048D01*
X-41198Y27090D01*
X-41306Y27123D01*
X-41423Y27165D01*
X-41556Y27198D01*
X-41706Y27223D01*
X-41856Y27257D01*
X-42022Y27273D01*
X-42197Y27282D01*
X-42389Y27290D01*
D02*
G37*
G36*
X-54678D02*
X-54794D01*
X-54878Y27282D01*
X-54969Y27273D01*
X-55086Y27265D01*
X-55211Y27257D01*
X-55344Y27232D01*
X-55627Y27182D01*
X-55919Y27098D01*
X-56052Y27048D01*
X-56185Y26990D01*
X-56302Y26923D01*
X-56410Y26840D01*
X-56419Y26832D01*
X-56435Y26823D01*
X-56460Y26799D01*
X-56494Y26765D01*
X-56535Y26715D01*
X-56577Y26665D01*
X-56627Y26607D01*
X-56677Y26540D01*
X-56777Y26374D01*
X-56860Y26190D01*
X-56894Y26082D01*
X-56919Y25974D01*
X-56935Y25857D01*
X-56944Y25732D01*
Y25724D01*
Y25715D01*
Y25665D01*
X-56935Y25590D01*
X-56919Y25491D01*
X-56894Y25382D01*
X-56852Y25266D01*
X-56802Y25141D01*
X-56727Y25016D01*
X-56719Y24999D01*
X-56685Y24966D01*
X-56635Y24899D01*
X-56560Y24824D01*
X-56469Y24741D01*
X-56360Y24649D01*
X-56227Y24549D01*
X-56069Y24457D01*
X-56086D01*
X-56127Y24441D01*
X-56194Y24424D01*
X-56269Y24399D01*
X-56352Y24374D01*
X-56444Y24341D01*
X-56535Y24299D01*
X-56610Y24258D01*
X-56627Y24249D01*
X-56660Y24224D01*
X-56710Y24183D01*
X-56785Y24124D01*
X-56860Y24049D01*
X-56935Y23966D01*
X-57010Y23866D01*
X-57077Y23758D01*
X-57085Y23741D01*
X-57102Y23708D01*
X-57135Y23641D01*
X-57169Y23558D01*
X-57194Y23449D01*
X-57227Y23324D01*
X-57243Y23183D01*
X-57252Y23033D01*
Y22941D01*
X-57243Y22891D01*
X-57235Y22841D01*
X-57219Y22708D01*
X-57185Y22550D01*
X-57135Y22375D01*
X-57060Y22191D01*
X-56969Y22008D01*
Y22000D01*
X-56952Y21983D01*
X-56944Y21958D01*
X-56919Y21925D01*
X-56852Y21841D01*
X-56769Y21733D01*
X-56652Y21616D01*
X-56519Y21491D01*
X-56352Y21367D01*
X-56169Y21258D01*
X-56160D01*
X-56144Y21250D01*
X-56119Y21233D01*
X-56077Y21217D01*
X-56019Y21200D01*
X-55960Y21175D01*
X-55886Y21150D01*
X-55802Y21133D01*
X-55711Y21108D01*
X-55602Y21083D01*
X-55486Y21058D01*
X-55369Y21042D01*
X-55236Y21025D01*
X-55094Y21008D01*
X-54794Y21000D01*
X-57252D01*
D01*
X-52220D01*
X-54661D01*
X-54586Y21008D01*
X-54503D01*
X-54419Y21017D01*
X-54319Y21025D01*
X-54111Y21050D01*
X-53886Y21083D01*
X-53670Y21125D01*
X-53478Y21192D01*
X-53470D01*
X-53461Y21200D01*
X-53436Y21208D01*
X-53403Y21225D01*
X-53311Y21275D01*
X-53203Y21333D01*
X-53078Y21416D01*
X-52945Y21508D01*
X-52811Y21625D01*
X-52686Y21758D01*
Y21766D01*
X-52670Y21775D01*
X-52653Y21800D01*
X-52636Y21825D01*
X-52578Y21908D01*
X-52511Y22025D01*
X-52436Y22158D01*
X-52361Y22325D01*
X-52287Y22508D01*
X-52220Y22708D01*
X-53911Y22933D01*
Y22924D01*
X-53919Y22908D01*
Y22883D01*
X-53928Y22850D01*
X-53953Y22758D01*
X-53986Y22658D01*
X-54028Y22533D01*
X-54086Y22416D01*
X-54144Y22316D01*
X-54219Y22225D01*
X-54228Y22216D01*
X-54261Y22191D01*
X-54303Y22166D01*
X-54361Y22133D01*
X-54444Y22091D01*
X-54536Y22066D01*
X-54636Y22041D01*
X-54752Y22033D01*
X-54811D01*
X-54869Y22050D01*
X-54953Y22066D01*
X-55044Y22091D01*
X-55136Y22133D01*
X-55227Y22191D01*
X-55319Y22275D01*
X-55327Y22283D01*
X-55352Y22325D01*
X-55394Y22375D01*
X-55436Y22450D01*
X-55477Y22550D01*
X-55519Y22658D01*
X-55544Y22791D01*
X-55552Y22941D01*
Y22950D01*
Y22958D01*
Y23008D01*
X-55544Y23091D01*
X-55527Y23183D01*
X-55494Y23291D01*
X-55461Y23399D01*
X-55402Y23508D01*
X-55327Y23599D01*
X-55319Y23608D01*
X-55286Y23633D01*
X-55236Y23674D01*
X-55169Y23716D01*
X-55086Y23758D01*
X-54986Y23799D01*
X-54869Y23824D01*
X-54736Y23833D01*
X-54703D01*
X-54653Y23824D01*
X-54594D01*
X-54519Y23808D01*
X-54419Y23791D01*
X-54319Y23766D01*
X-54194Y23733D01*
X-54278Y24941D01*
X-54303D01*
X-54328Y24932D01*
X-54361D01*
X-54428Y24924D01*
X-54553D01*
X-54611Y24932D01*
X-54686Y24949D01*
X-54777Y24974D01*
X-54869Y25016D01*
X-54961Y25066D01*
X-55052Y25132D01*
X-55061Y25141D01*
X-55086Y25166D01*
X-55127Y25215D01*
X-55169Y25274D01*
X-55202Y25349D01*
X-55244Y25432D01*
X-55269Y25524D01*
X-55277Y25632D01*
Y25640D01*
Y25682D01*
X-55269Y25732D01*
X-55261Y25790D01*
X-55236Y25857D01*
X-55211Y25932D01*
X-55169Y26007D01*
X-55111Y26074D01*
X-55102Y26082D01*
X-55077Y26099D01*
X-55044Y26124D01*
X-54994Y26157D01*
X-54928Y26190D01*
X-54844Y26215D01*
X-54752Y26232D01*
X-54653Y26240D01*
X-54603D01*
X-54544Y26232D01*
X-54478Y26215D01*
X-54403Y26199D01*
X-54319Y26165D01*
X-54236Y26115D01*
X-54161Y26057D01*
X-54153Y26049D01*
X-54128Y26024D01*
X-54103Y25974D01*
X-54061Y25907D01*
X-54019Y25824D01*
X-53978Y25715D01*
X-53944Y25582D01*
X-53911Y25424D01*
X-52312Y25707D01*
Y25715D01*
X-52320Y25740D01*
X-52337Y25782D01*
X-52353Y25832D01*
X-52370Y25899D01*
X-52403Y25974D01*
X-52478Y26140D01*
X-52578Y26332D01*
X-52711Y26523D01*
X-52878Y26715D01*
X-52970Y26799D01*
X-53070Y26882D01*
X-53078Y26890D01*
X-53095Y26898D01*
X-53128Y26923D01*
X-53178Y26948D01*
X-53236Y26973D01*
X-53303Y27015D01*
X-53386Y27048D01*
X-53486Y27090D01*
X-53594Y27123D01*
X-53711Y27165D01*
X-53844Y27198D01*
X-53994Y27223D01*
X-54144Y27257D01*
X-54311Y27273D01*
X-54486Y27282D01*
X-54678Y27290D01*
D02*
G37*
G36*
X-61051Y27190D02*
X-64275D01*
X-64342Y27182D01*
X-64425Y27173D01*
X-64525Y27165D01*
X-64633Y27148D01*
X-64750Y27132D01*
X-64992Y27073D01*
X-65125Y27032D01*
X-65250Y26982D01*
X-65367Y26923D01*
X-65491Y26865D01*
X-65600Y26782D01*
X-65700Y26699D01*
X-65708Y26690D01*
X-65725Y26674D01*
X-65750Y26648D01*
X-65783Y26607D01*
X-65816Y26557D01*
X-65866Y26499D01*
X-65908Y26424D01*
X-65958Y26349D01*
X-66008Y26249D01*
X-66050Y26149D01*
X-66100Y26032D01*
X-66133Y25915D01*
X-66166Y25774D01*
X-66191Y25632D01*
X-66208Y25482D01*
X-66216Y25315D01*
Y25357D01*
Y25315D01*
Y25224D01*
X-66208Y25166D01*
X-66200Y25082D01*
X-66183Y24999D01*
X-66166Y24899D01*
X-66150Y24791D01*
X-66083Y24557D01*
X-66033Y24441D01*
X-65983Y24316D01*
X-65916Y24199D01*
X-65841Y24083D01*
X-65758Y23974D01*
X-65658Y23874D01*
X-65650Y23866D01*
X-65633Y23849D01*
X-65600Y23824D01*
X-65558Y23791D01*
X-65500Y23758D01*
X-65425Y23708D01*
X-65342Y23666D01*
X-65241Y23616D01*
X-65125Y23566D01*
X-65000Y23524D01*
X-64867Y23474D01*
X-64717Y23441D01*
X-64550Y23408D01*
X-64367Y23383D01*
X-64175Y23366D01*
X-63967Y23358D01*
X-62942D01*
Y21100D01*
X-66216D01*
D01*
X-61051D01*
Y27190D01*
D02*
G37*
G36*
X-92718D02*
X-97883D01*
X-95942D01*
X-96009Y27182D01*
X-96092Y27173D01*
X-96192Y27165D01*
X-96300Y27148D01*
X-96417Y27132D01*
X-96658Y27073D01*
X-96792Y27032D01*
X-96917Y26982D01*
X-97033Y26923D01*
X-97158Y26865D01*
X-97267Y26782D01*
X-97367Y26699D01*
X-97375Y26690D01*
X-97392Y26674D01*
X-97417Y26648D01*
X-97450Y26607D01*
X-97483Y26557D01*
X-97533Y26499D01*
X-97575Y26424D01*
X-97625Y26349D01*
X-97675Y26249D01*
X-97717Y26149D01*
X-97767Y26032D01*
X-97800Y25915D01*
X-97833Y25774D01*
X-97858Y25632D01*
X-97875Y25482D01*
X-97883Y25315D01*
Y25374D01*
Y25224D01*
X-97875Y25166D01*
X-97866Y25082D01*
X-97850Y24999D01*
X-97833Y24899D01*
X-97816Y24791D01*
X-97750Y24557D01*
X-97700Y24441D01*
X-97650Y24316D01*
X-97583Y24199D01*
X-97508Y24083D01*
X-97425Y23974D01*
X-97325Y23874D01*
X-97317Y23866D01*
X-97300Y23849D01*
X-97267Y23824D01*
X-97225Y23791D01*
X-97167Y23758D01*
X-97092Y23708D01*
X-97008Y23666D01*
X-96908Y23616D01*
X-96792Y23566D01*
X-96667Y23524D01*
X-96533Y23474D01*
X-96383Y23441D01*
X-96217Y23408D01*
X-96034Y23383D01*
X-95842Y23366D01*
X-95634Y23358D01*
X-94609D01*
Y21100D01*
X-92718D01*
Y27190D01*
D02*
G37*
G36*
X-30184Y27190D02*
X-33496D01*
X-32267D01*
X-33500Y25141D01*
X-34724Y27190D01*
X-36807D01*
X-34441Y23649D01*
Y21100D01*
X-30184D01*
X-32558D01*
Y23649D01*
X-30184Y27190D01*
D02*
G37*
G36*
X33000D02*
X31117D01*
Y25057D01*
X29059D01*
Y27190D01*
X27168D01*
Y21100D01*
X33000D01*
Y27190D01*
D02*
G37*
G36*
X1883D02*
X-2141D01*
Y25840D01*
X592D01*
X733Y24924D01*
X717Y24932D01*
X683Y24949D01*
X625Y24974D01*
X558Y24999D01*
X475Y25032D01*
X375Y25066D01*
X175Y25124D01*
X158D01*
X125Y25132D01*
X75Y25149D01*
X0Y25157D01*
X-83Y25174D01*
X-175Y25182D01*
X-375Y25191D01*
X-466D01*
X-525Y25182D01*
X-608Y25174D01*
X-691Y25157D01*
X-791Y25141D01*
X-908Y25124D01*
X-1141Y25057D01*
X-1266Y25007D01*
X-1391Y24957D01*
X-1508Y24891D01*
X-1633Y24816D01*
X-1749Y24732D01*
X-1858Y24632D01*
X-1866Y24624D01*
X-1883Y24607D01*
X-1908Y24574D01*
X-1949Y24532D01*
X-1991Y24482D01*
X-2041Y24416D01*
X-2091Y24341D01*
X-2149Y24249D01*
X-2199Y24158D01*
X-2249Y24049D01*
X-2299Y23941D01*
X-2341Y23816D01*
X-2383Y23683D01*
X-2408Y23541D01*
X-2424Y23399D01*
X-2433Y23241D01*
Y23183D01*
X-2424Y23141D01*
Y23091D01*
X-2416Y23024D01*
X-2399Y22883D01*
X-2358Y22708D01*
X-2308Y22516D01*
X-2233Y22316D01*
X-2133Y22108D01*
Y22100D01*
X-2116Y22083D01*
X-2099Y22058D01*
X-2083Y22016D01*
X-2016Y21925D01*
X-1916Y21800D01*
X-1799Y21667D01*
X-1658Y21533D01*
X-1491Y21400D01*
X-1300Y21283D01*
X-1291D01*
X-1275Y21275D01*
X-1241Y21258D01*
X-1200Y21242D01*
X-1150Y21217D01*
X-1083Y21192D01*
X-1016Y21167D01*
X-925Y21142D01*
X-833Y21117D01*
X-733Y21092D01*
X-616Y21067D01*
X-491Y21042D01*
X-366Y21025D01*
X-225Y21008D01*
X75Y21000D01*
X-2433D01*
D01*
X2633D01*
X225D01*
X283Y21008D01*
X425Y21017D01*
X592Y21025D01*
X767Y21050D01*
X942Y21075D01*
X1108Y21108D01*
X1116D01*
X1125Y21117D01*
X1150Y21125D01*
X1183Y21133D01*
X1258Y21158D01*
X1358Y21192D01*
X1475Y21242D01*
X1600Y21300D01*
X1725Y21375D01*
X1841Y21450D01*
X1858Y21458D01*
X1891Y21491D01*
X1950Y21533D01*
X2016Y21600D01*
X2091Y21675D01*
X2175Y21758D01*
X2258Y21858D01*
X2333Y21958D01*
X2341Y21975D01*
X2366Y22008D01*
X2400Y22075D01*
X2441Y22158D01*
X2483Y22258D01*
X2533Y22383D01*
X2583Y22525D01*
X2633Y22675D01*
X925Y22866D01*
Y22858D01*
Y22850D01*
X908Y22799D01*
X892Y22724D01*
X867Y22633D01*
X833Y22533D01*
X783Y22425D01*
X717Y22325D01*
X642Y22241D01*
X633Y22233D01*
X600Y22208D01*
X550Y22175D01*
X483Y22141D01*
X408Y22100D01*
X308Y22066D01*
X208Y22041D01*
X92Y22033D01*
X75D01*
X33Y22041D01*
X-33Y22050D01*
X-116Y22066D01*
X-208Y22100D01*
X-308Y22150D01*
X-408Y22208D01*
X-500Y22300D01*
X-508Y22316D01*
X-533Y22350D01*
X-575Y22408D01*
X-616Y22500D01*
X-658Y22608D01*
X-700Y22750D01*
X-725Y22908D01*
X-733Y23091D01*
Y23099D01*
Y23116D01*
Y23141D01*
Y23183D01*
X-725Y23274D01*
X-700Y23391D01*
X-675Y23524D01*
X-633Y23658D01*
X-575Y23774D01*
X-491Y23883D01*
X-483Y23891D01*
X-450Y23924D01*
X-400Y23966D01*
X-325Y24016D01*
X-242Y24058D01*
X-133Y24099D01*
X-8Y24132D01*
X125Y24141D01*
X167D01*
X217Y24132D01*
X275Y24124D01*
X350Y24107D01*
X433Y24091D01*
X517Y24058D01*
X600Y24016D01*
X608D01*
X633Y23999D01*
X667Y23974D01*
X717Y23949D01*
X767Y23899D01*
X833Y23849D01*
X908Y23783D01*
X983Y23699D01*
X2416Y23908D01*
X1883Y27190D01*
D02*
G37*
G36*
X8065Y25507D02*
X6257D01*
Y23474D01*
Y23816D01*
X8065D01*
Y25507D01*
D02*
G37*
G36*
X-2791Y27190D02*
X-4757D01*
X-6123Y22799D01*
X-7473Y27190D01*
X-9389D01*
X-7123Y21100D01*
X-9389D01*
D01*
X-2791D01*
D01*
X-5082D01*
X-2791Y27190D01*
D02*
G37*
G36*
X-45330Y27190D02*
X-47296D01*
X-48662Y22799D01*
X-50012Y27190D01*
X-48319D01*
X-51928D01*
X-49662Y21100D01*
X-47621D01*
X-45330Y27190D01*
D02*
G37*
G36*
X8065Y23474D02*
Y22791D01*
X6257D01*
Y22799D01*
Y21100D01*
X8065D01*
Y23474D01*
D02*
G37*
G36*
X13630Y27190D02*
X11747D01*
Y22600D01*
X8814D01*
D01*
Y21100D01*
X13630D01*
Y27190D01*
D02*
G37*
G36*
X-25127D02*
X-29942D01*
X-27010D01*
Y22600D01*
X-29942D01*
Y22650D01*
Y21100D01*
X-25127D01*
Y27190D01*
D02*
G37*
G36*
X-74289Y27190D02*
X-76172D01*
Y22599D01*
X-79105D01*
Y22600D01*
Y21100D01*
X-74289D01*
Y27190D01*
D02*
G37*
G36*
X-79963D02*
X-81846D01*
Y22599D01*
X-84778D01*
Y22600D01*
Y21100D01*
X-79963D01*
Y27190D01*
D02*
G37*
G36*
X-67199D02*
X-69074D01*
Y23474D01*
Y23466D01*
Y23449D01*
Y23424D01*
X-69082Y23391D01*
X-69090Y23308D01*
X-69107Y23191D01*
X-69141Y23066D01*
X-69191Y22941D01*
X-69257Y22816D01*
X-69349Y22699D01*
X-69365Y22691D01*
X-69399Y22658D01*
X-69465Y22616D01*
X-69549Y22566D01*
X-69657Y22508D01*
X-69790Y22466D01*
X-69940Y22433D01*
X-70115Y22425D01*
X-70165D01*
X-70199Y22433D01*
X-70282Y22441D01*
X-70399Y22458D01*
X-70515Y22491D01*
X-70648Y22541D01*
X-70773Y22608D01*
X-70882Y22699D01*
X-70890Y22716D01*
X-70923Y22750D01*
X-70973Y22816D01*
X-71023Y22899D01*
X-71073Y23008D01*
X-71123Y23141D01*
X-71157Y23299D01*
X-71165Y23474D01*
Y27190D01*
X-73039D01*
Y23466D01*
X-73031Y23416D01*
Y23366D01*
X-73014Y23233D01*
X-72998Y23074D01*
X-72965Y22908D01*
X-72923Y22724D01*
X-72864Y22541D01*
Y22533D01*
X-72856Y22516D01*
X-72848Y22491D01*
X-72831Y22458D01*
X-72790Y22366D01*
X-72740Y22258D01*
X-72665Y22125D01*
X-72573Y21983D01*
X-72465Y21841D01*
X-72340Y21700D01*
X-72323Y21683D01*
X-72281Y21641D01*
X-72206Y21583D01*
X-72115Y21500D01*
X-71998Y21416D01*
X-71873Y21342D01*
X-71732Y21258D01*
X-71582Y21200D01*
X-71573D01*
X-71557Y21192D01*
X-71523Y21183D01*
X-71482Y21167D01*
X-71432Y21150D01*
X-71373Y21133D01*
X-71298Y21117D01*
X-71215Y21100D01*
X-71123Y21083D01*
X-71023Y21067D01*
X-70798Y21033D01*
X-70549Y21008D01*
X-70265Y21000D01*
X-73039D01*
D01*
X-67199D01*
Y27190D01*
D02*
G37*
G36*
X-85636D02*
X-87511D01*
Y23474D01*
Y23466D01*
Y23449D01*
Y23424D01*
X-87519Y23391D01*
X-87528Y23308D01*
X-87544Y23191D01*
X-87577Y23066D01*
X-87627Y22941D01*
X-87694Y22816D01*
X-87786Y22699D01*
X-87802Y22691D01*
X-87836Y22658D01*
X-87902Y22616D01*
X-87986Y22566D01*
X-88094Y22508D01*
X-88227Y22466D01*
X-88377Y22433D01*
X-88552Y22425D01*
X-88602D01*
X-88636Y22433D01*
X-88719Y22441D01*
X-88835Y22458D01*
X-88952Y22491D01*
X-89085Y22541D01*
X-89210Y22608D01*
X-89319Y22699D01*
X-89327Y22716D01*
X-89360Y22750D01*
X-89410Y22816D01*
X-89460Y22899D01*
X-89510Y23008D01*
X-89560Y23141D01*
X-89594Y23299D01*
X-89602Y23474D01*
Y27190D01*
X-91476D01*
Y23466D01*
X-91468Y23416D01*
Y23366D01*
X-91452Y23233D01*
X-91435Y23074D01*
X-91402Y22908D01*
X-91360Y22724D01*
X-91301Y22541D01*
Y22533D01*
X-91293Y22516D01*
X-91285Y22491D01*
X-91268Y22458D01*
X-91227Y22366D01*
X-91177Y22258D01*
X-91102Y22125D01*
X-91010Y21983D01*
X-90902Y21841D01*
X-90777Y21700D01*
X-90760Y21683D01*
X-90718Y21641D01*
X-90643Y21583D01*
X-90552Y21500D01*
X-90435Y21416D01*
X-90310Y21342D01*
X-90169Y21258D01*
X-90019Y21200D01*
X-90010D01*
X-89993Y21192D01*
X-89960Y21183D01*
X-89918Y21167D01*
X-89868Y21150D01*
X-89810Y21133D01*
X-89735Y21117D01*
X-89652Y21100D01*
X-89560Y21083D01*
X-89460Y21067D01*
X-89235Y21033D01*
X-88985Y21008D01*
X-88702Y21000D01*
X-91476D01*
D01*
X-85636D01*
Y27190D01*
D02*
G37*
G36*
X26535Y27190D02*
X22186D01*
X19903Y21100D01*
X21878D01*
X22178Y22108D01*
X24319D01*
X24619Y21100D01*
X26535D01*
X24252Y27190D01*
X26535D01*
D02*
G37*
G36*
X19303D02*
X14488D01*
X17421D01*
Y22600D01*
X14488D01*
Y21100D01*
X19303D01*
Y27190D01*
D02*
G37*
G36*
X-18978D02*
X-24144D01*
X-22202D01*
X-22269Y27182D01*
X-22352Y27173D01*
X-22452Y27165D01*
X-22561Y27148D01*
X-22677Y27132D01*
X-22919Y27073D01*
X-23052Y27032D01*
X-23177Y26982D01*
X-23294Y26923D01*
X-23419Y26865D01*
X-23527Y26782D01*
X-23627Y26699D01*
X-23635Y26690D01*
X-23652Y26674D01*
X-23677Y26648D01*
X-23710Y26607D01*
X-23744Y26557D01*
X-23794Y26499D01*
X-23835Y26424D01*
X-23885Y26349D01*
X-23935Y26249D01*
X-23977Y26149D01*
X-24027Y26032D01*
X-24060Y25915D01*
X-24094Y25774D01*
X-24119Y25632D01*
X-24135Y25482D01*
X-24144Y25315D01*
Y25224D01*
X-24135Y25166D01*
X-24127Y25082D01*
X-24110Y24999D01*
X-24094Y24899D01*
X-24077Y24791D01*
X-24010Y24557D01*
X-23960Y24441D01*
X-23910Y24316D01*
X-23844Y24199D01*
X-23769Y24083D01*
X-23686Y23974D01*
X-23586Y23874D01*
X-23577Y23866D01*
X-23561Y23849D01*
X-23527Y23824D01*
X-23486Y23791D01*
X-23427Y23758D01*
X-23352Y23708D01*
X-23269Y23666D01*
X-23169Y23616D01*
X-23052Y23566D01*
X-22927Y23524D01*
X-22794Y23474D01*
X-22644Y23441D01*
X-22478Y23408D01*
X-22294Y23383D01*
X-22102Y23366D01*
X-21894Y23358D01*
X-20870D01*
Y21100D01*
X-18978D01*
Y27190D01*
D02*
G37*
G36*
X-34491Y21100D02*
X-36807D01*
D01*
X-34491D01*
D02*
G37*
G36*
X-15154Y27290D02*
X-15438D01*
X-15521Y27282D01*
X-15621Y27273D01*
X-15729Y27265D01*
X-15854Y27257D01*
X-15987Y27232D01*
X-16279Y27182D01*
X-16571Y27107D01*
X-16712Y27057D01*
X-16854Y26998D01*
X-16987Y26923D01*
X-17104Y26848D01*
X-17112Y26840D01*
X-17129Y26832D01*
X-17162Y26799D01*
X-17204Y26765D01*
X-17254Y26723D01*
X-17304Y26665D01*
X-17362Y26590D01*
X-17429Y26515D01*
X-17487Y26424D01*
X-17554Y26324D01*
X-17612Y26207D01*
X-17670Y26082D01*
X-17729Y25949D01*
X-17770Y25807D01*
X-17812Y25649D01*
X-17837Y25474D01*
X-16062Y25374D01*
Y25382D01*
Y25391D01*
X-16046Y25440D01*
X-16029Y25515D01*
X-15996Y25599D01*
X-15954Y25699D01*
X-15904Y25799D01*
X-15838Y25890D01*
X-15762Y25965D01*
X-15754Y25974D01*
X-15721Y25999D01*
X-15671Y26024D01*
X-15604Y26065D01*
X-15513Y26099D01*
X-15404Y26124D01*
X-15279Y26149D01*
X-15138Y26157D01*
X-15088D01*
X-15029Y26149D01*
X-14954Y26140D01*
X-14871Y26124D01*
X-14796Y26099D01*
X-14713Y26065D01*
X-14646Y26015D01*
X-14638Y26007D01*
X-14621Y25990D01*
X-14596Y25957D01*
X-14571Y25924D01*
X-14538Y25874D01*
X-14513Y25815D01*
X-14496Y25749D01*
X-14488Y25674D01*
Y25666D01*
Y25649D01*
X-14496Y25624D01*
X-14504Y25591D01*
X-14521Y25549D01*
X-14546Y25507D01*
X-14579Y25457D01*
X-14621Y25415D01*
X-14629Y25407D01*
X-14646Y25399D01*
X-14688Y25374D01*
X-14746Y25340D01*
X-14829Y25307D01*
X-14938Y25274D01*
X-15079Y25232D01*
X-15154Y25207D01*
X-15246Y25191D01*
X-15263D01*
X-15304Y25182D01*
X-15363Y25166D01*
X-15446Y25149D01*
X-15546Y25124D01*
X-15662Y25091D01*
X-15796Y25057D01*
X-15929Y25024D01*
X-16221Y24941D01*
X-16512Y24849D01*
X-16654Y24799D01*
X-16787Y24749D01*
X-16904Y24699D01*
X-17012Y24649D01*
X-17020D01*
X-17037Y24641D01*
X-17062Y24624D01*
X-17096Y24599D01*
X-17196Y24541D01*
X-17312Y24466D01*
X-17437Y24366D01*
X-17562Y24249D01*
X-17687Y24124D01*
X-17787Y23974D01*
Y23966D01*
X-17795Y23958D01*
X-17812Y23933D01*
X-17829Y23908D01*
X-17870Y23824D01*
X-17912Y23716D01*
X-17962Y23583D01*
X-17995Y23433D01*
X-18029Y23266D01*
X-18037Y23083D01*
Y23024D01*
X-18029Y22983D01*
Y22933D01*
X-18020Y22866D01*
X-17995Y22724D01*
X-17962Y22558D01*
X-17904Y22375D01*
X-17820Y22191D01*
X-17712Y22000D01*
Y21991D01*
X-17695Y21975D01*
X-17679Y21950D01*
X-17654Y21916D01*
X-17579Y21833D01*
X-17479Y21725D01*
X-17345Y21600D01*
X-17196Y21475D01*
X-17012Y21358D01*
X-16804Y21250D01*
X-16796D01*
X-16779Y21242D01*
X-16746Y21225D01*
X-16696Y21208D01*
X-16646Y21192D01*
X-16571Y21175D01*
X-16496Y21150D01*
X-16404Y21125D01*
X-16304Y21100D01*
X-16187Y21083D01*
X-16071Y21058D01*
X-15938Y21042D01*
X-15804Y21025D01*
X-15654Y21008D01*
X-15338Y21000D01*
X-12522D01*
X-15188D01*
X-15088Y21008D01*
X-14963Y21017D01*
X-14813Y21033D01*
X-14655Y21050D01*
X-14488Y21075D01*
X-14313Y21108D01*
X-14130Y21142D01*
X-13955Y21192D01*
X-13780Y21250D01*
X-13613Y21317D01*
X-13455Y21400D01*
X-13313Y21491D01*
X-13188Y21591D01*
X-13180Y21600D01*
X-13163Y21616D01*
X-13130Y21650D01*
X-13096Y21700D01*
X-13046Y21758D01*
X-12996Y21833D01*
X-12938Y21916D01*
X-12880Y22008D01*
X-12822Y22116D01*
X-12763Y22225D01*
X-12713Y22350D01*
X-12655Y22491D01*
X-12613Y22633D01*
X-12572Y22783D01*
X-12538Y22950D01*
X-12522Y23116D01*
X-14313Y23233D01*
Y23224D01*
Y23216D01*
X-14321Y23191D01*
Y23158D01*
X-14338Y23083D01*
X-14363Y22983D01*
X-14396Y22875D01*
X-14430Y22766D01*
X-14488Y22658D01*
X-14546Y22566D01*
X-14563Y22550D01*
X-14605Y22508D01*
X-14663Y22450D01*
X-14763Y22383D01*
X-14879Y22316D01*
X-15021Y22258D01*
X-15179Y22216D01*
X-15271Y22208D01*
X-15371Y22200D01*
X-15438D01*
X-15513Y22208D01*
X-15596Y22225D01*
X-15696Y22241D01*
X-15804Y22275D01*
X-15896Y22325D01*
X-15987Y22383D01*
X-15996Y22391D01*
X-16021Y22416D01*
X-16062Y22458D01*
X-16104Y22508D01*
X-16137Y22575D01*
X-16179Y22650D01*
X-16204Y22733D01*
X-16212Y22824D01*
Y22833D01*
Y22866D01*
X-16204Y22908D01*
X-16187Y22966D01*
X-16162Y23033D01*
X-16121Y23099D01*
X-16071Y23174D01*
X-16004Y23241D01*
X-15996Y23249D01*
X-15963Y23274D01*
X-15896Y23308D01*
X-15854Y23333D01*
X-15804Y23358D01*
X-15746Y23383D01*
X-15679Y23416D01*
X-15596Y23441D01*
X-15513Y23474D01*
X-15413Y23508D01*
X-15296Y23533D01*
X-15171Y23566D01*
X-15038Y23599D01*
X-15021D01*
X-14988Y23616D01*
X-14921Y23624D01*
X-14838Y23649D01*
X-14738Y23674D01*
X-14621Y23708D01*
X-14488Y23749D01*
X-14354Y23791D01*
X-14063Y23899D01*
X-13771Y24024D01*
X-13630Y24091D01*
X-13505Y24166D01*
X-13380Y24249D01*
X-13271Y24332D01*
X-13263Y24341D01*
X-13247Y24358D01*
X-13221Y24383D01*
X-13188Y24416D01*
X-13147Y24457D01*
X-13105Y24516D01*
X-13055Y24582D01*
X-13013Y24649D01*
X-12963Y24732D01*
X-12913Y24824D01*
X-12830Y25024D01*
X-12797Y25132D01*
X-12772Y25249D01*
X-12755Y25374D01*
X-12747Y25507D01*
Y25515D01*
Y25532D01*
Y25557D01*
X-12755Y25591D01*
X-12763Y25674D01*
X-12780Y25790D01*
X-12813Y25932D01*
X-12863Y26074D01*
X-12922Y26232D01*
X-13013Y26390D01*
Y26399D01*
X-13030Y26407D01*
X-13063Y26457D01*
X-13130Y26532D01*
X-13221Y26632D01*
X-13330Y26732D01*
X-13471Y26840D01*
X-13638Y26948D01*
X-13830Y27048D01*
X-13838D01*
X-13855Y27057D01*
X-13888Y27073D01*
X-13930Y27090D01*
X-13988Y27107D01*
X-14055Y27123D01*
X-14130Y27148D01*
X-14221Y27173D01*
X-14321Y27190D01*
X-14438Y27215D01*
X-14563Y27232D01*
X-14696Y27257D01*
X-14838Y27265D01*
X-14996Y27282D01*
X-15154Y27290D01*
D02*
G37*
%LPD*%
G36*
X-62942Y24591D02*
X-63492D01*
X-63584Y24599D01*
X-63700Y24616D01*
X-63825Y24632D01*
X-63950Y24666D01*
X-64067Y24716D01*
X-64158Y24774D01*
X-64167Y24782D01*
X-64192Y24807D01*
X-64233Y24849D01*
X-64275Y24907D01*
X-64308Y24974D01*
X-64350Y25057D01*
X-64375Y25149D01*
X-64383Y25257D01*
Y25274D01*
Y25307D01*
X-64375Y25357D01*
X-64358Y25432D01*
X-64333Y25507D01*
X-64300Y25590D01*
X-64258Y25674D01*
X-64192Y25749D01*
X-64183Y25757D01*
X-64150Y25782D01*
X-64100Y25815D01*
X-64033Y25849D01*
X-63934Y25882D01*
X-63808Y25915D01*
X-63659Y25940D01*
X-63475Y25949D01*
X-62942D01*
Y24591D01*
D02*
G37*
G36*
X-94609D02*
X-95159D01*
X-95251Y24599D01*
X-95367Y24616D01*
X-95492Y24632D01*
X-95617Y24666D01*
X-95734Y24716D01*
X-95825Y24774D01*
X-95834Y24782D01*
X-95859Y24807D01*
X-95900Y24849D01*
X-95942Y24907D01*
X-95975Y24974D01*
X-96017Y25057D01*
X-96042Y25149D01*
X-96050Y25257D01*
Y25274D01*
Y25307D01*
X-96042Y25357D01*
X-96025Y25432D01*
X-96000Y25507D01*
X-95967Y25590D01*
X-95925Y25674D01*
X-95859Y25749D01*
X-95850Y25757D01*
X-95817Y25782D01*
X-95767Y25815D01*
X-95700Y25849D01*
X-95600Y25882D01*
X-95475Y25915D01*
X-95325Y25940D01*
X-95142Y25949D01*
X-94609D01*
Y24591D01*
D02*
G37*
G36*
X31117Y21100D02*
X29059D01*
Y23566D01*
X31117D01*
Y21100D01*
D02*
G37*
G36*
X-67199Y21000D02*
X-70099D01*
X-69982Y21008D01*
X-69832Y21017D01*
X-69674Y21025D01*
X-69490Y21042D01*
X-69299Y21058D01*
X-69274D01*
X-69249Y21067D01*
X-69215D01*
X-69116Y21083D01*
X-68991Y21108D01*
X-68849Y21142D01*
X-68707Y21183D01*
X-68557Y21233D01*
X-68416Y21300D01*
X-68399Y21308D01*
X-68357Y21333D01*
X-68291Y21375D01*
X-68207Y21442D01*
X-68107Y21516D01*
X-67991Y21600D01*
X-67882Y21708D01*
X-67766Y21825D01*
X-67758Y21841D01*
X-67716Y21883D01*
X-67666Y21950D01*
X-67608Y22041D01*
X-67541Y22150D01*
X-67474Y22266D01*
X-67416Y22400D01*
X-67366Y22533D01*
Y22541D01*
X-67358Y22558D01*
X-67349Y22591D01*
X-67341Y22633D01*
X-67324Y22683D01*
X-67316Y22741D01*
X-67283Y22875D01*
X-67249Y23033D01*
X-67224Y23208D01*
X-67208Y23383D01*
X-67199Y23558D01*
Y21000D01*
D02*
G37*
G36*
X-85636D02*
X-88535D01*
X-88419Y21008D01*
X-88269Y21017D01*
X-88111Y21025D01*
X-87927Y21042D01*
X-87736Y21058D01*
X-87711D01*
X-87686Y21067D01*
X-87652D01*
X-87552Y21083D01*
X-87428Y21108D01*
X-87286Y21142D01*
X-87144Y21183D01*
X-86994Y21233D01*
X-86853Y21300D01*
X-86836Y21308D01*
X-86794Y21333D01*
X-86728Y21375D01*
X-86644Y21442D01*
X-86544Y21516D01*
X-86428Y21600D01*
X-86319Y21708D01*
X-86203Y21825D01*
X-86194Y21841D01*
X-86153Y21883D01*
X-86103Y21950D01*
X-86045Y22041D01*
X-85978Y22150D01*
X-85911Y22266D01*
X-85853Y22400D01*
X-85803Y22533D01*
Y22541D01*
X-85795Y22558D01*
X-85786Y22591D01*
X-85778Y22633D01*
X-85761Y22683D01*
X-85753Y22741D01*
X-85720Y22875D01*
X-85686Y23033D01*
X-85661Y23208D01*
X-85645Y23383D01*
X-85636Y23558D01*
Y21000D01*
D02*
G37*
G36*
X23911Y23424D02*
X22569D01*
X23244Y25607D01*
X23911Y23424D01*
D02*
G37*
G36*
X-20870Y24591D02*
X-21419D01*
X-21511Y24599D01*
X-21628Y24616D01*
X-21753Y24632D01*
X-21878Y24666D01*
X-21994Y24716D01*
X-22086Y24774D01*
X-22094Y24782D01*
X-22119Y24807D01*
X-22161Y24849D01*
X-22202Y24907D01*
X-22236Y24974D01*
X-22278Y25057D01*
X-22302Y25149D01*
X-22311Y25257D01*
Y25274D01*
Y25307D01*
X-22302Y25357D01*
X-22286Y25432D01*
X-22261Y25507D01*
X-22227Y25591D01*
X-22186Y25674D01*
X-22119Y25749D01*
X-22111Y25757D01*
X-22078Y25782D01*
X-22028Y25815D01*
X-21961Y25849D01*
X-21861Y25882D01*
X-21736Y25915D01*
X-21586Y25940D01*
X-21403Y25949D01*
X-20870D01*
Y24591D01*
D02*
G37*
%LPC*%
G36*
X-170445Y27190D02*
X-172328D01*
Y25057D01*
X-174386D01*
Y27190D01*
X-176277D01*
Y21100D01*
X-170445D01*
Y27190D01*
D02*
G37*
G36*
X-148892Y27290D02*
X-153866D01*
D01*
X-151516D01*
X-151575Y27282D01*
X-151633D01*
X-151775Y27273D01*
X-151933Y27248D01*
X-152100Y27223D01*
X-152266Y27182D01*
X-152424Y27132D01*
X-152433D01*
X-152441Y27123D01*
X-152491Y27107D01*
X-152558Y27073D01*
X-152649Y27023D01*
X-152749Y26974D01*
X-152858Y26907D01*
X-152966Y26823D01*
X-153066Y26740D01*
X-153074Y26732D01*
X-153108Y26699D01*
X-153149Y26648D01*
X-153208Y26590D01*
X-153274Y26507D01*
X-153341Y26424D01*
X-153399Y26332D01*
X-153458Y26232D01*
X-153466Y26224D01*
X-153483Y26182D01*
X-153508Y26132D01*
X-153541Y26057D01*
X-153582Y25965D01*
X-153616Y25857D01*
X-153658Y25740D01*
X-153691Y25607D01*
Y25599D01*
X-153699Y25574D01*
X-153708Y25540D01*
X-153716Y25491D01*
X-153733Y25424D01*
X-153749Y25349D01*
X-153766Y25266D01*
X-153783Y25174D01*
X-153791Y25074D01*
X-153807Y24957D01*
X-153841Y24716D01*
X-153857Y24457D01*
X-153866Y24183D01*
Y24232D01*
Y21000D01*
Y24024D01*
X-153857Y23916D01*
X-153849Y23774D01*
X-153833Y23624D01*
X-153816Y23449D01*
X-153799Y23266D01*
X-153766Y23066D01*
X-153724Y22866D01*
X-153682Y22666D01*
X-153624Y22466D01*
X-153566Y22275D01*
X-153483Y22091D01*
X-153399Y21916D01*
X-153299Y21767D01*
X-153291Y21758D01*
X-153274Y21733D01*
X-153241Y21700D01*
X-153191Y21650D01*
X-153124Y21591D01*
X-153049Y21525D01*
X-152958Y21458D01*
X-152849Y21383D01*
X-152724Y21308D01*
X-152583Y21242D01*
X-152424Y21175D01*
X-152250Y21117D01*
X-152058Y21075D01*
X-151850Y21033D01*
X-151625Y21008D01*
X-151375Y21000D01*
X-151250D01*
X-151183Y21008D01*
X-151108Y21017D01*
X-151017D01*
X-150925Y21033D01*
X-150733Y21058D01*
X-150525Y21100D01*
X-150317Y21158D01*
X-150125Y21242D01*
X-150117D01*
X-150108Y21250D01*
X-150083Y21267D01*
X-150050Y21283D01*
X-149958Y21342D01*
X-149850Y21425D01*
X-149733Y21525D01*
X-149600Y21650D01*
X-149475Y21791D01*
X-149350Y21958D01*
X-149342Y21975D01*
X-149317Y22016D01*
X-149275Y22091D01*
X-149225Y22200D01*
X-149175Y22325D01*
X-149117Y22483D01*
X-149059Y22666D01*
X-149009Y22875D01*
Y22883D01*
X-149000Y22899D01*
Y22933D01*
X-148992Y22975D01*
X-148984Y23033D01*
X-148975Y23099D01*
X-148959Y23174D01*
X-148950Y23258D01*
X-148925Y23449D01*
X-148909Y23666D01*
X-148900Y23908D01*
X-148892Y24166D01*
Y21242D01*
Y24241D01*
X-148900Y24332D01*
Y24449D01*
X-148909Y24591D01*
X-148925Y24749D01*
X-148942Y24932D01*
X-148967Y25116D01*
X-149000Y25315D01*
X-149042Y25515D01*
X-149092Y25724D01*
X-149159Y25924D01*
X-149225Y26107D01*
X-149309Y26290D01*
X-149409Y26449D01*
X-149517Y26590D01*
X-149525Y26598D01*
X-149550Y26623D01*
X-149584Y26657D01*
X-149634Y26699D01*
X-149700Y26757D01*
X-149783Y26815D01*
X-149875Y26874D01*
X-149992Y26940D01*
X-150117Y27007D01*
X-150258Y27065D01*
X-150408Y27132D01*
X-150583Y27182D01*
X-150767Y27223D01*
X-150967Y27257D01*
X-151183Y27282D01*
X-151416Y27290D01*
X-148892D01*
D01*
D02*
G37*
G36*
X-118000Y27190D02*
X-123599D01*
D01*
X-120924D01*
X-120999Y27182D01*
X-121082D01*
X-121166Y27173D01*
X-121266Y27165D01*
X-121482Y27132D01*
X-121699Y27098D01*
X-121924Y27040D01*
X-122124Y26965D01*
X-122132D01*
X-122149Y26957D01*
X-122174Y26940D01*
X-122207Y26923D01*
X-122299Y26874D01*
X-122424Y26799D01*
X-122549Y26707D01*
X-122690Y26598D01*
X-122832Y26465D01*
X-122965Y26315D01*
Y26307D01*
X-122982Y26299D01*
X-122999Y26274D01*
X-123024Y26240D01*
X-123082Y26157D01*
X-123149Y26040D01*
X-123232Y25890D01*
X-123307Y25732D01*
X-123382Y25540D01*
X-123449Y25340D01*
Y25332D01*
X-123457Y25315D01*
X-123465Y25282D01*
X-123474Y25241D01*
X-123482Y25191D01*
X-123499Y25132D01*
X-123507Y25066D01*
X-123524Y24982D01*
X-123549Y24807D01*
X-123574Y24607D01*
X-123590Y24391D01*
X-123599Y24166D01*
D01*
Y21100D01*
Y24007D01*
X-123590Y23924D01*
Y23824D01*
X-123582Y23724D01*
X-123574Y23608D01*
X-123540Y23358D01*
X-123507Y23108D01*
X-123449Y22866D01*
X-123415Y22750D01*
X-123374Y22641D01*
Y22633D01*
X-123365Y22616D01*
X-123349Y22591D01*
X-123332Y22550D01*
X-123307Y22508D01*
X-123282Y22450D01*
X-123215Y22333D01*
X-123124Y22191D01*
X-123015Y22033D01*
X-122899Y21883D01*
X-122757Y21741D01*
X-122749D01*
X-122740Y21725D01*
X-122690Y21683D01*
X-122607Y21625D01*
X-122507Y21550D01*
X-122374Y21467D01*
X-122232Y21383D01*
X-122074Y21317D01*
X-121907Y21258D01*
X-121899D01*
X-121882Y21250D01*
X-121849Y21242D01*
X-121807Y21233D01*
X-121749Y21225D01*
X-121682Y21208D01*
X-121541Y21183D01*
X-121366Y21150D01*
X-121174Y21125D01*
X-120983Y21108D01*
X-120791Y21100D01*
X-118000D01*
Y27190D01*
D02*
G37*
G36*
X-199237Y27190D02*
X-201712D01*
X-202670Y23483D01*
X-203620Y27190D01*
X-206094D01*
Y21100D01*
X-204553D01*
Y25740D01*
X-203353Y21100D01*
X-203892D01*
X-199237D01*
Y27190D01*
D02*
G37*
G36*
X-137712Y25507D02*
X-139520D01*
Y23358D01*
Y23816D01*
X-137712D01*
Y25507D01*
D02*
G37*
G36*
X-130605Y27190D02*
X-132571D01*
X-133938Y22799D01*
X-135287Y27190D01*
X-137203D01*
X-134937Y21100D01*
X-137203D01*
D01*
X-130605D01*
X-132896D01*
X-130605Y27190D01*
D02*
G37*
G36*
X-137712Y23449D02*
Y22791D01*
X-139520D01*
Y22824D01*
Y21100D01*
X-137712D01*
Y23449D01*
D02*
G37*
G36*
X-206677Y27190D02*
X-213489D01*
X-213309D01*
X-211026D01*
X-213301Y21122D01*
D01*
X-213306Y21108D01*
X-215400Y24266D01*
X-213492Y27190D01*
X-219916D01*
X-219741D01*
X-217841Y24232D01*
X-219916Y21100D01*
X-217799D01*
X-216600Y23049D01*
X-215400Y21100D01*
X-211334D01*
X-211035Y22108D01*
X-208893D01*
X-208594Y21100D01*
X-206677D01*
X-208960Y27190D01*
X-206677D01*
D02*
G37*
G36*
X-124615Y27190D02*
X-130597D01*
X-127889D01*
X-127964Y27182D01*
X-128139D01*
X-128239Y27173D01*
X-128456Y27157D01*
X-128672Y27123D01*
X-128881Y27090D01*
X-128981Y27065D01*
X-129072Y27040D01*
X-129080D01*
X-129097Y27032D01*
X-129114Y27023D01*
X-129147Y27007D01*
X-129239Y26974D01*
X-129339Y26915D01*
X-129464Y26840D01*
X-129589Y26740D01*
X-129705Y26623D01*
X-129822Y26482D01*
Y26474D01*
X-129830Y26465D01*
X-129847Y26440D01*
X-129864Y26407D01*
X-129914Y26324D01*
X-129964Y26207D01*
X-130014Y26057D01*
X-130064Y25890D01*
X-130097Y25699D01*
X-130105Y25491D01*
Y25482D01*
Y25466D01*
Y25440D01*
Y25407D01*
X-130097Y25307D01*
X-130080Y25191D01*
X-130055Y25057D01*
X-130014Y24907D01*
X-129964Y24757D01*
X-129889Y24616D01*
X-129880Y24599D01*
X-129847Y24557D01*
X-129797Y24491D01*
X-129730Y24407D01*
X-129647Y24307D01*
X-129547Y24207D01*
X-129422Y24107D01*
X-129289Y24016D01*
X-129280Y24007D01*
X-129247Y23991D01*
X-129189Y23966D01*
X-129114Y23933D01*
X-129022Y23891D01*
X-128905Y23858D01*
X-128781Y23816D01*
X-128631Y23774D01*
X-128647Y23766D01*
X-128689Y23758D01*
X-128747Y23733D01*
X-128814Y23708D01*
X-128981Y23641D01*
X-129056Y23599D01*
X-129122Y23558D01*
X-129130D01*
X-129139Y23541D01*
X-129164Y23524D01*
X-129197Y23491D01*
X-129239Y23449D01*
X-129289Y23391D01*
X-129347Y23316D01*
X-129414Y23233D01*
X-129422Y23224D01*
X-129447Y23191D01*
X-129480Y23149D01*
X-129522Y23099D01*
X-129614Y22975D01*
X-129647Y22916D01*
X-129680Y22858D01*
X-130597Y21100D01*
X-128464D01*
X-127464Y22950D01*
Y22958D01*
X-127456Y22966D01*
X-127431Y23008D01*
X-127398Y23075D01*
X-127348Y23149D01*
X-127298Y23224D01*
X-127239Y23308D01*
X-127189Y23374D01*
X-127131Y23424D01*
X-127123Y23433D01*
X-127098Y23449D01*
X-127048Y23466D01*
X-126998Y23499D01*
X-126923Y23524D01*
X-126848Y23541D01*
X-126756Y23558D01*
X-126664Y23566D01*
X-126506D01*
Y21100D01*
X-124615D01*
Y27190D01*
D02*
G37*
G36*
X-145651Y27290D02*
X-147051D01*
Y21100D01*
X-143568D01*
Y25657D01*
X-143577D01*
X-143610Y25674D01*
X-143652Y25682D01*
X-143710Y25707D01*
X-143785Y25732D01*
X-143868Y25765D01*
X-143960Y25799D01*
X-144060Y25840D01*
X-144268Y25940D01*
X-144493Y26057D01*
X-144710Y26182D01*
X-144810Y26249D01*
X-144901Y26324D01*
X-144910Y26332D01*
X-144926Y26340D01*
X-144951Y26365D01*
X-144976Y26390D01*
X-145068Y26482D01*
X-145176Y26590D01*
X-145293Y26732D01*
X-145418Y26899D01*
X-145543Y27082D01*
X-145651Y27290D01*
D02*
G37*
G36*
X-154224Y27190D02*
X-158573D01*
X-160856Y21100D01*
X-158881D01*
X-158581Y22108D01*
X-156440D01*
X-156140Y21100D01*
X-154224D01*
X-156507Y27190D01*
X-154224D01*
D02*
G37*
G36*
X-164288D02*
X-169454D01*
X-167512D01*
X-167579Y27182D01*
X-167662Y27173D01*
X-167762Y27165D01*
X-167871Y27148D01*
X-167987Y27132D01*
X-168229Y27073D01*
X-168362Y27032D01*
X-168487Y26982D01*
X-168604Y26923D01*
X-168729Y26865D01*
X-168837Y26782D01*
X-168937Y26699D01*
X-168945Y26690D01*
X-168962Y26674D01*
X-168987Y26648D01*
X-169020Y26607D01*
X-169054Y26557D01*
X-169104Y26499D01*
X-169145Y26424D01*
X-169195Y26349D01*
X-169245Y26249D01*
X-169287Y26149D01*
X-169337Y26032D01*
X-169370Y25915D01*
X-169403Y25774D01*
X-169429Y25632D01*
X-169445Y25482D01*
X-169454Y25315D01*
Y21100D01*
Y25224D01*
X-169445Y25166D01*
X-169437Y25082D01*
X-169420Y24999D01*
X-169403Y24899D01*
X-169387Y24791D01*
X-169320Y24557D01*
X-169270Y24441D01*
X-169220Y24316D01*
X-169154Y24199D01*
X-169079Y24083D01*
X-168995Y23974D01*
X-168895Y23874D01*
X-168887Y23866D01*
X-168870Y23849D01*
X-168837Y23824D01*
X-168795Y23791D01*
X-168737Y23758D01*
X-168662Y23708D01*
X-168579Y23666D01*
X-168479Y23616D01*
X-168362Y23566D01*
X-168237Y23524D01*
X-168104Y23474D01*
X-167954Y23441D01*
X-167787Y23408D01*
X-167604Y23383D01*
X-167412Y23366D01*
X-167204Y23358D01*
X-166179D01*
Y21100D01*
X-164288D01*
Y27190D01*
D02*
G37*
G36*
X-176910D02*
X-181259D01*
X-183542Y21100D01*
X-181567D01*
D01*
X-180541D01*
X-181567D01*
X-181267Y22108D01*
X-179126D01*
X-178826Y21100D01*
X-176910D01*
X-179193Y27190D01*
X-176910D01*
D02*
G37*
G36*
X-190273D02*
X-195405Y27190D01*
X-195313D01*
Y25890D01*
X-192156D01*
Y24924D01*
X-195089D01*
Y23683D01*
X-192156D01*
Y22483D01*
X-195405D01*
Y21100D01*
X-190273Y21100D01*
Y27190D01*
D02*
G37*
G36*
X-186449Y27290D02*
X-186732D01*
X-186816Y27282D01*
X-186916Y27273D01*
X-187024Y27265D01*
X-187149Y27257D01*
X-187282Y27232D01*
X-187574Y27182D01*
X-187865Y27107D01*
X-188007Y27057D01*
X-188149Y26998D01*
X-188282Y26923D01*
X-188399Y26848D01*
X-188407Y26840D01*
X-188424Y26832D01*
X-188457Y26799D01*
X-188499Y26765D01*
X-188549Y26723D01*
X-188599Y26665D01*
X-188657Y26590D01*
X-188724Y26515D01*
X-188782Y26424D01*
X-188848Y26324D01*
X-188907Y26207D01*
X-188965Y26082D01*
X-189023Y25949D01*
X-189065Y25807D01*
X-189107Y25649D01*
X-189132Y25474D01*
X-187357Y25374D01*
Y25382D01*
Y25391D01*
X-187341Y25440D01*
X-187324Y25515D01*
X-187291Y25599D01*
X-187249Y25699D01*
X-187199Y25799D01*
X-187132Y25890D01*
X-187057Y25965D01*
X-187049Y25974D01*
X-187016Y25999D01*
X-186966Y26024D01*
X-186899Y26065D01*
X-186807Y26099D01*
X-186699Y26124D01*
X-186574Y26149D01*
X-186432Y26157D01*
X-186383D01*
X-186324Y26149D01*
X-186249Y26140D01*
X-186166Y26124D01*
X-186091Y26099D01*
X-186008Y26065D01*
X-185941Y26015D01*
X-185933Y26007D01*
X-185916Y25990D01*
X-185891Y25957D01*
X-185866Y25924D01*
X-185833Y25874D01*
X-185808Y25815D01*
X-185791Y25749D01*
X-185783Y25674D01*
Y25666D01*
Y25649D01*
X-185791Y25624D01*
X-185799Y25591D01*
X-185816Y25549D01*
X-185841Y25507D01*
X-185874Y25457D01*
X-185916Y25415D01*
X-185924Y25407D01*
X-185941Y25399D01*
X-185983Y25374D01*
X-186041Y25340D01*
X-186124Y25307D01*
X-186232Y25274D01*
X-186374Y25232D01*
X-186449Y25207D01*
X-186541Y25191D01*
X-186557D01*
X-186599Y25182D01*
X-186657Y25166D01*
X-186741Y25149D01*
X-186841Y25124D01*
X-186957Y25091D01*
X-187091Y25057D01*
X-187224Y25024D01*
X-187516Y24941D01*
X-187807Y24849D01*
X-187949Y24799D01*
X-188082Y24749D01*
X-188199Y24699D01*
X-188307Y24649D01*
X-188315D01*
X-188332Y24641D01*
X-188357Y24624D01*
X-188390Y24599D01*
X-188490Y24541D01*
X-188607Y24466D01*
X-188732Y24366D01*
X-188857Y24249D01*
X-188982Y24124D01*
X-189082Y23974D01*
Y23966D01*
X-189090Y23958D01*
X-189107Y23933D01*
X-189123Y23908D01*
X-189165Y23824D01*
X-189207Y23716D01*
X-189257Y23583D01*
X-189290Y23433D01*
X-189323Y23266D01*
X-189332Y23083D01*
Y23024D01*
X-189323Y22983D01*
Y22933D01*
X-189315Y22866D01*
X-189290Y22724D01*
X-189257Y22558D01*
X-189198Y22375D01*
X-189115Y22191D01*
X-189007Y22000D01*
Y21991D01*
X-188990Y21975D01*
X-188974Y21950D01*
X-188948Y21916D01*
X-188874Y21833D01*
X-188773Y21725D01*
X-188640Y21600D01*
X-188490Y21475D01*
X-188307Y21358D01*
X-188099Y21250D01*
X-188090D01*
X-188074Y21242D01*
X-188040Y21225D01*
X-187990Y21208D01*
X-187940Y21192D01*
X-187865Y21175D01*
X-187791Y21150D01*
X-187699Y21125D01*
X-187599Y21100D01*
X-187482Y21083D01*
X-187366Y21058D01*
X-187232Y21042D01*
X-187099Y21025D01*
X-186949Y21008D01*
X-186632Y21000D01*
X-183817D01*
X-186483D01*
X-186383Y21008D01*
X-186257Y21017D01*
X-186108Y21033D01*
X-185949Y21050D01*
X-185783Y21075D01*
X-185608Y21108D01*
X-185424Y21142D01*
X-185249Y21192D01*
X-185075Y21250D01*
X-184908Y21317D01*
X-184750Y21400D01*
X-184608Y21491D01*
X-184483Y21591D01*
X-184475Y21600D01*
X-184458Y21616D01*
X-184425Y21650D01*
X-184391Y21700D01*
X-184341Y21758D01*
X-184291Y21833D01*
X-184233Y21916D01*
X-184175Y22008D01*
X-184116Y22116D01*
X-184058Y22225D01*
X-184008Y22350D01*
X-183950Y22491D01*
X-183908Y22633D01*
X-183867Y22783D01*
X-183833Y22950D01*
X-183817Y23116D01*
X-185608Y23233D01*
Y23224D01*
Y23216D01*
X-185616Y23191D01*
Y23158D01*
X-185633Y23083D01*
X-185658Y22983D01*
X-185691Y22875D01*
X-185724Y22766D01*
X-185783Y22658D01*
X-185841Y22566D01*
X-185858Y22550D01*
X-185899Y22508D01*
X-185958Y22450D01*
X-186058Y22383D01*
X-186174Y22316D01*
X-186316Y22258D01*
X-186474Y22216D01*
X-186566Y22208D01*
X-186666Y22200D01*
X-186732D01*
X-186807Y22208D01*
X-186891Y22225D01*
X-186991Y22241D01*
X-187099Y22275D01*
X-187191Y22325D01*
X-187282Y22383D01*
X-187291Y22391D01*
X-187316Y22416D01*
X-187357Y22458D01*
X-187399Y22508D01*
X-187432Y22575D01*
X-187474Y22650D01*
X-187499Y22733D01*
X-187507Y22824D01*
Y22833D01*
Y22866D01*
X-187499Y22908D01*
X-187482Y22966D01*
X-187457Y23033D01*
X-187416Y23099D01*
X-187366Y23174D01*
X-187299Y23241D01*
X-187291Y23249D01*
X-187257Y23274D01*
X-187191Y23308D01*
X-187149Y23333D01*
X-187099Y23358D01*
X-187041Y23383D01*
X-186974Y23416D01*
X-186891Y23441D01*
X-186807Y23474D01*
X-186707Y23508D01*
X-186591Y23533D01*
X-186466Y23566D01*
X-186332Y23599D01*
X-186316D01*
X-186283Y23616D01*
X-186216Y23624D01*
X-186133Y23649D01*
X-186033Y23674D01*
X-185916Y23708D01*
X-185783Y23749D01*
X-185649Y23791D01*
X-185358Y23899D01*
X-185066Y24024D01*
X-184925Y24091D01*
X-184800Y24166D01*
X-184675Y24249D01*
X-184566Y24332D01*
X-184558Y24341D01*
X-184541Y24358D01*
X-184516Y24383D01*
X-184483Y24416D01*
X-184441Y24457D01*
X-184400Y24516D01*
X-184350Y24582D01*
X-184308Y24649D01*
X-184258Y24732D01*
X-184208Y24824D01*
X-184125Y25024D01*
X-184091Y25132D01*
X-184066Y25249D01*
X-184050Y25374D01*
X-184041Y25507D01*
Y25515D01*
Y25532D01*
Y25557D01*
X-184050Y25591D01*
X-184058Y25674D01*
X-184075Y25790D01*
X-184108Y25932D01*
X-184158Y26074D01*
X-184216Y26232D01*
X-184308Y26390D01*
Y26399D01*
X-184325Y26407D01*
X-184358Y26457D01*
X-184425Y26532D01*
X-184516Y26632D01*
X-184625Y26732D01*
X-184766Y26840D01*
X-184933Y26948D01*
X-185124Y27048D01*
X-185133D01*
X-185149Y27057D01*
X-185183Y27073D01*
X-185224Y27090D01*
X-185283Y27107D01*
X-185349Y27123D01*
X-185424Y27148D01*
X-185516Y27173D01*
X-185616Y27190D01*
X-185733Y27215D01*
X-185858Y27232D01*
X-185991Y27257D01*
X-186133Y27265D01*
X-186291Y27282D01*
X-186449Y27290D01*
D02*
G37*
%LPD*%
G36*
X-172328Y21100D02*
X-174386D01*
Y23566D01*
X-172328D01*
Y21100D01*
D02*
G37*
G36*
X-151292Y26157D02*
X-151216Y26140D01*
X-151125Y26115D01*
X-151025Y26065D01*
X-150925Y25990D01*
X-150875Y25940D01*
X-150825Y25882D01*
X-150783Y25815D01*
X-150750Y25740D01*
Y25732D01*
X-150742Y25724D01*
X-150733Y25690D01*
X-150725Y25657D01*
X-150708Y25607D01*
X-150692Y25549D01*
X-150675Y25474D01*
X-150658Y25382D01*
X-150642Y25282D01*
X-150625Y25166D01*
X-150608Y25041D01*
X-150592Y24899D01*
X-150583Y24741D01*
X-150575Y24566D01*
X-150567Y24374D01*
Y24166D01*
Y24149D01*
Y24116D01*
Y24058D01*
Y23974D01*
X-150575Y23883D01*
Y23774D01*
X-150583Y23658D01*
X-150592Y23533D01*
X-150617Y23266D01*
X-150650Y22999D01*
X-150675Y22883D01*
X-150700Y22766D01*
X-150733Y22666D01*
X-150767Y22575D01*
Y22566D01*
X-150775Y22558D01*
X-150808Y22508D01*
X-150850Y22441D01*
X-150917Y22366D01*
X-151008Y22291D01*
X-151108Y22225D01*
X-151225Y22175D01*
X-151292Y22166D01*
X-151366Y22158D01*
X-151408D01*
X-151458Y22166D01*
X-151516Y22183D01*
X-151591Y22200D01*
X-151658Y22233D01*
X-151733Y22275D01*
X-151808Y22333D01*
X-151816Y22341D01*
X-151841Y22366D01*
X-151875Y22408D01*
X-151916Y22475D01*
X-151958Y22550D01*
X-152008Y22650D01*
X-152050Y22766D01*
X-152091Y22899D01*
Y22908D01*
X-152100Y22916D01*
Y22941D01*
X-152108Y22975D01*
X-152116Y23016D01*
X-152125Y23066D01*
X-152133Y23124D01*
X-152141Y23199D01*
X-152150Y23283D01*
X-152158Y23366D01*
Y23466D01*
X-152166Y23574D01*
X-152175Y23699D01*
X-152183Y23824D01*
Y23966D01*
Y24116D01*
Y24132D01*
Y24166D01*
Y24232D01*
Y24316D01*
X-152175Y24407D01*
Y24524D01*
X-152166Y24649D01*
X-152158Y24774D01*
X-152133Y25049D01*
X-152091Y25315D01*
X-152075Y25440D01*
X-152041Y25557D01*
X-152008Y25666D01*
X-151975Y25749D01*
Y25757D01*
X-151966Y25765D01*
X-151933Y25815D01*
X-151891Y25882D01*
X-151816Y25957D01*
X-151733Y26032D01*
X-151625Y26099D01*
X-151500Y26149D01*
X-151433Y26157D01*
X-151358Y26165D01*
X-151341D01*
X-151292Y26157D01*
D02*
G37*
G36*
X-119883Y22483D02*
X-120433D01*
X-120541Y22491D01*
X-120666Y22500D01*
X-120799Y22516D01*
X-120941Y22533D01*
X-121066Y22566D01*
X-121174Y22608D01*
X-121182Y22616D01*
X-121216Y22633D01*
X-121257Y22666D01*
X-121316Y22716D01*
X-121383Y22775D01*
X-121449Y22858D01*
X-121507Y22950D01*
X-121566Y23066D01*
X-121574Y23083D01*
X-121591Y23133D01*
X-121599Y23166D01*
X-121607Y23208D01*
X-121624Y23258D01*
X-121641Y23324D01*
X-121649Y23391D01*
X-121666Y23466D01*
X-121674Y23558D01*
X-121682Y23649D01*
X-121691Y23758D01*
X-121699Y23866D01*
X-121707Y23991D01*
Y24124D01*
Y24132D01*
Y24166D01*
Y24216D01*
X-121699Y24283D01*
Y24358D01*
X-121691Y24449D01*
X-121682Y24549D01*
X-121666Y24649D01*
X-121632Y24874D01*
X-121574Y25091D01*
X-121541Y25191D01*
X-121499Y25291D01*
X-121449Y25374D01*
X-121391Y25449D01*
Y25457D01*
X-121374Y25466D01*
X-121333Y25507D01*
X-121249Y25566D01*
X-121199Y25599D01*
X-121141Y25632D01*
X-121074Y25666D01*
X-120999Y25690D01*
X-120916Y25724D01*
X-120816Y25749D01*
X-120716Y25774D01*
X-120599Y25790D01*
X-120483Y25807D01*
X-119883D01*
Y22483D01*
D02*
G37*
G36*
X-200779Y21100D02*
X-201962D01*
X-200779Y25740D01*
Y21100D01*
D02*
G37*
G36*
X-216633Y25315D02*
X-217691Y27190D01*
X-215567D01*
X-216633Y25315D01*
D02*
G37*
G36*
X-209302Y23424D02*
X-210643D01*
X-209968Y25607D01*
X-209302Y23424D01*
D02*
G37*
G36*
X-126506Y24716D02*
X-127314D01*
X-127348Y24724D01*
X-127406D01*
X-127473Y24732D01*
X-127556Y24749D01*
X-127664Y24774D01*
X-127789Y24799D01*
X-127797D01*
X-127823Y24807D01*
X-127856Y24816D01*
X-127898Y24832D01*
X-127939Y24857D01*
X-127997Y24891D01*
X-128039Y24932D01*
X-128089Y24982D01*
X-128097Y24991D01*
X-128106Y25007D01*
X-128131Y25041D01*
X-128156Y25091D01*
X-128172Y25141D01*
X-128197Y25199D01*
X-128206Y25266D01*
X-128214Y25340D01*
Y25357D01*
Y25391D01*
X-128206Y25440D01*
X-128189Y25507D01*
X-128164Y25582D01*
X-128131Y25657D01*
X-128089Y25732D01*
X-128022Y25799D01*
X-128014Y25807D01*
X-127989Y25824D01*
X-127939Y25849D01*
X-127864Y25882D01*
X-127773Y25907D01*
X-127647Y25932D01*
X-127498Y25949D01*
X-127323Y25957D01*
X-126506D01*
Y24716D01*
D02*
G37*
G36*
X-145326Y25132D02*
X-145301Y25116D01*
X-145268Y25099D01*
X-145193Y25041D01*
X-145085Y24974D01*
X-144960Y24891D01*
X-144826Y24807D01*
X-144685Y24724D01*
X-144535Y24641D01*
X-144527D01*
X-144518Y24632D01*
X-144493Y24624D01*
X-144468Y24607D01*
X-144385Y24574D01*
X-144268Y24524D01*
X-144127Y24466D01*
X-143968Y24407D01*
X-143777Y24341D01*
X-143568Y24274D01*
Y21100D01*
X-145343D01*
Y25149D01*
X-145335D01*
X-145326Y25132D01*
D02*
G37*
G36*
X-156848Y23424D02*
X-158190D01*
X-157515Y25607D01*
X-156848Y23424D01*
D02*
G37*
G36*
X-166179Y24591D02*
X-166729D01*
X-166821Y24599D01*
X-166938Y24616D01*
X-167062Y24632D01*
X-167187Y24666D01*
X-167304Y24716D01*
X-167396Y24774D01*
X-167404Y24782D01*
X-167429Y24807D01*
X-167471Y24849D01*
X-167512Y24907D01*
X-167546Y24974D01*
X-167587Y25057D01*
X-167612Y25149D01*
X-167621Y25257D01*
Y25274D01*
Y25307D01*
X-167612Y25357D01*
X-167596Y25432D01*
X-167571Y25507D01*
X-167537Y25591D01*
X-167496Y25674D01*
X-167429Y25749D01*
X-167421Y25757D01*
X-167387Y25782D01*
X-167337Y25815D01*
X-167271Y25849D01*
X-167171Y25882D01*
X-167046Y25915D01*
X-166896Y25940D01*
X-166712Y25949D01*
X-166179D01*
Y24591D01*
D02*
G37*
G36*
X-179534Y23424D02*
X-180876D01*
X-180201Y25607D01*
X-179534Y23424D01*
D02*
G37*
%LPC*%
G36*
X-254646Y27190D02*
X-259711D01*
X-259420D01*
Y25840D01*
X-256687D01*
X-256546Y24924D01*
X-256562Y24932D01*
X-256595Y24949D01*
X-256654Y24974D01*
X-256721Y24999D01*
X-256804Y25032D01*
X-256904Y25066D01*
X-257104Y25124D01*
X-257120D01*
X-257154Y25132D01*
X-257204Y25149D01*
X-257279Y25157D01*
X-257362Y25174D01*
X-257454Y25182D01*
X-257654Y25191D01*
X-257745D01*
X-257803Y25182D01*
X-257887Y25174D01*
X-257970Y25157D01*
X-258070Y25141D01*
X-258187Y25124D01*
X-258420Y25057D01*
X-258545Y25007D01*
X-258670Y24957D01*
X-258787Y24891D01*
X-258912Y24816D01*
X-259028Y24732D01*
X-259137Y24632D01*
X-259145Y24624D01*
X-259161Y24607D01*
X-259186Y24574D01*
X-259228Y24532D01*
X-259270Y24482D01*
X-259320Y24416D01*
X-259370Y24341D01*
X-259428Y24249D01*
X-259478Y24158D01*
X-259528Y24049D01*
X-259578Y23941D01*
X-259620Y23816D01*
X-259661Y23683D01*
X-259686Y23541D01*
X-259703Y23399D01*
X-259711Y23241D01*
Y23183D01*
X-259703Y23141D01*
Y23091D01*
X-259695Y23024D01*
X-259678Y22883D01*
X-259636Y22708D01*
X-259586Y22516D01*
X-259511Y22316D01*
X-259411Y22108D01*
Y22100D01*
X-259395Y22083D01*
X-259378Y22058D01*
X-259361Y22016D01*
X-259295Y21925D01*
X-259195Y21800D01*
X-259078Y21667D01*
X-258937Y21533D01*
X-258770Y21400D01*
X-258578Y21283D01*
X-258570D01*
X-258553Y21275D01*
X-258520Y21258D01*
X-258478Y21242D01*
X-258428Y21217D01*
X-258362Y21192D01*
X-258295Y21167D01*
X-258203Y21142D01*
X-258112Y21117D01*
X-258012Y21092D01*
X-257895Y21067D01*
X-257770Y21042D01*
X-257645Y21025D01*
X-257504Y21008D01*
X-257204Y21000D01*
X-257054D01*
X-256995Y21008D01*
X-256854Y21017D01*
X-256687Y21025D01*
X-256512Y21050D01*
X-256337Y21075D01*
X-256171Y21108D01*
X-256162D01*
X-256154Y21117D01*
X-256129Y21125D01*
X-256096Y21133D01*
X-256021Y21158D01*
X-255921Y21192D01*
X-255804Y21242D01*
X-255679Y21300D01*
X-255554Y21375D01*
X-255438Y21450D01*
X-255421Y21458D01*
X-255387Y21491D01*
X-255329Y21533D01*
X-255263Y21600D01*
X-255187Y21675D01*
X-255104Y21758D01*
X-255021Y21858D01*
X-254946Y21958D01*
X-254938Y21975D01*
X-254913Y22008D01*
X-254879Y22075D01*
X-254838Y22158D01*
X-254796Y22258D01*
X-254746Y22383D01*
X-254696Y22525D01*
X-254646Y22675D01*
X-256354Y22866D01*
Y22858D01*
Y22850D01*
X-256371Y22799D01*
X-256387Y22724D01*
X-256412Y22633D01*
X-256446Y22533D01*
X-256495Y22425D01*
X-256562Y22325D01*
X-256637Y22241D01*
X-256646Y22233D01*
X-256679Y22208D01*
X-256729Y22175D01*
X-256795Y22141D01*
X-256870Y22100D01*
X-256970Y22066D01*
X-257070Y22041D01*
X-257187Y22033D01*
X-257204D01*
X-257245Y22041D01*
X-257312Y22050D01*
X-257395Y22066D01*
X-257487Y22100D01*
X-257587Y22150D01*
X-257687Y22208D01*
X-257778Y22300D01*
X-257787Y22316D01*
X-257812Y22350D01*
X-257854Y22408D01*
X-257895Y22500D01*
X-257937Y22608D01*
X-257978Y22750D01*
X-258004Y22908D01*
X-258012Y23091D01*
Y23099D01*
Y23116D01*
Y23141D01*
Y23183D01*
X-258004Y23274D01*
X-257978Y23391D01*
X-257953Y23524D01*
X-257912Y23658D01*
X-257854Y23774D01*
X-257770Y23883D01*
X-257762Y23891D01*
X-257729Y23924D01*
X-257679Y23966D01*
X-257604Y24016D01*
X-257520Y24058D01*
X-257412Y24099D01*
X-257287Y24132D01*
X-257154Y24141D01*
X-257112D01*
X-257062Y24132D01*
X-257004Y24124D01*
X-256929Y24107D01*
X-256845Y24091D01*
X-256762Y24058D01*
X-256679Y24016D01*
X-256670D01*
X-256646Y23999D01*
X-256612Y23974D01*
X-256562Y23949D01*
X-256512Y23899D01*
X-256446Y23849D01*
X-256371Y23783D01*
X-256296Y23699D01*
X-254863Y23908D01*
X-255396Y27190D01*
X-254646D01*
D01*
D02*
G37*
G36*
X-260394Y27290D02*
X-265368D01*
D01*
X-263019D01*
X-263077Y27282D01*
X-263136D01*
X-263277Y27273D01*
X-263435Y27248D01*
X-263602Y27223D01*
X-263769Y27182D01*
X-263927Y27132D01*
X-263935D01*
X-263944Y27123D01*
X-263994Y27107D01*
X-264060Y27073D01*
X-264152Y27023D01*
X-264252Y26974D01*
X-264360Y26907D01*
X-264468Y26823D01*
X-264569Y26740D01*
X-264577Y26732D01*
X-264610Y26699D01*
X-264652Y26648D01*
X-264710Y26590D01*
X-264777Y26507D01*
X-264843Y26424D01*
X-264902Y26332D01*
X-264960Y26232D01*
X-264968Y26224D01*
X-264985Y26182D01*
X-265010Y26132D01*
X-265043Y26057D01*
X-265085Y25965D01*
X-265118Y25857D01*
X-265160Y25740D01*
X-265193Y25607D01*
Y25599D01*
X-265202Y25574D01*
X-265210Y25540D01*
X-265218Y25491D01*
X-265235Y25424D01*
X-265252Y25349D01*
X-265268Y25266D01*
X-265285Y25174D01*
X-265293Y25074D01*
X-265310Y24957D01*
X-265343Y24716D01*
X-265360Y24457D01*
X-265368Y24183D01*
Y24232D01*
Y21000D01*
Y24024D01*
X-265360Y23916D01*
X-265352Y23774D01*
X-265335Y23624D01*
X-265318Y23449D01*
X-265302Y23266D01*
X-265268Y23066D01*
X-265227Y22866D01*
X-265185Y22666D01*
X-265127Y22466D01*
X-265068Y22275D01*
X-264985Y22091D01*
X-264902Y21916D01*
X-264802Y21767D01*
X-264793Y21758D01*
X-264777Y21733D01*
X-264743Y21700D01*
X-264693Y21650D01*
X-264627Y21591D01*
X-264552Y21525D01*
X-264460Y21458D01*
X-264352Y21383D01*
X-264227Y21308D01*
X-264085Y21242D01*
X-263927Y21175D01*
X-263752Y21117D01*
X-263560Y21075D01*
X-263352Y21033D01*
X-263127Y21008D01*
X-262877Y21000D01*
X-262752D01*
X-262686Y21008D01*
X-262611Y21017D01*
X-262519D01*
X-262427Y21033D01*
X-262236Y21058D01*
X-262027Y21100D01*
X-261819Y21158D01*
X-261628Y21242D01*
X-261619D01*
X-261611Y21250D01*
X-261586Y21267D01*
X-261553Y21283D01*
X-261461Y21342D01*
X-261353Y21425D01*
X-261236Y21525D01*
X-261103Y21650D01*
X-260978Y21791D01*
X-260853Y21958D01*
X-260844Y21975D01*
X-260819Y22016D01*
X-260778Y22091D01*
X-260728Y22200D01*
X-260678Y22325D01*
X-260620Y22483D01*
X-260561Y22666D01*
X-260511Y22875D01*
Y22883D01*
X-260503Y22899D01*
Y22933D01*
X-260494Y22975D01*
X-260486Y23033D01*
X-260478Y23099D01*
X-260461Y23174D01*
X-260453Y23258D01*
X-260428Y23449D01*
X-260411Y23666D01*
X-260403Y23908D01*
X-260394Y24166D01*
Y21242D01*
Y24241D01*
X-260403Y24332D01*
Y24449D01*
X-260411Y24591D01*
X-260428Y24749D01*
X-260445Y24932D01*
X-260469Y25116D01*
X-260503Y25315D01*
X-260544Y25515D01*
X-260595Y25724D01*
X-260661Y25924D01*
X-260728Y26107D01*
X-260811Y26290D01*
X-260911Y26449D01*
X-261019Y26590D01*
X-261028Y26598D01*
X-261053Y26623D01*
X-261086Y26657D01*
X-261136Y26699D01*
X-261203Y26757D01*
X-261286Y26815D01*
X-261378Y26874D01*
X-261494Y26940D01*
X-261619Y27007D01*
X-261761Y27065D01*
X-261911Y27132D01*
X-262086Y27182D01*
X-262269Y27223D01*
X-262469Y27257D01*
X-262686Y27282D01*
X-262919Y27290D01*
X-260394D01*
D01*
D02*
G37*
G36*
X-265743Y27190D02*
X-267709D01*
X-269076Y22799D01*
X-270425Y27190D01*
X-268732D01*
X-272341D01*
X-270075Y21100D01*
X-268034D01*
X-265743Y27190D01*
D02*
G37*
G36*
X-283214D02*
X-290025D01*
X-289845D01*
X-287563D01*
X-289837Y21122D01*
D01*
X-289842Y21108D01*
X-291936Y24266D01*
X-290029Y27190D01*
X-296452D01*
X-296277D01*
X-294377Y24232D01*
X-296452Y21100D01*
X-294336D01*
X-293136Y23049D01*
X-291936Y21100D01*
X-287871D01*
X-287571Y22108D01*
X-285430D01*
X-285130Y21100D01*
X-283214D01*
X-285496Y27190D01*
X-283214D01*
D02*
G37*
G36*
X-239000D02*
X-240883D01*
Y21100D01*
X-239000D01*
Y27190D01*
D02*
G37*
G36*
X-242241D02*
X-248073D01*
Y21100D01*
X-246298D01*
X-244007Y24457D01*
Y21100D01*
X-242241D01*
Y27190D01*
D02*
G37*
G36*
X-249214Y25507D02*
X-251022D01*
Y21100D01*
X-249214D01*
Y22799D01*
Y22791D01*
X-251022D01*
Y23816D01*
X-249214D01*
Y25507D01*
D02*
G37*
G36*
X-275774Y27190D02*
X-282631D01*
Y21100D01*
X-281089D01*
Y25740D01*
X-279890Y21100D01*
X-278498D01*
X-277315Y25740D01*
Y21100D01*
X-275774D01*
Y27190D01*
D02*
G37*
%LPD*%
G36*
X-262794Y26157D02*
X-262719Y26140D01*
X-262627Y26115D01*
X-262527Y26065D01*
X-262427Y25990D01*
X-262377Y25940D01*
X-262327Y25882D01*
X-262286Y25815D01*
X-262252Y25740D01*
Y25732D01*
X-262244Y25724D01*
X-262236Y25690D01*
X-262227Y25657D01*
X-262211Y25607D01*
X-262194Y25549D01*
X-262177Y25474D01*
X-262161Y25382D01*
X-262144Y25282D01*
X-262127Y25166D01*
X-262111Y25041D01*
X-262094Y24899D01*
X-262086Y24741D01*
X-262077Y24566D01*
X-262069Y24374D01*
Y24166D01*
Y24149D01*
Y24116D01*
Y24058D01*
Y23974D01*
X-262077Y23883D01*
Y23774D01*
X-262086Y23658D01*
X-262094Y23533D01*
X-262119Y23266D01*
X-262152Y22999D01*
X-262177Y22883D01*
X-262202Y22766D01*
X-262236Y22666D01*
X-262269Y22575D01*
Y22566D01*
X-262277Y22558D01*
X-262311Y22508D01*
X-262352Y22441D01*
X-262419Y22366D01*
X-262511Y22291D01*
X-262611Y22225D01*
X-262727Y22175D01*
X-262794Y22166D01*
X-262869Y22158D01*
X-262910D01*
X-262960Y22166D01*
X-263019Y22183D01*
X-263094Y22200D01*
X-263160Y22233D01*
X-263235Y22275D01*
X-263310Y22333D01*
X-263319Y22341D01*
X-263344Y22366D01*
X-263377Y22408D01*
X-263419Y22475D01*
X-263460Y22550D01*
X-263510Y22650D01*
X-263552Y22766D01*
X-263594Y22899D01*
Y22908D01*
X-263602Y22916D01*
Y22941D01*
X-263610Y22975D01*
X-263619Y23016D01*
X-263627Y23066D01*
X-263635Y23124D01*
X-263644Y23199D01*
X-263652Y23283D01*
X-263660Y23366D01*
Y23466D01*
X-263669Y23574D01*
X-263677Y23699D01*
X-263685Y23824D01*
Y23966D01*
Y24116D01*
Y24132D01*
Y24166D01*
Y24232D01*
Y24316D01*
X-263677Y24407D01*
Y24524D01*
X-263669Y24649D01*
X-263660Y24774D01*
X-263635Y25049D01*
X-263594Y25315D01*
X-263577Y25440D01*
X-263544Y25557D01*
X-263510Y25666D01*
X-263477Y25749D01*
Y25757D01*
X-263469Y25765D01*
X-263435Y25815D01*
X-263394Y25882D01*
X-263319Y25957D01*
X-263235Y26032D01*
X-263127Y26099D01*
X-263002Y26149D01*
X-262936Y26157D01*
X-262861Y26165D01*
X-262844D01*
X-262794Y26157D01*
D02*
G37*
G36*
X-293169Y25315D02*
X-294228Y27190D01*
X-292103D01*
X-293169Y25315D01*
D02*
G37*
G36*
X-285838Y23424D02*
X-287179D01*
X-286504Y25607D01*
X-285838Y23424D01*
D02*
G37*
G36*
X-246298Y23808D02*
Y27190D01*
X-243990D01*
X-246298Y23808D01*
D02*
G37*
G36*
X-279206Y23483D02*
X-280156Y27190D01*
X-278248D01*
X-279206Y23483D01*
D02*
G37*
%LPC*%
G36*
X139312Y27190D02*
X134146D01*
X136088D01*
X136021Y27182D01*
X135938Y27173D01*
X135838Y27165D01*
X135729Y27148D01*
X135613Y27132D01*
X135371Y27073D01*
X135238Y27032D01*
X135113Y26982D01*
X134996Y26923D01*
X134871Y26865D01*
X134763Y26782D01*
X134663Y26699D01*
X134655Y26690D01*
X134638Y26674D01*
X134613Y26648D01*
X134580Y26607D01*
X134546Y26557D01*
X134496Y26499D01*
X134455Y26424D01*
X134405Y26349D01*
X134355Y26249D01*
X134313Y26149D01*
X134263Y26032D01*
X134230Y25915D01*
X134197Y25774D01*
X134171Y25632D01*
X134155Y25482D01*
X134146Y25315D01*
Y25340D01*
Y25224D01*
X134155Y25166D01*
X134163Y25082D01*
X134180Y24999D01*
X134197Y24899D01*
X134213Y24791D01*
X134280Y24557D01*
X134330Y24441D01*
X134380Y24316D01*
X134446Y24199D01*
X134521Y24083D01*
X134605Y23974D01*
X134705Y23874D01*
X134713Y23866D01*
X134730Y23849D01*
X134763Y23824D01*
X134805Y23791D01*
X134863Y23758D01*
X134938Y23708D01*
X135021Y23666D01*
X135121Y23616D01*
X135238Y23566D01*
X135363Y23524D01*
X135496Y23474D01*
X135646Y23441D01*
X135813Y23408D01*
X135996Y23383D01*
X136188Y23366D01*
X136396Y23358D01*
X137421D01*
Y21100D01*
X139312D01*
Y27190D01*
D02*
G37*
G36*
X75503Y27190D02*
X70338D01*
X72279D01*
X72212Y27182D01*
X72129Y27173D01*
X72029Y27165D01*
X71921Y27148D01*
X71804Y27132D01*
X71562Y27073D01*
X71429Y27032D01*
X71304Y26982D01*
X71188Y26923D01*
X71063Y26865D01*
X70954Y26782D01*
X70854Y26699D01*
X70846Y26690D01*
X70829Y26674D01*
X70804Y26648D01*
X70771Y26607D01*
X70738Y26557D01*
X70688Y26499D01*
X70646Y26424D01*
X70596Y26349D01*
X70546Y26249D01*
X70504Y26149D01*
X70455Y26032D01*
X70421Y25915D01*
X70388Y25774D01*
X70363Y25632D01*
X70346Y25482D01*
X70338Y25315D01*
D01*
D01*
Y25224D01*
X70346Y25166D01*
X70354Y25082D01*
X70371Y24999D01*
X70388Y24899D01*
X70405Y24791D01*
X70471Y24557D01*
X70521Y24441D01*
X70571Y24316D01*
X70638Y24199D01*
X70713Y24083D01*
X70796Y23974D01*
X70896Y23874D01*
X70904Y23866D01*
X70921Y23849D01*
X70954Y23824D01*
X70996Y23791D01*
X71054Y23758D01*
X71129Y23708D01*
X71213Y23666D01*
X71313Y23616D01*
X71429Y23566D01*
X71554Y23524D01*
X71687Y23474D01*
X71837Y23441D01*
X72004Y23408D01*
X72187Y23383D01*
X72379Y23366D01*
X72587Y23358D01*
X73612D01*
Y21100D01*
X75503D01*
Y27190D01*
D02*
G37*
G36*
X90974Y27190D02*
X85909D01*
X86200D01*
Y25840D01*
X88933D01*
X89075Y24924D01*
X89058Y24932D01*
X89025Y24949D01*
X88966Y24974D01*
X88900Y24999D01*
X88816Y25032D01*
X88716Y25066D01*
X88517Y25124D01*
X88500D01*
X88467Y25132D01*
X88417Y25149D01*
X88342Y25157D01*
X88258Y25174D01*
X88167Y25182D01*
X87967Y25191D01*
X87875D01*
X87817Y25182D01*
X87733Y25174D01*
X87650Y25157D01*
X87550Y25141D01*
X87434Y25124D01*
X87200Y25057D01*
X87075Y25007D01*
X86950Y24957D01*
X86834Y24891D01*
X86709Y24816D01*
X86592Y24732D01*
X86484Y24632D01*
X86475Y24624D01*
X86459Y24607D01*
X86434Y24574D01*
X86392Y24532D01*
X86350Y24482D01*
X86300Y24416D01*
X86250Y24341D01*
X86192Y24249D01*
X86142Y24158D01*
X86092Y24049D01*
X86042Y23941D01*
X86000Y23816D01*
X85959Y23683D01*
X85934Y23541D01*
X85917Y23399D01*
X85909Y23241D01*
Y23183D01*
X85917Y23141D01*
Y23091D01*
X85926Y23024D01*
X85942Y22883D01*
X85984Y22708D01*
X86034Y22516D01*
X86109Y22316D01*
X86209Y22108D01*
Y22100D01*
X86225Y22083D01*
X86242Y22058D01*
X86259Y22016D01*
X86325Y21925D01*
X86425Y21800D01*
X86542Y21667D01*
X86684Y21533D01*
X86850Y21400D01*
X87042Y21283D01*
X87050D01*
X87067Y21275D01*
X87100Y21258D01*
X87142Y21242D01*
X87192Y21217D01*
X87259Y21192D01*
X87325Y21167D01*
X87417Y21142D01*
X87508Y21117D01*
X87608Y21092D01*
X87725Y21067D01*
X87850Y21042D01*
X87975Y21025D01*
X88117Y21008D01*
X88417Y21000D01*
X85909D01*
X90974D01*
X88567D01*
X88625Y21008D01*
X88766Y21017D01*
X88933Y21025D01*
X89108Y21050D01*
X89283Y21075D01*
X89450Y21108D01*
X89458D01*
X89466Y21117D01*
X89491Y21125D01*
X89525Y21133D01*
X89600Y21158D01*
X89699Y21192D01*
X89816Y21242D01*
X89941Y21300D01*
X90066Y21375D01*
X90183Y21450D01*
X90199Y21458D01*
X90233Y21491D01*
X90291Y21533D01*
X90358Y21600D01*
X90433Y21675D01*
X90516Y21758D01*
X90599Y21858D01*
X90674Y21958D01*
X90683Y21975D01*
X90708Y22008D01*
X90741Y22075D01*
X90783Y22158D01*
X90824Y22258D01*
X90874Y22383D01*
X90924Y22525D01*
X90974Y22675D01*
X89266Y22866D01*
Y22858D01*
Y22850D01*
X89250Y22799D01*
X89233Y22724D01*
X89208Y22633D01*
X89175Y22533D01*
X89125Y22425D01*
X89058Y22325D01*
X88983Y22241D01*
X88975Y22233D01*
X88941Y22208D01*
X88891Y22175D01*
X88825Y22141D01*
X88750Y22100D01*
X88650Y22066D01*
X88550Y22041D01*
X88433Y22033D01*
X88417D01*
X88375Y22041D01*
X88308Y22050D01*
X88225Y22066D01*
X88133Y22100D01*
X88033Y22150D01*
X87933Y22208D01*
X87842Y22300D01*
X87833Y22316D01*
X87808Y22350D01*
X87767Y22408D01*
X87725Y22500D01*
X87683Y22608D01*
X87642Y22750D01*
X87617Y22908D01*
X87608Y23091D01*
Y23099D01*
Y23116D01*
Y23141D01*
Y23183D01*
X87617Y23274D01*
X87642Y23391D01*
X87667Y23524D01*
X87708Y23658D01*
X87767Y23774D01*
X87850Y23883D01*
X87858Y23891D01*
X87892Y23924D01*
X87942Y23966D01*
X88017Y24016D01*
X88100Y24058D01*
X88208Y24099D01*
X88333Y24132D01*
X88467Y24141D01*
X88508D01*
X88558Y24132D01*
X88617Y24124D01*
X88692Y24107D01*
X88775Y24091D01*
X88858Y24058D01*
X88941Y24016D01*
X88950D01*
X88975Y23999D01*
X89008Y23974D01*
X89058Y23949D01*
X89108Y23899D01*
X89175Y23849D01*
X89250Y23783D01*
X89325Y23699D01*
X90758Y23908D01*
X90224Y27190D01*
X90974D01*
D02*
G37*
G36*
X127481D02*
X125732D01*
X123424Y23808D01*
Y27190D01*
X121650D01*
Y21100D01*
X127481D01*
Y27190D01*
D02*
G37*
G36*
X69980Y27190D02*
X64839D01*
X63889Y23791D01*
X63248Y27190D01*
X61465D01*
X62815Y21100D01*
X64656D01*
X65722Y24932D01*
X66789Y21100D01*
X65722D01*
X69980D01*
X68630D01*
X69980Y27190D01*
D02*
G37*
G36*
X133272Y25507D02*
X131464D01*
Y23441D01*
Y23816D01*
X133272D01*
Y25507D01*
D02*
G37*
G36*
Y23449D02*
Y22791D01*
X131464D01*
Y22850D01*
Y21100D01*
X133272D01*
Y23449D01*
D02*
G37*
G36*
X100788Y27290D02*
X94582D01*
X97339D01*
X97256Y27282D01*
X97164D01*
X97056Y27273D01*
X96939Y27265D01*
X96698Y27248D01*
X96448Y27215D01*
X96206Y27165D01*
X96098Y27140D01*
X95998Y27107D01*
X95990D01*
X95973Y27098D01*
X95948Y27090D01*
X95915Y27073D01*
X95823Y27032D01*
X95706Y26965D01*
X95573Y26890D01*
X95431Y26790D01*
X95298Y26665D01*
X95165Y26532D01*
Y26524D01*
X95148Y26515D01*
X95132Y26490D01*
X95106Y26465D01*
X95048Y26382D01*
X94973Y26265D01*
X94898Y26124D01*
X94815Y25957D01*
X94732Y25765D01*
X94665Y25557D01*
X96481Y25241D01*
X96489Y25257D01*
X96506Y25299D01*
X96531Y25357D01*
X96573Y25432D01*
X96623Y25515D01*
X96689Y25607D01*
X96773Y25690D01*
X96864Y25765D01*
X96873Y25774D01*
X96914Y25790D01*
X96973Y25824D01*
X97048Y25857D01*
X97148Y25890D01*
X97264Y25924D01*
X97398Y25940D01*
X97548Y25949D01*
X97606D01*
X97647Y25940D01*
X97706Y25932D01*
X97764Y25924D01*
X97906Y25899D01*
X98064Y25840D01*
X98231Y25765D01*
X98314Y25715D01*
X98389Y25657D01*
X98464Y25591D01*
X98539Y25515D01*
Y25507D01*
X98556Y25499D01*
X98572Y25474D01*
X98597Y25432D01*
X98622Y25391D01*
X98656Y25332D01*
X98689Y25266D01*
X98722Y25191D01*
X98756Y25099D01*
X98789Y24999D01*
X98822Y24882D01*
X98847Y24766D01*
X98872Y24632D01*
X98889Y24482D01*
X98897Y24324D01*
X98905Y24158D01*
Y24149D01*
Y24116D01*
Y24066D01*
X98897Y23999D01*
Y23916D01*
X98889Y23824D01*
X98872Y23724D01*
X98855Y23616D01*
X98814Y23383D01*
X98747Y23149D01*
X98706Y23041D01*
X98656Y22933D01*
X98606Y22833D01*
X98539Y22750D01*
X98531Y22741D01*
X98522Y22733D01*
X98497Y22708D01*
X98472Y22683D01*
X98389Y22616D01*
X98264Y22541D01*
X98122Y22466D01*
X97939Y22400D01*
X97731Y22350D01*
X97622Y22341D01*
X97498Y22333D01*
X97439D01*
X97381Y22341D01*
X97306D01*
X97214Y22350D01*
X97114Y22366D01*
X96898Y22416D01*
X96881Y22425D01*
X96848Y22433D01*
X96789Y22458D01*
X96706Y22491D01*
X96606Y22533D01*
X96489Y22583D01*
X96364Y22650D01*
X96231Y22724D01*
Y23299D01*
X97489D01*
Y24566D01*
X94582D01*
Y21975D01*
X94590Y21966D01*
X94615Y21950D01*
X94665Y21925D01*
X94723Y21883D01*
X94798Y21833D01*
X94881Y21783D01*
X94973Y21725D01*
X95082Y21667D01*
X95315Y21533D01*
X95565Y21408D01*
X95815Y21292D01*
X95940Y21242D01*
X96065Y21200D01*
X96073D01*
X96090Y21192D01*
X96131Y21183D01*
X96181Y21167D01*
X96240Y21150D01*
X96314Y21133D01*
X96398Y21117D01*
X96498Y21100D01*
X96606Y21083D01*
X96714Y21067D01*
X96848Y21050D01*
X96981Y21033D01*
X97273Y21008D01*
X97589Y21000D01*
X97697D01*
X97773Y21008D01*
X97864D01*
X97964Y21017D01*
X98089Y21033D01*
X98214Y21050D01*
X98497Y21092D01*
X98789Y21158D01*
X99080Y21250D01*
X99222Y21300D01*
X99355Y21367D01*
X99364Y21375D01*
X99389Y21383D01*
X99422Y21408D01*
X99464Y21433D01*
X99522Y21475D01*
X99589Y21525D01*
X99664Y21575D01*
X99747Y21641D01*
X99830Y21716D01*
X99914Y21791D01*
X100005Y21883D01*
X100089Y21983D01*
X100180Y22091D01*
X100264Y22200D01*
X100338Y22325D01*
X100414Y22458D01*
Y22466D01*
X100430Y22491D01*
X100447Y22533D01*
X100472Y22591D01*
X100497Y22658D01*
X100530Y22741D01*
X100563Y22833D01*
X100597Y22941D01*
X100638Y23066D01*
X100672Y23191D01*
X100705Y23333D01*
X100730Y23474D01*
X100772Y23799D01*
X100780Y23966D01*
X100788Y24141D01*
Y21533D01*
Y24283D01*
Y24241D01*
X100780Y24307D01*
X100772Y24399D01*
X100763Y24499D01*
X100755Y24607D01*
X100738Y24732D01*
X100713Y24866D01*
X100688Y25007D01*
X100613Y25291D01*
X100572Y25440D01*
X100513Y25591D01*
X100455Y25732D01*
X100380Y25874D01*
X100372Y25882D01*
X100364Y25907D01*
X100338Y25940D01*
X100305Y25999D01*
X100264Y26057D01*
X100205Y26124D01*
X100147Y26207D01*
X100072Y26290D01*
X99997Y26374D01*
X99905Y26465D01*
X99805Y26565D01*
X99697Y26657D01*
X99580Y26748D01*
X99455Y26832D01*
X99314Y26915D01*
X99172Y26990D01*
X99164D01*
X99147Y27007D01*
X99106Y27015D01*
X99056Y27040D01*
X98997Y27057D01*
X98922Y27082D01*
X98830Y27115D01*
X98731Y27140D01*
X98622Y27165D01*
X98497Y27198D01*
X98356Y27223D01*
X98206Y27240D01*
X98047Y27265D01*
X97881Y27273D01*
X97697Y27290D01*
X100788D01*
D02*
G37*
G36*
X153000Y27190D02*
X147168D01*
Y21100D01*
X149059D01*
Y23566D01*
X151117D01*
Y21100D01*
X153000D01*
Y27190D01*
D02*
G37*
G36*
X146518D02*
X139920D01*
D01*
X142186Y21100D01*
X144227D01*
X146518Y27190D01*
D01*
D02*
G37*
G36*
X113285D02*
X107303D01*
X110011D01*
X109936Y27182D01*
X109761D01*
X109661Y27173D01*
X109445Y27157D01*
X109228Y27123D01*
X109020Y27090D01*
X108920Y27065D01*
X108828Y27040D01*
X108820D01*
X108803Y27032D01*
X108786Y27023D01*
X108753Y27007D01*
X108661Y26974D01*
X108561Y26915D01*
X108436Y26840D01*
X108311Y26740D01*
X108195Y26623D01*
X108078Y26482D01*
Y26474D01*
X108070Y26465D01*
X108053Y26440D01*
X108036Y26407D01*
X107986Y26324D01*
X107936Y26207D01*
X107887Y26057D01*
X107837Y25890D01*
X107803Y25699D01*
X107795Y25491D01*
Y25482D01*
Y25466D01*
Y25440D01*
Y25407D01*
X107803Y25307D01*
X107820Y25191D01*
X107845Y25057D01*
X107887Y24907D01*
X107936Y24757D01*
X108012Y24616D01*
X108020Y24599D01*
X108053Y24557D01*
X108103Y24491D01*
X108170Y24407D01*
X108253Y24307D01*
X108353Y24207D01*
X108478Y24107D01*
X108611Y24016D01*
X108620Y24007D01*
X108653Y23991D01*
X108711Y23966D01*
X108786Y23933D01*
X108878Y23891D01*
X108995Y23858D01*
X109120Y23816D01*
X109270Y23774D01*
X109253Y23766D01*
X109211Y23758D01*
X109153Y23733D01*
X109086Y23708D01*
X108920Y23641D01*
X108845Y23599D01*
X108778Y23558D01*
X108770D01*
X108761Y23541D01*
X108736Y23524D01*
X108703Y23491D01*
X108661Y23449D01*
X108611Y23391D01*
X108553Y23316D01*
X108486Y23233D01*
X108478Y23224D01*
X108453Y23191D01*
X108420Y23149D01*
X108378Y23099D01*
X108286Y22975D01*
X108253Y22916D01*
X108220Y22858D01*
X107303Y21100D01*
X109436D01*
X110436Y22950D01*
Y22958D01*
X110444Y22966D01*
X110469Y23008D01*
X110503Y23075D01*
X110553Y23149D01*
X110603Y23224D01*
X110661Y23308D01*
X110711Y23374D01*
X110769Y23424D01*
X110778Y23433D01*
X110802Y23449D01*
X110852Y23466D01*
X110902Y23499D01*
X110977Y23524D01*
X111052Y23541D01*
X111144Y23558D01*
X111236Y23566D01*
X111394D01*
Y21100D01*
X113285D01*
Y27190D01*
D02*
G37*
G36*
X106704D02*
X101572D01*
D01*
X101663D01*
Y25890D01*
X104821D01*
Y24924D01*
X101888D01*
Y23683D01*
X104821D01*
Y22483D01*
X101572D01*
Y21100D01*
X106704D01*
Y27190D01*
D02*
G37*
G36*
X85567D02*
X78936Y27190D01*
D01*
X81218Y27190D01*
X78936Y21100D01*
X80910Y21100D01*
X81210Y22108D01*
X83351D01*
X83651Y21100D01*
X85567D01*
X83285Y27190D01*
X85567D01*
D02*
G37*
G36*
X60874Y27190D02*
X54017D01*
Y21100D01*
X55558D01*
Y25740D01*
X56758Y21100D01*
X58149D01*
X59332Y25740D01*
Y21100D01*
X60874D01*
Y27190D01*
D02*
G37*
G36*
X117501Y27290D02*
X114327D01*
X117434D01*
X117351Y27282D01*
X117251D01*
X117126Y27265D01*
X116976Y27248D01*
X116809Y27223D01*
X116634Y27190D01*
X116451Y27148D01*
X116259Y27090D01*
X116060Y27023D01*
X115868Y26948D01*
X115676Y26848D01*
X115493Y26740D01*
X115310Y26615D01*
X115151Y26474D01*
X115143Y26465D01*
X115118Y26432D01*
X115076Y26390D01*
X115018Y26324D01*
X114960Y26240D01*
X114893Y26140D01*
X114818Y26015D01*
X114735Y25882D01*
X114660Y25724D01*
X114585Y25557D01*
X114518Y25366D01*
X114452Y25166D01*
X114402Y24941D01*
X114360Y24707D01*
X114335Y24449D01*
X114327Y24183D01*
Y24083D01*
X114335Y24007D01*
Y23916D01*
X114343Y23808D01*
X114360Y23691D01*
X114368Y23566D01*
X114418Y23291D01*
X114485Y22991D01*
X114568Y22708D01*
X114627Y22566D01*
X114693Y22433D01*
Y22425D01*
X114710Y22400D01*
X114726Y22366D01*
X114760Y22325D01*
X114793Y22266D01*
X114843Y22200D01*
X114960Y22050D01*
X115101Y21875D01*
X115285Y21700D01*
X115493Y21533D01*
X115735Y21375D01*
X115743D01*
X115768Y21358D01*
X115801Y21342D01*
X115859Y21317D01*
X115918Y21292D01*
X116001Y21258D01*
X116093Y21225D01*
X116201Y21192D01*
X116318Y21150D01*
X116443Y21117D01*
X116584Y21083D01*
X116734Y21058D01*
X116893Y21033D01*
X117059Y21017D01*
X117242Y21008D01*
X117426Y21000D01*
X114327D01*
X120642D01*
Y24283D01*
Y24207D01*
X120633Y24283D01*
X120625Y24383D01*
X120617Y24507D01*
X120600Y24657D01*
X120575Y24816D01*
X120542Y24991D01*
X120492Y25166D01*
X120442Y25357D01*
X120375Y25549D01*
X120292Y25740D01*
X120200Y25932D01*
X120092Y26115D01*
X119958Y26290D01*
X119817Y26457D01*
X119809Y26465D01*
X119775Y26490D01*
X119733Y26532D01*
X119667Y26590D01*
X119575Y26648D01*
X119475Y26723D01*
X119350Y26799D01*
X119217Y26874D01*
X119059Y26948D01*
X118884Y27023D01*
X118692Y27098D01*
X118484Y27157D01*
X118267Y27215D01*
X118026Y27257D01*
X117767Y27282D01*
X117501Y27290D01*
D02*
G37*
%LPD*%
G36*
X137421Y24591D02*
X136871D01*
X136779Y24599D01*
X136663Y24616D01*
X136538Y24632D01*
X136413Y24666D01*
X136296Y24716D01*
X136204Y24774D01*
X136196Y24782D01*
X136171Y24807D01*
X136129Y24849D01*
X136088Y24907D01*
X136054Y24974D01*
X136013Y25057D01*
X135988Y25149D01*
X135979Y25257D01*
Y25274D01*
Y25307D01*
X135988Y25357D01*
X136004Y25432D01*
X136029Y25507D01*
X136063Y25591D01*
X136104Y25674D01*
X136171Y25749D01*
X136179Y25757D01*
X136213Y25782D01*
X136263Y25815D01*
X136329Y25849D01*
X136429Y25882D01*
X136554Y25915D01*
X136704Y25940D01*
X136888Y25949D01*
X137421D01*
Y24591D01*
D02*
G37*
G36*
X73612Y24591D02*
X73062D01*
X72970Y24599D01*
X72854Y24616D01*
X72729Y24632D01*
X72604Y24666D01*
X72487Y24716D01*
X72396Y24774D01*
X72387Y24782D01*
X72362Y24807D01*
X72321Y24849D01*
X72279Y24907D01*
X72246Y24974D01*
X72204Y25057D01*
X72179Y25149D01*
X72171Y25257D01*
Y25274D01*
Y25307D01*
X72179Y25357D01*
X72196Y25432D01*
X72221Y25507D01*
X72254Y25590D01*
X72296Y25674D01*
X72362Y25749D01*
X72371Y25757D01*
X72404Y25782D01*
X72454Y25815D01*
X72521Y25849D01*
X72621Y25882D01*
X72745Y25915D01*
X72895Y25940D01*
X73079Y25949D01*
X73612D01*
Y24591D01*
D02*
G37*
G36*
X125715Y21100D02*
X123424D01*
X125715Y24457D01*
Y21100D01*
D02*
G37*
G36*
X67555Y23791D02*
X66606Y27190D01*
X68197D01*
X67555Y23791D01*
D02*
G37*
G36*
X151117Y25057D02*
X149059D01*
Y27190D01*
X151117D01*
Y25057D01*
D02*
G37*
G36*
X143186Y22799D02*
X141836Y27190D01*
X144552D01*
X143186Y22799D01*
D02*
G37*
G36*
X111394Y24716D02*
X110586D01*
X110553Y24724D01*
X110494D01*
X110428Y24732D01*
X110344Y24749D01*
X110236Y24774D01*
X110111Y24799D01*
X110103D01*
X110078Y24807D01*
X110044Y24816D01*
X110003Y24832D01*
X109961Y24857D01*
X109903Y24891D01*
X109861Y24932D01*
X109811Y24982D01*
X109803Y24991D01*
X109794Y25007D01*
X109769Y25041D01*
X109744Y25091D01*
X109728Y25141D01*
X109703Y25199D01*
X109694Y25266D01*
X109686Y25340D01*
Y25357D01*
Y25391D01*
X109694Y25440D01*
X109711Y25507D01*
X109736Y25582D01*
X109769Y25657D01*
X109811Y25732D01*
X109878Y25799D01*
X109886Y25807D01*
X109911Y25824D01*
X109961Y25849D01*
X110036Y25882D01*
X110128Y25907D01*
X110253Y25932D01*
X110403Y25949D01*
X110577Y25957D01*
X111394D01*
Y24716D01*
D02*
G37*
G36*
X82943Y23424D02*
X81602D01*
X82276Y25607D01*
X82943Y23424D01*
D02*
G37*
G36*
X57441Y23483D02*
X56491Y27190D01*
X58399D01*
X57441Y23483D01*
D02*
G37*
G36*
X117592Y25857D02*
X117642D01*
X117701Y25840D01*
X117834Y25815D01*
X117976Y25765D01*
X118126Y25690D01*
X118209Y25649D01*
X118276Y25591D01*
X118350Y25532D01*
X118417Y25457D01*
Y25449D01*
X118434Y25440D01*
X118450Y25415D01*
X118467Y25382D01*
X118492Y25340D01*
X118525Y25282D01*
X118559Y25216D01*
X118584Y25141D01*
X118617Y25057D01*
X118651Y24957D01*
X118675Y24849D01*
X118709Y24732D01*
X118725Y24599D01*
X118742Y24457D01*
X118759Y24299D01*
Y24132D01*
Y24124D01*
Y24091D01*
Y24041D01*
X118750Y23983D01*
Y23908D01*
X118742Y23816D01*
X118734Y23724D01*
X118717Y23624D01*
X118675Y23399D01*
X118617Y23183D01*
X118534Y22983D01*
X118476Y22891D01*
X118417Y22808D01*
X118409Y22799D01*
X118400Y22791D01*
X118350Y22750D01*
X118276Y22683D01*
X118176Y22608D01*
X118042Y22533D01*
X117876Y22475D01*
X117692Y22425D01*
X117592Y22416D01*
X117484Y22408D01*
X117426D01*
X117384Y22416D01*
X117334D01*
X117276Y22433D01*
X117134Y22458D01*
X116984Y22508D01*
X116826Y22575D01*
X116676Y22675D01*
X116609Y22733D01*
X116543Y22799D01*
Y22808D01*
X116526Y22816D01*
X116509Y22841D01*
X116493Y22875D01*
X116468Y22924D01*
X116434Y22975D01*
X116409Y23041D01*
X116376Y23124D01*
X116343Y23216D01*
X116318Y23316D01*
X116284Y23433D01*
X116259Y23558D01*
X116243Y23699D01*
X116226Y23858D01*
X116209Y24024D01*
Y24207D01*
Y24216D01*
Y24249D01*
Y24291D01*
X116218Y24349D01*
Y24416D01*
X116226Y24499D01*
X116234Y24591D01*
X116251Y24691D01*
X116293Y24891D01*
X116359Y25099D01*
X116443Y25299D01*
X116501Y25382D01*
X116559Y25466D01*
Y25474D01*
X116576Y25482D01*
X116626Y25532D01*
X116701Y25591D01*
X116809Y25666D01*
X116943Y25740D01*
X117101Y25807D01*
X117292Y25849D01*
X117393Y25857D01*
X117501Y25865D01*
X117559D01*
X117592Y25857D01*
D02*
G37*
G36*
X120642Y21000D02*
X117526D01*
X117601Y21008D01*
X117684D01*
X117784Y21017D01*
X117901Y21025D01*
X118026Y21042D01*
X118301Y21083D01*
X118584Y21133D01*
X118867Y21217D01*
X119000Y21267D01*
X119134Y21325D01*
X119142D01*
X119167Y21342D01*
X119200Y21358D01*
X119242Y21383D01*
X119300Y21425D01*
X119367Y21467D01*
X119525Y21575D01*
X119608Y21641D01*
X119700Y21716D01*
X119783Y21808D01*
X119875Y21900D01*
X119967Y22000D01*
X120058Y22108D01*
X120142Y22233D01*
X120225Y22358D01*
X120233Y22366D01*
X120242Y22391D01*
X120267Y22433D01*
X120292Y22483D01*
X120325Y22558D01*
X120358Y22641D01*
X120392Y22741D01*
X120433Y22850D01*
X120475Y22975D01*
X120508Y23108D01*
X120542Y23258D01*
X120575Y23416D01*
X120600Y23583D01*
X120625Y23758D01*
X120633Y23949D01*
X120642Y24141D01*
Y21000D01*
D02*
G37*
%LPC*%
G36*
X245720Y27190D02*
X240555D01*
X242496D01*
X242429Y27182D01*
X242346Y27173D01*
X242246Y27165D01*
X242137Y27148D01*
X242021Y27132D01*
X241779Y27073D01*
X241646Y27032D01*
X241521Y26982D01*
X241404Y26923D01*
X241279Y26865D01*
X241171Y26782D01*
X241071Y26699D01*
X241063Y26690D01*
X241046Y26674D01*
X241021Y26648D01*
X240988Y26607D01*
X240954Y26557D01*
X240904Y26499D01*
X240863Y26424D01*
X240813Y26349D01*
X240763Y26249D01*
X240721Y26149D01*
X240671Y26032D01*
X240638Y25915D01*
X240604Y25774D01*
X240579Y25632D01*
X240563Y25482D01*
X240555Y25315D01*
Y25349D01*
Y25224D01*
X240563Y25166D01*
X240571Y25082D01*
X240588Y24999D01*
X240604Y24899D01*
X240621Y24791D01*
X240688Y24557D01*
X240738Y24441D01*
X240788Y24316D01*
X240854Y24199D01*
X240929Y24083D01*
X241013Y23974D01*
X241113Y23874D01*
X241121Y23866D01*
X241138Y23849D01*
X241171Y23824D01*
X241213Y23791D01*
X241271Y23758D01*
X241346Y23708D01*
X241429Y23666D01*
X241529Y23616D01*
X241646Y23566D01*
X241771Y23524D01*
X241904Y23474D01*
X242054Y23441D01*
X242221Y23408D01*
X242404Y23383D01*
X242596Y23366D01*
X242804Y23358D01*
X243829D01*
Y21100D01*
X245720D01*
Y27190D01*
D02*
G37*
G36*
X189468D02*
X184302Y27190D01*
X186243Y27190D01*
X186177Y27182D01*
X186093Y27173D01*
X185993Y27165D01*
X185885Y27148D01*
X185769Y27132D01*
X185527Y27073D01*
X185394Y27032D01*
X185269Y26982D01*
X185152Y26923D01*
X185027Y26865D01*
X184919Y26782D01*
X184819Y26699D01*
X184810Y26690D01*
X184794Y26674D01*
X184769Y26648D01*
X184735Y26607D01*
X184702Y26557D01*
X184652Y26499D01*
X184611Y26424D01*
X184561Y26349D01*
X184510Y26249D01*
X184469Y26149D01*
X184419Y26032D01*
X184386Y25915D01*
X184352Y25774D01*
X184327Y25632D01*
X184311Y25482D01*
X184302Y25315D01*
Y25315D01*
Y25315D01*
Y25224D01*
X184311Y25166D01*
X184319Y25082D01*
X184335Y24999D01*
X184352Y24899D01*
X184369Y24791D01*
X184436Y24557D01*
X184485Y24441D01*
X184536Y24316D01*
X184602Y24199D01*
X184677Y24083D01*
X184760Y23974D01*
X184860Y23874D01*
X184869Y23866D01*
X184885Y23849D01*
X184919Y23824D01*
X184960Y23791D01*
X185019Y23758D01*
X185094Y23708D01*
X185177Y23666D01*
X185277Y23616D01*
X185394Y23566D01*
X185519Y23524D01*
X185652Y23474D01*
X185802Y23441D01*
X185968Y23408D01*
X186152Y23383D01*
X186343Y23366D01*
X186552Y23358D01*
X187576D01*
Y21100D01*
X189468D01*
Y27190D01*
D02*
G37*
G36*
X228624Y27290D02*
X223550D01*
X225900D01*
X225825Y27282D01*
X225742D01*
X225650Y27273D01*
X225542Y27265D01*
X225317Y27240D01*
X225092Y27198D01*
X224867Y27148D01*
X224767Y27115D01*
X224667Y27082D01*
X224659D01*
X224642Y27073D01*
X224617Y27057D01*
X224584Y27040D01*
X224492Y26998D01*
X224384Y26932D01*
X224259Y26840D01*
X224125Y26732D01*
X224000Y26607D01*
X223884Y26457D01*
Y26449D01*
X223867Y26440D01*
X223859Y26415D01*
X223834Y26382D01*
X223792Y26299D01*
X223734Y26182D01*
X223684Y26040D01*
X223634Y25882D01*
X223601Y25707D01*
X223592Y25515D01*
Y25507D01*
Y25491D01*
Y25457D01*
X223601Y25424D01*
Y25374D01*
X223609Y25315D01*
X223634Y25174D01*
X223675Y25007D01*
X223734Y24832D01*
X223817Y24641D01*
X223925Y24449D01*
Y24441D01*
X223942Y24424D01*
X223959Y24399D01*
X223992Y24366D01*
X224025Y24316D01*
X224075Y24258D01*
X224125Y24199D01*
X224192Y24124D01*
X224267Y24041D01*
X224359Y23958D01*
X224450Y23866D01*
X224559Y23774D01*
X224683Y23666D01*
X224809Y23566D01*
X224950Y23458D01*
X225108Y23341D01*
X225117D01*
X225133Y23324D01*
X225158Y23308D01*
X225192Y23283D01*
X225275Y23224D01*
X225383Y23149D01*
X225500Y23066D01*
X225608Y22983D01*
X225708Y22908D01*
X225792Y22850D01*
X225800Y22841D01*
X225825Y22824D01*
X225858Y22791D01*
X225908Y22750D01*
X225967Y22699D01*
X226033Y22633D01*
X226108Y22566D01*
X226192Y22483D01*
X223550D01*
Y21100D01*
X228624D01*
Y21108D01*
X228616Y21133D01*
Y21175D01*
X228608Y21225D01*
X228591Y21292D01*
X228574Y21375D01*
X228549Y21458D01*
X228524Y21558D01*
X228458Y21775D01*
X228366Y22008D01*
X228249Y22258D01*
X228174Y22383D01*
X228099Y22508D01*
X228091Y22516D01*
X228074Y22541D01*
X228049Y22575D01*
X228008Y22625D01*
X227958Y22691D01*
X227891Y22766D01*
X227816Y22858D01*
X227724Y22958D01*
X227624Y23066D01*
X227500Y23183D01*
X227366Y23316D01*
X227216Y23449D01*
X227050Y23599D01*
X226858Y23749D01*
X226658Y23908D01*
X226441Y24074D01*
X226433Y24083D01*
X226408Y24099D01*
X226375Y24124D01*
X226325Y24166D01*
X226266Y24207D01*
X226192Y24266D01*
X226042Y24383D01*
X225883Y24516D01*
X225725Y24657D01*
X225658Y24724D01*
X225592Y24791D01*
X225533Y24849D01*
X225492Y24907D01*
X225483Y24924D01*
X225458Y24957D01*
X225425Y25016D01*
X225383Y25082D01*
X225342Y25174D01*
X225308Y25266D01*
X225283Y25357D01*
X225275Y25457D01*
Y25466D01*
Y25507D01*
X225283Y25557D01*
X225300Y25624D01*
X225325Y25690D01*
X225367Y25774D01*
X225417Y25857D01*
X225483Y25932D01*
X225492Y25940D01*
X225517Y25965D01*
X225567Y25999D01*
X225625Y26032D01*
X225700Y26065D01*
X225792Y26099D01*
X225892Y26124D01*
X226000Y26132D01*
X226050D01*
X226117Y26124D01*
X226192Y26107D01*
X226275Y26082D01*
X226358Y26040D01*
X226450Y25990D01*
X226533Y25924D01*
X226541Y25915D01*
X226566Y25882D01*
X226600Y25832D01*
X226641Y25757D01*
X226691Y25657D01*
X226733Y25540D01*
X226775Y25391D01*
X226808Y25207D01*
X228499Y25340D01*
Y25349D01*
X228491Y25374D01*
Y25407D01*
X228483Y25457D01*
X228466Y25515D01*
X228458Y25591D01*
X228416Y25749D01*
X228374Y25932D01*
X228308Y26115D01*
X228233Y26290D01*
X228141Y26457D01*
Y26465D01*
X228124Y26474D01*
X228091Y26524D01*
X228033Y26598D01*
X227949Y26682D01*
X227841Y26782D01*
X227708Y26890D01*
X227558Y26982D01*
X227391Y27073D01*
X227383D01*
X227366Y27082D01*
X227341Y27090D01*
X227299Y27107D01*
X227250Y27123D01*
X227191Y27140D01*
X227125Y27165D01*
X227041Y27182D01*
X226950Y27198D01*
X226850Y27223D01*
X226741Y27240D01*
X226625Y27257D01*
X226491Y27273D01*
X226350Y27282D01*
X226208Y27290D01*
X228624D01*
D02*
G37*
G36*
X183944Y27190D02*
X178804D01*
X177854Y23791D01*
X177212Y27190D01*
X175429D01*
X176779Y21100D01*
X178620D01*
X179687Y24932D01*
X180753Y21100D01*
X183944D01*
X182594D01*
X183944Y27190D01*
D02*
G37*
G36*
X174838D02*
X172364D01*
X171406Y23483D01*
X170456Y27190D01*
X167981D01*
Y21100D01*
X169523D01*
Y25740D01*
X170722Y21100D01*
X170183D01*
X174838D01*
Y27190D01*
D02*
G37*
G36*
X239680Y25507D02*
X237872D01*
Y23449D01*
Y23816D01*
X239680D01*
Y25507D01*
D02*
G37*
G36*
X252926Y27190D02*
X250960D01*
X249594Y22799D01*
X248244Y27190D01*
X249938D01*
X246328D01*
X248594Y21100D01*
X250635D01*
X252926Y27190D01*
D02*
G37*
G36*
X223151D02*
X221184D01*
X219818Y22799D01*
X218468Y27190D01*
X220162D01*
X216552D01*
X218818Y21100D01*
X220860D01*
X223151Y27190D01*
D02*
G37*
G36*
X239680Y23574D02*
Y22791D01*
X237872D01*
Y22824D01*
Y21100D01*
X239680D01*
Y23574D01*
D02*
G37*
G36*
X204514Y27290D02*
X201031D01*
Y21100D01*
X202739D01*
Y25149D01*
X202747D01*
X202756Y25132D01*
X202781Y25116D01*
X202814Y25099D01*
X202889Y25041D01*
X202997Y24974D01*
X203122Y24891D01*
X203256Y24807D01*
X203397Y24724D01*
X203547Y24641D01*
X203556D01*
X203564Y24632D01*
X203589Y24624D01*
X203614Y24607D01*
X203697Y24574D01*
X203814Y24524D01*
X203955Y24466D01*
X204114Y24407D01*
X204305Y24341D01*
X204514Y24274D01*
Y22333D01*
Y25657D01*
X204505D01*
X204472Y25674D01*
X204430Y25682D01*
X204372Y25707D01*
X204297Y25732D01*
X204214Y25765D01*
X204122Y25799D01*
X204022Y25840D01*
X203814Y25940D01*
X203589Y26057D01*
X203372Y26182D01*
X203272Y26249D01*
X203181Y26324D01*
X203172Y26332D01*
X203156Y26340D01*
X203131Y26365D01*
X203106Y26390D01*
X203014Y26482D01*
X202906Y26590D01*
X202789Y26732D01*
X202664Y26899D01*
X202539Y27082D01*
X202431Y27290D01*
X204514D01*
D02*
G37*
G36*
X233823D02*
X230340D01*
Y21100D01*
X232048D01*
Y25149D01*
X232057D01*
X232065Y25132D01*
X232090Y25116D01*
X232123Y25099D01*
X232198Y25041D01*
X232307Y24974D01*
X232432Y24891D01*
X232565Y24807D01*
X232707Y24724D01*
X232857Y24641D01*
X232865D01*
X232873Y24632D01*
X232898Y24624D01*
X232923Y24607D01*
X233006Y24574D01*
X233123Y24524D01*
X233265Y24466D01*
X233423Y24407D01*
X233615Y24341D01*
X233823Y24274D01*
Y22008D01*
Y25657D01*
X233815D01*
X233781Y25674D01*
X233740Y25682D01*
X233681Y25707D01*
X233606Y25732D01*
X233523Y25765D01*
X233431Y25799D01*
X233331Y25840D01*
X233123Y25940D01*
X232898Y26057D01*
X232682Y26182D01*
X232582Y26249D01*
X232490Y26324D01*
X232482Y26332D01*
X232465Y26340D01*
X232440Y26365D01*
X232415Y26390D01*
X232323Y26482D01*
X232215Y26590D01*
X232098Y26732D01*
X231973Y26899D01*
X231848Y27082D01*
X231740Y27290D01*
X233823D01*
D02*
G37*
G36*
X213370D02*
X208396D01*
D01*
X210746D01*
X210687Y27282D01*
X210629D01*
X210487Y27273D01*
X210329Y27248D01*
X210162Y27223D01*
X209996Y27182D01*
X209837Y27132D01*
X209829D01*
X209821Y27123D01*
X209771Y27107D01*
X209704Y27073D01*
X209612Y27023D01*
X209512Y26974D01*
X209404Y26907D01*
X209296Y26823D01*
X209196Y26740D01*
X209188Y26732D01*
X209154Y26699D01*
X209112Y26648D01*
X209054Y26590D01*
X208988Y26507D01*
X208921Y26424D01*
X208863Y26332D01*
X208804Y26232D01*
X208796Y26224D01*
X208779Y26182D01*
X208754Y26132D01*
X208721Y26057D01*
X208679Y25965D01*
X208646Y25857D01*
X208604Y25740D01*
X208571Y25607D01*
Y25599D01*
X208563Y25574D01*
X208554Y25540D01*
X208546Y25491D01*
X208529Y25424D01*
X208513Y25349D01*
X208496Y25266D01*
X208479Y25174D01*
X208471Y25074D01*
X208454Y24957D01*
X208421Y24716D01*
X208404Y24457D01*
X208396Y24183D01*
Y24024D01*
X208404Y23916D01*
X208413Y23774D01*
X208429Y23624D01*
X208446Y23449D01*
X208463Y23266D01*
X208496Y23066D01*
X208538Y22866D01*
X208579Y22666D01*
X208638Y22466D01*
X208696Y22275D01*
X208779Y22091D01*
X208863Y21916D01*
X208963Y21767D01*
X208971Y21758D01*
X208988Y21733D01*
X209021Y21700D01*
X209071Y21650D01*
X209137Y21591D01*
X209212Y21525D01*
X209304Y21458D01*
X209412Y21383D01*
X209537Y21308D01*
X209679Y21242D01*
X209837Y21175D01*
X210012Y21117D01*
X210204Y21075D01*
X210412Y21033D01*
X210637Y21008D01*
X210887Y21000D01*
X211012D01*
X211079Y21008D01*
X211154Y21017D01*
X211245D01*
X211337Y21033D01*
X211529Y21058D01*
X211737Y21100D01*
X211945Y21158D01*
X212137Y21242D01*
X212145D01*
X212153Y21250D01*
X212178Y21267D01*
X212212Y21283D01*
X212303Y21342D01*
X212412Y21425D01*
X212528Y21525D01*
X212662Y21650D01*
X212787Y21791D01*
X212912Y21958D01*
X212920Y21975D01*
X212945Y22016D01*
X212987Y22091D01*
X213036Y22200D01*
X213086Y22325D01*
X213145Y22483D01*
X213203Y22666D01*
X213253Y22875D01*
Y22883D01*
X213262Y22899D01*
Y22933D01*
X213270Y22975D01*
X213278Y23033D01*
X213286Y23099D01*
X213303Y23174D01*
X213312Y23258D01*
X213337Y23449D01*
X213353Y23666D01*
X213361Y23908D01*
X213370Y24166D01*
Y21242D01*
Y24241D01*
X213361Y24332D01*
Y24449D01*
X213353Y24591D01*
X213337Y24749D01*
X213320Y24932D01*
X213295Y25116D01*
X213262Y25315D01*
X213220Y25515D01*
X213170Y25724D01*
X213103Y25924D01*
X213036Y26107D01*
X212953Y26290D01*
X212853Y26449D01*
X212745Y26590D01*
X212737Y26598D01*
X212712Y26623D01*
X212678Y26657D01*
X212628Y26699D01*
X212562Y26757D01*
X212478Y26815D01*
X212387Y26874D01*
X212270Y26940D01*
X212145Y27007D01*
X212003Y27065D01*
X211854Y27132D01*
X211679Y27182D01*
X211495Y27223D01*
X211295Y27257D01*
X211079Y27282D01*
X210845Y27290D01*
X213370D01*
D01*
D02*
G37*
G36*
X258000Y27190D02*
X253185D01*
D01*
X256117D01*
Y22600D01*
X253185D01*
Y21100D01*
X258000D01*
Y27190D01*
D02*
G37*
G36*
X207530Y22791D02*
X205722D01*
Y21100D01*
X207530D01*
Y22791D01*
D02*
G37*
G36*
X197249Y27190D02*
X195183D01*
X192900Y21100D01*
X199532D01*
D01*
X197249Y27190D01*
D02*
G37*
G36*
X180753Y21100D02*
X179687D01*
X180753D01*
D01*
D02*
G37*
%LPD*%
G36*
X243829Y24591D02*
X243279D01*
X243187Y24599D01*
X243071Y24616D01*
X242945Y24632D01*
X242821Y24666D01*
X242704Y24716D01*
X242612Y24774D01*
X242604Y24782D01*
X242579Y24807D01*
X242537Y24849D01*
X242496Y24907D01*
X242462Y24974D01*
X242421Y25057D01*
X242396Y25149D01*
X242387Y25257D01*
Y25274D01*
Y25307D01*
X242396Y25357D01*
X242412Y25432D01*
X242437Y25507D01*
X242471Y25591D01*
X242512Y25674D01*
X242579Y25749D01*
X242587Y25757D01*
X242621Y25782D01*
X242671Y25815D01*
X242737Y25849D01*
X242837Y25882D01*
X242962Y25915D01*
X243112Y25940D01*
X243295Y25949D01*
X243829D01*
Y24591D01*
D02*
G37*
G36*
X187576D02*
X187027D01*
X186935Y24599D01*
X186818Y24616D01*
X186693Y24632D01*
X186568Y24666D01*
X186452Y24716D01*
X186360Y24774D01*
X186352Y24782D01*
X186327Y24807D01*
X186285Y24849D01*
X186243Y24907D01*
X186210Y24974D01*
X186168Y25057D01*
X186143Y25149D01*
X186135Y25257D01*
Y25274D01*
Y25307D01*
X186143Y25357D01*
X186160Y25432D01*
X186185Y25507D01*
X186218Y25591D01*
X186260Y25674D01*
X186327Y25749D01*
X186335Y25757D01*
X186368Y25782D01*
X186418Y25815D01*
X186485Y25849D01*
X186585Y25882D01*
X186710Y25915D01*
X186860Y25940D01*
X187043Y25949D01*
X187576D01*
Y24591D01*
D02*
G37*
G36*
X181520Y23791D02*
X180570Y27190D01*
X182161D01*
X181520Y23791D01*
D02*
G37*
G36*
X173297Y21100D02*
X172114D01*
X173297Y25740D01*
Y21100D01*
D02*
G37*
G36*
X210970Y26157D02*
X211045Y26140D01*
X211137Y26115D01*
X211237Y26065D01*
X211337Y25990D01*
X211387Y25940D01*
X211437Y25882D01*
X211479Y25815D01*
X211512Y25740D01*
Y25732D01*
X211520Y25724D01*
X211529Y25690D01*
X211537Y25657D01*
X211554Y25607D01*
X211570Y25549D01*
X211587Y25474D01*
X211604Y25382D01*
X211620Y25282D01*
X211637Y25166D01*
X211654Y25041D01*
X211670Y24899D01*
X211679Y24741D01*
X211687Y24566D01*
X211695Y24374D01*
Y24166D01*
Y24149D01*
Y24116D01*
Y24058D01*
Y23974D01*
X211687Y23883D01*
Y23774D01*
X211679Y23658D01*
X211670Y23533D01*
X211645Y23266D01*
X211612Y22999D01*
X211587Y22883D01*
X211562Y22766D01*
X211529Y22666D01*
X211495Y22575D01*
Y22566D01*
X211487Y22558D01*
X211454Y22508D01*
X211412Y22441D01*
X211345Y22366D01*
X211254Y22291D01*
X211154Y22225D01*
X211037Y22175D01*
X210970Y22166D01*
X210895Y22158D01*
X210854D01*
X210804Y22166D01*
X210746Y22183D01*
X210671Y22200D01*
X210604Y22233D01*
X210529Y22275D01*
X210454Y22333D01*
X210445Y22341D01*
X210420Y22366D01*
X210387Y22408D01*
X210346Y22475D01*
X210304Y22550D01*
X210254Y22650D01*
X210212Y22766D01*
X210171Y22899D01*
Y22908D01*
X210162Y22916D01*
Y22941D01*
X210154Y22975D01*
X210146Y23016D01*
X210137Y23066D01*
X210129Y23124D01*
X210121Y23199D01*
X210112Y23283D01*
X210104Y23366D01*
Y23466D01*
X210096Y23574D01*
X210087Y23699D01*
X210079Y23824D01*
Y23966D01*
Y24116D01*
Y24132D01*
Y24166D01*
Y24232D01*
Y24316D01*
X210087Y24407D01*
Y24524D01*
X210096Y24649D01*
X210104Y24774D01*
X210129Y25049D01*
X210171Y25315D01*
X210187Y25440D01*
X210221Y25557D01*
X210254Y25666D01*
X210287Y25749D01*
Y25757D01*
X210296Y25765D01*
X210329Y25815D01*
X210371Y25882D01*
X210445Y25957D01*
X210529Y26032D01*
X210637Y26099D01*
X210762Y26149D01*
X210829Y26157D01*
X210904Y26165D01*
X210920D01*
X210970Y26157D01*
D02*
G37*
G36*
X196907Y23424D02*
X195566D01*
X196241Y25607D01*
X196907Y23424D01*
D02*
G37*
G36*
X197616Y21100D02*
X194874D01*
X195174Y22108D01*
X197316D01*
X197616Y21100D01*
D02*
G37*
D10*
X-232125Y-361625D02*
G03*
X-232125Y-361625I-7000J0D01*
G01*
X133000Y-55000D02*
G03*
X133000Y-55000I-7000J0D01*
G01*
X73750D02*
G03*
X73750Y-55000I-7000J0D01*
G01*
X-37000Y-231000D02*
G03*
X-37000Y-231000I-7000J0D01*
G01*
X-139000D02*
G03*
X-139000Y-231000I-7000J0D01*
G01*
X-136250Y-156750D02*
G03*
X-136250Y-156750I-7000J0D01*
G01*
X-34750D02*
G03*
X-34750Y-156750I-7000J0D01*
G01*
X-241100Y-230900D02*
G03*
X-241100Y-230900I-7000J0D01*
G01*
X-238750Y-156750D02*
G03*
X-238750Y-156750I-7000J0D01*
G01*
X-203000Y-55000D02*
G03*
X-203000Y-55000I-7000J0D01*
G01*
X-164000D02*
G03*
X-164000Y-55000I-7000J0D01*
G01*
X-126000D02*
G03*
X-126000Y-55000I-7000J0D01*
G01*
D13*
X66054Y-241645D02*
Y-244977D01*
Y-243311D01*
X57723D01*
X56057Y-244977D01*
Y-246644D01*
X57723Y-248310D01*
X62721Y-238313D02*
X57723D01*
X56057Y-236647D01*
Y-231648D01*
X62721D01*
X56057Y-228316D02*
X62721D01*
Y-226650D01*
X61055Y-224984D01*
X56057D01*
X61055D01*
X62721Y-223318D01*
X61055Y-221652D01*
X56057D01*
X52724Y-218319D02*
X62721D01*
Y-213321D01*
X61055Y-211655D01*
X57723D01*
X56057Y-213321D01*
Y-218319D01*
Y-196660D02*
X64387D01*
X61055D01*
Y-198326D01*
Y-194993D01*
Y-196660D01*
X64387D01*
X66054Y-194993D01*
X56057Y-188329D02*
Y-184997D01*
X57723Y-183331D01*
X61055D01*
X62721Y-184997D01*
Y-188329D01*
X61055Y-189995D01*
X57723D01*
X56057Y-188329D01*
X62721Y-179998D02*
X56057D01*
X59389D01*
X61055Y-178332D01*
X62721Y-176666D01*
Y-175000D01*
X66054Y-153340D02*
X56057D01*
Y-158339D01*
X57723Y-160005D01*
X61055D01*
X62721Y-158339D01*
Y-153340D01*
X56057Y-150008D02*
Y-146676D01*
Y-148342D01*
X62721D01*
Y-150008D01*
X52724Y-138345D02*
Y-136679D01*
X54391Y-135013D01*
X62721D01*
Y-140011D01*
X61055Y-141677D01*
X57723D01*
X56057Y-140011D01*
Y-135013D01*
Y-131681D02*
Y-128348D01*
Y-130014D01*
X62721D01*
Y-131681D01*
X64387Y-121684D02*
X62721D01*
Y-123350D01*
Y-120018D01*
Y-121684D01*
X57723D01*
X56057Y-120018D01*
X62721Y-113353D02*
Y-110021D01*
X61055Y-108355D01*
X56057D01*
Y-113353D01*
X57723Y-115019D01*
X59389Y-113353D01*
Y-108355D01*
X56057Y-105022D02*
Y-101690D01*
Y-103356D01*
X66054D01*
Y-105022D01*
X40193Y-246644D02*
Y-251642D01*
X38527Y-253308D01*
X35194D01*
X33528Y-251642D01*
Y-246644D01*
Y-241645D02*
Y-238313D01*
X35194Y-236647D01*
X38527D01*
X40193Y-238313D01*
Y-241645D01*
X38527Y-243311D01*
X35194D01*
X33528Y-241645D01*
Y-233314D02*
X40193D01*
Y-231648D01*
X38527Y-229982D01*
X33528D01*
X38527D01*
X40193Y-228316D01*
X38527Y-226650D01*
X33528D01*
Y-223318D02*
X40193D01*
Y-221652D01*
X38527Y-219986D01*
X33528D01*
X38527D01*
X40193Y-218319D01*
X38527Y-216653D01*
X33528D01*
Y-213321D02*
Y-208323D01*
X35194Y-206656D01*
X36861Y-208323D01*
Y-211655D01*
X38527Y-213321D01*
X40193Y-211655D01*
Y-206656D01*
X33528Y-189995D02*
X36861Y-193327D01*
X40193D01*
X43525Y-189995D01*
Y-184997D02*
Y-181665D01*
Y-183331D01*
X33528D01*
Y-184997D01*
Y-181665D01*
Y-170002D02*
Y-176666D01*
X40193Y-170002D01*
X41859D01*
X43525Y-171668D01*
Y-175000D01*
X41859Y-176666D01*
Y-160005D02*
X43525Y-161671D01*
Y-165003D01*
X41859Y-166669D01*
X35194D01*
X33528Y-165003D01*
Y-161671D01*
X35194Y-160005D01*
X31862Y-155006D02*
X33528Y-153340D01*
X35194D01*
Y-155006D01*
X33528D01*
Y-153340D01*
X31862Y-155006D01*
X30196Y-156673D01*
X41859Y-130014D02*
X43525Y-131681D01*
Y-135013D01*
X41859Y-136679D01*
X40193D01*
X38527Y-135013D01*
Y-131681D01*
X36861Y-130014D01*
X35194D01*
X33528Y-131681D01*
Y-135013D01*
X35194Y-136679D01*
X33528Y-126682D02*
X43525D01*
Y-121684D01*
X41859Y-120018D01*
X38527D01*
X36861Y-121684D01*
Y-126682D01*
X43525Y-116685D02*
Y-113353D01*
Y-115019D01*
X33528D01*
Y-116685D01*
Y-113353D01*
Y-108355D02*
X36861Y-105022D01*
X40193D01*
X43525Y-108355D01*
X31862Y-98358D02*
X33528Y-96692D01*
X35194D01*
Y-98358D01*
X33528D01*
Y-96692D01*
X31862Y-98358D01*
X30196Y-100024D01*
X14332Y-271635D02*
Y-268303D01*
Y-269969D01*
X24329D01*
Y-271635D01*
X14332Y-258307D02*
Y-261639D01*
X15998Y-263305D01*
X19331D01*
X20997Y-261639D01*
Y-258307D01*
X19331Y-256640D01*
X17665D01*
Y-263305D01*
X20997Y-251642D02*
Y-248310D01*
X19331Y-246644D01*
X14332D01*
Y-251642D01*
X15998Y-253308D01*
X17665Y-251642D01*
Y-246644D01*
X20997Y-243311D02*
X14332Y-239979D01*
X20997Y-236647D01*
X14332Y-228316D02*
Y-231648D01*
X15998Y-233314D01*
X19331D01*
X20997Y-231648D01*
Y-228316D01*
X19331Y-226650D01*
X17665D01*
Y-233314D01*
X14332Y-211655D02*
Y-208323D01*
X15998Y-206656D01*
X19331D01*
X20997Y-208323D01*
Y-211655D01*
X19331Y-213321D01*
X15998D01*
X14332Y-211655D01*
X11000Y-203324D02*
X20997D01*
Y-198326D01*
X19331Y-196660D01*
X15998D01*
X14332Y-198326D01*
Y-203324D01*
Y-188329D02*
Y-191661D01*
X15998Y-193327D01*
X19331D01*
X20997Y-191661D01*
Y-188329D01*
X19331Y-186663D01*
X17665D01*
Y-193327D01*
X14332Y-183331D02*
X20997D01*
Y-178332D01*
X19331Y-176666D01*
X14332D01*
Y-161671D02*
X22663D01*
X19331D01*
Y-163337D01*
Y-160005D01*
Y-161671D01*
X22663D01*
X24329Y-160005D01*
X14332Y-153340D02*
Y-150008D01*
X15998Y-148342D01*
X19331D01*
X20997Y-150008D01*
Y-153340D01*
X19331Y-155006D01*
X15998D01*
X14332Y-153340D01*
X20997Y-145010D02*
X14332D01*
X17665D01*
X19331Y-143343D01*
X20997Y-141677D01*
Y-140011D01*
X24329Y-125016D02*
X14332D01*
X19331D01*
Y-118352D01*
X24329D01*
X14332D01*
Y-115019D02*
X20997D01*
X24329Y-111687D01*
X20997Y-108355D01*
X14332D01*
X19331D01*
Y-115019D01*
X24329Y-105022D02*
X14332D01*
Y-98358D01*
X24329Y-95026D02*
X14332D01*
Y-88361D01*
Y-85029D02*
Y-80031D01*
X15998Y-78365D01*
X17665Y-80031D01*
Y-83363D01*
X19331Y-85029D01*
X20997Y-83363D01*
Y-78365D01*
X-11000Y-533671D02*
Y-543668D01*
X-15998D01*
X-17665Y-542002D01*
Y-535337D01*
X-15998Y-533671D01*
X-11000D01*
X-25995Y-543668D02*
X-22663D01*
X-20997Y-542002D01*
Y-538669D01*
X-22663Y-537003D01*
X-25995D01*
X-27661Y-538669D01*
Y-540336D01*
X-20997D01*
X-30993Y-543668D02*
X-35992D01*
X-37658Y-542002D01*
X-35992Y-540336D01*
X-32660D01*
X-30993Y-538669D01*
X-32660Y-537003D01*
X-37658D01*
X-40990Y-543668D02*
X-44323D01*
X-42656D01*
Y-537003D01*
X-40990D01*
X-52653Y-547000D02*
X-54319D01*
X-55985Y-545334D01*
Y-537003D01*
X-50987D01*
X-49321Y-538669D01*
Y-542002D01*
X-50987Y-543668D01*
X-55985D01*
X-59318D02*
Y-537003D01*
X-64316D01*
X-65982Y-538669D01*
Y-543668D01*
X-74313D02*
X-70981D01*
X-69314Y-542002D01*
Y-538669D01*
X-70981Y-537003D01*
X-74313D01*
X-75979Y-538669D01*
Y-540336D01*
X-69314D01*
X-85976Y-533671D02*
Y-543668D01*
X-80977D01*
X-79311Y-542002D01*
Y-538669D01*
X-80977Y-537003D01*
X-85976D01*
X-99305Y-533671D02*
Y-543668D01*
X-104303D01*
X-105969Y-542002D01*
Y-540336D01*
Y-538669D01*
X-104303Y-537003D01*
X-99305D01*
X-109302D02*
Y-542002D01*
X-110968Y-543668D01*
X-115966D01*
Y-545334D01*
X-114300Y-547000D01*
X-112634D01*
X-115966Y-543668D02*
Y-537003D01*
X-129295Y-543668D02*
Y-533671D01*
X-134294D01*
X-135960Y-535337D01*
Y-538669D01*
X-134294Y-540336D01*
X-129295D01*
X-139292Y-533671D02*
Y-543668D01*
X-145956D01*
X-150955Y-537003D02*
X-154287D01*
X-155953Y-538669D01*
Y-543668D01*
X-150955D01*
X-149289Y-542002D01*
X-150955Y-540336D01*
X-155953D01*
X-159285Y-533671D02*
Y-543668D01*
X-164284D01*
X-165950Y-542002D01*
Y-540336D01*
Y-538669D01*
X-164284Y-537003D01*
X-159285D01*
X-179279Y-543668D02*
X-182611D01*
X-180945D01*
Y-537003D01*
X-179279D01*
X-187610Y-543668D02*
Y-537003D01*
X-192608D01*
X-194274Y-538669D01*
Y-543668D01*
X-214268Y-535337D02*
X-212602Y-533671D01*
X-209269D01*
X-207603Y-535337D01*
Y-537003D01*
X-209269Y-538669D01*
X-212602D01*
X-214268Y-540336D01*
Y-542002D01*
X-212602Y-543668D01*
X-209269D01*
X-207603Y-542002D01*
X-217600Y-543668D02*
X-220932D01*
X-219266D01*
Y-533671D01*
X-217600D01*
X-227597Y-543668D02*
X-230929D01*
X-232595Y-542002D01*
Y-538669D01*
X-230929Y-537003D01*
X-227597D01*
X-225931Y-538669D01*
Y-542002D01*
X-227597Y-543668D01*
X-235928Y-537003D02*
X-239260Y-543668D01*
X-242592Y-537003D01*
X-250923Y-543668D02*
X-247590D01*
X-245924Y-542002D01*
Y-538669D01*
X-247590Y-537003D01*
X-250923D01*
X-252589Y-538669D01*
Y-540336D01*
X-245924D01*
X-255921Y-543668D02*
Y-537003D01*
X-260919D01*
X-262586Y-538669D01*
Y-543668D01*
X-265918D02*
X-269250D01*
X-267584D01*
Y-537003D01*
X-265918D01*
X-275915D02*
X-279247D01*
X-280913Y-538669D01*
Y-543668D01*
X-275915D01*
X-274249Y-542002D01*
X-275915Y-540336D01*
X-280913D01*
D17*
X218166Y-136501D02*
X220499D01*
X219333D01*
Y-142333D01*
X220499Y-143499D01*
X221665D01*
X222831Y-142333D01*
X211168Y-136501D02*
X215834D01*
Y-140000D01*
X213501Y-138834D01*
X212335D01*
X211168Y-140000D01*
Y-142333D01*
X212335Y-143499D01*
X214667D01*
X215834Y-142333D01*
X157166Y-136501D02*
X159499D01*
X158333D01*
Y-142333D01*
X159499Y-143499D01*
X160665D01*
X161831Y-142333D01*
X151335Y-143499D02*
Y-136501D01*
X154834Y-140000D01*
X150169D01*
X-12834Y-131501D02*
X-10501D01*
X-11667D01*
Y-137333D01*
X-10501Y-138499D01*
X-9335D01*
X-8169Y-137333D01*
X-15166Y-132667D02*
X-16333Y-131501D01*
X-18665D01*
X-19832Y-132667D01*
Y-133834D01*
X-18665Y-135000D01*
X-17499D01*
X-18665D01*
X-19832Y-136166D01*
Y-137333D01*
X-18665Y-138499D01*
X-16333D01*
X-15166Y-137333D01*
X-2834Y-174501D02*
X-501D01*
X-1667D01*
Y-180333D01*
X-501Y-181499D01*
X665D01*
X1831Y-180333D01*
X-9832Y-181499D02*
X-5166D01*
X-9832Y-176834D01*
Y-175667D01*
X-8665Y-174501D01*
X-6333D01*
X-5166Y-175667D01*
X-6000Y-224501D02*
X-3667D01*
X-4834D01*
Y-230333D01*
X-3667Y-231499D01*
X-2501D01*
X-1335Y-230333D01*
X-8333Y-231499D02*
X-10665D01*
X-9499D01*
Y-224501D01*
X-8333Y-225667D01*
X-255171Y-217501D02*
X-259836D01*
X-257503D01*
Y-224499D01*
X-262169D02*
Y-217501D01*
X-265667D01*
X-266834Y-218667D01*
Y-221000D01*
X-265667Y-222166D01*
X-262169D01*
X-273832Y-224499D02*
X-269166D01*
X-273832Y-219834D01*
Y-218667D01*
X-272665Y-217501D01*
X-270333D01*
X-269166Y-218667D01*
X-276164D02*
X-277330Y-217501D01*
X-279663D01*
X-280829Y-218667D01*
Y-223333D01*
X-279663Y-224499D01*
X-277330D01*
X-276164Y-223333D01*
Y-218667D01*
X-197754Y-37501D02*
X-202419D01*
X-200086D01*
Y-44499D01*
X-204752D02*
Y-37501D01*
X-208251D01*
X-209417Y-38667D01*
Y-41000D01*
X-208251Y-42166D01*
X-204752D01*
X-211749Y-44499D02*
X-214082D01*
X-212916D01*
Y-37501D01*
X-211749Y-38667D01*
X-217581Y-43333D02*
X-218747Y-44499D01*
X-221080D01*
X-222246Y-43333D01*
Y-38667D01*
X-221080Y-37501D01*
X-218747D01*
X-217581Y-38667D01*
Y-39834D01*
X-218747Y-41000D01*
X-222246D01*
X-255754Y-141501D02*
X-260419D01*
X-258086D01*
Y-148499D01*
X-262752D02*
Y-141501D01*
X-266251D01*
X-267417Y-142667D01*
Y-145000D01*
X-266251Y-146166D01*
X-262752D01*
X-269749Y-148499D02*
X-272082D01*
X-270916D01*
Y-141501D01*
X-269749Y-142667D01*
X-275581D02*
X-276747Y-141501D01*
X-279080D01*
X-280246Y-142667D01*
Y-143834D01*
X-279080Y-145000D01*
X-280246Y-146166D01*
Y-147333D01*
X-279080Y-148499D01*
X-276747D01*
X-275581Y-147333D01*
Y-146166D01*
X-276747Y-145000D01*
X-275581Y-143834D01*
Y-142667D01*
X-276747Y-145000D02*
X-279080D01*
X-154754Y-220501D02*
X-159419D01*
X-157086D01*
Y-227499D01*
X-161752D02*
Y-220501D01*
X-165251D01*
X-166417Y-221667D01*
Y-224000D01*
X-165251Y-225166D01*
X-161752D01*
X-168749Y-227499D02*
X-171082D01*
X-169916D01*
Y-220501D01*
X-168749Y-221667D01*
X-179246Y-220501D02*
X-176914Y-221667D01*
X-174581Y-224000D01*
Y-226333D01*
X-175747Y-227499D01*
X-178080D01*
X-179246Y-226333D01*
Y-225166D01*
X-178080Y-224000D01*
X-174581D01*
X-158754Y-37501D02*
X-163419D01*
X-161087D01*
Y-44499D01*
X-165752D02*
Y-37501D01*
X-169251D01*
X-170417Y-38667D01*
Y-41000D01*
X-169251Y-42166D01*
X-165752D01*
X-172749Y-44499D02*
X-175082D01*
X-173916D01*
Y-37501D01*
X-172749Y-38667D01*
X-183246Y-37501D02*
X-178581D01*
Y-41000D01*
X-180914Y-39834D01*
X-182080D01*
X-183246Y-41000D01*
Y-43333D01*
X-182080Y-44499D01*
X-179747D01*
X-178581Y-43333D01*
X-150754Y-139501D02*
X-155419D01*
X-153087D01*
Y-146499D01*
X-157752D02*
Y-139501D01*
X-161251D01*
X-162417Y-140667D01*
Y-143000D01*
X-161251Y-144166D01*
X-157752D01*
X-164750Y-146499D02*
X-167082D01*
X-165916D01*
Y-139501D01*
X-164750Y-140667D01*
X-170581D02*
X-171747Y-139501D01*
X-174080D01*
X-175246Y-140667D01*
Y-141834D01*
X-174080Y-143000D01*
X-172913D01*
X-174080D01*
X-175246Y-144166D01*
Y-145333D01*
X-174080Y-146499D01*
X-171747D01*
X-170581Y-145333D01*
X137246Y-34501D02*
X132581D01*
X134914D01*
Y-41499D01*
X130248D02*
Y-34501D01*
X126749D01*
X125583Y-35667D01*
Y-38000D01*
X126749Y-39166D01*
X130248D01*
X123251Y-41499D02*
X120918D01*
X122084D01*
Y-34501D01*
X123251Y-35667D01*
X112754Y-41499D02*
X117419D01*
X112754Y-36834D01*
Y-35667D01*
X113920Y-34501D01*
X116253D01*
X117419Y-35667D01*
X80246Y-34501D02*
X75581D01*
X77913D01*
Y-41499D01*
X73248D02*
Y-34501D01*
X69749D01*
X68583Y-35667D01*
Y-38000D01*
X69749Y-39166D01*
X73248D01*
X66251Y-41499D02*
X63918D01*
X65084D01*
Y-34501D01*
X66251Y-35667D01*
X60419D02*
X59253Y-34501D01*
X56920D01*
X55754Y-35667D01*
Y-40333D01*
X56920Y-41499D01*
X59253D01*
X60419Y-40333D01*
Y-35667D01*
X-53670Y-220501D02*
X-58335D01*
X-56002D01*
Y-227499D01*
X-60667D02*
Y-220501D01*
X-64166D01*
X-65333Y-221667D01*
Y-224000D01*
X-64166Y-225166D01*
X-60667D01*
X-67665Y-221667D02*
X-68832Y-220501D01*
X-71164D01*
X-72330Y-221667D01*
Y-222834D01*
X-71164Y-224000D01*
X-72330Y-225166D01*
Y-226333D01*
X-71164Y-227499D01*
X-68832D01*
X-67665Y-226333D01*
Y-225166D01*
X-68832Y-224000D01*
X-67665Y-222834D01*
Y-221667D01*
X-68832Y-224000D02*
X-71164D01*
X-123670Y-37501D02*
X-128335D01*
X-126002D01*
Y-44499D01*
X-130667D02*
Y-37501D01*
X-134166D01*
X-135333Y-38667D01*
Y-41000D01*
X-134166Y-42166D01*
X-130667D01*
X-137665Y-37501D02*
X-142330D01*
Y-38667D01*
X-137665Y-43333D01*
Y-44499D01*
X-46670Y-142501D02*
X-51335D01*
X-49002D01*
Y-149499D01*
X-53667D02*
Y-142501D01*
X-57166D01*
X-58333Y-143667D01*
Y-146000D01*
X-57166Y-147166D01*
X-53667D01*
X-64164Y-149499D02*
Y-142501D01*
X-60665Y-146000D01*
X-65330D01*
X-237670Y-343501D02*
X-242335D01*
X-240002D01*
Y-350499D01*
X-244667D02*
Y-343501D01*
X-248166D01*
X-249333Y-344667D01*
Y-347000D01*
X-248166Y-348166D01*
X-244667D01*
X-256330Y-350499D02*
X-251665D01*
X-256330Y-345834D01*
Y-344667D01*
X-255164Y-343501D01*
X-252831D01*
X-251665Y-344667D01*
D18*
X-30000Y-165600D02*
X-14000D01*
Y-191850D02*
Y-165600D01*
X-30000Y-191850D02*
X-14000D01*
X-30000D02*
Y-165600D01*
Y-216000D02*
X-14000D01*
Y-242250D02*
Y-216000D01*
X-30000Y-242250D02*
X-14000D01*
X-30000D02*
Y-216000D01*
X-39000Y-117000D02*
X-23000D01*
Y-143250D02*
Y-117000D01*
X-39000Y-143250D02*
X-23000D01*
X-39000D02*
Y-117000D01*
X191000Y-153400D02*
X207000D01*
X191000D02*
Y-127150D01*
X207000D01*
Y-153400D02*
Y-127150D01*
X164000Y-127600D02*
X180000D01*
Y-153850D02*
Y-127600D01*
X164000Y-153850D02*
X180000D01*
X164000D02*
Y-127600D01*
M02*
