G04*
G04 #@! TF.GenerationSoftware,Altium Limited,Altium Designer,24.1.2 (44)*
G04*
G04 Layer_Physical_Order=1*
G04 Layer_Color=255*
%FSLAX44Y44*%
%MOMM*%
G71*
G04*
G04 #@! TF.SameCoordinates,C2358ADC-4AF9-434A-8588-A0F146304F54*
G04*
G04*
G04 #@! TF.FilePolarity,Positive*
G04*
G01*
G75*
%ADD11C,0.2000*%
%ADD16C,0.3000*%
%ADD24R,1.0581X0.9121*%
%ADD26R,0.9000X0.8000*%
%ADD27R,1.1544X1.7062*%
G04:AMPARAMS|DCode=30|XSize=0.9mm|YSize=0.8mm|CornerRadius=0mm|HoleSize=0mm|Usage=FLASHONLY|Rotation=225.000|XOffset=0mm|YOffset=0mm|HoleType=Round|Shape=Rectangle|*
%AMROTATEDRECTD30*
4,1,4,0.0354,0.6010,0.6010,0.0354,-0.0354,-0.6010,-0.6010,-0.0354,0.0354,0.6010,0.0*
%
%ADD30ROTATEDRECTD30*%

G04:AMPARAMS|DCode=32|XSize=0.9mm|YSize=0.8mm|CornerRadius=0mm|HoleSize=0mm|Usage=FLASHONLY|Rotation=135.000|XOffset=0mm|YOffset=0mm|HoleType=Round|Shape=Rectangle|*
%AMROTATEDRECTD32*
4,1,4,0.6010,-0.0354,0.0354,-0.6010,-0.6010,0.0354,-0.0354,0.6010,0.6010,-0.0354,0.0*
%
%ADD32ROTATEDRECTD32*%

G04:AMPARAMS|DCode=33|XSize=1.5596mm|YSize=3.1321mm|CornerRadius=0.4133mm|HoleSize=0mm|Usage=FLASHONLY|Rotation=270.000|XOffset=0mm|YOffset=0mm|HoleType=Round|Shape=RoundedRectangle|*
%AMROUNDEDRECTD33*
21,1,1.5596,2.3055,0,0,270.0*
21,1,0.7330,3.1321,0,0,270.0*
1,1,0.8266,-1.1528,-0.3665*
1,1,0.8266,-1.1528,0.3665*
1,1,0.8266,1.1528,0.3665*
1,1,0.8266,1.1528,-0.3665*
%
%ADD33ROUNDEDRECTD33*%
G04:AMPARAMS|DCode=34|XSize=1.5596mm|YSize=0.8321mm|CornerRadius=0.4161mm|HoleSize=0mm|Usage=FLASHONLY|Rotation=270.000|XOffset=0mm|YOffset=0mm|HoleType=Round|Shape=RoundedRectangle|*
%AMROUNDEDRECTD34*
21,1,1.5596,0.0000,0,0,270.0*
21,1,0.7275,0.8321,0,0,270.0*
1,1,0.8321,0.0000,-0.3638*
1,1,0.8321,0.0000,0.3638*
1,1,0.8321,0.0000,0.3638*
1,1,0.8321,0.0000,-0.3638*
%
%ADD34ROUNDEDRECTD34*%
%ADD35R,0.8321X1.5596*%
%ADD36R,0.8000X0.9000*%
%ADD38R,0.6654X0.6725*%
%ADD42R,1.2602X1.7382*%
%ADD43R,0.9581X0.9121*%
G04:AMPARAMS|DCode=46|XSize=0.2393mm|YSize=1.0096mm|CornerRadius=0.1196mm|HoleSize=0mm|Usage=FLASHONLY|Rotation=180.000|XOffset=0mm|YOffset=0mm|HoleType=Round|Shape=RoundedRectangle|*
%AMROUNDEDRECTD46*
21,1,0.2393,0.7704,0,0,180.0*
21,1,0.0000,1.0096,0,0,180.0*
1,1,0.2393,0.0000,0.3852*
1,1,0.2393,0.0000,0.3852*
1,1,0.2393,0.0000,-0.3852*
1,1,0.2393,0.0000,-0.3852*
%
%ADD46ROUNDEDRECTD46*%
G04:AMPARAMS|DCode=47|XSize=1.0096mm|YSize=0.2393mm|CornerRadius=0.1196mm|HoleSize=0mm|Usage=FLASHONLY|Rotation=180.000|XOffset=0mm|YOffset=0mm|HoleType=Round|Shape=RoundedRectangle|*
%AMROUNDEDRECTD47*
21,1,1.0096,0.0000,0,0,180.0*
21,1,0.7704,0.2393,0,0,180.0*
1,1,0.2393,-0.3852,0.0000*
1,1,0.2393,0.3852,0.0000*
1,1,0.2393,0.3852,0.0000*
1,1,0.2393,-0.3852,0.0000*
%
%ADD47ROUNDEDRECTD47*%
%ADD48R,1.0096X0.2393*%
G04:AMPARAMS|DCode=49|XSize=0.9581mm|YSize=0.9121mm|CornerRadius=0mm|HoleSize=0mm|Usage=FLASHONLY|Rotation=45.000|XOffset=0mm|YOffset=0mm|HoleType=Round|Shape=Rectangle|*
%AMROTATEDRECTD49*
4,1,4,-0.0163,-0.6612,-0.6612,-0.0163,0.0163,0.6612,0.6612,0.0163,-0.0163,-0.6612,0.0*
%
%ADD49ROTATEDRECTD49*%

%ADD50R,0.6725X0.6654*%
%ADD51R,1.1581X1.0121*%
%ADD52R,0.9121X0.9581*%
%ADD53R,1.0121X1.1581*%
%ADD54R,2.0500X1.1000*%
%ADD55R,0.9121X1.0581*%
%ADD59R,2.5000X3.3000*%
%ADD66R,1.7582X1.3055*%
G04:AMPARAMS|DCode=67|XSize=1.5052mm|YSize=0.5721mm|CornerRadius=0.2861mm|HoleSize=0mm|Usage=FLASHONLY|Rotation=90.000|XOffset=0mm|YOffset=0mm|HoleType=Round|Shape=RoundedRectangle|*
%AMROUNDEDRECTD67*
21,1,1.5052,0.0000,0,0,90.0*
21,1,0.9331,0.5721,0,0,90.0*
1,1,0.5721,0.0000,0.4666*
1,1,0.5721,0.0000,-0.4666*
1,1,0.5721,0.0000,-0.4666*
1,1,0.5721,0.0000,0.4666*
%
%ADD67ROUNDEDRECTD67*%
%ADD68R,0.5721X1.5052*%
%ADD69C,1.0000*%
%ADD83R,5.2500X5.2500*%
%ADD100R,1.7000X2.5000*%
%ADD101R,1.0000X0.8000*%
%ADD102R,0.8000X0.8000*%
%ADD103R,1.0000X1.0000*%
%ADD104R,0.6000X1.0500*%
G04:AMPARAMS|DCode=105|XSize=0.95mm|YSize=0.8mm|CornerRadius=0mm|HoleSize=0mm|Usage=FLASHONLY|Rotation=225.000|XOffset=0mm|YOffset=0mm|HoleType=Round|Shape=Rectangle|*
%AMROTATEDRECTD105*
4,1,4,0.0530,0.6187,0.6187,0.0530,-0.0530,-0.6187,-0.6187,-0.0530,0.0530,0.6187,0.0*
%
%ADD105ROTATEDRECTD105*%

%ADD106C,1.0000*%
%ADD107R,0.9500X0.8000*%
G04:AMPARAMS|DCode=108|XSize=1.4mm|YSize=1mm|CornerRadius=0.075mm|HoleSize=0mm|Usage=FLASHONLY|Rotation=90.000|XOffset=0mm|YOffset=0mm|HoleType=Round|Shape=RoundedRectangle|*
%AMROUNDEDRECTD108*
21,1,1.4000,0.8500,0,0,90.0*
21,1,1.2500,1.0000,0,0,90.0*
1,1,0.1500,0.4250,0.6250*
1,1,0.1500,0.4250,-0.6250*
1,1,0.1500,-0.4250,-0.6250*
1,1,0.1500,-0.4250,0.6250*
%
%ADD108ROUNDEDRECTD108*%
%ADD109R,0.8000X0.9500*%
%ADD110R,1.0000X1.7000*%
%ADD111R,3.1000X4.0000*%
%ADD112R,1.5000X0.3200*%
%ADD113R,4.2500X4.0000*%
%ADD114R,0.5000X1.0000*%
%ADD115R,3.0000X2.0000*%
%ADD116R,2.5000X1.7000*%
%ADD117R,4.0000X4.2500*%
%ADD118R,1.0000X0.5000*%
%ADD119R,0.9000X0.9000*%
%ADD120R,1.5000X0.9000*%
%ADD121R,0.9000X1.5000*%
%ADD122C,0.5000*%
%ADD123C,0.6000*%
%ADD124C,0.8000*%
%ADD125C,0.3145*%
%ADD126C,1.5000*%
%ADD127C,2.0000*%
%ADD128O,2.8000X4.8000*%
%ADD129C,1.5000*%
%ADD130C,5.5000*%
%ADD131O,2.1000X1.3000*%
%ADD132O,1.9000X1.1000*%
%ADD133C,0.4500*%
%ADD134C,0.5000*%
G36*
X-341500Y-78000D02*
X-326000D01*
Y-96000D01*
X-326000Y-96000D01*
X-351000D01*
Y-78000D01*
X-341500Y-78000D01*
X-341500Y-78000D01*
D02*
G37*
G36*
X40000Y-97000D02*
Y-137000D01*
X15000D01*
Y-106000D01*
X9000Y-100000D01*
X-28000D01*
X-34000Y-106000D01*
Y-118000D01*
X-41000Y-125000D01*
X-63000D01*
X-90000Y-152000D01*
Y-243000D01*
X-109000D01*
Y-126000D01*
X-122000Y-113000D01*
Y-102000D01*
X-139000D01*
Y-123000D01*
X-141000Y-125000D01*
X-165000D01*
X-192000Y-152000D01*
X-192000Y-243000D01*
X-210000D01*
Y-128000D01*
X-224000Y-114000D01*
Y-102000D01*
X-241000D01*
Y-123000D01*
X-243000Y-125000D01*
X-267000D01*
X-294000Y-152000D01*
Y-243000D01*
X-313000D01*
Y-92000D01*
X-302000Y-81000D01*
X24000D01*
X40000Y-97000D01*
D02*
G37*
G36*
X-54000Y-246890D02*
X-51000Y-249890D01*
Y-252890D01*
X-77000D01*
X-85000Y-244890D01*
Y-232890D01*
X-54000D01*
Y-246890D01*
D02*
G37*
G36*
X-156000Y-247000D02*
X-153000Y-250000D01*
Y-253000D01*
X-179000D01*
X-187000Y-245000D01*
Y-233000D01*
X-156000D01*
Y-247000D01*
D02*
G37*
G36*
X-258000D02*
X-255000Y-250000D01*
Y-253000D01*
X-281000D01*
X-289000Y-245000D01*
Y-233000D01*
X-258000D01*
Y-247000D01*
D02*
G37*
G36*
X-219000Y-243000D02*
X-211000Y-251000D01*
X-211000Y-270500D01*
X-220500Y-270500D01*
X-237000Y-254000D01*
X-239000Y-252000D01*
Y-250000D01*
Y-130000D01*
X-219000D01*
Y-243000D01*
D02*
G37*
G36*
X-117000Y-242890D02*
X-117000D01*
X-109000Y-250890D01*
Y-272250D01*
X-120000D01*
X-137000Y-255250D01*
Y-243000D01*
X-137000D01*
Y-130000D01*
X-117000D01*
Y-242890D01*
D02*
G37*
G36*
X-321000Y-243000D02*
X-313000Y-251000D01*
Y-272500D01*
X-320500Y-272500D01*
X-341000Y-252000D01*
Y-243000D01*
Y-113000D01*
X-321000D01*
Y-243000D01*
D02*
G37*
G36*
X-90000Y-301890D02*
X-120000D01*
Y-279890D01*
X-90000D01*
Y-301890D01*
D02*
G37*
G36*
X-192000Y-302000D02*
X-222000D01*
Y-280000D01*
X-192000D01*
Y-302000D01*
D02*
G37*
G36*
X-294000D02*
X-324000D01*
Y-280000D01*
X-294000D01*
Y-302000D01*
D02*
G37*
D11*
X-240005Y-385288D02*
Y-381955D01*
X-239000Y-380950D01*
X-240484Y-385766D02*
X-240005Y-385288D01*
X-239000Y-380950D02*
Y-378000D01*
X-237250Y-340500D02*
X-224513D01*
X27455Y-527544D02*
Y-526130D01*
X25500Y-529500D02*
X27455Y-527544D01*
X31000Y-522586D02*
Y-522250D01*
X27455Y-526130D02*
X31000Y-522586D01*
X2750Y-252750D02*
Y-246000D01*
Y-252750D02*
X21991Y-271991D01*
X28092D01*
X-148250Y-365500D02*
X-147250D01*
X-155487Y-365500D02*
X-148250D01*
X-148250Y-365500D01*
X-138411Y-365160D02*
Y-364840D01*
X-143750Y-370500D02*
X-138411Y-365160D01*
X-155487Y-370500D02*
X-143750D01*
X-155487Y-360500D02*
X-146315D01*
X-145176Y-359362D02*
X-144500D01*
X-146315Y-360500D02*
X-145176Y-359362D01*
X-145306Y-353367D02*
X-144750D01*
X-155487Y-355500D02*
X-147439D01*
X-145306Y-353367D01*
X-319000Y-467000D02*
X-311500Y-474500D01*
X-303250D01*
X-306864Y-459636D02*
X-302750Y-463750D01*
X-312000Y-456000D02*
X-308364Y-459636D01*
X-306864D01*
X144000Y-211000D02*
Y-203750D01*
X130000Y-225000D02*
X144000Y-211000D01*
X190750Y-90750D02*
X197000Y-97000D01*
Y-127500D02*
Y-97000D01*
X-25250Y-136500D02*
Y-120500D01*
Y-136500D02*
X-21500Y-140250D01*
X-25250Y-120500D02*
X-21500Y-116750D01*
X-103750Y-420500D02*
X-103750D01*
X-99010Y-425240D01*
Y-426010D02*
Y-425240D01*
X51750Y-286828D02*
X52922Y-288000D01*
X63730D01*
X51750Y-286828D02*
Y-268500D01*
X61500Y-285770D02*
X63730Y-288000D01*
X61500Y-285770D02*
Y-269750D01*
X-312500Y-273500D02*
X-309000Y-270000D01*
X-337000Y-273500D02*
X-312500D01*
X-234750Y-274250D02*
X-211250D01*
X-207000Y-270000D01*
X-109610Y-274500D02*
X-105000Y-269890D01*
X-133500Y-274500D02*
X-109610D01*
X-134000Y-299250D02*
Y-291000D01*
X-133500Y-290500D01*
X-147000Y-312250D02*
X-134000Y-299250D01*
X-147000Y-339000D02*
Y-312250D01*
X-148500Y-340500D02*
X-147000Y-339000D01*
X-155487Y-340500D02*
X-148500D01*
X-227633Y-303117D02*
X-227250Y-303500D01*
X-231383Y-303117D02*
X-227633D01*
X-234750Y-299750D02*
Y-290250D01*
Y-299750D02*
X-231383Y-303117D01*
X-246250Y-313750D02*
X-214322D01*
X-247750Y-317250D02*
X-215772D01*
X-231000Y-320750D02*
X-217222D01*
X-236750Y-326500D02*
X-231000Y-320750D01*
X-227250Y-324250D02*
X-219500D01*
X-230000Y-327000D02*
X-227250Y-324250D01*
X-230000Y-331250D02*
Y-327000D01*
X-241000Y-310250D02*
X-212873D01*
X-236750Y-332500D02*
Y-326500D01*
X-217222Y-320750D02*
X-212500Y-325472D01*
X-215772Y-317250D02*
X-207500Y-325522D01*
X-214322Y-313750D02*
X-202500Y-325572D01*
X-212500Y-333488D02*
Y-325472D01*
X-245000Y-306250D02*
X-241000Y-310250D01*
X-245000Y-306250D02*
Y-249000D01*
X-219500Y-324250D02*
X-217500Y-326250D01*
X-337000Y-304250D02*
Y-289500D01*
X-337000Y-289500D02*
X-337000Y-289500D01*
Y-304250D02*
X-330500Y-310750D01*
X-254250D01*
X-247750Y-317250D01*
X-207500Y-333488D02*
Y-325522D01*
X147750Y-356500D02*
Y-323750D01*
X133850Y-309850D02*
Y-290600D01*
Y-309850D02*
X147750Y-323750D01*
X16250Y-378750D02*
X61000D01*
X62750Y-377000D01*
X14500Y-377000D02*
Y-369750D01*
Y-377000D02*
X16250Y-378750D01*
X31500Y-369750D02*
X62750D01*
X68000Y-375000D01*
X149750Y-222500D02*
Y-189000D01*
X145500Y-226750D02*
X149750Y-222500D01*
X146550Y-290600D02*
Y-268050D01*
X134000Y-255500D02*
X146550Y-268050D01*
X134000Y-255500D02*
Y-231750D01*
X139000Y-226750D01*
X145500D01*
X146750Y-186000D02*
X149750Y-189000D01*
X155250Y-228250D02*
Y-192750D01*
X171500Y-145000D02*
X172000Y-144500D01*
X158750Y-194200D02*
X165500Y-187450D01*
X158750Y-226250D02*
Y-194200D01*
X155250Y-192750D02*
X162000Y-186000D01*
X155250Y-228250D02*
X159000Y-232000D01*
X158750Y-226250D02*
X164000Y-231500D01*
X185000Y-84854D02*
X185035Y-84818D01*
X185000Y-127500D02*
Y-84854D01*
X210250Y-151500D02*
Y-144750D01*
X210000Y-144500D02*
X210250Y-144750D01*
X184750Y-151500D02*
Y-144750D01*
X185000Y-144500D01*
X131500Y-184250D02*
Y-173000D01*
Y-184250D02*
X133250Y-186000D01*
X149500Y-166250D02*
X149500Y-166250D01*
X149500Y-166250D02*
Y-156005D01*
X148500Y-173000D02*
X149500Y-172000D01*
Y-166250D01*
X130500Y-172000D02*
Y-156005D01*
Y-172000D02*
X131500Y-173000D01*
Y-119000D02*
X132000D01*
X140000Y-133995D02*
Y-129330D01*
X135000Y-124330D02*
X140000Y-129330D01*
X135000Y-124330D02*
Y-122000D01*
X132000Y-119000D02*
X135000Y-122000D01*
X47000Y-235000D02*
X47000Y-235000D01*
X32000Y-235000D02*
X47000D01*
X61500Y-244500D02*
Y-242250D01*
X47000Y-251000D02*
X50000Y-248000D01*
X58000D01*
X61500Y-244500D01*
X71000Y-259500D02*
X80248Y-250252D01*
Y-242502D01*
X71000Y-269750D02*
Y-259500D01*
X80248Y-242502D02*
X80500Y-242250D01*
X89750Y-298250D02*
X94172Y-302672D01*
X89750Y-263250D02*
X106000Y-247000D01*
X89750Y-298250D02*
Y-263250D01*
X85750Y-311750D02*
Y-277250D01*
X80500Y-272000D02*
X85750Y-277250D01*
Y-311750D02*
X89800Y-315800D01*
X80500Y-272000D02*
Y-269750D01*
X103072Y-302672D02*
X103500Y-303100D01*
X94172Y-302672D02*
X103072D01*
X77250Y-295750D02*
Y-289020D01*
X78270Y-288000D01*
X75750Y-285480D02*
Y-281250D01*
Y-285480D02*
X78270Y-288000D01*
X73000Y-278500D02*
Y-271750D01*
Y-278500D02*
X75750Y-281250D01*
X71000Y-269750D02*
X73000Y-271750D01*
X68000Y-419000D02*
Y-375000D01*
X32750Y-356500D02*
Y-348000D01*
X32500Y-356750D02*
X32750Y-356500D01*
X30250Y-345500D02*
X32750Y-348000D01*
X33750Y-341250D02*
X37500Y-345000D01*
X33750Y-341250D02*
Y-306050D01*
X30250Y-304200D02*
X34500Y-299950D01*
X30250Y-345500D02*
Y-304200D01*
X63071Y-332757D02*
X64453Y-331375D01*
X42000Y-311000D02*
X49473D01*
X37250Y-307500D02*
X41500Y-303250D01*
X33750Y-306050D02*
X38000Y-301800D01*
X37250Y-318750D02*
Y-307500D01*
X25750Y-303750D02*
X30250Y-299250D01*
Y-274149D01*
X25750Y-330000D02*
Y-303750D01*
X29542Y-268491D02*
X34500Y-273450D01*
Y-299950D02*
Y-273450D01*
X22339Y-265000D02*
X25830Y-268491D01*
X22250Y-265000D02*
X22339D01*
X28092Y-271991D02*
X30250Y-274149D01*
X25830Y-268491D02*
X29542D01*
X13000Y-237000D02*
X45000Y-269000D01*
X2000Y-236000D02*
X38000Y-272000D01*
X9500Y-238450D02*
X41500Y-270450D01*
X23000Y-332750D02*
X25750Y-330000D01*
X41500Y-303250D02*
Y-270450D01*
X38000Y-301800D02*
Y-272000D01*
X13000Y-237000D02*
Y-175000D01*
X45000Y-299250D02*
Y-269000D01*
X9500Y-238450D02*
Y-196000D01*
X-4250Y-236000D02*
X2000D01*
X9000Y-384000D02*
X62000D01*
X5250Y-380250D02*
Y-334250D01*
Y-380250D02*
X9000Y-384000D01*
X32500Y-368750D02*
Y-356750D01*
X31500Y-369750D02*
X32500Y-368750D01*
X13500Y-368750D02*
X14500Y-369750D01*
X13500Y-368750D02*
Y-356750D01*
X21000Y-318500D02*
Y-292750D01*
X5250Y-334250D02*
X21000Y-318500D01*
X-4250Y-205000D02*
X2750D01*
X-4250Y-159000D02*
X2750D01*
X-4250Y-159000D02*
X-4250Y-159000D01*
X-4250Y-113000D02*
X2750D01*
X63250Y-322000D02*
X71000D01*
X40500D02*
X63250D01*
X63071Y-332757D02*
Y-322179D01*
X63250Y-322000D01*
Y-303500D02*
X70250D01*
X49250D02*
X63250D01*
X63176Y-303574D02*
X63250Y-303500D01*
X63176Y-310837D02*
Y-303574D01*
X63500Y-345000D02*
X78250D01*
X37500D02*
X63500D01*
X63477Y-354678D02*
Y-345023D01*
X63500Y-345000D01*
X87150Y-353900D02*
X103500D01*
X78250Y-345000D02*
X87150Y-353900D01*
X76250Y-335500D02*
Y-327250D01*
Y-335500D02*
X81950Y-341200D01*
X103500D01*
X71000Y-322000D02*
X76250Y-327250D01*
X37250Y-318750D02*
X40500Y-322000D01*
X74500Y-313500D02*
Y-307750D01*
Y-313500D02*
X89500Y-328500D01*
X103500D01*
X70250Y-303500D02*
X74500Y-307750D01*
X45000Y-299250D02*
X49250Y-303500D01*
X42000Y-355250D02*
X49365D01*
X49937Y-354678D01*
X42500Y-339250D02*
Y-339058D01*
X48801Y-332757D01*
X49531D01*
X49473Y-311000D02*
X49636Y-310837D01*
X121000Y-319000D02*
Y-310000D01*
X127000Y-320050D02*
Y-304000D01*
Y-320050D02*
X139500Y-332550D01*
X165500Y-187450D02*
Y-178500D01*
X162000Y-186000D02*
Y-177000D01*
X-279000Y-422000D02*
X-268700D01*
X-257000D02*
X-249000D01*
X-245000Y-418000D02*
Y-405000D01*
X-249000Y-422000D02*
X-245000Y-418000D01*
X-239000Y-378000D02*
X-236500Y-375500D01*
X-249500Y-384750D02*
X-246500Y-381750D01*
X-244750D02*
X-242500Y-379500D01*
Y-375000D01*
X-246500Y-381750D02*
X-244750D01*
X-236500Y-375500D02*
X-224513D01*
X-242500Y-375000D02*
X-238000Y-370500D01*
X-246500Y-370750D02*
X-243200D01*
X-239450Y-367000D02*
X-236050D01*
X-234550Y-365500D01*
X-238000Y-370500D02*
X-224513D01*
X-243200Y-370750D02*
X-239450Y-367000D01*
X-249500Y-373750D02*
X-246500Y-370750D01*
X89800Y-315800D02*
X103500D01*
X221750Y-217000D02*
X229000D01*
X221750Y-217000D02*
X221750Y-217000D01*
X-116000Y-398000D02*
X-105172D01*
X-119000Y-401000D02*
X-116000Y-398000D01*
X-103161Y-400010D02*
X-98990D01*
X-105172Y-398000D02*
X-103161Y-400010D01*
X-99343Y-399657D02*
X-98636Y-400364D01*
X-89910D01*
X-84773Y-395227D01*
X-84773D01*
X-84444Y-413990D02*
X-75227Y-404773D01*
X-86990Y-413990D02*
X-84444D01*
X37000Y-436730D02*
Y-428000D01*
Y-436730D02*
X37831Y-437561D01*
X37000Y-428000D02*
X42000Y-423000D01*
X64000D01*
X68000Y-419000D01*
X260850Y-276315D02*
X264000Y-273165D01*
X260850Y-290600D02*
Y-276315D01*
X264000Y-273165D02*
Y-271000D01*
X248150Y-290600D02*
Y-259850D01*
X260000Y-248000D01*
Y-225000D01*
X-155652Y-402513D02*
X-152165Y-406000D01*
X-162500Y-402513D02*
X-155652D01*
X-152165Y-406000D02*
X-150000D01*
X278500Y-392000D02*
X279500Y-391000D01*
X295000D01*
X280800Y-377000D02*
X295000D01*
X278500Y-379300D02*
X280800Y-377000D01*
X289235Y-366600D02*
X292835Y-363000D01*
X278500Y-366600D02*
X289235D01*
X292835Y-363000D02*
X295000D01*
X289000Y-353900D02*
X293900Y-349000D01*
X278500Y-353900D02*
X289000D01*
X293900Y-349000D02*
X295000D01*
X288800Y-341200D02*
X295000Y-335000D01*
X278500Y-341200D02*
X288800D01*
X312000Y-326000D02*
X321000Y-317000D01*
X281000Y-326000D02*
X312000D01*
X278000Y-329000D02*
X281000Y-326000D01*
X308000Y-371500D02*
X310000Y-369500D01*
X308000Y-388250D02*
Y-371500D01*
X310500Y-407730D02*
Y-390750D01*
X308000Y-388250D02*
X310500Y-390750D01*
X317230Y-284000D02*
X317439D01*
X321000Y-287561D01*
Y-317000D02*
Y-287561D01*
X344500Y-382000D02*
Y-373000D01*
X348000Y-369500D01*
X310000Y-375000D02*
Y-369500D01*
Y-375000D02*
X310000Y-375000D01*
X324000D01*
X207000Y-272000D02*
X210050Y-275050D01*
X199000Y-272000D02*
X207000D01*
X210050Y-290600D02*
Y-275050D01*
X213000Y-260000D02*
X222750Y-269750D01*
X166000Y-260000D02*
X213000D01*
X222750Y-290600D02*
Y-269750D01*
X159000Y-253000D02*
Y-232000D01*
Y-253000D02*
X166000Y-260000D01*
X194000Y-255000D02*
X216000D01*
X235450Y-274450D01*
X186000Y-247000D02*
X194000Y-255000D01*
X186000Y-247000D02*
Y-239000D01*
X7000Y-279250D02*
X21000D01*
X330770Y-284000D02*
X339000D01*
X242000Y-329000D02*
X278000D01*
X7000Y-292750D02*
X7000Y-292750D01*
X21000D01*
X3250Y-297750D02*
Y-295750D01*
X6250Y-292750D01*
X-7000Y-308500D02*
Y-308000D01*
X3250Y-297750D01*
X6250Y-292750D02*
X7000D01*
X-7000Y-291500D02*
Y-277500D01*
X-7500Y-261000D02*
X-7000Y-260500D01*
X-15000Y-261000D02*
X-7500D01*
X292750Y-144500D02*
X293133Y-144117D01*
Y-140668D01*
X296400Y-137400D01*
X302300D01*
X289950Y-70200D02*
X302100D01*
X302300Y-70399D01*
X289750Y-70000D02*
X289950Y-70200D01*
X-239125Y-361625D02*
X-238000Y-360500D01*
X-224512D01*
X-249500Y-362750D02*
X-240250D01*
X-239125Y-361625D01*
X212000Y-101000D02*
Y-95071D01*
X265659Y-468200D02*
X278500D01*
X260000Y-462541D02*
X265659Y-468200D01*
X260000Y-462541D02*
Y-462000D01*
X114800Y-468200D02*
X121000Y-462000D01*
X103500Y-468200D02*
X114800D01*
X-200000Y-368000D02*
X-192000D01*
X-210000Y-378000D02*
X-200000Y-368000D01*
X-202000Y-388000D02*
Y-386071D01*
X-200000Y-384071D01*
Y-380000D01*
X-202000Y-378000D02*
X-200000Y-380000D01*
X-205500Y-383500D02*
Y-381500D01*
X-210000Y-388000D02*
X-205500Y-383500D01*
X-202000Y-378000D02*
X-192000Y-368000D01*
X-190000D01*
X-205500Y-381500D02*
X-202000Y-378000D01*
X-190000Y-368000D02*
X-187500Y-370500D01*
X-207500Y-350500D02*
X-190000Y-368000D01*
X-212500Y-390500D02*
X-210000Y-388000D01*
X-206000Y-384000D02*
Y-383000D01*
X-210000Y-388000D02*
X-210000D01*
X256000Y-168000D02*
Y-161500D01*
X256000Y-168000D02*
X256000Y-168000D01*
X242000Y-168000D02*
Y-161750D01*
X241750Y-161500D02*
X242000Y-161750D01*
X206000Y-391000D02*
X220000D01*
X192000D02*
X206000D01*
Y-377000D02*
X220000D01*
X206000Y-391000D02*
Y-377000D01*
Y-405000D02*
Y-391000D01*
X206000Y-405000D02*
X220000D01*
X206000D02*
X206000Y-405000D01*
X192000Y-391000D02*
Y-377000D01*
Y-405000D02*
Y-391000D01*
Y-405000D02*
X192000Y-405000D01*
X192000Y-405000D02*
X206000D01*
X192000Y-405000D02*
X192000Y-405000D01*
X220000Y-391000D02*
Y-377000D01*
Y-405000D02*
Y-391000D01*
X192000Y-377000D02*
X206000D01*
X162000Y-177000D02*
X174000Y-165000D01*
X199000D02*
X199000D01*
X189750Y-174250D02*
X199000Y-165000D01*
X165500Y-178500D02*
X169750Y-174250D01*
X189750D01*
X164000Y-231500D02*
X178500D01*
X186000Y-239000D01*
X235450Y-290600D02*
Y-274450D01*
X-7000Y-246500D02*
X-4250Y-243750D01*
Y-236000D01*
X-7000Y-247000D02*
Y-246500D01*
X-18000Y-236250D02*
X-17750Y-236000D01*
Y-205000D01*
X-11536Y-129000D02*
X-11036Y-128500D01*
X-19500Y-129000D02*
X-11536D01*
X-17750Y-113750D02*
Y-113000D01*
Y-144000D02*
Y-143250D01*
X-20750Y-140250D02*
X-17750Y-143250D01*
X-21500Y-116750D02*
X-20750D01*
X-21500Y-140250D02*
X-20750D01*
Y-116750D02*
X-17750Y-113750D01*
X210000Y-127500D02*
Y-120000D01*
X210000Y-127500D02*
X210000Y-127500D01*
X199000Y-165000D02*
Y-159036D01*
X198964Y-159000D02*
X199000Y-159036D01*
X174000Y-165000D02*
Y-159036D01*
X173964Y-159000D02*
X174000Y-159036D01*
X198964Y-159000D02*
Y-146464D01*
X197000Y-144500D02*
X198964Y-146464D01*
X172000Y-157036D02*
X173964Y-159000D01*
X172000Y-157036D02*
Y-144500D01*
X172000Y-127500D02*
Y-120000D01*
X172000Y-127500D02*
X172000Y-127500D01*
X-201000Y-508000D02*
X-179500Y-529500D01*
X25500D01*
X83200Y-442800D02*
X103500D01*
X79000Y-447000D02*
X83200Y-442800D01*
X67000Y-447000D02*
X79000D01*
X73000Y-452000D02*
X76500Y-455500D01*
X62000Y-452000D02*
X73000D01*
X-201000Y-515000D02*
X-183000Y-533000D01*
X209036Y-159000D02*
X211000Y-160964D01*
Y-166000D02*
Y-160964D01*
X186000Y-166000D02*
Y-160964D01*
X184036Y-159000D02*
X186000Y-160964D01*
X197000Y-127500D02*
X210000D01*
X172000Y-127500D02*
X185000D01*
X221750Y-217000D02*
X223000Y-215750D01*
X230000Y-195000D02*
X260000Y-225000D01*
X221750Y-195000D02*
X230000D01*
X193500Y-217000D02*
X208250D01*
X193500Y-195000D02*
X208250D01*
X111000Y-225000D02*
X130000D01*
X60000Y-436000D02*
X70000D01*
X60000Y-430000D02*
X69000D01*
X-265000Y-295000D02*
Y-270000D01*
Y-295000D02*
X-246250Y-313750D01*
X-183000Y-533000D02*
X30000Y-533000D01*
X34000Y-529000D01*
X106000Y-230000D02*
X111000Y-225000D01*
X106000Y-247000D02*
Y-230000D01*
X325000Y-193000D02*
X340500D01*
X344000Y-196500D01*
X84300Y-404700D02*
X103500D01*
X80000Y-432000D02*
Y-409000D01*
X84300Y-404700D01*
X76500Y-397500D02*
X82000Y-392000D01*
X103500D01*
X76500Y-429500D02*
Y-397500D01*
X79700Y-379300D02*
X103500D01*
X73000Y-426000D02*
Y-386000D01*
X79700Y-379300D01*
X70000Y-436000D02*
X76500Y-429500D01*
X69000Y-430000D02*
X73000Y-426000D01*
X70000Y-442000D02*
X80000Y-432000D01*
X57000Y-442000D02*
X70000D01*
X-315500Y-461500D02*
X-309000Y-468000D01*
X-312000Y-456000D02*
Y-425000D01*
X-281250Y-349000D02*
X-266000D01*
X-319000Y-467000D02*
Y-368000D01*
X-300000Y-349000D01*
X-281250D01*
X-315500Y-461500D02*
Y-423550D01*
X-306000Y-414050D01*
Y-381000D01*
X-312000Y-425000D02*
X-280250Y-393250D01*
X-241250D01*
X103500Y-430100D02*
X113900D01*
X123100Y-420900D02*
X128050D01*
X113900Y-430100D02*
X123100Y-420900D01*
X139500Y-409450D02*
Y-332550D01*
X128050Y-420900D02*
X139500Y-409450D01*
X121000Y-319000D02*
X136000Y-334000D01*
Y-408000D02*
Y-334000D01*
X126600Y-417400D02*
X136000Y-408000D01*
X103500Y-417400D02*
X126600D01*
X76500Y-455500D02*
X103500D01*
X-290000Y-518500D02*
X-290000Y-518500D01*
X3500Y-190000D02*
X9500Y-196000D01*
X-4250Y-190000D02*
X3500D01*
X8000Y-170000D02*
X13000Y-175000D01*
X8000Y-170000D02*
Y-150000D01*
X2000Y-144000D02*
X8000Y-150000D01*
X-4250Y-144000D02*
X2000D01*
X268000Y-430000D02*
X278400D01*
X278500Y-430100D01*
X278100Y-417000D02*
X278500Y-417400D01*
X268000Y-417000D02*
X278100D01*
X278200Y-405000D02*
X278500Y-404700D01*
X268000Y-405000D02*
X278200D01*
X-173000Y-475000D02*
X-146000D01*
X197350Y-290600D02*
X198000Y-291250D01*
Y-313000D02*
Y-291250D01*
X184650Y-290600D02*
X185000Y-290950D01*
Y-313000D02*
Y-290950D01*
X171950Y-290600D02*
X172000Y-290650D01*
Y-313000D02*
Y-290650D01*
X-240000Y-447500D02*
X-222500Y-430000D01*
X-240000Y-465000D02*
Y-447500D01*
X-250335Y-452500D02*
X-247953Y-450118D01*
X-247568D02*
X-223950Y-426500D01*
X-252500Y-452500D02*
X-250335D01*
X-247953Y-450118D02*
X-247568D01*
X-240000Y-501500D02*
Y-465000D01*
Y-501500D02*
X-240000Y-501500D01*
X-265000Y-501500D02*
Y-465000D01*
Y-501500D02*
X-265000Y-501500D01*
X-290000D02*
X-290000Y-501500D01*
X-290000Y-501500D02*
Y-465000D01*
X-223950Y-426500D02*
X-201450D01*
X-217500Y-410000D02*
Y-402513D01*
X-220000Y-412500D02*
X-217500Y-410000D01*
X-229749Y-412500D02*
X-220000D01*
X-249249Y-432000D02*
X-229749Y-412500D01*
X-282000Y-432000D02*
X-249249D01*
X-302500Y-452500D02*
X-282000Y-432000D01*
X-290000Y-465000D02*
Y-447500D01*
X-290000Y-465000D02*
X-290000Y-465000D01*
X-278000Y-435500D02*
X-247799D01*
X-290000Y-447500D02*
X-278000Y-435500D01*
X-247799D02*
X-228299Y-416000D01*
X-215000D01*
X-212500Y-413500D02*
Y-402513D01*
X-215000Y-416000D02*
X-212500Y-413500D01*
X-257500Y-442500D02*
X-244900D01*
X-225399Y-423000D01*
X-209500Y-419500D02*
X-207500Y-417500D01*
Y-402513D01*
X-226849Y-419500D02*
X-209500D01*
X-264000Y-439000D02*
X-246349D01*
X-226849Y-419500D01*
X-277500Y-452500D02*
X-264000Y-439000D01*
X-225399Y-423000D02*
X-205500D01*
X-202500Y-420000D01*
Y-402513D01*
X-265000Y-450000D02*
X-257500Y-442500D01*
X-265000Y-465000D02*
Y-450000D01*
X-201450Y-426500D02*
X-197500Y-422550D01*
Y-402513D01*
X-200000Y-430000D02*
X-192500Y-422500D01*
Y-402513D01*
X-222500Y-430000D02*
X-200000D01*
X-187500Y-370500D02*
X-167500Y-390500D01*
X-187500Y-402513D02*
Y-370500D01*
X287541Y-119250D02*
X290466Y-116325D01*
X287000Y-119250D02*
X287541D01*
X290466Y-116325D02*
X302225D01*
X302300Y-116400D01*
X241750Y-148000D02*
Y-140750D01*
X256000Y-148000D02*
X256000Y-148000D01*
X256000Y-148000D02*
Y-140750D01*
X287050Y-86450D02*
X302250D01*
X287000Y-86500D02*
X287050Y-86450D01*
X302250D02*
X302300Y-86400D01*
X246750Y-91214D02*
X247495Y-91959D01*
X252598D02*
X254159Y-93520D01*
X256770D02*
X257000Y-93750D01*
X247495Y-91959D02*
X252598D01*
X254159Y-93520D02*
X256770D01*
X252598Y-123041D02*
X254034Y-121605D01*
X256895D01*
X257000Y-121500D01*
X247495Y-123041D02*
X252598D01*
X246750Y-123786D02*
X247495Y-123041D01*
X333750Y-434750D02*
Y-425236D01*
X310750Y-440230D02*
Y-431750D01*
X310500Y-440480D02*
X310750Y-440230D01*
Y-431750D02*
Y-422520D01*
X310500Y-422270D02*
X310750Y-422520D01*
X326520Y-407730D02*
X327750Y-406500D01*
X310500Y-407730D02*
X326520D01*
X298000Y-411750D02*
X302020Y-407730D01*
X310500D01*
X298000Y-438250D02*
Y-411750D01*
X278500Y-442800D02*
X293450D01*
X298000Y-438250D01*
X-266000Y-349000D02*
X-266000Y-349000D01*
X-248250Y-230750D02*
X-248100Y-230900D01*
Y-238440D02*
Y-230900D01*
Y-238440D02*
X-247950Y-238590D01*
X-145975Y-164565D02*
Y-157025D01*
X-146000Y-157000D02*
X-145975Y-157025D01*
Y-164565D02*
X-145950Y-164590D01*
X-76750Y-323500D02*
X-63500Y-310250D01*
X-128500Y-323500D02*
X-76750D01*
X-63500Y-310250D02*
X-40000D01*
X-34000Y-207750D02*
Y-155000D01*
Y-207750D02*
X-30250Y-211500D01*
Y-239000D02*
Y-211500D01*
Y-239000D02*
X-27750Y-241500D01*
Y-306000D02*
Y-241500D01*
X-44000Y-157000D02*
X-43757Y-156757D01*
Y-154172D02*
X-42586Y-153000D01*
X-36000D01*
X-43757Y-156757D02*
Y-154172D01*
X-36000Y-153000D02*
X-34000Y-155000D01*
X-37750Y-316000D02*
X-27750Y-306000D01*
X-59000Y-316000D02*
X-37750D01*
X-74250Y-331250D02*
X-59000Y-316000D01*
X-128500Y-331250D02*
X-74250D01*
X-45000Y-212000D02*
X-37750D01*
X-35500Y-214250D01*
Y-240250D02*
Y-214250D01*
X-33500Y-303750D02*
Y-242250D01*
X-35500Y-240250D02*
X-33500Y-242250D01*
X-40000Y-310250D02*
X-33500Y-303750D01*
X-43950Y-238480D02*
X-43500Y-238930D01*
Y-245750D02*
Y-238930D01*
Y-245750D02*
X-38750Y-250500D01*
Y-299500D02*
Y-250500D01*
X-42750Y-303500D02*
X-38750Y-299500D01*
X-77250Y-314000D02*
X-66750Y-303500D01*
X-42750D01*
X-132250Y-314000D02*
X-77250D01*
X-138750Y-320500D02*
X-132250Y-314000D01*
X-138750Y-340649D02*
Y-320500D01*
X-148525Y-350425D02*
X-138750Y-340649D01*
X-155412Y-350425D02*
X-148525D01*
X-155487Y-350500D02*
X-155412Y-350425D01*
X-61000Y-295000D02*
Y-269890D01*
X-71500Y-298000D02*
X-64000D01*
X-61000Y-295000D01*
X-82250Y-308750D02*
X-71500Y-298000D01*
X-143500Y-317000D02*
X-135250Y-308750D01*
X-82250D01*
X-143500Y-340450D02*
Y-317000D01*
X-155487Y-345500D02*
X-155412Y-345425D01*
X-148475D01*
X-143500Y-340450D01*
X-191500Y-311750D02*
X-187500Y-315750D01*
Y-333488D02*
Y-315750D01*
Y-333488D02*
X-187500Y-333488D01*
X-162500Y-318250D02*
X-162500Y-318250D01*
Y-333488D02*
X-162500Y-333488D01*
X-162500Y-333488D02*
Y-318250D01*
X-145950Y-245800D02*
Y-238590D01*
Y-245800D02*
X-143500Y-248250D01*
Y-298000D02*
Y-248250D01*
X-148000Y-302500D02*
X-143500Y-298000D01*
X-153750Y-302500D02*
X-148000D01*
X-172500Y-310750D02*
X-164500Y-302750D01*
X-172500Y-333488D02*
Y-310750D01*
X-163000Y-270000D02*
X-159000Y-274000D01*
Y-306750D02*
Y-274000D01*
X-167500Y-315250D02*
X-159000Y-306750D01*
X-167500Y-333488D02*
Y-315250D01*
X-177500Y-317000D02*
X-177500Y-317000D01*
Y-333488D02*
Y-317000D01*
X-182500Y-333488D02*
Y-322750D01*
X-182500Y-322750D02*
X-182500Y-322750D01*
X-192500Y-333488D02*
Y-322500D01*
X-198000Y-317000D02*
X-192500Y-322500D01*
X-197500Y-333488D02*
Y-325623D01*
X-212873Y-310250D02*
X-197500Y-325623D01*
X-247950Y-246050D02*
X-245000Y-249000D01*
X-247950Y-246050D02*
Y-238590D01*
X-202500Y-333488D02*
Y-325572D01*
X-217500Y-333488D02*
Y-326250D01*
X-224513Y-340500D02*
X-224512Y-340500D01*
X-249730Y-331000D02*
X-249500Y-331230D01*
Y-349000D02*
Y-331230D01*
X-9000Y-135500D02*
Y-130536D01*
X-11036Y-128500D02*
X-9000Y-130536D01*
X-7250Y-141000D02*
Y-137250D01*
Y-141000D02*
X-4250Y-144000D01*
X-9000Y-135500D02*
X-7250Y-137250D01*
X-9000Y-180750D02*
Y-176536D01*
X-11036Y-174500D02*
X-9000Y-176536D01*
X-7250Y-187000D02*
X-4250Y-190000D01*
X-7250Y-187000D02*
Y-182500D01*
X-9000Y-180750D02*
X-7250Y-182500D01*
X-8709Y-227291D02*
Y-222827D01*
X-11036Y-220500D02*
X-8709Y-222827D01*
Y-227291D02*
X-7250Y-228750D01*
Y-233000D02*
Y-228750D01*
Y-233000D02*
X-4250Y-236000D01*
X-17750Y-190000D02*
Y-159000D01*
X-25000Y-205000D02*
X-17750D01*
X-25000Y-159000D02*
X-17750D01*
X-17750Y-159000D01*
X-25000Y-113000D02*
X-17750D01*
X-145975Y-238565D02*
Y-231025D01*
X-146000Y-231000D02*
X-145975Y-231025D01*
Y-238565D02*
X-145950Y-238590D01*
X-44000Y-231000D02*
X-43975Y-231025D01*
Y-238455D02*
X-43950Y-238480D01*
X-43975Y-238455D02*
Y-231025D01*
Y-164565D02*
Y-157025D01*
Y-164565D02*
X-43950Y-164590D01*
X-44000Y-157000D02*
X-43975Y-157025D01*
X-247975Y-164565D02*
X-247950Y-164590D01*
X-247975Y-164565D02*
Y-157025D01*
X-248000Y-157000D02*
X-247975Y-157025D01*
X21500Y-235000D02*
X32000D01*
X18250Y-231750D02*
Y-220500D01*
Y-231750D02*
X21500Y-235000D01*
X18250Y-220500D02*
X21700Y-217050D01*
X32410D01*
X-135500Y-401000D02*
X-119000D01*
X-141000Y-395500D02*
X-135500Y-401000D01*
X-155487Y-395500D02*
X-141000D01*
X-167500Y-390500D02*
X-155487D01*
X-134000Y-389250D02*
X-130520D01*
X-128000Y-391770D01*
X-137750Y-385500D02*
X-134000Y-389250D01*
X-155487Y-385500D02*
X-137750D01*
X-128520Y-378750D02*
X-128000Y-378230D01*
X-134500Y-378750D02*
X-128520D01*
X-136250Y-380500D02*
X-134500Y-378750D01*
X-155487Y-380500D02*
X-136250D01*
X-142000Y-375500D02*
X-128000Y-361500D01*
Y-361270D01*
X-155487Y-375500D02*
X-142000D01*
X-167425Y-408575D02*
X-163250Y-412750D01*
X-167500Y-402513D02*
X-167425Y-402588D01*
Y-408575D02*
Y-402588D01*
X-177500Y-410250D02*
Y-402513D01*
X-177500Y-402513D01*
X-182540Y-422000D02*
X-182500Y-421960D01*
Y-402513D01*
X-244770Y-405000D02*
X-235270Y-395500D01*
X-224512D01*
X-245000Y-405000D02*
X-244770D01*
X-224512Y-390500D02*
X-212500D01*
X-241250Y-393250D02*
X-233500Y-385500D01*
X-224512D01*
X-234250Y-380500D02*
X-234250Y-380500D01*
X-224512D01*
X-234550Y-365500D02*
X-224513D01*
X-266000Y-349000D02*
X-259500Y-355500D01*
X-266500Y-349000D02*
X-266000D01*
X-259500Y-355500D02*
X-224512D01*
Y-350500D02*
X-207500D01*
X-249500Y-349000D02*
X-240250D01*
X-236750Y-345500D01*
X-224512D01*
D16*
X282075Y-78325D02*
X302225D01*
X282000Y-78250D02*
X282075Y-78325D01*
X302225D02*
X302300Y-78400D01*
X322250Y-121250D02*
Y-87500D01*
X311997Y-82250D02*
X317000D01*
X322250Y-87500D01*
X311247Y-81500D02*
X311997Y-82250D01*
X302300Y-81400D02*
X302400Y-81500D01*
X311247D01*
X317950Y-125550D02*
X322250Y-121250D01*
X302400Y-126300D02*
X311247D01*
X302300Y-126400D02*
X302400Y-126300D01*
X311247D02*
X311997Y-125550D01*
X317950D01*
D24*
X49636Y-310837D02*
D03*
X63176D02*
D03*
X49531Y-332757D02*
D03*
X63071D02*
D03*
X49937Y-354678D02*
D03*
X63477D02*
D03*
X330770Y-284000D02*
D03*
X317230D02*
D03*
D26*
X31500Y-369750D02*
D03*
X14500D02*
D03*
X131500Y-119000D02*
D03*
X148500D02*
D03*
X-249500Y-373750D02*
D03*
X-266500D02*
D03*
X-249500Y-384750D02*
D03*
X-266500D02*
D03*
X-249500Y-362750D02*
D03*
X-266500D02*
D03*
X-249500Y-349000D02*
D03*
X-266500D02*
D03*
X131500Y-173000D02*
D03*
X148500D02*
D03*
D27*
X-128759Y-230000D02*
D03*
X-103241D02*
D03*
X-128759Y-210000D02*
D03*
X-103241D02*
D03*
X-128759Y-190000D02*
D03*
X-103241D02*
D03*
X-128759Y-170000D02*
D03*
X-103241D02*
D03*
X-128759Y-150000D02*
D03*
X-103241D02*
D03*
X-128759Y-130000D02*
D03*
X-103241D02*
D03*
X-230759Y-230000D02*
D03*
X-205241Y-230000D02*
D03*
X-230759Y-210000D02*
D03*
X-205241D02*
D03*
X-230759Y-190000D02*
D03*
X-205241Y-190000D02*
D03*
X-230759Y-170000D02*
D03*
X-205241D02*
D03*
X-230759Y-150000D02*
D03*
X-205241D02*
D03*
X-230759Y-128000D02*
D03*
X-205241Y-128000D02*
D03*
X-332759Y-230000D02*
D03*
X-307241D02*
D03*
X-332759Y-210000D02*
D03*
X-307241D02*
D03*
X-332759Y-170000D02*
D03*
X-307241D02*
D03*
X-332759Y-190000D02*
D03*
X-307241D02*
D03*
X-332759Y-150000D02*
D03*
X-307241D02*
D03*
X-332759Y-130000D02*
D03*
X-307241D02*
D03*
D30*
X-99010Y-426010D02*
D03*
X-86990Y-413990D02*
D03*
D32*
X-111010Y-387990D02*
D03*
X-98990Y-400010D02*
D03*
D33*
X10000Y-515262D02*
D03*
D34*
X-13000Y-456738D02*
D03*
X10000D02*
D03*
D35*
X33000D02*
D03*
D36*
X-7000Y-260500D02*
D03*
Y-277500D02*
D03*
Y-291500D02*
D03*
Y-308500D02*
D03*
X210000Y-127500D02*
D03*
Y-144500D02*
D03*
X197000Y-127500D02*
D03*
Y-144500D02*
D03*
X185000Y-127500D02*
D03*
Y-144500D02*
D03*
X172000Y-127500D02*
D03*
Y-144500D02*
D03*
X-290000Y-501500D02*
D03*
Y-518500D02*
D03*
X-265000Y-501500D02*
D03*
Y-518500D02*
D03*
X-240000Y-501500D02*
D03*
Y-518500D02*
D03*
D38*
X198964Y-159000D02*
D03*
X209036D02*
D03*
X173964D02*
D03*
X184036D02*
D03*
X-964Y-128500D02*
D03*
X-11036D02*
D03*
Y-220500D02*
D03*
X-964D02*
D03*
X-11036Y-174500D02*
D03*
X-964D02*
D03*
D42*
X-304818Y-87000D02*
D03*
X-333182D02*
D03*
D43*
X-16270Y-436000D02*
D03*
X-1730D02*
D03*
X-259540Y-405000D02*
D03*
X-245000D02*
D03*
X21730Y-436000D02*
D03*
X36270D02*
D03*
X-66270Y-429000D02*
D03*
X-51730D02*
D03*
Y-447000D02*
D03*
X-66270D02*
D03*
X-51730Y-501000D02*
D03*
X-66270D02*
D03*
X-51730Y-483000D02*
D03*
X-66270D02*
D03*
X-51730Y-465000D02*
D03*
X-66270D02*
D03*
X78270Y-288000D02*
D03*
X63730D02*
D03*
D46*
X-162500Y-402513D02*
D03*
X-167500D02*
D03*
X-172500D02*
D03*
X-177500D02*
D03*
X-182500D02*
D03*
X-187500D02*
D03*
X-192500D02*
D03*
X-197500D02*
D03*
X-202500D02*
D03*
X-207500D02*
D03*
X-212500D02*
D03*
X-217500D02*
D03*
X-217500Y-333488D02*
D03*
X-212500D02*
D03*
X-207500D02*
D03*
X-202500D02*
D03*
X-197500D02*
D03*
X-192500D02*
D03*
X-187500D02*
D03*
X-182500D02*
D03*
X-177500D02*
D03*
X-172500D02*
D03*
X-167500D02*
D03*
X-162500D02*
D03*
D47*
X-224512Y-395500D02*
D03*
Y-390500D02*
D03*
Y-385500D02*
D03*
Y-380500D02*
D03*
X-224513Y-375500D02*
D03*
Y-370500D02*
D03*
Y-365500D02*
D03*
X-224512Y-360500D02*
D03*
Y-355500D02*
D03*
Y-350500D02*
D03*
Y-345500D02*
D03*
Y-340500D02*
D03*
X-155487D02*
D03*
Y-345500D02*
D03*
Y-350500D02*
D03*
Y-355500D02*
D03*
Y-360500D02*
D03*
Y-365500D02*
D03*
Y-370500D02*
D03*
Y-375500D02*
D03*
Y-380500D02*
D03*
Y-385500D02*
D03*
Y-390500D02*
D03*
D48*
Y-395500D02*
D03*
D49*
X-109859Y-410859D02*
D03*
X-120141Y-421141D02*
D03*
X-133859Y-410859D02*
D03*
X-144141Y-421141D02*
D03*
D50*
X212000Y-85000D02*
D03*
Y-95071D02*
D03*
X246750Y-101286D02*
D03*
Y-91214D02*
D03*
Y-113714D02*
D03*
Y-123786D02*
D03*
D51*
X-266270Y-331000D02*
D03*
X-249730D02*
D03*
X-166000Y-422000D02*
D03*
X-182540D02*
D03*
D52*
X-128000Y-346730D02*
D03*
Y-361270D02*
D03*
X310500Y-422270D02*
D03*
Y-407730D02*
D03*
Y-440480D02*
D03*
Y-455020D02*
D03*
D53*
X-109000Y-364270D02*
D03*
Y-347730D02*
D03*
D54*
X-85000Y-380500D02*
D03*
Y-347500D02*
D03*
D55*
X-128000Y-391770D02*
D03*
Y-378230D02*
D03*
D59*
X96500Y-137000D02*
D03*
X27500D02*
D03*
D66*
X333750Y-425236D02*
D03*
Y-452764D02*
D03*
D67*
X140000Y-133995D02*
D03*
X149500Y-156005D02*
D03*
D68*
X130500D02*
D03*
D69*
X270000Y-80000D02*
G03*
X260000Y-70000I-10000J0D01*
G01*
X270000Y-165000D02*
G03*
X280000Y-175000I10000J0D01*
G01*
X360000Y-185000D02*
G03*
X350000Y-175000I-10000J0D01*
G01*
X80000Y-472000D02*
G03*
X60000Y-492000I0J-20000D01*
G01*
X350000Y-472000D02*
G03*
X360000Y-462000I0J10000D01*
G01*
X50000Y-550000D02*
G03*
X60000Y-540000I0J10000D01*
G01*
X-360000D02*
G03*
X-350000Y-550000I10000J0D01*
G01*
Y-70000D02*
G03*
X-360000Y-80000I0J-10000D01*
G01*
X-66270Y-447000D02*
Y-429000D01*
X-16250Y-410000D02*
Y-390250D01*
X-17000Y-389500D02*
X-16250Y-390250D01*
X-23270Y-417020D02*
X-16250Y-410000D01*
X-23270Y-429000D02*
Y-417020D01*
Y-429000D02*
X-16270Y-436000D01*
X-66270Y-501000D02*
Y-483000D01*
Y-465000D02*
Y-447000D01*
Y-474000D02*
Y-465000D01*
Y-483000D02*
Y-474000D01*
X-66270Y-474000D02*
X-66270Y-474000D01*
X-95000Y-474000D02*
X-66270D01*
X-127230Y-347500D02*
X-85000D01*
X-84500Y-348000D02*
X-53750D01*
X-85000Y-347500D02*
X-84500Y-348000D01*
X-53750D02*
X-52000Y-349750D01*
X-350000Y-70000D02*
X260000D01*
X99500Y-125500D02*
Y-111250D01*
X105500D01*
Y-105250D02*
Y-99250D01*
Y-111250D02*
Y-105250D01*
X99500Y-99250D02*
X105500D01*
X99500Y-111250D02*
Y-105250D01*
Y-99250D01*
Y-125500D02*
X103500Y-129500D01*
X104000D01*
Y-112750D01*
X96500Y-137000D02*
X104000Y-129500D01*
Y-112750D02*
X105500Y-111250D01*
X22800Y-204050D02*
Y-178950D01*
Y-204050D02*
X23100Y-204350D01*
X32410D01*
X22900Y-191650D02*
X32410D01*
X22800Y-178950D02*
X32410D01*
X-128000Y-346730D02*
X-127230Y-347500D01*
X-166000Y-444500D02*
Y-422000D01*
X-169500Y-448000D02*
X-166000Y-444500D01*
X270000Y-165000D02*
Y-80000D01*
X280000Y-175000D02*
X350000D01*
X360000Y-462000D02*
Y-185000D01*
X302250Y-472000D02*
X350000D01*
X60000Y-540000D02*
Y-492000D01*
X-350000Y-550000D02*
X50000D01*
X-360000Y-540000D02*
Y-80000D01*
D83*
X-190000Y-368000D02*
D03*
D100*
X-52000Y-389750D02*
D03*
Y-349750D02*
D03*
X-17000Y-389500D02*
D03*
Y-349500D02*
D03*
D101*
X-234750Y-290250D02*
D03*
X-234750Y-274250D02*
D03*
X47000Y-251000D02*
D03*
X47000Y-235000D02*
D03*
X-133500Y-274500D02*
D03*
X-133500Y-290500D02*
D03*
X-337000Y-273500D02*
D03*
X-337000Y-289500D02*
D03*
D102*
X23000Y-332750D02*
D03*
X32500Y-356750D02*
D03*
X13500D02*
D03*
X140000Y-83000D02*
D03*
X149500Y-107000D02*
D03*
X130500D02*
D03*
D103*
X-268700Y-422000D02*
D03*
X-257000D02*
D03*
D104*
X61500Y-269750D02*
D03*
X71000D02*
D03*
X80500Y-269750D02*
D03*
Y-242250D02*
D03*
X61500Y-242250D02*
D03*
D105*
X-75227Y-404773D02*
D03*
X-84773Y-395227D02*
D03*
D106*
X264000Y-271000D02*
D03*
X-150000Y-406000D02*
D03*
X295000Y-349000D02*
D03*
Y-335000D02*
D03*
Y-391000D02*
D03*
X199000Y-272000D02*
D03*
X295000Y-377000D02*
D03*
Y-363000D02*
D03*
X-302500Y-452500D02*
D03*
X-277500D02*
D03*
X-252500D02*
D03*
X-290000Y-465000D02*
D03*
X-265000D02*
D03*
X-240000D02*
D03*
X229000Y-85000D02*
D03*
X-306000Y-381000D02*
D03*
X-281250Y-349000D02*
D03*
X-93000Y-517000D02*
D03*
X325000Y-193000D02*
D03*
X-173000Y-475000D02*
D03*
X32000Y-235000D02*
D03*
X324000Y-375000D02*
D03*
D107*
X7000Y-292750D02*
D03*
Y-279250D02*
D03*
X21000Y-292750D02*
D03*
Y-279250D02*
D03*
X256000Y-161500D02*
D03*
Y-148000D02*
D03*
X241750Y-161500D02*
D03*
Y-148000D02*
D03*
D108*
X174500Y-195000D02*
D03*
X193500D02*
D03*
X174500Y-217000D02*
D03*
X193500D02*
D03*
D109*
X208250Y-195000D02*
D03*
X221750D02*
D03*
X208250Y-217000D02*
D03*
X221750D02*
D03*
X341250Y-406500D02*
D03*
X327750D02*
D03*
X-17750Y-205000D02*
D03*
X-4250D02*
D03*
Y-236000D02*
D03*
X-17750D02*
D03*
X-17750Y-159000D02*
D03*
X-4250D02*
D03*
Y-190000D02*
D03*
X-17750D02*
D03*
X133250Y-186000D02*
D03*
X146750D02*
D03*
X-17750Y-113000D02*
D03*
X-4250D02*
D03*
Y-144000D02*
D03*
X-17750D02*
D03*
D110*
X310000Y-306500D02*
D03*
Y-369500D02*
D03*
X348000Y-306500D02*
D03*
Y-369500D02*
D03*
X306000Y-196500D02*
D03*
Y-259500D02*
D03*
X344000Y-196500D02*
D03*
Y-259500D02*
D03*
D111*
X-265000Y-270000D02*
D03*
X-309000Y-270000D02*
D03*
X-163000Y-270000D02*
D03*
X-207000Y-270000D02*
D03*
X-61000Y-269890D02*
D03*
X-105000Y-269890D02*
D03*
D112*
X302300Y-137400D02*
D03*
Y-134400D02*
D03*
Y-129400D02*
D03*
Y-126400D02*
D03*
Y-121400D02*
D03*
Y-116400D02*
D03*
Y-111400D02*
D03*
Y-106400D02*
D03*
Y-101400D02*
D03*
Y-96400D02*
D03*
Y-91400D02*
D03*
Y-86400D02*
D03*
Y-81400D02*
D03*
Y-78400D02*
D03*
Y-73400D02*
D03*
X302300Y-70399D02*
D03*
D113*
X-63000Y-126000D02*
D03*
Y-199890D02*
D03*
X-165000Y-126000D02*
D03*
Y-200000D02*
D03*
X-267000Y-126000D02*
D03*
Y-200000D02*
D03*
D114*
X-82050Y-105190D02*
D03*
X-69350D02*
D03*
X-56650D02*
D03*
X-43950D02*
D03*
Y-164590D02*
D03*
X-56650Y-164590D02*
D03*
X-69350D02*
D03*
X-82050Y-164590D02*
D03*
Y-179080D02*
D03*
X-69350Y-179080D02*
D03*
X-56650D02*
D03*
X-43950Y-179080D02*
D03*
Y-238480D02*
D03*
X-56650Y-238480D02*
D03*
X-69350D02*
D03*
X-82050Y-238480D02*
D03*
X-184050Y-105190D02*
D03*
X-171350D02*
D03*
X-158650D02*
D03*
X-145950D02*
D03*
Y-164590D02*
D03*
X-158650D02*
D03*
X-171350D02*
D03*
X-184050D02*
D03*
Y-179190D02*
D03*
X-171350Y-179190D02*
D03*
X-158650D02*
D03*
X-145950Y-179190D02*
D03*
Y-238590D02*
D03*
X-158650Y-238590D02*
D03*
X-171350D02*
D03*
X-184050Y-238590D02*
D03*
X-286050Y-105190D02*
D03*
X-273350D02*
D03*
X-260650D02*
D03*
X-247950D02*
D03*
Y-164590D02*
D03*
X-260650D02*
D03*
X-273350D02*
D03*
X-286050D02*
D03*
Y-179190D02*
D03*
X-273350Y-179190D02*
D03*
X-260650D02*
D03*
X-247950Y-179190D02*
D03*
Y-238590D02*
D03*
X-260650Y-238590D02*
D03*
X-273350D02*
D03*
X-286050Y-238590D02*
D03*
D115*
X-145000Y-474000D02*
D03*
X-95000D02*
D03*
D116*
X-170000Y-448000D02*
D03*
X-210000D02*
D03*
D117*
X71000Y-198000D02*
D03*
D118*
X91810Y-178950D02*
D03*
Y-191650D02*
D03*
Y-204350D02*
D03*
Y-217050D02*
D03*
X32410D02*
D03*
X32410Y-204350D02*
D03*
Y-191650D02*
D03*
X32410Y-178950D02*
D03*
D119*
X206000Y-391000D02*
D03*
X220000Y-391000D02*
D03*
X192000D02*
D03*
X220000Y-377000D02*
D03*
X206000D02*
D03*
X192000D02*
D03*
X220000Y-405000D02*
D03*
X206000Y-405000D02*
D03*
X192000D02*
D03*
D120*
X278500Y-468200D02*
D03*
X278500Y-455500D02*
D03*
X278500Y-442800D02*
D03*
Y-430100D02*
D03*
Y-417400D02*
D03*
Y-404700D02*
D03*
Y-392000D02*
D03*
Y-379300D02*
D03*
Y-366600D02*
D03*
Y-353900D02*
D03*
Y-341200D02*
D03*
Y-328500D02*
D03*
X278500Y-315800D02*
D03*
X278500Y-303100D02*
D03*
X103500Y-303100D02*
D03*
Y-315800D02*
D03*
Y-328500D02*
D03*
X103500Y-341200D02*
D03*
Y-353900D02*
D03*
X103500Y-366600D02*
D03*
Y-379300D02*
D03*
Y-392000D02*
D03*
X103500Y-404700D02*
D03*
X103500Y-417400D02*
D03*
X103500Y-430100D02*
D03*
Y-442800D02*
D03*
Y-455500D02*
D03*
Y-468200D02*
D03*
D121*
X260850Y-290600D02*
D03*
X248150D02*
D03*
X235450D02*
D03*
X222750Y-290600D02*
D03*
X210050Y-290600D02*
D03*
X197350D02*
D03*
X184650D02*
D03*
X171950D02*
D03*
X159250D02*
D03*
X146550D02*
D03*
X133850D02*
D03*
X121150D02*
D03*
D122*
X-138411Y-364840D02*
X-138250Y-364679D01*
Y-351950D01*
X173500Y-216000D02*
X174500Y-217000D01*
X166250Y-216000D02*
X173500D01*
X-136000Y-424250D02*
X-126164D01*
X-17000Y-349500D02*
X-16644Y-349144D01*
Y-331144D01*
X-16270Y-436000D02*
X-16000Y-436270D01*
Y-444000D02*
Y-436270D01*
X-13635Y-456102D02*
Y-446365D01*
X-16000Y-444000D02*
X-13635Y-446365D01*
Y-456102D02*
X-13000Y-456738D01*
X-66270Y-511270D02*
Y-501000D01*
X-72957Y-517957D02*
X-66270Y-511270D01*
X-92043Y-517957D02*
X-72957D01*
X-93000Y-517000D02*
X-92043Y-517957D01*
X131000Y-118500D02*
X131500Y-119000D01*
X131000Y-118500D02*
Y-107500D01*
X130500Y-107000D02*
X131000Y-107500D01*
X-464Y-129000D02*
X5000D01*
X-464Y-221000D02*
X4500D01*
X-964Y-220500D02*
X-464Y-221000D01*
X166000Y-199000D02*
X172000D01*
X174500Y-196500D01*
Y-195000D01*
X48000Y-464000D02*
X52000Y-460000D01*
X39000Y-538000D02*
X48000Y-529000D01*
Y-464000D01*
X-158742Y-412750D02*
X-156492Y-415000D01*
X-153521D01*
X-147218Y-421303D01*
X-147055Y-421141D01*
X-144141D01*
X-163250Y-412750D02*
X-158742D01*
X-137792Y-424250D02*
X-136000D01*
X211318Y-85682D02*
X212000Y-85000D01*
X205682Y-85682D02*
X211318D01*
X298000Y-202000D02*
X303500D01*
X306000Y-199500D01*
Y-196500D01*
X-339500Y-518500D02*
X-290000D01*
X-347000Y-511000D02*
X-339500Y-518500D01*
X-347000Y-339929D02*
X-344071Y-337000D01*
X-347000Y-511000D02*
Y-339929D01*
X-344071Y-337000D02*
X-315000D01*
X-297000Y-319000D01*
X-258000D01*
X-253000Y-324000D01*
Y-328439D02*
X-250439Y-331000D01*
X-253000Y-328439D02*
Y-324000D01*
X-250439Y-331000D02*
X-249730D01*
X-52000Y-482730D02*
Y-465270D01*
X-51730Y-465000D01*
X-52000Y-482730D02*
X-51730Y-483000D01*
Y-465000D02*
Y-447000D01*
X-52000Y-483270D02*
X-51730Y-483000D01*
X-220450Y-518500D02*
X-200950Y-538000D01*
X39000D01*
X-240000Y-518500D02*
X-220450D01*
X333750Y-452764D02*
X334514Y-452000D01*
X346000D01*
X349000Y-449000D02*
Y-415000D01*
X346000Y-452000D02*
X349000Y-449000D01*
X-265000Y-518500D02*
X-240000D01*
X-290000D02*
X-265000D01*
X-964Y-128500D02*
X-464Y-129000D01*
X-964Y-174500D02*
X-464Y-175000D01*
X5000D01*
X-267000Y-405000D02*
X-259540D01*
X-259540Y-405000D01*
X-274000Y-386000D02*
X-267750D01*
X-266500Y-384750D01*
X-266750Y-374000D02*
X-266500Y-373750D01*
X-274000Y-374000D02*
X-266750D01*
X-274000Y-363000D02*
X-266750D01*
X-266500Y-362750D01*
X-266270Y-331000D02*
X-266270Y-331000D01*
X-275000Y-331000D02*
X-266270D01*
X-220000Y-442000D02*
X-214000Y-448000D01*
X-210000D01*
X-220000Y-442000D02*
Y-437000D01*
X-210000Y-448000D02*
Y-437000D01*
X-210000Y-448000D02*
X-210000Y-448000D01*
X-206000Y-448000D02*
X-200000Y-442000D01*
Y-438000D02*
X-200000Y-438000D01*
Y-437000D01*
X-210000Y-448000D02*
X-206000D01*
X-200000Y-442000D02*
Y-438000D01*
X-52000Y-500730D02*
X-51730Y-501000D01*
X-52000Y-500730D02*
Y-492000D01*
Y-483270D01*
X-51730Y-447000D02*
X-51730Y-447000D01*
X-52000Y-446730D02*
Y-438000D01*
Y-446730D02*
X-51730Y-447000D01*
X-52000Y-429270D02*
X-51730Y-429000D01*
X-52000Y-438000D02*
Y-429270D01*
X-127086Y-407000D02*
X-127000D01*
X-133859Y-410859D02*
X-130945D01*
X-127086Y-407000D01*
X-115000Y-406000D02*
X-110141Y-410859D01*
X-109859D01*
X-109000Y-374000D02*
Y-364270D01*
X-109000Y-364270D01*
X-85000Y-380500D02*
Y-373000D01*
Y-380500D02*
X-85000Y-380500D01*
X241250Y-80750D02*
X256250D01*
X229957Y-84043D02*
X237957D01*
X229000Y-85000D02*
X229957Y-84043D01*
X237957D02*
X241250Y-80750D01*
X212000Y-85000D02*
X229000D01*
X341250Y-407250D02*
X349000Y-415000D01*
X341250Y-407250D02*
Y-406500D01*
X310500Y-454824D02*
X312561Y-452764D01*
X310500Y-455020D02*
Y-454824D01*
X312561Y-452764D02*
X333750D01*
X278740Y-455260D02*
X310260D01*
X278500Y-455500D02*
X278740Y-455260D01*
X310260D02*
X310500Y-455020D01*
X-56650Y-179080D02*
Y-164590D01*
X-69350Y-179080D02*
Y-164590D01*
X-82050Y-179080D02*
Y-164590D01*
X-158650Y-179190D02*
Y-164590D01*
X-171350Y-179190D02*
Y-164590D01*
X-184050Y-179190D02*
Y-164590D01*
X-260650Y-179190D02*
Y-164590D01*
X-273350Y-179190D02*
Y-164590D01*
X-286050Y-179190D02*
Y-164590D01*
X-138250Y-351950D02*
X-135321Y-349021D01*
X-130061D01*
X-128000Y-346960D02*
Y-346730D01*
X-130061Y-349021D02*
X-128000Y-346960D01*
X-123055Y-421141D02*
X-120141D01*
X-126164Y-424250D02*
X-123055Y-421141D01*
X-143978Y-420978D02*
X-141064D01*
X-137792Y-424250D01*
X-144141Y-421141D02*
X-143978Y-420978D01*
X-169291Y-419439D02*
Y-416179D01*
X-177500Y-410250D02*
X-174500Y-413250D01*
X-172220D01*
X-169291Y-416179D01*
Y-419439D02*
X-166730Y-422000D01*
X-166000D01*
D123*
X-64479Y-423479D02*
X-58020Y-417020D01*
X-23270D01*
X-64479Y-427439D02*
Y-423479D01*
X-66040Y-429000D02*
X-64479Y-427439D01*
X-66270Y-429000D02*
X-66040D01*
X-82000Y-426500D02*
X-57500Y-402000D01*
Y-395250D02*
X-52000Y-389750D01*
X-57500Y-402000D02*
Y-395250D01*
X-112750Y-434735D02*
X-109235Y-438250D01*
X-120141Y-421141D02*
X-112750Y-428531D01*
X-85515Y-438250D02*
X-82000Y-434735D01*
X-112750D02*
Y-428531D01*
X-82000Y-434735D02*
Y-426500D01*
X-109235Y-438250D02*
X-85515D01*
X-34250Y-368250D02*
X-17000Y-385500D01*
Y-389500D02*
Y-385500D01*
X-34250Y-368250D02*
Y-333000D01*
X-25250Y-324000D01*
X1000D01*
X2000D01*
X11000Y-315000D01*
Y-303000D01*
X-111364Y-387636D02*
Y-376364D01*
Y-387636D02*
X-111010Y-387990D01*
X-111364Y-376364D02*
X-109000Y-374000D01*
X36270Y-436000D02*
X37000Y-436730D01*
X10000Y-469000D02*
Y-456738D01*
Y-436000D02*
X21730D01*
X-1730D02*
X10000D01*
Y-456738D02*
Y-436000D01*
X36000Y-445000D02*
Y-436270D01*
X36270Y-436000D01*
X33000Y-456738D02*
X34161Y-455577D01*
Y-446839D01*
X36000Y-445000D01*
X49000Y-457000D02*
X52000Y-460000D01*
X43561Y-437561D02*
X49000Y-443000D01*
Y-457000D02*
Y-443000D01*
X37831Y-437561D02*
X43561D01*
D124*
X149500Y-107000D02*
Y-99000D01*
X149000Y-119000D02*
Y-107500D01*
X117000Y-146500D02*
Y-141625D01*
Y-213250D02*
Y-208500D01*
X149500Y-99000D02*
Y-94000D01*
X149500Y-99000D02*
X149500Y-99000D01*
X148500Y-119000D02*
X149000D01*
Y-107500D02*
X149500Y-107000D01*
X117000Y-208500D02*
Y-146500D01*
X152500Y-83000D02*
X157250D01*
X140000D02*
X152500D01*
D125*
X287399Y-312873D02*
X288545Y-311727D01*
X281427Y-312873D02*
X287399D01*
X290718Y-311727D02*
X296895Y-305550D01*
Y-281869D01*
X288545Y-311727D02*
X290718D01*
X287302Y-306339D02*
X291750Y-301891D01*
Y-284000D01*
X281427Y-306028D02*
X286990D01*
X287302Y-306339D01*
X278500Y-303100D02*
X281427Y-306028D01*
X221355Y-169355D02*
Y-118869D01*
X226500Y-167224D02*
X254305Y-195029D01*
X254305D01*
X252174Y-200174D02*
X252174D01*
X221355Y-169355D02*
X252174Y-200174D01*
X226500Y-167224D02*
Y-121000D01*
X254305Y-195029D02*
X281000Y-221724D01*
X252174Y-200174D02*
X275855Y-223855D01*
X281000Y-265974D02*
Y-221724D01*
X302300Y-111400D02*
X315100D01*
X316250Y-110250D01*
Y-103242D01*
X302300Y-101400D02*
X314408D01*
X316250Y-103242D01*
X237250Y-110250D02*
X256750D01*
X284000D02*
X285150Y-111400D01*
X280500Y-110250D02*
X284000D01*
X285150Y-111400D02*
X302300D01*
X287500Y-99000D02*
X290100Y-96400D01*
X302300D01*
X287500Y-104000D02*
Y-99000D01*
X289900Y-106400D02*
X302300D01*
X287500Y-104000D02*
X289900Y-106400D01*
X280500Y-104000D02*
X287500D01*
X236224D02*
X256750D01*
X221355Y-118869D02*
X236224Y-104000D01*
X226500Y-121000D02*
X237250Y-110250D01*
X275855Y-268105D02*
Y-223855D01*
X281000Y-265974D02*
X296895Y-281869D01*
X275855Y-268105D02*
X291750Y-284000D01*
X278500Y-315800D02*
X281427Y-312873D01*
D126*
X-146000Y-475000D02*
X-145000Y-474000D01*
X-169500Y-448000D02*
X-166000D01*
X-170000D02*
X-169500D01*
X-166000D02*
X-152500Y-461500D01*
Y-471500D02*
X-150000Y-474000D01*
X-152500Y-471500D02*
Y-461500D01*
X-150000Y-474000D02*
X-145000D01*
D127*
X96500Y-141000D02*
Y-137000D01*
X71000Y-198000D02*
X71810Y-197190D01*
Y-165690D01*
X96500Y-141000D01*
D128*
X285750Y0D02*
D03*
X247650D02*
D03*
X209550D02*
D03*
X171450D02*
D03*
X133350D02*
D03*
X95250D02*
D03*
X57150D02*
D03*
X19050D02*
D03*
X-19050D02*
D03*
X-57150D02*
D03*
X-95250D02*
D03*
X-133350D02*
D03*
X-171450D02*
D03*
X-209550D02*
D03*
X-247650D02*
D03*
X-285750D02*
D03*
D129*
X121800Y-245000D02*
D03*
X147200Y-241000D02*
D03*
X172600Y-245000D02*
D03*
X198000Y-241000D02*
D03*
X223400Y-245000D02*
D03*
X248800Y-241000D02*
D03*
X-333000Y-324600D02*
D03*
Y-350000D02*
D03*
Y-375400D02*
D03*
Y-400800D02*
D03*
Y-426200D02*
D03*
Y-451600D02*
D03*
Y-477000D02*
D03*
Y-502400D02*
D03*
D130*
X-395000Y-255000D02*
D03*
X395000D02*
D03*
D131*
X354300Y-60900D02*
D03*
X354300Y-146900D02*
D03*
D132*
X310000Y-60900D02*
D03*
Y-146900D02*
D03*
D133*
X206000Y-398000D02*
D03*
X220000Y-398000D02*
D03*
X192000D02*
D03*
X220000Y-384000D02*
D03*
X206000Y-384000D02*
D03*
X192000D02*
D03*
X213000Y-405000D02*
D03*
X199000Y-405000D02*
D03*
X213000Y-391000D02*
D03*
X199000D02*
D03*
X213000Y-377000D02*
D03*
X199000Y-377000D02*
D03*
X-240484Y-385766D02*
D03*
X-237250Y-340500D02*
D03*
X31000Y-522250D02*
D03*
X-147250Y-365500D02*
D03*
X-144500Y-359362D02*
D03*
X-144750Y-353367D02*
D03*
X-303250Y-474500D02*
D03*
X-302750Y-463750D02*
D03*
X144000Y-203750D02*
D03*
X166250Y-216000D02*
D03*
X190750Y-90750D02*
D03*
X-194000Y-373000D02*
D03*
X-190000Y-368000D02*
D03*
X-186000Y-363000D02*
D03*
Y-373000D02*
D03*
X-194000Y-363000D02*
D03*
X-103750Y-420500D02*
D03*
X-16644Y-331144D02*
D03*
X117000Y-213250D02*
D03*
X149500Y-99125D02*
D03*
X117000Y-141625D02*
D03*
X149500Y-94000D02*
D03*
X117000Y-146500D02*
D03*
Y-208500D02*
D03*
X51750Y-268500D02*
D03*
X11000Y-303000D02*
D03*
X-227250Y-303500D02*
D03*
X157250Y-83000D02*
D03*
X152500D02*
D03*
X147750Y-356500D02*
D03*
X62750Y-377000D02*
D03*
X5000Y-129000D02*
D03*
X185035Y-84818D02*
D03*
X210250Y-151500D02*
D03*
X184750D02*
D03*
X149500Y-166250D02*
D03*
X50000Y-150000D02*
D03*
X77250Y-295750D02*
D03*
X42000Y-311000D02*
D03*
X22250Y-265000D02*
D03*
X4500Y-221000D02*
D03*
X2750Y-246000D02*
D03*
Y-205000D02*
D03*
Y-159000D02*
D03*
Y-113000D02*
D03*
X42000Y-355250D02*
D03*
X42500Y-339250D02*
D03*
X121000Y-310000D02*
D03*
X127000Y-304000D02*
D03*
X166000Y-199000D02*
D03*
X-279000Y-422000D02*
D03*
X229000Y-217000D02*
D03*
X355000Y21000D02*
D03*
X-64000Y-332000D02*
D03*
X84000Y-368000D02*
D03*
X-27000Y-149000D02*
D03*
X350000Y-350000D02*
D03*
X300000Y-50000D02*
D03*
X250000D02*
D03*
X275000Y-200000D02*
D03*
X250000Y-350000D02*
D03*
Y-450000D02*
D03*
X225000Y-100000D02*
D03*
X200000Y-350000D02*
D03*
Y-450000D02*
D03*
X150000Y-50000D02*
D03*
X175000Y-400000D02*
D03*
X150000Y-450000D02*
D03*
X100000Y-50000D02*
D03*
X125000Y-400000D02*
D03*
X75000Y0D02*
D03*
X50000Y-50000D02*
D03*
X75000Y-100000D02*
D03*
X50000Y-550000D02*
D03*
X0Y-50000D02*
D03*
Y-550000D02*
D03*
X-50000Y-50000D02*
D03*
Y-550000D02*
D03*
X-75000Y0D02*
D03*
X-100000Y-50000D02*
D03*
Y-550000D02*
D03*
X-125000Y-500000D02*
D03*
X-175000D02*
D03*
X-200000Y-550000D02*
D03*
X-250000Y-50000D02*
D03*
X-225000Y-500000D02*
D03*
X-250000Y-550000D02*
D03*
X-275000Y-400000D02*
D03*
Y-500000D02*
D03*
X-300000Y-550000D02*
D03*
X-350000Y-50000D02*
D03*
Y-150000D02*
D03*
Y-250000D02*
D03*
Y-550000D02*
D03*
X14000Y-279000D02*
D03*
X339000Y-284000D02*
D03*
X242000Y-329000D02*
D03*
X62000Y-384000D02*
D03*
X-15000Y-261000D02*
D03*
X-116000Y-119000D02*
D03*
X292750Y-144500D02*
D03*
X289750Y-70000D02*
D03*
X-239125Y-361625D02*
D03*
X205682Y-85682D02*
D03*
X212000Y-101000D02*
D03*
X260000Y-462000D02*
D03*
X121000D02*
D03*
X256000Y-168000D02*
D03*
X242000D02*
D03*
X-7000Y-247000D02*
D03*
X-9000Y-180750D02*
D03*
X-19500Y-129000D02*
D03*
X210000Y-120000D02*
D03*
X199000Y-165000D02*
D03*
X174000D02*
D03*
X172000Y-120000D02*
D03*
X-201000Y-508000D02*
D03*
X67000Y-447000D02*
D03*
X62000Y-452000D02*
D03*
X-201000Y-515000D02*
D03*
X211000Y-166000D02*
D03*
X186000D02*
D03*
X298000Y-202000D02*
D03*
X60000Y-436000D02*
D03*
Y-430000D02*
D03*
X325000Y-193000D02*
D03*
X57000Y-442000D02*
D03*
X-52000Y-476000D02*
D03*
X-309000Y-468000D02*
D03*
X34000Y-529000D02*
D03*
X52000Y-460000D02*
D03*
X346000Y-452000D02*
D03*
X5000Y-175000D02*
D03*
X268000Y-430000D02*
D03*
Y-417000D02*
D03*
Y-405000D02*
D03*
X-267000D02*
D03*
X-274000Y-386000D02*
D03*
Y-374000D02*
D03*
Y-363000D02*
D03*
X-275000Y-331000D02*
D03*
X-220000Y-437000D02*
D03*
X-210000D02*
D03*
X-200000D02*
D03*
X-52000Y-492000D02*
D03*
Y-438000D02*
D03*
X-127000Y-407000D02*
D03*
X-115000Y-406000D02*
D03*
X-109000Y-374000D02*
D03*
X-85000Y-373000D02*
D03*
X-306000Y-381000D02*
D03*
X198000Y-313000D02*
D03*
X185000D02*
D03*
X172000D02*
D03*
X-252500Y-452500D02*
D03*
X-277500D02*
D03*
X-302500D02*
D03*
X282000Y-78250D02*
D03*
X287000Y-119250D02*
D03*
X241750Y-140750D02*
D03*
X256000D02*
D03*
X287000Y-86500D02*
D03*
X256250Y-80750D02*
D03*
X280605Y-121395D02*
D03*
Y-93645D02*
D03*
X257000Y-93750D02*
D03*
Y-121500D02*
D03*
X280500Y-110250D02*
D03*
Y-104000D02*
D03*
X256750D02*
D03*
Y-110250D02*
D03*
X344500Y-382000D02*
D03*
X333750Y-434750D02*
D03*
X310750Y-431750D02*
D03*
X-248250Y-230750D02*
D03*
X-146000Y-157000D02*
D03*
X-128500Y-331250D02*
D03*
Y-323500D02*
D03*
X-191500Y-311750D02*
D03*
X-162500Y-318250D02*
D03*
X-153750Y-302500D02*
D03*
X-164500Y-302750D02*
D03*
X-177500Y-317000D02*
D03*
X-182500Y-322750D02*
D03*
X-198000Y-317000D02*
D03*
X-236750Y-332500D02*
D03*
X-230000Y-331250D02*
D03*
X-25000Y-205000D02*
D03*
Y-159000D02*
D03*
Y-113000D02*
D03*
X23000Y-198000D02*
D03*
Y-185000D02*
D03*
X-146000Y-231000D02*
D03*
X-44000D02*
D03*
Y-157000D02*
D03*
X-248000D02*
D03*
X23100Y-204350D02*
D03*
X22900Y-191650D02*
D03*
X22800Y-178950D02*
D03*
X-234250Y-380500D02*
D03*
D134*
X-66000Y-437000D02*
D03*
X1000Y-324000D02*
D03*
X-1250Y-338500D02*
D03*
X55000Y-405000D02*
D03*
X6000Y-393000D02*
D03*
X10000Y-469000D02*
D03*
X22000Y-519000D02*
D03*
X10000D02*
D03*
X-2000D02*
D03*
Y-511000D02*
D03*
X10000D02*
D03*
X22000D02*
D03*
X-289000Y-97000D02*
D03*
X-283000Y-91000D02*
D03*
X-289000Y-85000D02*
D03*
X-277000D02*
D03*
X-289000Y-91000D02*
D03*
X-277000D02*
D03*
X-289000Y-103000D02*
D03*
X-301000Y-97000D02*
D03*
X-295000Y-91000D02*
D03*
X-283000Y-97000D02*
D03*
X-295000Y-103000D02*
D03*
X-271000Y-85000D02*
D03*
X-295000Y-97000D02*
D03*
Y-109000D02*
D03*
X-283000Y-85000D02*
D03*
X-75000Y-84000D02*
D03*
X-69000D02*
D03*
X-57000D02*
D03*
X-63000D02*
D03*
Y-90000D02*
D03*
X-57000D02*
D03*
X-69000D02*
D03*
X-57000Y-102000D02*
D03*
X-63000Y-96000D02*
D03*
X-57000D02*
D03*
X-51000D02*
D03*
X-45000D02*
D03*
X-39000D02*
D03*
Y-102000D02*
D03*
X-45000D02*
D03*
X-51000D02*
D03*
Y-90000D02*
D03*
X-45000D02*
D03*
X-51000Y-84000D02*
D03*
Y-108000D02*
D03*
X-45000D02*
D03*
X-39000D02*
D03*
Y-114000D02*
D03*
X-45000D02*
D03*
Y-126000D02*
D03*
Y-120000D02*
D03*
X-147000Y-91000D02*
D03*
X-141000D02*
D03*
X-135000Y-97000D02*
D03*
X-141000D02*
D03*
X-147000D02*
D03*
Y-85000D02*
D03*
Y-103000D02*
D03*
X-141000D02*
D03*
Y-109000D02*
D03*
X-147000D02*
D03*
Y-121000D02*
D03*
X-141000D02*
D03*
Y-115000D02*
D03*
X-147000D02*
D03*
X-208000Y-104000D02*
D03*
X-214000D02*
D03*
X-208000Y-98000D02*
D03*
X-202000D02*
D03*
X-196000D02*
D03*
X-190000D02*
D03*
X-202000Y-92000D02*
D03*
X-196000D02*
D03*
X-190000D02*
D03*
Y-86000D02*
D03*
X-196000D02*
D03*
X-214000Y-116000D02*
D03*
Y-110000D02*
D03*
X-220000D02*
D03*
X-81000Y-70000D02*
D03*
X-348000Y-87000D02*
D03*
X-342000Y-93000D02*
D03*
X-348000D02*
D03*
X-342000Y-81000D02*
D03*
X-348000D02*
D03*
X-342000Y-87000D02*
D03*
X-310250Y-234250D02*
D03*
Y-240000D02*
D03*
X-100000Y-350500D02*
D03*
Y-345000D02*
D03*
X-150000Y-550000D02*
D03*
X38000D02*
D03*
X59000Y-528000D02*
D03*
X-360000Y-421000D02*
D03*
Y-183000D02*
D03*
Y-292000D02*
D03*
X360000Y-317000D02*
D03*
X270000Y-159000D02*
D03*
X291000Y-175000D02*
D03*
X244000Y-70000D02*
D03*
X84000D02*
D03*
X-258000D02*
D03*
X-360000Y-90000D02*
D03*
Y-527000D02*
D03*
X-335000Y-550000D02*
D03*
X338000Y-175000D02*
D03*
X360000Y-199000D02*
D03*
Y-448000D02*
D03*
X333000Y-472000D02*
D03*
X63000Y-481000D02*
D03*
X105500Y-111250D02*
D03*
Y-105250D02*
D03*
X99500Y-111250D02*
D03*
Y-105250D02*
D03*
Y-99250D02*
D03*
X105500D02*
D03*
X30500Y-98750D02*
D03*
Y-104750D02*
D03*
X36500Y-98750D02*
D03*
Y-104750D02*
D03*
Y-110750D02*
D03*
X30500D02*
D03*
X-121000Y-152000D02*
D03*
X-117000Y-292890D02*
D03*
X-111000D02*
D03*
X-105000D02*
D03*
X-99000D02*
D03*
X-93000D02*
D03*
Y-298890D02*
D03*
X-99000D02*
D03*
X-105000D02*
D03*
X-111000D02*
D03*
X-117000D02*
D03*
X-219000Y-293000D02*
D03*
X-213000D02*
D03*
X-207000D02*
D03*
X-201000D02*
D03*
X-195000D02*
D03*
Y-299000D02*
D03*
X-201000D02*
D03*
X-207000D02*
D03*
X-213000D02*
D03*
X-219000D02*
D03*
X-321000D02*
D03*
X-315000D02*
D03*
X-309000D02*
D03*
X-303000D02*
D03*
X-297000D02*
D03*
Y-293000D02*
D03*
X-303000D02*
D03*
X-309000D02*
D03*
X-315000D02*
D03*
X-321000D02*
D03*
X-63000Y-200000D02*
D03*
X-57000D02*
D03*
X-69000D02*
D03*
X-75000D02*
D03*
X-51000D02*
D03*
X-75000Y-206000D02*
D03*
X-69000D02*
D03*
X-63000D02*
D03*
X-57000D02*
D03*
X-51000D02*
D03*
X-45000Y-200000D02*
D03*
Y-206000D02*
D03*
X-81000Y-200000D02*
D03*
Y-206000D02*
D03*
Y-194000D02*
D03*
Y-188000D02*
D03*
X-45000Y-194000D02*
D03*
Y-188000D02*
D03*
X-51000Y-194000D02*
D03*
X-57000D02*
D03*
X-63000D02*
D03*
X-69000D02*
D03*
X-75000D02*
D03*
X-51000Y-188000D02*
D03*
X-75000D02*
D03*
X-69000D02*
D03*
X-57000D02*
D03*
X-63000D02*
D03*
X-81000Y-212000D02*
D03*
X-45000D02*
D03*
X-51000D02*
D03*
X-75000D02*
D03*
X-69000D02*
D03*
X-57000D02*
D03*
X-63000D02*
D03*
X-165000Y-200000D02*
D03*
X-159000D02*
D03*
X-171000D02*
D03*
X-177000D02*
D03*
X-153000D02*
D03*
X-177000Y-206000D02*
D03*
X-171000D02*
D03*
X-165000D02*
D03*
X-159000D02*
D03*
X-153000D02*
D03*
X-147000Y-200000D02*
D03*
Y-206000D02*
D03*
X-183000Y-200000D02*
D03*
Y-206000D02*
D03*
Y-194000D02*
D03*
Y-188000D02*
D03*
X-147000Y-194000D02*
D03*
Y-188000D02*
D03*
X-153000Y-194000D02*
D03*
X-159000D02*
D03*
X-165000D02*
D03*
X-171000D02*
D03*
X-177000D02*
D03*
X-153000Y-188000D02*
D03*
X-177000D02*
D03*
X-171000D02*
D03*
X-159000D02*
D03*
X-165000D02*
D03*
X-183000Y-212000D02*
D03*
X-147000D02*
D03*
X-153000D02*
D03*
X-177000D02*
D03*
X-171000D02*
D03*
X-159000D02*
D03*
X-165000D02*
D03*
X-267000D02*
D03*
X-261000D02*
D03*
X-273000D02*
D03*
X-279000D02*
D03*
X-255000D02*
D03*
X-249000D02*
D03*
X-285000D02*
D03*
X-267000Y-188000D02*
D03*
X-261000D02*
D03*
X-273000D02*
D03*
X-279000D02*
D03*
X-255000D02*
D03*
X-279000Y-194000D02*
D03*
X-273000D02*
D03*
X-267000D02*
D03*
X-261000D02*
D03*
X-255000D02*
D03*
X-249000Y-188000D02*
D03*
Y-194000D02*
D03*
X-285000Y-188000D02*
D03*
Y-194000D02*
D03*
Y-206000D02*
D03*
Y-200000D02*
D03*
X-249000Y-206000D02*
D03*
Y-200000D02*
D03*
X-255000Y-206000D02*
D03*
X-261000D02*
D03*
X-267000D02*
D03*
X-273000D02*
D03*
X-279000D02*
D03*
X-255000Y-200000D02*
D03*
X-279000D02*
D03*
X-273000D02*
D03*
X-261000D02*
D03*
X-267000D02*
D03*
X-121000Y-134000D02*
D03*
Y-140000D02*
D03*
Y-146000D02*
D03*
Y-181000D02*
D03*
Y-175000D02*
D03*
Y-169000D02*
D03*
Y-163000D02*
D03*
Y-211000D02*
D03*
Y-205000D02*
D03*
Y-199000D02*
D03*
Y-193000D02*
D03*
Y-240000D02*
D03*
Y-234000D02*
D03*
Y-228000D02*
D03*
Y-222000D02*
D03*
X-223000Y-134000D02*
D03*
Y-140000D02*
D03*
Y-146000D02*
D03*
Y-152000D02*
D03*
Y-181000D02*
D03*
Y-175000D02*
D03*
Y-169000D02*
D03*
Y-163000D02*
D03*
Y-211000D02*
D03*
Y-205000D02*
D03*
Y-199000D02*
D03*
Y-193000D02*
D03*
Y-240000D02*
D03*
Y-234000D02*
D03*
Y-228000D02*
D03*
Y-222000D02*
D03*
X-325000D02*
D03*
Y-228000D02*
D03*
Y-234000D02*
D03*
Y-240000D02*
D03*
Y-193000D02*
D03*
Y-199000D02*
D03*
Y-205000D02*
D03*
Y-211000D02*
D03*
Y-163000D02*
D03*
Y-169000D02*
D03*
Y-175000D02*
D03*
Y-181000D02*
D03*
Y-152000D02*
D03*
Y-146000D02*
D03*
Y-140000D02*
D03*
Y-134000D02*
D03*
M02*
