G04*
G04 #@! TF.GenerationSoftware,Altium Limited,Altium Designer,24.0.1 (36)*
G04*
G04 Layer_Color=16711935*
%FSLAX44Y44*%
%MOMM*%
G71*
G04*
G04 #@! TF.SameCoordinates,124752F4-CBEC-4B7B-B6B5-C58268B34DF0*
G04*
G04*
G04 #@! TF.FilePolarity,Negative*
G04*
G01*
G75*
%ADD65C,1.2032*%
%ADD86C,0.2032*%
%ADD87C,2.4032*%
%ADD88C,1.7032*%
%ADD89C,5.7032*%
%ADD90O,2.2000X1.4000*%
%ADD91O,2.0000X1.2000*%
%ADD92C,0.1000*%
%ADD128R,1.2032X1.2032*%
D65*
X-239125Y-361625D02*
D03*
X126000Y-55000D02*
D03*
X66750D02*
D03*
X-44000Y-231000D02*
D03*
X-146000D02*
D03*
X-143250Y-156750D02*
D03*
X-41750D02*
D03*
X-248100Y-230900D02*
D03*
X-245750Y-156750D02*
D03*
X-210000Y-55000D02*
D03*
X-171000D02*
D03*
X-133000D02*
D03*
D86*
X329750Y0D02*
D03*
X-329750D02*
D03*
D87*
X285750D02*
D03*
X247650D02*
D03*
X209550D02*
D03*
X171450D02*
D03*
X133350D02*
D03*
X95250D02*
D03*
X57150D02*
D03*
X19050D02*
D03*
X-19050D02*
D03*
X-57150D02*
D03*
X-95250D02*
D03*
X-133350D02*
D03*
X-171450D02*
D03*
X-209550D02*
D03*
X-247650D02*
D03*
X-285750D02*
D03*
D88*
X121800Y-245000D02*
D03*
X147200Y-241000D02*
D03*
X172600Y-245000D02*
D03*
X198000Y-241000D02*
D03*
X223400Y-245000D02*
D03*
X248800Y-241000D02*
D03*
X-333000Y-324600D02*
D03*
Y-350000D02*
D03*
Y-375400D02*
D03*
Y-400800D02*
D03*
Y-426200D02*
D03*
Y-451600D02*
D03*
Y-477000D02*
D03*
Y-502400D02*
D03*
D89*
X-395000Y-255000D02*
D03*
X395000D02*
D03*
D90*
X354300Y-60900D02*
D03*
X354300Y-146900D02*
D03*
D91*
X310000Y-60900D02*
D03*
Y-146900D02*
D03*
D92*
X315000Y-132800D02*
D03*
Y-75000D02*
D03*
D128*
X-22000Y-173000D02*
D03*
Y-184700D02*
D03*
Y-223400D02*
D03*
Y-235100D02*
D03*
X-31000Y-124400D02*
D03*
Y-136100D02*
D03*
X199000Y-146000D02*
D03*
Y-134300D02*
D03*
X172000Y-135000D02*
D03*
Y-146700D02*
D03*
M02*
