G04*
G04 #@! TF.GenerationSoftware,Altium Limited,Altium Designer,24.0.1 (36)*
G04*
G04 Layer_Physical_Order=1*
G04 Layer_Color=255*
%FSLAX44Y44*%
%MOMM*%
G71*
G04*
G04 #@! TF.SameCoordinates,124752F4-CBEC-4B7B-B6B5-C58268B34DF0*
G04*
G04*
G04 #@! TF.FilePolarity,Positive*
G04*
G01*
G75*
%ADD10C,0.2000*%
%ADD13C,0.3000*%
%ADD20R,0.8000X0.9000*%
%ADD22R,1.0581X0.9121*%
%ADD23R,1.1000X2.0500*%
%ADD24R,0.6654X0.6725*%
%ADD28R,1.2602X1.7382*%
%ADD29R,0.9581X0.9121*%
%ADD30R,0.9000X0.8000*%
G04:AMPARAMS|DCode=32|XSize=1.8596mm|YSize=3.1721mm|CornerRadius=0.437mm|HoleSize=0mm|Usage=FLASHONLY|Rotation=0.000|XOffset=0mm|YOffset=0mm|HoleType=Round|Shape=RoundedRectangle|*
%AMROUNDEDRECTD32*
21,1,1.8596,2.2981,0,0,0.0*
21,1,0.9856,3.1721,0,0,0.0*
1,1,0.8740,0.4928,-1.1490*
1,1,0.8740,-0.4928,-1.1490*
1,1,0.8740,-0.4928,1.1490*
1,1,0.8740,0.4928,1.1490*
%
%ADD32ROUNDEDRECTD32*%
G04:AMPARAMS|DCode=33|XSize=1.8596mm|YSize=0.8721mm|CornerRadius=0.4361mm|HoleSize=0mm|Usage=FLASHONLY|Rotation=0.000|XOffset=0mm|YOffset=0mm|HoleType=Round|Shape=RoundedRectangle|*
%AMROUNDEDRECTD33*
21,1,1.8596,0.0000,0,0,0.0*
21,1,0.9875,0.8721,0,0,0.0*
1,1,0.8721,0.4938,0.0000*
1,1,0.8721,-0.4938,0.0000*
1,1,0.8721,-0.4938,0.0000*
1,1,0.8721,0.4938,0.0000*
%
%ADD33ROUNDEDRECTD33*%
%ADD34R,1.8596X0.8721*%
G04:AMPARAMS|DCode=37|XSize=0.2393mm|YSize=1.0096mm|CornerRadius=0.1196mm|HoleSize=0mm|Usage=FLASHONLY|Rotation=180.000|XOffset=0mm|YOffset=0mm|HoleType=Round|Shape=RoundedRectangle|*
%AMROUNDEDRECTD37*
21,1,0.2393,0.7704,0,0,180.0*
21,1,0.0000,1.0096,0,0,180.0*
1,1,0.2393,0.0000,0.3852*
1,1,0.2393,0.0000,0.3852*
1,1,0.2393,0.0000,-0.3852*
1,1,0.2393,0.0000,-0.3852*
%
%ADD37ROUNDEDRECTD37*%
G04:AMPARAMS|DCode=38|XSize=1.0096mm|YSize=0.2393mm|CornerRadius=0.1196mm|HoleSize=0mm|Usage=FLASHONLY|Rotation=180.000|XOffset=0mm|YOffset=0mm|HoleType=Round|Shape=RoundedRectangle|*
%AMROUNDEDRECTD38*
21,1,1.0096,0.0000,0,0,180.0*
21,1,0.7704,0.2393,0,0,180.0*
1,1,0.2393,-0.3852,0.0000*
1,1,0.2393,0.3852,0.0000*
1,1,0.2393,0.3852,0.0000*
1,1,0.2393,-0.3852,0.0000*
%
%ADD38ROUNDEDRECTD38*%
%ADD39R,1.0096X0.2393*%
G04:AMPARAMS|DCode=40|XSize=0.9581mm|YSize=0.9121mm|CornerRadius=0mm|HoleSize=0mm|Usage=FLASHONLY|Rotation=45.000|XOffset=0mm|YOffset=0mm|HoleType=Round|Shape=Rectangle|*
%AMROTATEDRECTD40*
4,1,4,-0.0163,-0.6612,-0.6612,-0.0163,0.0163,0.6612,0.6612,0.0163,-0.0163,-0.6612,0.0*
%
%ADD40ROTATEDRECTD40*%

%ADD41R,0.6725X0.6654*%
%ADD42R,1.1581X1.0121*%
%ADD43R,0.9121X0.9581*%
%ADD44R,1.0121X1.1581*%
%ADD45R,2.0500X1.1000*%
%ADD46R,0.9121X1.0581*%
%ADD51R,2.5000X3.3000*%
G04:AMPARAMS|DCode=52|XSize=0.9mm|YSize=0.8mm|CornerRadius=0mm|HoleSize=0mm|Usage=FLASHONLY|Rotation=225.000|XOffset=0mm|YOffset=0mm|HoleType=Round|Shape=Rectangle|*
%AMROTATEDRECTD52*
4,1,4,0.0354,0.6010,0.6010,0.0354,-0.0354,-0.6010,-0.6010,-0.0354,0.0354,0.6010,0.0*
%
%ADD52ROTATEDRECTD52*%

%ADD61R,1.7582X1.3055*%
G04:AMPARAMS|DCode=62|XSize=1.5052mm|YSize=0.5721mm|CornerRadius=0.2861mm|HoleSize=0mm|Usage=FLASHONLY|Rotation=90.000|XOffset=0mm|YOffset=0mm|HoleType=Round|Shape=RoundedRectangle|*
%AMROUNDEDRECTD62*
21,1,1.5052,0.0000,0,0,90.0*
21,1,0.9331,0.5721,0,0,90.0*
1,1,0.5721,0.0000,0.4666*
1,1,0.5721,0.0000,-0.4666*
1,1,0.5721,0.0000,-0.4666*
1,1,0.5721,0.0000,0.4666*
%
%ADD62ROUNDEDRECTD62*%
%ADD63R,0.5721X1.5052*%
%ADD64C,1.0000*%
%ADD73R,5.2500X5.2500*%
%ADD93C,1.0000*%
%ADD94R,0.9500X0.8000*%
G04:AMPARAMS|DCode=95|XSize=1.4mm|YSize=1mm|CornerRadius=0.075mm|HoleSize=0mm|Usage=FLASHONLY|Rotation=90.000|XOffset=0mm|YOffset=0mm|HoleType=Round|Shape=RoundedRectangle|*
%AMROUNDEDRECTD95*
21,1,1.4000,0.8500,0,0,90.0*
21,1,1.2500,1.0000,0,0,90.0*
1,1,0.1500,0.4250,0.6250*
1,1,0.1500,0.4250,-0.6250*
1,1,0.1500,-0.4250,-0.6250*
1,1,0.1500,-0.4250,0.6250*
%
%ADD95ROUNDEDRECTD95*%
%ADD96R,0.8000X0.9500*%
%ADD97R,1.0000X1.7000*%
%ADD98R,1.0000X0.8000*%
%ADD99R,3.1000X4.0000*%
%ADD100R,1.5000X0.3200*%
%ADD101R,4.2500X4.0000*%
%ADD102R,0.5000X1.0000*%
%ADD103R,1.7000X2.5000*%
%ADD104R,3.0000X2.0000*%
%ADD105R,2.5000X1.7000*%
%ADD106R,0.6500X0.9000*%
%ADD107R,4.0000X4.2500*%
%ADD108R,1.0000X0.5000*%
G04:AMPARAMS|DCode=109|XSize=0.95mm|YSize=0.8mm|CornerRadius=0mm|HoleSize=0mm|Usage=FLASHONLY|Rotation=45.000|XOffset=0mm|YOffset=0mm|HoleType=Round|Shape=Rectangle|*
%AMROTATEDRECTD109*
4,1,4,-0.0530,-0.6187,-0.6187,-0.0530,0.0530,0.6187,0.6187,0.0530,-0.0530,-0.6187,0.0*
%
%ADD109ROTATEDRECTD109*%

%ADD110R,0.9000X0.9000*%
%ADD111R,1.5000X0.9000*%
%ADD112R,0.9000X1.5000*%
%ADD113C,0.5000*%
%ADD114C,0.8000*%
%ADD115C,0.6000*%
%ADD116C,1.1000*%
%ADD117C,0.3145*%
%ADD118C,1.5000*%
%ADD119C,2.0000*%
%ADD120C,2.2000*%
%ADD121C,1.5000*%
%ADD122C,5.5000*%
%ADD123O,2.1000X1.3000*%
%ADD124O,1.9000X1.1000*%
%ADD125C,0.4000*%
%ADD126C,0.5000*%
G36*
X-341500Y-78000D02*
X-326000D01*
Y-96000D01*
X-326000Y-96000D01*
X-351000D01*
Y-78000D01*
X-341500Y-78000D01*
X-341500Y-78000D01*
D02*
G37*
G36*
X40000Y-97000D02*
Y-137000D01*
X15000D01*
Y-106000D01*
X9000Y-100000D01*
X-28000D01*
X-34000Y-106000D01*
Y-118000D01*
X-41000Y-125000D01*
X-63000D01*
X-90000Y-152000D01*
Y-243000D01*
X-109000D01*
Y-126000D01*
X-122000Y-113000D01*
Y-102000D01*
X-139000D01*
Y-123000D01*
X-141000Y-125000D01*
X-165000D01*
X-192000Y-152000D01*
X-192000Y-243000D01*
X-210000D01*
Y-128000D01*
X-224000Y-114000D01*
Y-102000D01*
X-241000D01*
Y-123000D01*
X-243000Y-125000D01*
X-267000D01*
X-294000Y-152000D01*
Y-243000D01*
X-313000D01*
Y-92000D01*
X-302000Y-81000D01*
X24000D01*
X40000Y-97000D01*
D02*
G37*
G36*
X-54000Y-246890D02*
X-51000Y-249890D01*
Y-252890D01*
X-77000D01*
X-85000Y-244890D01*
Y-232890D01*
X-54000D01*
Y-246890D01*
D02*
G37*
G36*
X-156000Y-247000D02*
X-153000Y-250000D01*
Y-253000D01*
X-179000D01*
X-187000Y-245000D01*
Y-233000D01*
X-156000D01*
Y-247000D01*
D02*
G37*
G36*
X-258000D02*
X-255000Y-250000D01*
Y-253000D01*
X-281000D01*
X-289000Y-245000D01*
Y-233000D01*
X-258000D01*
Y-247000D01*
D02*
G37*
G36*
X-117000Y-242890D02*
X-117000D01*
X-109000Y-250890D01*
Y-257890D01*
X-120000D01*
X-124000Y-253890D01*
X-135000D01*
X-137000Y-251890D01*
Y-243000D01*
X-137000D01*
Y-130000D01*
X-117000D01*
Y-242890D01*
D02*
G37*
G36*
X-219000Y-243000D02*
X-211000Y-251000D01*
Y-258000D01*
X-222000D01*
X-226000Y-254000D01*
X-237000D01*
X-239000Y-252000D01*
Y-250000D01*
Y-130000D01*
X-219000D01*
Y-243000D01*
D02*
G37*
G36*
X-321000D02*
X-313000Y-251000D01*
Y-258000D01*
X-324000D01*
X-328000Y-254000D01*
X-339000D01*
X-341000Y-252000D01*
Y-243000D01*
Y-130000D01*
X-321000D01*
Y-243000D01*
D02*
G37*
G36*
X-90000Y-301890D02*
X-120000D01*
Y-279890D01*
X-90000D01*
Y-301890D01*
D02*
G37*
G36*
X-192000Y-302000D02*
X-222000D01*
Y-280000D01*
X-192000D01*
Y-302000D01*
D02*
G37*
G36*
X-294000D02*
X-324000D01*
Y-280000D01*
X-294000D01*
Y-302000D01*
D02*
G37*
D10*
X260850Y-276315D02*
X264000Y-273165D01*
X260850Y-290600D02*
Y-276315D01*
X264000Y-273165D02*
Y-271000D01*
X248150Y-290600D02*
Y-259850D01*
X260000Y-248000D01*
Y-225000D01*
X-155652Y-402513D02*
X-152165Y-406000D01*
X-162500Y-402513D02*
X-155652D01*
X-152165Y-406000D02*
X-150000D01*
X278500Y-392000D02*
X279500Y-391000D01*
X295000D01*
X280800Y-377000D02*
X295000D01*
X278500Y-379300D02*
X280800Y-377000D01*
X289235Y-366600D02*
X292835Y-363000D01*
X278500Y-366600D02*
X289235D01*
X292835Y-363000D02*
X295000D01*
X289000Y-353900D02*
X293900Y-349000D01*
X278500Y-353900D02*
X289000D01*
X293900Y-349000D02*
X295000D01*
X288800Y-341200D02*
X295000Y-335000D01*
X278500Y-341200D02*
X288800D01*
X312000Y-326000D02*
X321000Y-317000D01*
X281000Y-326000D02*
X312000D01*
X278000Y-329000D02*
X281000Y-326000D01*
X308000Y-371500D02*
X310000Y-369500D01*
X308000Y-388250D02*
Y-371500D01*
X310500Y-407730D02*
Y-390750D01*
X308000Y-388250D02*
X310500Y-390750D01*
X317230Y-284000D02*
X317439D01*
X321000Y-287561D01*
Y-317000D02*
Y-287561D01*
X344500Y-382000D02*
Y-373000D01*
X348000Y-369500D01*
X310000Y-375000D02*
Y-369500D01*
Y-375000D02*
X310000Y-375000D01*
X324000D01*
X207000Y-272000D02*
X210050Y-275050D01*
X199000Y-272000D02*
X207000D01*
X210050Y-290600D02*
Y-275050D01*
X213000Y-260000D02*
X222750Y-269750D01*
X166000Y-260000D02*
X213000D01*
X222750Y-290600D02*
Y-269750D01*
X159000Y-253000D02*
Y-232000D01*
Y-253000D02*
X166000Y-260000D01*
X194000Y-255000D02*
X216000D01*
X235450Y-274450D01*
X186000Y-247000D02*
X194000Y-255000D01*
X186000Y-247000D02*
Y-239000D01*
X7000Y-279250D02*
X21000D01*
X330770Y-284000D02*
X339000D01*
X242000Y-329000D02*
X278000D01*
X37000Y-311000D02*
X62000Y-336000D01*
X31000Y-311000D02*
X37000D01*
X62000Y-384000D02*
Y-336000D01*
X21000Y-301000D02*
X31000Y-311000D01*
X21000Y-301000D02*
Y-292750D01*
X34500Y-297349D02*
X68000Y-330849D01*
X34500Y-297349D02*
Y-273450D01*
X68000Y-408000D02*
Y-330849D01*
X71500Y-339500D02*
X85900Y-353900D01*
X71500Y-339500D02*
Y-329399D01*
X85900Y-353900D02*
X103500D01*
X41500Y-294450D02*
X88250Y-341200D01*
X103500D01*
X38000Y-295899D02*
Y-272000D01*
Y-295899D02*
X71500Y-329399D01*
X41500Y-294450D02*
Y-270450D01*
X45000Y-293000D02*
X80500Y-328500D01*
X45000Y-293000D02*
Y-269000D01*
X80500Y-328500D02*
X103500D01*
X7000Y-292750D02*
X7000Y-292750D01*
X21000D01*
X3250Y-297750D02*
Y-295750D01*
X6250Y-292750D01*
X-7000Y-308500D02*
Y-308000D01*
X3250Y-297750D01*
X6250Y-292750D02*
X7000D01*
X-7000Y-291500D02*
Y-277500D01*
X-7500Y-261000D02*
X-7000Y-260500D01*
X-15000Y-261000D02*
X-7500D01*
X292750Y-144500D02*
X293133Y-144117D01*
Y-140668D01*
X296400Y-137400D01*
X302300D01*
X289950Y-70200D02*
X302100D01*
X302300Y-70399D01*
X289750Y-70000D02*
X289950Y-70200D01*
X-239125Y-361625D02*
X-238000Y-360500D01*
X-224512D01*
X-249500Y-362750D02*
X-240250D01*
X-239125Y-361625D01*
X-148250Y-365500D02*
X-147250D01*
X-148250Y-365500D02*
X-148250Y-365500D01*
X-155487Y-365500D02*
X-148250D01*
X212000Y-101000D02*
Y-95071D01*
X-112890Y-262000D02*
X-105000Y-269890D01*
X-134000Y-262000D02*
X-112890D01*
X265659Y-468200D02*
X278500D01*
X260000Y-462541D02*
X265659Y-468200D01*
X260000Y-462541D02*
Y-462000D01*
X114800Y-468200D02*
X121000Y-462000D01*
X103500Y-468200D02*
X114800D01*
X-200000Y-368000D02*
X-192000D01*
X-210000Y-378000D02*
X-200000Y-368000D01*
X-202000Y-388000D02*
Y-386071D01*
X-200000Y-384071D01*
Y-380000D01*
X-202000Y-378000D02*
X-200000Y-380000D01*
X-205500Y-383500D02*
Y-381500D01*
X-210000Y-388000D02*
X-205500Y-383500D01*
X-202000Y-378000D02*
X-192000Y-368000D01*
X-190000D01*
X-205500Y-381500D02*
X-202000Y-378000D01*
X-190000Y-368000D02*
X-187500Y-370500D01*
X-207500Y-350500D02*
X-190000Y-368000D01*
X-212500Y-390500D02*
X-210000Y-388000D01*
X-206000Y-384000D02*
Y-383000D01*
X-210000Y-388000D02*
X-210000D01*
X256000Y-168000D02*
Y-161500D01*
X256000Y-168000D02*
X256000Y-168000D01*
X242000Y-168000D02*
Y-161750D01*
X241750Y-161500D02*
X242000Y-161750D01*
X206000Y-391000D02*
X220000D01*
X192000D02*
X206000D01*
Y-377000D02*
X220000D01*
X206000Y-391000D02*
Y-377000D01*
Y-405000D02*
Y-391000D01*
X206000Y-405000D02*
X220000D01*
X206000D02*
X206000Y-405000D01*
X192000Y-391000D02*
Y-377000D01*
Y-405000D02*
Y-391000D01*
Y-405000D02*
X192000Y-405000D01*
X192000Y-405000D02*
X206000D01*
X192000Y-405000D02*
X192000Y-405000D01*
X220000Y-391000D02*
Y-377000D01*
Y-405000D02*
Y-391000D01*
X192000Y-377000D02*
X206000D01*
X162000Y-177000D02*
X174000Y-165000D01*
X162000Y-186000D02*
Y-177000D01*
X199000Y-165000D02*
X199000D01*
X189750Y-174250D02*
X199000Y-165000D01*
X165500Y-178500D02*
X169750Y-174250D01*
X189750D01*
X165500Y-187450D02*
Y-178500D01*
X164000Y-231500D02*
X178500D01*
X186000Y-239000D01*
X153500Y-221000D02*
X164000Y-231500D01*
X153500Y-199450D02*
X165500Y-187450D01*
X153500Y-221000D02*
Y-199450D01*
X235450Y-290600D02*
Y-274450D01*
X150000Y-198000D02*
X162000Y-186000D01*
X150000Y-223000D02*
Y-198000D01*
Y-223000D02*
X159000Y-232000D01*
X135000Y-226000D02*
X143000Y-218000D01*
X135000Y-264000D02*
Y-226000D01*
Y-264000D02*
X137000Y-266000D01*
Y-266000D02*
X145000Y-274000D01*
X137000Y-266000D02*
Y-266000D01*
X145000Y-274000D02*
X154000D01*
X159250Y-279250D01*
Y-290600D02*
Y-279250D01*
X143000Y-218000D02*
Y-197000D01*
X152750Y-187250D01*
Y-179000D01*
X130000Y-225000D02*
X137000Y-218000D01*
Y-194000D01*
X-7000Y-246500D02*
X-4250Y-243750D01*
Y-236000D01*
X-7000Y-247000D02*
Y-246500D01*
X-18000Y-236250D02*
X-17750Y-236000D01*
Y-205000D01*
X-11536Y-129000D02*
X-11036Y-128500D01*
X-19500Y-129000D02*
X-11536D01*
X-24000Y-137750D02*
X-21500Y-140250D01*
X-17750Y-113750D02*
Y-113000D01*
X-24000Y-137750D02*
Y-119250D01*
X-17750Y-144000D02*
Y-143250D01*
X-20750Y-140250D02*
X-17750Y-143250D01*
X-24000Y-119250D02*
X-21500Y-116750D01*
X-20750D01*
X-21500Y-140250D02*
X-20750D01*
Y-116750D02*
X-17750Y-113750D01*
X211000Y-152000D02*
Y-145500D01*
X210000Y-144500D02*
X211000Y-145500D01*
X210000Y-127500D02*
Y-120000D01*
X210000Y-127500D02*
X210000Y-127500D01*
X199000Y-165000D02*
Y-159036D01*
X198964Y-159000D02*
X199000Y-159036D01*
X174000Y-165000D02*
Y-159036D01*
X173964Y-159000D02*
X174000Y-159036D01*
X198964Y-159000D02*
Y-146464D01*
X197000Y-144500D02*
X198964Y-146464D01*
X172000Y-157036D02*
X173964Y-159000D01*
X172000Y-157036D02*
Y-144500D01*
X171500Y-145000D02*
X172000Y-144500D01*
X172000Y-127500D02*
Y-120000D01*
X172000Y-127500D02*
X172000Y-127500D01*
X-201000Y-508000D02*
X-179500Y-529500D01*
X25500D01*
X31000Y-524000D01*
X83200Y-442800D02*
X103500D01*
X79000Y-447000D02*
X83200Y-442800D01*
X67000Y-447000D02*
X79000D01*
X73000Y-452000D02*
X76500Y-455500D01*
X62000Y-452000D02*
X73000D01*
X-201000Y-515000D02*
X-183000Y-533000D01*
X209036Y-159000D02*
X211000Y-160964D01*
Y-166000D02*
Y-160964D01*
X186000Y-166000D02*
Y-160964D01*
X184036Y-159000D02*
X186000Y-160964D01*
Y-152000D02*
Y-145500D01*
X185000Y-144500D02*
X186000Y-145500D01*
X185000Y-89000D02*
X188000Y-86000D01*
X185000Y-127500D02*
Y-89000D01*
X197000Y-127500D02*
Y-88000D01*
X199000Y-86000D01*
X197000Y-127500D02*
X210000D01*
X172000Y-127500D02*
X185000D01*
X223000Y-215750D02*
Y-208000D01*
X221750Y-217000D02*
X223000Y-215750D01*
X25025Y-263975D02*
X34500Y-273450D01*
X10050Y-249000D02*
X25025Y-263975D01*
X21541Y-267000D02*
X24566Y-263975D01*
X21000Y-267000D02*
X21541D01*
X24566Y-263975D02*
X25025D01*
X230000Y-195000D02*
X260000Y-225000D01*
X221750Y-195000D02*
X230000D01*
X193500Y-217000D02*
X208250D01*
X193500Y-195000D02*
X208250D01*
X111000Y-225000D02*
X130000D01*
X56500Y-419500D02*
X68000Y-408000D01*
X39762Y-453237D02*
X51000Y-442000D01*
X39762Y-460000D02*
Y-453237D01*
X51000Y-442000D02*
Y-437000D01*
X54000Y-434000D01*
Y-428000D02*
X56500Y-425500D01*
X54000Y-434000D02*
Y-428000D01*
X56500Y-425500D02*
Y-419500D01*
X60000Y-436000D02*
X70000D01*
X60000Y-430000D02*
X69000D01*
X4000Y-249000D02*
X10050D01*
X2000Y-236000D02*
X38000Y-272000D01*
X9500Y-238450D02*
X41500Y-270450D01*
X13000Y-237000D02*
X45000Y-269000D01*
X-254250Y-310750D02*
X-247750Y-317250D01*
X-215772D01*
X-330500Y-310750D02*
X-254250D01*
X-246250Y-313750D02*
X-214322D01*
X-265000Y-295000D02*
Y-270000D01*
Y-295000D02*
X-246250Y-313750D01*
X-183000Y-533000D02*
X30000Y-533000D01*
X34000Y-529000D01*
X71000Y-283000D02*
Y-276730D01*
X70270Y-276000D02*
X71000Y-276730D01*
X106000Y-230000D02*
X111000Y-225000D01*
X89000Y-264000D02*
X106000Y-247000D01*
Y-230000D01*
X89000Y-301000D02*
Y-264000D01*
Y-301000D02*
X91100Y-303100D01*
X103500D01*
X325000Y-193000D02*
X340500D01*
X344000Y-196500D01*
X84300Y-404700D02*
X103500D01*
X80000Y-432000D02*
Y-409000D01*
X84300Y-404700D01*
X76500Y-397500D02*
X82000Y-392000D01*
X103500D01*
X76500Y-429500D02*
Y-397500D01*
X79700Y-379300D02*
X103500D01*
X73000Y-426000D02*
Y-386000D01*
X79700Y-379300D01*
X70000Y-436000D02*
X76500Y-429500D01*
X69000Y-430000D02*
X73000Y-426000D01*
X70000Y-442000D02*
X80000Y-432000D01*
X57000Y-442000D02*
X70000D01*
X-312000Y-474000D02*
X-303000D01*
X-319000Y-467000D02*
X-312000Y-474000D01*
X-315500Y-461500D02*
X-309000Y-468000D01*
X-312000Y-456000D02*
Y-425000D01*
Y-456000D02*
X-303000Y-465000D01*
X-281250Y-349000D02*
X-266000D01*
X-319000Y-467000D02*
Y-368000D01*
X-300000Y-349000D01*
X-281250D01*
X-315500Y-461500D02*
Y-423550D01*
X-306000Y-414050D01*
Y-381000D01*
X-312000Y-425000D02*
X-280250Y-393250D01*
X-241250D01*
X103500Y-430100D02*
X113900D01*
X123100Y-420900D02*
X128050D01*
X113900Y-430100D02*
X123100Y-420900D01*
X128000Y-321050D02*
X139500Y-332550D01*
X128000Y-321050D02*
Y-307000D01*
X139500Y-409450D02*
Y-332550D01*
X128050Y-420900D02*
X139500Y-409450D01*
X121000Y-319000D02*
Y-307000D01*
Y-319000D02*
X136000Y-334000D01*
Y-408000D02*
Y-334000D01*
X126600Y-417400D02*
X136000Y-408000D01*
X103500Y-417400D02*
X126600D01*
X76500Y-455500D02*
X103500D01*
X-290000Y-518500D02*
X-290000Y-518500D01*
X-4250Y-236000D02*
X2000D01*
X9500Y-238450D02*
Y-196000D01*
X3500Y-190000D02*
X9500Y-196000D01*
X-4250Y-190000D02*
X3500D01*
X72500Y-258250D02*
X83000Y-268750D01*
Y-309000D02*
Y-268750D01*
X72500Y-258250D02*
Y-257000D01*
X13000Y-237000D02*
Y-175000D01*
X8000Y-170000D02*
X13000Y-175000D01*
X8000Y-170000D02*
Y-150000D01*
X2000Y-144000D02*
X8000Y-150000D01*
X-4250Y-144000D02*
X2000D01*
X83000Y-309000D02*
X89800Y-315800D01*
X103500D01*
X268000Y-430000D02*
X278400D01*
X278500Y-430100D01*
X278100Y-417000D02*
X278500Y-417400D01*
X268000Y-417000D02*
X278100D01*
X278200Y-405000D02*
X278500Y-404700D01*
X268000Y-405000D02*
X278200D01*
X-73227Y-406773D02*
X-69000Y-411000D01*
X-73227Y-406773D02*
Y-405773D01*
X-69000Y-411000D02*
Y-411000D01*
X-173000Y-475000D02*
X-146000D01*
X197350Y-290600D02*
X198000Y-291250D01*
Y-313000D02*
Y-291250D01*
X184650Y-290600D02*
X185000Y-290950D01*
Y-313000D02*
Y-290950D01*
X171950Y-290600D02*
X172000Y-290650D01*
Y-313000D02*
Y-290650D01*
X-240000Y-447500D02*
X-222500Y-430000D01*
X-240000Y-465000D02*
Y-447500D01*
X-250335Y-452500D02*
X-247953Y-450118D01*
X-247568D02*
X-223950Y-426500D01*
X-252500Y-452500D02*
X-250335D01*
X-247953Y-450118D02*
X-247568D01*
X-240000Y-501500D02*
Y-465000D01*
Y-501500D02*
X-240000Y-501500D01*
X-265000Y-501500D02*
Y-465000D01*
Y-501500D02*
X-265000Y-501500D01*
X-290000D02*
X-290000Y-501500D01*
X-290000Y-501500D02*
Y-465000D01*
X-223950Y-426500D02*
X-201450D01*
X-217500Y-410000D02*
Y-402513D01*
X-220000Y-412500D02*
X-217500Y-410000D01*
X-229749Y-412500D02*
X-220000D01*
X-249249Y-432000D02*
X-229749Y-412500D01*
X-282000Y-432000D02*
X-249249D01*
X-302500Y-452500D02*
X-282000Y-432000D01*
X-290000Y-465000D02*
Y-447500D01*
X-290000Y-465000D02*
X-290000Y-465000D01*
X-278000Y-435500D02*
X-247799D01*
X-290000Y-447500D02*
X-278000Y-435500D01*
X-247799D02*
X-228299Y-416000D01*
X-215000D01*
X-212500Y-413500D02*
Y-402513D01*
X-215000Y-416000D02*
X-212500Y-413500D01*
X-257500Y-442500D02*
X-244900D01*
X-225399Y-423000D01*
X-209500Y-419500D02*
X-207500Y-417500D01*
Y-402513D01*
X-226849Y-419500D02*
X-209500D01*
X-264000Y-439000D02*
X-246349D01*
X-226849Y-419500D01*
X-277500Y-452500D02*
X-264000Y-439000D01*
X-225399Y-423000D02*
X-205500D01*
X-202500Y-420000D01*
Y-402513D01*
X-265000Y-450000D02*
X-257500Y-442500D01*
X-265000Y-465000D02*
Y-450000D01*
X-201450Y-426500D02*
X-197500Y-422550D01*
Y-402513D01*
X-200000Y-430000D02*
X-192500Y-422500D01*
Y-402513D01*
X-222500Y-430000D02*
X-200000D01*
X-187500Y-370500D02*
X-167500Y-390500D01*
X-187500Y-402513D02*
Y-370500D01*
X287541Y-119250D02*
X290466Y-116325D01*
X287000Y-119250D02*
X287541D01*
X290466Y-116325D02*
X302225D01*
X302300Y-116400D01*
X241750Y-148000D02*
Y-140750D01*
X256000Y-148000D02*
X256000Y-148000D01*
X256000Y-148000D02*
Y-140750D01*
X287050Y-86450D02*
X302250D01*
X287000Y-86500D02*
X287050Y-86450D01*
X302250D02*
X302300Y-86400D01*
X246750Y-91214D02*
X247495Y-91959D01*
X252598D02*
X254159Y-93520D01*
X256770D02*
X257000Y-93750D01*
X247495Y-91959D02*
X252598D01*
X254159Y-93520D02*
X256770D01*
X252598Y-123041D02*
X254034Y-121605D01*
X256895D01*
X257000Y-121500D01*
X247495Y-123041D02*
X252598D01*
X246750Y-123786D02*
X247495Y-123041D01*
X333750Y-434750D02*
Y-425236D01*
X310750Y-440230D02*
Y-431750D01*
X310500Y-440480D02*
X310750Y-440230D01*
Y-431750D02*
Y-422520D01*
X310500Y-422270D02*
X310750Y-422520D01*
X326520Y-407730D02*
X327750Y-406500D01*
X310500Y-407730D02*
X326520D01*
X298000Y-411750D02*
X302020Y-407730D01*
X310500D01*
X298000Y-438250D02*
Y-411750D01*
X278500Y-442800D02*
X293450D01*
X298000Y-438250D01*
X-266000Y-349000D02*
X-266000Y-349000D01*
X-248250Y-230750D02*
X-248100Y-230900D01*
Y-238440D02*
Y-230900D01*
Y-238440D02*
X-247950Y-238590D01*
X-145975Y-164565D02*
Y-157025D01*
X-146000Y-157000D02*
X-145975Y-157025D01*
Y-164565D02*
X-145950Y-164590D01*
X-76750Y-323500D02*
X-63500Y-310250D01*
X-128500Y-323500D02*
X-76750D01*
X-63500Y-310250D02*
X-40000D01*
X-34000Y-207750D02*
Y-155000D01*
Y-207750D02*
X-30250Y-211500D01*
Y-239000D02*
Y-211500D01*
Y-239000D02*
X-27750Y-241500D01*
Y-306000D02*
Y-241500D01*
X-44000Y-157000D02*
X-43757Y-156757D01*
Y-154172D02*
X-42586Y-153000D01*
X-36000D01*
X-43757Y-156757D02*
Y-154172D01*
X-36000Y-153000D02*
X-34000Y-155000D01*
X-37750Y-316000D02*
X-27750Y-306000D01*
X-59000Y-316000D02*
X-37750D01*
X-74250Y-331250D02*
X-59000Y-316000D01*
X-128500Y-331250D02*
X-74250D01*
X-45000Y-212000D02*
X-37750D01*
X-35500Y-214250D01*
Y-240250D02*
Y-214250D01*
X-33500Y-303750D02*
Y-242250D01*
X-35500Y-240250D02*
X-33500Y-242250D01*
X-40000Y-310250D02*
X-33500Y-303750D01*
X-155412Y-360425D02*
X-144675D01*
X-144500Y-360250D01*
X-155487Y-360500D02*
X-155412Y-360425D01*
X-146791Y-355500D02*
X-145041Y-353750D01*
X-144500D01*
X-155487Y-355500D02*
X-146791D01*
X-43950Y-238480D02*
X-43500Y-238930D01*
Y-245750D02*
Y-238930D01*
Y-245750D02*
X-38750Y-250500D01*
Y-299500D02*
Y-250500D01*
X-42750Y-303500D02*
X-38750Y-299500D01*
X-77250Y-314000D02*
X-66750Y-303500D01*
X-42750D01*
X-132250Y-314000D02*
X-77250D01*
X-138750Y-320500D02*
X-132250Y-314000D01*
X-138750Y-340649D02*
Y-320500D01*
X-148525Y-350425D02*
X-138750Y-340649D01*
X-155412Y-350425D02*
X-148525D01*
X-155487Y-350500D02*
X-155412Y-350425D01*
X-61000Y-295000D02*
Y-269890D01*
X-71500Y-298000D02*
X-64000D01*
X-61000Y-295000D01*
X-82250Y-308750D02*
X-71500Y-298000D01*
X-143500Y-317000D02*
X-135250Y-308750D01*
X-82250D01*
X-143500Y-340450D02*
Y-317000D01*
X-155487Y-345500D02*
X-155412Y-345425D01*
X-148475D01*
X-143500Y-340450D01*
X-145500Y-370500D02*
X-138250Y-363250D01*
X-147000Y-312250D02*
X-134000Y-299250D01*
Y-278000D01*
X-147000Y-339000D02*
Y-312250D01*
X-148500Y-340500D02*
X-147000Y-339000D01*
X-155487Y-340500D02*
X-148500D01*
X-236000Y-300250D02*
X-232750Y-303500D01*
X-227250D01*
X-191500Y-311750D02*
X-187500Y-315750D01*
Y-333488D02*
Y-315750D01*
Y-333488D02*
X-187500Y-333488D01*
X-162500Y-318250D02*
X-162500Y-318250D01*
Y-333488D02*
X-162500Y-333488D01*
X-162500Y-333488D02*
Y-318250D01*
X-145950Y-245800D02*
Y-238590D01*
Y-245800D02*
X-143500Y-248250D01*
Y-298000D02*
Y-248250D01*
X-148000Y-302500D02*
X-143500Y-298000D01*
X-153750Y-302500D02*
X-148000D01*
X-172500Y-310750D02*
X-164500Y-302750D01*
X-172500Y-333488D02*
Y-310750D01*
X-163000Y-270000D02*
X-159000Y-274000D01*
Y-306750D02*
Y-274000D01*
X-167500Y-315250D02*
X-159000Y-306750D01*
X-167500Y-333488D02*
Y-315250D01*
X-177500Y-317000D02*
X-177500Y-317000D01*
Y-333488D02*
Y-317000D01*
X-182500Y-333488D02*
Y-322750D01*
X-182500Y-322750D02*
X-182500Y-322750D01*
X-236000Y-300250D02*
Y-278000D01*
X-215000Y-262000D02*
X-207000Y-270000D01*
X-236000Y-262000D02*
X-215000D01*
X-192500Y-333488D02*
Y-322500D01*
X-198000Y-317000D02*
X-192500Y-322500D01*
X-241000Y-310250D02*
X-212873D01*
X-197500Y-333488D02*
Y-325623D01*
X-212873Y-310250D02*
X-197500Y-325623D01*
X-245000Y-306250D02*
X-241000Y-310250D01*
X-245000Y-306250D02*
Y-249000D01*
X-247950Y-246050D02*
X-245000Y-249000D01*
X-247950Y-246050D02*
Y-238590D01*
X-214322Y-313750D02*
X-202500Y-325572D01*
Y-333488D02*
Y-325572D01*
X-317000Y-262000D02*
X-309000Y-270000D01*
X-337000Y-262000D02*
X-317000D01*
X-337000Y-304250D02*
X-330500Y-310750D01*
X-337000Y-304250D02*
Y-278000D01*
X-207500Y-333488D02*
Y-325522D01*
X-215772Y-317250D02*
X-207500Y-325522D01*
X-227250Y-324250D02*
X-219500D01*
X-217500Y-326250D01*
Y-333488D02*
Y-326250D01*
X-230000Y-331250D02*
Y-327000D01*
X-227250Y-324250D01*
X-231000Y-320750D02*
X-217222D01*
X-236750Y-332500D02*
Y-326500D01*
X-231000Y-320750D01*
X-217222D02*
X-212500Y-325472D01*
Y-333488D02*
Y-325472D01*
X-224513Y-340500D02*
X-224512Y-340500D01*
X-236500Y-340500D02*
X-224513D01*
X-249730Y-331000D02*
X-249500Y-331230D01*
Y-349000D02*
Y-331230D01*
X-9000Y-135500D02*
Y-130536D01*
X-11036Y-128500D02*
X-9000Y-130536D01*
X-7250Y-141000D02*
Y-137250D01*
Y-141000D02*
X-4250Y-144000D01*
X-9000Y-135500D02*
X-7250Y-137250D01*
X-9000Y-180750D02*
Y-176536D01*
X-11036Y-174500D02*
X-9000Y-176536D01*
X-7250Y-187000D02*
X-4250Y-190000D01*
X-7250Y-187000D02*
Y-182500D01*
X-9000Y-180750D02*
X-7250Y-182500D01*
X-8709Y-227291D02*
Y-222827D01*
X-11036Y-220500D02*
X-8709Y-222827D01*
Y-227291D02*
X-7250Y-228750D01*
Y-233000D02*
Y-228750D01*
Y-233000D02*
X-4250Y-236000D01*
X-17750Y-190000D02*
Y-159000D01*
X-25000Y-205000D02*
X-17750D01*
X-25000Y-159000D02*
X-17750D01*
X-17750Y-159000D01*
X-25000Y-113000D02*
X-17750D01*
X-145975Y-238565D02*
Y-231025D01*
X-146000Y-231000D02*
X-145975Y-231025D01*
Y-238565D02*
X-145950Y-238590D01*
X-44000Y-231000D02*
X-43975Y-231025D01*
Y-238455D02*
X-43950Y-238480D01*
X-43975Y-238455D02*
Y-231025D01*
Y-164565D02*
Y-157025D01*
Y-164565D02*
X-43950Y-164590D01*
X-44000Y-157000D02*
X-43975Y-157025D01*
X-247975Y-164565D02*
X-247950Y-164590D01*
X-247975Y-164565D02*
Y-157025D01*
X-248000Y-157000D02*
X-247975Y-157025D01*
X21500Y-235000D02*
X32000D01*
X18250Y-231750D02*
Y-220500D01*
Y-231750D02*
X21500Y-235000D01*
X32000D02*
X41750D01*
X63000Y-268960D02*
Y-257000D01*
X70040Y-276000D02*
X70270D01*
X63000Y-268960D02*
X70040Y-276000D01*
X53500Y-266000D02*
X55730Y-268230D01*
X53500Y-266000D02*
Y-257000D01*
X55730Y-276000D02*
Y-268230D01*
Y-282730D02*
Y-276000D01*
X72500Y-233000D02*
X81500D01*
X41750Y-235000D02*
X43750Y-233000D01*
X53500D01*
X18250Y-220500D02*
X21700Y-217050D01*
X32410D01*
X155500Y-147005D02*
X155500Y-147005D01*
X155500Y-163000D02*
Y-147005D01*
X153500Y-165000D02*
X155500Y-163000D01*
X136500Y-176250D02*
X139250Y-179000D01*
X136500Y-176250D02*
Y-165000D01*
X136500Y-165000D02*
Y-147005D01*
Y-165000D02*
X136500Y-165000D01*
X-95747Y-426010D02*
X-92757Y-429000D01*
X-98010Y-426010D02*
X-95747D01*
X-92757Y-429000D02*
X-66270D01*
X-83303Y-407061D02*
Y-396757D01*
X-85990Y-409747D02*
X-83303Y-407061D01*
X-85990Y-413990D02*
Y-409747D01*
X-83303Y-396757D02*
X-82773Y-396227D01*
X-100697Y-396243D02*
X-88061D01*
X-87546Y-396757D02*
X-83303D01*
X-101227Y-396773D02*
X-100697Y-396243D01*
X-88061D02*
X-87546Y-396757D01*
X-115303Y-397303D02*
X-101757D01*
X-119000Y-401000D02*
X-115303Y-397303D01*
X-101757D02*
X-101227Y-396773D01*
X-135500Y-401000D02*
X-119000D01*
X-141000Y-395500D02*
X-135500Y-401000D01*
X-155487Y-395500D02*
X-141000D01*
X-167500Y-390500D02*
X-155487D01*
X-134000Y-389250D02*
X-130520D01*
X-128000Y-391770D01*
X-137750Y-385500D02*
X-134000Y-389250D01*
X-155487Y-385500D02*
X-137750D01*
X-128520Y-378750D02*
X-128000Y-378230D01*
X-134500Y-378750D02*
X-128520D01*
X-136250Y-380500D02*
X-134500Y-378750D01*
X-155487Y-380500D02*
X-136250D01*
X-142000Y-375500D02*
X-128000Y-361500D01*
Y-361270D01*
X-155487Y-375500D02*
X-142000D01*
X-155487Y-370500D02*
X-145500D01*
X-167425Y-408575D02*
X-163250Y-412750D01*
X-167500Y-402513D02*
X-167425Y-402588D01*
Y-408575D02*
Y-402588D01*
X-177500Y-410250D02*
Y-402513D01*
X-177500Y-402513D01*
X-182540Y-422000D02*
X-182500Y-421960D01*
Y-402513D01*
X-244770Y-405000D02*
X-235270Y-395500D01*
X-224512D01*
X-245000Y-405000D02*
X-244770D01*
X-224512Y-390500D02*
X-212500D01*
X-241250Y-393250D02*
X-233500Y-385500D01*
X-224512D01*
X-234250Y-380500D02*
X-234250Y-380500D01*
X-224512D01*
X-241500Y-384750D02*
X-239250Y-382500D01*
X-249500Y-384750D02*
X-241500D01*
X-239250Y-382500D02*
Y-376250D01*
X-233500Y-370500D01*
X-224513D01*
X-246500Y-370750D02*
X-239800D01*
X-234550Y-365500D02*
X-224513D01*
X-239800Y-370750D02*
X-234550Y-365500D01*
X-249500Y-373750D02*
X-246500Y-370750D01*
X-266000Y-349000D02*
X-259500Y-355500D01*
X-266500Y-349000D02*
X-266000D01*
X-259500Y-355500D02*
X-224512D01*
Y-350500D02*
X-207500D01*
X-249500Y-349000D02*
X-240250D01*
X-236750Y-345500D01*
X-224512D01*
D13*
X282075Y-78325D02*
X302225D01*
X282000Y-78250D02*
X282075Y-78325D01*
X302225D02*
X302300Y-78400D01*
X322250Y-121250D02*
Y-87500D01*
X311997Y-82250D02*
X317000D01*
X322250Y-87500D01*
X311247Y-81500D02*
X311997Y-82250D01*
X302300Y-81400D02*
X302400Y-81500D01*
X311247D01*
X317950Y-125550D02*
X322250Y-121250D01*
X302400Y-126300D02*
X311247D01*
X302300Y-126400D02*
X302400Y-126300D01*
X311247D02*
X311997Y-125550D01*
X317950D01*
D20*
X-7000Y-260500D02*
D03*
Y-277500D02*
D03*
Y-291500D02*
D03*
Y-308500D02*
D03*
X210000Y-127500D02*
D03*
Y-144500D02*
D03*
X197000Y-127500D02*
D03*
Y-144500D02*
D03*
X185000Y-127500D02*
D03*
Y-144500D02*
D03*
X172000Y-127500D02*
D03*
Y-144500D02*
D03*
X-290000Y-501500D02*
D03*
Y-518500D02*
D03*
X-265000Y-501500D02*
D03*
Y-518500D02*
D03*
X-240000Y-501500D02*
D03*
Y-518500D02*
D03*
D22*
X330770Y-284000D02*
D03*
X317230D02*
D03*
D23*
X-130500Y-114000D02*
D03*
X-97500D02*
D03*
X-232500D02*
D03*
X-199500D02*
D03*
X-334500Y-113000D02*
D03*
X-301500D02*
D03*
X-130500Y-201890D02*
D03*
X-97500D02*
D03*
X-130500Y-230890D02*
D03*
X-97500D02*
D03*
X-130500Y-172890D02*
D03*
X-97500D02*
D03*
X-130500Y-143890D02*
D03*
X-97500D02*
D03*
X-232500Y-173000D02*
D03*
X-199500Y-173000D02*
D03*
X-232500Y-144000D02*
D03*
X-199500D02*
D03*
X-232500Y-231000D02*
D03*
X-199500Y-231000D02*
D03*
X-232500Y-202000D02*
D03*
X-199500Y-202000D02*
D03*
X-334500Y-172000D02*
D03*
X-301500Y-172000D02*
D03*
X-334500Y-143000D02*
D03*
X-301500Y-143000D02*
D03*
X-334500Y-231000D02*
D03*
X-301500D02*
D03*
X-334500Y-202000D02*
D03*
X-301500D02*
D03*
D24*
X198964Y-159000D02*
D03*
X209036D02*
D03*
X173964D02*
D03*
X184036D02*
D03*
X-964Y-128500D02*
D03*
X-11036D02*
D03*
Y-220500D02*
D03*
X-964D02*
D03*
X-11036Y-174500D02*
D03*
X-964D02*
D03*
D28*
X-304818Y-87000D02*
D03*
X-333182D02*
D03*
D29*
X-24270Y-504000D02*
D03*
X-9730D02*
D03*
X-24270Y-416000D02*
D03*
X-9730D02*
D03*
X29730D02*
D03*
X44270D02*
D03*
X-259540Y-405000D02*
D03*
X-245000D02*
D03*
X30000Y-504000D02*
D03*
X44540D02*
D03*
X-66270Y-429000D02*
D03*
X-51730D02*
D03*
Y-447000D02*
D03*
X-66270D02*
D03*
X-51730Y-501000D02*
D03*
X-66270D02*
D03*
X-51730Y-483000D02*
D03*
X-66270D02*
D03*
X-51730Y-465000D02*
D03*
X-66270D02*
D03*
X55730Y-276000D02*
D03*
X70270D02*
D03*
D30*
X-249500Y-373750D02*
D03*
X-266500D02*
D03*
X-249500Y-384750D02*
D03*
X-266500D02*
D03*
X-249500Y-362750D02*
D03*
X-266500D02*
D03*
X-249500Y-349000D02*
D03*
X-266500D02*
D03*
X136500Y-165000D02*
D03*
X153500D02*
D03*
D32*
X39762Y-372000D02*
D03*
X39762Y-460000D02*
D03*
D33*
X-19763Y-395000D02*
D03*
Y-372000D02*
D03*
X-19763Y-483000D02*
D03*
Y-460000D02*
D03*
D34*
X-19763Y-349000D02*
D03*
X-19763Y-437000D02*
D03*
D37*
X-162500Y-402513D02*
D03*
X-167500D02*
D03*
X-172500D02*
D03*
X-177500D02*
D03*
X-182500D02*
D03*
X-187500D02*
D03*
X-192500D02*
D03*
X-197500D02*
D03*
X-202500D02*
D03*
X-207500D02*
D03*
X-212500D02*
D03*
X-217500D02*
D03*
X-217500Y-333488D02*
D03*
X-212500D02*
D03*
X-207500D02*
D03*
X-202500D02*
D03*
X-197500D02*
D03*
X-192500D02*
D03*
X-187500D02*
D03*
X-182500D02*
D03*
X-177500D02*
D03*
X-172500D02*
D03*
X-167500D02*
D03*
X-162500D02*
D03*
D38*
X-224512Y-395500D02*
D03*
Y-390500D02*
D03*
Y-385500D02*
D03*
Y-380500D02*
D03*
X-224513Y-375500D02*
D03*
Y-370500D02*
D03*
Y-365500D02*
D03*
X-224512Y-360500D02*
D03*
Y-355500D02*
D03*
Y-350500D02*
D03*
Y-345500D02*
D03*
Y-340500D02*
D03*
X-155487D02*
D03*
Y-345500D02*
D03*
Y-350500D02*
D03*
Y-355500D02*
D03*
Y-360500D02*
D03*
Y-365500D02*
D03*
Y-370500D02*
D03*
Y-375500D02*
D03*
Y-380500D02*
D03*
Y-385500D02*
D03*
Y-390500D02*
D03*
D39*
Y-395500D02*
D03*
D40*
X-109859Y-410859D02*
D03*
X-120141Y-421141D02*
D03*
X-133859Y-410859D02*
D03*
X-144141Y-421141D02*
D03*
D41*
X212000Y-85000D02*
D03*
Y-95071D02*
D03*
X246750Y-101286D02*
D03*
Y-91214D02*
D03*
Y-113714D02*
D03*
Y-123786D02*
D03*
D42*
X-266270Y-331000D02*
D03*
X-249730D02*
D03*
X-166000Y-422000D02*
D03*
X-182540D02*
D03*
D43*
X-128000Y-346730D02*
D03*
Y-361270D02*
D03*
X310500Y-422270D02*
D03*
Y-407730D02*
D03*
Y-440480D02*
D03*
Y-455020D02*
D03*
D44*
X-109000Y-364270D02*
D03*
Y-347730D02*
D03*
D45*
X-85000Y-380500D02*
D03*
Y-347500D02*
D03*
D46*
X-128000Y-391770D02*
D03*
Y-378230D02*
D03*
D51*
X96500Y-137000D02*
D03*
X27500D02*
D03*
D52*
X-98010Y-426010D02*
D03*
X-85990Y-413990D02*
D03*
D61*
X333750Y-425236D02*
D03*
Y-452764D02*
D03*
D62*
X146000Y-124995D02*
D03*
X155500Y-147005D02*
D03*
D63*
X136500D02*
D03*
D64*
X270000Y-80000D02*
G03*
X260000Y-70000I-10000J0D01*
G01*
X270000Y-165000D02*
G03*
X280000Y-175000I10000J0D01*
G01*
X360000Y-185000D02*
G03*
X350000Y-175000I-10000J0D01*
G01*
X80000Y-472000D02*
G03*
X60000Y-492000I0J-20000D01*
G01*
X350000Y-472000D02*
G03*
X360000Y-462000I0J10000D01*
G01*
X50000Y-550000D02*
G03*
X60000Y-540000I0J10000D01*
G01*
X-360000D02*
G03*
X-350000Y-550000I10000J0D01*
G01*
Y-70000D02*
G03*
X-360000Y-80000I0J-10000D01*
G01*
X99500Y-125500D02*
Y-111250D01*
X105500D01*
Y-105250D02*
Y-99250D01*
Y-111250D02*
Y-105250D01*
X99500Y-99250D02*
X105500D01*
X99500Y-111250D02*
Y-105250D01*
Y-99250D01*
X-127230Y-347500D02*
X-85000D01*
X39762Y-466562D02*
Y-460000D01*
X44540Y-504000D02*
X46750Y-501790D01*
X39762Y-466562D02*
X46750Y-473550D01*
Y-501790D02*
Y-473550D01*
X-66270Y-501000D02*
Y-483000D01*
X44270Y-426730D02*
Y-416000D01*
X44250Y-426750D02*
X44270Y-426730D01*
X99500Y-125500D02*
X103500Y-129500D01*
X104000D01*
Y-112750D01*
X96500Y-137000D02*
X104000Y-129500D01*
Y-112750D02*
X105500Y-111250D01*
X22800Y-204050D02*
Y-178950D01*
Y-204050D02*
X23100Y-204350D01*
X32410D01*
X22900Y-191650D02*
X32410D01*
X22800Y-178950D02*
X32410D01*
X39762Y-378563D02*
Y-372000D01*
X44270Y-416000D02*
X48250Y-412020D01*
Y-387050D01*
X39762Y-378563D02*
X48250Y-387050D01*
X-24270Y-511162D02*
Y-504000D01*
X-66270Y-511162D02*
X-60182Y-517250D01*
X-30358D01*
X-24270Y-511162D01*
X-66270D02*
Y-501000D01*
X-51250Y-416000D02*
X-24270D01*
X-60412D02*
X-51250D01*
X-51000Y-415750D02*
Y-390000D01*
X-51250Y-416000D02*
X-51000Y-415750D01*
X-66270Y-429000D02*
Y-421858D01*
X-60412Y-416000D01*
X-66270Y-447000D02*
Y-429000D01*
Y-465000D02*
Y-447000D01*
Y-474000D02*
Y-465000D01*
Y-483000D02*
Y-474000D01*
X-66270Y-474000D02*
X-66270Y-474000D01*
X-95000Y-474000D02*
X-66270D01*
X-128000Y-346730D02*
X-127230Y-347500D01*
X-166000Y-444500D02*
Y-422000D01*
X-169500Y-448000D02*
X-166000Y-444500D01*
X-350000Y-70000D02*
X260000D01*
X270000Y-165000D02*
Y-80000D01*
X280000Y-175000D02*
X350000D01*
X360000Y-462000D02*
Y-185000D01*
X302250Y-472000D02*
X350000D01*
X60000Y-540000D02*
Y-492000D01*
X-350000Y-550000D02*
X50000D01*
X-360000Y-540000D02*
Y-80000D01*
D73*
X-190000Y-368000D02*
D03*
D93*
X264000Y-271000D02*
D03*
X-150000Y-406000D02*
D03*
X295000Y-349000D02*
D03*
Y-335000D02*
D03*
Y-391000D02*
D03*
X199000Y-272000D02*
D03*
X295000Y-377000D02*
D03*
Y-363000D02*
D03*
X-302500Y-452500D02*
D03*
X-277500D02*
D03*
X-252500D02*
D03*
X-290000Y-465000D02*
D03*
X-265000D02*
D03*
X-240000D02*
D03*
X229000Y-85000D02*
D03*
X-306000Y-381000D02*
D03*
X-281250Y-349000D02*
D03*
X-93000Y-517000D02*
D03*
X325000Y-193000D02*
D03*
X-173000Y-475000D02*
D03*
X32000Y-235000D02*
D03*
X324000Y-375000D02*
D03*
X142000Y-90000D02*
D03*
X170000D02*
D03*
D94*
X7000Y-292750D02*
D03*
Y-279250D02*
D03*
X21000Y-292750D02*
D03*
Y-279250D02*
D03*
X256000Y-161500D02*
D03*
Y-148000D02*
D03*
X241750Y-161500D02*
D03*
Y-148000D02*
D03*
D95*
X174500Y-195000D02*
D03*
X193500D02*
D03*
X174500Y-217000D02*
D03*
X193500D02*
D03*
D96*
X208250Y-195000D02*
D03*
X221750D02*
D03*
X208250Y-217000D02*
D03*
X221750D02*
D03*
X341250Y-406500D02*
D03*
X327750D02*
D03*
X-17750Y-205000D02*
D03*
X-4250D02*
D03*
Y-236000D02*
D03*
X-17750D02*
D03*
X-17750Y-159000D02*
D03*
X-4250D02*
D03*
Y-190000D02*
D03*
X-17750D02*
D03*
X139250Y-179000D02*
D03*
X152750D02*
D03*
X-17750Y-113000D02*
D03*
X-4250D02*
D03*
Y-144000D02*
D03*
X-17750D02*
D03*
D97*
X310000Y-306500D02*
D03*
Y-369500D02*
D03*
X348000Y-306500D02*
D03*
Y-369500D02*
D03*
X306000Y-196500D02*
D03*
Y-259500D02*
D03*
X344000Y-196500D02*
D03*
Y-259500D02*
D03*
D98*
X-134000Y-262000D02*
D03*
X-134000Y-278000D02*
D03*
X-236000Y-262000D02*
D03*
X-236000Y-278000D02*
D03*
X-337000Y-262000D02*
D03*
X-337000Y-278000D02*
D03*
D99*
X-265000Y-270000D02*
D03*
X-309000Y-270000D02*
D03*
X-163000Y-270000D02*
D03*
X-207000Y-270000D02*
D03*
X-61000Y-269890D02*
D03*
X-105000Y-269890D02*
D03*
D100*
X302300Y-137400D02*
D03*
Y-134400D02*
D03*
Y-129400D02*
D03*
Y-126400D02*
D03*
Y-121400D02*
D03*
Y-116400D02*
D03*
Y-111400D02*
D03*
Y-106400D02*
D03*
Y-101400D02*
D03*
Y-96400D02*
D03*
Y-91400D02*
D03*
Y-86400D02*
D03*
Y-81400D02*
D03*
Y-78400D02*
D03*
Y-73400D02*
D03*
X302300Y-70399D02*
D03*
D101*
X-63000Y-126000D02*
D03*
Y-199890D02*
D03*
X-165000Y-126000D02*
D03*
Y-200000D02*
D03*
X-267000Y-126000D02*
D03*
Y-200000D02*
D03*
D102*
X-82050Y-105190D02*
D03*
X-69350D02*
D03*
X-56650D02*
D03*
X-43950D02*
D03*
Y-164590D02*
D03*
X-56650Y-164590D02*
D03*
X-69350D02*
D03*
X-82050Y-164590D02*
D03*
Y-179080D02*
D03*
X-69350Y-179080D02*
D03*
X-56650D02*
D03*
X-43950Y-179080D02*
D03*
Y-238480D02*
D03*
X-56650Y-238480D02*
D03*
X-69350D02*
D03*
X-82050Y-238480D02*
D03*
X-184050Y-105190D02*
D03*
X-171350D02*
D03*
X-158650D02*
D03*
X-145950D02*
D03*
Y-164590D02*
D03*
X-158650D02*
D03*
X-171350D02*
D03*
X-184050D02*
D03*
Y-179190D02*
D03*
X-171350Y-179190D02*
D03*
X-158650D02*
D03*
X-145950Y-179190D02*
D03*
Y-238590D02*
D03*
X-158650Y-238590D02*
D03*
X-171350D02*
D03*
X-184050Y-238590D02*
D03*
X-286050Y-105190D02*
D03*
X-273350D02*
D03*
X-260650D02*
D03*
X-247950D02*
D03*
Y-164590D02*
D03*
X-260650D02*
D03*
X-273350D02*
D03*
X-286050D02*
D03*
Y-179190D02*
D03*
X-273350Y-179190D02*
D03*
X-260650D02*
D03*
X-247950Y-179190D02*
D03*
Y-238590D02*
D03*
X-260650Y-238590D02*
D03*
X-273350D02*
D03*
X-286050Y-238590D02*
D03*
D103*
X-51000Y-390000D02*
D03*
Y-350000D02*
D03*
D104*
X-145000Y-474000D02*
D03*
X-95000D02*
D03*
D105*
X-170000Y-448000D02*
D03*
X-210000D02*
D03*
D106*
X53500Y-257000D02*
D03*
X63000D02*
D03*
X72500D02*
D03*
Y-233000D02*
D03*
X53500D02*
D03*
D107*
X71000Y-198000D02*
D03*
D108*
X91810Y-178950D02*
D03*
Y-191650D02*
D03*
Y-204350D02*
D03*
Y-217050D02*
D03*
X32410D02*
D03*
X32410Y-204350D02*
D03*
Y-191650D02*
D03*
X32410Y-178950D02*
D03*
D109*
X-82773Y-396227D02*
D03*
X-73227Y-405773D02*
D03*
X-101227Y-396773D02*
D03*
X-110773Y-387227D02*
D03*
D110*
X206000Y-391000D02*
D03*
X220000Y-391000D02*
D03*
X192000D02*
D03*
X220000Y-377000D02*
D03*
X206000D02*
D03*
X192000D02*
D03*
X220000Y-405000D02*
D03*
X206000Y-405000D02*
D03*
X192000D02*
D03*
D111*
X278500Y-468200D02*
D03*
X278500Y-455500D02*
D03*
X278500Y-442800D02*
D03*
Y-430100D02*
D03*
Y-417400D02*
D03*
Y-404700D02*
D03*
Y-392000D02*
D03*
Y-379300D02*
D03*
Y-366600D02*
D03*
Y-353900D02*
D03*
Y-341200D02*
D03*
Y-328500D02*
D03*
X278500Y-315800D02*
D03*
X278500Y-303100D02*
D03*
X103500Y-303100D02*
D03*
Y-315800D02*
D03*
Y-328500D02*
D03*
X103500Y-341200D02*
D03*
Y-353900D02*
D03*
X103500Y-366600D02*
D03*
Y-379300D02*
D03*
Y-392000D02*
D03*
X103500Y-404700D02*
D03*
X103500Y-417400D02*
D03*
X103500Y-430100D02*
D03*
Y-442800D02*
D03*
Y-455500D02*
D03*
Y-468200D02*
D03*
D112*
X260850Y-290600D02*
D03*
X248150D02*
D03*
X235450D02*
D03*
X222750Y-290600D02*
D03*
X210050Y-290600D02*
D03*
X197350D02*
D03*
X184650D02*
D03*
X171950D02*
D03*
X159250D02*
D03*
X146550D02*
D03*
X133850D02*
D03*
X121150D02*
D03*
D113*
X-158742Y-412750D02*
X-156492Y-415000D01*
X-153521D01*
X-147218Y-421303D01*
X-147055Y-421141D01*
X-144141D01*
X-163250Y-412750D02*
X-158742D01*
X-130250Y-424250D02*
X-126164D01*
X-136000D02*
X-130250D01*
X-137792D02*
X-136000D01*
X-51000Y-350000D02*
Y-333000D01*
X211318Y-85682D02*
X212000Y-85000D01*
X205682Y-85682D02*
X211318D01*
X166000Y-214000D02*
X172000D01*
X174500Y-217000D02*
Y-216500D01*
X172000Y-214000D02*
X174500Y-216500D01*
X-70000Y-521000D02*
X-67000Y-518000D01*
X-79000Y-521000D02*
X-70000D01*
X-82043Y-517957D02*
X-79000Y-521000D01*
X-92043Y-517957D02*
X-82043D01*
X-93000Y-517000D02*
X-92043Y-517957D01*
X172000Y-199000D02*
X174500Y-196500D01*
Y-195000D01*
X166000Y-199000D02*
X172000D01*
X298000Y-202000D02*
X303500D01*
X306000Y-199500D01*
Y-196500D01*
X-4250Y-205000D02*
X3000D01*
X-4250Y-159000D02*
X-4250Y-159000D01*
X3000D01*
X-4250Y-113000D02*
X3000D01*
X-339500Y-518500D02*
X-290000D01*
X-347000Y-511000D02*
X-339500Y-518500D01*
X-347000Y-339929D02*
X-344071Y-337000D01*
X-347000Y-511000D02*
Y-339929D01*
X-344071Y-337000D02*
X-315000D01*
X-297000Y-319000D01*
X-258000D01*
X-253000Y-324000D01*
Y-328439D02*
X-250439Y-331000D01*
X-253000Y-328439D02*
Y-324000D01*
X-250439Y-331000D02*
X-249730D01*
X-20000Y-348763D02*
X-19763Y-349000D01*
X-20000Y-348763D02*
Y-341000D01*
X-52000Y-482730D02*
Y-465270D01*
X-51730Y-465000D01*
X-52000Y-482730D02*
X-51730Y-483000D01*
Y-465000D02*
Y-447000D01*
X-52000Y-483270D02*
X-51730Y-483000D01*
X-220450Y-518500D02*
X-200950Y-538000D01*
X39000D01*
X-240000Y-518500D02*
X-220450D01*
X333750Y-452764D02*
X334514Y-452000D01*
X346000D01*
X349000Y-449000D02*
Y-415000D01*
X346000Y-452000D02*
X349000Y-449000D01*
X-265000Y-518500D02*
X-240000D01*
X-290000D02*
X-265000D01*
X39000Y-538000D02*
X44540Y-532460D01*
Y-504000D01*
X-964Y-128500D02*
X-464Y-129000D01*
X5000D01*
X-964Y-174500D02*
X-464Y-175000D01*
X5000D01*
X-964Y-220500D02*
X-464Y-221000D01*
X4500D01*
X-267000Y-405000D02*
X-259540D01*
X-259540Y-405000D01*
X-274000Y-386000D02*
X-267750D01*
X-266500Y-384750D01*
X-266750Y-374000D02*
X-266500Y-373750D01*
X-274000Y-374000D02*
X-266750D01*
X-274000Y-363000D02*
X-266750D01*
X-266500Y-362750D01*
X-266270Y-331000D02*
X-266270Y-331000D01*
X-275000Y-331000D02*
X-266270D01*
X-220000Y-442000D02*
X-214000Y-448000D01*
X-210000D01*
X-220000Y-442000D02*
Y-437000D01*
X-210000Y-448000D02*
Y-437000D01*
X-210000Y-448000D02*
X-210000Y-448000D01*
X-206000Y-448000D02*
X-200000Y-442000D01*
Y-438000D02*
X-200000Y-438000D01*
Y-437000D01*
X-210000Y-448000D02*
X-206000D01*
X-200000Y-442000D02*
Y-438000D01*
X-19763Y-437000D02*
X-19763Y-437000D01*
X-32000Y-437000D02*
X-19763D01*
X21000Y-421000D02*
X24500D01*
X29500Y-416000D01*
X29730D01*
X-9500D02*
X-4500Y-411000D01*
X-2000D01*
X-9730Y-416000D02*
X-9500D01*
X22000Y-504000D02*
X30000D01*
X-9730D02*
X-2000D01*
X-52000Y-500730D02*
X-51730Y-501000D01*
X-52000Y-500730D02*
Y-492000D01*
Y-483270D01*
X-51730Y-447000D02*
X-51730Y-447000D01*
X-52000Y-446730D02*
Y-438000D01*
Y-446730D02*
X-51730Y-447000D01*
X-52000Y-429270D02*
X-51730Y-429000D01*
X-52000Y-438000D02*
Y-429270D01*
X-127086Y-407000D02*
X-127000D01*
X-133859Y-410859D02*
X-130945D01*
X-127086Y-407000D01*
X-115000Y-406000D02*
X-110141Y-410859D01*
X-109859D01*
X-110243Y-386697D02*
Y-375243D01*
X-110773Y-387227D02*
X-110243Y-386697D01*
Y-375243D02*
X-109000Y-374000D01*
Y-364270D01*
X-109000Y-364270D01*
X-85000Y-380500D02*
Y-373000D01*
Y-380500D02*
X-85000Y-380500D01*
X241250Y-80750D02*
X256250D01*
X229957Y-84043D02*
X237957D01*
X229000Y-85000D02*
X229957Y-84043D01*
X237957D02*
X241250Y-80750D01*
X212000Y-85000D02*
X229000D01*
X341250Y-406500D02*
Y-397000D01*
Y-407250D02*
X349000Y-415000D01*
X341250Y-407250D02*
Y-406500D01*
X310500Y-454824D02*
X312561Y-452764D01*
X310500Y-455020D02*
Y-454824D01*
X312561Y-452764D02*
X333750D01*
X278740Y-455260D02*
X310260D01*
X278500Y-455500D02*
X278740Y-455260D01*
X310260D02*
X310500Y-455020D01*
X-56650Y-179080D02*
Y-164590D01*
X-69350Y-179080D02*
Y-164590D01*
X-82050Y-179080D02*
Y-164590D01*
X-158650Y-179190D02*
Y-164590D01*
X-171350Y-179190D02*
Y-164590D01*
X-184050Y-179190D02*
Y-164590D01*
X-260650Y-179190D02*
Y-164590D01*
X-273350Y-179190D02*
Y-164590D01*
X-286050Y-179190D02*
Y-164590D01*
X-138250Y-363250D02*
Y-351950D01*
X-135321Y-349021D01*
X-130061D01*
X-128000Y-346960D02*
Y-346730D01*
X-130061Y-349021D02*
X-128000Y-346960D01*
X-123055Y-421141D02*
X-120141D01*
X-126164Y-424250D02*
X-123055Y-421141D01*
X-143978Y-420978D02*
X-141064D01*
X-137792Y-424250D01*
X-144141Y-421141D02*
X-143978Y-420978D01*
X-169291Y-419439D02*
Y-416179D01*
X-177500Y-410250D02*
X-174500Y-413250D01*
X-172220D01*
X-169291Y-416179D01*
Y-419439D02*
X-166730Y-422000D01*
X-166000D01*
D114*
X0Y-329000D02*
X6000D01*
X-6000D02*
X0D01*
X-30000D02*
X-6000D01*
X-35000Y-334000D02*
X-30000Y-329000D01*
X-35000Y-384505D02*
Y-334000D01*
Y-384505D02*
X-24505Y-395000D01*
X-23937D01*
X142000Y-97000D02*
Y-90000D01*
Y-102000D02*
Y-97000D01*
X123000Y-202000D02*
Y-121000D01*
Y-207000D02*
Y-202000D01*
Y-212000D02*
Y-207000D01*
Y-121000D02*
X142000Y-102000D01*
X146000Y-114435D02*
X170000Y-90435D01*
X146000Y-124995D02*
Y-114435D01*
X170000Y-90435D02*
Y-90000D01*
X146000Y-124995D02*
X146000Y-124995D01*
X-23937Y-395000D02*
X-19763D01*
X-23937Y-483000D02*
X-19763D01*
X-24270Y-504000D02*
Y-483333D01*
X-23937Y-483000D01*
X-24270Y-395333D02*
X-23937Y-395000D01*
X-24270Y-416000D02*
Y-395333D01*
D115*
X11000Y-303000D02*
X39762Y-331763D01*
X24000Y-372000D02*
X39762D01*
X-19763D02*
X24000D01*
X39762D02*
Y-331763D01*
Y-460000D02*
X52000D01*
X39762Y-460000D02*
X39762Y-460000D01*
X-19763Y-460000D02*
X39762D01*
D116*
X-334500Y-143000D02*
Y-113000D01*
X-130500Y-143890D02*
Y-114000D01*
X-232500Y-144000D02*
Y-114000D01*
D117*
X287399Y-312873D02*
X288545Y-311727D01*
X281427Y-312873D02*
X287399D01*
X290718Y-311727D02*
X296895Y-305550D01*
Y-281869D01*
X288545Y-311727D02*
X290718D01*
X287302Y-306339D02*
X291750Y-301891D01*
Y-284000D01*
X281427Y-306028D02*
X286990D01*
X287302Y-306339D01*
X278500Y-303100D02*
X281427Y-306028D01*
X221355Y-169355D02*
Y-118869D01*
X226500Y-167224D02*
X254305Y-195029D01*
X254305D01*
X252174Y-200174D02*
X252174D01*
X221355Y-169355D02*
X252174Y-200174D01*
X226500Y-167224D02*
Y-121000D01*
X254305Y-195029D02*
X281000Y-221724D01*
X252174Y-200174D02*
X275855Y-223855D01*
X281000Y-265974D02*
Y-221724D01*
X302300Y-111400D02*
X315100D01*
X316250Y-110250D01*
Y-103242D01*
X302300Y-101400D02*
X314408D01*
X316250Y-103242D01*
X237250Y-110250D02*
X256750D01*
X284000D02*
X285150Y-111400D01*
X280500Y-110250D02*
X284000D01*
X285150Y-111400D02*
X302300D01*
X287500Y-99000D02*
X290100Y-96400D01*
X302300D01*
X287500Y-104000D02*
Y-99000D01*
X289900Y-106400D02*
X302300D01*
X287500Y-104000D02*
X289900Y-106400D01*
X280500Y-104000D02*
X287500D01*
X236224D02*
X256750D01*
X221355Y-118869D02*
X236224Y-104000D01*
X226500Y-121000D02*
X237250Y-110250D01*
X275855Y-268105D02*
Y-223855D01*
X281000Y-265974D02*
X296895Y-281869D01*
X275855Y-268105D02*
X291750Y-284000D01*
X278500Y-315800D02*
X281427Y-312873D01*
D118*
X-146000Y-475000D02*
X-145000Y-474000D01*
X-169500Y-448000D02*
X-166000D01*
X-170000D02*
X-169500D01*
X-166000D02*
X-152500Y-461500D01*
Y-471500D02*
X-150000Y-474000D01*
X-152500Y-471500D02*
Y-461500D01*
X-150000Y-474000D02*
X-145000D01*
D119*
X96500Y-141000D02*
Y-137000D01*
X71000Y-198000D02*
X71810Y-197190D01*
Y-165690D01*
X96500Y-141000D01*
D120*
X285750Y0D02*
D03*
X247650D02*
D03*
X209550D02*
D03*
X171450D02*
D03*
X133350D02*
D03*
X95250D02*
D03*
X57150D02*
D03*
X19050D02*
D03*
X-19050D02*
D03*
X-57150D02*
D03*
X-95250D02*
D03*
X-133350D02*
D03*
X-171450D02*
D03*
X-209550D02*
D03*
X-247650D02*
D03*
X-285750D02*
D03*
D121*
X121800Y-245000D02*
D03*
X147200Y-241000D02*
D03*
X172600Y-245000D02*
D03*
X198000Y-241000D02*
D03*
X223400Y-245000D02*
D03*
X248800Y-241000D02*
D03*
X-333000Y-324600D02*
D03*
Y-350000D02*
D03*
Y-375400D02*
D03*
Y-400800D02*
D03*
Y-426200D02*
D03*
Y-451600D02*
D03*
Y-477000D02*
D03*
Y-502400D02*
D03*
D122*
X-395000Y-255000D02*
D03*
X395000D02*
D03*
D123*
X354300Y-60900D02*
D03*
X354300Y-146900D02*
D03*
D124*
X310000Y-60900D02*
D03*
Y-146900D02*
D03*
D125*
X206000Y-398000D02*
D03*
X220000Y-398000D02*
D03*
X192000D02*
D03*
X220000Y-384000D02*
D03*
X206000Y-384000D02*
D03*
X192000D02*
D03*
X213000Y-405000D02*
D03*
X199000Y-405000D02*
D03*
X213000Y-391000D02*
D03*
X199000D02*
D03*
X213000Y-377000D02*
D03*
X199000Y-377000D02*
D03*
X375000Y-200000D02*
D03*
Y-300000D02*
D03*
X350000Y-350000D02*
D03*
X300000Y-50000D02*
D03*
X250000D02*
D03*
X275000Y-200000D02*
D03*
X250000Y-350000D02*
D03*
Y-450000D02*
D03*
X225000Y0D02*
D03*
Y-100000D02*
D03*
X200000Y-350000D02*
D03*
Y-450000D02*
D03*
X150000Y-50000D02*
D03*
X175000Y-100000D02*
D03*
Y-400000D02*
D03*
X150000Y-450000D02*
D03*
X100000Y-50000D02*
D03*
X125000Y-100000D02*
D03*
Y-400000D02*
D03*
X75000Y0D02*
D03*
X50000Y-50000D02*
D03*
X75000Y-100000D02*
D03*
X50000Y-150000D02*
D03*
X75000Y-300000D02*
D03*
X50000Y-350000D02*
D03*
Y-550000D02*
D03*
X0Y-50000D02*
D03*
Y-550000D02*
D03*
X-50000Y-50000D02*
D03*
Y-550000D02*
D03*
X-75000Y0D02*
D03*
X-100000Y-50000D02*
D03*
X-75000Y-500000D02*
D03*
X-100000Y-550000D02*
D03*
X-125000Y-500000D02*
D03*
X-175000D02*
D03*
X-200000Y-550000D02*
D03*
X-250000Y-50000D02*
D03*
X-225000Y-500000D02*
D03*
X-250000Y-550000D02*
D03*
X-275000Y-400000D02*
D03*
Y-500000D02*
D03*
X-300000Y-550000D02*
D03*
X-350000Y-50000D02*
D03*
Y-150000D02*
D03*
Y-250000D02*
D03*
Y-550000D02*
D03*
X-375000Y-200000D02*
D03*
Y-300000D02*
D03*
X14000Y-279000D02*
D03*
X339000Y-284000D02*
D03*
X242000Y-329000D02*
D03*
X62000Y-384000D02*
D03*
X0Y-329000D02*
D03*
X-6000D02*
D03*
X6000D02*
D03*
X11000Y-303000D02*
D03*
X-15000Y-261000D02*
D03*
X-116000Y-119000D02*
D03*
X292750Y-144500D02*
D03*
X289750Y-70000D02*
D03*
X-239125Y-361625D02*
D03*
X-147250Y-365500D02*
D03*
X-51000Y-333000D02*
D03*
X205682Y-85682D02*
D03*
X212000Y-101000D02*
D03*
X260000Y-462000D02*
D03*
X121000D02*
D03*
X-210000Y-378000D02*
D03*
X-202000Y-388000D02*
D03*
Y-378000D02*
D03*
X-206000Y-383000D02*
D03*
X-210000Y-388000D02*
D03*
X256000Y-168000D02*
D03*
X242000D02*
D03*
X166000Y-214000D02*
D03*
X137000Y-194000D02*
D03*
X-7000Y-247000D02*
D03*
X-9000Y-180750D02*
D03*
X-19500Y-129000D02*
D03*
X211000Y-152000D02*
D03*
X210000Y-120000D02*
D03*
X199000Y-165000D02*
D03*
X174000D02*
D03*
X172000Y-120000D02*
D03*
X-201000Y-508000D02*
D03*
X31000Y-524000D02*
D03*
X67000Y-447000D02*
D03*
X62000Y-452000D02*
D03*
X-201000Y-515000D02*
D03*
X211000Y-166000D02*
D03*
X186000D02*
D03*
Y-152000D02*
D03*
X188000Y-86000D02*
D03*
X199000D02*
D03*
X142000Y-102000D02*
D03*
Y-97000D02*
D03*
X123000Y-212000D02*
D03*
Y-207000D02*
D03*
Y-202000D02*
D03*
X223000Y-208000D02*
D03*
X21000Y-267000D02*
D03*
X166000Y-199000D02*
D03*
X24000Y-372000D02*
D03*
X298000Y-202000D02*
D03*
X60000Y-436000D02*
D03*
Y-430000D02*
D03*
X4000Y-249000D02*
D03*
X3000Y-205000D02*
D03*
Y-159000D02*
D03*
Y-113000D02*
D03*
X142000Y-90000D02*
D03*
X71000Y-283000D02*
D03*
X-20000Y-341000D02*
D03*
X325000Y-193000D02*
D03*
X57000Y-442000D02*
D03*
X-52000Y-476000D02*
D03*
X-303000Y-474000D02*
D03*
X-309000Y-468000D02*
D03*
X-303000Y-465000D02*
D03*
X128000Y-307000D02*
D03*
X121000D02*
D03*
X34000Y-529000D02*
D03*
X52000Y-460000D02*
D03*
X346000Y-452000D02*
D03*
X5000Y-129000D02*
D03*
Y-175000D02*
D03*
X4500Y-221000D02*
D03*
X268000Y-430000D02*
D03*
Y-417000D02*
D03*
Y-405000D02*
D03*
X-267000D02*
D03*
X-274000Y-386000D02*
D03*
Y-374000D02*
D03*
Y-363000D02*
D03*
X-275000Y-331000D02*
D03*
X-220000Y-437000D02*
D03*
X-210000D02*
D03*
X-200000D02*
D03*
X-32000D02*
D03*
X21000Y-421000D02*
D03*
X-2000Y-411000D02*
D03*
X22000Y-504000D02*
D03*
X-2000D02*
D03*
X-52000Y-492000D02*
D03*
Y-438000D02*
D03*
X-127000Y-407000D02*
D03*
X-115000Y-406000D02*
D03*
X-69000Y-411000D02*
D03*
X-109000Y-374000D02*
D03*
X-85000Y-373000D02*
D03*
X-306000Y-381000D02*
D03*
X198000Y-313000D02*
D03*
X185000D02*
D03*
X172000D02*
D03*
X-252500Y-452500D02*
D03*
X-277500D02*
D03*
X-302500D02*
D03*
X44250Y-426750D02*
D03*
X282000Y-78250D02*
D03*
X287000Y-119250D02*
D03*
X241750Y-140750D02*
D03*
X256000D02*
D03*
X287000Y-86500D02*
D03*
X256250Y-80750D02*
D03*
X280605Y-121395D02*
D03*
Y-93645D02*
D03*
X257000Y-93750D02*
D03*
Y-121500D02*
D03*
X280500Y-110250D02*
D03*
Y-104000D02*
D03*
X256750D02*
D03*
Y-110250D02*
D03*
X344500Y-382000D02*
D03*
X341250Y-397000D02*
D03*
X333750Y-434750D02*
D03*
X310750Y-431750D02*
D03*
X-248250Y-230750D02*
D03*
X-146000Y-157000D02*
D03*
X-128500Y-331250D02*
D03*
Y-323500D02*
D03*
X-144500Y-360250D02*
D03*
Y-353750D02*
D03*
X-227250Y-303500D02*
D03*
X-191500Y-311750D02*
D03*
X-162500Y-318250D02*
D03*
X-153750Y-302500D02*
D03*
X-164500Y-302750D02*
D03*
X-177500Y-317000D02*
D03*
X-182500Y-322750D02*
D03*
X-198000Y-317000D02*
D03*
X-236750Y-332500D02*
D03*
X-230000Y-331250D02*
D03*
X-236500Y-340500D02*
D03*
X-25000Y-205000D02*
D03*
Y-159000D02*
D03*
Y-113000D02*
D03*
X23000Y-198000D02*
D03*
Y-185000D02*
D03*
X-146000Y-231000D02*
D03*
X-44000D02*
D03*
Y-157000D02*
D03*
X-248000D02*
D03*
X55730Y-282730D02*
D03*
X81500Y-233000D02*
D03*
X23100Y-204350D02*
D03*
X22900Y-191650D02*
D03*
X22800Y-178950D02*
D03*
X155500Y-157750D02*
D03*
X170000Y-90000D02*
D03*
X-234250Y-380500D02*
D03*
D126*
X-348000Y-87000D02*
D03*
X-342000Y-93000D02*
D03*
X-348000D02*
D03*
X-342000Y-81000D02*
D03*
X-348000D02*
D03*
X-342000Y-87000D02*
D03*
X-310250Y-234250D02*
D03*
Y-240000D02*
D03*
X-130250Y-424250D02*
D03*
X-136000D02*
D03*
X-100000Y-350500D02*
D03*
Y-345000D02*
D03*
X-150000Y-550000D02*
D03*
X38000D02*
D03*
X59000Y-528000D02*
D03*
X-360000Y-421000D02*
D03*
Y-183000D02*
D03*
Y-292000D02*
D03*
X360000Y-317000D02*
D03*
X270000Y-159000D02*
D03*
X291000Y-175000D02*
D03*
X244000Y-70000D02*
D03*
X84000D02*
D03*
X-81000D02*
D03*
X-258000D02*
D03*
X-360000Y-90000D02*
D03*
Y-527000D02*
D03*
X-335000Y-550000D02*
D03*
X338000Y-175000D02*
D03*
X360000Y-199000D02*
D03*
Y-448000D02*
D03*
X333000Y-472000D02*
D03*
X63000Y-481000D02*
D03*
X105500Y-111250D02*
D03*
Y-105250D02*
D03*
X99500Y-111250D02*
D03*
Y-105250D02*
D03*
Y-99250D02*
D03*
X105500D02*
D03*
X30500Y-98750D02*
D03*
Y-104750D02*
D03*
X36500Y-98750D02*
D03*
Y-104750D02*
D03*
Y-110750D02*
D03*
X30500D02*
D03*
X-121000Y-152000D02*
D03*
X-117000Y-292890D02*
D03*
X-111000D02*
D03*
X-105000D02*
D03*
X-99000D02*
D03*
X-93000D02*
D03*
Y-298890D02*
D03*
X-99000D02*
D03*
X-105000D02*
D03*
X-111000D02*
D03*
X-117000D02*
D03*
X-219000Y-293000D02*
D03*
X-213000D02*
D03*
X-207000D02*
D03*
X-201000D02*
D03*
X-195000D02*
D03*
Y-299000D02*
D03*
X-201000D02*
D03*
X-207000D02*
D03*
X-213000D02*
D03*
X-219000D02*
D03*
X-321000D02*
D03*
X-315000D02*
D03*
X-309000D02*
D03*
X-303000D02*
D03*
X-297000D02*
D03*
Y-293000D02*
D03*
X-303000D02*
D03*
X-309000D02*
D03*
X-315000D02*
D03*
X-321000D02*
D03*
X-63000Y-200000D02*
D03*
X-57000D02*
D03*
X-69000D02*
D03*
X-75000D02*
D03*
X-51000D02*
D03*
X-75000Y-206000D02*
D03*
X-69000D02*
D03*
X-63000D02*
D03*
X-57000D02*
D03*
X-51000D02*
D03*
X-45000Y-200000D02*
D03*
Y-206000D02*
D03*
X-81000Y-200000D02*
D03*
Y-206000D02*
D03*
Y-194000D02*
D03*
Y-188000D02*
D03*
X-45000Y-194000D02*
D03*
Y-188000D02*
D03*
X-51000Y-194000D02*
D03*
X-57000D02*
D03*
X-63000D02*
D03*
X-69000D02*
D03*
X-75000D02*
D03*
X-51000Y-188000D02*
D03*
X-75000D02*
D03*
X-69000D02*
D03*
X-57000D02*
D03*
X-63000D02*
D03*
X-81000Y-212000D02*
D03*
X-45000D02*
D03*
X-51000D02*
D03*
X-75000D02*
D03*
X-69000D02*
D03*
X-57000D02*
D03*
X-63000D02*
D03*
X-165000Y-200000D02*
D03*
X-159000D02*
D03*
X-171000D02*
D03*
X-177000D02*
D03*
X-153000D02*
D03*
X-177000Y-206000D02*
D03*
X-171000D02*
D03*
X-165000D02*
D03*
X-159000D02*
D03*
X-153000D02*
D03*
X-147000Y-200000D02*
D03*
Y-206000D02*
D03*
X-183000Y-200000D02*
D03*
Y-206000D02*
D03*
Y-194000D02*
D03*
Y-188000D02*
D03*
X-147000Y-194000D02*
D03*
Y-188000D02*
D03*
X-153000Y-194000D02*
D03*
X-159000D02*
D03*
X-165000D02*
D03*
X-171000D02*
D03*
X-177000D02*
D03*
X-153000Y-188000D02*
D03*
X-177000D02*
D03*
X-171000D02*
D03*
X-159000D02*
D03*
X-165000D02*
D03*
X-183000Y-212000D02*
D03*
X-147000D02*
D03*
X-153000D02*
D03*
X-177000D02*
D03*
X-171000D02*
D03*
X-159000D02*
D03*
X-165000D02*
D03*
X-267000D02*
D03*
X-261000D02*
D03*
X-273000D02*
D03*
X-279000D02*
D03*
X-255000D02*
D03*
X-249000D02*
D03*
X-285000D02*
D03*
X-267000Y-188000D02*
D03*
X-261000D02*
D03*
X-273000D02*
D03*
X-279000D02*
D03*
X-255000D02*
D03*
X-279000Y-194000D02*
D03*
X-273000D02*
D03*
X-267000D02*
D03*
X-261000D02*
D03*
X-255000D02*
D03*
X-249000Y-188000D02*
D03*
Y-194000D02*
D03*
X-285000Y-188000D02*
D03*
Y-194000D02*
D03*
Y-206000D02*
D03*
Y-200000D02*
D03*
X-249000Y-206000D02*
D03*
Y-200000D02*
D03*
X-255000Y-206000D02*
D03*
X-261000D02*
D03*
X-267000D02*
D03*
X-273000D02*
D03*
X-279000D02*
D03*
X-255000Y-200000D02*
D03*
X-279000D02*
D03*
X-273000D02*
D03*
X-261000D02*
D03*
X-267000D02*
D03*
X-121000Y-134000D02*
D03*
Y-140000D02*
D03*
Y-146000D02*
D03*
Y-181000D02*
D03*
Y-175000D02*
D03*
Y-169000D02*
D03*
Y-163000D02*
D03*
Y-211000D02*
D03*
Y-205000D02*
D03*
Y-199000D02*
D03*
Y-193000D02*
D03*
Y-240000D02*
D03*
Y-234000D02*
D03*
Y-228000D02*
D03*
Y-222000D02*
D03*
X-223000Y-134000D02*
D03*
Y-140000D02*
D03*
Y-146000D02*
D03*
Y-152000D02*
D03*
Y-181000D02*
D03*
Y-175000D02*
D03*
Y-169000D02*
D03*
Y-163000D02*
D03*
Y-211000D02*
D03*
Y-205000D02*
D03*
Y-199000D02*
D03*
Y-193000D02*
D03*
Y-240000D02*
D03*
Y-234000D02*
D03*
Y-228000D02*
D03*
Y-222000D02*
D03*
X-325000D02*
D03*
Y-228000D02*
D03*
Y-234000D02*
D03*
Y-240000D02*
D03*
Y-193000D02*
D03*
Y-199000D02*
D03*
Y-205000D02*
D03*
Y-211000D02*
D03*
Y-163000D02*
D03*
Y-169000D02*
D03*
Y-175000D02*
D03*
Y-181000D02*
D03*
Y-152000D02*
D03*
Y-146000D02*
D03*
Y-140000D02*
D03*
Y-134000D02*
D03*
M02*
