M48
;Layer_Color=9474304
;FILE_FORMAT=4:4
METRIC,LZ
;TYPE=PLATED
T01F00S00C0.2000
T02F00S00C0.3000
T04F00S00C1.0000
T05F00S00C1.4000
T06F00S00C3.2000
;TYPE=NON_PLATED
T07F00S00C0.6500
T08F00S00C2.4000
%
T01
X002Y-0045
X00199Y-00405
X00206Y-00398
X00213Y-00405
X0022Y-00398
X00213Y-00391
X00199
X00206Y-00384
X00199Y-00377
X00213Y-00377
X0022Y-00384
X00192Y-00384
Y-00398
X002Y-0035
X00198Y-00313
X00242Y-00329
X0025Y-0035
X00268Y-00405
Y-00417
Y-0043
X0025Y-0045
X0026Y-00462
X0031075Y-0043175
X0033375Y-0043475
X00346Y-00452
X003445Y-00382
X0035Y-0035
X00339Y-00284
X00229Y-00217
X00166Y-00214
X00123Y-00212
Y-00207
X000815Y-00233
X00071Y-00283
X0005573Y-0028273
X00075Y-003
X00121Y-00307
X00128
X00172Y-00313
X00185
X00175Y-004
X00125
X00121Y-00462
X0015Y-0045
X00067Y-00447
X00062Y-00452
X00057Y-00442
X0006Y-00436
Y-0043
X00052Y-0046
X00031Y-00524
X00034Y-00529
X0005Y-0055
X0
X-0005
X-001
X-00075Y-005
X-00052Y-00492
Y-00476
Y-00438
X-00115Y-00406
X-00127Y-00407
X-00109Y-00374
X-00085Y-00373
X-00064Y-00332
X-00051Y-00333
X-001285Y-0033125
Y-003235
X-001625Y-0031825
X-001775Y-00317
X-001825Y-0032275
X-001915Y-0031175
X-00198Y-00317
X-001645Y-0030275
X-0015375Y-003025
X-001445Y-0035375
Y-0036025
X-0014725Y-003655
X-00202Y-00378
X-00206Y-00383
X-00202Y-00388
X-002Y-00437
X-00201Y-00508
Y-00515
X-002Y-0055
X-00175Y-005
X-00125
X-00146Y-00231
X-00044
X-00007Y-00247
X00004Y-00249
X000045Y-00221
X-00015Y-00261
X00021Y-00267
X00014Y-00279
X00011Y-00303
X00062Y-00384
X00084Y-00368
X-0021Y-00378
Y-00388
X-0023425Y-003805
X-00239125Y-00361625
X-002365Y-003405
X-0023675Y-003325
X-0023Y-0033125
X-0022725Y-003035
X-00275Y-00331
X-00274Y-00363
Y-00374
Y-00386
X-00275Y-004
X-00267Y-00405
X-002775Y-004525
X-002525
X-0022Y-00437
X-0021
X-00225Y-005
X-00275
X-00303Y-00474
Y-00465
X-00309Y-00468
X-003025Y-004525
X-00306Y-00381
X-003Y-0055
X-0025
X-0035
Y-0025
X-0024825Y-0023075
X-00248Y-00157
X-0025Y-0005
X-0035
Y-0015
X-00146Y-00157
X-00116Y-00119
X-001Y-0005
X-0005
X0
X0005
X001
X0015
X00142Y-0009
Y-00097
Y-00102
X00125Y-001
X00175
X0017Y-0009
X00188Y-00086
X00172Y-0012
X00186Y-00152
Y-00166
X00174Y-00165
X001555Y-0015775
X00166Y-00199
X00137Y-00194
X00123Y-00202
X000231Y-0020435
X00023Y-00198
X000229Y-0019165
X00023Y-00185
X000228Y-0017895
X00005Y-00175
X00003Y-00159
X-00025
X-00027Y-00149
X-00044Y-00157
X-000195Y-00129
X-00025Y-00113
X00003
X00005Y-00129
X-00009Y-0018075
X00003Y-00205
X-00025
X0005Y-0015
X00075Y-001
Y0
X-00075
X00199Y-00086
X00205682Y-00085682
X00212Y-00101
X00225Y-001
X0021Y-0012
X00211Y-00152
Y-00166
X00199Y-00165
X00242Y-00168
X00256
Y-0014075
X0024175
X00257Y-001215
X0025675Y-0011025
Y-00104
X00257Y-0009375
X0025625Y-0008075
X00282Y-0007825
X00287Y-000865
X00280605Y-00093645
X002805Y-00104
Y-0011025
X00280605Y-00121395
X00287Y-0011925
X0029275Y-001445
X00298Y-00202
X00275Y-002
X00325Y-00193
X0028975Y-0007
X003Y-0005
X0025
X00355Y00021
T02
X00333Y-00472
X0036Y-00448
Y-00317
X00044Y-00348
X-00011Y-00341
X00001Y-00324
X00006Y-00393
X00055Y-00405
X00063Y-00481
X00059Y-00528
X00038Y-0055
X00022Y-00519
Y-00511
X0001
Y-00519
X-00002
Y-00511
X0001Y-00469
X-00066Y-00437
X-0013025Y-0042425
X-00136
X-001Y-003505
Y-00345
X-00099Y-0029889
X-00093
Y-0029289
X-00099
X-00105
X-00111
X-00117
Y-0029889
X-00111
X-00105
X-00121Y-0024
Y-00234
Y-00228
Y-00222
Y-00211
X-00147Y-00212
X-00153
X-00159
X-00165
X-00171
X-00177
X-00183
X-00195Y-00293
X-00201
Y-00299
X-00195
X-00081Y-00212
X-00075
X-00069
X-00063
X-00057
X-00051
X-00045
X-0015Y-0055
X-00335
X-0036Y-00527
Y-00421
Y-00292
X-00321Y-00293
Y-00299
X-00315
X-00309
X-00303
X-00297
Y-00293
X-00303
X-00309
X-00315
X-0031025Y-0024
Y-0023425
X-00325Y-00234
Y-0024
Y-00228
Y-00222
Y-00211
X-00285Y-00212
X-00279
X-00273
X-00267
X-00261
X-00255
X-00249
X-00223Y-00211
Y-00222
Y-00228
Y-00234
Y-0024
X-00219Y-00293
X-00213
X-00207
Y-00299
X-00213
X-00219
X-00223Y-00205
Y-00199
Y-00193
Y-00181
Y-00175
Y-00169
Y-00163
Y-00152
Y-00146
Y-0014
Y-00134
X-0022Y-0011
X-00214
Y-00116
Y-00104
X-00208
Y-00098
X-00277Y-00091
X-00283
Y-00097
X-00289
Y-00091
X-00295
Y-00097
X-00301
X-00295Y-00103
X-00289
X-00295Y-00109
X-00289Y-00085
X-00283
X-00277
X-00271
X-00258Y-0007
X-00342Y-00081
X-00348
Y-00087
X-00342
Y-00093
X-00348
X-0036Y-0009
X-00325Y-00134
Y-0014
Y-00146
Y-00152
Y-00163
Y-00169
Y-00175
Y-00181
Y-00193
Y-00199
Y-00205
X-00285Y-00206
Y-002
X-00279
Y-00206
X-00273
X-00267
X-00261
Y-002
X-00267
X-00273
Y-00194
Y-00188
X-00267
X-00261
Y-00194
X-00267
X-00279
Y-00188
X-00285
Y-00194
X-00255
Y-00188
X-00249
Y-00194
Y-002
Y-00206
X-00255
Y-002
X-0036Y-00183
X-00183Y-00188
Y-00194
X-00177
Y-00188
X-00171
Y-00194
X-00165
X-00159
Y-00188
X-00165
Y-002
X-00159
Y-00206
X-00165
X-00171
Y-002
X-00177
Y-00206
X-00183
Y-002
X-00153
Y-00206
X-00147
Y-002
Y-00194
Y-00188
X-00153
Y-00194
X-00121Y-00193
Y-00199
Y-00205
Y-00181
Y-00175
Y-00169
Y-00163
Y-00152
Y-00146
Y-0014
Y-00134
X-00141Y-00121
X-00147
Y-00115
X-00141
Y-00109
Y-00103
X-00147
Y-00109
Y-00097
Y-00091
X-00141
Y-00097
X-00135
X-00147Y-00085
X-0019Y-00086
Y-00092
Y-00098
X-00196
X-00202
Y-00092
X-00196
Y-00086
X-00075Y-00084
X-00069
Y-0009
X-00063
Y-00084
X-00057
Y-0009
Y-00096
Y-00102
X-00051
Y-00096
X-00045
Y-00102
X-00039
Y-00096
Y-00108
Y-00114
X-00045
Y-00108
X-00051
X-00045Y-0012
Y-00126
Y-0009
X-00051
Y-00084
X-00063Y-00096
X-00081Y-0007
Y-00188
Y-00194
X-00075
Y-00188
X-00069
Y-00194
X-00063
X-00057
Y-00188
X-00063
Y-002
X-00057
Y-00206
X-00063
X-00069
Y-002
X-00075
Y-00206
X-00081
Y-002
X-00051
Y-00206
X-00045
Y-002
Y-00194
Y-00188
X-00051
Y-00194
X000305Y-0011075
X000365
Y-0010475
X000305
Y-0009875
X000365
X000995Y-0009925
X001055
Y-0010525
Y-0011125
X000995
Y-0010525
X00084Y-0007
X00244
X0027Y-00159
X00291Y-00175
X00338
X0036Y-00199
T04
X00198Y-00241
X002234Y-00245
X002488Y-00241
X001726Y-00245
X001472Y-00241
X001218Y-00245
X-00333Y-003246
Y-0035
Y-003754
Y-004008
Y-004262
Y-004516
Y-00477
Y-005024
T05
X-0028575Y0
X-0024765
X-0020955
X-0017145
X-0013335
X-0009525
X-0005715
X-0001905
X0001905
X0005715
X0009525
X0013335
X0017145
X0020955
X0024765
X0028575
T06
X00395Y-00255
X-00395
T07
X00315Y-001328
Y-00075
T08
X-0032975Y0
X0032975
M30
