G04*
G04 #@! TF.GenerationSoftware,Altium Limited,Altium Designer,24.1.2 (44)*
G04*
G04 Layer_Physical_Order=4*
G04 Layer_Color=16711680*
%FSLAX44Y44*%
%MOMM*%
G71*
G04*
G04 #@! TF.SameCoordinates,C2358ADC-4AF9-434A-8588-A0F146304F54*
G04*
G04*
G04 #@! TF.FilePolarity,Positive*
G04*
G01*
G75*
%ADD11C,0.2000*%
%ADD103R,1.0000X1.0000*%
%ADD106C,1.0000*%
%ADD122C,0.5000*%
%ADD123C,0.6000*%
%ADD124C,0.8000*%
%ADD125C,0.3145*%
%ADD127C,2.0000*%
%ADD129C,1.5000*%
%ADD130C,5.5000*%
%ADD131O,2.1000X1.3000*%
%ADD132O,1.9000X1.1000*%
%ADD133C,0.4500*%
%ADD134C,0.5000*%
%ADD135C,2.2000*%
%ADD136R,1.0000X1.0000*%
G36*
X350000Y37961D02*
X351769Y37961D01*
X355239Y37271D01*
X358508Y35917D01*
X361449Y33951D01*
X363951Y31449D01*
X365917Y28508D01*
X367271Y25239D01*
X367961Y21769D01*
X367961Y20000D01*
Y-55582D01*
X366732Y-56149D01*
X365461Y-56268D01*
X364363Y-54837D01*
X362587Y-53475D01*
X360519Y-52618D01*
X358301Y-52326D01*
X355801D01*
Y-60900D01*
Y-69473D01*
X358301D01*
X360519Y-69181D01*
X362587Y-68324D01*
X364363Y-66962D01*
X365461Y-65531D01*
X366732Y-65651D01*
X367961Y-66217D01*
X367961Y-141583D01*
X366733Y-142149D01*
X365461Y-142269D01*
X364363Y-140838D01*
X362587Y-139475D01*
X360519Y-138619D01*
X358301Y-138327D01*
X355801D01*
Y-146900D01*
Y-155474D01*
X358301D01*
X360519Y-155182D01*
X362587Y-154325D01*
X364363Y-152963D01*
X365461Y-151531D01*
X366733Y-151651D01*
X367961Y-152218D01*
Y-164602D01*
X367967Y-164632D01*
X367962Y-164663D01*
X367998Y-165861D01*
X368018Y-165951D01*
X368012Y-166044D01*
X368298Y-168422D01*
X368336Y-168539D01*
X368342Y-168662D01*
X368910Y-170990D01*
X368963Y-171101D01*
X368983Y-171223D01*
X369826Y-173466D01*
X369891Y-173570D01*
X369925Y-173689D01*
X371030Y-175814D01*
X371107Y-175911D01*
X371156Y-176024D01*
X372507Y-178002D01*
X372595Y-178089D01*
X372657Y-178195D01*
X374235Y-179998D01*
X374333Y-180073D01*
X374407Y-180172D01*
X376189Y-181772D01*
X376269Y-181820D01*
X376331Y-181889D01*
X377291Y-182606D01*
X377319Y-182620D01*
X377340Y-182642D01*
X417317Y-210696D01*
X418199Y-211315D01*
X419803Y-212756D01*
X421223Y-214377D01*
X422439Y-216157D01*
X423433Y-218069D01*
X424191Y-220087D01*
X424703Y-222180D01*
X424961Y-224321D01*
X424961Y-225398D01*
X424961Y-284602D01*
X424961Y-285680D01*
X424703Y-287820D01*
X424192Y-289913D01*
X423433Y-291931D01*
X422439Y-293843D01*
X421223Y-295623D01*
X419803Y-297245D01*
X418199Y-298685D01*
X417317Y-299304D01*
X417317Y-299304D01*
X377340Y-327358D01*
X377319Y-327380D01*
X377291Y-327394D01*
X376331Y-328111D01*
X376269Y-328180D01*
X376189Y-328228D01*
X374407Y-329828D01*
X374333Y-329927D01*
X374235Y-330002D01*
X372657Y-331805D01*
X372595Y-331911D01*
X372507Y-331998D01*
X371156Y-333976D01*
X371107Y-334089D01*
X371030Y-334186D01*
X369925Y-336311D01*
X369891Y-336430D01*
X369826Y-336534D01*
X368983Y-338777D01*
X368963Y-338899D01*
X368910Y-339010D01*
X368342Y-341338D01*
X368336Y-341461D01*
X368298Y-341578D01*
X368012Y-343956D01*
X368018Y-344049D01*
X367998Y-344139D01*
X367962Y-345337D01*
X367967Y-345368D01*
X367961Y-345398D01*
X367961Y-462000D01*
X367961Y-463769D01*
X367271Y-467239D01*
X365917Y-470508D01*
X363951Y-473449D01*
X361449Y-475951D01*
X358508Y-477917D01*
X355239Y-479271D01*
X351769Y-479961D01*
X80183D01*
X80133Y-479971D01*
X80083Y-479963D01*
X79085Y-480013D01*
X78938Y-480049D01*
X78787D01*
X76829Y-480439D01*
X76644Y-480516D01*
X76447Y-480555D01*
X74603Y-481319D01*
X74436Y-481430D01*
X74250Y-481507D01*
X72590Y-482616D01*
X72448Y-482758D01*
X72281Y-482870D01*
X70870Y-484281D01*
X70758Y-484448D01*
X70616Y-484590D01*
X69507Y-486250D01*
X69430Y-486436D01*
X69319Y-486603D01*
X68555Y-488447D01*
X68516Y-488644D01*
X68439Y-488829D01*
X68049Y-490787D01*
Y-490938D01*
X68012Y-491085D01*
X67963Y-492083D01*
X67971Y-492133D01*
X67961Y-492183D01*
X67961Y-540000D01*
Y-541769D01*
X67271Y-545239D01*
X65917Y-548508D01*
X63951Y-551449D01*
X61449Y-553951D01*
X58508Y-555917D01*
X55239Y-557271D01*
X51769Y-557961D01*
X50000Y-557961D01*
X-350000Y-557961D01*
X-351769Y-557961D01*
X-355239Y-557271D01*
X-358508Y-555917D01*
X-361449Y-553951D01*
X-363951Y-551450D01*
X-365917Y-548508D01*
X-367271Y-545239D01*
X-367961Y-541769D01*
Y-540000D01*
Y-345398D01*
X-367967Y-345368D01*
X-367962Y-345337D01*
X-367998Y-344139D01*
X-368019Y-344049D01*
X-368012Y-343956D01*
X-368298Y-341578D01*
X-368336Y-341461D01*
X-368342Y-341338D01*
X-368910Y-339010D01*
X-368963Y-338899D01*
X-368983Y-338777D01*
X-369826Y-336534D01*
X-369891Y-336430D01*
X-369925Y-336311D01*
X-371030Y-334185D01*
X-371107Y-334089D01*
X-371156Y-333976D01*
X-372507Y-331998D01*
X-372595Y-331911D01*
X-372657Y-331805D01*
X-374235Y-330002D01*
X-374333Y-329927D01*
X-374407Y-329828D01*
X-376189Y-328228D01*
X-376269Y-328180D01*
X-376331Y-328111D01*
X-377291Y-327394D01*
X-377319Y-327380D01*
X-377340Y-327358D01*
X-417317Y-299304D01*
X-418199Y-298685D01*
X-419803Y-297245D01*
X-421223Y-295623D01*
X-422439Y-293843D01*
X-423433Y-291931D01*
X-424192Y-289913D01*
X-424703Y-287820D01*
X-424961Y-285680D01*
Y-284602D01*
Y-225398D01*
Y-224320D01*
X-424703Y-222181D01*
X-424192Y-220087D01*
X-423433Y-218069D01*
X-422439Y-216157D01*
X-421223Y-214377D01*
X-419803Y-212755D01*
X-418199Y-211315D01*
X-417317Y-210696D01*
X-377340Y-182642D01*
X-377319Y-182620D01*
X-377291Y-182606D01*
X-376331Y-181889D01*
X-376269Y-181820D01*
X-376189Y-181772D01*
X-374407Y-180172D01*
X-374333Y-180073D01*
X-374235Y-179998D01*
X-372657Y-178195D01*
X-372595Y-178089D01*
X-372507Y-178002D01*
X-371156Y-176024D01*
X-371107Y-175911D01*
X-371030Y-175814D01*
X-369925Y-173689D01*
X-369891Y-173570D01*
X-369826Y-173466D01*
X-368983Y-171223D01*
X-368963Y-171101D01*
X-368910Y-170990D01*
X-368342Y-168662D01*
X-368336Y-168539D01*
X-368298Y-168422D01*
X-368012Y-166044D01*
X-368019Y-165951D01*
X-367998Y-165861D01*
X-367962Y-164663D01*
X-367967Y-164632D01*
X-367961Y-164602D01*
Y20000D01*
X-367961Y21769D01*
X-367271Y25239D01*
X-365917Y28508D01*
X-363951Y31449D01*
X-361450Y33951D01*
X-358508Y35917D01*
X-355239Y37271D01*
X-351769Y37961D01*
X-350000Y37961D01*
X350000Y37961D01*
D02*
G37*
%LPC*%
G36*
X211262Y13000D02*
X211050D01*
Y1500D01*
X222550D01*
Y1711D01*
X221664Y5018D01*
X219953Y7982D01*
X217532Y10403D01*
X214568Y12114D01*
X211262Y13000D01*
D02*
G37*
G36*
X208050D02*
X207838D01*
X204532Y12114D01*
X201568Y10403D01*
X199147Y7982D01*
X197436Y5018D01*
X196550Y1711D01*
Y1500D01*
X208050D01*
Y13000D01*
D02*
G37*
G36*
X20761D02*
X20550D01*
Y1500D01*
X32050D01*
Y1711D01*
X31164Y5018D01*
X29453Y7982D01*
X27032Y10403D01*
X24068Y12114D01*
X20761Y13000D01*
D02*
G37*
G36*
X17550D02*
X17339D01*
X14032Y12114D01*
X11068Y10403D01*
X8647Y7982D01*
X6936Y5018D01*
X6050Y1711D01*
Y1500D01*
X17550D01*
Y13000D01*
D02*
G37*
G36*
X222550Y-1500D02*
X211050D01*
Y-13000D01*
X211262D01*
X214568Y-12114D01*
X217532Y-10403D01*
X219953Y-7982D01*
X221664Y-5018D01*
X222550Y-1711D01*
Y-1500D01*
D02*
G37*
G36*
X208050D02*
X196550D01*
Y-1711D01*
X197436Y-5018D01*
X199147Y-7982D01*
X201568Y-10403D01*
X204532Y-12114D01*
X207838Y-13000D01*
X208050D01*
Y-1500D01*
D02*
G37*
G36*
X32050D02*
X20550D01*
Y-13000D01*
X20761D01*
X24068Y-12114D01*
X27032Y-10403D01*
X29453Y-7982D01*
X31164Y-5018D01*
X32050Y-1711D01*
Y-1500D01*
D02*
G37*
G36*
X17550D02*
X6050D01*
Y-1711D01*
X6936Y-5018D01*
X8647Y-7982D01*
X11068Y-10403D01*
X14032Y-12114D01*
X17339Y-13000D01*
X17550D01*
Y-1500D01*
D02*
G37*
G36*
X331659Y14500D02*
X327841D01*
X324153Y13512D01*
X320847Y11603D01*
X318147Y8903D01*
X316238Y5597D01*
X315250Y1909D01*
Y-1909D01*
X316238Y-5597D01*
X318147Y-8903D01*
X320847Y-11603D01*
X324153Y-13512D01*
X327841Y-14500D01*
X331659D01*
X335347Y-13512D01*
X338653Y-11603D01*
X341353Y-8903D01*
X343262Y-5597D01*
X344250Y-1909D01*
Y1909D01*
X343262Y5597D01*
X341353Y8903D01*
X338653Y11603D01*
X335347Y13512D01*
X331659Y14500D01*
D02*
G37*
G36*
X-327841D02*
X-331659D01*
X-335347Y13512D01*
X-338653Y11603D01*
X-341353Y8903D01*
X-343262Y5597D01*
X-344250Y1909D01*
Y-1909D01*
X-343262Y-5597D01*
X-341353Y-8903D01*
X-338653Y-11603D01*
X-335347Y-13512D01*
X-331659Y-14500D01*
X-327841D01*
X-324153Y-13512D01*
X-320847Y-11603D01*
X-318147Y-8903D01*
X-316238Y-5597D01*
X-315250Y-1909D01*
Y1909D01*
X-316238Y5597D01*
X-318147Y8903D01*
X-320847Y11603D01*
X-324153Y13512D01*
X-327841Y14500D01*
D02*
G37*
G36*
X287396Y12500D02*
X284104D01*
X280925Y11648D01*
X278075Y10002D01*
X275748Y7675D01*
X274102Y4825D01*
X273250Y1646D01*
Y-1646D01*
X274102Y-4825D01*
X275748Y-7675D01*
X278075Y-10002D01*
X280925Y-11648D01*
X283201Y-12258D01*
Y-37194D01*
X262944Y-57451D01*
X241277D01*
X240580Y-54951D01*
X240802Y-54802D01*
X249452Y-46152D01*
X250005Y-45325D01*
X250199Y-44350D01*
Y-12258D01*
X252475Y-11648D01*
X255325Y-10002D01*
X257652Y-7675D01*
X259298Y-4825D01*
X260150Y-1646D01*
Y1646D01*
X259298Y4825D01*
X257652Y7675D01*
X255325Y10002D01*
X252475Y11648D01*
X249296Y12500D01*
X246004D01*
X242825Y11648D01*
X239975Y10002D01*
X237647Y7675D01*
X236002Y4825D01*
X235150Y1646D01*
Y-1646D01*
X236002Y-4825D01*
X237647Y-7675D01*
X239975Y-10002D01*
X242825Y-11648D01*
X245101Y-12258D01*
Y-43294D01*
X237944Y-50451D01*
X214500D01*
X213525Y-50645D01*
X212698Y-51198D01*
X183616Y-80279D01*
X183063Y-81106D01*
X182962Y-81618D01*
X182911Y-81639D01*
X181856Y-82694D01*
X181286Y-84072D01*
Y-85564D01*
X181856Y-86942D01*
X182911Y-87997D01*
X184290Y-88568D01*
X184889D01*
X186321Y-89542D01*
X187000Y-90769D01*
Y-91496D01*
X187571Y-92874D01*
X188626Y-93929D01*
X190004Y-94500D01*
X191496D01*
X192874Y-93929D01*
X193929Y-92874D01*
X194500Y-91496D01*
Y-90004D01*
X193929Y-88626D01*
X193299Y-87996D01*
Y-82806D01*
X213556Y-62549D01*
X264000D01*
X264975Y-62355D01*
X265802Y-61802D01*
X287552Y-40052D01*
X288105Y-39225D01*
X288299Y-38250D01*
Y-12258D01*
X290575Y-11648D01*
X293425Y-10002D01*
X295753Y-7675D01*
X297398Y-4825D01*
X298250Y-1646D01*
Y1646D01*
X297398Y4825D01*
X295753Y7675D01*
X293425Y10002D01*
X290575Y11648D01*
X287396Y12500D01*
D02*
G37*
G36*
X314000Y-53335D02*
X311500D01*
Y-59399D01*
X321367D01*
X321307Y-58942D01*
X320551Y-57117D01*
X319349Y-55550D01*
X317782Y-54348D01*
X315958Y-53593D01*
X314000Y-53335D01*
D02*
G37*
G36*
X308500D02*
X306000D01*
X304042Y-53593D01*
X302217Y-54348D01*
X300651Y-55550D01*
X299448Y-57117D01*
X298693Y-58942D01*
X298632Y-59399D01*
X308500D01*
Y-53335D01*
D02*
G37*
G36*
X352800Y-52326D02*
X350300D01*
X348082Y-52618D01*
X346014Y-53475D01*
X344238Y-54837D01*
X342876Y-56613D01*
X342019Y-58681D01*
X341925Y-59399D01*
X352800D01*
Y-52326D01*
D02*
G37*
G36*
Y-62400D02*
X341925D01*
X342019Y-63119D01*
X342876Y-65186D01*
X344238Y-66962D01*
X346014Y-68324D01*
X348082Y-69181D01*
X350300Y-69473D01*
X352800D01*
Y-62400D01*
D02*
G37*
G36*
X321367D02*
X310000D01*
X298632D01*
X298693Y-62857D01*
X299448Y-64682D01*
X300651Y-66249D01*
X302217Y-67451D01*
X304042Y-68207D01*
X306000Y-68464D01*
X309869D01*
X310904Y-70964D01*
X310125Y-71743D01*
X309250Y-73856D01*
Y-76144D01*
X310125Y-78257D01*
X311743Y-79875D01*
X313856Y-80750D01*
X316144D01*
X318257Y-79875D01*
X319875Y-78257D01*
X320750Y-76144D01*
Y-73856D01*
X319875Y-71743D01*
X318257Y-70125D01*
X318057Y-70043D01*
X317862Y-68208D01*
X317975Y-67303D01*
X319349Y-66249D01*
X320551Y-64682D01*
X321307Y-62857D01*
X321367Y-62400D01*
D02*
G37*
G36*
X-122800Y14624D02*
X-142800D01*
X-143948Y14148D01*
X-148948Y9148D01*
X-149424Y8000D01*
Y-77200D01*
X-148948Y-78348D01*
X-148606Y-78690D01*
X-148542Y-79047D01*
X-148521Y-79233D01*
X-148523Y-79316D01*
X-148715Y-80421D01*
X-149235Y-81596D01*
X-149266Y-81609D01*
X-149550Y-81893D01*
X-149884Y-82116D01*
X-150107Y-82450D01*
X-150391Y-82734D01*
X-150545Y-83105D01*
X-150768Y-83439D01*
X-150846Y-83833D01*
X-151000Y-84204D01*
Y-84606D01*
X-151078Y-85000D01*
X-151078Y-85000D01*
Y-85359D01*
X-153388Y-86316D01*
X-155276Y-84427D01*
Y9000D01*
X-155752Y10148D01*
X-159752Y14148D01*
X-160900Y14624D01*
X-180900D01*
X-182048Y14148D01*
X-187048Y9148D01*
X-187524Y8000D01*
Y-80059D01*
X-187532Y-80080D01*
X-187775Y-80466D01*
X-188309Y-81040D01*
X-190000Y-81922D01*
X-192359D01*
X-193551Y-79422D01*
X-193376Y-79000D01*
Y9000D01*
X-193852Y10148D01*
X-197852Y14148D01*
X-199000Y14624D01*
X-219000D01*
X-220148Y14148D01*
X-225148Y9148D01*
X-225624Y8000D01*
Y-44328D01*
X-264690Y-83394D01*
X-264844Y-83421D01*
X-265604Y-83427D01*
X-266421Y-83285D01*
X-267596Y-82765D01*
X-267609Y-82734D01*
X-267893Y-82450D01*
X-268116Y-82116D01*
X-268450Y-81893D01*
X-268734Y-81609D01*
X-269105Y-81455D01*
X-269439Y-81232D01*
X-269833Y-81154D01*
X-270204Y-81000D01*
X-270606D01*
X-271000Y-80922D01*
X-271000Y-80922D01*
X-287522D01*
X-288541Y-78422D01*
X-269865Y-60161D01*
X-269861Y-60152D01*
X-269852Y-60148D01*
X-269617Y-59581D01*
X-269377Y-59018D01*
X-269380Y-59009D01*
X-269376Y-59000D01*
Y8000D01*
X-269852Y9148D01*
X-274852Y14148D01*
X-276000Y14624D01*
X-296000D01*
X-297148Y14148D01*
X-302148Y9148D01*
X-302624Y8000D01*
Y-22327D01*
X-353148Y-72852D01*
X-353624Y-74000D01*
Y-98000D01*
X-353148Y-99148D01*
X-352000Y-99624D01*
X-310886D01*
X-310320Y-99389D01*
X-309751Y-99161D01*
X-307568Y-97026D01*
X-306728Y-97017D01*
X-306353Y-97099D01*
X-305000Y-97796D01*
X-304846Y-98167D01*
X-304768Y-98561D01*
X-304545Y-98895D01*
X-304391Y-99266D01*
X-304107Y-99550D01*
X-303884Y-99884D01*
X-303884Y-99884D01*
X-300884Y-102884D01*
X-300884Y-102884D01*
X-299078Y-104689D01*
Y-109000D01*
X-299078Y-109000D01*
X-299000Y-109394D01*
Y-109796D01*
X-298846Y-110167D01*
X-298768Y-110561D01*
X-298545Y-110895D01*
X-298391Y-111266D01*
X-298107Y-111550D01*
X-297884Y-111884D01*
X-297550Y-112107D01*
X-297266Y-112391D01*
X-297235Y-112404D01*
X-296715Y-113579D01*
X-296523Y-114684D01*
X-296521Y-114767D01*
X-296542Y-114952D01*
X-296606Y-115310D01*
X-310148Y-128852D01*
X-310624Y-130000D01*
Y-222000D01*
X-310148Y-223148D01*
X-309000Y-223624D01*
X-253410D01*
X-252938Y-224366D01*
X-252516Y-226124D01*
X-253301Y-226909D01*
X-254157Y-228391D01*
X-254600Y-230044D01*
Y-231756D01*
X-254157Y-233409D01*
X-253301Y-234891D01*
X-252091Y-236101D01*
X-250609Y-236957D01*
X-248956Y-237400D01*
X-247244D01*
X-245591Y-236957D01*
X-244109Y-236101D01*
X-242899Y-234891D01*
X-242549Y-234285D01*
X-240049Y-234955D01*
Y-306500D01*
X-239855Y-307475D01*
X-239302Y-308302D01*
X-229683Y-317922D01*
X-230719Y-320422D01*
X-233311D01*
X-237741Y-315991D01*
X-239064Y-315107D01*
X-240625Y-314797D01*
X-240625Y-314797D01*
X-253811D01*
X-306172Y-262436D01*
Y-240000D01*
Y-234250D01*
X-306250Y-233856D01*
Y-233454D01*
X-306404Y-233083D01*
X-306482Y-232689D01*
X-306705Y-232355D01*
X-306859Y-231984D01*
X-307143Y-231700D01*
X-307366Y-231366D01*
X-307700Y-231143D01*
X-307984Y-230859D01*
X-308355Y-230705D01*
X-308689Y-230482D01*
X-309083Y-230404D01*
X-309454Y-230250D01*
X-309856D01*
X-310250Y-230172D01*
X-310644Y-230250D01*
X-311046D01*
X-311417Y-230404D01*
X-311811Y-230482D01*
X-312145Y-230705D01*
X-312516Y-230859D01*
X-312800Y-231143D01*
X-313134Y-231366D01*
X-313357Y-231700D01*
X-313641Y-231984D01*
X-313795Y-232355D01*
X-314018Y-232689D01*
X-314096Y-233083D01*
X-314250Y-233454D01*
Y-233856D01*
X-314328Y-234250D01*
Y-240000D01*
Y-264125D01*
X-314328Y-264125D01*
X-314018Y-265686D01*
X-313134Y-267009D01*
X-258384Y-321759D01*
X-258384Y-321759D01*
X-257061Y-322643D01*
X-255500Y-322953D01*
X-242314D01*
X-238718Y-326550D01*
X-238862Y-329097D01*
X-238876Y-329137D01*
X-239119Y-329566D01*
X-239929Y-330376D01*
X-240500Y-331754D01*
Y-333246D01*
X-239929Y-334624D01*
X-239773Y-334780D01*
X-239446Y-336865D01*
X-239937Y-337883D01*
X-240429Y-338376D01*
X-241000Y-339754D01*
Y-341246D01*
X-240429Y-342624D01*
X-239799Y-343254D01*
Y-349500D01*
X-239605Y-350476D01*
X-239052Y-351302D01*
X-237642Y-352713D01*
X-237954Y-353912D01*
X-238765Y-355125D01*
X-239981D01*
X-241634Y-355568D01*
X-243116Y-356424D01*
X-244326Y-357634D01*
X-245182Y-359116D01*
X-245625Y-360769D01*
Y-362481D01*
X-245182Y-364134D01*
X-244326Y-365616D01*
X-243116Y-366826D01*
X-241634Y-367682D01*
X-239981Y-368125D01*
X-238269D01*
X-236616Y-367682D01*
X-235134Y-366826D01*
X-233924Y-365616D01*
X-233068Y-364134D01*
X-232625Y-362481D01*
Y-361265D01*
X-231412Y-360454D01*
X-230213Y-360142D01*
X-222549Y-367806D01*
Y-383250D01*
X-222355Y-384226D01*
X-221802Y-385052D01*
X-216052Y-390802D01*
X-215226Y-391355D01*
X-214250Y-391549D01*
X-16000D01*
X-15024Y-391355D01*
X-14198Y-390802D01*
X44056Y-332549D01*
X142000D01*
X142976Y-332355D01*
X143802Y-331802D01*
X174056Y-301549D01*
X232944D01*
X265451Y-334056D01*
Y-384944D01*
X255198Y-395198D01*
X254645Y-396025D01*
X254451Y-397000D01*
Y-419000D01*
X254645Y-419976D01*
X255198Y-420802D01*
X264250Y-429855D01*
Y-430746D01*
X264821Y-432124D01*
X265876Y-433179D01*
X267254Y-433750D01*
X268746D01*
X270124Y-433179D01*
X271179Y-432124D01*
X271750Y-430746D01*
Y-429254D01*
X271179Y-427876D01*
X270124Y-426821D01*
X268746Y-426250D01*
X267855D01*
X259604Y-417999D01*
X259845Y-415567D01*
X262049Y-414654D01*
X264250Y-416855D01*
Y-417746D01*
X264821Y-419124D01*
X265876Y-420179D01*
X267254Y-420750D01*
X268746D01*
X270124Y-420179D01*
X271179Y-419124D01*
X271750Y-417746D01*
Y-416254D01*
X271179Y-414876D01*
X270124Y-413821D01*
X268746Y-413250D01*
X267855D01*
X265549Y-410944D01*
Y-410750D01*
X267254Y-408750D01*
X268746D01*
X270124Y-408179D01*
X270754Y-407549D01*
X274000D01*
X274975Y-407355D01*
X275802Y-406802D01*
X282802Y-399802D01*
X283355Y-398975D01*
X283549Y-398000D01*
Y-326000D01*
X283355Y-325024D01*
X282802Y-324198D01*
X242802Y-284198D01*
X241975Y-283645D01*
X241000Y-283451D01*
X164000D01*
X163612Y-283528D01*
X162160Y-281445D01*
X174402Y-269202D01*
X174955Y-268375D01*
X175149Y-267400D01*
Y-253634D01*
X176074Y-253387D01*
X178126Y-252202D01*
X179802Y-250526D01*
X180987Y-248474D01*
X181600Y-246185D01*
Y-243815D01*
X180987Y-241526D01*
X179802Y-239474D01*
X178126Y-237798D01*
X176074Y-236613D01*
X173785Y-236000D01*
X171415D01*
X169126Y-236613D01*
X167074Y-237798D01*
X165398Y-239474D01*
X164213Y-241526D01*
X163600Y-243815D01*
Y-246185D01*
X164213Y-248474D01*
X165398Y-250526D01*
X167074Y-252202D01*
X169126Y-253387D01*
X170051Y-253634D01*
Y-266344D01*
X152185Y-284210D01*
X151474Y-284090D01*
X149749Y-283111D01*
Y-249634D01*
X150674Y-249387D01*
X152726Y-248202D01*
X154402Y-246526D01*
X155587Y-244474D01*
X156200Y-242185D01*
Y-239815D01*
X155587Y-237526D01*
X154402Y-235474D01*
X152726Y-233798D01*
X150674Y-232613D01*
X148385Y-232000D01*
X146015D01*
X143726Y-232613D01*
X141674Y-233798D01*
X139998Y-235474D01*
X138813Y-237526D01*
X138200Y-239815D01*
Y-242185D01*
X138813Y-244474D01*
X139998Y-246526D01*
X141674Y-248202D01*
X143726Y-249387D01*
X144651Y-249634D01*
Y-282744D01*
X127145Y-300250D01*
X126254D01*
X124876Y-300821D01*
X123821Y-301876D01*
X123250Y-303254D01*
Y-304167D01*
X122377Y-305377D01*
X121167Y-306250D01*
X120254D01*
X118876Y-306821D01*
X117821Y-307876D01*
X117250Y-309254D01*
Y-310746D01*
X117821Y-312124D01*
X116612Y-314451D01*
X37276D01*
X36913Y-314224D01*
X35492Y-312377D01*
X35405Y-312020D01*
X35608Y-311000D01*
Y-280323D01*
X45701Y-270229D01*
X48571Y-270624D01*
X49626Y-271679D01*
X51004Y-272250D01*
X52496D01*
X53874Y-271679D01*
X54929Y-270624D01*
X55500Y-269246D01*
Y-267754D01*
X54929Y-266376D01*
X54010Y-265456D01*
X53864Y-265244D01*
X53479Y-262451D01*
X61323Y-254608D01*
X91000D01*
X93146Y-254181D01*
X94965Y-252965D01*
X120965Y-226965D01*
X122181Y-225146D01*
X122608Y-223000D01*
Y-213250D01*
Y-208500D01*
X122181Y-206354D01*
X120965Y-204535D01*
X119146Y-203319D01*
X117000Y-202892D01*
X114854Y-203319D01*
X113035Y-204535D01*
X111819Y-206354D01*
X111392Y-208500D01*
Y-220677D01*
X88677Y-243392D01*
X59000D01*
X56854Y-243819D01*
X55035Y-245035D01*
X41910Y-258160D01*
X26035Y-274035D01*
X24819Y-275854D01*
X24392Y-278000D01*
Y-289018D01*
X21892Y-290054D01*
X19955Y-288116D01*
X18632Y-287232D01*
X17071Y-286922D01*
X17071Y-286922D01*
X9689D01*
X9078Y-286311D01*
Y-272589D01*
X16000Y-265667D01*
X16779Y-265692D01*
X18780Y-266423D01*
X19071Y-267124D01*
X20126Y-268179D01*
X21504Y-268750D01*
X22996D01*
X24374Y-268179D01*
X25429Y-267124D01*
X26000Y-265746D01*
Y-264855D01*
X94306Y-196549D01*
X125580D01*
X129141Y-200109D01*
X129141Y-200109D01*
X140334Y-211302D01*
X141161Y-211855D01*
X142136Y-212049D01*
X194500D01*
X195476Y-211855D01*
X196302Y-211302D01*
X216056Y-191549D01*
X261944D01*
X265451Y-195056D01*
Y-211944D01*
X262944Y-214451D01*
X256100D01*
Y-210500D01*
X231400D01*
Y-211229D01*
X229746Y-213250D01*
X228254D01*
X226876Y-213821D01*
X225821Y-214876D01*
X225250Y-216254D01*
Y-217746D01*
X225821Y-219124D01*
X226876Y-220179D01*
X228254Y-220750D01*
X229746D01*
X231400Y-222771D01*
Y-223500D01*
X256100D01*
Y-219549D01*
X264000D01*
X264975Y-219355D01*
X265802Y-218802D01*
X269802Y-214802D01*
X270355Y-213975D01*
X270549Y-213000D01*
Y-194000D01*
X270355Y-193025D01*
X269802Y-192198D01*
X266654Y-189049D01*
X267689Y-186549D01*
X314944D01*
X321250Y-192855D01*
Y-193746D01*
X321821Y-195124D01*
X322876Y-196179D01*
X324254Y-196750D01*
X325746D01*
X327124Y-196179D01*
X328179Y-195124D01*
X328750Y-193746D01*
Y-192254D01*
X328179Y-190876D01*
X327124Y-189821D01*
X325746Y-189250D01*
X324855D01*
X317802Y-182198D01*
X316975Y-181645D01*
X316000Y-181451D01*
X209000D01*
X208025Y-181645D01*
X207198Y-182198D01*
X186944Y-202451D01*
X168019D01*
X167516Y-201948D01*
X166689Y-201395D01*
X165713Y-201201D01*
X146754D01*
X146124Y-200571D01*
X144746Y-200000D01*
X143254D01*
X141876Y-200571D01*
X140821Y-201626D01*
X138042Y-201801D01*
X134548Y-198307D01*
X150806Y-182049D01*
X174500D01*
X175476Y-181855D01*
X176302Y-181302D01*
X181556Y-176049D01*
X201250D01*
X202225Y-175855D01*
X203052Y-175302D01*
X207052Y-171302D01*
X207605Y-170476D01*
X207799Y-169500D01*
Y-162306D01*
X211802Y-158302D01*
X212355Y-157476D01*
X212549Y-156500D01*
Y-154504D01*
X213429Y-153624D01*
X214000Y-152246D01*
Y-150754D01*
X213429Y-149376D01*
X212374Y-148321D01*
X210996Y-147750D01*
X209504D01*
X208126Y-148321D01*
X208000Y-148447D01*
X205500Y-147411D01*
Y-140800D01*
Y-132104D01*
X205502Y-132102D01*
X211802Y-125802D01*
X212355Y-124976D01*
X212549Y-124000D01*
Y-122754D01*
X213179Y-122124D01*
X213750Y-120746D01*
Y-119254D01*
X213179Y-117876D01*
X212124Y-116821D01*
X210746Y-116250D01*
X209254D01*
X207876Y-116821D01*
X206821Y-117876D01*
X206250Y-119254D01*
Y-120746D01*
X206821Y-122124D01*
X207451Y-122754D01*
Y-122944D01*
X202595Y-127800D01*
X192500D01*
Y-140800D01*
Y-152500D01*
X196451D01*
Y-162246D01*
X195821Y-162876D01*
X195250Y-164254D01*
Y-165746D01*
X195821Y-167124D01*
X196876Y-168179D01*
X197532Y-168451D01*
X197035Y-170951D01*
X183049D01*
Y-156806D01*
X184605Y-155250D01*
X185496D01*
X186874Y-154679D01*
X187929Y-153624D01*
X188500Y-152246D01*
Y-150754D01*
X187929Y-149376D01*
X186874Y-148321D01*
X185496Y-147750D01*
X184004D01*
X182626Y-148321D01*
X181571Y-149376D01*
X181000Y-150754D01*
X178551Y-150631D01*
X178500Y-150610D01*
Y-141500D01*
Y-128500D01*
X174549D01*
Y-122754D01*
X175179Y-122124D01*
X175750Y-120746D01*
Y-119254D01*
X175179Y-117876D01*
X174124Y-116821D01*
X173493Y-116560D01*
X172757Y-114454D01*
X172761Y-113756D01*
X175439Y-111078D01*
X192000D01*
X192000Y-111078D01*
X193561Y-110768D01*
X194884Y-109884D01*
X208566Y-96202D01*
X209450Y-94879D01*
X209760Y-93318D01*
X209760Y-93318D01*
Y-85682D01*
X209450Y-84121D01*
X208566Y-82798D01*
X207243Y-81914D01*
X205682Y-81604D01*
X204121Y-81914D01*
X202798Y-82798D01*
X201914Y-84121D01*
X201604Y-85682D01*
Y-91629D01*
X190311Y-102922D01*
X173750D01*
X172189Y-103232D01*
X170866Y-104116D01*
X170866Y-104116D01*
X124059Y-150924D01*
X123604Y-151016D01*
X123577Y-150998D01*
X122181Y-148646D01*
X122608Y-146500D01*
Y-139073D01*
X153465Y-108215D01*
X154681Y-106396D01*
X155108Y-104250D01*
Y-94000D01*
X154681Y-91854D01*
X154182Y-91108D01*
X155487Y-88608D01*
X161750D01*
X163896Y-88181D01*
X165715Y-86965D01*
X175415Y-77265D01*
X176631Y-75446D01*
X177058Y-73300D01*
Y-11196D01*
X179125Y-10002D01*
X181453Y-7675D01*
X183098Y-4825D01*
X183950Y-1646D01*
Y1646D01*
X183098Y4825D01*
X181453Y7675D01*
X179125Y10002D01*
X176275Y11648D01*
X173096Y12500D01*
X169804D01*
X166625Y11648D01*
X163775Y10002D01*
X161448Y7675D01*
X159802Y4825D01*
X158950Y1646D01*
Y-1646D01*
X159802Y-4825D01*
X161448Y-7675D01*
X163775Y-10002D01*
X165842Y-11196D01*
Y-70977D01*
X159427Y-77392D01*
X152500D01*
X150354Y-77819D01*
X148535Y-79035D01*
X147319Y-80854D01*
X146892Y-83000D01*
X147319Y-85146D01*
X147986Y-86144D01*
X147420Y-88542D01*
X147106Y-88985D01*
X145535Y-90035D01*
X144319Y-91854D01*
X143892Y-94000D01*
Y-101927D01*
X113035Y-132785D01*
X111819Y-134604D01*
X111392Y-136750D01*
Y-146500D01*
X111819Y-148646D01*
X112838Y-150172D01*
X112503Y-151445D01*
X111837Y-152672D01*
X35929D01*
X34368Y-152982D01*
X33045Y-153866D01*
X33045Y-153866D01*
X30116Y-156795D01*
X29232Y-158118D01*
X28922Y-159679D01*
X28922Y-159679D01*
Y-241210D01*
X19898Y-250234D01*
X17588Y-249277D01*
Y-110162D01*
X20088Y-109664D01*
X20455Y-110550D01*
X22298Y-112952D01*
X24700Y-114795D01*
X27498Y-115954D01*
X30500Y-116349D01*
X36500D01*
X39502Y-115954D01*
X42300Y-114795D01*
X44702Y-112952D01*
X46545Y-110550D01*
X47704Y-107752D01*
X48099Y-104750D01*
Y-98750D01*
Y-90805D01*
X103069Y-35835D01*
X103069Y-35835D01*
X104913Y-33432D01*
X106071Y-30635D01*
X106467Y-27633D01*
X106467Y-27633D01*
Y-5572D01*
X106898Y-4825D01*
X107750Y-1646D01*
Y1646D01*
X106898Y4825D01*
X105253Y7675D01*
X102925Y10002D01*
X100075Y11648D01*
X96896Y12500D01*
X93604D01*
X90425Y11648D01*
X87575Y10002D01*
X85247Y7675D01*
X83602Y4825D01*
X82750Y1646D01*
Y-1646D01*
X83268Y-3579D01*
Y-22828D01*
X28298Y-77798D01*
X28298Y-77798D01*
X22298Y-83798D01*
X20455Y-86200D01*
X19975Y-87359D01*
X17588Y-86588D01*
Y-67901D01*
X60394Y-25094D01*
X61389Y-23606D01*
X61738Y-21850D01*
Y-11712D01*
X61975Y-11648D01*
X64825Y-10002D01*
X67153Y-7675D01*
X68798Y-4825D01*
X69650Y-1646D01*
Y1646D01*
X68798Y4825D01*
X67153Y7675D01*
X64825Y10002D01*
X61975Y11648D01*
X58796Y12500D01*
X55504D01*
X52325Y11648D01*
X49475Y10002D01*
X47147Y7675D01*
X45502Y4825D01*
X44650Y1646D01*
Y-1646D01*
X45502Y-4825D01*
X47147Y-7675D01*
X49475Y-10002D01*
X52325Y-11648D01*
X52562Y-11712D01*
Y-19950D01*
X9756Y-62756D01*
X8761Y-64244D01*
X8412Y-66000D01*
Y-110337D01*
X6013Y-110858D01*
X5912Y-110859D01*
X4874Y-109821D01*
X3496Y-109250D01*
X2004D01*
X1049Y-109646D01*
X-544Y-109000D01*
X-1451Y-108362D01*
Y-81000D01*
X-1645Y-80025D01*
X-2198Y-79198D01*
X-16501Y-64894D01*
Y-12258D01*
X-14225Y-11648D01*
X-11375Y-10002D01*
X-9047Y-7675D01*
X-7402Y-4825D01*
X-6550Y-1646D01*
Y1646D01*
X-7402Y4825D01*
X-9047Y7675D01*
X-11375Y10002D01*
X-14225Y11648D01*
X-17404Y12500D01*
X-20696D01*
X-23875Y11648D01*
X-26725Y10002D01*
X-29053Y7675D01*
X-30698Y4825D01*
X-31550Y1646D01*
Y-1646D01*
X-30698Y-4825D01*
X-29053Y-7675D01*
X-26725Y-10002D01*
X-23875Y-11648D01*
X-21599Y-12258D01*
Y-65950D01*
X-21405Y-66926D01*
X-20852Y-67752D01*
X-6549Y-82056D01*
Y-175000D01*
X-8254Y-177000D01*
X-9746D01*
X-11124Y-177571D01*
X-12179Y-178626D01*
X-12750Y-180004D01*
X-13000Y-180025D01*
X-15500Y-177743D01*
Y-166500D01*
X-22451D01*
Y-161754D01*
X-21821Y-161124D01*
X-21250Y-159746D01*
Y-158855D01*
X-12698Y-150302D01*
X-12145Y-149475D01*
X-11951Y-148500D01*
Y-93500D01*
X-12145Y-92525D01*
X-12698Y-91698D01*
X-54601Y-49794D01*
Y-12258D01*
X-52325Y-11648D01*
X-49475Y-10002D01*
X-47147Y-7675D01*
X-45502Y-4825D01*
X-44650Y-1646D01*
Y1646D01*
X-45502Y4825D01*
X-47147Y7675D01*
X-49475Y10002D01*
X-52325Y11648D01*
X-55504Y12500D01*
X-58796D01*
X-61975Y11648D01*
X-64825Y10002D01*
X-67153Y7675D01*
X-68798Y4825D01*
X-69650Y1646D01*
Y-1646D01*
X-68798Y-4825D01*
X-67153Y-7675D01*
X-64825Y-10002D01*
X-61975Y-11648D01*
X-59699Y-12258D01*
Y-50850D01*
X-59505Y-51825D01*
X-58952Y-52652D01*
X-17049Y-94556D01*
Y-123250D01*
X-18754Y-125250D01*
X-20246D01*
X-21624Y-125821D01*
X-22000Y-126197D01*
X-24500Y-125236D01*
Y-121505D01*
X-23198Y-120202D01*
X-22645Y-119375D01*
X-22451Y-118400D01*
Y-115754D01*
X-21821Y-115124D01*
X-21250Y-113746D01*
Y-112254D01*
X-21821Y-110876D01*
X-22451Y-110246D01*
Y-102250D01*
X-22645Y-101274D01*
X-23198Y-100448D01*
X-92701Y-30944D01*
Y-12258D01*
X-90425Y-11648D01*
X-87575Y-10002D01*
X-85247Y-7675D01*
X-83602Y-4825D01*
X-82750Y-1646D01*
Y1646D01*
X-83602Y4825D01*
X-85247Y7675D01*
X-87575Y10002D01*
X-90425Y11648D01*
X-93604Y12500D01*
X-96896D01*
X-100075Y11648D01*
X-102925Y10002D01*
X-105253Y7675D01*
X-106898Y4825D01*
X-107750Y1646D01*
Y-1646D01*
X-106898Y-4825D01*
X-105253Y-7675D01*
X-102925Y-10002D01*
X-100075Y-11648D01*
X-97799Y-12258D01*
Y-32000D01*
X-97605Y-32975D01*
X-97052Y-33802D01*
X-53433Y-77422D01*
X-54469Y-79922D01*
X-75000D01*
X-75000Y-79922D01*
X-75394Y-80000D01*
X-75796D01*
X-76167Y-80154D01*
X-76561Y-80232D01*
X-76895Y-80455D01*
X-77266Y-80609D01*
X-77550Y-80893D01*
X-77884Y-81116D01*
X-78107Y-81450D01*
X-78391Y-81734D01*
X-78404Y-81765D01*
X-79579Y-82285D01*
X-80684Y-82477D01*
X-80767Y-82479D01*
X-80953Y-82458D01*
X-81310Y-82394D01*
X-117176Y-46528D01*
Y9000D01*
X-117652Y10148D01*
X-121652Y14148D01*
X-122800Y14624D01*
D02*
G37*
G36*
X274000Y-74172D02*
X272439Y-74482D01*
X271116Y-75366D01*
X269811Y-76672D01*
X256250D01*
X254689Y-76982D01*
X253366Y-77866D01*
X252482Y-79189D01*
X252172Y-80750D01*
X252482Y-82311D01*
X253366Y-83634D01*
X254689Y-84518D01*
X256250Y-84828D01*
X271500D01*
X271500Y-84828D01*
X273061Y-84518D01*
X274384Y-83634D01*
X275689Y-82328D01*
X282000D01*
X282416Y-82246D01*
X283456Y-83822D01*
X283758Y-84528D01*
X283250Y-85754D01*
Y-87246D01*
X283821Y-88624D01*
X284451Y-89254D01*
Y-97260D01*
X281951Y-98919D01*
X281544Y-98750D01*
X279456D01*
X278037Y-99338D01*
X259213D01*
X257794Y-98750D01*
X255706D01*
X253776Y-99549D01*
X252299Y-101026D01*
X251500Y-102956D01*
Y-105044D01*
X252299Y-106974D01*
X252450Y-107125D01*
X252299Y-107276D01*
X251500Y-109206D01*
Y-111294D01*
X252299Y-113224D01*
X253776Y-114701D01*
X255706Y-115500D01*
X257794D01*
X259213Y-114912D01*
X278037D01*
X279456Y-115500D01*
X281544D01*
X282171Y-115240D01*
X283467Y-116722D01*
X283752Y-117291D01*
X283250Y-118504D01*
Y-119996D01*
X283821Y-121374D01*
X284876Y-122429D01*
X286254Y-123000D01*
X286604D01*
X287451Y-123847D01*
Y-131194D01*
X280444Y-138201D01*
X258754D01*
X258124Y-137571D01*
X256746Y-137000D01*
X255254D01*
X253876Y-137571D01*
X252821Y-138626D01*
X252250Y-140004D01*
Y-141496D01*
X250892Y-143556D01*
X248324Y-143719D01*
X245500Y-140895D01*
Y-140004D01*
X244929Y-138626D01*
X243874Y-137571D01*
X242496Y-137000D01*
X241004D01*
X239626Y-137571D01*
X238571Y-138626D01*
X238000Y-140004D01*
Y-141496D01*
X238571Y-142874D01*
X239626Y-143929D01*
X241004Y-144500D01*
X241895D01*
X245698Y-148302D01*
X246525Y-148855D01*
X247500Y-149049D01*
X280700D01*
X281675Y-148855D01*
X282502Y-148302D01*
X295302Y-135502D01*
X295855Y-134675D01*
X296049Y-133700D01*
Y-105500D01*
X295855Y-104525D01*
X295302Y-103698D01*
X289549Y-97944D01*
Y-89254D01*
X290179Y-88624D01*
X290750Y-87246D01*
Y-85754D01*
X290179Y-84376D01*
X289124Y-83321D01*
X287746Y-82750D01*
X286622D01*
X285790Y-81569D01*
X285347Y-80440D01*
X285768Y-79811D01*
X286078Y-78250D01*
X285768Y-76689D01*
X284884Y-75366D01*
X283561Y-74482D01*
X282000Y-74172D01*
X274000D01*
X274000Y-74172D01*
D02*
G37*
G36*
X134996Y12500D02*
X131704D01*
X128525Y11648D01*
X125675Y10002D01*
X123348Y7675D01*
X121702Y4825D01*
X120850Y1646D01*
Y-1646D01*
X121702Y-4825D01*
X121751Y-4910D01*
Y-43345D01*
X97298Y-67798D01*
X97298Y-67798D01*
X91298Y-73798D01*
X89455Y-76200D01*
X88296Y-78998D01*
X87901Y-82000D01*
X87901Y-82000D01*
Y-99250D01*
Y-105250D01*
X88296Y-108252D01*
X89455Y-111050D01*
X91298Y-113452D01*
X93700Y-115295D01*
X96498Y-116454D01*
X99500Y-116849D01*
X105500D01*
X108502Y-116454D01*
X111300Y-115295D01*
X113702Y-113452D01*
X115545Y-111050D01*
X116704Y-108252D01*
X117099Y-105250D01*
Y-99250D01*
Y-80805D01*
X141552Y-56352D01*
X141552Y-56352D01*
X143395Y-53950D01*
X144554Y-51152D01*
X144949Y-48150D01*
X144949Y-48150D01*
Y-4909D01*
X144998Y-4825D01*
X145850Y-1646D01*
Y1646D01*
X144998Y4825D01*
X143352Y7675D01*
X141025Y10002D01*
X138175Y11648D01*
X134996Y12500D01*
D02*
G37*
G36*
X316144Y-127050D02*
X313856D01*
X311743Y-127925D01*
X310125Y-129543D01*
X309250Y-131656D01*
Y-133944D01*
X310125Y-136057D01*
X310904Y-136836D01*
X309869Y-139336D01*
X306000D01*
X304042Y-139593D01*
X302217Y-140349D01*
X300651Y-141551D01*
X299448Y-143118D01*
X298693Y-144942D01*
X298632Y-145400D01*
X310000D01*
X321367D01*
X321307Y-144942D01*
X320551Y-143118D01*
X319349Y-141551D01*
X317975Y-140497D01*
X317862Y-139592D01*
X318057Y-137757D01*
X318257Y-137674D01*
X319875Y-136057D01*
X320750Y-133944D01*
Y-131656D01*
X319875Y-129543D01*
X318257Y-127925D01*
X316144Y-127050D01*
D02*
G37*
G36*
X352801Y-138327D02*
X350300D01*
X348082Y-138619D01*
X346014Y-139475D01*
X344238Y-140838D01*
X342876Y-142614D01*
X342019Y-144681D01*
X341925Y-145400D01*
X352801D01*
Y-138327D01*
D02*
G37*
G36*
X321367Y-148400D02*
X311500D01*
Y-154465D01*
X314000D01*
X315958Y-154207D01*
X317782Y-153451D01*
X319349Y-152249D01*
X320551Y-150683D01*
X321307Y-148858D01*
X321367Y-148400D01*
D02*
G37*
G36*
X308500D02*
X298632D01*
X298693Y-148858D01*
X299448Y-150683D01*
X300651Y-152249D01*
X302217Y-153451D01*
X304042Y-154207D01*
X306000Y-154465D01*
X308500D01*
Y-148400D01*
D02*
G37*
G36*
X352801Y-148400D02*
X341925D01*
X342019Y-149119D01*
X342876Y-151187D01*
X344238Y-152963D01*
X346014Y-154325D01*
X348082Y-155182D01*
X350300Y-155474D01*
X352801D01*
Y-148400D01*
D02*
G37*
G36*
X224900Y-235567D02*
Y-243500D01*
X232833D01*
X232253Y-241333D01*
X231002Y-239167D01*
X229233Y-237398D01*
X227067Y-236147D01*
X224900Y-235567D01*
D02*
G37*
G36*
X221900D02*
X219733Y-236147D01*
X217567Y-237398D01*
X215798Y-239167D01*
X214548Y-241333D01*
X213967Y-243500D01*
X221900D01*
Y-235567D01*
D02*
G37*
G36*
X249985Y-232000D02*
X247615D01*
X245326Y-232613D01*
X243274Y-233798D01*
X241598Y-235474D01*
X240413Y-237526D01*
X239800Y-239815D01*
Y-242185D01*
X240413Y-244474D01*
X241598Y-246526D01*
X243274Y-248202D01*
X245326Y-249387D01*
X247615Y-250000D01*
X249985D01*
X252274Y-249387D01*
X254326Y-248202D01*
X256002Y-246526D01*
X257187Y-244474D01*
X257800Y-242185D01*
Y-239815D01*
X257187Y-237526D01*
X256002Y-235474D01*
X254326Y-233798D01*
X252274Y-232613D01*
X249985Y-232000D01*
D02*
G37*
G36*
X199185D02*
X196815D01*
X194526Y-232613D01*
X192474Y-233798D01*
X190798Y-235474D01*
X189613Y-237526D01*
X189000Y-239815D01*
Y-242185D01*
X189613Y-244474D01*
X190798Y-246526D01*
X192474Y-248202D01*
X194526Y-249387D01*
X196815Y-250000D01*
X199185D01*
X201474Y-249387D01*
X203526Y-248202D01*
X205202Y-246526D01*
X206387Y-244474D01*
X207000Y-242185D01*
Y-239815D01*
X206387Y-237526D01*
X205202Y-235474D01*
X203526Y-233798D01*
X201474Y-232613D01*
X199185Y-232000D01*
D02*
G37*
G36*
X122985Y-236000D02*
X120615D01*
X118326Y-236613D01*
X116274Y-237798D01*
X114598Y-239474D01*
X113413Y-241526D01*
X112800Y-243815D01*
Y-246185D01*
X113413Y-248474D01*
X114598Y-250526D01*
X116274Y-252202D01*
X118326Y-253387D01*
X120615Y-254000D01*
X122985D01*
X125274Y-253387D01*
X127326Y-252202D01*
X129002Y-250526D01*
X130187Y-248474D01*
X130800Y-246185D01*
Y-243815D01*
X130187Y-241526D01*
X129002Y-239474D01*
X127326Y-237798D01*
X125274Y-236613D01*
X122985Y-236000D01*
D02*
G37*
G36*
X232833Y-246500D02*
X224900D01*
Y-254433D01*
X227067Y-253853D01*
X229233Y-252602D01*
X231002Y-250833D01*
X232253Y-248667D01*
X232833Y-246500D01*
D02*
G37*
G36*
X221900D02*
X213967D01*
X214548Y-248667D01*
X215798Y-250833D01*
X217567Y-252602D01*
X219733Y-253853D01*
X221900Y-254433D01*
Y-246500D01*
D02*
G37*
G36*
X198746Y-309250D02*
X197254D01*
X195876Y-309821D01*
X194821Y-310876D01*
X194250Y-312254D01*
Y-313746D01*
X194821Y-315124D01*
X195451Y-315754D01*
Y-325944D01*
X174444Y-346951D01*
X171920D01*
X170963Y-344641D01*
X186802Y-328802D01*
X187355Y-327975D01*
X187549Y-327000D01*
Y-315754D01*
X188179Y-315124D01*
X188750Y-313746D01*
Y-312254D01*
X188179Y-310876D01*
X187124Y-309821D01*
X185746Y-309250D01*
X184254D01*
X182876Y-309821D01*
X181821Y-310876D01*
X181250Y-312254D01*
Y-313746D01*
X181821Y-315124D01*
X182451Y-315754D01*
Y-325944D01*
X164944Y-343451D01*
X162420D01*
X161463Y-341141D01*
X173802Y-328802D01*
X174355Y-327975D01*
X174549Y-327000D01*
Y-315754D01*
X175179Y-315124D01*
X175750Y-313746D01*
Y-312254D01*
X175179Y-310876D01*
X174124Y-309821D01*
X172746Y-309250D01*
X171254D01*
X169876Y-309821D01*
X168821Y-310876D01*
X168250Y-312254D01*
Y-313746D01*
X168821Y-315124D01*
X169451Y-315754D01*
Y-325944D01*
X155444Y-339951D01*
X78550D01*
X77575Y-340145D01*
X76748Y-340698D01*
X-32506Y-449951D01*
X-82080D01*
X-83037Y-447641D01*
X-74944Y-439549D01*
X-69108D01*
X-68266Y-440391D01*
X-66796Y-441000D01*
X-65204D01*
X-63734Y-440391D01*
X-62609Y-439266D01*
X-62000Y-437796D01*
Y-436204D01*
X-62609Y-434734D01*
X-63451Y-433892D01*
Y-430250D01*
X-63645Y-429275D01*
X-64198Y-428448D01*
X-73948Y-418698D01*
X-74775Y-418145D01*
X-75750Y-417951D01*
X-100996D01*
X-101626Y-417321D01*
X-103004Y-416750D01*
X-104496D01*
X-105874Y-417321D01*
X-106929Y-418376D01*
X-107500Y-419754D01*
Y-421246D01*
X-106929Y-422624D01*
X-105874Y-423679D01*
X-104496Y-424250D01*
X-103004D01*
X-101626Y-423679D01*
X-100996Y-423049D01*
X-76806D01*
X-68549Y-431306D01*
Y-433892D01*
X-69108Y-434451D01*
X-76000D01*
X-76975Y-434645D01*
X-77802Y-435198D01*
X-89056Y-446451D01*
X-236944D01*
X-240198Y-443198D01*
X-241024Y-442645D01*
X-242000Y-442451D01*
X-311944D01*
X-317198Y-437198D01*
X-318025Y-436645D01*
X-319000Y-436451D01*
X-327755D01*
X-328425Y-433951D01*
X-327474Y-433402D01*
X-325798Y-431726D01*
X-324613Y-429674D01*
X-324000Y-427385D01*
Y-425015D01*
X-324613Y-422726D01*
X-325798Y-420674D01*
X-327474Y-418998D01*
X-329526Y-417813D01*
X-331815Y-417200D01*
X-334185D01*
X-336474Y-417813D01*
X-338526Y-418998D01*
X-340202Y-420674D01*
X-340951Y-421972D01*
X-343451Y-421302D01*
Y-405698D01*
X-340951Y-405028D01*
X-340202Y-406326D01*
X-338526Y-408002D01*
X-336474Y-409187D01*
X-334185Y-409800D01*
X-331815D01*
X-329526Y-409187D01*
X-327474Y-408002D01*
X-325798Y-406326D01*
X-324613Y-404274D01*
X-324000Y-401985D01*
Y-399615D01*
X-324613Y-397326D01*
X-325798Y-395274D01*
X-327474Y-393598D01*
X-329526Y-392413D01*
X-331815Y-391800D01*
X-334185D01*
X-336474Y-392413D01*
X-338526Y-393598D01*
X-340202Y-395274D01*
X-340951Y-396572D01*
X-343451Y-395902D01*
Y-380298D01*
X-340951Y-379628D01*
X-340202Y-380926D01*
X-338526Y-382602D01*
X-336474Y-383787D01*
X-334185Y-384400D01*
X-331815D01*
X-329526Y-383787D01*
X-327474Y-382602D01*
X-325798Y-380926D01*
X-324613Y-378874D01*
X-324000Y-376585D01*
Y-374215D01*
X-324613Y-371926D01*
X-325798Y-369874D01*
X-327474Y-368198D01*
X-329526Y-367013D01*
X-331815Y-366400D01*
X-334185D01*
X-336474Y-367013D01*
X-338526Y-368198D01*
X-340202Y-369874D01*
X-340951Y-371172D01*
X-343451Y-370502D01*
Y-355898D01*
X-340951Y-355228D01*
X-340602Y-355833D01*
X-338833Y-357602D01*
X-336667Y-358853D01*
X-334500Y-359433D01*
Y-350000D01*
Y-340567D01*
X-336667Y-341147D01*
X-338833Y-342398D01*
X-340602Y-344167D01*
X-340951Y-344772D01*
X-343451Y-344102D01*
Y-338656D01*
X-337303Y-332508D01*
X-336474Y-332987D01*
X-334185Y-333600D01*
X-331815D01*
X-329526Y-332987D01*
X-327474Y-331802D01*
X-325798Y-330126D01*
X-324613Y-328074D01*
X-324000Y-325785D01*
Y-323415D01*
X-324613Y-321126D01*
X-325798Y-319074D01*
X-327474Y-317398D01*
X-329526Y-316213D01*
X-331815Y-315600D01*
X-334185D01*
X-336474Y-316213D01*
X-338526Y-317398D01*
X-340202Y-319074D01*
X-341387Y-321126D01*
X-342000Y-323415D01*
Y-325785D01*
X-341387Y-328074D01*
X-340908Y-328903D01*
X-347802Y-335798D01*
X-348355Y-336624D01*
X-348549Y-337600D01*
Y-435000D01*
X-348355Y-435975D01*
X-347802Y-436802D01*
X-343802Y-440802D01*
X-342975Y-441355D01*
X-342000Y-441549D01*
X-338591D01*
X-337921Y-444049D01*
X-338526Y-444398D01*
X-340202Y-446074D01*
X-341387Y-448126D01*
X-342000Y-450415D01*
Y-452785D01*
X-341387Y-455074D01*
X-340202Y-457126D01*
X-338526Y-458802D01*
X-336474Y-459987D01*
X-334185Y-460600D01*
X-331815D01*
X-329526Y-459987D01*
X-328697Y-459508D01*
X-322549Y-465656D01*
Y-472102D01*
X-325049Y-472772D01*
X-325798Y-471474D01*
X-327474Y-469798D01*
X-329526Y-468613D01*
X-331815Y-468000D01*
X-334185D01*
X-336474Y-468613D01*
X-338526Y-469798D01*
X-340202Y-471474D01*
X-341387Y-473526D01*
X-342000Y-475815D01*
Y-478185D01*
X-341387Y-480474D01*
X-340202Y-482526D01*
X-338526Y-484202D01*
X-336474Y-485387D01*
X-334185Y-486000D01*
X-331815D01*
X-329526Y-485387D01*
X-328697Y-484908D01*
X-296802Y-516802D01*
X-295975Y-517355D01*
X-295000Y-517549D01*
X-203754D01*
X-203124Y-518179D01*
X-201746Y-518750D01*
X-200254D01*
X-198876Y-518179D01*
X-197821Y-517124D01*
X-197250Y-515746D01*
Y-514254D01*
X-197821Y-512876D01*
X-198676Y-511500D01*
X-197821Y-510124D01*
X-197250Y-508746D01*
Y-507254D01*
X-197821Y-505876D01*
X-198876Y-504821D01*
X-200254Y-504250D01*
X-201746D01*
X-203124Y-504821D01*
X-203754Y-505451D01*
X-210000D01*
X-210975Y-505645D01*
X-211802Y-506198D01*
X-214556Y-508951D01*
X-292495D01*
X-317451Y-483994D01*
Y-464600D01*
X-317645Y-463624D01*
X-318198Y-462798D01*
X-325092Y-455903D01*
X-324613Y-455074D01*
X-324000Y-452785D01*
Y-450415D01*
X-324613Y-448126D01*
X-325798Y-446074D01*
X-327474Y-444398D01*
X-328079Y-444049D01*
X-327409Y-441549D01*
X-320056D01*
X-314802Y-446802D01*
X-313975Y-447355D01*
X-313000Y-447549D01*
X-306382D01*
X-305352Y-450049D01*
X-305679Y-450376D01*
X-306250Y-451754D01*
Y-453246D01*
X-305679Y-454624D01*
X-304624Y-455679D01*
X-303246Y-456250D01*
X-301754D01*
X-300376Y-455679D01*
X-299746Y-455049D01*
X-295556D01*
X-291713Y-458891D01*
X-292670Y-461201D01*
X-299996D01*
X-300626Y-460571D01*
X-302004Y-460000D01*
X-303496D01*
X-304874Y-460571D01*
X-305929Y-461626D01*
X-306500Y-463004D01*
X-308254Y-464250D01*
X-309746D01*
X-311124Y-464821D01*
X-312179Y-465876D01*
X-312750Y-467254D01*
Y-468746D01*
X-312179Y-470124D01*
X-311124Y-471179D01*
X-309746Y-471750D01*
X-308876D01*
X-307074Y-473636D01*
X-307000Y-473754D01*
Y-475246D01*
X-306429Y-476624D01*
X-305374Y-477679D01*
X-303996Y-478250D01*
X-302504D01*
X-301126Y-477679D01*
X-300496Y-477049D01*
X-288283D01*
X-287825Y-477355D01*
X-286849Y-477549D01*
X-241000D01*
X-240025Y-477355D01*
X-239198Y-476802D01*
X-234944Y-472549D01*
X-24201D01*
X-23226Y-472355D01*
X-22399Y-471802D01*
X4855Y-444549D01*
X36361D01*
X37397Y-447049D01*
X32698Y-451748D01*
X32145Y-452575D01*
X31951Y-453550D01*
Y-517270D01*
X30721Y-518500D01*
X30254D01*
X28876Y-519071D01*
X27821Y-520126D01*
X27250Y-521504D01*
Y-522996D01*
X27821Y-524374D01*
X28876Y-525429D01*
X28914Y-525445D01*
X30253Y-526450D01*
X30250Y-528254D01*
Y-529746D01*
X30821Y-531124D01*
X31876Y-532179D01*
X33254Y-532750D01*
X34746D01*
X36124Y-532179D01*
X37179Y-531124D01*
X37750Y-529746D01*
Y-528855D01*
X39802Y-526802D01*
X40355Y-525975D01*
X40549Y-525000D01*
Y-456056D01*
X42056Y-454549D01*
X47558D01*
X48224Y-455776D01*
X48560Y-457049D01*
X47761Y-458244D01*
X47412Y-460000D01*
X47761Y-461756D01*
X48756Y-463244D01*
X50244Y-464239D01*
X52000Y-464588D01*
X64099D01*
X72756Y-473244D01*
X74244Y-474239D01*
X76000Y-474588D01*
X315000D01*
X316756Y-474239D01*
X318244Y-473244D01*
X334901Y-456588D01*
X346000D01*
X347756Y-456239D01*
X349244Y-455244D01*
X350239Y-453756D01*
X350588Y-452000D01*
X350239Y-450244D01*
X349244Y-448756D01*
X347756Y-447761D01*
X346000Y-447412D01*
X333000D01*
X331244Y-447761D01*
X329756Y-448756D01*
X313099Y-465412D01*
X77901D01*
X69244Y-456756D01*
X67756Y-455761D01*
X67059Y-455622D01*
X66910Y-455504D01*
X65749Y-453428D01*
X66489Y-451068D01*
X67746Y-450750D01*
X69124Y-450179D01*
X70179Y-449124D01*
X70750Y-447746D01*
Y-446254D01*
X70179Y-444876D01*
X69124Y-443821D01*
X67746Y-443250D01*
X66254D01*
X64876Y-443821D01*
X64246Y-444451D01*
X62750D01*
X60750Y-442746D01*
Y-441254D01*
X60746Y-439750D01*
X62124Y-439179D01*
X63179Y-438124D01*
X63750Y-436746D01*
Y-435254D01*
X63179Y-433876D01*
X62303Y-433000D01*
X63179Y-432124D01*
X63750Y-430746D01*
Y-429254D01*
X63179Y-427876D01*
X62124Y-426821D01*
X60746Y-426250D01*
X59254D01*
X57876Y-426821D01*
X57246Y-427451D01*
X51000D01*
X50024Y-427645D01*
X49198Y-428198D01*
X47444Y-429951D01*
X7870D01*
X6913Y-427641D01*
X56590Y-377964D01*
X56918Y-377934D01*
X59150Y-378621D01*
X59710Y-380986D01*
X58821Y-381876D01*
X58250Y-383254D01*
Y-384746D01*
X58821Y-386124D01*
X59876Y-387179D01*
X61254Y-387750D01*
X62746D01*
X64124Y-387179D01*
X64754Y-386549D01*
X120000D01*
X120976Y-386355D01*
X121802Y-385802D01*
X141056Y-366549D01*
X207000D01*
X207976Y-366355D01*
X208802Y-365802D01*
X241855Y-332750D01*
X242746D01*
X244124Y-332179D01*
X245179Y-331124D01*
X245750Y-329746D01*
Y-328254D01*
X245179Y-326876D01*
X244124Y-325821D01*
X242746Y-325250D01*
X241254D01*
X239876Y-325821D01*
X238821Y-326876D01*
X238250Y-328254D01*
Y-329145D01*
X205944Y-361451D01*
X151632D01*
X150602Y-358951D01*
X150929Y-358624D01*
X151500Y-357246D01*
Y-355754D01*
X150929Y-354376D01*
X152138Y-352049D01*
X175500D01*
X176476Y-351855D01*
X177302Y-351302D01*
X199802Y-328802D01*
X200355Y-327976D01*
X200549Y-327000D01*
Y-315754D01*
X201179Y-315124D01*
X201750Y-313746D01*
Y-312254D01*
X201179Y-310876D01*
X200124Y-309821D01*
X198746Y-309250D01*
D02*
G37*
G36*
X-331500Y-340567D02*
Y-348500D01*
X-323567D01*
X-324147Y-346333D01*
X-325398Y-344167D01*
X-327167Y-342398D01*
X-329333Y-341147D01*
X-331500Y-340567D01*
D02*
G37*
G36*
X-323567Y-351500D02*
X-331500D01*
Y-359433D01*
X-329333Y-358853D01*
X-327167Y-357602D01*
X-325398Y-355833D01*
X-324147Y-353667D01*
X-323567Y-351500D01*
D02*
G37*
G36*
X214500Y-373021D02*
Y-375500D01*
X216979D01*
X216603Y-374593D01*
X215407Y-373397D01*
X214500Y-373021D01*
D02*
G37*
G36*
X211500Y-373021D02*
X210593Y-373397D01*
X209397Y-374593D01*
X209021Y-375500D01*
X211500D01*
Y-373021D01*
D02*
G37*
G36*
X200500Y-373021D02*
Y-375500D01*
X202979D01*
X202603Y-374593D01*
X201407Y-373397D01*
X200500Y-373021D01*
D02*
G37*
G36*
X197500Y-373021D02*
X196593Y-373397D01*
X195397Y-374593D01*
X195021Y-375500D01*
X197500D01*
Y-373021D01*
D02*
G37*
G36*
X-233504Y-376750D02*
X-234996D01*
X-236374Y-377321D01*
X-237004Y-377951D01*
X-241864D01*
X-241864Y-377951D01*
X-303746D01*
X-303876Y-377821D01*
X-305254Y-377250D01*
X-306746D01*
X-308124Y-377821D01*
X-309179Y-378876D01*
X-309750Y-380254D01*
Y-381746D01*
X-309179Y-383124D01*
X-308124Y-384179D01*
X-306746Y-384750D01*
X-305254D01*
X-303876Y-384179D01*
X-302821Y-383124D01*
X-302790Y-383049D01*
X-246123D01*
X-244234Y-385020D01*
Y-386512D01*
X-243663Y-387890D01*
X-243033Y-388521D01*
Y-408428D01*
X-254227Y-419623D01*
X-276074D01*
X-276876Y-418821D01*
X-278254Y-418250D01*
X-279746D01*
X-281124Y-418821D01*
X-282179Y-419876D01*
X-282750Y-421254D01*
Y-422746D01*
X-282179Y-424124D01*
X-281124Y-425179D01*
X-279746Y-425750D01*
X-278254D01*
X-276876Y-425179D01*
X-276417Y-424720D01*
X-253172D01*
X-252196Y-424526D01*
X-251369Y-423974D01*
X-238681Y-411286D01*
X-238129Y-410459D01*
X-237935Y-409484D01*
Y-388521D01*
X-237305Y-387890D01*
X-236734Y-386512D01*
Y-386236D01*
X-235232Y-384519D01*
X-234424Y-384250D01*
X-233504D01*
X-232126Y-383679D01*
X-231071Y-382624D01*
X-230500Y-381246D01*
Y-379754D01*
X-231071Y-378376D01*
X-232126Y-377321D01*
X-233504Y-376750D01*
D02*
G37*
G36*
X217905Y-378500D02*
X213000D01*
X207480D01*
X206802Y-379178D01*
X204582D01*
X203905Y-378500D01*
X199000D01*
X194095D01*
X193500Y-379095D01*
Y-384000D01*
Y-388904D01*
X194178Y-389582D01*
Y-391802D01*
X193500Y-392480D01*
Y-398000D01*
Y-402905D01*
X194095Y-403500D01*
X199000D01*
Y-405000D01*
D01*
Y-403500D01*
X203905D01*
X204500Y-402905D01*
Y-398000D01*
X207500D01*
Y-402905D01*
X208095Y-403500D01*
X213000D01*
X217905D01*
X218500Y-402905D01*
Y-398000D01*
Y-393095D01*
X217905Y-392500D01*
X213000D01*
Y-389500D01*
X217905D01*
X218500Y-388905D01*
Y-384000D01*
Y-379095D01*
X217905Y-378500D01*
D02*
G37*
G36*
X221500Y-380021D02*
Y-382500D01*
X223979D01*
X223603Y-381592D01*
X222407Y-380397D01*
X221500Y-380021D01*
D02*
G37*
G36*
X190500Y-380021D02*
X189593Y-380397D01*
X188397Y-381593D01*
X188021Y-382500D01*
X190500D01*
Y-380021D01*
D02*
G37*
G36*
X223979Y-385500D02*
X221500D01*
Y-387979D01*
X222407Y-387603D01*
X223603Y-386407D01*
X223979Y-385500D01*
D02*
G37*
G36*
X190500Y-385500D02*
X188021D01*
X188397Y-386407D01*
X189593Y-387603D01*
X190500Y-387979D01*
Y-385500D01*
D02*
G37*
G36*
X221500Y-394021D02*
Y-396500D01*
X223979D01*
X223603Y-395593D01*
X222407Y-394397D01*
X221500Y-394021D01*
D02*
G37*
G36*
X190500Y-394021D02*
X189593Y-394397D01*
X188397Y-395593D01*
X188021Y-396500D01*
X190500D01*
Y-394021D01*
D02*
G37*
G36*
Y-399500D02*
X188021D01*
X188397Y-400407D01*
X189593Y-401603D01*
X190500Y-401979D01*
Y-399500D01*
D02*
G37*
G36*
X223979D02*
X221500D01*
Y-401979D01*
X222407Y-401603D01*
X223603Y-400407D01*
X223979Y-399500D01*
D02*
G37*
G36*
X211500Y-406500D02*
X209021D01*
X209397Y-407407D01*
X210593Y-408603D01*
X211500Y-408979D01*
Y-406500D01*
D02*
G37*
G36*
X202979Y-406500D02*
X200500D01*
Y-408979D01*
X201407Y-408603D01*
X202603Y-407407D01*
X202979Y-406500D01*
D02*
G37*
G36*
X216979Y-406500D02*
X214500D01*
Y-408979D01*
X215407Y-408603D01*
X216603Y-407407D01*
X216979Y-406500D01*
D02*
G37*
G36*
X197500Y-406500D02*
X195021D01*
X195397Y-407407D01*
X196593Y-408603D01*
X197500Y-408979D01*
Y-406500D01*
D02*
G37*
G36*
X-331500Y-492967D02*
Y-500900D01*
X-323567D01*
X-324147Y-498733D01*
X-325398Y-496567D01*
X-327167Y-494798D01*
X-329333Y-493547D01*
X-331500Y-492967D01*
D02*
G37*
G36*
X-334500D02*
X-336667Y-493547D01*
X-338833Y-494798D01*
X-340602Y-496567D01*
X-341853Y-498733D01*
X-342433Y-500900D01*
X-334500D01*
Y-492967D01*
D02*
G37*
G36*
X-323567Y-503900D02*
X-331500D01*
Y-511833D01*
X-329333Y-511253D01*
X-327167Y-510002D01*
X-325398Y-508233D01*
X-324147Y-506067D01*
X-323567Y-503900D01*
D02*
G37*
G36*
X-334500D02*
X-342433D01*
X-341853Y-506067D01*
X-340602Y-508233D01*
X-338833Y-510002D01*
X-336667Y-511253D01*
X-334500Y-511833D01*
Y-503900D01*
D02*
G37*
%LPD*%
G36*
X-271000Y8000D02*
Y-59000D01*
X-310886Y-98000D01*
X-352000D01*
Y-74000D01*
X-301000Y-23000D01*
Y8000D01*
X-296000Y13000D01*
X-276000D01*
X-271000Y8000D01*
D02*
G37*
G36*
X168560Y-121494D02*
X168821Y-122124D01*
X169451Y-122754D01*
Y-128500D01*
X165500D01*
Y-141500D01*
Y-153200D01*
X169451D01*
Y-162459D01*
X169645Y-163434D01*
X170198Y-164261D01*
X170250Y-164314D01*
Y-165746D01*
X170821Y-167124D01*
X171876Y-168179D01*
X173254Y-168750D01*
X174746D01*
X175451Y-168458D01*
X177380Y-169353D01*
X177951Y-169888D01*
Y-172444D01*
X173444Y-176951D01*
X149750D01*
X148774Y-177145D01*
X147948Y-177698D01*
X130943Y-194702D01*
X128438Y-192198D01*
X127612Y-191645D01*
X126636Y-191451D01*
X93250D01*
X92275Y-191645D01*
X91448Y-192198D01*
X39350Y-244296D01*
X37046Y-243064D01*
X37078Y-242899D01*
X37078Y-242899D01*
Y-161368D01*
X37618Y-160828D01*
X124000D01*
X124000Y-160828D01*
X125561Y-160518D01*
X126884Y-159634D01*
X165756Y-120761D01*
X166454Y-120757D01*
X168560Y-121494D01*
D02*
G37*
G36*
X-118800Y9000D02*
Y-47200D01*
X-51000Y-115000D01*
Y-161000D01*
X-39000Y-173000D01*
Y-222000D01*
X-104000D01*
X-104000Y-121000D01*
X-147800Y-77200D01*
Y8000D01*
X-142800Y13000D01*
X-122800D01*
X-118800Y9000D01*
D02*
G37*
G36*
X-156900D02*
Y-85100D01*
X-151000Y-91000D01*
Y-165000D01*
X-141000Y-175000D01*
Y-222000D01*
X-208000D01*
Y-122000D01*
X-185900Y-99900D01*
Y8000D01*
X-180900Y13000D01*
X-160900D01*
X-156900Y9000D01*
D02*
G37*
G36*
X-195000D02*
Y-79000D01*
X-254000Y-138000D01*
Y-161000D01*
X-244000Y-171000D01*
Y-222000D01*
X-309000D01*
Y-130000D01*
X-224000Y-45000D01*
Y8000D01*
X-219000Y13000D01*
X-199000D01*
X-195000Y9000D01*
D02*
G37*
G36*
X6013Y-207142D02*
X8412Y-207663D01*
Y-240851D01*
X5912Y-242040D01*
X5299Y-241542D01*
Y-234000D01*
X5105Y-233025D01*
X4552Y-232198D01*
X1299Y-228944D01*
Y-210056D01*
X2605Y-208750D01*
X3496D01*
X4874Y-208179D01*
X5912Y-207141D01*
X6013Y-207142D01*
D02*
G37*
G36*
X-105624Y-121672D02*
X-105624Y-221796D01*
X-105624Y-222000D01*
X-105624Y-222000D01*
X-105148Y-223148D01*
X-104000Y-223624D01*
X-104000Y-223624D01*
X-103796Y-223624D01*
X-49224D01*
X-48560Y-224794D01*
X-48316Y-226124D01*
X-49201Y-227009D01*
X-50057Y-228491D01*
X-50500Y-230144D01*
Y-231856D01*
X-50057Y-233509D01*
X-49201Y-234991D01*
X-47991Y-236201D01*
X-46509Y-237057D01*
X-44856Y-237500D01*
X-43144D01*
X-41491Y-237057D01*
X-40009Y-236201D01*
X-38799Y-234991D01*
X-37943Y-233509D01*
X-37500Y-231856D01*
Y-230144D01*
X-37943Y-228491D01*
X-38799Y-227009D01*
X-39684Y-226124D01*
X-39408Y-224624D01*
X-38870Y-223570D01*
X-37852Y-223148D01*
X-37376Y-222000D01*
Y-173000D01*
X-37852Y-171852D01*
X-44327Y-165377D01*
X-43033Y-163136D01*
X-42606Y-163250D01*
X-40894D01*
X-39241Y-162807D01*
X-37759Y-161951D01*
X-36549Y-160741D01*
X-35693Y-159259D01*
X-35250Y-157606D01*
Y-155894D01*
X-35693Y-154241D01*
X-36549Y-152759D01*
X-37759Y-151549D01*
X-39241Y-150693D01*
X-40894Y-150250D01*
X-42606D01*
X-44259Y-150693D01*
X-45741Y-151549D01*
X-46876Y-152684D01*
X-47223Y-152669D01*
X-49376Y-151959D01*
Y-130807D01*
X-49124Y-130572D01*
X-48575Y-130223D01*
X-46895Y-129545D01*
X-46561Y-129768D01*
X-46167Y-129846D01*
X-45796Y-130000D01*
X-45394D01*
X-45000Y-130078D01*
X-44606Y-130000D01*
X-44204D01*
X-43833Y-129846D01*
X-43439Y-129768D01*
X-43105Y-129545D01*
X-42734Y-129391D01*
X-42450Y-129107D01*
X-42116Y-128884D01*
X-41893Y-128550D01*
X-41609Y-128266D01*
X-41455Y-127895D01*
X-41232Y-127561D01*
X-41154Y-127167D01*
X-41000Y-126796D01*
Y-126394D01*
X-40922Y-126000D01*
Y-122732D01*
X-40000Y-122033D01*
X-37500Y-123276D01*
Y-130900D01*
Y-142600D01*
X-24500D01*
Y-138649D01*
X-22100D01*
X-21124Y-138455D01*
X-20298Y-137902D01*
X-19549Y-137154D01*
X-17049Y-138189D01*
Y-147444D01*
X-24855Y-155250D01*
X-25746D01*
X-27124Y-155821D01*
X-28179Y-156876D01*
X-28750Y-158254D01*
Y-159746D01*
X-28179Y-161124D01*
X-27549Y-161754D01*
Y-166500D01*
X-28500D01*
Y-179500D01*
Y-191200D01*
X-18340D01*
X-17305Y-193700D01*
X-24855Y-201250D01*
X-25746D01*
X-27124Y-201821D01*
X-28179Y-202876D01*
X-28750Y-204254D01*
Y-205746D01*
X-28179Y-207124D01*
X-27549Y-207754D01*
Y-216900D01*
X-28500D01*
Y-229900D01*
Y-241600D01*
X-24549D01*
Y-245000D01*
X-24355Y-245975D01*
X-23802Y-246802D01*
X-21802Y-248802D01*
X-20975Y-249355D01*
X-20000Y-249549D01*
X-9754D01*
X-9124Y-250179D01*
X-7746Y-250750D01*
X-6254D01*
X-4876Y-250179D01*
X-3821Y-249124D01*
X-3271Y-247796D01*
X-3067Y-247717D01*
X-750Y-247349D01*
X-429Y-248124D01*
X626Y-249179D01*
X2004Y-249750D01*
X3496D01*
X4874Y-249179D01*
X5912Y-248141D01*
X6013Y-248142D01*
X8412Y-248663D01*
Y-251099D01*
X-6244Y-265756D01*
X-7239Y-267244D01*
X-7588Y-269000D01*
Y-298000D01*
X-7239Y-299756D01*
X-6244Y-301244D01*
X-1244Y-306244D01*
X-979Y-306422D01*
X-1737Y-308922D01*
X-2500D01*
X-2500Y-308922D01*
X-4061Y-309232D01*
X-5384Y-310116D01*
X-5384Y-310116D01*
X-19528Y-324260D01*
X-20412Y-325584D01*
X-20723Y-327144D01*
X-20723Y-327145D01*
Y-331144D01*
X-20412Y-332705D01*
X-19528Y-334028D01*
X-18205Y-334912D01*
X-16644Y-335223D01*
X-15084Y-334912D01*
X-13760Y-334028D01*
X-12876Y-332705D01*
X-12566Y-331144D01*
Y-328834D01*
X-7014Y-323282D01*
X-5669Y-323683D01*
X-4540Y-324343D01*
X-4181Y-326146D01*
X-2965Y-327965D01*
X-1146Y-329181D01*
X1000Y-329608D01*
X16252D01*
X17285Y-331522D01*
X17361Y-332034D01*
X-27056Y-376451D01*
X-124148D01*
X-125183Y-373951D01*
X-119061Y-367828D01*
X-104250D01*
X-104250Y-367828D01*
X-102689Y-367518D01*
X-101366Y-366634D01*
X-97116Y-362384D01*
X-97116Y-362384D01*
X-96232Y-361061D01*
X-95922Y-359500D01*
Y-350500D01*
Y-345000D01*
X-96000Y-344606D01*
Y-344204D01*
X-96154Y-343833D01*
X-96232Y-343439D01*
X-96455Y-343105D01*
X-96609Y-342734D01*
X-96893Y-342450D01*
X-97116Y-342116D01*
X-97450Y-341893D01*
X-97734Y-341609D01*
X-98105Y-341455D01*
X-98439Y-341232D01*
X-98833Y-341154D01*
X-99204Y-341000D01*
X-99606D01*
X-100000Y-340922D01*
X-100394Y-341000D01*
X-100796D01*
X-101167Y-341154D01*
X-101561Y-341232D01*
X-101895Y-341455D01*
X-102266Y-341609D01*
X-102550Y-341893D01*
X-102884Y-342116D01*
X-103107Y-342450D01*
X-103391Y-342734D01*
X-103545Y-343105D01*
X-103768Y-343439D01*
X-103846Y-343833D01*
X-104000Y-344204D01*
Y-344606D01*
X-104078Y-345000D01*
Y-357811D01*
X-105939Y-359672D01*
X-120750D01*
X-122311Y-359982D01*
X-123634Y-360866D01*
X-123634Y-360866D01*
X-131939Y-369172D01*
X-142212D01*
X-142463Y-368963D01*
X-143676Y-366672D01*
X-143500Y-366246D01*
Y-364754D01*
X-143738Y-363212D01*
X-142376Y-362541D01*
X-141321Y-361486D01*
X-140750Y-360108D01*
Y-359689D01*
X-138198Y-357137D01*
X-137645Y-356310D01*
X-137451Y-355335D01*
Y-336306D01*
X-134944Y-333799D01*
X-131254D01*
X-130624Y-334429D01*
X-129246Y-335000D01*
X-127754D01*
X-126376Y-334429D01*
X-125321Y-333374D01*
X-124750Y-331996D01*
Y-330504D01*
X-125321Y-329126D01*
X-125447Y-329000D01*
X-126097Y-327375D01*
X-125447Y-325750D01*
X-125321Y-325624D01*
X-124750Y-324246D01*
Y-322754D01*
X-125321Y-321376D01*
X-126376Y-320321D01*
X-127754Y-319750D01*
X-129246D01*
X-130624Y-320321D01*
X-131254Y-320951D01*
X-135000D01*
X-135976Y-321145D01*
X-136802Y-321698D01*
X-146302Y-331198D01*
X-146855Y-332024D01*
X-147049Y-333000D01*
Y-350363D01*
X-147929Y-351243D01*
X-148500Y-352621D01*
Y-354113D01*
X-147929Y-355491D01*
X-146931Y-356489D01*
X-147679Y-357238D01*
X-148250Y-358616D01*
Y-360108D01*
X-148207Y-360385D01*
X-150272Y-362378D01*
X-150734D01*
X-152951Y-360162D01*
Y-330556D01*
X-125448Y-303052D01*
X-124895Y-302225D01*
X-124701Y-301250D01*
Y-274549D01*
X-52000D01*
X-51024Y-274355D01*
X-50198Y-273802D01*
X-39944Y-263549D01*
X-17754D01*
X-17124Y-264179D01*
X-15746Y-264750D01*
X-14254D01*
X-12876Y-264179D01*
X-11821Y-263124D01*
X-11250Y-261746D01*
Y-260254D01*
X-11821Y-258876D01*
X-12876Y-257821D01*
X-14254Y-257250D01*
X-15746D01*
X-17124Y-257821D01*
X-17754Y-258451D01*
X-41000D01*
X-41975Y-258645D01*
X-42802Y-259198D01*
X-53056Y-269451D01*
X-124701D01*
Y-262056D01*
X-108948Y-246302D01*
X-108395Y-245476D01*
X-108201Y-244500D01*
Y-124250D01*
X-108395Y-123274D01*
X-108948Y-122448D01*
X-110809Y-120586D01*
X-110965Y-119867D01*
X-110823Y-119660D01*
X-108208Y-119088D01*
X-105624Y-121672D01*
D02*
G37*
G36*
X-128844Y-98579D02*
X-128690Y-98606D01*
X-114356Y-112940D01*
X-114918Y-114387D01*
X-115582Y-115250D01*
X-116746D01*
X-118124Y-115821D01*
X-119179Y-116876D01*
X-119750Y-118254D01*
Y-119746D01*
X-119179Y-121124D01*
X-118124Y-122179D01*
X-116746Y-122750D01*
X-115855D01*
X-113299Y-125306D01*
Y-243444D01*
X-129052Y-259198D01*
X-129605Y-260025D01*
X-129799Y-261000D01*
Y-272000D01*
Y-300194D01*
X-157302Y-327698D01*
X-157855Y-328525D01*
X-158049Y-329500D01*
Y-362750D01*
X-157855Y-363726D01*
X-157302Y-364552D01*
X-155709Y-366146D01*
X-156568Y-368598D01*
X-158399Y-368833D01*
X-205183Y-322049D01*
X-204771Y-320365D01*
X-204219Y-319549D01*
X-200754D01*
X-200124Y-320179D01*
X-198746Y-320750D01*
X-197254D01*
X-195876Y-320179D01*
X-194821Y-319124D01*
X-194250Y-317746D01*
X-192163Y-316380D01*
X-191680Y-316380D01*
X-191199Y-316703D01*
X-189759Y-318549D01*
X-189799Y-318750D01*
Y-325500D01*
X-189605Y-326475D01*
X-189052Y-327302D01*
X-187052Y-329302D01*
X-186225Y-329855D01*
X-185250Y-330049D01*
X-171750D01*
X-170774Y-329855D01*
X-169948Y-329302D01*
X-162645Y-322000D01*
X-161754D01*
X-160376Y-321429D01*
X-159321Y-320374D01*
X-158750Y-318996D01*
Y-317504D01*
X-159321Y-316126D01*
X-160376Y-315071D01*
X-161754Y-314500D01*
X-163246D01*
X-164624Y-315071D01*
X-165679Y-316126D01*
X-166250Y-317504D01*
X-166451Y-317515D01*
X-168951Y-315177D01*
Y-307138D01*
X-166624Y-305929D01*
X-165246Y-306500D01*
X-163754D01*
X-162376Y-305929D01*
X-161621Y-305174D01*
X-156379D01*
X-155874Y-305679D01*
X-154496Y-306250D01*
X-153004D01*
X-151626Y-305679D01*
X-150571Y-304624D01*
X-150000Y-303246D01*
Y-301754D01*
X-150571Y-300376D01*
X-151626Y-299321D01*
X-153004Y-298750D01*
X-154496D01*
X-155874Y-299321D01*
X-156629Y-300076D01*
X-161871D01*
X-162376Y-299571D01*
X-163754Y-299000D01*
X-165246D01*
X-166624Y-299571D01*
X-168951Y-298362D01*
Y-283006D01*
X-131448Y-245502D01*
X-130895Y-244675D01*
X-130701Y-243700D01*
Y-166750D01*
X-130895Y-165774D01*
X-131448Y-164948D01*
X-137181Y-159214D01*
X-136750Y-157606D01*
Y-155894D01*
X-137193Y-154241D01*
X-138049Y-152759D01*
X-139259Y-151549D01*
X-140741Y-150693D01*
X-142394Y-150250D01*
X-144106D01*
X-145759Y-150693D01*
X-146876Y-151338D01*
X-148217Y-150909D01*
X-149376Y-150148D01*
Y-127001D01*
X-149207Y-126699D01*
X-148657Y-126037D01*
X-147000Y-125078D01*
X-141000D01*
X-140606Y-125000D01*
X-140204D01*
X-139833Y-124846D01*
X-139439Y-124768D01*
X-139105Y-124545D01*
X-138734Y-124391D01*
X-138450Y-124107D01*
X-138116Y-123884D01*
X-137893Y-123550D01*
X-137609Y-123266D01*
X-137455Y-122895D01*
X-137232Y-122561D01*
X-137154Y-122167D01*
X-137000Y-121796D01*
Y-121394D01*
X-136922Y-121000D01*
Y-109000D01*
Y-101078D01*
X-135000D01*
X-134606Y-101000D01*
X-134204D01*
X-133833Y-100846D01*
X-133439Y-100768D01*
X-133105Y-100545D01*
X-132734Y-100391D01*
X-132450Y-100107D01*
X-132116Y-99884D01*
X-131893Y-99550D01*
X-131609Y-99266D01*
X-131596Y-99235D01*
X-130421Y-98715D01*
X-129603Y-98573D01*
X-128844Y-98579D01*
D02*
G37*
G36*
X-223406Y-112504D02*
X-222951Y-112783D01*
X-222884Y-112884D01*
X-216884Y-118884D01*
X-216884Y-118884D01*
X-216550Y-119107D01*
X-216266Y-119391D01*
X-215895Y-119545D01*
X-215561Y-119768D01*
X-215167Y-119846D01*
X-214796Y-120000D01*
X-214394D01*
X-214000Y-120078D01*
X-214000Y-120078D01*
X-211534D01*
X-209624Y-122000D01*
Y-222000D01*
X-209148Y-223148D01*
X-208000Y-223624D01*
X-151224D01*
X-150560Y-224794D01*
X-150316Y-226124D01*
X-151201Y-227009D01*
X-152057Y-228491D01*
X-152500Y-230144D01*
Y-231856D01*
X-152057Y-233509D01*
X-151201Y-234991D01*
X-149991Y-236201D01*
X-148509Y-237057D01*
X-146856Y-237500D01*
X-145144D01*
X-143491Y-237057D01*
X-142009Y-236201D01*
X-141799Y-235991D01*
X-139299Y-237027D01*
Y-241194D01*
X-179302Y-281198D01*
X-179855Y-282024D01*
X-180049Y-283000D01*
Y-305663D01*
X-181142Y-306317D01*
X-182549Y-306596D01*
X-184448Y-304698D01*
X-185275Y-304145D01*
X-186250Y-303951D01*
X-203450D01*
X-204425Y-304145D01*
X-205252Y-304698D01*
X-208006Y-307451D01*
X-219694D01*
X-223500Y-303645D01*
Y-302754D01*
X-224071Y-301376D01*
X-225126Y-300321D01*
X-226504Y-299750D01*
X-227996D01*
X-228951Y-300146D01*
X-230544Y-299499D01*
X-231451Y-298862D01*
Y-168500D01*
X-231645Y-167525D01*
X-232198Y-166698D01*
X-239681Y-159214D01*
X-239250Y-157606D01*
Y-155894D01*
X-239693Y-154241D01*
X-240549Y-152759D01*
X-241759Y-151549D01*
X-243241Y-150693D01*
X-244894Y-150250D01*
X-246606D01*
X-248259Y-150693D01*
X-249741Y-151549D01*
X-249876Y-151684D01*
X-252376Y-150648D01*
Y-138673D01*
X-226033Y-112329D01*
X-225791Y-112247D01*
X-225441Y-112192D01*
X-223406Y-112504D01*
D02*
G37*
G36*
X-164817Y-373951D02*
X-165852Y-376451D01*
X-206944D01*
X-208451Y-374944D01*
Y-363300D01*
X-208645Y-362325D01*
X-209198Y-361498D01*
X-225951Y-344744D01*
Y-335601D01*
X-226145Y-334625D01*
X-226698Y-333798D01*
X-226821Y-333675D01*
Y-333374D01*
X-226250Y-331996D01*
Y-330504D01*
X-224342Y-328578D01*
X-210189D01*
X-164817Y-373951D01*
D02*
G37*
G36*
X131900Y-353552D02*
X131920Y-354549D01*
X131698Y-354698D01*
X111944Y-374451D01*
X65504D01*
X64874Y-373821D01*
X64446Y-373644D01*
X63684Y-371168D01*
X63714Y-370840D01*
X82506Y-352049D01*
X131223D01*
X131900Y-353552D01*
D02*
G37*
D11*
X-240484Y-409484D02*
Y-385766D01*
X-253172Y-422172D02*
X-240484Y-409484D01*
X-237250Y-349500D02*
X-220000Y-366750D01*
X-237250Y-349500D02*
Y-340500D01*
X34500Y-518325D02*
Y-453550D01*
X31000Y-521825D02*
X34500Y-518325D01*
X31000Y-522250D02*
Y-521825D01*
X-155500Y-362750D02*
X-152750Y-365500D01*
X-147250D01*
X-144027Y-359362D02*
X-140000Y-355335D01*
Y-335250D01*
X-144500Y-359362D02*
X-144027D01*
X-144500Y-353117D02*
Y-333000D01*
X-144750Y-353367D02*
X-144500Y-353117D01*
X-303250Y-474500D02*
X-287349D01*
X-286849Y-475000D01*
X-241000D01*
X-302750Y-463750D02*
X-288200D01*
X-283950Y-468000D01*
X165713Y-203750D02*
X166963Y-205000D01*
X144000Y-203750D02*
X165713D01*
X166963Y-205000D02*
X188000D01*
X190750Y-81750D02*
X212500Y-60000D01*
X190750Y-90750D02*
Y-81750D01*
X-4000Y-184000D02*
Y-81000D01*
X-25000Y-205000D02*
X-4000Y-184000D01*
X-14500Y-148500D02*
Y-93500D01*
X-25000Y-159000D02*
X-14500Y-148500D01*
X-57150Y-50850D02*
X-14500Y-93500D01*
X-228500Y-345800D02*
X-211000Y-363300D01*
Y-376000D02*
Y-363300D01*
Y-376000D02*
X-208000Y-379000D01*
X-26000D01*
X-211000Y-384000D02*
X-21000D01*
X-215500Y-379500D02*
X-211000Y-384000D01*
X-215500Y-379500D02*
Y-363750D01*
X-228500Y-345800D02*
Y-335601D01*
X-230000Y-331250D02*
X-229890Y-331360D01*
Y-334211D02*
X-228500Y-335601D01*
X-229890Y-334211D02*
Y-331360D01*
X-236750Y-332500D02*
X-234450Y-334800D01*
X-234250D02*
X-232000Y-337050D01*
X-234450Y-334800D02*
X-234250D01*
X-232000Y-347250D02*
Y-337050D01*
Y-347250D02*
X-215500Y-363750D01*
X-220000Y-383250D02*
Y-366750D01*
Y-383250D02*
X-214250Y-389000D01*
X-16000D01*
X-75750Y-420500D02*
X-66000Y-430250D01*
Y-437000D02*
Y-430250D01*
X-103750Y-420500D02*
X-75750D01*
X51750Y-268500D02*
Y-268000D01*
X45875Y-262125D02*
X51750Y-268000D01*
X-88000Y-449000D02*
X-76000Y-437000D01*
X-66000D01*
X-346000Y-435000D02*
Y-337600D01*
X-333000Y-324600D01*
X-342000Y-439000D02*
X-319000D01*
X-346000Y-435000D02*
X-342000Y-439000D01*
X-319000D02*
X-313000Y-445000D01*
X-242000D01*
X-238000Y-449000D01*
X-88000D01*
X-227250Y-303500D02*
X-220750Y-310000D01*
X-171750Y-327500D02*
X-162500Y-318250D01*
X-185250Y-327500D02*
X-171750D01*
X-187250Y-325500D02*
X-185250Y-327500D01*
X-187250Y-325500D02*
Y-318750D01*
X-184000Y-315500D01*
Y-308750D01*
X-186250Y-306500D02*
X-184000Y-308750D01*
X-203450Y-306500D02*
X-186250D01*
X-206950Y-310000D02*
X-203450Y-306500D01*
X-220750Y-310000D02*
X-206950D01*
X-225550Y-313500D02*
X-202500D01*
X-234000Y-305050D02*
X-225550Y-313500D01*
X-227000Y-317000D02*
X-198000D01*
X-237500Y-306500D02*
X-227000Y-317000D01*
X133500Y-356500D02*
X147750D01*
X113000Y-377000D02*
X133500Y-356500D01*
X62750Y-377000D02*
X113000D01*
X210000Y-156500D02*
Y-151750D01*
X210250Y-151500D01*
X205250Y-161250D02*
X210000Y-156500D01*
X205250Y-169500D02*
Y-161250D01*
X201250Y-173500D02*
X205250Y-169500D01*
X180500Y-173500D02*
X201250D01*
X130943Y-198307D02*
X142136Y-209500D01*
X126636Y-194000D02*
X130943Y-198307D01*
X149750Y-179500D01*
X174500D01*
X180500Y-173500D01*
Y-155750D02*
X184750Y-151500D01*
X180500Y-173500D02*
Y-155750D01*
X0Y-139250D02*
Y-124750D01*
X185418Y-84435D02*
Y-82082D01*
X212500Y-60000D02*
X264000D01*
X185035Y-84818D02*
X185418Y-84435D01*
Y-82082D02*
X214500Y-53000D01*
X239000D01*
X93250Y-194000D02*
X126636D01*
X22250Y-265000D02*
X93250Y-194000D01*
X22250Y-265000D02*
X22250D01*
X2750Y-122000D02*
Y-113000D01*
X0Y-124750D02*
X2750Y-122000D01*
X0Y-139250D02*
X2750Y-142000D01*
Y-159000D02*
Y-142000D01*
X250Y-170646D02*
X2750Y-168146D01*
X250Y-179250D02*
Y-170646D01*
X2750Y-168146D02*
Y-159000D01*
X250Y-179250D02*
X2750Y-181750D01*
Y-205000D02*
Y-181750D01*
X-1250Y-230000D02*
Y-209000D01*
X2750Y-205000D01*
Y-246000D02*
Y-234000D01*
X-1250Y-230000D02*
X2750Y-234000D01*
X36000Y-317000D02*
X133000D01*
X164000Y-286000D01*
X-26000Y-379000D02*
X36000Y-317000D01*
X147200Y-283800D02*
Y-241000D01*
X127000Y-304000D02*
X147200Y-283800D01*
X130000Y-310000D02*
X172600Y-267400D01*
Y-245000D01*
X121000Y-310000D02*
X130000D01*
X188000Y-205000D02*
X209000Y-184000D01*
X194500Y-209500D02*
X215000Y-189000D01*
X142136Y-209500D02*
X194500D01*
X-306000Y-381000D02*
X-305617Y-380617D01*
X-304203D02*
X-304086Y-380500D01*
X-241864D02*
X-241864Y-380500D01*
X-305617Y-380617D02*
X-304203D01*
X-304086Y-380500D02*
X-241864D01*
X-279000Y-422000D02*
X-278828Y-422172D01*
X-253172D01*
X-241864Y-380500D02*
X-234250D01*
X249600Y-217000D02*
X264000D01*
X268000Y-213000D01*
Y-194000D01*
X263000Y-189000D02*
X268000Y-194000D01*
X215000Y-189000D02*
X263000D01*
X209000Y-184000D02*
X316000D01*
X325000Y-193000D01*
X237900Y-217000D02*
X249600D01*
X229000D02*
X237900D01*
X-252500Y-452500D02*
X-31450D01*
X78550Y-342500D01*
X156500D01*
X-30000Y-456000D02*
X80000Y-346000D01*
X166000D01*
X-28550Y-459500D02*
X81450Y-349500D01*
X-242000Y-456000D02*
X-30000D01*
X-155500Y-362750D02*
Y-329500D01*
X-127250Y-301250D01*
X14000Y-280000D02*
Y-279000D01*
X207000Y-364000D02*
X242000Y-329000D01*
X120000Y-384000D02*
X140000Y-364000D01*
X207000D01*
X62000Y-384000D02*
X120000D01*
X39000Y-324000D02*
X137000D01*
X-21000Y-384000D02*
X39000Y-324000D01*
X43000Y-330000D02*
X142000D01*
X-16000Y-389000D02*
X43000Y-330000D01*
X-127250Y-272000D02*
Y-261000D01*
Y-301250D02*
Y-272000D01*
X-52000D01*
X-41000Y-261000D01*
X-15000D01*
X-116000Y-119000D02*
X-110750Y-124250D01*
X-95250Y-32000D02*
X-25000Y-102250D01*
X247650Y-44350D02*
Y0D01*
X-19050Y-65950D02*
Y0D01*
X-57150Y-50850D02*
Y0D01*
X-95250Y-32000D02*
Y0D01*
X264000Y-60000D02*
X285750Y-38250D01*
Y0D01*
X-25000Y-113000D02*
Y-102250D01*
X-19050Y-65950D02*
X-4000Y-81000D01*
X239000Y-53000D02*
X247650Y-44350D01*
X-110750Y-244500D02*
Y-124250D01*
X-127250Y-261000D02*
X-110750Y-244500D01*
X-20000Y-247000D02*
X-7000D01*
X-22000Y-245000D02*
X-20000Y-247000D01*
X-22000Y-245000D02*
Y-235100D01*
X-25000Y-220400D02*
Y-205000D01*
Y-220400D02*
X-22000Y-223400D01*
Y-184700D02*
X-12950D01*
X-9000Y-180750D01*
X-25000Y-170000D02*
Y-159000D01*
Y-170000D02*
X-22000Y-173000D01*
X-19883Y-133883D02*
Y-129383D01*
X-19500Y-129000D01*
X-22100Y-136100D02*
X-19883Y-133883D01*
X-31000Y-136100D02*
X-22100D01*
X-25000Y-118400D02*
Y-113000D01*
X-31000Y-124400D02*
X-25000Y-118400D01*
X210000Y-124000D02*
Y-120000D01*
X203000Y-130300D02*
X203700D01*
X210000Y-124000D01*
X199000Y-134300D02*
X203000Y-130300D01*
X172000Y-135000D02*
Y-120000D01*
X174000Y-165000D02*
Y-164459D01*
X172000Y-162459D02*
Y-146700D01*
Y-162459D02*
X174000Y-164459D01*
X199000Y-165000D02*
Y-146000D01*
X-210000Y-508000D02*
X-201000D01*
X-213500Y-511500D02*
X-210000Y-508000D01*
X-293550Y-511500D02*
X-213500D01*
X-320000Y-485050D02*
Y-464600D01*
Y-485050D02*
X-293550Y-511500D01*
X-333000Y-451600D02*
X-320000Y-464600D01*
X-295000Y-515000D02*
X-201000D01*
X-333000Y-477000D02*
X-295000Y-515000D01*
X34500Y-453550D02*
X41050Y-447000D01*
X67000D01*
X41000Y-452000D02*
X62000D01*
X38000Y-455000D02*
X41000Y-452000D01*
X4849Y-436000D02*
X60000D01*
X51000Y-430000D02*
X60000D01*
X48500Y-432500D02*
X51000Y-430000D01*
X3399Y-432500D02*
X48500D01*
X-27101Y-463000D02*
X3399Y-432500D01*
X-25651Y-466500D02*
X4849Y-436000D01*
X-24201Y-470000D02*
X3799Y-442000D01*
X57000D01*
X-236000Y-470000D02*
X-24201D01*
X-241000Y-475000D02*
X-236000Y-470000D01*
X-237651Y-466500D02*
X-25651D01*
X-242651Y-471500D02*
X-237651Y-466500D01*
X-304864Y-469500D02*
X-287400D01*
X-285399Y-471500D01*
X-309000Y-468000D02*
X-308617Y-468383D01*
X-305981D01*
X-304864Y-469500D01*
X-285399Y-471500D02*
X-242651D01*
X-239100Y-463000D02*
X-27101D01*
X-244100Y-468000D02*
X-239100Y-463000D01*
X-283950Y-468000D02*
X-244100D01*
X164000Y-286000D02*
X241000D01*
X169000Y-292000D02*
X237000D01*
X137000Y-324000D02*
X169000Y-292000D01*
X173000Y-299000D02*
X234000D01*
X142000Y-330000D02*
X173000Y-299000D01*
X38000Y-525000D02*
Y-455000D01*
X34000Y-529000D02*
X38000Y-525000D01*
X257000Y-397000D02*
X268000Y-386000D01*
X257000Y-419000D02*
Y-397000D01*
Y-419000D02*
X268000Y-430000D01*
X274000Y-405000D02*
X281000Y-398000D01*
Y-326000D01*
X268000Y-405000D02*
X274000D01*
X263000Y-412000D02*
Y-402000D01*
X275000Y-390000D02*
Y-330000D01*
X263000Y-402000D02*
X275000Y-390000D01*
X268000Y-386000D02*
Y-333000D01*
X263000Y-412000D02*
X268000Y-417000D01*
X234000Y-299000D02*
X268000Y-333000D01*
X237000Y-292000D02*
X275000Y-330000D01*
X241000Y-286000D02*
X281000Y-326000D01*
X172000Y-327000D02*
Y-313000D01*
X156500Y-342500D02*
X172000Y-327000D01*
X198000Y-327000D02*
Y-313000D01*
X81450Y-349500D02*
X175500D01*
X198000Y-327000D01*
X-240550Y-459500D02*
X-28550D01*
X-245550Y-464500D02*
X-240550Y-459500D01*
X-282500Y-464500D02*
X-245550D01*
X-294500Y-452500D02*
X-282500Y-464500D01*
X-302500Y-452500D02*
X-294500D01*
X185000Y-327000D02*
Y-313000D01*
X166000Y-346000D02*
X185000Y-327000D01*
X-261000Y-461000D02*
X-247000D01*
X-242000Y-456000D01*
X-269500Y-452500D02*
X-261000Y-461000D01*
X-277500Y-452500D02*
X-269500D01*
X287000Y-119791D02*
X290000Y-122791D01*
Y-132250D02*
Y-122791D01*
X287000Y-119791D02*
Y-119250D01*
Y-99000D02*
X293500Y-105500D01*
Y-133700D02*
Y-105500D01*
X247500Y-146500D02*
X280700D01*
X241750Y-140750D02*
X247500Y-146500D01*
X280700D02*
X293500Y-133700D01*
X287000Y-99000D02*
Y-86500D01*
X256000Y-140750D02*
X281500D01*
X290000Y-132250D01*
X-234000Y-305050D02*
Y-168500D01*
X-245750Y-156750D02*
X-234000Y-168500D01*
X-133250Y-243700D02*
Y-166750D01*
X-143250Y-156750D02*
X-133250Y-166750D01*
X-171500Y-281950D02*
X-133250Y-243700D01*
X-171500Y-319750D02*
Y-281950D01*
X-174500Y-322750D02*
X-171500Y-319750D01*
X-182500Y-322750D02*
X-174500D01*
X-140000Y-335250D02*
X-136000Y-331250D01*
X-128500D01*
X-135000Y-323500D02*
X-128500D01*
X-144500Y-333000D02*
X-135000Y-323500D01*
X-202500Y-313500D02*
X-200750Y-311750D01*
X-191500D01*
X-164500Y-302750D02*
X-164375Y-302625D01*
X-153875D01*
X-153750Y-302500D01*
X-177500Y-317000D02*
Y-283000D01*
X-136750Y-242250D01*
Y-214250D01*
X-139000Y-212000D02*
X-136750Y-214250D01*
X-147000Y-212000D02*
X-139000D01*
X-237500Y-306500D02*
Y-215750D01*
X-249000Y-212000D02*
X-241250D01*
X-237500Y-215750D01*
D103*
X237900Y-217000D02*
D03*
X249600D02*
D03*
D106*
X-239125Y-361625D02*
D03*
X126000Y-55000D02*
D03*
X66750D02*
D03*
X-44000Y-231000D02*
D03*
X-146000D02*
D03*
X-143250Y-156750D02*
D03*
X-41750D02*
D03*
X-248100Y-230900D02*
D03*
X-245750Y-156750D02*
D03*
X-210000Y-55000D02*
D03*
X-171000D02*
D03*
X-133000D02*
D03*
D122*
X-16644Y-331144D02*
Y-327144D01*
X-2500Y-313000D02*
X14000D01*
X-16644Y-327144D02*
X-2500Y-313000D01*
X-235000Y-324500D02*
X-208500D01*
X-240625Y-318875D02*
X-235000Y-324500D01*
X124000Y-156750D02*
X173750Y-107000D01*
X35929Y-156750D02*
X124000D01*
X173750Y-107000D02*
X192000D01*
X33000Y-159679D02*
X35929Y-156750D01*
X33000Y-242899D02*
Y-159679D01*
X20000Y-307000D02*
Y-293929D01*
X14000Y-313000D02*
X20000Y-307000D01*
X-205000Y-95000D02*
X-196000D01*
X-214000Y-116000D02*
X-199000Y-101000D01*
X-193000Y-98000D02*
Y-86000D01*
X-199000Y-101000D02*
Y-98000D01*
X-195500Y-103500D02*
X-190000Y-98000D01*
X-208000Y-116000D02*
X-195500Y-103500D01*
X-196000Y-103000D02*
X-195500Y-103500D01*
X-196000Y-103000D02*
Y-98000D01*
X-205000Y-95000D02*
X-202000Y-92000D01*
X-220000Y-110000D02*
X-214000Y-116000D01*
X-208000Y-98000D02*
X-205000Y-95000D01*
X-214000Y-110000D02*
X-202000Y-98000D01*
X-199000D02*
X-196000D01*
X-202000D02*
X-199000D01*
X-214000Y-104000D02*
X-208000Y-98000D01*
X-220000Y-110000D02*
X-214000Y-104000D01*
Y-116000D02*
X-208000D01*
X-291000Y-100000D02*
Y-95000D01*
Y-94000D02*
X-280000D01*
X-292000Y-88000D02*
X-280000D01*
X-292000Y-94000D02*
Y-88000D01*
Y-94000D02*
X-291000Y-95000D01*
X-295000Y-91000D02*
X-292000Y-88000D01*
X-295000Y-91000D02*
Y-91000D01*
Y-94000D02*
Y-91000D01*
X-292000Y-88000D02*
X-289000Y-85000D01*
X-291000Y-100000D02*
X-286000D01*
X-291000Y-105000D02*
Y-100000D01*
X-295000D02*
X-291000D01*
X-301000Y-97000D02*
X-295000Y-91000D01*
X-298000Y-100000D02*
X-295000Y-103000D01*
X-301000Y-97000D02*
X-298000Y-100000D01*
X-301000Y-97000D02*
X-295000D01*
X-301000D02*
X-301000D01*
X-295000Y-109000D02*
X-291000Y-105000D01*
X-286000Y-100000D02*
X-283000Y-97000D01*
X-289000Y-103000D02*
X-286000Y-100000D01*
X-291000Y-95000D02*
X-289000Y-97000D01*
X-292000Y-94000D02*
X-291000D01*
X-295000D02*
X-292000D01*
X-291000Y-95000D02*
Y-94000D01*
X-283000Y-97000D02*
X-280000Y-94000D01*
X-277000Y-91000D01*
X-280000Y-88000D02*
X-274000D01*
X-277000Y-91000D02*
X-274000Y-88000D01*
X-280000Y-94000D02*
Y-88000D01*
X-291000Y-105000D02*
X-289000Y-103000D01*
X-295000Y-100000D02*
Y-97000D01*
Y-103000D02*
Y-100000D01*
Y-97000D02*
Y-94000D01*
X-295000Y-94000D01*
X-274000Y-88000D02*
X-271000Y-85000D01*
X-289000Y-91000D02*
X-283000D01*
X-277000Y-85000D02*
X-271000D01*
X-283000D02*
X-277000D01*
X-289000D02*
X-283000D01*
X-295000Y-109000D02*
Y-103000D01*
X-48000Y-111000D02*
Y-105000D01*
X-51000Y-108000D02*
X-48000Y-111000D01*
X-45000Y-114000D01*
X-42000D02*
Y-105000D01*
X-45000Y-120000D02*
X-39000Y-114000D01*
X-48000Y-102000D02*
X-45000D01*
X-51000D02*
X-48000D01*
Y-105000D02*
X-45000D01*
X-54000D02*
X-48000D01*
X-45000D02*
X-42000D01*
X-54000D02*
X-51000Y-108000D01*
X-45000Y-99000D02*
X-39000D01*
X-60000D02*
X-45000D01*
X-48000Y-105000D02*
Y-102000D01*
X-42000Y-114000D02*
X-39000D01*
X-45000D02*
X-42000D01*
Y-105000D02*
X-39000D01*
Y-102000D01*
Y-108000D02*
Y-105000D01*
X-45000D02*
Y-102000D01*
Y-108000D02*
Y-105000D01*
X-57000Y-102000D02*
X-54000Y-105000D01*
X-60000Y-99000D02*
X-57000Y-102000D01*
X-63000Y-96000D02*
X-60000Y-99000D01*
X-66000Y-93000D02*
X-63000Y-96000D01*
X-45000Y-90000D02*
X-39000Y-96000D01*
Y-99000D02*
Y-96000D01*
Y-102000D02*
Y-99000D01*
X-45000D02*
Y-96000D01*
Y-102000D02*
Y-99000D01*
X-69000Y-90000D02*
X-66000Y-93000D01*
X-72000Y-87000D02*
X-69000Y-90000D01*
X-48000Y-87000D02*
X-45000Y-90000D01*
Y-93000D02*
Y-90000D01*
Y-96000D02*
Y-93000D01*
X-66000D02*
X-45000D01*
X-75000Y-84000D02*
X-72000Y-87000D01*
X-51000Y-84000D02*
X-48000Y-87000D01*
X-72000D02*
X-48000D01*
X-39000Y-114000D02*
Y-108000D01*
X-45000Y-102000D02*
X-39000D01*
X-57000D02*
X-51000D01*
X-45000Y-96000D02*
X-39000D01*
X-51000D02*
X-45000D01*
X-57000D02*
X-51000D01*
X-63000D02*
X-57000D01*
X-51000Y-90000D02*
X-45000D01*
X-57000D02*
X-51000D01*
X-63000D02*
X-57000D01*
X-69000D02*
X-63000D01*
X-57000Y-84000D02*
X-51000D01*
X-63000D02*
X-57000D01*
X-69000D02*
X-63000D01*
X-75000D02*
X-69000D01*
X-45000Y-114000D02*
Y-108000D01*
Y-120000D02*
Y-114000D01*
Y-126000D02*
Y-120000D01*
X-202000Y-92000D02*
X-196000Y-86000D01*
Y-95000D02*
Y-92000D01*
Y-98000D02*
Y-95000D01*
X-193000Y-98000D02*
X-190000D01*
X-196000D02*
X-193000D01*
Y-86000D02*
X-190000D01*
X-196000D02*
X-193000D01*
X-196000Y-92000D02*
Y-86000D01*
X-214000Y-116000D02*
X-214000D01*
Y-110000D01*
X-190000Y-92000D02*
Y-86000D01*
Y-98000D02*
Y-92000D01*
X-144000Y-121000D02*
X-141000D01*
X-147000D02*
X-144000D01*
X-143000Y-89000D02*
X-135000Y-97000D01*
X-147000Y-85000D02*
X-143000Y-89000D01*
X-144000Y-121000D02*
Y-90000D01*
X-143000Y-89000D01*
X-141000Y-97000D02*
Y-91000D01*
Y-103000D02*
Y-97000D01*
Y-109000D02*
Y-103000D01*
Y-115000D02*
Y-109000D01*
Y-121000D02*
Y-115000D01*
Y-97000D02*
X-135000D01*
X-147000Y-91000D02*
Y-85000D01*
Y-97000D02*
Y-91000D01*
Y-103000D02*
Y-97000D01*
Y-109000D02*
Y-103000D01*
Y-115000D02*
Y-109000D01*
Y-121000D02*
Y-115000D01*
X-159750Y-373250D02*
X-130250D01*
X-208500Y-324500D02*
X-159750Y-373250D01*
X-100000Y-350500D02*
Y-345000D01*
Y-359500D02*
Y-350500D01*
X-104250Y-363750D02*
X-100000Y-359500D01*
X-130250Y-373250D02*
X-120750Y-363750D01*
X-104250D01*
X-255500Y-318875D02*
X-240625D01*
X-310250Y-240000D02*
Y-234250D01*
Y-264125D02*
Y-240000D01*
Y-264125D02*
X-255500Y-318875D01*
X8000Y-291000D02*
X17071D01*
X5000Y-288000D02*
Y-270900D01*
Y-288000D02*
X8000Y-291000D01*
X5000Y-270900D02*
X33000Y-242899D01*
X17071Y-291000D02*
X20000Y-293929D01*
X192000Y-107000D02*
X205682Y-93318D01*
Y-85682D01*
X271500Y-80750D02*
X274000Y-78250D01*
X282000D01*
X256250Y-80750D02*
X271500D01*
D123*
X-3000Y-298000D02*
X2000Y-303000D01*
X-3000Y-298000D02*
Y-269000D01*
X2000Y-303000D02*
X10683D01*
X13000Y-66000D02*
X57150Y-21850D01*
Y0D01*
X-3000Y-269000D02*
X13000Y-253000D01*
Y-66000D01*
X76000Y-470000D02*
X315000D01*
X333000Y-452000D02*
X346000D01*
X315000Y-470000D02*
X333000Y-452000D01*
X52000Y-460000D02*
X66000D01*
X76000Y-470000D01*
D124*
X117000Y-213250D02*
Y-208500D01*
Y-223000D02*
Y-213250D01*
X149500Y-99125D02*
Y-94000D01*
Y-104250D02*
Y-99125D01*
X117000Y-141625D02*
Y-136750D01*
Y-146500D02*
Y-141625D01*
Y-136750D02*
X149500Y-104250D01*
X91000Y-249000D02*
X117000Y-223000D01*
X45875Y-262125D02*
X59000Y-249000D01*
X30000Y-278000D02*
X45875Y-262125D01*
X1000Y-324000D02*
X17000D01*
X30000Y-311000D01*
Y-278000D01*
X59000Y-249000D02*
X91000D01*
X152500Y-83000D02*
X157250D01*
X161750D02*
X171450Y-73300D01*
X157250Y-83000D02*
X161750D01*
X171450Y-73300D02*
Y0D01*
D125*
X256750Y-110250D02*
X280500D01*
X256750Y-104000D02*
X280500D01*
D127*
X105500Y-76000D02*
X133350Y-48150D01*
Y0D01*
X36500Y-86000D02*
X94867Y-27633D01*
Y-383D02*
X95250Y0D01*
X94867Y-27633D02*
Y-383D01*
X105500Y-105250D02*
Y-99250D01*
X99500Y-105250D02*
X105500D01*
Y-99250D02*
Y-76000D01*
X99500Y-99250D02*
Y-82000D01*
Y-105250D02*
Y-99250D01*
Y-82000D02*
X105500Y-76000D01*
X36500Y-104750D02*
Y-98750D01*
X30500Y-104750D02*
X36500D01*
Y-98750D02*
Y-86000D01*
X30500Y-98750D02*
Y-92000D01*
Y-104750D02*
Y-98750D01*
Y-92000D02*
X36500Y-86000D01*
D129*
X121800Y-245000D02*
D03*
X147200Y-241000D02*
D03*
X172600Y-245000D02*
D03*
X198000Y-241000D02*
D03*
X223400Y-245000D02*
D03*
X248800Y-241000D02*
D03*
X-333000Y-324600D02*
D03*
Y-350000D02*
D03*
Y-375400D02*
D03*
Y-400800D02*
D03*
Y-426200D02*
D03*
Y-451600D02*
D03*
Y-477000D02*
D03*
Y-502400D02*
D03*
D130*
X-395000Y-255000D02*
D03*
X395000D02*
D03*
D131*
X354300Y-60900D02*
D03*
X354300Y-146900D02*
D03*
D132*
X310000Y-60900D02*
D03*
Y-146900D02*
D03*
D133*
X206000Y-398000D02*
D03*
X220000Y-398000D02*
D03*
X192000D02*
D03*
X220000Y-384000D02*
D03*
X206000Y-384000D02*
D03*
X192000D02*
D03*
X213000Y-405000D02*
D03*
X199000Y-405000D02*
D03*
X213000Y-391000D02*
D03*
X199000D02*
D03*
X213000Y-377000D02*
D03*
X199000Y-377000D02*
D03*
X-240484Y-385766D02*
D03*
X-237250Y-340500D02*
D03*
X31000Y-522250D02*
D03*
X-147250Y-365500D02*
D03*
X-144500Y-359362D02*
D03*
X-144750Y-353367D02*
D03*
X-303250Y-474500D02*
D03*
X-302750Y-463750D02*
D03*
X144000Y-203750D02*
D03*
X166250Y-216000D02*
D03*
X190750Y-90750D02*
D03*
X-194000Y-373000D02*
D03*
X-190000Y-368000D02*
D03*
X-186000Y-363000D02*
D03*
Y-373000D02*
D03*
X-194000Y-363000D02*
D03*
X-103750Y-420500D02*
D03*
X-16644Y-331144D02*
D03*
X117000Y-213250D02*
D03*
X149500Y-99125D02*
D03*
X117000Y-141625D02*
D03*
X149500Y-94000D02*
D03*
X117000Y-146500D02*
D03*
Y-208500D02*
D03*
X51750Y-268500D02*
D03*
X11000Y-303000D02*
D03*
X-227250Y-303500D02*
D03*
X157250Y-83000D02*
D03*
X152500D02*
D03*
X147750Y-356500D02*
D03*
X62750Y-377000D02*
D03*
X5000Y-129000D02*
D03*
X185035Y-84818D02*
D03*
X210250Y-151500D02*
D03*
X184750D02*
D03*
X149500Y-166250D02*
D03*
X50000Y-150000D02*
D03*
X77250Y-295750D02*
D03*
X42000Y-311000D02*
D03*
X22250Y-265000D02*
D03*
X4500Y-221000D02*
D03*
X2750Y-246000D02*
D03*
Y-205000D02*
D03*
Y-159000D02*
D03*
Y-113000D02*
D03*
X42000Y-355250D02*
D03*
X42500Y-339250D02*
D03*
X121000Y-310000D02*
D03*
X127000Y-304000D02*
D03*
X166000Y-199000D02*
D03*
X-279000Y-422000D02*
D03*
X229000Y-217000D02*
D03*
X355000Y21000D02*
D03*
X-64000Y-332000D02*
D03*
X84000Y-368000D02*
D03*
X-27000Y-149000D02*
D03*
X350000Y-350000D02*
D03*
X300000Y-50000D02*
D03*
X250000D02*
D03*
X275000Y-200000D02*
D03*
X250000Y-350000D02*
D03*
Y-450000D02*
D03*
X225000Y-100000D02*
D03*
X200000Y-350000D02*
D03*
Y-450000D02*
D03*
X150000Y-50000D02*
D03*
X175000Y-400000D02*
D03*
X150000Y-450000D02*
D03*
X100000Y-50000D02*
D03*
X125000Y-400000D02*
D03*
X75000Y0D02*
D03*
X50000Y-50000D02*
D03*
X75000Y-100000D02*
D03*
X50000Y-550000D02*
D03*
X0Y-50000D02*
D03*
Y-550000D02*
D03*
X-50000Y-50000D02*
D03*
Y-550000D02*
D03*
X-75000Y0D02*
D03*
X-100000Y-50000D02*
D03*
Y-550000D02*
D03*
X-125000Y-500000D02*
D03*
X-175000D02*
D03*
X-200000Y-550000D02*
D03*
X-250000Y-50000D02*
D03*
X-225000Y-500000D02*
D03*
X-250000Y-550000D02*
D03*
X-275000Y-400000D02*
D03*
Y-500000D02*
D03*
X-300000Y-550000D02*
D03*
X-350000Y-50000D02*
D03*
Y-150000D02*
D03*
Y-250000D02*
D03*
Y-550000D02*
D03*
X14000Y-279000D02*
D03*
X339000Y-284000D02*
D03*
X242000Y-329000D02*
D03*
X62000Y-384000D02*
D03*
X-15000Y-261000D02*
D03*
X-116000Y-119000D02*
D03*
X292750Y-144500D02*
D03*
X289750Y-70000D02*
D03*
X-239125Y-361625D02*
D03*
X205682Y-85682D02*
D03*
X212000Y-101000D02*
D03*
X260000Y-462000D02*
D03*
X121000D02*
D03*
X256000Y-168000D02*
D03*
X242000D02*
D03*
X-7000Y-247000D02*
D03*
X-9000Y-180750D02*
D03*
X-19500Y-129000D02*
D03*
X210000Y-120000D02*
D03*
X199000Y-165000D02*
D03*
X174000D02*
D03*
X172000Y-120000D02*
D03*
X-201000Y-508000D02*
D03*
X67000Y-447000D02*
D03*
X62000Y-452000D02*
D03*
X-201000Y-515000D02*
D03*
X211000Y-166000D02*
D03*
X186000D02*
D03*
X298000Y-202000D02*
D03*
X60000Y-436000D02*
D03*
Y-430000D02*
D03*
X325000Y-193000D02*
D03*
X57000Y-442000D02*
D03*
X-52000Y-476000D02*
D03*
X-309000Y-468000D02*
D03*
X34000Y-529000D02*
D03*
X52000Y-460000D02*
D03*
X346000Y-452000D02*
D03*
X5000Y-175000D02*
D03*
X268000Y-430000D02*
D03*
Y-417000D02*
D03*
Y-405000D02*
D03*
X-267000D02*
D03*
X-274000Y-386000D02*
D03*
Y-374000D02*
D03*
Y-363000D02*
D03*
X-275000Y-331000D02*
D03*
X-220000Y-437000D02*
D03*
X-210000D02*
D03*
X-200000D02*
D03*
X-52000Y-492000D02*
D03*
Y-438000D02*
D03*
X-127000Y-407000D02*
D03*
X-115000Y-406000D02*
D03*
X-109000Y-374000D02*
D03*
X-85000Y-373000D02*
D03*
X-306000Y-381000D02*
D03*
X198000Y-313000D02*
D03*
X185000D02*
D03*
X172000D02*
D03*
X-252500Y-452500D02*
D03*
X-277500D02*
D03*
X-302500D02*
D03*
X282000Y-78250D02*
D03*
X287000Y-119250D02*
D03*
X241750Y-140750D02*
D03*
X256000D02*
D03*
X287000Y-86500D02*
D03*
X256250Y-80750D02*
D03*
X280605Y-121395D02*
D03*
Y-93645D02*
D03*
X257000Y-93750D02*
D03*
Y-121500D02*
D03*
X280500Y-110250D02*
D03*
Y-104000D02*
D03*
X256750D02*
D03*
Y-110250D02*
D03*
X344500Y-382000D02*
D03*
X333750Y-434750D02*
D03*
X310750Y-431750D02*
D03*
X-248250Y-230750D02*
D03*
X-146000Y-157000D02*
D03*
X-128500Y-331250D02*
D03*
Y-323500D02*
D03*
X-191500Y-311750D02*
D03*
X-162500Y-318250D02*
D03*
X-153750Y-302500D02*
D03*
X-164500Y-302750D02*
D03*
X-177500Y-317000D02*
D03*
X-182500Y-322750D02*
D03*
X-198000Y-317000D02*
D03*
X-236750Y-332500D02*
D03*
X-230000Y-331250D02*
D03*
X-25000Y-205000D02*
D03*
Y-159000D02*
D03*
Y-113000D02*
D03*
X23000Y-198000D02*
D03*
Y-185000D02*
D03*
X-146000Y-231000D02*
D03*
X-44000D02*
D03*
Y-157000D02*
D03*
X-248000D02*
D03*
X23100Y-204350D02*
D03*
X22900Y-191650D02*
D03*
X22800Y-178950D02*
D03*
X-234250Y-380500D02*
D03*
D134*
X-66000Y-437000D02*
D03*
X1000Y-324000D02*
D03*
X-1250Y-338500D02*
D03*
X55000Y-405000D02*
D03*
X6000Y-393000D02*
D03*
X10000Y-469000D02*
D03*
X22000Y-519000D02*
D03*
X10000D02*
D03*
X-2000D02*
D03*
Y-511000D02*
D03*
X10000D02*
D03*
X22000D02*
D03*
X-289000Y-97000D02*
D03*
X-283000Y-91000D02*
D03*
X-289000Y-85000D02*
D03*
X-277000D02*
D03*
X-289000Y-91000D02*
D03*
X-277000D02*
D03*
X-289000Y-103000D02*
D03*
X-301000Y-97000D02*
D03*
X-295000Y-91000D02*
D03*
X-283000Y-97000D02*
D03*
X-295000Y-103000D02*
D03*
X-271000Y-85000D02*
D03*
X-295000Y-97000D02*
D03*
Y-109000D02*
D03*
X-283000Y-85000D02*
D03*
X-75000Y-84000D02*
D03*
X-69000D02*
D03*
X-57000D02*
D03*
X-63000D02*
D03*
Y-90000D02*
D03*
X-57000D02*
D03*
X-69000D02*
D03*
X-57000Y-102000D02*
D03*
X-63000Y-96000D02*
D03*
X-57000D02*
D03*
X-51000D02*
D03*
X-45000D02*
D03*
X-39000D02*
D03*
Y-102000D02*
D03*
X-45000D02*
D03*
X-51000D02*
D03*
Y-90000D02*
D03*
X-45000D02*
D03*
X-51000Y-84000D02*
D03*
Y-108000D02*
D03*
X-45000D02*
D03*
X-39000D02*
D03*
Y-114000D02*
D03*
X-45000D02*
D03*
Y-126000D02*
D03*
Y-120000D02*
D03*
X-147000Y-91000D02*
D03*
X-141000D02*
D03*
X-135000Y-97000D02*
D03*
X-141000D02*
D03*
X-147000D02*
D03*
Y-85000D02*
D03*
Y-103000D02*
D03*
X-141000D02*
D03*
Y-109000D02*
D03*
X-147000D02*
D03*
Y-121000D02*
D03*
X-141000D02*
D03*
Y-115000D02*
D03*
X-147000D02*
D03*
X-208000Y-104000D02*
D03*
X-214000D02*
D03*
X-208000Y-98000D02*
D03*
X-202000D02*
D03*
X-196000D02*
D03*
X-190000D02*
D03*
X-202000Y-92000D02*
D03*
X-196000D02*
D03*
X-190000D02*
D03*
Y-86000D02*
D03*
X-196000D02*
D03*
X-214000Y-116000D02*
D03*
Y-110000D02*
D03*
X-220000D02*
D03*
X-81000Y-70000D02*
D03*
X-348000Y-87000D02*
D03*
X-342000Y-93000D02*
D03*
X-348000D02*
D03*
X-342000Y-81000D02*
D03*
X-348000D02*
D03*
X-342000Y-87000D02*
D03*
X-310250Y-234250D02*
D03*
Y-240000D02*
D03*
X-100000Y-350500D02*
D03*
Y-345000D02*
D03*
X-150000Y-550000D02*
D03*
X38000D02*
D03*
X59000Y-528000D02*
D03*
X-360000Y-421000D02*
D03*
Y-183000D02*
D03*
Y-292000D02*
D03*
X360000Y-317000D02*
D03*
X270000Y-159000D02*
D03*
X291000Y-175000D02*
D03*
X244000Y-70000D02*
D03*
X84000D02*
D03*
X-258000D02*
D03*
X-360000Y-90000D02*
D03*
Y-527000D02*
D03*
X-335000Y-550000D02*
D03*
X338000Y-175000D02*
D03*
X360000Y-199000D02*
D03*
Y-448000D02*
D03*
X333000Y-472000D02*
D03*
X63000Y-481000D02*
D03*
X105500Y-111250D02*
D03*
Y-105250D02*
D03*
X99500Y-111250D02*
D03*
Y-105250D02*
D03*
Y-99250D02*
D03*
X105500D02*
D03*
X30500Y-98750D02*
D03*
Y-104750D02*
D03*
X36500Y-98750D02*
D03*
Y-104750D02*
D03*
Y-110750D02*
D03*
X30500D02*
D03*
X-121000Y-152000D02*
D03*
X-117000Y-292890D02*
D03*
X-111000D02*
D03*
X-105000D02*
D03*
X-99000D02*
D03*
X-93000D02*
D03*
Y-298890D02*
D03*
X-99000D02*
D03*
X-105000D02*
D03*
X-111000D02*
D03*
X-117000D02*
D03*
X-219000Y-293000D02*
D03*
X-213000D02*
D03*
X-207000D02*
D03*
X-201000D02*
D03*
X-195000D02*
D03*
Y-299000D02*
D03*
X-201000D02*
D03*
X-207000D02*
D03*
X-213000D02*
D03*
X-219000D02*
D03*
X-321000D02*
D03*
X-315000D02*
D03*
X-309000D02*
D03*
X-303000D02*
D03*
X-297000D02*
D03*
Y-293000D02*
D03*
X-303000D02*
D03*
X-309000D02*
D03*
X-315000D02*
D03*
X-321000D02*
D03*
X-63000Y-200000D02*
D03*
X-57000D02*
D03*
X-69000D02*
D03*
X-75000D02*
D03*
X-51000D02*
D03*
X-75000Y-206000D02*
D03*
X-69000D02*
D03*
X-63000D02*
D03*
X-57000D02*
D03*
X-51000D02*
D03*
X-45000Y-200000D02*
D03*
Y-206000D02*
D03*
X-81000Y-200000D02*
D03*
Y-206000D02*
D03*
Y-194000D02*
D03*
Y-188000D02*
D03*
X-45000Y-194000D02*
D03*
Y-188000D02*
D03*
X-51000Y-194000D02*
D03*
X-57000D02*
D03*
X-63000D02*
D03*
X-69000D02*
D03*
X-75000D02*
D03*
X-51000Y-188000D02*
D03*
X-75000D02*
D03*
X-69000D02*
D03*
X-57000D02*
D03*
X-63000D02*
D03*
X-81000Y-212000D02*
D03*
X-45000D02*
D03*
X-51000D02*
D03*
X-75000D02*
D03*
X-69000D02*
D03*
X-57000D02*
D03*
X-63000D02*
D03*
X-165000Y-200000D02*
D03*
X-159000D02*
D03*
X-171000D02*
D03*
X-177000D02*
D03*
X-153000D02*
D03*
X-177000Y-206000D02*
D03*
X-171000D02*
D03*
X-165000D02*
D03*
X-159000D02*
D03*
X-153000D02*
D03*
X-147000Y-200000D02*
D03*
Y-206000D02*
D03*
X-183000Y-200000D02*
D03*
Y-206000D02*
D03*
Y-194000D02*
D03*
Y-188000D02*
D03*
X-147000Y-194000D02*
D03*
Y-188000D02*
D03*
X-153000Y-194000D02*
D03*
X-159000D02*
D03*
X-165000D02*
D03*
X-171000D02*
D03*
X-177000D02*
D03*
X-153000Y-188000D02*
D03*
X-177000D02*
D03*
X-171000D02*
D03*
X-159000D02*
D03*
X-165000D02*
D03*
X-183000Y-212000D02*
D03*
X-147000D02*
D03*
X-153000D02*
D03*
X-177000D02*
D03*
X-171000D02*
D03*
X-159000D02*
D03*
X-165000D02*
D03*
X-267000D02*
D03*
X-261000D02*
D03*
X-273000D02*
D03*
X-279000D02*
D03*
X-255000D02*
D03*
X-249000D02*
D03*
X-285000D02*
D03*
X-267000Y-188000D02*
D03*
X-261000D02*
D03*
X-273000D02*
D03*
X-279000D02*
D03*
X-255000D02*
D03*
X-279000Y-194000D02*
D03*
X-273000D02*
D03*
X-267000D02*
D03*
X-261000D02*
D03*
X-255000D02*
D03*
X-249000Y-188000D02*
D03*
Y-194000D02*
D03*
X-285000Y-188000D02*
D03*
Y-194000D02*
D03*
Y-206000D02*
D03*
Y-200000D02*
D03*
X-249000Y-206000D02*
D03*
Y-200000D02*
D03*
X-255000Y-206000D02*
D03*
X-261000D02*
D03*
X-267000D02*
D03*
X-273000D02*
D03*
X-279000D02*
D03*
X-255000Y-200000D02*
D03*
X-279000D02*
D03*
X-273000D02*
D03*
X-261000D02*
D03*
X-267000D02*
D03*
X-121000Y-134000D02*
D03*
Y-140000D02*
D03*
Y-146000D02*
D03*
Y-181000D02*
D03*
Y-175000D02*
D03*
Y-169000D02*
D03*
Y-163000D02*
D03*
Y-211000D02*
D03*
Y-205000D02*
D03*
Y-199000D02*
D03*
Y-193000D02*
D03*
Y-240000D02*
D03*
Y-234000D02*
D03*
Y-228000D02*
D03*
Y-222000D02*
D03*
X-223000Y-134000D02*
D03*
Y-140000D02*
D03*
Y-146000D02*
D03*
Y-152000D02*
D03*
Y-181000D02*
D03*
Y-175000D02*
D03*
Y-169000D02*
D03*
Y-163000D02*
D03*
Y-211000D02*
D03*
Y-205000D02*
D03*
Y-199000D02*
D03*
Y-193000D02*
D03*
Y-240000D02*
D03*
Y-234000D02*
D03*
Y-228000D02*
D03*
Y-222000D02*
D03*
X-325000D02*
D03*
Y-228000D02*
D03*
Y-234000D02*
D03*
Y-240000D02*
D03*
Y-193000D02*
D03*
Y-199000D02*
D03*
Y-205000D02*
D03*
Y-211000D02*
D03*
Y-163000D02*
D03*
Y-169000D02*
D03*
Y-175000D02*
D03*
Y-181000D02*
D03*
Y-152000D02*
D03*
Y-146000D02*
D03*
Y-140000D02*
D03*
Y-134000D02*
D03*
D135*
X285750Y0D02*
D03*
X247650D02*
D03*
X209550D02*
D03*
X171450D02*
D03*
X133350D02*
D03*
X95250D02*
D03*
X57150D02*
D03*
X19050D02*
D03*
X-19050D02*
D03*
X-57150D02*
D03*
X-95250D02*
D03*
X-133350D02*
D03*
X-171450D02*
D03*
X-209550D02*
D03*
X-247650D02*
D03*
X-285750D02*
D03*
D136*
X-22000Y-173000D02*
D03*
Y-184700D02*
D03*
Y-223400D02*
D03*
Y-235100D02*
D03*
X-31000Y-124400D02*
D03*
Y-136100D02*
D03*
X199000Y-146000D02*
D03*
Y-134300D02*
D03*
X172000Y-135000D02*
D03*
Y-146700D02*
D03*
M02*
