G04*
G04 #@! TF.GenerationSoftware,Altium Limited,Altium Designer,24.1.2 (44)*
G04*
G04 Layer_Color=32896*
%FSLAX44Y44*%
%MOMM*%
G71*
G04*
G04 #@! TF.SameCoordinates,C2358ADC-4AF9-434A-8588-A0F146304F54*
G04*
G04*
G04 #@! TF.FilePolarity,Positive*
G04*
G01*
G75*
%ADD11C,0.2000*%
%ADD15C,0.1500*%
%ADD16C,0.3000*%
%ADD20C,0.1600*%
G36*
X36000Y18000D02*
X-100883D01*
Y30290D01*
X36000D01*
Y18000D01*
D02*
G37*
G36*
X-126500Y30540D02*
Y18250D01*
X-211021D01*
Y30540D01*
X-126500D01*
D02*
G37*
G36*
X-236000Y18000D02*
X-297757D01*
Y30298D01*
X-236000D01*
Y18000D01*
D02*
G37*
G36*
X156000D02*
X51017D01*
Y30290D01*
X156000D01*
Y18000D01*
D02*
G37*
G36*
X261000D02*
X164981D01*
Y30298D01*
X261000D01*
Y18000D01*
D02*
G37*
%LPC*%
G36*
X-42389Y27290D02*
X-42506D01*
X-42589Y27282D01*
X-42681Y27273D01*
X-42797Y27265D01*
X-42922Y27257D01*
X-43056Y27232D01*
X-43339Y27182D01*
X-43630Y27098D01*
X-43764Y27048D01*
X-43897Y26990D01*
X-44014Y26923D01*
X-44122Y26840D01*
X-44130Y26832D01*
X-44147Y26823D01*
X-44172Y26799D01*
X-44205Y26765D01*
X-44247Y26715D01*
X-44289Y26665D01*
X-44338Y26607D01*
X-44388Y26540D01*
X-44489Y26374D01*
X-44572Y26190D01*
X-44605Y26082D01*
X-44630Y25974D01*
X-44647Y25857D01*
X-44655Y25732D01*
Y25724D01*
Y25715D01*
Y25665D01*
X-44647Y25590D01*
X-44630Y25491D01*
X-44605Y25382D01*
X-44563Y25266D01*
X-44514Y25141D01*
X-44439Y25016D01*
X-44430Y24999D01*
X-44397Y24966D01*
X-44347Y24899D01*
X-44272Y24824D01*
X-44180Y24741D01*
X-44072Y24649D01*
X-43939Y24549D01*
X-43780Y24457D01*
X-43797D01*
X-43839Y24441D01*
X-43905Y24424D01*
X-43980Y24399D01*
X-44064Y24374D01*
X-44155Y24341D01*
X-44247Y24299D01*
X-44322Y24258D01*
X-44338Y24249D01*
X-44372Y24224D01*
X-44422Y24183D01*
X-44497Y24124D01*
X-44572Y24049D01*
X-44647Y23966D01*
X-44722Y23866D01*
X-44788Y23758D01*
X-44797Y23741D01*
X-44813Y23708D01*
X-44847Y23641D01*
X-44880Y23558D01*
X-44905Y23449D01*
X-44938Y23324D01*
X-44955Y23183D01*
X-44963Y23033D01*
Y22941D01*
X-44955Y22891D01*
X-44947Y22841D01*
X-44930Y22708D01*
X-44897Y22550D01*
X-44847Y22375D01*
X-44772Y22191D01*
X-44680Y22008D01*
Y22000D01*
X-44663Y21983D01*
X-44655Y21958D01*
X-44630Y21925D01*
X-44563Y21841D01*
X-44480Y21733D01*
X-44363Y21616D01*
X-44230Y21491D01*
X-44064Y21367D01*
X-43880Y21258D01*
X-43872D01*
X-43855Y21250D01*
X-43830Y21233D01*
X-43789Y21217D01*
X-43730Y21200D01*
X-43672Y21175D01*
X-43597Y21150D01*
X-43514Y21133D01*
X-43422Y21108D01*
X-43314Y21083D01*
X-43197Y21058D01*
X-43081Y21042D01*
X-42947Y21025D01*
X-42806Y21008D01*
X-42506Y21000D01*
X-44963D01*
D01*
X-39931D01*
X-42372D01*
X-42297Y21008D01*
X-42214D01*
X-42131Y21017D01*
X-42031Y21025D01*
X-41823Y21050D01*
X-41598Y21083D01*
X-41381Y21125D01*
X-41189Y21192D01*
X-41181D01*
X-41173Y21200D01*
X-41148Y21208D01*
X-41114Y21225D01*
X-41023Y21275D01*
X-40914Y21333D01*
X-40789Y21416D01*
X-40656Y21508D01*
X-40523Y21625D01*
X-40398Y21758D01*
Y21766D01*
X-40381Y21775D01*
X-40364Y21800D01*
X-40348Y21825D01*
X-40290Y21908D01*
X-40223Y22025D01*
X-40148Y22158D01*
X-40073Y22325D01*
X-39998Y22508D01*
X-39931Y22708D01*
X-41623Y22933D01*
Y22924D01*
X-41631Y22908D01*
Y22883D01*
X-41639Y22850D01*
X-41664Y22758D01*
X-41698Y22658D01*
X-41739Y22533D01*
X-41797Y22416D01*
X-41856Y22316D01*
X-41931Y22225D01*
X-41939Y22216D01*
X-41972Y22191D01*
X-42014Y22166D01*
X-42072Y22133D01*
X-42156Y22091D01*
X-42247Y22066D01*
X-42347Y22041D01*
X-42464Y22033D01*
X-42522D01*
X-42581Y22050D01*
X-42664Y22066D01*
X-42756Y22091D01*
X-42847Y22133D01*
X-42939Y22191D01*
X-43031Y22275D01*
X-43039Y22283D01*
X-43064Y22325D01*
X-43106Y22375D01*
X-43147Y22450D01*
X-43189Y22550D01*
X-43231Y22658D01*
X-43256Y22791D01*
X-43264Y22941D01*
Y22950D01*
Y22958D01*
Y23008D01*
X-43256Y23091D01*
X-43239Y23183D01*
X-43205Y23291D01*
X-43172Y23399D01*
X-43114Y23508D01*
X-43039Y23599D01*
X-43031Y23608D01*
X-42997Y23633D01*
X-42947Y23674D01*
X-42881Y23716D01*
X-42797Y23758D01*
X-42697Y23799D01*
X-42581Y23824D01*
X-42447Y23833D01*
X-42414D01*
X-42364Y23824D01*
X-42306D01*
X-42231Y23808D01*
X-42131Y23791D01*
X-42031Y23766D01*
X-41906Y23733D01*
X-41989Y24941D01*
X-42014D01*
X-42039Y24932D01*
X-42072D01*
X-42139Y24924D01*
X-42264D01*
X-42322Y24932D01*
X-42397Y24949D01*
X-42489Y24974D01*
X-42581Y25016D01*
X-42672Y25066D01*
X-42764Y25132D01*
X-42772Y25141D01*
X-42797Y25166D01*
X-42839Y25215D01*
X-42881Y25274D01*
X-42914Y25349D01*
X-42955Y25432D01*
X-42980Y25524D01*
X-42989Y25632D01*
Y25640D01*
Y25682D01*
X-42980Y25732D01*
X-42972Y25790D01*
X-42947Y25857D01*
X-42922Y25932D01*
X-42881Y26007D01*
X-42822Y26074D01*
X-42814Y26082D01*
X-42789Y26099D01*
X-42756Y26124D01*
X-42706Y26157D01*
X-42639Y26190D01*
X-42556Y26215D01*
X-42464Y26232D01*
X-42364Y26240D01*
X-42314D01*
X-42256Y26232D01*
X-42189Y26215D01*
X-42114Y26199D01*
X-42031Y26165D01*
X-41947Y26115D01*
X-41873Y26057D01*
X-41864Y26049D01*
X-41839Y26024D01*
X-41814Y25974D01*
X-41772Y25907D01*
X-41731Y25824D01*
X-41689Y25715D01*
X-41656Y25582D01*
X-41623Y25424D01*
X-40023Y25707D01*
Y25715D01*
X-40031Y25740D01*
X-40048Y25782D01*
X-40065Y25832D01*
X-40081Y25899D01*
X-40115Y25974D01*
X-40190Y26140D01*
X-40290Y26332D01*
X-40423Y26523D01*
X-40589Y26715D01*
X-40681Y26799D01*
X-40781Y26882D01*
X-40789Y26890D01*
X-40806Y26898D01*
X-40839Y26923D01*
X-40889Y26948D01*
X-40948Y26973D01*
X-41014Y27015D01*
X-41098Y27048D01*
X-41198Y27090D01*
X-41306Y27123D01*
X-41423Y27165D01*
X-41556Y27198D01*
X-41706Y27223D01*
X-41856Y27257D01*
X-42022Y27273D01*
X-42197Y27282D01*
X-42389Y27290D01*
D02*
G37*
G36*
X-54678D02*
X-54794D01*
X-54878Y27282D01*
X-54969Y27273D01*
X-55086Y27265D01*
X-55211Y27257D01*
X-55344Y27232D01*
X-55627Y27182D01*
X-55919Y27098D01*
X-56052Y27048D01*
X-56185Y26990D01*
X-56302Y26923D01*
X-56410Y26840D01*
X-56419Y26832D01*
X-56435Y26823D01*
X-56460Y26799D01*
X-56494Y26765D01*
X-56535Y26715D01*
X-56577Y26665D01*
X-56627Y26607D01*
X-56677Y26540D01*
X-56777Y26374D01*
X-56860Y26190D01*
X-56894Y26082D01*
X-56919Y25974D01*
X-56935Y25857D01*
X-56944Y25732D01*
Y25724D01*
Y25715D01*
Y25665D01*
X-56935Y25590D01*
X-56919Y25491D01*
X-56894Y25382D01*
X-56852Y25266D01*
X-56802Y25141D01*
X-56727Y25016D01*
X-56719Y24999D01*
X-56685Y24966D01*
X-56635Y24899D01*
X-56560Y24824D01*
X-56469Y24741D01*
X-56360Y24649D01*
X-56227Y24549D01*
X-56069Y24457D01*
X-56086D01*
X-56127Y24441D01*
X-56194Y24424D01*
X-56269Y24399D01*
X-56352Y24374D01*
X-56444Y24341D01*
X-56535Y24299D01*
X-56610Y24258D01*
X-56627Y24249D01*
X-56660Y24224D01*
X-56710Y24183D01*
X-56785Y24124D01*
X-56860Y24049D01*
X-56935Y23966D01*
X-57010Y23866D01*
X-57077Y23758D01*
X-57085Y23741D01*
X-57102Y23708D01*
X-57135Y23641D01*
X-57169Y23558D01*
X-57194Y23449D01*
X-57227Y23324D01*
X-57243Y23183D01*
X-57252Y23033D01*
Y22941D01*
X-57243Y22891D01*
X-57235Y22841D01*
X-57219Y22708D01*
X-57185Y22550D01*
X-57135Y22375D01*
X-57060Y22191D01*
X-56969Y22008D01*
Y22000D01*
X-56952Y21983D01*
X-56944Y21958D01*
X-56919Y21925D01*
X-56852Y21841D01*
X-56769Y21733D01*
X-56652Y21616D01*
X-56519Y21491D01*
X-56352Y21367D01*
X-56169Y21258D01*
X-56160D01*
X-56144Y21250D01*
X-56119Y21233D01*
X-56077Y21217D01*
X-56019Y21200D01*
X-55960Y21175D01*
X-55886Y21150D01*
X-55802Y21133D01*
X-55711Y21108D01*
X-55602Y21083D01*
X-55486Y21058D01*
X-55369Y21042D01*
X-55236Y21025D01*
X-55094Y21008D01*
X-54794Y21000D01*
X-57252D01*
D01*
X-52220D01*
X-54661D01*
X-54586Y21008D01*
X-54503D01*
X-54419Y21017D01*
X-54319Y21025D01*
X-54111Y21050D01*
X-53886Y21083D01*
X-53670Y21125D01*
X-53478Y21192D01*
X-53470D01*
X-53461Y21200D01*
X-53436Y21208D01*
X-53403Y21225D01*
X-53311Y21275D01*
X-53203Y21333D01*
X-53078Y21416D01*
X-52945Y21508D01*
X-52811Y21625D01*
X-52686Y21758D01*
Y21766D01*
X-52670Y21775D01*
X-52653Y21800D01*
X-52636Y21825D01*
X-52578Y21908D01*
X-52511Y22025D01*
X-52436Y22158D01*
X-52361Y22325D01*
X-52287Y22508D01*
X-52220Y22708D01*
X-53911Y22933D01*
Y22924D01*
X-53919Y22908D01*
Y22883D01*
X-53928Y22850D01*
X-53953Y22758D01*
X-53986Y22658D01*
X-54028Y22533D01*
X-54086Y22416D01*
X-54144Y22316D01*
X-54219Y22225D01*
X-54228Y22216D01*
X-54261Y22191D01*
X-54303Y22166D01*
X-54361Y22133D01*
X-54444Y22091D01*
X-54536Y22066D01*
X-54636Y22041D01*
X-54752Y22033D01*
X-54811D01*
X-54869Y22050D01*
X-54953Y22066D01*
X-55044Y22091D01*
X-55136Y22133D01*
X-55227Y22191D01*
X-55319Y22275D01*
X-55327Y22283D01*
X-55352Y22325D01*
X-55394Y22375D01*
X-55436Y22450D01*
X-55477Y22550D01*
X-55519Y22658D01*
X-55544Y22791D01*
X-55552Y22941D01*
Y22950D01*
Y22958D01*
Y23008D01*
X-55544Y23091D01*
X-55527Y23183D01*
X-55494Y23291D01*
X-55461Y23399D01*
X-55402Y23508D01*
X-55327Y23599D01*
X-55319Y23608D01*
X-55286Y23633D01*
X-55236Y23674D01*
X-55169Y23716D01*
X-55086Y23758D01*
X-54986Y23799D01*
X-54869Y23824D01*
X-54736Y23833D01*
X-54703D01*
X-54653Y23824D01*
X-54594D01*
X-54519Y23808D01*
X-54419Y23791D01*
X-54319Y23766D01*
X-54194Y23733D01*
X-54278Y24941D01*
X-54303D01*
X-54328Y24932D01*
X-54361D01*
X-54428Y24924D01*
X-54553D01*
X-54611Y24932D01*
X-54686Y24949D01*
X-54777Y24974D01*
X-54869Y25016D01*
X-54961Y25066D01*
X-55052Y25132D01*
X-55061Y25141D01*
X-55086Y25166D01*
X-55127Y25215D01*
X-55169Y25274D01*
X-55202Y25349D01*
X-55244Y25432D01*
X-55269Y25524D01*
X-55277Y25632D01*
Y25640D01*
Y25682D01*
X-55269Y25732D01*
X-55261Y25790D01*
X-55236Y25857D01*
X-55211Y25932D01*
X-55169Y26007D01*
X-55111Y26074D01*
X-55102Y26082D01*
X-55077Y26099D01*
X-55044Y26124D01*
X-54994Y26157D01*
X-54928Y26190D01*
X-54844Y26215D01*
X-54752Y26232D01*
X-54653Y26240D01*
X-54603D01*
X-54544Y26232D01*
X-54478Y26215D01*
X-54403Y26199D01*
X-54319Y26165D01*
X-54236Y26115D01*
X-54161Y26057D01*
X-54153Y26049D01*
X-54128Y26024D01*
X-54103Y25974D01*
X-54061Y25907D01*
X-54019Y25824D01*
X-53978Y25715D01*
X-53944Y25582D01*
X-53911Y25424D01*
X-52312Y25707D01*
Y25715D01*
X-52320Y25740D01*
X-52337Y25782D01*
X-52353Y25832D01*
X-52370Y25899D01*
X-52403Y25974D01*
X-52478Y26140D01*
X-52578Y26332D01*
X-52711Y26523D01*
X-52878Y26715D01*
X-52970Y26799D01*
X-53070Y26882D01*
X-53078Y26890D01*
X-53095Y26898D01*
X-53128Y26923D01*
X-53178Y26948D01*
X-53236Y26973D01*
X-53303Y27015D01*
X-53386Y27048D01*
X-53486Y27090D01*
X-53594Y27123D01*
X-53711Y27165D01*
X-53844Y27198D01*
X-53994Y27223D01*
X-54144Y27257D01*
X-54311Y27273D01*
X-54486Y27282D01*
X-54678Y27290D01*
D02*
G37*
G36*
X-61051Y27190D02*
X-64275D01*
X-64342Y27182D01*
X-64425Y27173D01*
X-64525Y27165D01*
X-64633Y27148D01*
X-64750Y27132D01*
X-64992Y27073D01*
X-65125Y27032D01*
X-65250Y26982D01*
X-65367Y26923D01*
X-65491Y26865D01*
X-65600Y26782D01*
X-65700Y26699D01*
X-65708Y26690D01*
X-65725Y26674D01*
X-65750Y26648D01*
X-65783Y26607D01*
X-65816Y26557D01*
X-65866Y26499D01*
X-65908Y26424D01*
X-65958Y26349D01*
X-66008Y26249D01*
X-66050Y26149D01*
X-66100Y26032D01*
X-66133Y25915D01*
X-66166Y25774D01*
X-66191Y25632D01*
X-66208Y25482D01*
X-66216Y25315D01*
Y25357D01*
Y25315D01*
Y25224D01*
X-66208Y25166D01*
X-66200Y25082D01*
X-66183Y24999D01*
X-66166Y24899D01*
X-66150Y24791D01*
X-66083Y24557D01*
X-66033Y24441D01*
X-65983Y24316D01*
X-65916Y24199D01*
X-65841Y24083D01*
X-65758Y23974D01*
X-65658Y23874D01*
X-65650Y23866D01*
X-65633Y23849D01*
X-65600Y23824D01*
X-65558Y23791D01*
X-65500Y23758D01*
X-65425Y23708D01*
X-65342Y23666D01*
X-65241Y23616D01*
X-65125Y23566D01*
X-65000Y23524D01*
X-64867Y23474D01*
X-64717Y23441D01*
X-64550Y23408D01*
X-64367Y23383D01*
X-64175Y23366D01*
X-63967Y23358D01*
X-62942D01*
Y21100D01*
X-66216D01*
D01*
X-61051D01*
Y27190D01*
D02*
G37*
G36*
X-92718D02*
X-97883D01*
X-95942D01*
X-96009Y27182D01*
X-96092Y27173D01*
X-96192Y27165D01*
X-96300Y27148D01*
X-96417Y27132D01*
X-96658Y27073D01*
X-96792Y27032D01*
X-96917Y26982D01*
X-97033Y26923D01*
X-97158Y26865D01*
X-97267Y26782D01*
X-97367Y26699D01*
X-97375Y26690D01*
X-97392Y26674D01*
X-97417Y26648D01*
X-97450Y26607D01*
X-97483Y26557D01*
X-97533Y26499D01*
X-97575Y26424D01*
X-97625Y26349D01*
X-97675Y26249D01*
X-97717Y26149D01*
X-97767Y26032D01*
X-97800Y25915D01*
X-97833Y25774D01*
X-97858Y25632D01*
X-97875Y25482D01*
X-97883Y25315D01*
Y25374D01*
Y25224D01*
X-97875Y25166D01*
X-97866Y25082D01*
X-97850Y24999D01*
X-97833Y24899D01*
X-97816Y24791D01*
X-97750Y24557D01*
X-97700Y24441D01*
X-97650Y24316D01*
X-97583Y24199D01*
X-97508Y24083D01*
X-97425Y23974D01*
X-97325Y23874D01*
X-97317Y23866D01*
X-97300Y23849D01*
X-97267Y23824D01*
X-97225Y23791D01*
X-97167Y23758D01*
X-97092Y23708D01*
X-97008Y23666D01*
X-96908Y23616D01*
X-96792Y23566D01*
X-96667Y23524D01*
X-96533Y23474D01*
X-96383Y23441D01*
X-96217Y23408D01*
X-96034Y23383D01*
X-95842Y23366D01*
X-95634Y23358D01*
X-94609D01*
Y21100D01*
X-92718D01*
Y27190D01*
D02*
G37*
G36*
X-30184Y27190D02*
X-33496D01*
X-32267D01*
X-33500Y25141D01*
X-34724Y27190D01*
X-36807D01*
X-34441Y23649D01*
Y21100D01*
X-30184D01*
X-32558D01*
Y23649D01*
X-30184Y27190D01*
D02*
G37*
G36*
X33000D02*
X31117D01*
Y25057D01*
X29059D01*
Y27190D01*
X27168D01*
Y21100D01*
X33000D01*
Y27190D01*
D02*
G37*
G36*
X1883D02*
X-2141D01*
Y25840D01*
X592D01*
X733Y24924D01*
X717Y24932D01*
X683Y24949D01*
X625Y24974D01*
X558Y24999D01*
X475Y25032D01*
X375Y25066D01*
X175Y25124D01*
X158D01*
X125Y25132D01*
X75Y25149D01*
X0Y25157D01*
X-83Y25174D01*
X-175Y25182D01*
X-375Y25191D01*
X-466D01*
X-525Y25182D01*
X-608Y25174D01*
X-691Y25157D01*
X-791Y25141D01*
X-908Y25124D01*
X-1141Y25057D01*
X-1266Y25007D01*
X-1391Y24957D01*
X-1508Y24891D01*
X-1633Y24816D01*
X-1749Y24732D01*
X-1858Y24632D01*
X-1866Y24624D01*
X-1883Y24607D01*
X-1908Y24574D01*
X-1949Y24532D01*
X-1991Y24482D01*
X-2041Y24416D01*
X-2091Y24341D01*
X-2149Y24249D01*
X-2199Y24158D01*
X-2249Y24049D01*
X-2299Y23941D01*
X-2341Y23816D01*
X-2383Y23683D01*
X-2408Y23541D01*
X-2424Y23399D01*
X-2433Y23241D01*
Y23183D01*
X-2424Y23141D01*
Y23091D01*
X-2416Y23024D01*
X-2399Y22883D01*
X-2358Y22708D01*
X-2308Y22516D01*
X-2233Y22316D01*
X-2133Y22108D01*
Y22100D01*
X-2116Y22083D01*
X-2099Y22058D01*
X-2083Y22016D01*
X-2016Y21925D01*
X-1916Y21800D01*
X-1799Y21667D01*
X-1658Y21533D01*
X-1491Y21400D01*
X-1300Y21283D01*
X-1291D01*
X-1275Y21275D01*
X-1241Y21258D01*
X-1200Y21242D01*
X-1150Y21217D01*
X-1083Y21192D01*
X-1016Y21167D01*
X-925Y21142D01*
X-833Y21117D01*
X-733Y21092D01*
X-616Y21067D01*
X-491Y21042D01*
X-366Y21025D01*
X-225Y21008D01*
X75Y21000D01*
X-2433D01*
D01*
X2633D01*
X225D01*
X283Y21008D01*
X425Y21017D01*
X592Y21025D01*
X767Y21050D01*
X942Y21075D01*
X1108Y21108D01*
X1116D01*
X1125Y21117D01*
X1150Y21125D01*
X1183Y21133D01*
X1258Y21158D01*
X1358Y21192D01*
X1475Y21242D01*
X1600Y21300D01*
X1725Y21375D01*
X1841Y21450D01*
X1858Y21458D01*
X1891Y21491D01*
X1950Y21533D01*
X2016Y21600D01*
X2091Y21675D01*
X2175Y21758D01*
X2258Y21858D01*
X2333Y21958D01*
X2341Y21975D01*
X2366Y22008D01*
X2400Y22075D01*
X2441Y22158D01*
X2483Y22258D01*
X2533Y22383D01*
X2583Y22525D01*
X2633Y22675D01*
X925Y22866D01*
Y22858D01*
Y22850D01*
X908Y22799D01*
X892Y22724D01*
X867Y22633D01*
X833Y22533D01*
X783Y22425D01*
X717Y22325D01*
X642Y22241D01*
X633Y22233D01*
X600Y22208D01*
X550Y22175D01*
X483Y22141D01*
X408Y22100D01*
X308Y22066D01*
X208Y22041D01*
X92Y22033D01*
X75D01*
X33Y22041D01*
X-33Y22050D01*
X-116Y22066D01*
X-208Y22100D01*
X-308Y22150D01*
X-408Y22208D01*
X-500Y22300D01*
X-508Y22316D01*
X-533Y22350D01*
X-575Y22408D01*
X-616Y22500D01*
X-658Y22608D01*
X-700Y22750D01*
X-725Y22908D01*
X-733Y23091D01*
Y23099D01*
Y23116D01*
Y23141D01*
Y23183D01*
X-725Y23274D01*
X-700Y23391D01*
X-675Y23524D01*
X-633Y23658D01*
X-575Y23774D01*
X-491Y23883D01*
X-483Y23891D01*
X-450Y23924D01*
X-400Y23966D01*
X-325Y24016D01*
X-242Y24058D01*
X-133Y24099D01*
X-8Y24132D01*
X125Y24141D01*
X167D01*
X217Y24132D01*
X275Y24124D01*
X350Y24107D01*
X433Y24091D01*
X517Y24058D01*
X600Y24016D01*
X608D01*
X633Y23999D01*
X667Y23974D01*
X717Y23949D01*
X767Y23899D01*
X833Y23849D01*
X908Y23783D01*
X983Y23699D01*
X2416Y23908D01*
X1883Y27190D01*
D02*
G37*
G36*
X8065Y25507D02*
X6257D01*
Y23474D01*
Y23816D01*
X8065D01*
Y25507D01*
D02*
G37*
G36*
X-2791Y27190D02*
X-4757D01*
X-6123Y22799D01*
X-7473Y27190D01*
X-9389D01*
X-7123Y21100D01*
X-9389D01*
D01*
X-2791D01*
D01*
X-5082D01*
X-2791Y27190D01*
D02*
G37*
G36*
X-45330Y27190D02*
X-47296D01*
X-48662Y22799D01*
X-50012Y27190D01*
X-48319D01*
X-51928D01*
X-49662Y21100D01*
X-47621D01*
X-45330Y27190D01*
D02*
G37*
G36*
X8065Y23474D02*
Y22791D01*
X6257D01*
Y22799D01*
Y21100D01*
X8065D01*
Y23474D01*
D02*
G37*
G36*
X13630Y27190D02*
X11747D01*
Y22600D01*
X8814D01*
D01*
Y21100D01*
X13630D01*
Y27190D01*
D02*
G37*
G36*
X-25127D02*
X-29942D01*
X-27010D01*
Y22600D01*
X-29942D01*
Y22650D01*
Y21100D01*
X-25127D01*
Y27190D01*
D02*
G37*
G36*
X-74289Y27190D02*
X-76172D01*
Y22599D01*
X-79105D01*
Y22600D01*
Y21100D01*
X-74289D01*
Y27190D01*
D02*
G37*
G36*
X-79963D02*
X-81846D01*
Y22599D01*
X-84778D01*
Y22600D01*
Y21100D01*
X-79963D01*
Y27190D01*
D02*
G37*
G36*
X-67199D02*
X-69074D01*
Y23474D01*
Y23466D01*
Y23449D01*
Y23424D01*
X-69082Y23391D01*
X-69090Y23308D01*
X-69107Y23191D01*
X-69141Y23066D01*
X-69191Y22941D01*
X-69257Y22816D01*
X-69349Y22699D01*
X-69365Y22691D01*
X-69399Y22658D01*
X-69465Y22616D01*
X-69549Y22566D01*
X-69657Y22508D01*
X-69790Y22466D01*
X-69940Y22433D01*
X-70115Y22425D01*
X-70165D01*
X-70199Y22433D01*
X-70282Y22441D01*
X-70399Y22458D01*
X-70515Y22491D01*
X-70648Y22541D01*
X-70773Y22608D01*
X-70882Y22699D01*
X-70890Y22716D01*
X-70923Y22750D01*
X-70973Y22816D01*
X-71023Y22899D01*
X-71073Y23008D01*
X-71123Y23141D01*
X-71157Y23299D01*
X-71165Y23474D01*
Y27190D01*
X-73039D01*
Y23466D01*
X-73031Y23416D01*
Y23366D01*
X-73014Y23233D01*
X-72998Y23074D01*
X-72965Y22908D01*
X-72923Y22724D01*
X-72864Y22541D01*
Y22533D01*
X-72856Y22516D01*
X-72848Y22491D01*
X-72831Y22458D01*
X-72790Y22366D01*
X-72740Y22258D01*
X-72665Y22125D01*
X-72573Y21983D01*
X-72465Y21841D01*
X-72340Y21700D01*
X-72323Y21683D01*
X-72281Y21641D01*
X-72206Y21583D01*
X-72115Y21500D01*
X-71998Y21416D01*
X-71873Y21342D01*
X-71732Y21258D01*
X-71582Y21200D01*
X-71573D01*
X-71557Y21192D01*
X-71523Y21183D01*
X-71482Y21167D01*
X-71432Y21150D01*
X-71373Y21133D01*
X-71298Y21117D01*
X-71215Y21100D01*
X-71123Y21083D01*
X-71023Y21067D01*
X-70798Y21033D01*
X-70549Y21008D01*
X-70265Y21000D01*
X-73039D01*
D01*
X-67199D01*
Y27190D01*
D02*
G37*
G36*
X-85636D02*
X-87511D01*
Y23474D01*
Y23466D01*
Y23449D01*
Y23424D01*
X-87519Y23391D01*
X-87528Y23308D01*
X-87544Y23191D01*
X-87577Y23066D01*
X-87627Y22941D01*
X-87694Y22816D01*
X-87786Y22699D01*
X-87802Y22691D01*
X-87836Y22658D01*
X-87902Y22616D01*
X-87986Y22566D01*
X-88094Y22508D01*
X-88227Y22466D01*
X-88377Y22433D01*
X-88552Y22425D01*
X-88602D01*
X-88636Y22433D01*
X-88719Y22441D01*
X-88835Y22458D01*
X-88952Y22491D01*
X-89085Y22541D01*
X-89210Y22608D01*
X-89319Y22699D01*
X-89327Y22716D01*
X-89360Y22750D01*
X-89410Y22816D01*
X-89460Y22899D01*
X-89510Y23008D01*
X-89560Y23141D01*
X-89594Y23299D01*
X-89602Y23474D01*
Y27190D01*
X-91476D01*
Y23466D01*
X-91468Y23416D01*
Y23366D01*
X-91452Y23233D01*
X-91435Y23074D01*
X-91402Y22908D01*
X-91360Y22724D01*
X-91301Y22541D01*
Y22533D01*
X-91293Y22516D01*
X-91285Y22491D01*
X-91268Y22458D01*
X-91227Y22366D01*
X-91177Y22258D01*
X-91102Y22125D01*
X-91010Y21983D01*
X-90902Y21841D01*
X-90777Y21700D01*
X-90760Y21683D01*
X-90718Y21641D01*
X-90643Y21583D01*
X-90552Y21500D01*
X-90435Y21416D01*
X-90310Y21342D01*
X-90169Y21258D01*
X-90019Y21200D01*
X-90010D01*
X-89993Y21192D01*
X-89960Y21183D01*
X-89918Y21167D01*
X-89868Y21150D01*
X-89810Y21133D01*
X-89735Y21117D01*
X-89652Y21100D01*
X-89560Y21083D01*
X-89460Y21067D01*
X-89235Y21033D01*
X-88985Y21008D01*
X-88702Y21000D01*
X-91476D01*
D01*
X-85636D01*
Y27190D01*
D02*
G37*
G36*
X26535Y27190D02*
X22186D01*
X19903Y21100D01*
X21878D01*
X22178Y22108D01*
X24319D01*
X24619Y21100D01*
X26535D01*
X24252Y27190D01*
X26535D01*
D02*
G37*
G36*
X19303D02*
X14488D01*
X17421D01*
Y22600D01*
X14488D01*
Y21100D01*
X19303D01*
Y27190D01*
D02*
G37*
G36*
X-18978D02*
X-24144D01*
X-22202D01*
X-22269Y27182D01*
X-22352Y27173D01*
X-22452Y27165D01*
X-22561Y27148D01*
X-22677Y27132D01*
X-22919Y27073D01*
X-23052Y27032D01*
X-23177Y26982D01*
X-23294Y26923D01*
X-23419Y26865D01*
X-23527Y26782D01*
X-23627Y26699D01*
X-23635Y26690D01*
X-23652Y26674D01*
X-23677Y26648D01*
X-23710Y26607D01*
X-23744Y26557D01*
X-23794Y26499D01*
X-23835Y26424D01*
X-23885Y26349D01*
X-23935Y26249D01*
X-23977Y26149D01*
X-24027Y26032D01*
X-24060Y25915D01*
X-24094Y25774D01*
X-24119Y25632D01*
X-24135Y25482D01*
X-24144Y25315D01*
Y25224D01*
X-24135Y25166D01*
X-24127Y25082D01*
X-24110Y24999D01*
X-24094Y24899D01*
X-24077Y24791D01*
X-24010Y24557D01*
X-23960Y24441D01*
X-23910Y24316D01*
X-23844Y24199D01*
X-23769Y24083D01*
X-23686Y23974D01*
X-23586Y23874D01*
X-23577Y23866D01*
X-23561Y23849D01*
X-23527Y23824D01*
X-23486Y23791D01*
X-23427Y23758D01*
X-23352Y23708D01*
X-23269Y23666D01*
X-23169Y23616D01*
X-23052Y23566D01*
X-22927Y23524D01*
X-22794Y23474D01*
X-22644Y23441D01*
X-22478Y23408D01*
X-22294Y23383D01*
X-22102Y23366D01*
X-21894Y23358D01*
X-20870D01*
Y21100D01*
X-18978D01*
Y27190D01*
D02*
G37*
G36*
X-34491Y21100D02*
X-36807D01*
D01*
X-34491D01*
D02*
G37*
G36*
X-15154Y27290D02*
X-15438D01*
X-15521Y27282D01*
X-15621Y27273D01*
X-15729Y27265D01*
X-15854Y27257D01*
X-15987Y27232D01*
X-16279Y27182D01*
X-16571Y27107D01*
X-16712Y27057D01*
X-16854Y26998D01*
X-16987Y26923D01*
X-17104Y26848D01*
X-17112Y26840D01*
X-17129Y26832D01*
X-17162Y26799D01*
X-17204Y26765D01*
X-17254Y26723D01*
X-17304Y26665D01*
X-17362Y26590D01*
X-17429Y26515D01*
X-17487Y26424D01*
X-17554Y26324D01*
X-17612Y26207D01*
X-17670Y26082D01*
X-17729Y25949D01*
X-17770Y25807D01*
X-17812Y25649D01*
X-17837Y25474D01*
X-16062Y25374D01*
Y25382D01*
Y25391D01*
X-16046Y25440D01*
X-16029Y25515D01*
X-15996Y25599D01*
X-15954Y25699D01*
X-15904Y25799D01*
X-15838Y25890D01*
X-15762Y25965D01*
X-15754Y25974D01*
X-15721Y25999D01*
X-15671Y26024D01*
X-15604Y26065D01*
X-15513Y26099D01*
X-15404Y26124D01*
X-15279Y26149D01*
X-15138Y26157D01*
X-15088D01*
X-15029Y26149D01*
X-14954Y26140D01*
X-14871Y26124D01*
X-14796Y26099D01*
X-14713Y26065D01*
X-14646Y26015D01*
X-14638Y26007D01*
X-14621Y25990D01*
X-14596Y25957D01*
X-14571Y25924D01*
X-14538Y25874D01*
X-14513Y25815D01*
X-14496Y25749D01*
X-14488Y25674D01*
Y25666D01*
Y25649D01*
X-14496Y25624D01*
X-14504Y25591D01*
X-14521Y25549D01*
X-14546Y25507D01*
X-14579Y25457D01*
X-14621Y25415D01*
X-14629Y25407D01*
X-14646Y25399D01*
X-14688Y25374D01*
X-14746Y25340D01*
X-14829Y25307D01*
X-14938Y25274D01*
X-15079Y25232D01*
X-15154Y25207D01*
X-15246Y25191D01*
X-15263D01*
X-15304Y25182D01*
X-15363Y25166D01*
X-15446Y25149D01*
X-15546Y25124D01*
X-15662Y25091D01*
X-15796Y25057D01*
X-15929Y25024D01*
X-16221Y24941D01*
X-16512Y24849D01*
X-16654Y24799D01*
X-16787Y24749D01*
X-16904Y24699D01*
X-17012Y24649D01*
X-17020D01*
X-17037Y24641D01*
X-17062Y24624D01*
X-17096Y24599D01*
X-17196Y24541D01*
X-17312Y24466D01*
X-17437Y24366D01*
X-17562Y24249D01*
X-17687Y24124D01*
X-17787Y23974D01*
Y23966D01*
X-17795Y23958D01*
X-17812Y23933D01*
X-17829Y23908D01*
X-17870Y23824D01*
X-17912Y23716D01*
X-17962Y23583D01*
X-17995Y23433D01*
X-18029Y23266D01*
X-18037Y23083D01*
Y23024D01*
X-18029Y22983D01*
Y22933D01*
X-18020Y22866D01*
X-17995Y22724D01*
X-17962Y22558D01*
X-17904Y22375D01*
X-17820Y22191D01*
X-17712Y22000D01*
Y21991D01*
X-17695Y21975D01*
X-17679Y21950D01*
X-17654Y21916D01*
X-17579Y21833D01*
X-17479Y21725D01*
X-17345Y21600D01*
X-17196Y21475D01*
X-17012Y21358D01*
X-16804Y21250D01*
X-16796D01*
X-16779Y21242D01*
X-16746Y21225D01*
X-16696Y21208D01*
X-16646Y21192D01*
X-16571Y21175D01*
X-16496Y21150D01*
X-16404Y21125D01*
X-16304Y21100D01*
X-16187Y21083D01*
X-16071Y21058D01*
X-15938Y21042D01*
X-15804Y21025D01*
X-15654Y21008D01*
X-15338Y21000D01*
X-12522D01*
X-15188D01*
X-15088Y21008D01*
X-14963Y21017D01*
X-14813Y21033D01*
X-14655Y21050D01*
X-14488Y21075D01*
X-14313Y21108D01*
X-14130Y21142D01*
X-13955Y21192D01*
X-13780Y21250D01*
X-13613Y21317D01*
X-13455Y21400D01*
X-13313Y21491D01*
X-13188Y21591D01*
X-13180Y21600D01*
X-13163Y21616D01*
X-13130Y21650D01*
X-13096Y21700D01*
X-13046Y21758D01*
X-12996Y21833D01*
X-12938Y21916D01*
X-12880Y22008D01*
X-12822Y22116D01*
X-12763Y22225D01*
X-12713Y22350D01*
X-12655Y22491D01*
X-12613Y22633D01*
X-12572Y22783D01*
X-12538Y22950D01*
X-12522Y23116D01*
X-14313Y23233D01*
Y23224D01*
Y23216D01*
X-14321Y23191D01*
Y23158D01*
X-14338Y23083D01*
X-14363Y22983D01*
X-14396Y22875D01*
X-14430Y22766D01*
X-14488Y22658D01*
X-14546Y22566D01*
X-14563Y22550D01*
X-14605Y22508D01*
X-14663Y22450D01*
X-14763Y22383D01*
X-14879Y22316D01*
X-15021Y22258D01*
X-15179Y22216D01*
X-15271Y22208D01*
X-15371Y22200D01*
X-15438D01*
X-15513Y22208D01*
X-15596Y22225D01*
X-15696Y22241D01*
X-15804Y22275D01*
X-15896Y22325D01*
X-15987Y22383D01*
X-15996Y22391D01*
X-16021Y22416D01*
X-16062Y22458D01*
X-16104Y22508D01*
X-16137Y22575D01*
X-16179Y22650D01*
X-16204Y22733D01*
X-16212Y22824D01*
Y22833D01*
Y22866D01*
X-16204Y22908D01*
X-16187Y22966D01*
X-16162Y23033D01*
X-16121Y23099D01*
X-16071Y23174D01*
X-16004Y23241D01*
X-15996Y23249D01*
X-15963Y23274D01*
X-15896Y23308D01*
X-15854Y23333D01*
X-15804Y23358D01*
X-15746Y23383D01*
X-15679Y23416D01*
X-15596Y23441D01*
X-15513Y23474D01*
X-15413Y23508D01*
X-15296Y23533D01*
X-15171Y23566D01*
X-15038Y23599D01*
X-15021D01*
X-14988Y23616D01*
X-14921Y23624D01*
X-14838Y23649D01*
X-14738Y23674D01*
X-14621Y23708D01*
X-14488Y23749D01*
X-14354Y23791D01*
X-14063Y23899D01*
X-13771Y24024D01*
X-13630Y24091D01*
X-13505Y24166D01*
X-13380Y24249D01*
X-13271Y24332D01*
X-13263Y24341D01*
X-13247Y24358D01*
X-13221Y24383D01*
X-13188Y24416D01*
X-13147Y24457D01*
X-13105Y24516D01*
X-13055Y24582D01*
X-13013Y24649D01*
X-12963Y24732D01*
X-12913Y24824D01*
X-12830Y25024D01*
X-12797Y25132D01*
X-12772Y25249D01*
X-12755Y25374D01*
X-12747Y25507D01*
Y25515D01*
Y25532D01*
Y25557D01*
X-12755Y25591D01*
X-12763Y25674D01*
X-12780Y25790D01*
X-12813Y25932D01*
X-12863Y26074D01*
X-12922Y26232D01*
X-13013Y26390D01*
Y26399D01*
X-13030Y26407D01*
X-13063Y26457D01*
X-13130Y26532D01*
X-13221Y26632D01*
X-13330Y26732D01*
X-13471Y26840D01*
X-13638Y26948D01*
X-13830Y27048D01*
X-13838D01*
X-13855Y27057D01*
X-13888Y27073D01*
X-13930Y27090D01*
X-13988Y27107D01*
X-14055Y27123D01*
X-14130Y27148D01*
X-14221Y27173D01*
X-14321Y27190D01*
X-14438Y27215D01*
X-14563Y27232D01*
X-14696Y27257D01*
X-14838Y27265D01*
X-14996Y27282D01*
X-15154Y27290D01*
D02*
G37*
%LPD*%
G36*
X-62942Y24591D02*
X-63492D01*
X-63584Y24599D01*
X-63700Y24616D01*
X-63825Y24632D01*
X-63950Y24666D01*
X-64067Y24716D01*
X-64158Y24774D01*
X-64167Y24782D01*
X-64192Y24807D01*
X-64233Y24849D01*
X-64275Y24907D01*
X-64308Y24974D01*
X-64350Y25057D01*
X-64375Y25149D01*
X-64383Y25257D01*
Y25274D01*
Y25307D01*
X-64375Y25357D01*
X-64358Y25432D01*
X-64333Y25507D01*
X-64300Y25590D01*
X-64258Y25674D01*
X-64192Y25749D01*
X-64183Y25757D01*
X-64150Y25782D01*
X-64100Y25815D01*
X-64033Y25849D01*
X-63934Y25882D01*
X-63808Y25915D01*
X-63659Y25940D01*
X-63475Y25949D01*
X-62942D01*
Y24591D01*
D02*
G37*
G36*
X-94609D02*
X-95159D01*
X-95251Y24599D01*
X-95367Y24616D01*
X-95492Y24632D01*
X-95617Y24666D01*
X-95734Y24716D01*
X-95825Y24774D01*
X-95834Y24782D01*
X-95859Y24807D01*
X-95900Y24849D01*
X-95942Y24907D01*
X-95975Y24974D01*
X-96017Y25057D01*
X-96042Y25149D01*
X-96050Y25257D01*
Y25274D01*
Y25307D01*
X-96042Y25357D01*
X-96025Y25432D01*
X-96000Y25507D01*
X-95967Y25590D01*
X-95925Y25674D01*
X-95859Y25749D01*
X-95850Y25757D01*
X-95817Y25782D01*
X-95767Y25815D01*
X-95700Y25849D01*
X-95600Y25882D01*
X-95475Y25915D01*
X-95325Y25940D01*
X-95142Y25949D01*
X-94609D01*
Y24591D01*
D02*
G37*
G36*
X31117Y21100D02*
X29059D01*
Y23566D01*
X31117D01*
Y21100D01*
D02*
G37*
G36*
X-67199Y21000D02*
X-70099D01*
X-69982Y21008D01*
X-69832Y21017D01*
X-69674Y21025D01*
X-69490Y21042D01*
X-69299Y21058D01*
X-69274D01*
X-69249Y21067D01*
X-69215D01*
X-69116Y21083D01*
X-68991Y21108D01*
X-68849Y21142D01*
X-68707Y21183D01*
X-68557Y21233D01*
X-68416Y21300D01*
X-68399Y21308D01*
X-68357Y21333D01*
X-68291Y21375D01*
X-68207Y21442D01*
X-68107Y21516D01*
X-67991Y21600D01*
X-67882Y21708D01*
X-67766Y21825D01*
X-67758Y21841D01*
X-67716Y21883D01*
X-67666Y21950D01*
X-67608Y22041D01*
X-67541Y22150D01*
X-67474Y22266D01*
X-67416Y22400D01*
X-67366Y22533D01*
Y22541D01*
X-67358Y22558D01*
X-67349Y22591D01*
X-67341Y22633D01*
X-67324Y22683D01*
X-67316Y22741D01*
X-67283Y22875D01*
X-67249Y23033D01*
X-67224Y23208D01*
X-67208Y23383D01*
X-67199Y23558D01*
Y21000D01*
D02*
G37*
G36*
X-85636D02*
X-88535D01*
X-88419Y21008D01*
X-88269Y21017D01*
X-88111Y21025D01*
X-87927Y21042D01*
X-87736Y21058D01*
X-87711D01*
X-87686Y21067D01*
X-87652D01*
X-87552Y21083D01*
X-87428Y21108D01*
X-87286Y21142D01*
X-87144Y21183D01*
X-86994Y21233D01*
X-86853Y21300D01*
X-86836Y21308D01*
X-86794Y21333D01*
X-86728Y21375D01*
X-86644Y21442D01*
X-86544Y21516D01*
X-86428Y21600D01*
X-86319Y21708D01*
X-86203Y21825D01*
X-86194Y21841D01*
X-86153Y21883D01*
X-86103Y21950D01*
X-86045Y22041D01*
X-85978Y22150D01*
X-85911Y22266D01*
X-85853Y22400D01*
X-85803Y22533D01*
Y22541D01*
X-85795Y22558D01*
X-85786Y22591D01*
X-85778Y22633D01*
X-85761Y22683D01*
X-85753Y22741D01*
X-85720Y22875D01*
X-85686Y23033D01*
X-85661Y23208D01*
X-85645Y23383D01*
X-85636Y23558D01*
Y21000D01*
D02*
G37*
G36*
X23911Y23424D02*
X22569D01*
X23244Y25607D01*
X23911Y23424D01*
D02*
G37*
G36*
X-20870Y24591D02*
X-21419D01*
X-21511Y24599D01*
X-21628Y24616D01*
X-21753Y24632D01*
X-21878Y24666D01*
X-21994Y24716D01*
X-22086Y24774D01*
X-22094Y24782D01*
X-22119Y24807D01*
X-22161Y24849D01*
X-22202Y24907D01*
X-22236Y24974D01*
X-22278Y25057D01*
X-22302Y25149D01*
X-22311Y25257D01*
Y25274D01*
Y25307D01*
X-22302Y25357D01*
X-22286Y25432D01*
X-22261Y25507D01*
X-22227Y25591D01*
X-22186Y25674D01*
X-22119Y25749D01*
X-22111Y25757D01*
X-22078Y25782D01*
X-22028Y25815D01*
X-21961Y25849D01*
X-21861Y25882D01*
X-21736Y25915D01*
X-21586Y25940D01*
X-21403Y25949D01*
X-20870D01*
Y24591D01*
D02*
G37*
%LPC*%
G36*
X-155068Y27540D02*
X-158551D01*
Y21350D01*
X-156843D01*
Y25399D01*
X-156835D01*
X-156826Y25382D01*
X-156801Y25366D01*
X-156768Y25349D01*
X-156693Y25291D01*
X-156585Y25224D01*
X-156460Y25141D01*
X-156327Y25057D01*
X-156185Y24974D01*
X-156035Y24891D01*
X-156026D01*
X-156018Y24882D01*
X-155993Y24874D01*
X-155968Y24857D01*
X-155885Y24824D01*
X-155768Y24774D01*
X-155627Y24716D01*
X-155468Y24657D01*
X-155277Y24591D01*
X-155068Y24524D01*
Y25916D01*
Y25907D01*
X-155077D01*
X-155110Y25924D01*
X-155152Y25932D01*
X-155210Y25957D01*
X-155285Y25982D01*
X-155368Y26015D01*
X-155460Y26049D01*
X-155560Y26090D01*
X-155768Y26190D01*
X-155993Y26307D01*
X-156210Y26432D01*
X-156310Y26499D01*
X-156401Y26574D01*
X-156410Y26582D01*
X-156426Y26590D01*
X-156451Y26615D01*
X-156476Y26640D01*
X-156568Y26732D01*
X-156676Y26840D01*
X-156793Y26982D01*
X-156918Y27148D01*
X-157043Y27332D01*
X-157151Y27540D01*
X-155068D01*
D02*
G37*
G36*
X-182170D02*
Y24457D01*
X-182178Y24532D01*
X-182187Y24632D01*
X-182195Y24757D01*
X-182211Y24907D01*
X-182236Y25066D01*
X-182270Y25241D01*
X-182320Y25416D01*
X-182370Y25607D01*
X-182436Y25799D01*
X-182520Y25990D01*
X-182611Y26182D01*
X-182720Y26365D01*
X-182853Y26540D01*
X-182995Y26707D01*
X-183003Y26715D01*
X-183036Y26740D01*
X-183078Y26782D01*
X-183145Y26840D01*
X-183236Y26899D01*
X-183336Y26974D01*
X-183461Y27048D01*
X-183594Y27123D01*
X-183753Y27199D01*
X-183928Y27273D01*
X-184119Y27348D01*
X-184328Y27407D01*
X-184544Y27465D01*
X-184786Y27507D01*
X-185044Y27532D01*
X-185311Y27540D01*
X-188485D01*
X-185377D01*
X-185461Y27532D01*
X-185561D01*
X-185686Y27515D01*
X-185836Y27498D01*
X-186002Y27473D01*
X-186177Y27440D01*
X-186360Y27398D01*
X-186552Y27340D01*
X-186752Y27273D01*
X-186944Y27199D01*
X-187135Y27099D01*
X-187318Y26990D01*
X-187502Y26865D01*
X-187660Y26724D01*
X-187668Y26715D01*
X-187693Y26682D01*
X-187735Y26640D01*
X-187793Y26574D01*
X-187852Y26490D01*
X-187918Y26390D01*
X-187993Y26265D01*
X-188077Y26132D01*
X-188152Y25974D01*
X-188227Y25807D01*
X-188293Y25615D01*
X-188360Y25416D01*
X-188410Y25191D01*
X-188452Y24957D01*
X-188477Y24699D01*
X-188485Y24432D01*
Y24474D01*
Y24332D01*
X-188477Y24258D01*
Y24166D01*
X-188468Y24058D01*
X-188452Y23941D01*
X-188443Y23816D01*
X-188393Y23541D01*
X-188327Y23241D01*
X-188243Y22958D01*
X-188185Y22816D01*
X-188118Y22683D01*
Y22675D01*
X-188102Y22650D01*
X-188085Y22616D01*
X-188052Y22575D01*
X-188018Y22516D01*
X-187968Y22450D01*
X-187852Y22300D01*
X-187710Y22125D01*
X-187527Y21950D01*
X-187318Y21783D01*
X-187077Y21625D01*
X-187069D01*
X-187044Y21608D01*
X-187010Y21592D01*
X-186952Y21567D01*
X-186894Y21542D01*
X-186810Y21508D01*
X-186719Y21475D01*
X-186610Y21442D01*
X-186494Y21400D01*
X-186369Y21367D01*
X-186227Y21333D01*
X-186077Y21308D01*
X-185919Y21283D01*
X-185752Y21267D01*
X-185569Y21258D01*
X-185386Y21250D01*
X-188485D01*
X-182170D01*
Y27540D01*
D02*
G37*
G36*
X-160392D02*
X-165366D01*
D01*
X-163016D01*
X-163075Y27532D01*
X-163133D01*
X-163275Y27523D01*
X-163433Y27498D01*
X-163600Y27473D01*
X-163766Y27432D01*
X-163925Y27382D01*
X-163933D01*
X-163941Y27373D01*
X-163991Y27357D01*
X-164058Y27323D01*
X-164149Y27273D01*
X-164249Y27223D01*
X-164358Y27157D01*
X-164466Y27074D01*
X-164566Y26990D01*
X-164574Y26982D01*
X-164608Y26948D01*
X-164649Y26899D01*
X-164708Y26840D01*
X-164774Y26757D01*
X-164841Y26674D01*
X-164899Y26582D01*
X-164958Y26482D01*
X-164966Y26474D01*
X-164983Y26432D01*
X-165008Y26382D01*
X-165041Y26307D01*
X-165083Y26215D01*
X-165116Y26107D01*
X-165158Y25990D01*
X-165191Y25857D01*
Y25849D01*
X-165199Y25824D01*
X-165208Y25791D01*
X-165216Y25740D01*
X-165233Y25674D01*
X-165249Y25599D01*
X-165266Y25516D01*
X-165282Y25424D01*
X-165291Y25324D01*
X-165308Y25207D01*
X-165341Y24966D01*
X-165357Y24707D01*
X-165366Y24432D01*
Y24483D01*
Y21250D01*
Y24274D01*
X-165357Y24166D01*
X-165349Y24024D01*
X-165333Y23874D01*
X-165316Y23699D01*
X-165299Y23516D01*
X-165266Y23316D01*
X-165224Y23116D01*
X-165182Y22916D01*
X-165124Y22716D01*
X-165066Y22525D01*
X-164983Y22341D01*
X-164899Y22166D01*
X-164799Y22016D01*
X-164791Y22008D01*
X-164774Y21983D01*
X-164741Y21950D01*
X-164691Y21900D01*
X-164624Y21841D01*
X-164549Y21775D01*
X-164458Y21708D01*
X-164349Y21633D01*
X-164224Y21558D01*
X-164083Y21492D01*
X-163925Y21425D01*
X-163750Y21367D01*
X-163558Y21325D01*
X-163350Y21283D01*
X-163125Y21258D01*
X-162875Y21250D01*
X-162750D01*
X-162683Y21258D01*
X-162608Y21267D01*
X-162516D01*
X-162425Y21283D01*
X-162233Y21308D01*
X-162025Y21350D01*
X-161817Y21408D01*
X-161625Y21492D01*
X-161617D01*
X-161608Y21500D01*
X-161583Y21517D01*
X-161550Y21533D01*
X-161458Y21592D01*
X-161350Y21675D01*
X-161234Y21775D01*
X-161100Y21900D01*
X-160975Y22041D01*
X-160850Y22208D01*
X-160842Y22225D01*
X-160817Y22266D01*
X-160775Y22341D01*
X-160725Y22450D01*
X-160675Y22575D01*
X-160617Y22733D01*
X-160559Y22916D01*
X-160509Y23124D01*
Y23133D01*
X-160500Y23149D01*
Y23183D01*
X-160492Y23224D01*
X-160484Y23283D01*
X-160475Y23349D01*
X-160459Y23424D01*
X-160450Y23508D01*
X-160425Y23699D01*
X-160409Y23916D01*
X-160400Y24158D01*
X-160392Y24416D01*
Y21492D01*
Y24491D01*
X-160400Y24583D01*
Y24699D01*
X-160409Y24841D01*
X-160425Y24999D01*
X-160442Y25182D01*
X-160467Y25366D01*
X-160500Y25566D01*
X-160542Y25766D01*
X-160592Y25974D01*
X-160659Y26174D01*
X-160725Y26357D01*
X-160809Y26540D01*
X-160909Y26699D01*
X-161017Y26840D01*
X-161025Y26849D01*
X-161050Y26874D01*
X-161084Y26907D01*
X-161134Y26948D01*
X-161200Y27007D01*
X-161283Y27065D01*
X-161375Y27123D01*
X-161492Y27190D01*
X-161617Y27257D01*
X-161758Y27315D01*
X-161908Y27382D01*
X-162083Y27432D01*
X-162267Y27473D01*
X-162467Y27507D01*
X-162683Y27532D01*
X-162916Y27540D01*
X-160392D01*
D01*
D02*
G37*
G36*
X-129500Y27440D02*
X-135099D01*
D01*
X-132424D01*
X-132499Y27432D01*
X-132583D01*
X-132666Y27423D01*
X-132766Y27415D01*
X-132982Y27382D01*
X-133199Y27348D01*
X-133424Y27290D01*
X-133624Y27215D01*
X-133632D01*
X-133649Y27207D01*
X-133674Y27190D01*
X-133707Y27174D01*
X-133799Y27123D01*
X-133924Y27048D01*
X-134049Y26957D01*
X-134191Y26849D01*
X-134332Y26715D01*
X-134465Y26565D01*
Y26557D01*
X-134482Y26549D01*
X-134499Y26524D01*
X-134524Y26490D01*
X-134582Y26407D01*
X-134649Y26290D01*
X-134732Y26140D01*
X-134807Y25982D01*
X-134882Y25791D01*
X-134949Y25591D01*
Y25582D01*
X-134957Y25566D01*
X-134965Y25532D01*
X-134974Y25491D01*
X-134982Y25441D01*
X-134999Y25382D01*
X-135007Y25316D01*
X-135024Y25232D01*
X-135049Y25057D01*
X-135074Y24857D01*
X-135090Y24641D01*
X-135099Y24416D01*
D01*
Y21350D01*
Y24258D01*
X-135090Y24174D01*
Y24074D01*
X-135082Y23974D01*
X-135074Y23858D01*
X-135040Y23608D01*
X-135007Y23358D01*
X-134949Y23116D01*
X-134915Y22999D01*
X-134874Y22891D01*
Y22883D01*
X-134865Y22866D01*
X-134849Y22841D01*
X-134832Y22800D01*
X-134807Y22758D01*
X-134782Y22700D01*
X-134715Y22583D01*
X-134624Y22441D01*
X-134515Y22283D01*
X-134399Y22133D01*
X-134257Y21992D01*
X-134249D01*
X-134240Y21975D01*
X-134191Y21933D01*
X-134107Y21875D01*
X-134007Y21800D01*
X-133874Y21716D01*
X-133732Y21633D01*
X-133574Y21567D01*
X-133407Y21508D01*
X-133399D01*
X-133382Y21500D01*
X-133349Y21492D01*
X-133307Y21483D01*
X-133249Y21475D01*
X-133182Y21458D01*
X-133041Y21433D01*
X-132866Y21400D01*
X-132674Y21375D01*
X-132483Y21358D01*
X-132291Y21350D01*
X-129500D01*
Y27440D01*
D02*
G37*
G36*
X-189510D02*
X-191259D01*
X-193567Y24058D01*
Y27440D01*
X-195341D01*
Y21350D01*
X-189510D01*
Y27440D01*
D02*
G37*
G36*
X-202306Y27440D02*
X-208022D01*
Y25940D01*
X-206105D01*
Y21350D01*
X-208022D01*
X-204223D01*
Y25940D01*
X-202306D01*
Y21492D01*
Y27440D01*
D02*
G37*
G36*
X-178646Y27540D02*
X-178754D01*
X-178837Y27532D01*
X-178929Y27523D01*
X-179046Y27515D01*
X-179171Y27498D01*
X-179304Y27482D01*
X-179596Y27423D01*
X-179895Y27340D01*
X-180045Y27290D01*
X-180187Y27232D01*
X-180329Y27157D01*
X-180454Y27074D01*
X-180462Y27065D01*
X-180487Y27048D01*
X-180520Y27023D01*
X-180562Y26982D01*
X-180620Y26940D01*
X-180679Y26874D01*
X-180745Y26807D01*
X-180820Y26724D01*
X-180903Y26624D01*
X-180987Y26515D01*
X-181062Y26399D01*
X-181145Y26274D01*
X-181228Y26132D01*
X-181303Y25982D01*
X-181370Y25815D01*
X-181437Y25640D01*
X-179779Y25274D01*
Y25282D01*
X-179762Y25316D01*
X-179746Y25366D01*
X-179720Y25432D01*
X-179662Y25566D01*
X-179629Y25624D01*
X-179596Y25682D01*
X-179587Y25691D01*
X-179571Y25715D01*
X-179537Y25757D01*
X-179487Y25807D01*
X-179429Y25857D01*
X-179362Y25916D01*
X-179287Y25965D01*
X-179204Y26015D01*
X-179196Y26024D01*
X-179162Y26032D01*
X-179121Y26049D01*
X-179054Y26074D01*
X-178979Y26099D01*
X-178896Y26115D01*
X-178796Y26124D01*
X-178696Y26132D01*
X-178637D01*
X-178587Y26124D01*
X-178537Y26115D01*
X-178479Y26107D01*
X-178329Y26065D01*
X-178171Y26007D01*
X-178096Y25965D01*
X-178013Y25916D01*
X-177929Y25857D01*
X-177854Y25782D01*
X-177779Y25707D01*
X-177713Y25615D01*
Y25607D01*
X-177704Y25599D01*
X-177688Y25574D01*
X-177671Y25541D01*
X-177654Y25499D01*
X-177629Y25449D01*
X-177604Y25391D01*
X-177588Y25324D01*
X-177563Y25241D01*
X-177538Y25157D01*
X-177513Y25057D01*
X-177496Y24949D01*
X-177479Y24832D01*
X-177463Y24699D01*
X-177454Y24566D01*
Y24416D01*
Y24407D01*
Y24374D01*
Y24324D01*
X-177463Y24249D01*
Y24174D01*
X-177471Y24074D01*
X-177479Y23974D01*
X-177496Y23866D01*
X-177529Y23633D01*
X-177579Y23408D01*
X-177613Y23300D01*
X-177654Y23200D01*
X-177704Y23108D01*
X-177754Y23033D01*
X-177771Y23016D01*
X-177813Y22975D01*
X-177879Y22916D01*
X-177979Y22850D01*
X-178104Y22783D01*
X-178254Y22725D01*
X-178421Y22683D01*
X-178521Y22675D01*
X-178621Y22666D01*
X-178671D01*
X-178712Y22675D01*
X-178804Y22683D01*
X-178929Y22708D01*
X-179062Y22741D01*
X-179196Y22791D01*
X-179321Y22866D01*
X-179437Y22966D01*
X-179454Y22983D01*
X-179487Y23024D01*
X-179537Y23091D01*
X-179596Y23191D01*
X-179662Y23316D01*
X-179729Y23466D01*
X-179795Y23641D01*
X-179845Y23849D01*
X-181495Y23349D01*
Y23341D01*
X-181487Y23316D01*
X-181478Y23283D01*
X-181462Y23233D01*
X-181445Y23175D01*
X-181420Y23108D01*
X-181370Y22941D01*
X-181295Y22758D01*
X-181203Y22566D01*
X-181095Y22366D01*
X-180970Y22183D01*
Y22175D01*
X-180954Y22166D01*
X-180937Y22141D01*
X-180903Y22108D01*
X-180828Y22025D01*
X-180728Y21925D01*
X-180595Y21808D01*
X-180445Y21692D01*
X-180270Y21583D01*
X-180079Y21483D01*
X-180070D01*
X-180054Y21475D01*
X-180029Y21458D01*
X-179987Y21450D01*
X-179929Y21433D01*
X-179870Y21408D01*
X-179795Y21392D01*
X-179712Y21367D01*
X-179620Y21342D01*
X-179520Y21325D01*
X-179404Y21308D01*
X-179287Y21283D01*
X-179162Y21275D01*
X-179021Y21258D01*
X-178729Y21250D01*
X-181495D01*
D01*
X-175571D01*
Y21475D01*
Y21250D01*
X-178637D01*
X-178562Y21258D01*
X-178479D01*
X-178379Y21267D01*
X-178271Y21275D01*
X-178154Y21283D01*
X-177896Y21317D01*
X-177629Y21367D01*
X-177354Y21442D01*
X-177229Y21483D01*
X-177104Y21533D01*
X-177096D01*
X-177080Y21550D01*
X-177046Y21567D01*
X-176996Y21592D01*
X-176946Y21625D01*
X-176880Y21667D01*
X-176813Y21716D01*
X-176738Y21767D01*
X-176655Y21833D01*
X-176563Y21908D01*
X-176480Y21992D01*
X-176388Y22083D01*
X-176288Y22183D01*
X-176196Y22300D01*
X-176113Y22416D01*
X-176021Y22550D01*
X-176013Y22558D01*
X-176005Y22583D01*
X-175980Y22625D01*
X-175955Y22683D01*
X-175921Y22750D01*
X-175880Y22841D01*
X-175838Y22941D01*
X-175797Y23058D01*
X-175755Y23183D01*
X-175713Y23324D01*
X-175680Y23474D01*
X-175638Y23641D01*
X-175613Y23816D01*
X-175588Y23999D01*
X-175580Y24199D01*
X-175571Y24407D01*
Y21475D01*
Y24407D01*
Y24474D01*
X-175580Y24549D01*
X-175588Y24657D01*
X-175597Y24782D01*
X-175613Y24924D01*
X-175638Y25091D01*
X-175672Y25266D01*
X-175713Y25449D01*
X-175763Y25632D01*
X-175830Y25832D01*
X-175913Y26024D01*
X-176005Y26207D01*
X-176105Y26390D01*
X-176230Y26565D01*
X-176371Y26724D01*
X-176380Y26732D01*
X-176413Y26757D01*
X-176455Y26799D01*
X-176521Y26849D01*
X-176605Y26915D01*
X-176705Y26982D01*
X-176821Y27057D01*
X-176954Y27132D01*
X-177104Y27207D01*
X-177279Y27282D01*
X-177463Y27348D01*
X-177671Y27415D01*
X-177888Y27465D01*
X-178121Y27507D01*
X-178379Y27532D01*
X-178646Y27540D01*
D02*
G37*
G36*
X-136115Y27440D02*
X-142097D01*
X-139389D01*
X-139464Y27432D01*
X-139639D01*
X-139739Y27423D01*
X-139956Y27407D01*
X-140172Y27373D01*
X-140380Y27340D01*
X-140480Y27315D01*
X-140572Y27290D01*
X-140581D01*
X-140597Y27282D01*
X-140614Y27273D01*
X-140647Y27257D01*
X-140739Y27223D01*
X-140839Y27165D01*
X-140964Y27090D01*
X-141089Y26990D01*
X-141205Y26874D01*
X-141322Y26732D01*
Y26724D01*
X-141330Y26715D01*
X-141347Y26690D01*
X-141364Y26657D01*
X-141414Y26574D01*
X-141464Y26457D01*
X-141514Y26307D01*
X-141564Y26140D01*
X-141597Y25949D01*
X-141605Y25740D01*
Y25732D01*
Y25715D01*
Y25691D01*
Y25657D01*
X-141597Y25557D01*
X-141580Y25441D01*
X-141555Y25307D01*
X-141514Y25157D01*
X-141464Y25007D01*
X-141389Y24866D01*
X-141380Y24849D01*
X-141347Y24807D01*
X-141297Y24741D01*
X-141230Y24657D01*
X-141147Y24557D01*
X-141047Y24457D01*
X-140922Y24358D01*
X-140789Y24266D01*
X-140780Y24258D01*
X-140747Y24241D01*
X-140689Y24216D01*
X-140614Y24183D01*
X-140522Y24141D01*
X-140406Y24108D01*
X-140281Y24066D01*
X-140131Y24024D01*
X-140147Y24016D01*
X-140189Y24008D01*
X-140247Y23983D01*
X-140314Y23958D01*
X-140480Y23891D01*
X-140555Y23849D01*
X-140622Y23808D01*
X-140631D01*
X-140639Y23791D01*
X-140664Y23774D01*
X-140697Y23741D01*
X-140739Y23699D01*
X-140789Y23641D01*
X-140847Y23566D01*
X-140914Y23483D01*
X-140922Y23474D01*
X-140947Y23441D01*
X-140980Y23399D01*
X-141022Y23349D01*
X-141114Y23224D01*
X-141147Y23166D01*
X-141180Y23108D01*
X-142097Y21350D01*
X-139964D01*
X-138964Y23200D01*
Y23208D01*
X-138956Y23216D01*
X-138931Y23258D01*
X-138898Y23324D01*
X-138848Y23399D01*
X-138798Y23474D01*
X-138739Y23558D01*
X-138689Y23624D01*
X-138631Y23674D01*
X-138623Y23683D01*
X-138598Y23699D01*
X-138548Y23716D01*
X-138498Y23749D01*
X-138423Y23774D01*
X-138348Y23791D01*
X-138256Y23808D01*
X-138164Y23816D01*
X-138006D01*
Y21350D01*
X-136115D01*
Y27440D01*
D02*
G37*
G36*
X-142105D02*
X-148703D01*
X-146437Y21350D01*
X-144396D01*
X-142105Y27440D01*
D01*
D02*
G37*
G36*
X-149212Y25757D02*
X-151019D01*
Y21350D01*
X-149212D01*
Y23116D01*
Y23041D01*
X-151019D01*
Y24066D01*
X-149212D01*
Y25757D01*
D02*
G37*
G36*
X-165724Y27440D02*
X-170073D01*
X-172356Y21350D01*
X-170381D01*
D01*
X-169356D01*
X-170381D01*
X-170081Y22358D01*
X-167940D01*
X-167640Y21350D01*
X-165724D01*
X-168007Y27440D01*
X-165724D01*
D02*
G37*
G36*
X-198899Y27540D02*
X-199182D01*
X-199265Y27532D01*
X-199365Y27523D01*
X-199474Y27515D01*
X-199599Y27507D01*
X-199732Y27482D01*
X-200024Y27432D01*
X-200315Y27357D01*
X-200457Y27307D01*
X-200599Y27248D01*
X-200732Y27174D01*
X-200848Y27099D01*
X-200857Y27090D01*
X-200873Y27082D01*
X-200907Y27048D01*
X-200948Y27015D01*
X-200998Y26974D01*
X-201048Y26915D01*
X-201107Y26840D01*
X-201173Y26765D01*
X-201232Y26674D01*
X-201298Y26574D01*
X-201357Y26457D01*
X-201415Y26332D01*
X-201473Y26199D01*
X-201515Y26057D01*
X-201556Y25899D01*
X-201581Y25724D01*
X-199807Y25624D01*
Y25632D01*
Y25640D01*
X-199790Y25691D01*
X-199774Y25766D01*
X-199740Y25849D01*
X-199699Y25949D01*
X-199649Y26049D01*
X-199582Y26140D01*
X-199507Y26215D01*
X-199499Y26224D01*
X-199465Y26249D01*
X-199415Y26274D01*
X-199349Y26315D01*
X-199257Y26349D01*
X-199149Y26374D01*
X-199024Y26399D01*
X-198882Y26407D01*
X-198832D01*
X-198774Y26399D01*
X-198699Y26390D01*
X-198616Y26374D01*
X-198541Y26349D01*
X-198457Y26315D01*
X-198391Y26265D01*
X-198382Y26257D01*
X-198366Y26240D01*
X-198341Y26207D01*
X-198316Y26174D01*
X-198282Y26124D01*
X-198257Y26065D01*
X-198241Y25999D01*
X-198232Y25924D01*
Y25916D01*
Y25899D01*
X-198241Y25874D01*
X-198249Y25840D01*
X-198266Y25799D01*
X-198291Y25757D01*
X-198324Y25707D01*
X-198366Y25666D01*
X-198374Y25657D01*
X-198391Y25649D01*
X-198432Y25624D01*
X-198491Y25591D01*
X-198574Y25557D01*
X-198682Y25524D01*
X-198824Y25482D01*
X-198899Y25457D01*
X-198990Y25441D01*
X-199007D01*
X-199049Y25432D01*
X-199107Y25416D01*
X-199191Y25399D01*
X-199291Y25374D01*
X-199407Y25341D01*
X-199540Y25307D01*
X-199674Y25274D01*
X-199965Y25191D01*
X-200257Y25099D01*
X-200399Y25049D01*
X-200532Y24999D01*
X-200648Y24949D01*
X-200757Y24899D01*
X-200765D01*
X-200782Y24891D01*
X-200807Y24874D01*
X-200840Y24849D01*
X-200940Y24791D01*
X-201057Y24716D01*
X-201182Y24616D01*
X-201307Y24499D01*
X-201432Y24374D01*
X-201532Y24224D01*
Y24216D01*
X-201540Y24208D01*
X-201556Y24183D01*
X-201573Y24158D01*
X-201615Y24074D01*
X-201656Y23966D01*
X-201707Y23833D01*
X-201740Y23683D01*
X-201773Y23516D01*
X-201782Y23333D01*
Y23275D01*
X-201773Y23233D01*
Y23183D01*
X-201765Y23116D01*
X-201740Y22975D01*
X-201707Y22808D01*
X-201648Y22625D01*
X-201565Y22441D01*
X-201457Y22250D01*
Y22241D01*
X-201440Y22225D01*
X-201423Y22200D01*
X-201398Y22166D01*
X-201323Y22083D01*
X-201223Y21975D01*
X-201090Y21850D01*
X-200940Y21725D01*
X-200757Y21608D01*
X-200548Y21500D01*
X-200540D01*
X-200523Y21492D01*
X-200490Y21475D01*
X-200440Y21458D01*
X-200390Y21442D01*
X-200315Y21425D01*
X-200240Y21400D01*
X-200149Y21375D01*
X-200049Y21350D01*
X-199932Y21333D01*
X-199815Y21308D01*
X-199682Y21292D01*
X-199549Y21275D01*
X-199399Y21258D01*
X-199082Y21250D01*
X-196266D01*
X-198932D01*
X-198832Y21258D01*
X-198707Y21267D01*
X-198557Y21283D01*
X-198399Y21300D01*
X-198232Y21325D01*
X-198057Y21358D01*
X-197874Y21392D01*
X-197699Y21442D01*
X-197524Y21500D01*
X-197358Y21567D01*
X-197199Y21650D01*
X-197058Y21741D01*
X-196933Y21841D01*
X-196924Y21850D01*
X-196908Y21867D01*
X-196874Y21900D01*
X-196841Y21950D01*
X-196791Y22008D01*
X-196741Y22083D01*
X-196683Y22166D01*
X-196625Y22258D01*
X-196566Y22366D01*
X-196508Y22475D01*
X-196458Y22600D01*
X-196399Y22741D01*
X-196358Y22883D01*
X-196316Y23033D01*
X-196283Y23200D01*
X-196266Y23366D01*
X-198057Y23483D01*
Y23474D01*
Y23466D01*
X-198066Y23441D01*
Y23408D01*
X-198082Y23333D01*
X-198107Y23233D01*
X-198141Y23124D01*
X-198174Y23016D01*
X-198232Y22908D01*
X-198291Y22816D01*
X-198307Y22800D01*
X-198349Y22758D01*
X-198407Y22700D01*
X-198507Y22633D01*
X-198624Y22566D01*
X-198766Y22508D01*
X-198924Y22466D01*
X-199016Y22458D01*
X-199116Y22450D01*
X-199182D01*
X-199257Y22458D01*
X-199340Y22475D01*
X-199440Y22491D01*
X-199549Y22525D01*
X-199640Y22575D01*
X-199732Y22633D01*
X-199740Y22641D01*
X-199765Y22666D01*
X-199807Y22708D01*
X-199849Y22758D01*
X-199882Y22825D01*
X-199924Y22900D01*
X-199949Y22983D01*
X-199957Y23075D01*
Y23083D01*
Y23116D01*
X-199949Y23158D01*
X-199932Y23216D01*
X-199907Y23283D01*
X-199865Y23349D01*
X-199815Y23424D01*
X-199749Y23491D01*
X-199740Y23499D01*
X-199707Y23524D01*
X-199640Y23558D01*
X-199599Y23583D01*
X-199549Y23608D01*
X-199490Y23633D01*
X-199424Y23666D01*
X-199340Y23691D01*
X-199257Y23724D01*
X-199157Y23758D01*
X-199041Y23783D01*
X-198916Y23816D01*
X-198782Y23849D01*
X-198766D01*
X-198732Y23866D01*
X-198666Y23874D01*
X-198582Y23899D01*
X-198482Y23924D01*
X-198366Y23958D01*
X-198232Y23999D01*
X-198099Y24041D01*
X-197808Y24149D01*
X-197516Y24274D01*
X-197374Y24341D01*
X-197249Y24416D01*
X-197124Y24499D01*
X-197016Y24583D01*
X-197008Y24591D01*
X-196991Y24608D01*
X-196966Y24632D01*
X-196933Y24666D01*
X-196891Y24707D01*
X-196849Y24766D01*
X-196799Y24832D01*
X-196758Y24899D01*
X-196708Y24982D01*
X-196658Y25074D01*
X-196574Y25274D01*
X-196541Y25382D01*
X-196516Y25499D01*
X-196500Y25624D01*
X-196491Y25757D01*
Y25766D01*
Y25782D01*
Y25807D01*
X-196500Y25840D01*
X-196508Y25924D01*
X-196525Y26040D01*
X-196558Y26182D01*
X-196608Y26324D01*
X-196666Y26482D01*
X-196758Y26640D01*
Y26649D01*
X-196774Y26657D01*
X-196808Y26707D01*
X-196874Y26782D01*
X-196966Y26882D01*
X-197074Y26982D01*
X-197216Y27090D01*
X-197383Y27199D01*
X-197574Y27298D01*
X-197583D01*
X-197599Y27307D01*
X-197633Y27323D01*
X-197674Y27340D01*
X-197733Y27357D01*
X-197799Y27373D01*
X-197874Y27398D01*
X-197966Y27423D01*
X-198066Y27440D01*
X-198182Y27465D01*
X-198307Y27482D01*
X-198441Y27507D01*
X-198582Y27515D01*
X-198741Y27532D01*
X-198899Y27540D01*
D02*
G37*
%LPD*%
G36*
X-185219Y26107D02*
X-185169D01*
X-185111Y26090D01*
X-184977Y26065D01*
X-184836Y26015D01*
X-184686Y25940D01*
X-184603Y25899D01*
X-184536Y25840D01*
X-184461Y25782D01*
X-184394Y25707D01*
Y25699D01*
X-184378Y25691D01*
X-184361Y25666D01*
X-184344Y25632D01*
X-184319Y25591D01*
X-184286Y25532D01*
X-184253Y25466D01*
X-184228Y25391D01*
X-184194Y25307D01*
X-184161Y25207D01*
X-184136Y25099D01*
X-184103Y24982D01*
X-184086Y24849D01*
X-184069Y24707D01*
X-184053Y24549D01*
Y24383D01*
Y24374D01*
Y24341D01*
Y24291D01*
X-184061Y24233D01*
Y24158D01*
X-184069Y24066D01*
X-184078Y23974D01*
X-184094Y23874D01*
X-184136Y23649D01*
X-184194Y23433D01*
X-184278Y23233D01*
X-184336Y23141D01*
X-184394Y23058D01*
X-184403Y23049D01*
X-184411Y23041D01*
X-184461Y22999D01*
X-184536Y22933D01*
X-184636Y22858D01*
X-184769Y22783D01*
X-184936Y22725D01*
X-185119Y22675D01*
X-185219Y22666D01*
X-185327Y22658D01*
X-185386D01*
X-185427Y22666D01*
X-185477D01*
X-185536Y22683D01*
X-185677Y22708D01*
X-185827Y22758D01*
X-185986Y22825D01*
X-186136Y22925D01*
X-186202Y22983D01*
X-186269Y23049D01*
Y23058D01*
X-186285Y23066D01*
X-186302Y23091D01*
X-186319Y23124D01*
X-186344Y23175D01*
X-186377Y23224D01*
X-186402Y23291D01*
X-186435Y23375D01*
X-186469Y23466D01*
X-186494Y23566D01*
X-186527Y23683D01*
X-186552Y23808D01*
X-186569Y23949D01*
X-186585Y24108D01*
X-186602Y24274D01*
Y24457D01*
Y24466D01*
Y24499D01*
Y24541D01*
X-186594Y24599D01*
Y24666D01*
X-186585Y24749D01*
X-186577Y24841D01*
X-186560Y24941D01*
X-186519Y25141D01*
X-186452Y25349D01*
X-186369Y25549D01*
X-186310Y25632D01*
X-186252Y25715D01*
Y25724D01*
X-186236Y25732D01*
X-186185Y25782D01*
X-186110Y25840D01*
X-186002Y25916D01*
X-185869Y25990D01*
X-185711Y26057D01*
X-185519Y26099D01*
X-185419Y26107D01*
X-185311Y26115D01*
X-185252D01*
X-185219Y26107D01*
D02*
G37*
G36*
X-182170Y21250D02*
X-185286D01*
X-185211Y21258D01*
X-185127D01*
X-185027Y21267D01*
X-184911Y21275D01*
X-184786Y21292D01*
X-184511Y21333D01*
X-184228Y21383D01*
X-183944Y21467D01*
X-183811Y21517D01*
X-183678Y21575D01*
X-183669D01*
X-183645Y21592D01*
X-183611Y21608D01*
X-183570Y21633D01*
X-183511Y21675D01*
X-183444Y21716D01*
X-183286Y21825D01*
X-183203Y21892D01*
X-183111Y21967D01*
X-183028Y22058D01*
X-182936Y22150D01*
X-182845Y22250D01*
X-182753Y22358D01*
X-182670Y22483D01*
X-182586Y22608D01*
X-182578Y22616D01*
X-182570Y22641D01*
X-182545Y22683D01*
X-182520Y22733D01*
X-182486Y22808D01*
X-182453Y22891D01*
X-182420Y22991D01*
X-182378Y23100D01*
X-182337Y23224D01*
X-182303Y23358D01*
X-182270Y23508D01*
X-182236Y23666D01*
X-182211Y23833D01*
X-182187Y24008D01*
X-182178Y24199D01*
X-182170Y24391D01*
Y21250D01*
D02*
G37*
G36*
X-162792Y26407D02*
X-162717Y26390D01*
X-162625Y26365D01*
X-162525Y26315D01*
X-162425Y26240D01*
X-162375Y26190D01*
X-162325Y26132D01*
X-162283Y26065D01*
X-162250Y25990D01*
Y25982D01*
X-162242Y25974D01*
X-162233Y25940D01*
X-162225Y25907D01*
X-162208Y25857D01*
X-162192Y25799D01*
X-162175Y25724D01*
X-162158Y25632D01*
X-162142Y25532D01*
X-162125Y25416D01*
X-162108Y25291D01*
X-162092Y25149D01*
X-162083Y24991D01*
X-162075Y24816D01*
X-162067Y24624D01*
Y24416D01*
Y24399D01*
Y24366D01*
Y24307D01*
Y24224D01*
X-162075Y24133D01*
Y24024D01*
X-162083Y23908D01*
X-162092Y23783D01*
X-162117Y23516D01*
X-162150Y23249D01*
X-162175Y23133D01*
X-162200Y23016D01*
X-162233Y22916D01*
X-162267Y22825D01*
Y22816D01*
X-162275Y22808D01*
X-162308Y22758D01*
X-162350Y22691D01*
X-162417Y22616D01*
X-162508Y22541D01*
X-162608Y22475D01*
X-162725Y22425D01*
X-162792Y22416D01*
X-162866Y22408D01*
X-162908D01*
X-162958Y22416D01*
X-163016Y22433D01*
X-163091Y22450D01*
X-163158Y22483D01*
X-163233Y22525D01*
X-163308Y22583D01*
X-163316Y22591D01*
X-163341Y22616D01*
X-163375Y22658D01*
X-163416Y22725D01*
X-163458Y22800D01*
X-163508Y22900D01*
X-163550Y23016D01*
X-163591Y23149D01*
Y23158D01*
X-163600Y23166D01*
Y23191D01*
X-163608Y23224D01*
X-163616Y23266D01*
X-163625Y23316D01*
X-163633Y23375D01*
X-163641Y23449D01*
X-163650Y23533D01*
X-163658Y23616D01*
Y23716D01*
X-163666Y23824D01*
X-163675Y23949D01*
X-163683Y24074D01*
Y24216D01*
Y24366D01*
Y24383D01*
Y24416D01*
Y24483D01*
Y24566D01*
X-163675Y24657D01*
Y24774D01*
X-163666Y24899D01*
X-163658Y25024D01*
X-163633Y25299D01*
X-163591Y25566D01*
X-163575Y25691D01*
X-163541Y25807D01*
X-163508Y25916D01*
X-163475Y25999D01*
Y26007D01*
X-163466Y26015D01*
X-163433Y26065D01*
X-163391Y26132D01*
X-163316Y26207D01*
X-163233Y26282D01*
X-163125Y26349D01*
X-163000Y26399D01*
X-162933Y26407D01*
X-162858Y26415D01*
X-162841D01*
X-162792Y26407D01*
D02*
G37*
G36*
X-131383Y22733D02*
X-131933D01*
X-132041Y22741D01*
X-132166Y22750D01*
X-132299Y22766D01*
X-132441Y22783D01*
X-132566Y22816D01*
X-132674Y22858D01*
X-132683Y22866D01*
X-132716Y22883D01*
X-132758Y22916D01*
X-132816Y22966D01*
X-132882Y23024D01*
X-132949Y23108D01*
X-133007Y23200D01*
X-133066Y23316D01*
X-133074Y23333D01*
X-133091Y23383D01*
X-133099Y23416D01*
X-133107Y23458D01*
X-133124Y23508D01*
X-133141Y23574D01*
X-133149Y23641D01*
X-133166Y23716D01*
X-133174Y23808D01*
X-133182Y23899D01*
X-133191Y24008D01*
X-133199Y24116D01*
X-133207Y24241D01*
Y24374D01*
Y24383D01*
Y24416D01*
Y24466D01*
X-133199Y24532D01*
Y24608D01*
X-133191Y24699D01*
X-133182Y24799D01*
X-133166Y24899D01*
X-133132Y25124D01*
X-133074Y25341D01*
X-133041Y25441D01*
X-132999Y25541D01*
X-132949Y25624D01*
X-132891Y25699D01*
Y25707D01*
X-132874Y25715D01*
X-132832Y25757D01*
X-132749Y25815D01*
X-132699Y25849D01*
X-132641Y25882D01*
X-132574Y25916D01*
X-132499Y25940D01*
X-132416Y25974D01*
X-132316Y25999D01*
X-132216Y26024D01*
X-132099Y26040D01*
X-131983Y26057D01*
X-131383D01*
Y22733D01*
D02*
G37*
G36*
X-191276Y21350D02*
X-193567D01*
X-191276Y24707D01*
Y21350D01*
D02*
G37*
G36*
X-138006Y24966D02*
X-138814D01*
X-138848Y24974D01*
X-138906D01*
X-138973Y24982D01*
X-139056Y24999D01*
X-139164Y25024D01*
X-139289Y25049D01*
X-139298D01*
X-139323Y25057D01*
X-139356Y25066D01*
X-139397Y25082D01*
X-139439Y25107D01*
X-139497Y25141D01*
X-139539Y25182D01*
X-139589Y25232D01*
X-139597Y25241D01*
X-139606Y25257D01*
X-139631Y25291D01*
X-139656Y25341D01*
X-139672Y25391D01*
X-139697Y25449D01*
X-139706Y25516D01*
X-139714Y25591D01*
Y25607D01*
Y25640D01*
X-139706Y25691D01*
X-139689Y25757D01*
X-139664Y25832D01*
X-139631Y25907D01*
X-139589Y25982D01*
X-139522Y26049D01*
X-139514Y26057D01*
X-139489Y26074D01*
X-139439Y26099D01*
X-139364Y26132D01*
X-139272Y26157D01*
X-139148Y26182D01*
X-138998Y26199D01*
X-138823Y26207D01*
X-138006D01*
Y24966D01*
D02*
G37*
G36*
X-145438Y23049D02*
X-146787Y27440D01*
X-144071D01*
X-145438Y23049D01*
D02*
G37*
G36*
X-168348Y23674D02*
X-169690D01*
X-169015Y25857D01*
X-168348Y23674D01*
D02*
G37*
%LPC*%
G36*
X-282743Y27194D02*
X-287804D01*
D01*
X-287513D01*
Y25845D01*
X-284797D01*
X-284647Y24928D01*
X-284651D01*
X-284659Y24932D01*
X-284676Y24941D01*
X-284697Y24949D01*
X-284722Y24962D01*
X-284751Y24974D01*
X-284822Y25003D01*
X-284909Y25036D01*
X-285001Y25070D01*
X-285101Y25099D01*
X-285205Y25128D01*
X-285209D01*
X-285217Y25132D01*
X-285234Y25136D01*
X-285255Y25141D01*
X-285280Y25145D01*
X-285309Y25149D01*
X-285380Y25161D01*
X-285459Y25174D01*
X-285555Y25186D01*
X-285651Y25191D01*
X-285751Y25195D01*
X-285813D01*
X-285838Y25191D01*
X-285905Y25186D01*
X-285980Y25178D01*
X-286071Y25166D01*
X-286171Y25149D01*
X-286280Y25124D01*
X-286396Y25095D01*
X-286517Y25061D01*
X-286638Y25016D01*
X-286763Y24962D01*
X-286888Y24899D01*
X-287008Y24824D01*
X-287125Y24736D01*
X-287234Y24641D01*
X-287242Y24632D01*
X-287258Y24616D01*
X-287288Y24582D01*
X-287321Y24541D01*
X-287367Y24487D01*
X-287413Y24420D01*
X-287467Y24345D01*
X-287521Y24258D01*
X-287571Y24162D01*
X-287625Y24058D01*
X-287671Y23945D01*
X-287717Y23820D01*
X-287750Y23687D01*
X-287779Y23549D01*
X-287796Y23403D01*
X-287804Y23249D01*
Y21000D01*
Y23191D01*
X-287800Y23149D01*
X-287796Y23095D01*
X-287787Y23033D01*
X-287779Y22962D01*
X-287767Y22887D01*
X-287750Y22799D01*
X-287733Y22712D01*
X-287708Y22616D01*
X-287679Y22520D01*
X-287646Y22420D01*
X-287604Y22316D01*
X-287563Y22216D01*
X-287508Y22112D01*
X-287504Y22108D01*
X-287496Y22087D01*
X-287479Y22062D01*
X-287454Y22025D01*
X-287425Y21979D01*
X-287388Y21925D01*
X-287346Y21866D01*
X-287296Y21804D01*
X-287242Y21741D01*
X-287179Y21671D01*
X-287108Y21604D01*
X-287038Y21533D01*
X-286954Y21467D01*
X-286871Y21400D01*
X-286779Y21342D01*
X-286679Y21283D01*
X-286675Y21279D01*
X-286654Y21271D01*
X-286625Y21258D01*
X-286584Y21237D01*
X-286530Y21217D01*
X-286467Y21196D01*
X-286392Y21167D01*
X-286305Y21142D01*
X-286213Y21117D01*
X-286109Y21092D01*
X-285992Y21067D01*
X-285871Y21046D01*
X-285742Y21025D01*
X-285601Y21012D01*
X-285455Y21004D01*
X-285301Y21000D01*
X-285201D01*
X-285147Y21004D01*
X-285088D01*
X-285022Y21008D01*
X-284947Y21012D01*
X-284867Y21021D01*
X-284784Y21029D01*
X-284613Y21046D01*
X-284438Y21075D01*
X-284272Y21112D01*
X-284268D01*
X-284251Y21117D01*
X-284230Y21125D01*
X-284201Y21133D01*
X-284163Y21146D01*
X-284122Y21158D01*
X-284072Y21179D01*
X-284018Y21196D01*
X-283905Y21246D01*
X-283780Y21304D01*
X-283659Y21371D01*
X-283539Y21450D01*
X-283534Y21454D01*
X-283526Y21462D01*
X-283509Y21475D01*
X-283489Y21491D01*
X-283464Y21512D01*
X-283435Y21537D01*
X-283364Y21600D01*
X-283289Y21675D01*
X-283205Y21767D01*
X-283126Y21862D01*
X-283051Y21966D01*
Y21971D01*
X-283043Y21979D01*
X-283035Y21996D01*
X-283022Y22016D01*
X-283005Y22046D01*
X-282985Y22079D01*
X-282964Y22120D01*
X-282943Y22162D01*
X-282918Y22212D01*
X-282893Y22266D01*
X-282868Y22325D01*
X-282843Y22391D01*
X-282818Y22458D01*
X-282793Y22529D01*
X-282743Y22683D01*
X-284455Y22870D01*
Y22866D01*
X-284459Y22854D01*
X-284463Y22833D01*
X-284468Y22804D01*
X-284476Y22766D01*
X-284484Y22729D01*
X-284497Y22683D01*
X-284513Y22637D01*
X-284551Y22537D01*
X-284601Y22433D01*
X-284663Y22329D01*
X-284701Y22283D01*
X-284743Y22241D01*
X-284747Y22237D01*
X-284755Y22233D01*
X-284767Y22220D01*
X-284784Y22208D01*
X-284805Y22191D01*
X-284830Y22175D01*
X-284897Y22137D01*
X-284976Y22095D01*
X-285067Y22062D01*
X-285172Y22037D01*
X-285226Y22033D01*
X-285284Y22029D01*
X-285317D01*
X-285342Y22033D01*
X-285371Y22037D01*
X-285409Y22041D01*
X-285488Y22062D01*
X-285584Y22095D01*
X-285630Y22116D01*
X-285680Y22141D01*
X-285730Y22171D01*
X-285776Y22208D01*
X-285821Y22250D01*
X-285867Y22295D01*
X-285871Y22300D01*
X-285875Y22308D01*
X-285888Y22325D01*
X-285905Y22345D01*
X-285921Y22375D01*
X-285942Y22408D01*
X-285963Y22450D01*
X-285984Y22495D01*
X-286005Y22550D01*
X-286026Y22608D01*
X-286046Y22675D01*
X-286063Y22745D01*
X-286080Y22824D01*
X-286092Y22908D01*
X-286096Y22999D01*
X-286100Y23095D01*
Y23104D01*
Y23120D01*
Y23149D01*
X-286096Y23183D01*
X-286092Y23229D01*
X-286088Y23283D01*
X-286080Y23337D01*
X-286071Y23399D01*
X-286042Y23528D01*
X-286000Y23662D01*
X-285975Y23728D01*
X-285946Y23787D01*
X-285909Y23845D01*
X-285867Y23895D01*
X-285863Y23899D01*
X-285855Y23908D01*
X-285842Y23920D01*
X-285826Y23937D01*
X-285800Y23953D01*
X-285771Y23974D01*
X-285738Y23999D01*
X-285700Y24024D01*
X-285659Y24045D01*
X-285613Y24070D01*
X-285563Y24091D01*
X-285509Y24112D01*
X-285446Y24124D01*
X-285384Y24137D01*
X-285317Y24145D01*
X-285247Y24149D01*
X-285205D01*
X-285184Y24145D01*
X-285159D01*
X-285096Y24132D01*
X-285026Y24120D01*
X-284947Y24099D01*
X-284863Y24070D01*
X-284776Y24028D01*
X-284767Y24024D01*
X-284747Y24012D01*
X-284709Y23987D01*
X-284663Y23958D01*
X-284609Y23912D01*
X-284547Y23858D01*
X-284476Y23791D01*
X-284401Y23712D01*
X-282964Y23920D01*
X-283501Y27194D01*
X-282743D01*
D02*
G37*
G36*
X-264298Y27298D02*
X-264385D01*
X-264448Y27294D01*
X-264527Y27290D01*
X-264614Y27282D01*
X-264714Y27273D01*
X-264823Y27261D01*
X-264935Y27244D01*
X-265056Y27219D01*
X-265177Y27194D01*
X-265302Y27165D01*
X-265422Y27128D01*
X-265539Y27086D01*
X-265651Y27036D01*
X-265760Y26982D01*
X-265768Y26978D01*
X-265785Y26965D01*
X-265814Y26948D01*
X-265851Y26923D01*
X-265897Y26890D01*
X-265951Y26848D01*
X-266014Y26799D01*
X-266076Y26740D01*
X-266147Y26674D01*
X-266218Y26603D01*
X-266293Y26519D01*
X-266368Y26432D01*
X-266439Y26332D01*
X-266510Y26224D01*
X-266580Y26111D01*
X-266643Y25986D01*
X-266647Y25978D01*
X-266655Y25953D01*
X-266672Y25915D01*
X-266697Y25861D01*
X-266722Y25795D01*
X-266747Y25711D01*
X-266780Y25615D01*
X-266810Y25503D01*
X-266839Y25382D01*
X-266872Y25245D01*
X-266897Y25095D01*
X-266926Y24936D01*
X-266947Y24762D01*
X-266964Y24578D01*
X-266972Y24383D01*
X-266976Y24178D01*
Y27298D01*
Y21000D01*
Y24107D01*
X-266972Y24066D01*
Y24020D01*
X-266968Y23970D01*
X-266964Y23908D01*
X-266959Y23845D01*
X-266955Y23774D01*
X-266947Y23699D01*
X-266939Y23616D01*
X-266918Y23445D01*
X-266889Y23262D01*
X-266851Y23066D01*
X-266805Y22866D01*
X-266751Y22666D01*
X-266685Y22466D01*
X-266601Y22275D01*
X-266510Y22091D01*
X-266460Y22004D01*
X-266401Y21921D01*
X-266343Y21841D01*
X-266280Y21767D01*
X-266272Y21758D01*
X-266247Y21733D01*
X-266210Y21696D01*
X-266151Y21646D01*
X-266085Y21587D01*
X-265997Y21525D01*
X-265897Y21454D01*
X-265781Y21383D01*
X-265651Y21312D01*
X-265510Y21242D01*
X-265352Y21179D01*
X-265181Y21121D01*
X-264993Y21071D01*
X-264798Y21033D01*
X-264585Y21008D01*
X-264473Y21004D01*
X-264360Y21000D01*
X-266976D01*
X-261961D01*
X-264289D01*
X-264239Y21004D01*
X-264177D01*
X-264106Y21008D01*
X-264027Y21012D01*
X-263944Y21021D01*
X-263852Y21029D01*
X-263760Y21042D01*
X-263569Y21071D01*
X-263473Y21088D01*
X-263381Y21112D01*
X-263294Y21137D01*
X-263211Y21167D01*
X-263206D01*
X-263194Y21175D01*
X-263169Y21183D01*
X-263140Y21196D01*
X-263106Y21217D01*
X-263065Y21237D01*
X-263019Y21262D01*
X-262969Y21292D01*
X-262856Y21358D01*
X-262740Y21442D01*
X-262623Y21542D01*
X-262515Y21654D01*
X-262511Y21658D01*
X-262502Y21671D01*
X-262490Y21687D01*
X-262469Y21712D01*
X-262444Y21746D01*
X-262419Y21783D01*
X-262390Y21829D01*
X-262356Y21879D01*
X-262323Y21933D01*
X-262290Y21996D01*
X-262252Y22062D01*
X-262219Y22133D01*
X-262182Y22212D01*
X-262148Y22291D01*
X-262119Y22379D01*
X-262090Y22466D01*
X-263773Y22679D01*
Y22675D01*
X-263777Y22662D01*
X-263781Y22645D01*
X-263785Y22620D01*
X-263794Y22591D01*
X-263802Y22558D01*
X-263823Y22483D01*
X-263856Y22400D01*
X-263894Y22320D01*
X-263939Y22241D01*
X-263964Y22208D01*
X-263994Y22179D01*
X-264002Y22175D01*
X-264023Y22158D01*
X-264056Y22133D01*
X-264102Y22108D01*
X-264156Y22083D01*
X-264223Y22058D01*
X-264298Y22041D01*
X-264381Y22037D01*
X-264398D01*
X-264419Y22041D01*
X-264448Y22046D01*
X-264481Y22050D01*
X-264523Y22058D01*
X-264564Y22071D01*
X-264610Y22087D01*
X-264660Y22108D01*
X-264714Y22137D01*
X-264764Y22171D01*
X-264818Y22208D01*
X-264872Y22258D01*
X-264923Y22312D01*
X-264968Y22375D01*
X-265014Y22445D01*
Y22450D01*
X-265023Y22462D01*
X-265031Y22479D01*
X-265043Y22508D01*
X-265056Y22545D01*
X-265072Y22595D01*
X-265089Y22650D01*
X-265110Y22720D01*
X-265127Y22799D01*
X-265147Y22891D01*
X-265168Y22995D01*
X-265189Y23116D01*
X-265210Y23245D01*
X-265231Y23391D01*
X-265247Y23554D01*
X-265264Y23728D01*
X-265260Y23724D01*
X-265252Y23716D01*
X-265235Y23699D01*
X-265210Y23679D01*
X-265185Y23654D01*
X-265152Y23620D01*
X-265114Y23591D01*
X-265072Y23554D01*
X-264977Y23479D01*
X-264872Y23403D01*
X-264760Y23333D01*
X-264639Y23270D01*
X-264635D01*
X-264627Y23266D01*
X-264606Y23258D01*
X-264581Y23249D01*
X-264552Y23237D01*
X-264514Y23224D01*
X-264473Y23212D01*
X-264427Y23199D01*
X-264377Y23187D01*
X-264319Y23174D01*
X-264256Y23162D01*
X-264194Y23149D01*
X-264052Y23133D01*
X-263902Y23129D01*
X-263864D01*
X-263823Y23133D01*
X-263764Y23137D01*
X-263694Y23145D01*
X-263615Y23158D01*
X-263523Y23179D01*
X-263423Y23199D01*
X-263315Y23233D01*
X-263202Y23270D01*
X-263090Y23316D01*
X-262973Y23374D01*
X-262856Y23441D01*
X-262740Y23516D01*
X-262627Y23608D01*
X-262519Y23708D01*
X-262515Y23716D01*
X-262494Y23733D01*
X-262469Y23766D01*
X-262432Y23812D01*
X-262390Y23870D01*
X-262344Y23941D01*
X-262294Y24020D01*
X-262240Y24112D01*
X-262190Y24212D01*
X-262136Y24324D01*
X-262090Y24445D01*
X-262048Y24574D01*
X-262011Y24716D01*
X-261986Y24862D01*
X-261969Y25020D01*
X-261961Y25182D01*
Y25241D01*
X-261965Y25286D01*
X-261969Y25336D01*
X-261978Y25399D01*
X-261986Y25470D01*
X-261998Y25549D01*
X-262011Y25628D01*
X-262032Y25715D01*
X-262052Y25807D01*
X-262082Y25903D01*
X-262115Y25999D01*
X-262152Y26095D01*
X-262194Y26190D01*
X-262244Y26286D01*
X-262248Y26290D01*
X-262257Y26307D01*
X-262273Y26336D01*
X-262298Y26369D01*
X-262327Y26411D01*
X-262361Y26457D01*
X-262402Y26511D01*
X-262452Y26569D01*
X-262502Y26628D01*
X-262561Y26690D01*
X-262627Y26753D01*
X-262698Y26815D01*
X-262773Y26878D01*
X-262852Y26936D01*
X-262940Y26990D01*
X-263031Y27040D01*
X-263036Y27044D01*
X-263056Y27053D01*
X-263081Y27065D01*
X-263123Y27082D01*
X-263173Y27098D01*
X-263231Y27123D01*
X-263302Y27144D01*
X-263377Y27169D01*
X-263465Y27194D01*
X-263560Y27215D01*
X-263664Y27240D01*
X-263777Y27257D01*
X-263898Y27273D01*
X-264023Y27286D01*
X-264156Y27294D01*
X-264298Y27298D01*
D02*
G37*
G36*
X-276965D02*
X-281522D01*
Y23554D01*
X-282285D01*
Y27298D01*
Y21104D01*
Y22241D01*
X-281522D01*
Y21104D01*
X-282285D01*
X-280048D01*
Y22241D01*
X-276965D01*
Y23633D01*
X-280048Y27298D01*
X-276965D01*
D02*
G37*
G36*
X-274145Y23978D02*
X-276603D01*
Y22670D01*
X-274145D01*
Y23978D01*
D02*
G37*
G36*
X-239000Y27194D02*
X-245598D01*
D01*
X-243336Y21104D01*
X-241299D01*
X-239000Y27194D01*
D02*
G37*
G36*
X-246298D02*
X-248185D01*
Y21104D01*
X-246298D01*
Y27194D01*
D02*
G37*
G36*
X-249547D02*
X-255367D01*
Y21104D01*
X-253592D01*
X-251318Y24441D01*
Y21104D01*
X-249547D01*
Y27194D01*
D02*
G37*
G36*
X-256512Y25515D02*
X-258320D01*
Y21104D01*
X-256512D01*
Y22808D01*
Y22799D01*
X-258320D01*
Y23820D01*
X-256512D01*
Y25515D01*
D02*
G37*
G36*
X-267359Y27194D02*
X-273958D01*
D01*
X-271696Y21104D01*
X-269659D01*
X-267359Y27194D01*
D01*
D02*
G37*
G36*
X-288158D02*
X-294757D01*
D01*
X-292495Y21104D01*
X-290458D01*
X-288158Y27194D01*
D02*
G37*
%LPD*%
G36*
X-264293Y26240D02*
X-264264Y26236D01*
X-264231Y26232D01*
X-264152Y26211D01*
X-264064Y26182D01*
X-264019Y26161D01*
X-263969Y26136D01*
X-263923Y26107D01*
X-263877Y26074D01*
X-263831Y26036D01*
X-263790Y25990D01*
X-263785Y25986D01*
X-263781Y25978D01*
X-263769Y25965D01*
X-263756Y25945D01*
X-263739Y25915D01*
X-263719Y25882D01*
X-263698Y25845D01*
X-263681Y25799D01*
X-263660Y25749D01*
X-263640Y25695D01*
X-263619Y25632D01*
X-263602Y25561D01*
X-263589Y25486D01*
X-263577Y25407D01*
X-263573Y25320D01*
X-263569Y25228D01*
Y25224D01*
Y25207D01*
Y25178D01*
X-263573Y25145D01*
X-263577Y25103D01*
X-263581Y25053D01*
X-263589Y24999D01*
X-263598Y24936D01*
X-263623Y24811D01*
X-263664Y24682D01*
X-263694Y24620D01*
X-263723Y24557D01*
X-263756Y24499D01*
X-263798Y24445D01*
X-263802Y24441D01*
X-263810Y24432D01*
X-263823Y24420D01*
X-263839Y24403D01*
X-263860Y24383D01*
X-263890Y24358D01*
X-263919Y24337D01*
X-263956Y24312D01*
X-264039Y24262D01*
X-264135Y24216D01*
X-264189Y24199D01*
X-264248Y24187D01*
X-264310Y24178D01*
X-264373Y24174D01*
X-264406D01*
X-264431Y24178D01*
X-264460Y24183D01*
X-264498Y24187D01*
X-264581Y24207D01*
X-264673Y24237D01*
X-264723Y24262D01*
X-264773Y24287D01*
X-264823Y24316D01*
X-264872Y24349D01*
X-264918Y24391D01*
X-264964Y24437D01*
X-264968Y24441D01*
X-264972Y24449D01*
X-264985Y24466D01*
X-265002Y24487D01*
X-265018Y24512D01*
X-265039Y24545D01*
X-265060Y24582D01*
X-265085Y24628D01*
X-265106Y24678D01*
X-265127Y24736D01*
X-265147Y24795D01*
X-265164Y24866D01*
X-265181Y24936D01*
X-265193Y25016D01*
X-265198Y25099D01*
X-265202Y25186D01*
Y25191D01*
Y25207D01*
Y25232D01*
X-265198Y25270D01*
X-265193Y25311D01*
X-265189Y25357D01*
X-265181Y25411D01*
X-265173Y25470D01*
X-265139Y25595D01*
X-265123Y25657D01*
X-265098Y25724D01*
X-265068Y25786D01*
X-265035Y25849D01*
X-264998Y25907D01*
X-264952Y25961D01*
X-264947Y25965D01*
X-264939Y25974D01*
X-264927Y25986D01*
X-264906Y26007D01*
X-264885Y26028D01*
X-264856Y26053D01*
X-264823Y26078D01*
X-264781Y26103D01*
X-264693Y26157D01*
X-264594Y26199D01*
X-264535Y26219D01*
X-264477Y26232D01*
X-264414Y26240D01*
X-264348Y26244D01*
X-264314D01*
X-264293Y26240D01*
D02*
G37*
G36*
X-278415Y23554D02*
X-280048D01*
Y25478D01*
X-278415Y23554D01*
D02*
G37*
G36*
X-242337Y22808D02*
X-243686Y27194D01*
X-240966D01*
X-242337Y22808D01*
D02*
G37*
G36*
X-253592Y23828D02*
Y27194D01*
X-251305D01*
X-253592Y23828D01*
D02*
G37*
G36*
X-270696Y22808D02*
X-272046Y27194D01*
X-269326D01*
X-270696Y22808D01*
D02*
G37*
G36*
X-291495D02*
X-292845Y27194D01*
X-290124D01*
X-291495Y22808D01*
D02*
G37*
%LPC*%
G36*
X139312Y27190D02*
X134146D01*
X136088D01*
X136021Y27182D01*
X135938Y27173D01*
X135838Y27165D01*
X135729Y27148D01*
X135613Y27132D01*
X135371Y27073D01*
X135238Y27032D01*
X135113Y26982D01*
X134996Y26923D01*
X134871Y26865D01*
X134763Y26782D01*
X134663Y26699D01*
X134655Y26690D01*
X134638Y26674D01*
X134613Y26648D01*
X134580Y26607D01*
X134546Y26557D01*
X134496Y26499D01*
X134455Y26424D01*
X134405Y26349D01*
X134355Y26249D01*
X134313Y26149D01*
X134263Y26032D01*
X134230Y25915D01*
X134197Y25774D01*
X134171Y25632D01*
X134155Y25482D01*
X134146Y25315D01*
Y25340D01*
Y25224D01*
X134155Y25166D01*
X134163Y25082D01*
X134180Y24999D01*
X134197Y24899D01*
X134213Y24791D01*
X134280Y24557D01*
X134330Y24441D01*
X134380Y24316D01*
X134446Y24199D01*
X134521Y24083D01*
X134605Y23974D01*
X134705Y23874D01*
X134713Y23866D01*
X134730Y23849D01*
X134763Y23824D01*
X134805Y23791D01*
X134863Y23758D01*
X134938Y23708D01*
X135021Y23666D01*
X135121Y23616D01*
X135238Y23566D01*
X135363Y23524D01*
X135496Y23474D01*
X135646Y23441D01*
X135813Y23408D01*
X135996Y23383D01*
X136188Y23366D01*
X136396Y23358D01*
X137421D01*
Y21100D01*
X139312D01*
Y27190D01*
D02*
G37*
G36*
X75503Y27190D02*
X70338D01*
X72279D01*
X72212Y27182D01*
X72129Y27173D01*
X72029Y27165D01*
X71921Y27148D01*
X71804Y27132D01*
X71562Y27073D01*
X71429Y27032D01*
X71304Y26982D01*
X71188Y26923D01*
X71063Y26865D01*
X70954Y26782D01*
X70854Y26699D01*
X70846Y26690D01*
X70829Y26674D01*
X70804Y26648D01*
X70771Y26607D01*
X70738Y26557D01*
X70688Y26499D01*
X70646Y26424D01*
X70596Y26349D01*
X70546Y26249D01*
X70504Y26149D01*
X70455Y26032D01*
X70421Y25915D01*
X70388Y25774D01*
X70363Y25632D01*
X70346Y25482D01*
X70338Y25315D01*
D01*
D01*
Y25224D01*
X70346Y25166D01*
X70354Y25082D01*
X70371Y24999D01*
X70388Y24899D01*
X70405Y24791D01*
X70471Y24557D01*
X70521Y24441D01*
X70571Y24316D01*
X70638Y24199D01*
X70713Y24083D01*
X70796Y23974D01*
X70896Y23874D01*
X70904Y23866D01*
X70921Y23849D01*
X70954Y23824D01*
X70996Y23791D01*
X71054Y23758D01*
X71129Y23708D01*
X71213Y23666D01*
X71313Y23616D01*
X71429Y23566D01*
X71554Y23524D01*
X71687Y23474D01*
X71837Y23441D01*
X72004Y23408D01*
X72187Y23383D01*
X72379Y23366D01*
X72587Y23358D01*
X73612D01*
Y21100D01*
X75503D01*
Y27190D01*
D02*
G37*
G36*
X90974Y27190D02*
X85909D01*
X86200D01*
Y25840D01*
X88933D01*
X89075Y24924D01*
X89058Y24932D01*
X89025Y24949D01*
X88966Y24974D01*
X88900Y24999D01*
X88816Y25032D01*
X88716Y25066D01*
X88517Y25124D01*
X88500D01*
X88467Y25132D01*
X88417Y25149D01*
X88342Y25157D01*
X88258Y25174D01*
X88167Y25182D01*
X87967Y25191D01*
X87875D01*
X87817Y25182D01*
X87733Y25174D01*
X87650Y25157D01*
X87550Y25141D01*
X87434Y25124D01*
X87200Y25057D01*
X87075Y25007D01*
X86950Y24957D01*
X86834Y24891D01*
X86709Y24816D01*
X86592Y24732D01*
X86484Y24632D01*
X86475Y24624D01*
X86459Y24607D01*
X86434Y24574D01*
X86392Y24532D01*
X86350Y24482D01*
X86300Y24416D01*
X86250Y24341D01*
X86192Y24249D01*
X86142Y24158D01*
X86092Y24049D01*
X86042Y23941D01*
X86000Y23816D01*
X85959Y23683D01*
X85934Y23541D01*
X85917Y23399D01*
X85909Y23241D01*
Y23183D01*
X85917Y23141D01*
Y23091D01*
X85926Y23024D01*
X85942Y22883D01*
X85984Y22708D01*
X86034Y22516D01*
X86109Y22316D01*
X86209Y22108D01*
Y22100D01*
X86225Y22083D01*
X86242Y22058D01*
X86259Y22016D01*
X86325Y21925D01*
X86425Y21800D01*
X86542Y21667D01*
X86684Y21533D01*
X86850Y21400D01*
X87042Y21283D01*
X87050D01*
X87067Y21275D01*
X87100Y21258D01*
X87142Y21242D01*
X87192Y21217D01*
X87259Y21192D01*
X87325Y21167D01*
X87417Y21142D01*
X87508Y21117D01*
X87608Y21092D01*
X87725Y21067D01*
X87850Y21042D01*
X87975Y21025D01*
X88117Y21008D01*
X88417Y21000D01*
X85909D01*
X90974D01*
X88567D01*
X88625Y21008D01*
X88766Y21017D01*
X88933Y21025D01*
X89108Y21050D01*
X89283Y21075D01*
X89450Y21108D01*
X89458D01*
X89466Y21117D01*
X89491Y21125D01*
X89525Y21133D01*
X89600Y21158D01*
X89699Y21192D01*
X89816Y21242D01*
X89941Y21300D01*
X90066Y21375D01*
X90183Y21450D01*
X90199Y21458D01*
X90233Y21491D01*
X90291Y21533D01*
X90358Y21600D01*
X90433Y21675D01*
X90516Y21758D01*
X90599Y21858D01*
X90674Y21958D01*
X90683Y21975D01*
X90708Y22008D01*
X90741Y22075D01*
X90783Y22158D01*
X90824Y22258D01*
X90874Y22383D01*
X90924Y22525D01*
X90974Y22675D01*
X89266Y22866D01*
Y22858D01*
Y22850D01*
X89250Y22799D01*
X89233Y22724D01*
X89208Y22633D01*
X89175Y22533D01*
X89125Y22425D01*
X89058Y22325D01*
X88983Y22241D01*
X88975Y22233D01*
X88941Y22208D01*
X88891Y22175D01*
X88825Y22141D01*
X88750Y22100D01*
X88650Y22066D01*
X88550Y22041D01*
X88433Y22033D01*
X88417D01*
X88375Y22041D01*
X88308Y22050D01*
X88225Y22066D01*
X88133Y22100D01*
X88033Y22150D01*
X87933Y22208D01*
X87842Y22300D01*
X87833Y22316D01*
X87808Y22350D01*
X87767Y22408D01*
X87725Y22500D01*
X87683Y22608D01*
X87642Y22750D01*
X87617Y22908D01*
X87608Y23091D01*
Y23099D01*
Y23116D01*
Y23141D01*
Y23183D01*
X87617Y23274D01*
X87642Y23391D01*
X87667Y23524D01*
X87708Y23658D01*
X87767Y23774D01*
X87850Y23883D01*
X87858Y23891D01*
X87892Y23924D01*
X87942Y23966D01*
X88017Y24016D01*
X88100Y24058D01*
X88208Y24099D01*
X88333Y24132D01*
X88467Y24141D01*
X88508D01*
X88558Y24132D01*
X88617Y24124D01*
X88692Y24107D01*
X88775Y24091D01*
X88858Y24058D01*
X88941Y24016D01*
X88950D01*
X88975Y23999D01*
X89008Y23974D01*
X89058Y23949D01*
X89108Y23899D01*
X89175Y23849D01*
X89250Y23783D01*
X89325Y23699D01*
X90758Y23908D01*
X90224Y27190D01*
X90974D01*
D02*
G37*
G36*
X127481D02*
X125732D01*
X123424Y23808D01*
Y27190D01*
X121650D01*
Y21100D01*
X127481D01*
Y27190D01*
D02*
G37*
G36*
X69980Y27190D02*
X64839D01*
X63889Y23791D01*
X63248Y27190D01*
X61465D01*
X62815Y21100D01*
X64656D01*
X65722Y24932D01*
X66789Y21100D01*
X65722D01*
X69980D01*
X68630D01*
X69980Y27190D01*
D02*
G37*
G36*
X133272Y25507D02*
X131464D01*
Y23441D01*
Y23816D01*
X133272D01*
Y25507D01*
D02*
G37*
G36*
Y23449D02*
Y22791D01*
X131464D01*
Y22850D01*
Y21100D01*
X133272D01*
Y23449D01*
D02*
G37*
G36*
X100788Y27290D02*
X94582D01*
X97339D01*
X97256Y27282D01*
X97164D01*
X97056Y27273D01*
X96939Y27265D01*
X96698Y27248D01*
X96448Y27215D01*
X96206Y27165D01*
X96098Y27140D01*
X95998Y27107D01*
X95990D01*
X95973Y27098D01*
X95948Y27090D01*
X95915Y27073D01*
X95823Y27032D01*
X95706Y26965D01*
X95573Y26890D01*
X95431Y26790D01*
X95298Y26665D01*
X95165Y26532D01*
Y26524D01*
X95148Y26515D01*
X95132Y26490D01*
X95106Y26465D01*
X95048Y26382D01*
X94973Y26265D01*
X94898Y26124D01*
X94815Y25957D01*
X94732Y25765D01*
X94665Y25557D01*
X96481Y25241D01*
X96489Y25257D01*
X96506Y25299D01*
X96531Y25357D01*
X96573Y25432D01*
X96623Y25515D01*
X96689Y25607D01*
X96773Y25690D01*
X96864Y25765D01*
X96873Y25774D01*
X96914Y25790D01*
X96973Y25824D01*
X97048Y25857D01*
X97148Y25890D01*
X97264Y25924D01*
X97398Y25940D01*
X97548Y25949D01*
X97606D01*
X97647Y25940D01*
X97706Y25932D01*
X97764Y25924D01*
X97906Y25899D01*
X98064Y25840D01*
X98231Y25765D01*
X98314Y25715D01*
X98389Y25657D01*
X98464Y25591D01*
X98539Y25515D01*
Y25507D01*
X98556Y25499D01*
X98572Y25474D01*
X98597Y25432D01*
X98622Y25391D01*
X98656Y25332D01*
X98689Y25266D01*
X98722Y25191D01*
X98756Y25099D01*
X98789Y24999D01*
X98822Y24882D01*
X98847Y24766D01*
X98872Y24632D01*
X98889Y24482D01*
X98897Y24324D01*
X98905Y24158D01*
Y24149D01*
Y24116D01*
Y24066D01*
X98897Y23999D01*
Y23916D01*
X98889Y23824D01*
X98872Y23724D01*
X98855Y23616D01*
X98814Y23383D01*
X98747Y23149D01*
X98706Y23041D01*
X98656Y22933D01*
X98606Y22833D01*
X98539Y22750D01*
X98531Y22741D01*
X98522Y22733D01*
X98497Y22708D01*
X98472Y22683D01*
X98389Y22616D01*
X98264Y22541D01*
X98122Y22466D01*
X97939Y22400D01*
X97731Y22350D01*
X97622Y22341D01*
X97498Y22333D01*
X97439D01*
X97381Y22341D01*
X97306D01*
X97214Y22350D01*
X97114Y22366D01*
X96898Y22416D01*
X96881Y22425D01*
X96848Y22433D01*
X96789Y22458D01*
X96706Y22491D01*
X96606Y22533D01*
X96489Y22583D01*
X96364Y22650D01*
X96231Y22724D01*
Y23299D01*
X97489D01*
Y24566D01*
X94582D01*
Y21975D01*
X94590Y21966D01*
X94615Y21950D01*
X94665Y21925D01*
X94723Y21883D01*
X94798Y21833D01*
X94881Y21783D01*
X94973Y21725D01*
X95082Y21667D01*
X95315Y21533D01*
X95565Y21408D01*
X95815Y21292D01*
X95940Y21242D01*
X96065Y21200D01*
X96073D01*
X96090Y21192D01*
X96131Y21183D01*
X96181Y21167D01*
X96240Y21150D01*
X96314Y21133D01*
X96398Y21117D01*
X96498Y21100D01*
X96606Y21083D01*
X96714Y21067D01*
X96848Y21050D01*
X96981Y21033D01*
X97273Y21008D01*
X97589Y21000D01*
X97697D01*
X97773Y21008D01*
X97864D01*
X97964Y21017D01*
X98089Y21033D01*
X98214Y21050D01*
X98497Y21092D01*
X98789Y21158D01*
X99080Y21250D01*
X99222Y21300D01*
X99355Y21367D01*
X99364Y21375D01*
X99389Y21383D01*
X99422Y21408D01*
X99464Y21433D01*
X99522Y21475D01*
X99589Y21525D01*
X99664Y21575D01*
X99747Y21641D01*
X99830Y21716D01*
X99914Y21791D01*
X100005Y21883D01*
X100089Y21983D01*
X100180Y22091D01*
X100264Y22200D01*
X100338Y22325D01*
X100414Y22458D01*
Y22466D01*
X100430Y22491D01*
X100447Y22533D01*
X100472Y22591D01*
X100497Y22658D01*
X100530Y22741D01*
X100563Y22833D01*
X100597Y22941D01*
X100638Y23066D01*
X100672Y23191D01*
X100705Y23333D01*
X100730Y23474D01*
X100772Y23799D01*
X100780Y23966D01*
X100788Y24141D01*
Y21533D01*
Y24283D01*
Y24241D01*
X100780Y24307D01*
X100772Y24399D01*
X100763Y24499D01*
X100755Y24607D01*
X100738Y24732D01*
X100713Y24866D01*
X100688Y25007D01*
X100613Y25291D01*
X100572Y25440D01*
X100513Y25591D01*
X100455Y25732D01*
X100380Y25874D01*
X100372Y25882D01*
X100364Y25907D01*
X100338Y25940D01*
X100305Y25999D01*
X100264Y26057D01*
X100205Y26124D01*
X100147Y26207D01*
X100072Y26290D01*
X99997Y26374D01*
X99905Y26465D01*
X99805Y26565D01*
X99697Y26657D01*
X99580Y26748D01*
X99455Y26832D01*
X99314Y26915D01*
X99172Y26990D01*
X99164D01*
X99147Y27007D01*
X99106Y27015D01*
X99056Y27040D01*
X98997Y27057D01*
X98922Y27082D01*
X98830Y27115D01*
X98731Y27140D01*
X98622Y27165D01*
X98497Y27198D01*
X98356Y27223D01*
X98206Y27240D01*
X98047Y27265D01*
X97881Y27273D01*
X97697Y27290D01*
X100788D01*
D02*
G37*
G36*
X153000Y27190D02*
X147168D01*
Y21100D01*
X149059D01*
Y23566D01*
X151117D01*
Y21100D01*
X153000D01*
Y27190D01*
D02*
G37*
G36*
X146518D02*
X139920D01*
D01*
X142186Y21100D01*
X144227D01*
X146518Y27190D01*
D01*
D02*
G37*
G36*
X113285D02*
X107303D01*
X110011D01*
X109936Y27182D01*
X109761D01*
X109661Y27173D01*
X109445Y27157D01*
X109228Y27123D01*
X109020Y27090D01*
X108920Y27065D01*
X108828Y27040D01*
X108820D01*
X108803Y27032D01*
X108786Y27023D01*
X108753Y27007D01*
X108661Y26974D01*
X108561Y26915D01*
X108436Y26840D01*
X108311Y26740D01*
X108195Y26623D01*
X108078Y26482D01*
Y26474D01*
X108070Y26465D01*
X108053Y26440D01*
X108036Y26407D01*
X107986Y26324D01*
X107936Y26207D01*
X107887Y26057D01*
X107837Y25890D01*
X107803Y25699D01*
X107795Y25491D01*
Y25482D01*
Y25466D01*
Y25440D01*
Y25407D01*
X107803Y25307D01*
X107820Y25191D01*
X107845Y25057D01*
X107887Y24907D01*
X107936Y24757D01*
X108012Y24616D01*
X108020Y24599D01*
X108053Y24557D01*
X108103Y24491D01*
X108170Y24407D01*
X108253Y24307D01*
X108353Y24207D01*
X108478Y24107D01*
X108611Y24016D01*
X108620Y24007D01*
X108653Y23991D01*
X108711Y23966D01*
X108786Y23933D01*
X108878Y23891D01*
X108995Y23858D01*
X109120Y23816D01*
X109270Y23774D01*
X109253Y23766D01*
X109211Y23758D01*
X109153Y23733D01*
X109086Y23708D01*
X108920Y23641D01*
X108845Y23599D01*
X108778Y23558D01*
X108770D01*
X108761Y23541D01*
X108736Y23524D01*
X108703Y23491D01*
X108661Y23449D01*
X108611Y23391D01*
X108553Y23316D01*
X108486Y23233D01*
X108478Y23224D01*
X108453Y23191D01*
X108420Y23149D01*
X108378Y23099D01*
X108286Y22975D01*
X108253Y22916D01*
X108220Y22858D01*
X107303Y21100D01*
X109436D01*
X110436Y22950D01*
Y22958D01*
X110444Y22966D01*
X110469Y23008D01*
X110503Y23075D01*
X110553Y23149D01*
X110603Y23224D01*
X110661Y23308D01*
X110711Y23374D01*
X110769Y23424D01*
X110778Y23433D01*
X110802Y23449D01*
X110852Y23466D01*
X110902Y23499D01*
X110977Y23524D01*
X111052Y23541D01*
X111144Y23558D01*
X111236Y23566D01*
X111394D01*
Y21100D01*
X113285D01*
Y27190D01*
D02*
G37*
G36*
X106704D02*
X101572D01*
D01*
X101663D01*
Y25890D01*
X104821D01*
Y24924D01*
X101888D01*
Y23683D01*
X104821D01*
Y22483D01*
X101572D01*
Y21100D01*
X106704D01*
Y27190D01*
D02*
G37*
G36*
X85567D02*
X78936Y27190D01*
D01*
X81218Y27190D01*
X78936Y21100D01*
X80910Y21100D01*
X81210Y22108D01*
X83351D01*
X83651Y21100D01*
X85567D01*
X83285Y27190D01*
X85567D01*
D02*
G37*
G36*
X60874Y27190D02*
X54017D01*
Y21100D01*
X55558D01*
Y25740D01*
X56758Y21100D01*
X58149D01*
X59332Y25740D01*
Y21100D01*
X60874D01*
Y27190D01*
D02*
G37*
G36*
X117501Y27290D02*
X114327D01*
X117434D01*
X117351Y27282D01*
X117251D01*
X117126Y27265D01*
X116976Y27248D01*
X116809Y27223D01*
X116634Y27190D01*
X116451Y27148D01*
X116259Y27090D01*
X116060Y27023D01*
X115868Y26948D01*
X115676Y26848D01*
X115493Y26740D01*
X115310Y26615D01*
X115151Y26474D01*
X115143Y26465D01*
X115118Y26432D01*
X115076Y26390D01*
X115018Y26324D01*
X114960Y26240D01*
X114893Y26140D01*
X114818Y26015D01*
X114735Y25882D01*
X114660Y25724D01*
X114585Y25557D01*
X114518Y25366D01*
X114452Y25166D01*
X114402Y24941D01*
X114360Y24707D01*
X114335Y24449D01*
X114327Y24183D01*
Y24083D01*
X114335Y24007D01*
Y23916D01*
X114343Y23808D01*
X114360Y23691D01*
X114368Y23566D01*
X114418Y23291D01*
X114485Y22991D01*
X114568Y22708D01*
X114627Y22566D01*
X114693Y22433D01*
Y22425D01*
X114710Y22400D01*
X114726Y22366D01*
X114760Y22325D01*
X114793Y22266D01*
X114843Y22200D01*
X114960Y22050D01*
X115101Y21875D01*
X115285Y21700D01*
X115493Y21533D01*
X115735Y21375D01*
X115743D01*
X115768Y21358D01*
X115801Y21342D01*
X115859Y21317D01*
X115918Y21292D01*
X116001Y21258D01*
X116093Y21225D01*
X116201Y21192D01*
X116318Y21150D01*
X116443Y21117D01*
X116584Y21083D01*
X116734Y21058D01*
X116893Y21033D01*
X117059Y21017D01*
X117242Y21008D01*
X117426Y21000D01*
X114327D01*
X120642D01*
Y24283D01*
Y24207D01*
X120633Y24283D01*
X120625Y24383D01*
X120617Y24507D01*
X120600Y24657D01*
X120575Y24816D01*
X120542Y24991D01*
X120492Y25166D01*
X120442Y25357D01*
X120375Y25549D01*
X120292Y25740D01*
X120200Y25932D01*
X120092Y26115D01*
X119958Y26290D01*
X119817Y26457D01*
X119809Y26465D01*
X119775Y26490D01*
X119733Y26532D01*
X119667Y26590D01*
X119575Y26648D01*
X119475Y26723D01*
X119350Y26799D01*
X119217Y26874D01*
X119059Y26948D01*
X118884Y27023D01*
X118692Y27098D01*
X118484Y27157D01*
X118267Y27215D01*
X118026Y27257D01*
X117767Y27282D01*
X117501Y27290D01*
D02*
G37*
%LPD*%
G36*
X137421Y24591D02*
X136871D01*
X136779Y24599D01*
X136663Y24616D01*
X136538Y24632D01*
X136413Y24666D01*
X136296Y24716D01*
X136204Y24774D01*
X136196Y24782D01*
X136171Y24807D01*
X136129Y24849D01*
X136088Y24907D01*
X136054Y24974D01*
X136013Y25057D01*
X135988Y25149D01*
X135979Y25257D01*
Y25274D01*
Y25307D01*
X135988Y25357D01*
X136004Y25432D01*
X136029Y25507D01*
X136063Y25591D01*
X136104Y25674D01*
X136171Y25749D01*
X136179Y25757D01*
X136213Y25782D01*
X136263Y25815D01*
X136329Y25849D01*
X136429Y25882D01*
X136554Y25915D01*
X136704Y25940D01*
X136888Y25949D01*
X137421D01*
Y24591D01*
D02*
G37*
G36*
X73612Y24591D02*
X73062D01*
X72970Y24599D01*
X72854Y24616D01*
X72729Y24632D01*
X72604Y24666D01*
X72487Y24716D01*
X72396Y24774D01*
X72387Y24782D01*
X72362Y24807D01*
X72321Y24849D01*
X72279Y24907D01*
X72246Y24974D01*
X72204Y25057D01*
X72179Y25149D01*
X72171Y25257D01*
Y25274D01*
Y25307D01*
X72179Y25357D01*
X72196Y25432D01*
X72221Y25507D01*
X72254Y25590D01*
X72296Y25674D01*
X72362Y25749D01*
X72371Y25757D01*
X72404Y25782D01*
X72454Y25815D01*
X72521Y25849D01*
X72621Y25882D01*
X72745Y25915D01*
X72895Y25940D01*
X73079Y25949D01*
X73612D01*
Y24591D01*
D02*
G37*
G36*
X125715Y21100D02*
X123424D01*
X125715Y24457D01*
Y21100D01*
D02*
G37*
G36*
X67555Y23791D02*
X66606Y27190D01*
X68197D01*
X67555Y23791D01*
D02*
G37*
G36*
X151117Y25057D02*
X149059D01*
Y27190D01*
X151117D01*
Y25057D01*
D02*
G37*
G36*
X143186Y22799D02*
X141836Y27190D01*
X144552D01*
X143186Y22799D01*
D02*
G37*
G36*
X111394Y24716D02*
X110586D01*
X110553Y24724D01*
X110494D01*
X110428Y24732D01*
X110344Y24749D01*
X110236Y24774D01*
X110111Y24799D01*
X110103D01*
X110078Y24807D01*
X110044Y24816D01*
X110003Y24832D01*
X109961Y24857D01*
X109903Y24891D01*
X109861Y24932D01*
X109811Y24982D01*
X109803Y24991D01*
X109794Y25007D01*
X109769Y25041D01*
X109744Y25091D01*
X109728Y25141D01*
X109703Y25199D01*
X109694Y25266D01*
X109686Y25340D01*
Y25357D01*
Y25391D01*
X109694Y25440D01*
X109711Y25507D01*
X109736Y25582D01*
X109769Y25657D01*
X109811Y25732D01*
X109878Y25799D01*
X109886Y25807D01*
X109911Y25824D01*
X109961Y25849D01*
X110036Y25882D01*
X110128Y25907D01*
X110253Y25932D01*
X110403Y25949D01*
X110577Y25957D01*
X111394D01*
Y24716D01*
D02*
G37*
G36*
X82943Y23424D02*
X81602D01*
X82276Y25607D01*
X82943Y23424D01*
D02*
G37*
G36*
X57441Y23483D02*
X56491Y27190D01*
X58399D01*
X57441Y23483D01*
D02*
G37*
G36*
X117592Y25857D02*
X117642D01*
X117701Y25840D01*
X117834Y25815D01*
X117976Y25765D01*
X118126Y25690D01*
X118209Y25649D01*
X118276Y25591D01*
X118350Y25532D01*
X118417Y25457D01*
Y25449D01*
X118434Y25440D01*
X118450Y25415D01*
X118467Y25382D01*
X118492Y25340D01*
X118525Y25282D01*
X118559Y25216D01*
X118584Y25141D01*
X118617Y25057D01*
X118651Y24957D01*
X118675Y24849D01*
X118709Y24732D01*
X118725Y24599D01*
X118742Y24457D01*
X118759Y24299D01*
Y24132D01*
Y24124D01*
Y24091D01*
Y24041D01*
X118750Y23983D01*
Y23908D01*
X118742Y23816D01*
X118734Y23724D01*
X118717Y23624D01*
X118675Y23399D01*
X118617Y23183D01*
X118534Y22983D01*
X118476Y22891D01*
X118417Y22808D01*
X118409Y22799D01*
X118400Y22791D01*
X118350Y22750D01*
X118276Y22683D01*
X118176Y22608D01*
X118042Y22533D01*
X117876Y22475D01*
X117692Y22425D01*
X117592Y22416D01*
X117484Y22408D01*
X117426D01*
X117384Y22416D01*
X117334D01*
X117276Y22433D01*
X117134Y22458D01*
X116984Y22508D01*
X116826Y22575D01*
X116676Y22675D01*
X116609Y22733D01*
X116543Y22799D01*
Y22808D01*
X116526Y22816D01*
X116509Y22841D01*
X116493Y22875D01*
X116468Y22924D01*
X116434Y22975D01*
X116409Y23041D01*
X116376Y23124D01*
X116343Y23216D01*
X116318Y23316D01*
X116284Y23433D01*
X116259Y23558D01*
X116243Y23699D01*
X116226Y23858D01*
X116209Y24024D01*
Y24207D01*
Y24216D01*
Y24249D01*
Y24291D01*
X116218Y24349D01*
Y24416D01*
X116226Y24499D01*
X116234Y24591D01*
X116251Y24691D01*
X116293Y24891D01*
X116359Y25099D01*
X116443Y25299D01*
X116501Y25382D01*
X116559Y25466D01*
Y25474D01*
X116576Y25482D01*
X116626Y25532D01*
X116701Y25591D01*
X116809Y25666D01*
X116943Y25740D01*
X117101Y25807D01*
X117292Y25849D01*
X117393Y25857D01*
X117501Y25865D01*
X117559D01*
X117592Y25857D01*
D02*
G37*
G36*
X120642Y21000D02*
X117526D01*
X117601Y21008D01*
X117684D01*
X117784Y21017D01*
X117901Y21025D01*
X118026Y21042D01*
X118301Y21083D01*
X118584Y21133D01*
X118867Y21217D01*
X119000Y21267D01*
X119134Y21325D01*
X119142D01*
X119167Y21342D01*
X119200Y21358D01*
X119242Y21383D01*
X119300Y21425D01*
X119367Y21467D01*
X119525Y21575D01*
X119608Y21641D01*
X119700Y21716D01*
X119783Y21808D01*
X119875Y21900D01*
X119967Y22000D01*
X120058Y22108D01*
X120142Y22233D01*
X120225Y22358D01*
X120233Y22366D01*
X120242Y22391D01*
X120267Y22433D01*
X120292Y22483D01*
X120325Y22558D01*
X120358Y22641D01*
X120392Y22741D01*
X120433Y22850D01*
X120475Y22975D01*
X120508Y23108D01*
X120542Y23258D01*
X120575Y23416D01*
X120600Y23583D01*
X120625Y23758D01*
X120633Y23949D01*
X120642Y24141D01*
Y21000D01*
D02*
G37*
%LPC*%
G36*
X210583Y27298D02*
X205555D01*
X208046D01*
X208013Y27294D01*
X207975D01*
X207929Y27290D01*
X207884D01*
X207834Y27286D01*
X207721Y27273D01*
X207596Y27261D01*
X207463Y27244D01*
X207325Y27219D01*
X207180Y27190D01*
X207038Y27153D01*
X206896Y27111D01*
X206759Y27061D01*
X206630Y26998D01*
X206509Y26932D01*
X206401Y26853D01*
X206397Y26848D01*
X206376Y26832D01*
X206351Y26807D01*
X206317Y26774D01*
X206276Y26728D01*
X206230Y26678D01*
X206184Y26615D01*
X206134Y26544D01*
X206084Y26469D01*
X206034Y26382D01*
X205993Y26290D01*
X205951Y26190D01*
X205917Y26086D01*
X205888Y25974D01*
X205872Y25857D01*
X205868Y25732D01*
Y25728D01*
Y25715D01*
Y25695D01*
X205872Y25666D01*
X205876Y25632D01*
X205880Y25591D01*
X205884Y25545D01*
X205893Y25495D01*
X205922Y25382D01*
X205959Y25261D01*
X205984Y25199D01*
X206013Y25141D01*
X206047Y25078D01*
X206084Y25016D01*
X206088Y25011D01*
X206092Y25003D01*
X206105Y24987D01*
X206126Y24962D01*
X206147Y24936D01*
X206176Y24903D01*
X206209Y24866D01*
X206247Y24828D01*
X206292Y24787D01*
X206338Y24741D01*
X206392Y24695D01*
X206451Y24645D01*
X206513Y24599D01*
X206584Y24549D01*
X206659Y24503D01*
X206738Y24457D01*
X206734D01*
X206721Y24453D01*
X206705Y24449D01*
X206680Y24441D01*
X206651Y24432D01*
X206617Y24424D01*
X206538Y24399D01*
X206451Y24370D01*
X206359Y24337D01*
X206272Y24295D01*
X206197Y24253D01*
X206192D01*
X206184Y24245D01*
X206168Y24232D01*
X206147Y24220D01*
X206122Y24199D01*
X206092Y24178D01*
X206022Y24120D01*
X205947Y24049D01*
X205868Y23966D01*
X205793Y23870D01*
X205726Y23762D01*
Y23758D01*
X205718Y23749D01*
X205709Y23733D01*
X205701Y23708D01*
X205684Y23679D01*
X205672Y23645D01*
X205655Y23603D01*
X205638Y23558D01*
X205626Y23508D01*
X205609Y23449D01*
X205593Y23391D01*
X205580Y23324D01*
X205563Y23187D01*
X205555Y23033D01*
Y23045D01*
Y21000D01*
Y22979D01*
X205559Y22941D01*
X205563Y22895D01*
X205572Y22837D01*
X205580Y22775D01*
X205588Y22704D01*
X205605Y22629D01*
X205622Y22550D01*
X205647Y22466D01*
X205672Y22379D01*
X205705Y22287D01*
X205743Y22195D01*
X205784Y22104D01*
X205834Y22012D01*
X205838Y22008D01*
X205847Y21991D01*
X205863Y21966D01*
X205884Y21933D01*
X205913Y21891D01*
X205951Y21846D01*
X205993Y21791D01*
X206038Y21737D01*
X206092Y21675D01*
X206155Y21616D01*
X206217Y21554D01*
X206292Y21491D01*
X206367Y21429D01*
X206451Y21371D01*
X206542Y21312D01*
X206638Y21262D01*
X206642Y21258D01*
X206663Y21250D01*
X206692Y21237D01*
X206734Y21221D01*
X206784Y21200D01*
X206846Y21179D01*
X206921Y21154D01*
X207005Y21133D01*
X207101Y21108D01*
X207201Y21083D01*
X207317Y21063D01*
X207438Y21042D01*
X207567Y21025D01*
X207709Y21012D01*
X207854Y21004D01*
X208013Y21000D01*
X208092D01*
X208150Y21004D01*
X208221D01*
X208300Y21008D01*
X208392Y21017D01*
X208488Y21025D01*
X208588Y21033D01*
X208696Y21046D01*
X208913Y21079D01*
X209021Y21104D01*
X209125Y21129D01*
X209225Y21158D01*
X209321Y21192D01*
X209325Y21196D01*
X209342Y21200D01*
X209367Y21212D01*
X209400Y21229D01*
X209442Y21250D01*
X209487Y21275D01*
X209542Y21304D01*
X209600Y21337D01*
X209662Y21375D01*
X209725Y21416D01*
X209792Y21462D01*
X209858Y21516D01*
X209925Y21571D01*
X209987Y21629D01*
X210050Y21696D01*
X210112Y21762D01*
X210116Y21767D01*
X210125Y21779D01*
X210141Y21800D01*
X210162Y21829D01*
X210187Y21866D01*
X210216Y21912D01*
X210250Y21966D01*
X210287Y22025D01*
X210325Y22087D01*
X210362Y22162D01*
X210400Y22237D01*
X210441Y22325D01*
X210479Y22412D01*
X210516Y22508D01*
X210550Y22608D01*
X210583Y22712D01*
X208892Y22937D01*
Y22933D01*
X208888Y22916D01*
X208883Y22887D01*
X208875Y22854D01*
X208863Y22812D01*
X208850Y22766D01*
X208833Y22712D01*
X208817Y22658D01*
X208775Y22537D01*
X208721Y22420D01*
X208692Y22366D01*
X208659Y22312D01*
X208625Y22266D01*
X208588Y22225D01*
X208584D01*
X208579Y22216D01*
X208567Y22208D01*
X208550Y22195D01*
X208529Y22179D01*
X208504Y22162D01*
X208442Y22129D01*
X208363Y22091D01*
X208271Y22058D01*
X208171Y22037D01*
X208113Y22033D01*
X208055Y22029D01*
X208021D01*
X207996Y22033D01*
X207967Y22037D01*
X207934Y22041D01*
X207854Y22058D01*
X207767Y22087D01*
X207717Y22108D01*
X207671Y22133D01*
X207625Y22162D01*
X207575Y22195D01*
X207530Y22233D01*
X207488Y22275D01*
X207484Y22279D01*
X207480Y22287D01*
X207467Y22300D01*
X207451Y22320D01*
X207434Y22345D01*
X207417Y22375D01*
X207396Y22412D01*
X207371Y22454D01*
X207351Y22495D01*
X207330Y22545D01*
X207313Y22604D01*
X207296Y22662D01*
X207280Y22724D01*
X207267Y22791D01*
X207263Y22866D01*
X207259Y22941D01*
Y22945D01*
Y22962D01*
Y22983D01*
X207263Y23012D01*
X207267Y23045D01*
X207271Y23087D01*
X207276Y23133D01*
X207288Y23183D01*
X207313Y23287D01*
X207351Y23399D01*
X207376Y23454D01*
X207405Y23503D01*
X207442Y23554D01*
X207480Y23599D01*
X207484Y23603D01*
X207488Y23608D01*
X207500Y23620D01*
X207517Y23637D01*
X207542Y23654D01*
X207567Y23674D01*
X207600Y23695D01*
X207634Y23716D01*
X207675Y23737D01*
X207717Y23758D01*
X207817Y23795D01*
X207934Y23824D01*
X208000Y23828D01*
X208067Y23833D01*
X208104D01*
X208125Y23828D01*
X208150D01*
X208175Y23824D01*
X208209Y23820D01*
X208288Y23808D01*
X208379Y23791D01*
X208492Y23766D01*
X208613Y23733D01*
X208529Y24941D01*
X208521D01*
X208504Y24936D01*
X208479Y24932D01*
X208450D01*
X208375Y24924D01*
X208342Y24920D01*
X208275D01*
X208254Y24924D01*
X208225Y24928D01*
X208192Y24932D01*
X208117Y24945D01*
X208029Y24970D01*
X207938Y25011D01*
X207892Y25032D01*
X207846Y25061D01*
X207800Y25095D01*
X207759Y25132D01*
X207755Y25136D01*
X207750Y25141D01*
X207738Y25153D01*
X207725Y25170D01*
X207705Y25191D01*
X207688Y25216D01*
X207646Y25274D01*
X207605Y25349D01*
X207567Y25436D01*
X207542Y25532D01*
X207538Y25582D01*
X207534Y25636D01*
Y25640D01*
Y25649D01*
Y25661D01*
X207538Y25682D01*
Y25707D01*
X207542Y25732D01*
X207555Y25799D01*
X207575Y25870D01*
X207605Y25940D01*
X207646Y26015D01*
X207700Y26082D01*
X207709Y26090D01*
X207730Y26107D01*
X207767Y26136D01*
X207821Y26165D01*
X207884Y26195D01*
X207963Y26224D01*
X208055Y26240D01*
X208159Y26249D01*
X208188D01*
X208209Y26244D01*
X208234D01*
X208263Y26240D01*
X208329Y26228D01*
X208404Y26203D01*
X208488Y26170D01*
X208567Y26128D01*
X208604Y26099D01*
X208642Y26065D01*
X208650Y26057D01*
X208659Y26044D01*
X208671Y26032D01*
X208688Y26011D01*
X208704Y25986D01*
X208725Y25953D01*
X208742Y25920D01*
X208763Y25878D01*
X208783Y25832D01*
X208804Y25782D01*
X208825Y25724D01*
X208846Y25661D01*
X208863Y25591D01*
X208879Y25515D01*
X208892Y25432D01*
X210491Y25720D01*
Y25724D01*
X210487Y25728D01*
X210483Y25753D01*
X210471Y25795D01*
X210450Y25845D01*
X210429Y25907D01*
X210400Y25982D01*
X210362Y26065D01*
X210321Y26153D01*
X210275Y26244D01*
X210221Y26340D01*
X210158Y26436D01*
X210087Y26536D01*
X210008Y26632D01*
X209925Y26723D01*
X209829Y26811D01*
X209729Y26890D01*
X209721Y26894D01*
X209704Y26907D01*
X209671Y26928D01*
X209625Y26953D01*
X209567Y26986D01*
X209496Y27019D01*
X209412Y27057D01*
X209317Y27094D01*
X209208Y27132D01*
X209088Y27169D01*
X208958Y27203D01*
X208813Y27236D01*
X208659Y27261D01*
X208492Y27282D01*
X208313Y27294D01*
X208125Y27298D01*
X210583D01*
D01*
D02*
G37*
G36*
X233481Y27194D02*
X229470D01*
Y25845D01*
X232186D01*
X232336Y24928D01*
X232332D01*
X232323Y24932D01*
X232307Y24941D01*
X232286Y24949D01*
X232261Y24962D01*
X232232Y24974D01*
X232161Y25003D01*
X232073Y25036D01*
X231982Y25070D01*
X231882Y25099D01*
X231778Y25128D01*
X231773D01*
X231765Y25132D01*
X231748Y25136D01*
X231728Y25141D01*
X231703Y25145D01*
X231673Y25149D01*
X231603Y25161D01*
X231523Y25174D01*
X231428Y25186D01*
X231332Y25191D01*
X231232Y25195D01*
X231169D01*
X231144Y25191D01*
X231078Y25186D01*
X231003Y25178D01*
X230911Y25166D01*
X230811Y25149D01*
X230703Y25124D01*
X230586Y25095D01*
X230465Y25061D01*
X230345Y25016D01*
X230220Y24962D01*
X230095Y24899D01*
X229974Y24824D01*
X229857Y24736D01*
X229749Y24641D01*
X229741Y24632D01*
X229724Y24616D01*
X229695Y24582D01*
X229661Y24541D01*
X229616Y24487D01*
X229570Y24420D01*
X229516Y24345D01*
X229461Y24258D01*
X229412Y24162D01*
X229357Y24058D01*
X229312Y23945D01*
X229266Y23820D01*
X229232Y23687D01*
X229203Y23549D01*
X229187Y23403D01*
X229178Y23249D01*
Y23191D01*
X229182Y23149D01*
X229187Y23095D01*
X229195Y23033D01*
X229203Y22962D01*
X229216Y22887D01*
X229232Y22799D01*
X229249Y22712D01*
X229274Y22616D01*
X229303Y22520D01*
X229336Y22420D01*
X229378Y22316D01*
X229420Y22216D01*
X229474Y22112D01*
X229478Y22108D01*
X229487Y22087D01*
X229503Y22062D01*
X229528Y22025D01*
X229557Y21979D01*
X229595Y21925D01*
X229636Y21866D01*
X229686Y21804D01*
X229741Y21741D01*
X229803Y21671D01*
X229874Y21604D01*
X229945Y21533D01*
X230028Y21467D01*
X230111Y21400D01*
X230203Y21342D01*
X230303Y21283D01*
X230307Y21279D01*
X230328Y21271D01*
X230357Y21258D01*
X230399Y21237D01*
X230453Y21217D01*
X230515Y21196D01*
X230590Y21167D01*
X230678Y21142D01*
X230770Y21117D01*
X230874Y21092D01*
X230990Y21067D01*
X231111Y21046D01*
X231240Y21025D01*
X231382Y21012D01*
X231528Y21004D01*
X231682Y21000D01*
X229178D01*
D01*
X234239D01*
D01*
X231782D01*
X231836Y21004D01*
X231894D01*
X231961Y21008D01*
X232036Y21012D01*
X232115Y21021D01*
X232198Y21029D01*
X232369Y21046D01*
X232544Y21075D01*
X232711Y21112D01*
X232715D01*
X232731Y21117D01*
X232752Y21125D01*
X232782Y21133D01*
X232819Y21146D01*
X232861Y21158D01*
X232911Y21179D01*
X232965Y21196D01*
X233077Y21246D01*
X233202Y21304D01*
X233323Y21371D01*
X233444Y21450D01*
X233448Y21454D01*
X233456Y21462D01*
X233473Y21475D01*
X233494Y21491D01*
X233519Y21512D01*
X233548Y21537D01*
X233619Y21600D01*
X233694Y21675D01*
X233777Y21767D01*
X233856Y21862D01*
X233931Y21966D01*
Y21971D01*
X233939Y21979D01*
X233948Y21996D01*
X233960Y22016D01*
X233977Y22046D01*
X233998Y22079D01*
X234019Y22120D01*
X234039Y22162D01*
X234065Y22212D01*
X234090Y22266D01*
X234114Y22325D01*
X234139Y22391D01*
X234165Y22458D01*
X234189Y22529D01*
X234239Y22683D01*
X232527Y22870D01*
Y22866D01*
X232523Y22854D01*
X232519Y22833D01*
X232515Y22804D01*
X232507Y22766D01*
X232498Y22729D01*
X232486Y22683D01*
X232469Y22637D01*
X232432Y22537D01*
X232382Y22433D01*
X232319Y22329D01*
X232282Y22283D01*
X232240Y22241D01*
X232236Y22237D01*
X232227Y22233D01*
X232215Y22220D01*
X232198Y22208D01*
X232178Y22191D01*
X232153Y22175D01*
X232086Y22137D01*
X232007Y22095D01*
X231915Y22062D01*
X231811Y22037D01*
X231757Y22033D01*
X231698Y22029D01*
X231665D01*
X231640Y22033D01*
X231611Y22037D01*
X231574Y22041D01*
X231494Y22062D01*
X231399Y22095D01*
X231353Y22116D01*
X231303Y22141D01*
X231253Y22171D01*
X231207Y22208D01*
X231161Y22250D01*
X231115Y22295D01*
X231111Y22300D01*
X231107Y22308D01*
X231094Y22325D01*
X231078Y22345D01*
X231061Y22375D01*
X231040Y22408D01*
X231019Y22450D01*
X230999Y22495D01*
X230978Y22550D01*
X230957Y22608D01*
X230936Y22675D01*
X230919Y22745D01*
X230903Y22824D01*
X230890Y22908D01*
X230886Y22999D01*
X230882Y23095D01*
Y23104D01*
Y23120D01*
Y23149D01*
X230886Y23183D01*
X230890Y23229D01*
X230895Y23283D01*
X230903Y23337D01*
X230911Y23399D01*
X230940Y23528D01*
X230982Y23662D01*
X231007Y23728D01*
X231036Y23787D01*
X231074Y23845D01*
X231115Y23895D01*
X231119Y23899D01*
X231128Y23908D01*
X231140Y23920D01*
X231157Y23937D01*
X231182Y23953D01*
X231211Y23974D01*
X231244Y23999D01*
X231282Y24024D01*
X231324Y24045D01*
X231369Y24070D01*
X231419Y24091D01*
X231474Y24112D01*
X231536Y24124D01*
X231598Y24137D01*
X231665Y24145D01*
X231736Y24149D01*
X231778D01*
X231798Y24145D01*
X231823D01*
X231886Y24132D01*
X231957Y24120D01*
X232036Y24099D01*
X232119Y24070D01*
X232207Y24028D01*
X232215Y24024D01*
X232236Y24012D01*
X232273Y23987D01*
X232319Y23958D01*
X232373Y23912D01*
X232436Y23858D01*
X232507Y23791D01*
X232582Y23712D01*
X234019Y23920D01*
X233481Y27194D01*
D02*
G37*
G36*
X216515Y27298D02*
X216457D01*
X216411Y27294D01*
X216361D01*
X216298Y27290D01*
X216231Y27286D01*
X216157Y27278D01*
X216077Y27269D01*
X215998Y27261D01*
X215828Y27232D01*
X215661Y27194D01*
X215582Y27173D01*
X215507Y27144D01*
X215503D01*
X215490Y27136D01*
X215469Y27128D01*
X215440Y27115D01*
X215407Y27103D01*
X215369Y27086D01*
X215323Y27061D01*
X215278Y27040D01*
X215173Y26982D01*
X215065Y26915D01*
X214961Y26836D01*
X214861Y26748D01*
X214857Y26744D01*
X214849Y26736D01*
X214836Y26723D01*
X214819Y26707D01*
X214799Y26686D01*
X214774Y26657D01*
X214719Y26594D01*
X214657Y26519D01*
X214590Y26432D01*
X214528Y26336D01*
X214470Y26236D01*
Y26232D01*
X214461Y26224D01*
X214457Y26211D01*
X214445Y26190D01*
X214432Y26165D01*
X214419Y26132D01*
X214403Y26099D01*
X214386Y26057D01*
X214349Y25970D01*
X214311Y25861D01*
X214270Y25745D01*
X214236Y25615D01*
Y25607D01*
X214228Y25586D01*
X214220Y25549D01*
X214211Y25499D01*
X214195Y25436D01*
X214182Y25361D01*
X214165Y25274D01*
X214149Y25182D01*
X214136Y25078D01*
X214120Y24966D01*
X214103Y24849D01*
X214090Y24728D01*
X214082Y24599D01*
X214074Y24466D01*
X214065Y24191D01*
Y24199D01*
Y21000D01*
Y24078D01*
X214070Y24032D01*
Y23978D01*
X214074Y23920D01*
X214078Y23853D01*
X214082Y23783D01*
X214086Y23708D01*
X214095Y23628D01*
X214111Y23454D01*
X214136Y23266D01*
X214165Y23075D01*
X214203Y22870D01*
X214249Y22670D01*
X214303Y22470D01*
X214365Y22275D01*
X214440Y22091D01*
X214482Y22004D01*
X214528Y21921D01*
X214578Y21841D01*
X214628Y21767D01*
X214636Y21758D01*
X214653Y21733D01*
X214690Y21696D01*
X214736Y21646D01*
X214799Y21587D01*
X214878Y21525D01*
X214969Y21454D01*
X215078Y21383D01*
X215203Y21312D01*
X215273Y21275D01*
X215344Y21242D01*
X215423Y21208D01*
X215503Y21179D01*
X215590Y21150D01*
X215678Y21121D01*
X215773Y21096D01*
X215869Y21071D01*
X215973Y21050D01*
X216082Y21033D01*
X216194Y21021D01*
X216311Y21008D01*
X216432Y21004D01*
X216556Y21000D01*
X214065D01*
X219039D01*
Y24245D01*
X219035Y24287D01*
Y24337D01*
X219031Y24391D01*
Y24453D01*
X219027Y24520D01*
X219018Y24595D01*
X219014Y24674D01*
X219006Y24757D01*
X218985Y24936D01*
X218960Y25124D01*
X218927Y25324D01*
X218885Y25528D01*
X218835Y25732D01*
X218777Y25928D01*
X218706Y26119D01*
X218618Y26299D01*
X218573Y26382D01*
X218523Y26461D01*
X218473Y26536D01*
X218414Y26603D01*
X218406Y26611D01*
X218385Y26632D01*
X218348Y26665D01*
X218298Y26711D01*
X218231Y26765D01*
X218148Y26823D01*
X218052Y26886D01*
X217944Y26953D01*
X217819Y27015D01*
X217677Y27078D01*
X217519Y27136D01*
X217348Y27190D01*
X217165Y27236D01*
X216961Y27269D01*
X216748Y27290D01*
X216515Y27298D01*
D02*
G37*
G36*
X204860D02*
X199886D01*
D01*
X202277D01*
X202231Y27294D01*
X202181D01*
X202118Y27290D01*
X202052Y27286D01*
X201977Y27278D01*
X201898Y27269D01*
X201819Y27261D01*
X201648Y27232D01*
X201481Y27194D01*
X201402Y27173D01*
X201327Y27144D01*
X201323D01*
X201310Y27136D01*
X201290Y27128D01*
X201260Y27115D01*
X201227Y27103D01*
X201190Y27086D01*
X201144Y27061D01*
X201098Y27040D01*
X200994Y26982D01*
X200886Y26915D01*
X200781Y26836D01*
X200681Y26748D01*
X200677Y26744D01*
X200669Y26736D01*
X200656Y26723D01*
X200640Y26707D01*
X200619Y26686D01*
X200594Y26657D01*
X200540Y26594D01*
X200477Y26519D01*
X200411Y26432D01*
X200348Y26336D01*
X200290Y26236D01*
Y26232D01*
X200282Y26224D01*
X200277Y26211D01*
X200265Y26190D01*
X200252Y26165D01*
X200240Y26132D01*
X200223Y26099D01*
X200207Y26057D01*
X200169Y25970D01*
X200131Y25861D01*
X200090Y25745D01*
X200056Y25615D01*
Y25607D01*
X200048Y25586D01*
X200040Y25549D01*
X200032Y25499D01*
X200015Y25436D01*
X200002Y25361D01*
X199986Y25274D01*
X199969Y25182D01*
X199956Y25078D01*
X199940Y24966D01*
X199923Y24849D01*
X199911Y24728D01*
X199902Y24599D01*
X199894Y24466D01*
X199886Y24191D01*
D01*
D01*
Y21000D01*
Y24078D01*
X199890Y24032D01*
Y23978D01*
X199894Y23920D01*
X199898Y23853D01*
X199902Y23783D01*
X199907Y23708D01*
X199915Y23628D01*
X199932Y23454D01*
X199956Y23266D01*
X199986Y23075D01*
X200023Y22870D01*
X200069Y22670D01*
X200123Y22470D01*
X200186Y22275D01*
X200261Y22091D01*
X200302Y22004D01*
X200348Y21921D01*
X200398Y21841D01*
X200448Y21767D01*
X200456Y21758D01*
X200473Y21733D01*
X200511Y21696D01*
X200556Y21646D01*
X200619Y21587D01*
X200698Y21525D01*
X200790Y21454D01*
X200898Y21383D01*
X201023Y21312D01*
X201094Y21275D01*
X201165Y21242D01*
X201244Y21208D01*
X201323Y21179D01*
X201410Y21150D01*
X201498Y21121D01*
X201594Y21096D01*
X201689Y21071D01*
X201794Y21050D01*
X201902Y21033D01*
X202014Y21021D01*
X202131Y21008D01*
X202252Y21004D01*
X202377Y21000D01*
X202452D01*
X202506Y21004D01*
X202568Y21008D01*
X202647Y21012D01*
X202731Y21021D01*
X202822Y21029D01*
X202918Y21042D01*
X203018Y21058D01*
X203122Y21079D01*
X203227Y21104D01*
X203331Y21129D01*
X203431Y21162D01*
X203531Y21200D01*
X203622Y21242D01*
X203626Y21246D01*
X203643Y21254D01*
X203668Y21267D01*
X203701Y21287D01*
X203739Y21312D01*
X203789Y21346D01*
X203839Y21383D01*
X203897Y21425D01*
X203955Y21471D01*
X204018Y21525D01*
X204081Y21583D01*
X204147Y21650D01*
X204214Y21721D01*
X204276Y21796D01*
X204339Y21875D01*
X204397Y21962D01*
X204401Y21966D01*
X204405Y21979D01*
X204418Y21996D01*
X204435Y22025D01*
X204451Y22058D01*
X204472Y22100D01*
X204497Y22150D01*
X204522Y22204D01*
X204551Y22266D01*
X204576Y22337D01*
X204605Y22412D01*
X204634Y22491D01*
X204664Y22583D01*
X204689Y22675D01*
X204714Y22775D01*
X204739Y22883D01*
Y22891D01*
X204743Y22908D01*
X204751Y22941D01*
X204755Y22987D01*
X204768Y23041D01*
X204776Y23104D01*
X204789Y23179D01*
X204797Y23262D01*
X204809Y23354D01*
X204822Y23454D01*
X204830Y23558D01*
X204839Y23670D01*
X204847Y23791D01*
X204855Y23912D01*
X204860Y24041D01*
Y21312D01*
Y24245D01*
X204855Y24287D01*
Y24337D01*
X204851Y24391D01*
Y24453D01*
X204847Y24520D01*
X204839Y24595D01*
X204834Y24674D01*
X204826Y24757D01*
X204805Y24936D01*
X204780Y25124D01*
X204747Y25324D01*
X204705Y25528D01*
X204655Y25732D01*
X204597Y25928D01*
X204526Y26119D01*
X204439Y26299D01*
X204393Y26382D01*
X204343Y26461D01*
X204293Y26536D01*
X204235Y26603D01*
X204226Y26611D01*
X204205Y26632D01*
X204168Y26665D01*
X204118Y26711D01*
X204051Y26765D01*
X203968Y26823D01*
X203872Y26886D01*
X203764Y26953D01*
X203639Y27015D01*
X203497Y27078D01*
X203339Y27136D01*
X203168Y27190D01*
X202985Y27236D01*
X202781Y27269D01*
X202568Y27290D01*
X202335Y27298D01*
X204860D01*
D01*
D02*
G37*
G36*
X183940Y27194D02*
X178787D01*
X177845Y23795D01*
X177200Y27194D01*
X177987D01*
X175421D01*
X176767Y21104D01*
X175421D01*
X178612D01*
X179678Y24936D01*
X180741Y21104D01*
X183940D01*
X182586D01*
X183940Y27194D01*
D02*
G37*
G36*
X239671Y25515D02*
X237864D01*
Y22908D01*
Y23820D01*
X239671D01*
Y23762D01*
Y25515D01*
D02*
G37*
G36*
X228824Y27194D02*
X226858D01*
X225487Y22808D01*
X224138Y27194D01*
X222226D01*
X224488Y21104D01*
X222226D01*
X228824D01*
D01*
X226525D01*
X228824Y27194D01*
D02*
G37*
G36*
X258000D02*
X253185D01*
D01*
X256117D01*
Y22604D01*
X253185D01*
D01*
Y21104D01*
X258000D01*
Y27194D01*
D02*
G37*
G36*
X252931D02*
X246332D01*
D01*
X248594Y21104D01*
X250631D01*
X252931Y27194D01*
D02*
G37*
G36*
X245716D02*
X240550D01*
X242521D01*
X242496Y27190D01*
X242462D01*
X242425Y27186D01*
X242337Y27178D01*
X242242Y27169D01*
X242133Y27153D01*
X242017Y27132D01*
X241896Y27107D01*
X241771Y27073D01*
X241642Y27036D01*
X241517Y26990D01*
X241392Y26932D01*
X241275Y26869D01*
X241163Y26794D01*
X241063Y26707D01*
X241059Y26703D01*
X241042Y26686D01*
X241017Y26657D01*
X240984Y26615D01*
X240942Y26565D01*
X240900Y26507D01*
X240854Y26432D01*
X240804Y26353D01*
X240759Y26257D01*
X240713Y26157D01*
X240667Y26040D01*
X240630Y25920D01*
X240596Y25786D01*
X240571Y25640D01*
X240555Y25486D01*
X240550Y25324D01*
Y25261D01*
X240555Y25236D01*
X240559Y25174D01*
X240567Y25095D01*
X240579Y25007D01*
X240596Y24907D01*
X240621Y24799D01*
X240650Y24687D01*
X240684Y24566D01*
X240729Y24449D01*
X240784Y24328D01*
X240846Y24207D01*
X240921Y24095D01*
X241008Y23987D01*
X241104Y23883D01*
X241113Y23878D01*
X241129Y23862D01*
X241163Y23837D01*
X241208Y23803D01*
X241267Y23762D01*
X241338Y23720D01*
X241425Y23674D01*
X241525Y23624D01*
X241633Y23574D01*
X241763Y23528D01*
X241900Y23487D01*
X242050Y23445D01*
X242217Y23412D01*
X242396Y23387D01*
X242587Y23370D01*
X242796Y23366D01*
X243825D01*
Y21104D01*
X245716D01*
Y27194D01*
D02*
G37*
G36*
X239671Y22799D02*
X237864D01*
Y21104D01*
X239671D01*
Y22799D01*
D02*
G37*
G36*
X213199D02*
X211391D01*
Y21104D01*
X213199D01*
Y22799D01*
D02*
G37*
G36*
X199527Y27194D02*
X195183D01*
X192900Y21104D01*
X194870D01*
X195174Y22108D01*
X197311D01*
X197607Y21104D01*
X199527D01*
X197241Y27194D01*
X199527D01*
D02*
G37*
G36*
X189463D02*
X184298Y27194D01*
D01*
X186268Y27194D01*
X186243Y27190D01*
X186210D01*
X186173Y27186D01*
X186085Y27178D01*
X185989Y27169D01*
X185881Y27153D01*
X185764Y27132D01*
X185644Y27107D01*
X185519Y27073D01*
X185389Y27036D01*
X185264Y26990D01*
X185140Y26932D01*
X185023Y26869D01*
X184910Y26794D01*
X184810Y26707D01*
X184806Y26703D01*
X184790Y26686D01*
X184765Y26657D01*
X184731Y26615D01*
X184690Y26565D01*
X184648Y26507D01*
X184602Y26432D01*
X184552Y26353D01*
X184506Y26257D01*
X184461Y26157D01*
X184415Y26040D01*
X184377Y25919D01*
X184344Y25786D01*
X184319Y25640D01*
X184302Y25486D01*
X184298Y25324D01*
Y25261D01*
X184302Y25236D01*
X184306Y25174D01*
X184315Y25095D01*
X184327Y25007D01*
X184344Y24907D01*
X184369Y24799D01*
X184398Y24687D01*
X184431Y24566D01*
X184477Y24449D01*
X184531Y24328D01*
X184594Y24207D01*
X184669Y24095D01*
X184756Y23987D01*
X184852Y23883D01*
X184860Y23878D01*
X184877Y23862D01*
X184910Y23837D01*
X184956Y23803D01*
X185014Y23762D01*
X185085Y23720D01*
X185173Y23674D01*
X185273Y23624D01*
X185381Y23574D01*
X185510Y23528D01*
X185648Y23487D01*
X185798Y23445D01*
X185964Y23412D01*
X186143Y23387D01*
X186335Y23370D01*
X186543Y23366D01*
X187572D01*
Y21104D01*
X189463D01*
Y27194D01*
D02*
G37*
G36*
X174825Y27194D02*
X167981D01*
Y21104D01*
X169523D01*
Y25745D01*
X170710Y21104D01*
X170680D01*
X172105D01*
X173284Y25745D01*
Y21104D01*
X173098D01*
X174825D01*
Y27194D01*
D02*
G37*
%LPD*%
G36*
X216611Y26170D02*
X216636Y26165D01*
X216673Y26161D01*
X216711Y26153D01*
X216756Y26136D01*
X216802Y26119D01*
X216852Y26099D01*
X216902Y26070D01*
X216952Y26036D01*
X217002Y25995D01*
X217052Y25945D01*
X217098Y25886D01*
X217140Y25820D01*
X217177Y25745D01*
Y25740D01*
X217185Y25724D01*
X217194Y25699D01*
X217206Y25661D01*
X217219Y25611D01*
X217236Y25549D01*
X217252Y25474D01*
X217269Y25391D01*
X217285Y25286D01*
X217302Y25174D01*
X217319Y25045D01*
X217331Y24903D01*
X217344Y24741D01*
X217352Y24570D01*
X217356Y24378D01*
X217360Y24274D01*
Y24170D01*
Y24166D01*
Y24158D01*
Y24141D01*
Y24120D01*
Y24091D01*
Y24062D01*
X217356Y24024D01*
Y23983D01*
X217352Y23887D01*
X217348Y23778D01*
X217344Y23662D01*
X217335Y23533D01*
X217323Y23403D01*
X217310Y23270D01*
X217294Y23137D01*
X217273Y23008D01*
X217252Y22883D01*
X217223Y22770D01*
X217194Y22666D01*
X217173Y22620D01*
X217156Y22579D01*
X217152Y22575D01*
X217148Y22562D01*
X217136Y22541D01*
X217119Y22512D01*
X217098Y22479D01*
X217073Y22445D01*
X217040Y22408D01*
X217006Y22366D01*
X216965Y22329D01*
X216923Y22287D01*
X216873Y22254D01*
X216819Y22220D01*
X216761Y22191D01*
X216698Y22171D01*
X216631Y22158D01*
X216561Y22154D01*
X216536D01*
X216519Y22158D01*
X216469Y22162D01*
X216411Y22175D01*
X216340Y22200D01*
X216269Y22229D01*
X216190Y22275D01*
X216157Y22300D01*
X216119Y22333D01*
X216115Y22337D01*
X216111Y22341D01*
X216102Y22354D01*
X216086Y22366D01*
X216073Y22387D01*
X216052Y22412D01*
X216036Y22437D01*
X216011Y22470D01*
X215990Y22508D01*
X215965Y22550D01*
X215944Y22600D01*
X215919Y22650D01*
X215898Y22704D01*
X215877Y22766D01*
X215857Y22833D01*
X215840Y22904D01*
Y22908D01*
X215836Y22920D01*
X215832Y22945D01*
X215828Y22979D01*
X215819Y23020D01*
X215811Y23070D01*
X215802Y23133D01*
X215794Y23204D01*
X215786Y23283D01*
X215777Y23374D01*
X215769Y23474D01*
X215761Y23583D01*
X215757Y23703D01*
X215753Y23833D01*
X215748Y23974D01*
Y24124D01*
Y24128D01*
Y24137D01*
Y24153D01*
Y24178D01*
Y24207D01*
Y24241D01*
Y24278D01*
X215753Y24320D01*
Y24420D01*
X215761Y24528D01*
X215765Y24653D01*
X215773Y24782D01*
X215786Y24916D01*
X215798Y25053D01*
X215815Y25191D01*
X215836Y25324D01*
X215861Y25449D01*
X215886Y25566D01*
X215919Y25666D01*
X215936Y25711D01*
X215957Y25753D01*
X215961Y25757D01*
X215965Y25770D01*
X215977Y25790D01*
X215994Y25820D01*
X216015Y25849D01*
X216044Y25886D01*
X216073Y25924D01*
X216111Y25965D01*
X216148Y26003D01*
X216194Y26040D01*
X216244Y26078D01*
X216302Y26107D01*
X216361Y26136D01*
X216427Y26157D01*
X216494Y26170D01*
X216569Y26174D01*
X216586D01*
X216611Y26170D01*
D02*
G37*
G36*
X219039Y21000D02*
X216631D01*
X216686Y21004D01*
X216748Y21008D01*
X216827Y21012D01*
X216910Y21021D01*
X217002Y21029D01*
X217098Y21042D01*
X217198Y21058D01*
X217302Y21079D01*
X217406Y21104D01*
X217510Y21129D01*
X217610Y21162D01*
X217710Y21200D01*
X217802Y21242D01*
X217806Y21246D01*
X217823Y21254D01*
X217848Y21267D01*
X217881Y21287D01*
X217919Y21312D01*
X217969Y21346D01*
X218019Y21383D01*
X218077Y21425D01*
X218135Y21471D01*
X218198Y21525D01*
X218260Y21583D01*
X218327Y21650D01*
X218393Y21721D01*
X218456Y21796D01*
X218519Y21875D01*
X218577Y21962D01*
X218581Y21966D01*
X218585Y21979D01*
X218598Y21996D01*
X218614Y22025D01*
X218631Y22058D01*
X218652Y22100D01*
X218677Y22150D01*
X218702Y22204D01*
X218731Y22266D01*
X218756Y22337D01*
X218785Y22412D01*
X218814Y22491D01*
X218843Y22583D01*
X218868Y22675D01*
X218893Y22775D01*
X218918Y22883D01*
Y22891D01*
X218923Y22908D01*
X218931Y22941D01*
X218935Y22987D01*
X218948Y23041D01*
X218956Y23104D01*
X218968Y23179D01*
X218977Y23262D01*
X218989Y23354D01*
X219002Y23454D01*
X219010Y23558D01*
X219018Y23670D01*
X219027Y23791D01*
X219035Y23912D01*
X219039Y24041D01*
Y21000D01*
D02*
G37*
G36*
X202431Y26170D02*
X202456Y26165D01*
X202493Y26161D01*
X202531Y26153D01*
X202577Y26136D01*
X202623Y26119D01*
X202673Y26099D01*
X202722Y26070D01*
X202773Y26036D01*
X202822Y25995D01*
X202873Y25945D01*
X202918Y25886D01*
X202960Y25820D01*
X202997Y25745D01*
Y25740D01*
X203006Y25724D01*
X203014Y25699D01*
X203027Y25661D01*
X203039Y25611D01*
X203056Y25549D01*
X203072Y25474D01*
X203089Y25391D01*
X203106Y25286D01*
X203122Y25174D01*
X203139Y25045D01*
X203152Y24903D01*
X203164Y24741D01*
X203172Y24570D01*
X203177Y24378D01*
X203181Y24274D01*
Y24170D01*
Y24166D01*
Y24158D01*
Y24141D01*
Y24120D01*
Y24091D01*
Y24062D01*
X203177Y24024D01*
Y23983D01*
X203172Y23887D01*
X203168Y23778D01*
X203164Y23662D01*
X203156Y23533D01*
X203143Y23403D01*
X203131Y23270D01*
X203114Y23137D01*
X203093Y23008D01*
X203072Y22883D01*
X203043Y22770D01*
X203014Y22666D01*
X202993Y22620D01*
X202977Y22579D01*
X202972Y22575D01*
X202968Y22562D01*
X202956Y22541D01*
X202939Y22512D01*
X202918Y22479D01*
X202893Y22445D01*
X202860Y22408D01*
X202827Y22366D01*
X202785Y22329D01*
X202743Y22287D01*
X202693Y22254D01*
X202639Y22220D01*
X202581Y22191D01*
X202518Y22171D01*
X202452Y22158D01*
X202381Y22154D01*
X202356D01*
X202339Y22158D01*
X202289Y22162D01*
X202231Y22175D01*
X202160Y22200D01*
X202089Y22229D01*
X202010Y22275D01*
X201977Y22300D01*
X201939Y22333D01*
X201935Y22337D01*
X201931Y22341D01*
X201923Y22354D01*
X201906Y22366D01*
X201894Y22387D01*
X201873Y22412D01*
X201856Y22437D01*
X201831Y22470D01*
X201810Y22508D01*
X201785Y22550D01*
X201764Y22600D01*
X201739Y22650D01*
X201719Y22704D01*
X201698Y22766D01*
X201677Y22833D01*
X201660Y22904D01*
Y22908D01*
X201656Y22920D01*
X201652Y22945D01*
X201648Y22979D01*
X201639Y23020D01*
X201631Y23070D01*
X201623Y23133D01*
X201614Y23204D01*
X201606Y23283D01*
X201598Y23374D01*
X201590Y23474D01*
X201581Y23583D01*
X201577Y23703D01*
X201573Y23833D01*
X201569Y23974D01*
Y24124D01*
Y24128D01*
Y24137D01*
Y24153D01*
Y24178D01*
Y24207D01*
Y24241D01*
Y24278D01*
X201573Y24320D01*
Y24420D01*
X201581Y24528D01*
X201585Y24653D01*
X201594Y24782D01*
X201606Y24916D01*
X201619Y25053D01*
X201635Y25191D01*
X201656Y25324D01*
X201681Y25449D01*
X201706Y25566D01*
X201739Y25666D01*
X201756Y25711D01*
X201777Y25753D01*
X201781Y25757D01*
X201785Y25770D01*
X201798Y25790D01*
X201814Y25820D01*
X201835Y25849D01*
X201864Y25886D01*
X201894Y25924D01*
X201931Y25965D01*
X201968Y26003D01*
X202014Y26040D01*
X202064Y26078D01*
X202123Y26107D01*
X202181Y26136D01*
X202248Y26157D01*
X202314Y26170D01*
X202389Y26174D01*
X202406D01*
X202431Y26170D01*
D02*
G37*
G36*
X181511Y23791D02*
X180570Y27194D01*
X182153D01*
X181511Y23791D01*
D02*
G37*
G36*
X249594Y22808D02*
X248244Y27194D01*
X250964D01*
X249594Y22808D01*
D02*
G37*
G36*
X243825Y24599D02*
X243316D01*
X243279Y24603D01*
X243233D01*
X243183Y24607D01*
X243129Y24616D01*
X243066Y24624D01*
X242941Y24645D01*
X242816Y24678D01*
X242758Y24699D01*
X242700Y24724D01*
X242650Y24753D01*
X242604Y24787D01*
X242600Y24791D01*
X242596Y24795D01*
X242571Y24820D01*
X242533Y24862D01*
X242491Y24916D01*
X242454Y24987D01*
X242416Y25070D01*
X242391Y25166D01*
X242387Y25216D01*
X242383Y25270D01*
Y25274D01*
Y25282D01*
Y25299D01*
X242387Y25320D01*
Y25340D01*
X242391Y25370D01*
X242408Y25440D01*
X242429Y25515D01*
X242462Y25599D01*
X242512Y25678D01*
X242542Y25720D01*
X242575Y25757D01*
X242579Y25761D01*
X242583Y25765D01*
X242596Y25774D01*
X242612Y25790D01*
X242633Y25803D01*
X242662Y25820D01*
X242696Y25840D01*
X242737Y25857D01*
X242783Y25878D01*
X242833Y25895D01*
X242891Y25911D01*
X242958Y25928D01*
X243029Y25940D01*
X243108Y25949D01*
X243195Y25953D01*
X243291Y25957D01*
X243825D01*
Y24599D01*
D02*
G37*
G36*
X196903Y23424D02*
X195566D01*
X196237Y25611D01*
X196903Y23424D01*
D02*
G37*
G36*
X187572Y24599D02*
X187064D01*
X187027Y24603D01*
X186981D01*
X186931Y24607D01*
X186877Y24616D01*
X186814Y24624D01*
X186689Y24645D01*
X186564Y24678D01*
X186506Y24699D01*
X186448Y24724D01*
X186397Y24753D01*
X186352Y24787D01*
X186348Y24791D01*
X186343Y24795D01*
X186318Y24820D01*
X186281Y24862D01*
X186239Y24916D01*
X186202Y24987D01*
X186164Y25070D01*
X186139Y25166D01*
X186135Y25216D01*
X186131Y25270D01*
Y25274D01*
Y25282D01*
Y25299D01*
X186135Y25320D01*
Y25340D01*
X186139Y25370D01*
X186156Y25440D01*
X186177Y25515D01*
X186210Y25599D01*
X186260Y25678D01*
X186289Y25720D01*
X186322Y25757D01*
X186327Y25761D01*
X186331Y25765D01*
X186343Y25774D01*
X186360Y25790D01*
X186381Y25803D01*
X186410Y25820D01*
X186443Y25840D01*
X186485Y25857D01*
X186531Y25878D01*
X186581Y25895D01*
X186639Y25911D01*
X186706Y25928D01*
X186777Y25940D01*
X186856Y25949D01*
X186943Y25953D01*
X187039Y25957D01*
X187572D01*
Y24599D01*
D02*
G37*
G36*
X171401Y23487D02*
X170456Y27194D01*
X172351D01*
X171401Y23487D01*
D02*
G37*
D11*
X-232125Y-361625D02*
G03*
X-232125Y-361625I-7000J0D01*
G01*
X133000Y-55000D02*
G03*
X133000Y-55000I-7000J0D01*
G01*
X73750D02*
G03*
X73750Y-55000I-7000J0D01*
G01*
X-37000Y-231000D02*
G03*
X-37000Y-231000I-7000J0D01*
G01*
X-139000D02*
G03*
X-139000Y-231000I-7000J0D01*
G01*
X-136250Y-156750D02*
G03*
X-136250Y-156750I-7000J0D01*
G01*
X-34750D02*
G03*
X-34750Y-156750I-7000J0D01*
G01*
X-241100Y-230900D02*
G03*
X-241100Y-230900I-7000J0D01*
G01*
X-238750Y-156750D02*
G03*
X-238750Y-156750I-7000J0D01*
G01*
X-203000Y-55000D02*
G03*
X-203000Y-55000I-7000J0D01*
G01*
X-164000D02*
G03*
X-164000Y-55000I-7000J0D01*
G01*
X-126000D02*
G03*
X-126000Y-55000I-7000J0D01*
G01*
D15*
X230750Y-209000D02*
X257000D01*
X230750Y-225000D02*
Y-209000D01*
Y-225000D02*
X257000D01*
Y-209000D01*
X-30000Y-165600D02*
X-14000D01*
Y-191850D02*
Y-165600D01*
X-30000Y-191850D02*
X-14000D01*
X-30000D02*
Y-165600D01*
Y-216000D02*
X-14000D01*
Y-242250D02*
Y-216000D01*
X-30000Y-242250D02*
X-14000D01*
X-30000D02*
Y-216000D01*
X-39000Y-117000D02*
X-23000D01*
Y-143250D02*
Y-117000D01*
X-39000Y-143250D02*
X-23000D01*
X-39000D02*
Y-117000D01*
X191000Y-153400D02*
X207000D01*
X191000D02*
Y-127150D01*
X207000D01*
Y-153400D02*
Y-127150D01*
X164000Y-127600D02*
X180000D01*
Y-153850D02*
Y-127600D01*
X164000Y-153850D02*
X180000D01*
X164000D02*
Y-127600D01*
D16*
X291310Y-276473D02*
X292976Y-274807D01*
X296308D01*
X297974Y-276473D01*
Y-283138D01*
X296308Y-284804D01*
X292976D01*
X291310Y-283138D01*
X287977Y-278139D02*
Y-283138D01*
X286311Y-284804D01*
X281313D01*
Y-278139D01*
X276315Y-276473D02*
Y-278139D01*
X277981D01*
X274648D01*
X276315D01*
Y-283138D01*
X274648Y-284804D01*
X252989Y-274807D02*
X256321D01*
X254655D01*
Y-283138D01*
X256321Y-284804D01*
X257987D01*
X259653Y-283138D01*
X242992Y-274807D02*
X246324Y-276473D01*
X249656Y-279806D01*
Y-283138D01*
X247990Y-284804D01*
X244658D01*
X242992Y-283138D01*
Y-281472D01*
X244658Y-279806D01*
X249656D01*
X227997Y-276473D02*
Y-278139D01*
X229663D01*
X226331D01*
X227997D01*
Y-283138D01*
X226331Y-284804D01*
X219666D02*
X216334D01*
X214668Y-283138D01*
Y-279806D01*
X216334Y-278139D01*
X219666D01*
X221332Y-279806D01*
Y-283138D01*
X219666Y-284804D01*
X194674Y-274807D02*
Y-284804D01*
X199673D01*
X201339Y-283138D01*
Y-279806D01*
X199673Y-278139D01*
X194674D01*
X191342Y-284804D02*
X188010D01*
X189676D01*
Y-278139D01*
X191342D01*
X183011Y-284804D02*
X178013D01*
X176347Y-283138D01*
X178013Y-281472D01*
X181345D01*
X183011Y-279806D01*
X181345Y-278139D01*
X176347D01*
X171348D02*
X168016D01*
X166350Y-279806D01*
Y-284804D01*
X171348D01*
X173015Y-283138D01*
X171348Y-281472D01*
X166350D01*
X163018Y-274807D02*
Y-284804D01*
X158019D01*
X156353Y-283138D01*
Y-281472D01*
Y-279806D01*
X158019Y-278139D01*
X163018D01*
X153021Y-284804D02*
X149689D01*
X151355D01*
Y-274807D01*
X153021D01*
X139692Y-284804D02*
X143024D01*
X144690Y-283138D01*
Y-279806D01*
X143024Y-278139D01*
X139692D01*
X138026Y-279806D01*
Y-281472D01*
X144690D01*
X251323Y-304000D02*
Y-294003D01*
X246324D01*
X244658Y-295669D01*
Y-299002D01*
X246324Y-300668D01*
X251323D01*
X241326Y-294003D02*
Y-304000D01*
X237994Y-300668D01*
X234661Y-304000D01*
Y-294003D01*
X231329Y-304000D02*
Y-294003D01*
X226331D01*
X224664Y-295669D01*
Y-299002D01*
X226331Y-300668D01*
X231329D01*
X227997D02*
X224664Y-304000D01*
X211336Y-294003D02*
Y-304000D01*
X204671D01*
X194674Y-294003D02*
X201339D01*
Y-304000D01*
X194674D01*
X201339Y-299002D02*
X198006D01*
X191342Y-294003D02*
Y-304000D01*
X186343D01*
X184677Y-302334D01*
Y-295669D01*
X186343Y-294003D01*
X191342D01*
X-11000Y-533671D02*
Y-543668D01*
X-15998D01*
X-17665Y-542002D01*
Y-535337D01*
X-15998Y-533671D01*
X-11000D01*
X-25995Y-543668D02*
X-22663D01*
X-20997Y-542002D01*
Y-538669D01*
X-22663Y-537003D01*
X-25995D01*
X-27661Y-538669D01*
Y-540336D01*
X-20997D01*
X-30993Y-543668D02*
X-35992D01*
X-37658Y-542002D01*
X-35992Y-540336D01*
X-32660D01*
X-30993Y-538669D01*
X-32660Y-537003D01*
X-37658D01*
X-40990Y-543668D02*
X-44323D01*
X-42656D01*
Y-537003D01*
X-40990D01*
X-52653Y-547000D02*
X-54319D01*
X-55985Y-545334D01*
Y-537003D01*
X-50987D01*
X-49321Y-538669D01*
Y-542002D01*
X-50987Y-543668D01*
X-55985D01*
X-59318D02*
Y-537003D01*
X-64316D01*
X-65982Y-538669D01*
Y-543668D01*
X-74313D02*
X-70981D01*
X-69314Y-542002D01*
Y-538669D01*
X-70981Y-537003D01*
X-74313D01*
X-75979Y-538669D01*
Y-540336D01*
X-69314D01*
X-85976Y-533671D02*
Y-543668D01*
X-80977D01*
X-79311Y-542002D01*
Y-538669D01*
X-80977Y-537003D01*
X-85976D01*
X-99305Y-533671D02*
Y-543668D01*
X-104303D01*
X-105969Y-542002D01*
Y-540336D01*
Y-538669D01*
X-104303Y-537003D01*
X-99305D01*
X-109302D02*
Y-542002D01*
X-110968Y-543668D01*
X-115966D01*
Y-545334D01*
X-114300Y-547000D01*
X-112634D01*
X-115966Y-543668D02*
Y-537003D01*
X-129295Y-543668D02*
Y-533671D01*
X-134294D01*
X-135960Y-535337D01*
Y-538669D01*
X-134294Y-540336D01*
X-129295D01*
X-139292Y-533671D02*
Y-543668D01*
X-145956D01*
X-150955Y-537003D02*
X-154287D01*
X-155953Y-538669D01*
Y-543668D01*
X-150955D01*
X-149289Y-542002D01*
X-150955Y-540336D01*
X-155953D01*
X-159285Y-533671D02*
Y-543668D01*
X-164284D01*
X-165950Y-542002D01*
Y-540336D01*
Y-538669D01*
X-164284Y-537003D01*
X-159285D01*
X-179279Y-543668D02*
X-182611D01*
X-180945D01*
Y-537003D01*
X-179279D01*
X-187610Y-543668D02*
Y-537003D01*
X-192608D01*
X-194274Y-538669D01*
Y-543668D01*
X-214268Y-535337D02*
X-212602Y-533671D01*
X-209269D01*
X-207603Y-535337D01*
Y-537003D01*
X-209269Y-538669D01*
X-212602D01*
X-214268Y-540336D01*
Y-542002D01*
X-212602Y-543668D01*
X-209269D01*
X-207603Y-542002D01*
X-217600Y-543668D02*
X-220932D01*
X-219266D01*
Y-533671D01*
X-217600D01*
X-227597Y-543668D02*
X-230929D01*
X-232595Y-542002D01*
Y-538669D01*
X-230929Y-537003D01*
X-227597D01*
X-225931Y-538669D01*
Y-542002D01*
X-227597Y-543668D01*
X-235928Y-537003D02*
X-239260Y-543668D01*
X-242592Y-537003D01*
X-250923Y-543668D02*
X-247590D01*
X-245924Y-542002D01*
Y-538669D01*
X-247590Y-537003D01*
X-250923D01*
X-252589Y-538669D01*
Y-540336D01*
X-245924D01*
X-255921Y-543668D02*
Y-537003D01*
X-260919D01*
X-262586Y-538669D01*
Y-543668D01*
X-265918D02*
X-269250D01*
X-267584D01*
Y-537003D01*
X-265918D01*
X-275915D02*
X-279247D01*
X-280913Y-538669D01*
Y-543668D01*
X-275915D01*
X-274249Y-542002D01*
X-275915Y-540336D01*
X-280913D01*
D20*
X245916Y-199501D02*
X248249D01*
X247083D01*
Y-205333D01*
X248249Y-206499D01*
X249415D01*
X250581Y-205333D01*
X238918Y-199501D02*
X241251Y-200667D01*
X243584Y-203000D01*
Y-205333D01*
X242417Y-206499D01*
X240085D01*
X238918Y-205333D01*
Y-204166D01*
X240085Y-203000D01*
X243584D01*
X218166Y-136501D02*
X220499D01*
X219333D01*
Y-142333D01*
X220499Y-143499D01*
X221665D01*
X222831Y-142333D01*
X211168Y-136501D02*
X215834D01*
Y-140000D01*
X213501Y-138834D01*
X212335D01*
X211168Y-140000D01*
Y-142333D01*
X212335Y-143499D01*
X214667D01*
X215834Y-142333D01*
X157166Y-136501D02*
X159499D01*
X158333D01*
Y-142333D01*
X159499Y-143499D01*
X160665D01*
X161831Y-142333D01*
X151335Y-143499D02*
Y-136501D01*
X154834Y-140000D01*
X150169D01*
X-12834Y-131501D02*
X-10501D01*
X-11667D01*
Y-137333D01*
X-10501Y-138499D01*
X-9335D01*
X-8169Y-137333D01*
X-15166Y-132667D02*
X-16333Y-131501D01*
X-18665D01*
X-19832Y-132667D01*
Y-133834D01*
X-18665Y-135000D01*
X-17499D01*
X-18665D01*
X-19832Y-136166D01*
Y-137333D01*
X-18665Y-138499D01*
X-16333D01*
X-15166Y-137333D01*
X-2834Y-174501D02*
X-501D01*
X-1667D01*
Y-180333D01*
X-501Y-181499D01*
X665D01*
X1831Y-180333D01*
X-9832Y-181499D02*
X-5166D01*
X-9832Y-176834D01*
Y-175667D01*
X-8665Y-174501D01*
X-6333D01*
X-5166Y-175667D01*
X-6000Y-224501D02*
X-3667D01*
X-4834D01*
Y-230333D01*
X-3667Y-231499D01*
X-2501D01*
X-1335Y-230333D01*
X-8333Y-231499D02*
X-10665D01*
X-9499D01*
Y-224501D01*
X-8333Y-225667D01*
X-255171Y-217501D02*
X-259836D01*
X-257503D01*
Y-224499D01*
X-262169D02*
Y-217501D01*
X-265667D01*
X-266834Y-218667D01*
Y-221000D01*
X-265667Y-222166D01*
X-262169D01*
X-273832Y-224499D02*
X-269166D01*
X-273832Y-219834D01*
Y-218667D01*
X-272665Y-217501D01*
X-270333D01*
X-269166Y-218667D01*
X-276164D02*
X-277330Y-217501D01*
X-279663D01*
X-280829Y-218667D01*
Y-223333D01*
X-279663Y-224499D01*
X-277330D01*
X-276164Y-223333D01*
Y-218667D01*
X-197754Y-37501D02*
X-202419D01*
X-200086D01*
Y-44499D01*
X-204752D02*
Y-37501D01*
X-208251D01*
X-209417Y-38667D01*
Y-41000D01*
X-208251Y-42166D01*
X-204752D01*
X-211749Y-44499D02*
X-214082D01*
X-212916D01*
Y-37501D01*
X-211749Y-38667D01*
X-217581Y-43333D02*
X-218747Y-44499D01*
X-221080D01*
X-222246Y-43333D01*
Y-38667D01*
X-221080Y-37501D01*
X-218747D01*
X-217581Y-38667D01*
Y-39834D01*
X-218747Y-41000D01*
X-222246D01*
X-255754Y-141501D02*
X-260419D01*
X-258086D01*
Y-148499D01*
X-262752D02*
Y-141501D01*
X-266251D01*
X-267417Y-142667D01*
Y-145000D01*
X-266251Y-146166D01*
X-262752D01*
X-269749Y-148499D02*
X-272082D01*
X-270916D01*
Y-141501D01*
X-269749Y-142667D01*
X-275581D02*
X-276747Y-141501D01*
X-279080D01*
X-280246Y-142667D01*
Y-143834D01*
X-279080Y-145000D01*
X-280246Y-146166D01*
Y-147333D01*
X-279080Y-148499D01*
X-276747D01*
X-275581Y-147333D01*
Y-146166D01*
X-276747Y-145000D01*
X-275581Y-143834D01*
Y-142667D01*
X-276747Y-145000D02*
X-279080D01*
X-154754Y-220501D02*
X-159419D01*
X-157086D01*
Y-227499D01*
X-161752D02*
Y-220501D01*
X-165251D01*
X-166417Y-221667D01*
Y-224000D01*
X-165251Y-225166D01*
X-161752D01*
X-168749Y-227499D02*
X-171082D01*
X-169916D01*
Y-220501D01*
X-168749Y-221667D01*
X-179246Y-220501D02*
X-176914Y-221667D01*
X-174581Y-224000D01*
Y-226333D01*
X-175747Y-227499D01*
X-178080D01*
X-179246Y-226333D01*
Y-225166D01*
X-178080Y-224000D01*
X-174581D01*
X-158754Y-37501D02*
X-163419D01*
X-161087D01*
Y-44499D01*
X-165752D02*
Y-37501D01*
X-169251D01*
X-170417Y-38667D01*
Y-41000D01*
X-169251Y-42166D01*
X-165752D01*
X-172749Y-44499D02*
X-175082D01*
X-173916D01*
Y-37501D01*
X-172749Y-38667D01*
X-183246Y-37501D02*
X-178581D01*
Y-41000D01*
X-180914Y-39834D01*
X-182080D01*
X-183246Y-41000D01*
Y-43333D01*
X-182080Y-44499D01*
X-179747D01*
X-178581Y-43333D01*
X-150754Y-139501D02*
X-155419D01*
X-153087D01*
Y-146499D01*
X-157752D02*
Y-139501D01*
X-161251D01*
X-162417Y-140667D01*
Y-143000D01*
X-161251Y-144166D01*
X-157752D01*
X-164750Y-146499D02*
X-167082D01*
X-165916D01*
Y-139501D01*
X-164750Y-140667D01*
X-170581D02*
X-171747Y-139501D01*
X-174080D01*
X-175246Y-140667D01*
Y-141834D01*
X-174080Y-143000D01*
X-172913D01*
X-174080D01*
X-175246Y-144166D01*
Y-145333D01*
X-174080Y-146499D01*
X-171747D01*
X-170581Y-145333D01*
X137246Y-34501D02*
X132581D01*
X134914D01*
Y-41499D01*
X130248D02*
Y-34501D01*
X126749D01*
X125583Y-35667D01*
Y-38000D01*
X126749Y-39166D01*
X130248D01*
X123251Y-41499D02*
X120918D01*
X122084D01*
Y-34501D01*
X123251Y-35667D01*
X112754Y-41499D02*
X117419D01*
X112754Y-36834D01*
Y-35667D01*
X113920Y-34501D01*
X116253D01*
X117419Y-35667D01*
X80246Y-34501D02*
X75581D01*
X77913D01*
Y-41499D01*
X73248D02*
Y-34501D01*
X69749D01*
X68583Y-35667D01*
Y-38000D01*
X69749Y-39166D01*
X73248D01*
X66251Y-41499D02*
X63918D01*
X65084D01*
Y-34501D01*
X66251Y-35667D01*
X60419D02*
X59253Y-34501D01*
X56920D01*
X55754Y-35667D01*
Y-40333D01*
X56920Y-41499D01*
X59253D01*
X60419Y-40333D01*
Y-35667D01*
X-53670Y-220501D02*
X-58335D01*
X-56002D01*
Y-227499D01*
X-60667D02*
Y-220501D01*
X-64166D01*
X-65333Y-221667D01*
Y-224000D01*
X-64166Y-225166D01*
X-60667D01*
X-67665Y-221667D02*
X-68832Y-220501D01*
X-71164D01*
X-72330Y-221667D01*
Y-222834D01*
X-71164Y-224000D01*
X-72330Y-225166D01*
Y-226333D01*
X-71164Y-227499D01*
X-68832D01*
X-67665Y-226333D01*
Y-225166D01*
X-68832Y-224000D01*
X-67665Y-222834D01*
Y-221667D01*
X-68832Y-224000D02*
X-71164D01*
X-123670Y-37501D02*
X-128335D01*
X-126002D01*
Y-44499D01*
X-130667D02*
Y-37501D01*
X-134166D01*
X-135333Y-38667D01*
Y-41000D01*
X-134166Y-42166D01*
X-130667D01*
X-137665Y-37501D02*
X-142330D01*
Y-38667D01*
X-137665Y-43333D01*
Y-44499D01*
X-46670Y-142501D02*
X-51335D01*
X-49002D01*
Y-149499D01*
X-53667D02*
Y-142501D01*
X-57166D01*
X-58333Y-143667D01*
Y-146000D01*
X-57166Y-147166D01*
X-53667D01*
X-64164Y-149499D02*
Y-142501D01*
X-60665Y-146000D01*
X-65330D01*
X-237670Y-343501D02*
X-242335D01*
X-240002D01*
Y-350499D01*
X-244667D02*
Y-343501D01*
X-248166D01*
X-249333Y-344667D01*
Y-347000D01*
X-248166Y-348166D01*
X-244667D01*
X-256330Y-350499D02*
X-251665D01*
X-256330Y-345834D01*
Y-344667D01*
X-255164Y-343501D01*
X-252831D01*
X-251665Y-344667D01*
M02*
