G04*
G04 #@! TF.GenerationSoftware,Altium Limited,Altium Designer,24.1.2 (44)*
G04*
G04 Layer_Color=16711935*
%FSLAX44Y44*%
%MOMM*%
G71*
G04*
G04 #@! TF.SameCoordinates,C2358ADC-4AF9-434A-8588-A0F146304F54*
G04*
G04*
G04 #@! TF.FilePolarity,Negative*
G04*
G01*
G75*
%ADD73R,1.2032X1.2032*%
%ADD76C,1.2032*%
%ADD93C,0.2032*%
%ADD95C,1.7032*%
%ADD96C,5.7032*%
%ADD97O,2.2000X1.4000*%
%ADD98O,2.0000X1.2000*%
%ADD99C,0.1000*%
%ADD137R,1.2032X1.2032*%
%ADD138C,2.4032*%
D73*
X237900Y-217000D02*
D03*
X249600D02*
D03*
D76*
X-239125Y-361625D02*
D03*
X126000Y-55000D02*
D03*
X66750D02*
D03*
X-44000Y-231000D02*
D03*
X-146000D02*
D03*
X-143250Y-156750D02*
D03*
X-41750D02*
D03*
X-248100Y-230900D02*
D03*
X-245750Y-156750D02*
D03*
X-210000Y-55000D02*
D03*
X-171000D02*
D03*
X-133000D02*
D03*
D93*
X329750Y0D02*
D03*
X-329750D02*
D03*
D95*
X121800Y-245000D02*
D03*
X147200Y-241000D02*
D03*
X172600Y-245000D02*
D03*
X198000Y-241000D02*
D03*
X223400Y-245000D02*
D03*
X248800Y-241000D02*
D03*
X-333000Y-324600D02*
D03*
Y-350000D02*
D03*
Y-375400D02*
D03*
Y-400800D02*
D03*
Y-426200D02*
D03*
Y-451600D02*
D03*
Y-477000D02*
D03*
Y-502400D02*
D03*
D96*
X-395000Y-255000D02*
D03*
X395000D02*
D03*
D97*
X354300Y-60900D02*
D03*
X354300Y-146900D02*
D03*
D98*
X310000Y-60900D02*
D03*
Y-146900D02*
D03*
D99*
X315000Y-132800D02*
D03*
Y-75000D02*
D03*
D137*
X-22000Y-173000D02*
D03*
Y-184700D02*
D03*
Y-223400D02*
D03*
Y-235100D02*
D03*
X-31000Y-124400D02*
D03*
Y-136100D02*
D03*
X199000Y-146000D02*
D03*
Y-134300D02*
D03*
X172000Y-135000D02*
D03*
Y-146700D02*
D03*
D138*
X285750Y0D02*
D03*
X247650D02*
D03*
X209550D02*
D03*
X171450D02*
D03*
X133350D02*
D03*
X95250D02*
D03*
X57150D02*
D03*
X19050D02*
D03*
X-19050D02*
D03*
X-57150D02*
D03*
X-95250D02*
D03*
X-133350D02*
D03*
X-171450D02*
D03*
X-209550D02*
D03*
X-247650D02*
D03*
X-285750D02*
D03*
M02*
