G04*
G04 #@! TF.GenerationSoftware,Altium Limited,Altium Designer,24.1.2 (44)*
G04*
G04 Layer_Physical_Order=2*
G04 Layer_Color=36540*
%FSLAX44Y44*%
%MOMM*%
G71*
G04*
G04 #@! TF.SameCoordinates,C2358ADC-4AF9-434A-8588-A0F146304F54*
G04*
G04*
G04 #@! TF.FilePolarity,Positive*
G04*
G01*
G75*
%ADD129C,1.5000*%
%ADD130C,5.5000*%
%ADD131O,2.1000X1.3000*%
%ADD132O,1.9000X1.1000*%
%ADD133C,0.4500*%
%ADD134C,0.5000*%
%ADD135C,2.2000*%
G36*
X350000Y37961D02*
X351769Y37961D01*
X355239Y37271D01*
X358508Y35917D01*
X361449Y33951D01*
X363951Y31449D01*
X365917Y28508D01*
X367271Y25239D01*
X367961Y21769D01*
X367961Y20000D01*
Y-55582D01*
X366732Y-56149D01*
X365461Y-56268D01*
X364363Y-54837D01*
X362587Y-53475D01*
X360519Y-52618D01*
X358301Y-52326D01*
X355801D01*
Y-60900D01*
Y-69473D01*
X358301D01*
X360519Y-69181D01*
X362587Y-68324D01*
X364363Y-66962D01*
X365461Y-65531D01*
X366732Y-65651D01*
X367961Y-66217D01*
X367961Y-141583D01*
X366733Y-142149D01*
X365461Y-142269D01*
X364363Y-140838D01*
X362587Y-139475D01*
X360519Y-138619D01*
X358301Y-138327D01*
X355801D01*
Y-146900D01*
Y-155474D01*
X358301D01*
X360519Y-155182D01*
X362587Y-154325D01*
X364363Y-152963D01*
X365461Y-151531D01*
X366733Y-151651D01*
X367961Y-152218D01*
Y-164602D01*
X367967Y-164632D01*
X367962Y-164663D01*
X367998Y-165861D01*
X368018Y-165951D01*
X368012Y-166044D01*
X368298Y-168422D01*
X368336Y-168539D01*
X368342Y-168662D01*
X368910Y-170990D01*
X368963Y-171101D01*
X368983Y-171223D01*
X369826Y-173466D01*
X369891Y-173570D01*
X369925Y-173689D01*
X371030Y-175814D01*
X371107Y-175911D01*
X371156Y-176024D01*
X372507Y-178002D01*
X372595Y-178089D01*
X372657Y-178195D01*
X374235Y-179998D01*
X374333Y-180073D01*
X374407Y-180172D01*
X376189Y-181772D01*
X376269Y-181820D01*
X376331Y-181889D01*
X377291Y-182606D01*
X377319Y-182620D01*
X377340Y-182642D01*
X417317Y-210696D01*
X418199Y-211315D01*
X419803Y-212756D01*
X421223Y-214377D01*
X422439Y-216157D01*
X423433Y-218069D01*
X424191Y-220087D01*
X424703Y-222180D01*
X424961Y-224321D01*
X424961Y-225398D01*
X424961Y-284602D01*
X424961Y-285680D01*
X424703Y-287820D01*
X424192Y-289913D01*
X423433Y-291931D01*
X422439Y-293843D01*
X421223Y-295623D01*
X419803Y-297245D01*
X418199Y-298685D01*
X417317Y-299304D01*
X417317Y-299304D01*
X377340Y-327358D01*
X377319Y-327380D01*
X377291Y-327394D01*
X376331Y-328111D01*
X376269Y-328180D01*
X376189Y-328228D01*
X374407Y-329828D01*
X374333Y-329927D01*
X374235Y-330002D01*
X372657Y-331805D01*
X372595Y-331911D01*
X372507Y-331998D01*
X371156Y-333976D01*
X371107Y-334089D01*
X371030Y-334186D01*
X369925Y-336311D01*
X369891Y-336430D01*
X369826Y-336534D01*
X368983Y-338777D01*
X368963Y-338899D01*
X368910Y-339010D01*
X368342Y-341338D01*
X368336Y-341461D01*
X368298Y-341578D01*
X368012Y-343956D01*
X368018Y-344049D01*
X367998Y-344139D01*
X367962Y-345337D01*
X367967Y-345368D01*
X367961Y-345398D01*
X367961Y-462000D01*
X367961Y-463769D01*
X367271Y-467239D01*
X365917Y-470508D01*
X363951Y-473449D01*
X361449Y-475951D01*
X358508Y-477917D01*
X355239Y-479271D01*
X351769Y-479961D01*
X80183D01*
X80133Y-479971D01*
X80083Y-479963D01*
X79085Y-480013D01*
X78938Y-480049D01*
X78787D01*
X76829Y-480439D01*
X76644Y-480516D01*
X76447Y-480555D01*
X74603Y-481319D01*
X74436Y-481430D01*
X74250Y-481507D01*
X72590Y-482616D01*
X72448Y-482758D01*
X72281Y-482870D01*
X70870Y-484281D01*
X70758Y-484448D01*
X70616Y-484590D01*
X69507Y-486250D01*
X69430Y-486436D01*
X69319Y-486603D01*
X68555Y-488447D01*
X68516Y-488644D01*
X68439Y-488829D01*
X68049Y-490787D01*
Y-490938D01*
X68012Y-491085D01*
X67963Y-492083D01*
X67971Y-492133D01*
X67961Y-492183D01*
X67961Y-540000D01*
Y-541769D01*
X67271Y-545239D01*
X65917Y-548508D01*
X63951Y-551449D01*
X61449Y-553951D01*
X58508Y-555917D01*
X55239Y-557271D01*
X51769Y-557961D01*
X50000Y-557961D01*
X-350000Y-557961D01*
X-351769Y-557961D01*
X-355239Y-557271D01*
X-358508Y-555917D01*
X-361449Y-553951D01*
X-363951Y-551450D01*
X-365917Y-548508D01*
X-367271Y-545239D01*
X-367961Y-541769D01*
Y-540000D01*
Y-345398D01*
X-367967Y-345368D01*
X-367962Y-345337D01*
X-367998Y-344139D01*
X-368019Y-344049D01*
X-368012Y-343956D01*
X-368298Y-341578D01*
X-368336Y-341461D01*
X-368342Y-341338D01*
X-368910Y-339010D01*
X-368963Y-338899D01*
X-368983Y-338777D01*
X-369826Y-336534D01*
X-369891Y-336430D01*
X-369925Y-336311D01*
X-371030Y-334185D01*
X-371107Y-334089D01*
X-371156Y-333976D01*
X-372507Y-331998D01*
X-372595Y-331911D01*
X-372657Y-331805D01*
X-374235Y-330002D01*
X-374333Y-329927D01*
X-374407Y-329828D01*
X-376189Y-328228D01*
X-376269Y-328180D01*
X-376331Y-328111D01*
X-377291Y-327394D01*
X-377319Y-327380D01*
X-377340Y-327358D01*
X-417317Y-299304D01*
X-418199Y-298685D01*
X-419803Y-297245D01*
X-421223Y-295623D01*
X-422439Y-293843D01*
X-423433Y-291931D01*
X-424192Y-289913D01*
X-424703Y-287820D01*
X-424961Y-285680D01*
Y-284602D01*
Y-225398D01*
Y-224320D01*
X-424703Y-222181D01*
X-424192Y-220087D01*
X-423433Y-218069D01*
X-422439Y-216157D01*
X-421223Y-214377D01*
X-419803Y-212755D01*
X-418199Y-211315D01*
X-417317Y-210696D01*
X-377340Y-182642D01*
X-377319Y-182620D01*
X-377291Y-182606D01*
X-376331Y-181889D01*
X-376269Y-181820D01*
X-376189Y-181772D01*
X-374407Y-180172D01*
X-374333Y-180073D01*
X-374235Y-179998D01*
X-372657Y-178195D01*
X-372595Y-178089D01*
X-372507Y-178002D01*
X-371156Y-176024D01*
X-371107Y-175911D01*
X-371030Y-175814D01*
X-369925Y-173689D01*
X-369891Y-173570D01*
X-369826Y-173466D01*
X-368983Y-171223D01*
X-368963Y-171101D01*
X-368910Y-170990D01*
X-368342Y-168662D01*
X-368336Y-168539D01*
X-368298Y-168422D01*
X-368012Y-166044D01*
X-368019Y-165951D01*
X-367998Y-165861D01*
X-367962Y-164663D01*
X-367967Y-164632D01*
X-367961Y-164602D01*
Y20000D01*
X-367961Y21769D01*
X-367271Y25239D01*
X-365917Y28508D01*
X-363951Y31449D01*
X-361450Y33951D01*
X-358508Y35917D01*
X-355239Y37271D01*
X-351769Y37961D01*
X-350000Y37961D01*
X350000Y37961D01*
D02*
G37*
%LPC*%
G36*
X211262Y13000D02*
X211050D01*
Y1500D01*
X222550D01*
Y1711D01*
X221664Y5018D01*
X219953Y7982D01*
X217532Y10403D01*
X214568Y12114D01*
X211262Y13000D01*
D02*
G37*
G36*
X208050D02*
X207838D01*
X204532Y12114D01*
X201568Y10403D01*
X199147Y7982D01*
X197436Y5018D01*
X196550Y1711D01*
Y1500D01*
X208050D01*
Y13000D01*
D02*
G37*
G36*
X20761D02*
X20550D01*
Y1500D01*
X32050D01*
Y1711D01*
X31164Y5018D01*
X29453Y7982D01*
X27032Y10403D01*
X24068Y12114D01*
X20761Y13000D01*
D02*
G37*
G36*
X17550D02*
X17339D01*
X14032Y12114D01*
X11068Y10403D01*
X8647Y7982D01*
X6936Y5018D01*
X6050Y1711D01*
Y1500D01*
X17550D01*
Y13000D01*
D02*
G37*
G36*
X-245938D02*
X-246150D01*
Y1500D01*
X-234650D01*
Y1711D01*
X-235536Y5018D01*
X-237247Y7982D01*
X-239668Y10403D01*
X-242632Y12114D01*
X-245938Y13000D01*
D02*
G37*
G36*
X-249150D02*
X-249361D01*
X-252668Y12114D01*
X-255632Y10403D01*
X-258053Y7982D01*
X-259764Y5018D01*
X-260650Y1711D01*
Y1500D01*
X-249150D01*
Y13000D01*
D02*
G37*
G36*
X287396Y12500D02*
X284104D01*
X280925Y11648D01*
X278075Y10002D01*
X275748Y7675D01*
X274102Y4825D01*
X273250Y1646D01*
Y-1646D01*
X274102Y-4825D01*
X275748Y-7675D01*
X278075Y-10002D01*
X280925Y-11648D01*
X284104Y-12500D01*
X287396D01*
X290575Y-11648D01*
X293425Y-10002D01*
X295753Y-7675D01*
X297398Y-4825D01*
X298250Y-1646D01*
Y1646D01*
X297398Y4825D01*
X295753Y7675D01*
X293425Y10002D01*
X290575Y11648D01*
X287396Y12500D01*
D02*
G37*
G36*
X249296D02*
X246004D01*
X242825Y11648D01*
X239975Y10002D01*
X237647Y7675D01*
X236002Y4825D01*
X235150Y1646D01*
Y-1646D01*
X236002Y-4825D01*
X237647Y-7675D01*
X239975Y-10002D01*
X242825Y-11648D01*
X246004Y-12500D01*
X249296D01*
X252475Y-11648D01*
X255325Y-10002D01*
X257652Y-7675D01*
X259298Y-4825D01*
X260150Y-1646D01*
Y1646D01*
X259298Y4825D01*
X257652Y7675D01*
X255325Y10002D01*
X252475Y11648D01*
X249296Y12500D01*
D02*
G37*
G36*
X173096D02*
X169804D01*
X166625Y11648D01*
X163775Y10002D01*
X161448Y7675D01*
X159802Y4825D01*
X158950Y1646D01*
Y-1646D01*
X159802Y-4825D01*
X161448Y-7675D01*
X163775Y-10002D01*
X166625Y-11648D01*
X169804Y-12500D01*
X173096D01*
X176275Y-11648D01*
X179125Y-10002D01*
X181453Y-7675D01*
X183098Y-4825D01*
X183950Y-1646D01*
Y1646D01*
X183098Y4825D01*
X181453Y7675D01*
X179125Y10002D01*
X176275Y11648D01*
X173096Y12500D01*
D02*
G37*
G36*
X134996D02*
X131704D01*
X128525Y11648D01*
X125675Y10002D01*
X123348Y7675D01*
X121702Y4825D01*
X120850Y1646D01*
Y-1646D01*
X121702Y-4825D01*
X123348Y-7675D01*
X125675Y-10002D01*
X128525Y-11648D01*
X131704Y-12500D01*
X134996D01*
X138175Y-11648D01*
X141025Y-10002D01*
X143352Y-7675D01*
X144998Y-4825D01*
X145850Y-1646D01*
Y1646D01*
X144998Y4825D01*
X143352Y7675D01*
X141025Y10002D01*
X138175Y11648D01*
X134996Y12500D01*
D02*
G37*
G36*
X96896D02*
X93604D01*
X90425Y11648D01*
X87575Y10002D01*
X85247Y7675D01*
X83602Y4825D01*
X82750Y1646D01*
Y-1646D01*
X83602Y-4825D01*
X85247Y-7675D01*
X87575Y-10002D01*
X90425Y-11648D01*
X93604Y-12500D01*
X96896D01*
X100075Y-11648D01*
X102925Y-10002D01*
X105253Y-7675D01*
X106898Y-4825D01*
X107750Y-1646D01*
Y1646D01*
X106898Y4825D01*
X105253Y7675D01*
X102925Y10002D01*
X100075Y11648D01*
X96896Y12500D01*
D02*
G37*
G36*
X58796D02*
X55504D01*
X52325Y11648D01*
X49475Y10002D01*
X47147Y7675D01*
X45502Y4825D01*
X44650Y1646D01*
Y-1646D01*
X45502Y-4825D01*
X47147Y-7675D01*
X49475Y-10002D01*
X52325Y-11648D01*
X55504Y-12500D01*
X58796D01*
X61975Y-11648D01*
X64825Y-10002D01*
X67153Y-7675D01*
X68798Y-4825D01*
X69650Y-1646D01*
Y1646D01*
X68798Y4825D01*
X67153Y7675D01*
X64825Y10002D01*
X61975Y11648D01*
X58796Y12500D01*
D02*
G37*
G36*
X-17404D02*
X-20696D01*
X-23875Y11648D01*
X-26725Y10002D01*
X-29053Y7675D01*
X-30698Y4825D01*
X-31550Y1646D01*
Y-1646D01*
X-30698Y-4825D01*
X-29053Y-7675D01*
X-26725Y-10002D01*
X-23875Y-11648D01*
X-20696Y-12500D01*
X-17404D01*
X-14225Y-11648D01*
X-11375Y-10002D01*
X-9047Y-7675D01*
X-7402Y-4825D01*
X-6550Y-1646D01*
Y1646D01*
X-7402Y4825D01*
X-9047Y7675D01*
X-11375Y10002D01*
X-14225Y11648D01*
X-17404Y12500D01*
D02*
G37*
G36*
X-55504D02*
X-58796D01*
X-61975Y11648D01*
X-64825Y10002D01*
X-67153Y7675D01*
X-68798Y4825D01*
X-69650Y1646D01*
Y-1646D01*
X-68798Y-4825D01*
X-67153Y-7675D01*
X-64825Y-10002D01*
X-61975Y-11648D01*
X-58796Y-12500D01*
X-55504D01*
X-52325Y-11648D01*
X-49475Y-10002D01*
X-47147Y-7675D01*
X-45502Y-4825D01*
X-44650Y-1646D01*
Y1646D01*
X-45502Y4825D01*
X-47147Y7675D01*
X-49475Y10002D01*
X-52325Y11648D01*
X-55504Y12500D01*
D02*
G37*
G36*
X-93604D02*
X-96896D01*
X-100075Y11648D01*
X-102925Y10002D01*
X-105253Y7675D01*
X-106898Y4825D01*
X-107750Y1646D01*
Y-1646D01*
X-106898Y-4825D01*
X-105253Y-7675D01*
X-102925Y-10002D01*
X-100075Y-11648D01*
X-96896Y-12500D01*
X-93604D01*
X-90425Y-11648D01*
X-87575Y-10002D01*
X-85247Y-7675D01*
X-83602Y-4825D01*
X-82750Y-1646D01*
Y1646D01*
X-83602Y4825D01*
X-85247Y7675D01*
X-87575Y10002D01*
X-90425Y11648D01*
X-93604Y12500D01*
D02*
G37*
G36*
X-131704D02*
X-134996D01*
X-138175Y11648D01*
X-141025Y10002D01*
X-143352Y7675D01*
X-144998Y4825D01*
X-145850Y1646D01*
Y-1646D01*
X-144998Y-4825D01*
X-143352Y-7675D01*
X-141025Y-10002D01*
X-138175Y-11648D01*
X-134996Y-12500D01*
X-131704D01*
X-128525Y-11648D01*
X-125675Y-10002D01*
X-123348Y-7675D01*
X-121702Y-4825D01*
X-120850Y-1646D01*
Y1646D01*
X-121702Y4825D01*
X-123348Y7675D01*
X-125675Y10002D01*
X-128525Y11648D01*
X-131704Y12500D01*
D02*
G37*
G36*
X-169804D02*
X-173096D01*
X-176275Y11648D01*
X-179125Y10002D01*
X-181453Y7675D01*
X-183098Y4825D01*
X-183950Y1646D01*
Y-1646D01*
X-183098Y-4825D01*
X-181453Y-7675D01*
X-179125Y-10002D01*
X-176275Y-11648D01*
X-173096Y-12500D01*
X-169804D01*
X-166625Y-11648D01*
X-163775Y-10002D01*
X-161448Y-7675D01*
X-159802Y-4825D01*
X-158950Y-1646D01*
Y1646D01*
X-159802Y4825D01*
X-161448Y7675D01*
X-163775Y10002D01*
X-166625Y11648D01*
X-169804Y12500D01*
D02*
G37*
G36*
X-207904D02*
X-211196D01*
X-214375Y11648D01*
X-217225Y10002D01*
X-219552Y7675D01*
X-221198Y4825D01*
X-222050Y1646D01*
Y-1646D01*
X-221198Y-4825D01*
X-219552Y-7675D01*
X-217225Y-10002D01*
X-214375Y-11648D01*
X-211196Y-12500D01*
X-207904D01*
X-204725Y-11648D01*
X-201875Y-10002D01*
X-199548Y-7675D01*
X-197902Y-4825D01*
X-197050Y-1646D01*
Y1646D01*
X-197902Y4825D01*
X-199548Y7675D01*
X-201875Y10002D01*
X-204725Y11648D01*
X-207904Y12500D01*
D02*
G37*
G36*
X-284104D02*
X-287396D01*
X-290575Y11648D01*
X-293425Y10002D01*
X-295753Y7675D01*
X-297398Y4825D01*
X-298250Y1646D01*
Y-1646D01*
X-297398Y-4825D01*
X-295753Y-7675D01*
X-293425Y-10002D01*
X-290575Y-11648D01*
X-287396Y-12500D01*
X-284104D01*
X-280925Y-11648D01*
X-278075Y-10002D01*
X-275748Y-7675D01*
X-274102Y-4825D01*
X-273250Y-1646D01*
Y1646D01*
X-274102Y4825D01*
X-275748Y7675D01*
X-278075Y10002D01*
X-280925Y11648D01*
X-284104Y12500D01*
D02*
G37*
G36*
X222550Y-1500D02*
X211050D01*
Y-13000D01*
X211262D01*
X214568Y-12114D01*
X217532Y-10403D01*
X219953Y-7982D01*
X221664Y-5018D01*
X222550Y-1711D01*
Y-1500D01*
D02*
G37*
G36*
X208050D02*
X196550D01*
Y-1711D01*
X197436Y-5018D01*
X199147Y-7982D01*
X201568Y-10403D01*
X204532Y-12114D01*
X207838Y-13000D01*
X208050D01*
Y-1500D01*
D02*
G37*
G36*
X32050D02*
X20550D01*
Y-13000D01*
X20761D01*
X24068Y-12114D01*
X27032Y-10403D01*
X29453Y-7982D01*
X31164Y-5018D01*
X32050Y-1711D01*
Y-1500D01*
D02*
G37*
G36*
X17550D02*
X6050D01*
Y-1711D01*
X6936Y-5018D01*
X8647Y-7982D01*
X11068Y-10403D01*
X14032Y-12114D01*
X17339Y-13000D01*
X17550D01*
Y-1500D01*
D02*
G37*
G36*
X-234650D02*
X-246150D01*
Y-13000D01*
X-245938D01*
X-242632Y-12114D01*
X-239668Y-10403D01*
X-237247Y-7982D01*
X-235536Y-5018D01*
X-234650Y-1711D01*
Y-1500D01*
D02*
G37*
G36*
X-249150D02*
X-260650D01*
Y-1711D01*
X-259764Y-5018D01*
X-258053Y-7982D01*
X-255632Y-10403D01*
X-252668Y-12114D01*
X-249361Y-13000D01*
X-249150D01*
Y-1500D01*
D02*
G37*
G36*
X331659Y14500D02*
X327841D01*
X324153Y13512D01*
X320847Y11603D01*
X318147Y8903D01*
X316238Y5597D01*
X315250Y1909D01*
Y-1909D01*
X316238Y-5597D01*
X318147Y-8903D01*
X320847Y-11603D01*
X324153Y-13512D01*
X327841Y-14500D01*
X331659D01*
X335347Y-13512D01*
X338653Y-11603D01*
X341353Y-8903D01*
X343262Y-5597D01*
X344250Y-1909D01*
Y1909D01*
X343262Y5597D01*
X341353Y8903D01*
X338653Y11603D01*
X335347Y13512D01*
X331659Y14500D01*
D02*
G37*
G36*
X-327841D02*
X-331659D01*
X-335347Y13512D01*
X-338653Y11603D01*
X-341353Y8903D01*
X-343262Y5597D01*
X-344250Y1909D01*
Y-1909D01*
X-343262Y-5597D01*
X-341353Y-8903D01*
X-338653Y-11603D01*
X-335347Y-13512D01*
X-331659Y-14500D01*
X-327841D01*
X-324153Y-13512D01*
X-320847Y-11603D01*
X-318147Y-8903D01*
X-316238Y-5597D01*
X-315250Y-1909D01*
Y1909D01*
X-316238Y5597D01*
X-318147Y8903D01*
X-320847Y11603D01*
X-324153Y13512D01*
X-327841Y14500D01*
D02*
G37*
G36*
X314000Y-53335D02*
X311500D01*
Y-59399D01*
X321367D01*
X321307Y-58942D01*
X320551Y-57117D01*
X319349Y-55550D01*
X317782Y-54348D01*
X315958Y-53593D01*
X314000Y-53335D01*
D02*
G37*
G36*
X308500D02*
X306000D01*
X304042Y-53593D01*
X302217Y-54348D01*
X300651Y-55550D01*
X299448Y-57117D01*
X298693Y-58942D01*
X298632Y-59399D01*
X308500D01*
Y-53335D01*
D02*
G37*
G36*
X352800Y-52326D02*
X350300D01*
X348082Y-52618D01*
X346014Y-53475D01*
X344238Y-54837D01*
X342876Y-56613D01*
X342019Y-58681D01*
X341925Y-59399D01*
X352800D01*
Y-52326D01*
D02*
G37*
G36*
Y-62400D02*
X341925D01*
X342019Y-63119D01*
X342876Y-65186D01*
X344238Y-66962D01*
X346014Y-68324D01*
X348082Y-69181D01*
X350300Y-69473D01*
X352800D01*
Y-62400D01*
D02*
G37*
G36*
X-341204Y-77000D02*
X-342796D01*
X-344266Y-77609D01*
X-345000Y-78343D01*
X-345734Y-77609D01*
X-347204Y-77000D01*
X-348796D01*
X-350266Y-77609D01*
X-351391Y-78734D01*
X-352000Y-80204D01*
Y-81796D01*
X-351391Y-83266D01*
X-350657Y-84000D01*
X-351391Y-84734D01*
X-352000Y-86204D01*
Y-87796D01*
X-351391Y-89266D01*
X-350657Y-90000D01*
X-351391Y-90734D01*
X-352000Y-92204D01*
Y-93796D01*
X-351391Y-95266D01*
X-350266Y-96391D01*
X-348796Y-97000D01*
X-347204D01*
X-345734Y-96391D01*
X-345000Y-95657D01*
X-344266Y-96391D01*
X-342796Y-97000D01*
X-341204D01*
X-339734Y-96391D01*
X-338609Y-95266D01*
X-338000Y-93796D01*
Y-92204D01*
X-338609Y-90734D01*
X-339343Y-90000D01*
X-338609Y-89266D01*
X-338000Y-87796D01*
Y-86204D01*
X-338609Y-84734D01*
X-339343Y-84000D01*
X-338609Y-83266D01*
X-338000Y-81796D01*
Y-80204D01*
X-338609Y-78734D01*
X-339734Y-77609D01*
X-341204Y-77000D01*
D02*
G37*
G36*
X157996Y-79250D02*
X156504D01*
X155126Y-79821D01*
X154875Y-80072D01*
X154624Y-79821D01*
X153246Y-79250D01*
X151754D01*
X150376Y-79821D01*
X149321Y-80876D01*
X148750Y-82254D01*
Y-83746D01*
X149321Y-85124D01*
X150376Y-86179D01*
X151754Y-86750D01*
X153246D01*
X154624Y-86179D01*
X154875Y-85928D01*
X155126Y-86179D01*
X156504Y-86750D01*
X157996D01*
X159374Y-86179D01*
X160429Y-85124D01*
X161000Y-83746D01*
Y-82254D01*
X160429Y-80876D01*
X159374Y-79821D01*
X157996Y-79250D01*
D02*
G37*
G36*
X310000Y-60900D02*
D01*
Y-62400D01*
X298632D01*
X298693Y-62857D01*
X299448Y-64682D01*
X300651Y-66249D01*
X302217Y-67451D01*
X304042Y-68207D01*
X306000Y-68464D01*
X309869D01*
X310904Y-70964D01*
X310125Y-71743D01*
X309250Y-73856D01*
Y-76144D01*
X310125Y-78257D01*
X311743Y-79875D01*
X313856Y-80750D01*
X316144D01*
X318257Y-79875D01*
X319875Y-78257D01*
X320750Y-76144D01*
Y-73856D01*
X319875Y-71743D01*
X318257Y-70125D01*
X318057Y-70043D01*
X317862Y-68208D01*
X317975Y-67303D01*
X319349Y-66249D01*
X320551Y-64682D01*
X321307Y-62857D01*
X321367Y-62400D01*
X310000D01*
Y-60900D01*
D02*
G37*
G36*
X-50204Y-80000D02*
X-51796D01*
X-53266Y-80609D01*
X-54000Y-81343D01*
X-54734Y-80609D01*
X-56204Y-80000D01*
X-57796D01*
X-59266Y-80609D01*
X-60000Y-81343D01*
X-60734Y-80609D01*
X-62204Y-80000D01*
X-63796D01*
X-65266Y-80609D01*
X-66000Y-81343D01*
X-66734Y-80609D01*
X-68204Y-80000D01*
X-69796D01*
X-71266Y-80609D01*
X-72000Y-81343D01*
X-72734Y-80609D01*
X-74204Y-80000D01*
X-75796D01*
X-77266Y-80609D01*
X-78391Y-81734D01*
X-79000Y-83204D01*
Y-84796D01*
X-78391Y-86266D01*
X-77266Y-87391D01*
X-75796Y-88000D01*
X-75207D01*
X-73779Y-88779D01*
X-73000Y-90207D01*
Y-90796D01*
X-72391Y-92266D01*
X-71266Y-93391D01*
X-69796Y-94000D01*
X-69207D01*
X-67779Y-94779D01*
X-67000Y-96207D01*
Y-96796D01*
X-66391Y-98266D01*
X-65266Y-99391D01*
X-63796Y-100000D01*
X-63207D01*
X-61779Y-100779D01*
X-61000Y-102207D01*
Y-102796D01*
X-60391Y-104266D01*
X-59266Y-105391D01*
X-57796Y-106000D01*
X-57207D01*
X-55779Y-106779D01*
X-55000Y-108207D01*
Y-108796D01*
X-54391Y-110266D01*
X-53266Y-111391D01*
X-51796Y-112000D01*
X-51207D01*
X-49779Y-112779D01*
X-49000Y-114207D01*
Y-114796D01*
X-48391Y-116266D01*
X-47657Y-117000D01*
X-48391Y-117734D01*
X-49000Y-119204D01*
Y-120796D01*
X-48391Y-122266D01*
X-47657Y-123000D01*
X-48391Y-123734D01*
X-49000Y-125204D01*
Y-126796D01*
X-48391Y-128266D01*
X-47266Y-129391D01*
X-45796Y-130000D01*
X-44204D01*
X-42734Y-129391D01*
X-41609Y-128266D01*
X-41000Y-126796D01*
Y-125204D01*
X-41609Y-123734D01*
X-42343Y-123000D01*
X-41609Y-122266D01*
X-41000Y-120796D01*
Y-120207D01*
X-40221Y-118779D01*
X-38793Y-118000D01*
X-38204D01*
X-36734Y-117391D01*
X-35609Y-116266D01*
X-35000Y-114796D01*
Y-113204D01*
X-35609Y-111734D01*
X-36343Y-111000D01*
X-35609Y-110266D01*
X-35000Y-108796D01*
Y-107204D01*
X-35609Y-105734D01*
X-36343Y-105000D01*
X-35609Y-104266D01*
X-35000Y-102796D01*
Y-101204D01*
X-35609Y-99734D01*
X-36343Y-99000D01*
X-35609Y-98266D01*
X-35000Y-96796D01*
Y-95204D01*
X-35609Y-93734D01*
X-36734Y-92609D01*
X-38204Y-92000D01*
X-38793D01*
X-40221Y-91221D01*
X-41000Y-89793D01*
Y-89204D01*
X-41609Y-87734D01*
X-42734Y-86609D01*
X-44204Y-86000D01*
X-44793D01*
X-46221Y-85221D01*
X-47000Y-83793D01*
Y-83204D01*
X-47609Y-81734D01*
X-48734Y-80609D01*
X-50204Y-80000D01*
D02*
G37*
G36*
X-270204Y-81000D02*
X-271796D01*
X-273266Y-81609D01*
X-274000Y-82343D01*
X-274734Y-81609D01*
X-276204Y-81000D01*
X-277796D01*
X-279266Y-81609D01*
X-280000Y-82343D01*
X-280734Y-81609D01*
X-282204Y-81000D01*
X-283796D01*
X-285266Y-81609D01*
X-286000Y-82343D01*
X-286734Y-81609D01*
X-288204Y-81000D01*
X-289796D01*
X-291266Y-81609D01*
X-292391Y-82734D01*
X-293000Y-84204D01*
Y-84793D01*
X-293779Y-86221D01*
X-295207Y-87000D01*
X-295796D01*
X-297266Y-87609D01*
X-298391Y-88734D01*
X-299000Y-90204D01*
Y-90793D01*
X-299779Y-92221D01*
X-301207Y-93000D01*
X-301796D01*
X-303266Y-93609D01*
X-304391Y-94734D01*
X-305000Y-96204D01*
Y-97796D01*
X-304391Y-99266D01*
X-303266Y-100391D01*
X-301796Y-101000D01*
X-301207D01*
X-299779Y-101779D01*
X-299000Y-103207D01*
Y-103796D01*
X-298391Y-105266D01*
X-297657Y-106000D01*
X-298391Y-106734D01*
X-299000Y-108204D01*
Y-109796D01*
X-298391Y-111266D01*
X-297266Y-112391D01*
X-295796Y-113000D01*
X-294204D01*
X-292734Y-112391D01*
X-291609Y-111266D01*
X-291000Y-109796D01*
Y-109207D01*
X-290221Y-107779D01*
X-288793Y-107000D01*
X-288204D01*
X-286734Y-106391D01*
X-285609Y-105266D01*
X-285000Y-103796D01*
Y-103207D01*
X-284221Y-101779D01*
X-282793Y-101000D01*
X-282204D01*
X-280734Y-100391D01*
X-279609Y-99266D01*
X-279000Y-97796D01*
Y-97207D01*
X-278221Y-95779D01*
X-276793Y-95000D01*
X-276204D01*
X-274734Y-94391D01*
X-273609Y-93266D01*
X-273000Y-91796D01*
Y-91207D01*
X-272221Y-89779D01*
X-270793Y-89000D01*
X-270204D01*
X-268734Y-88391D01*
X-267609Y-87266D01*
X-267000Y-85796D01*
Y-84204D01*
X-267609Y-82734D01*
X-268734Y-81609D01*
X-270204Y-81000D01*
D02*
G37*
G36*
X-189204Y-82000D02*
X-190796D01*
X-192266Y-82609D01*
X-193000Y-83343D01*
X-193734Y-82609D01*
X-195204Y-82000D01*
X-196796D01*
X-198266Y-82609D01*
X-199391Y-83734D01*
X-200000Y-85204D01*
Y-85793D01*
X-200779Y-87221D01*
X-202207Y-88000D01*
X-202796D01*
X-204266Y-88609D01*
X-205391Y-89734D01*
X-206000Y-91204D01*
Y-91793D01*
X-206779Y-93221D01*
X-208207Y-94000D01*
X-208796D01*
X-210266Y-94609D01*
X-211391Y-95734D01*
X-212000Y-97204D01*
Y-97793D01*
X-212779Y-99221D01*
X-214207Y-100000D01*
X-214796D01*
X-216266Y-100609D01*
X-217391Y-101734D01*
X-218000Y-103204D01*
Y-103793D01*
X-218779Y-105221D01*
X-220207Y-106000D01*
X-220796D01*
X-222266Y-106609D01*
X-223391Y-107734D01*
X-224000Y-109204D01*
Y-110796D01*
X-223391Y-112266D01*
X-222266Y-113391D01*
X-220796Y-114000D01*
X-220207D01*
X-218779Y-114779D01*
X-218000Y-116207D01*
Y-116796D01*
X-217391Y-118266D01*
X-216266Y-119391D01*
X-214796Y-120000D01*
X-213204D01*
X-211734Y-119391D01*
X-210609Y-118266D01*
X-210000Y-116796D01*
Y-115204D01*
X-210609Y-113734D01*
X-211343Y-113000D01*
X-210609Y-112266D01*
X-210000Y-110796D01*
Y-110207D01*
X-209221Y-108779D01*
X-207793Y-108000D01*
X-207204D01*
X-205734Y-107391D01*
X-204609Y-106266D01*
X-204000Y-104796D01*
Y-104207D01*
X-203221Y-102779D01*
X-201793Y-102000D01*
X-201204D01*
X-199734Y-101391D01*
X-199000Y-100657D01*
X-198266Y-101391D01*
X-196796Y-102000D01*
X-195204D01*
X-193734Y-101391D01*
X-193000Y-100657D01*
X-192266Y-101391D01*
X-190796Y-102000D01*
X-189204D01*
X-187734Y-101391D01*
X-186609Y-100266D01*
X-186000Y-98796D01*
Y-97204D01*
X-186609Y-95734D01*
X-187343Y-95000D01*
X-186609Y-94266D01*
X-186000Y-92796D01*
Y-91204D01*
X-186609Y-89734D01*
X-187343Y-89000D01*
X-186609Y-88266D01*
X-186000Y-86796D01*
Y-85204D01*
X-186609Y-83734D01*
X-187734Y-82609D01*
X-189204Y-82000D01*
D02*
G37*
G36*
X256996Y-77000D02*
X255504D01*
X254126Y-77571D01*
X253071Y-78626D01*
X252500Y-80004D01*
Y-81496D01*
X253071Y-82874D01*
X254126Y-83929D01*
X255504Y-84500D01*
X256996D01*
X258374Y-83929D01*
X259429Y-82874D01*
X260000Y-81496D01*
Y-80004D01*
X259429Y-78626D01*
X258374Y-77571D01*
X256996Y-77000D01*
D02*
G37*
G36*
X206428Y-81932D02*
X204936D01*
X203558Y-82503D01*
X202503Y-83558D01*
X201932Y-84936D01*
Y-86428D01*
X202503Y-87806D01*
X203558Y-88861D01*
X204936Y-89432D01*
X206428D01*
X207806Y-88861D01*
X208861Y-87806D01*
X209432Y-86428D01*
Y-84936D01*
X208861Y-83558D01*
X207806Y-82503D01*
X206428Y-81932D01*
D02*
G37*
G36*
X282746Y-74500D02*
X281254D01*
X279876Y-75071D01*
X278821Y-76126D01*
X278250Y-77504D01*
Y-78996D01*
X278821Y-80374D01*
X279876Y-81429D01*
X281254Y-82000D01*
X282661D01*
X282887Y-82241D01*
X284018Y-84179D01*
X283821Y-84376D01*
X283250Y-85754D01*
Y-87246D01*
X283821Y-88624D01*
X284876Y-89679D01*
X286254Y-90250D01*
X287746D01*
X289124Y-89679D01*
X290179Y-88624D01*
X290750Y-87246D01*
Y-85754D01*
X290179Y-84376D01*
X289124Y-83321D01*
X287746Y-82750D01*
X286339D01*
X286113Y-82509D01*
X284982Y-80571D01*
X285179Y-80374D01*
X285750Y-78996D01*
Y-77504D01*
X285179Y-76126D01*
X284124Y-75071D01*
X282746Y-74500D01*
D02*
G37*
G36*
X185781Y-81068D02*
X184290D01*
X182911Y-81639D01*
X181856Y-82694D01*
X181286Y-84072D01*
Y-85564D01*
X181856Y-86942D01*
X182911Y-87997D01*
X184290Y-88568D01*
X184889D01*
X186321Y-89542D01*
X187000Y-90769D01*
Y-91496D01*
X187571Y-92874D01*
X188626Y-93929D01*
X190004Y-94500D01*
X191496D01*
X192874Y-93929D01*
X193929Y-92874D01*
X194500Y-91496D01*
Y-90004D01*
X193929Y-88626D01*
X192874Y-87571D01*
X191496Y-87000D01*
X190897D01*
X189465Y-86026D01*
X188785Y-84799D01*
Y-84072D01*
X188215Y-82694D01*
X187160Y-81639D01*
X185781Y-81068D01*
D02*
G37*
G36*
X37296Y-94750D02*
X35704D01*
X34234Y-95359D01*
X33500Y-96093D01*
X32766Y-95359D01*
X31296Y-94750D01*
X29704D01*
X28234Y-95359D01*
X27109Y-96484D01*
X26500Y-97954D01*
Y-99546D01*
X27109Y-101016D01*
X27843Y-101750D01*
X27109Y-102484D01*
X26500Y-103954D01*
Y-105546D01*
X27109Y-107016D01*
X27843Y-107750D01*
X27109Y-108484D01*
X26500Y-109954D01*
Y-111546D01*
X27109Y-113016D01*
X28234Y-114141D01*
X29704Y-114750D01*
X31296D01*
X32766Y-114141D01*
X33500Y-113407D01*
X34234Y-114141D01*
X35704Y-114750D01*
X37296D01*
X38766Y-114141D01*
X39891Y-113016D01*
X40500Y-111546D01*
Y-109954D01*
X39891Y-108484D01*
X39157Y-107750D01*
X39891Y-107016D01*
X40500Y-105546D01*
Y-103954D01*
X39891Y-102484D01*
X39157Y-101750D01*
X39891Y-101016D01*
X40500Y-99546D01*
Y-97954D01*
X39891Y-96484D01*
X38766Y-95359D01*
X37296Y-94750D01*
D02*
G37*
G36*
X106296Y-95250D02*
X104704D01*
X103234Y-95859D01*
X102500Y-96593D01*
X101766Y-95859D01*
X100296Y-95250D01*
X98704D01*
X97234Y-95859D01*
X96109Y-96984D01*
X95500Y-98454D01*
Y-100046D01*
X96109Y-101516D01*
X96843Y-102250D01*
X96109Y-102984D01*
X95500Y-104454D01*
Y-106046D01*
X96109Y-107516D01*
X96843Y-108250D01*
X96109Y-108984D01*
X95500Y-110454D01*
Y-112046D01*
X96109Y-113516D01*
X97234Y-114641D01*
X98704Y-115250D01*
X100296D01*
X101766Y-114641D01*
X102500Y-113907D01*
X103234Y-114641D01*
X104704Y-115250D01*
X106296D01*
X107766Y-114641D01*
X108891Y-113516D01*
X109500Y-112046D01*
Y-110454D01*
X108891Y-108984D01*
X108157Y-108250D01*
X108891Y-107516D01*
X109500Y-106046D01*
Y-104454D01*
X108891Y-102984D01*
X108157Y-102250D01*
X108891Y-101516D01*
X109500Y-100046D01*
Y-98454D01*
X108891Y-96984D01*
X107766Y-95859D01*
X106296Y-95250D01*
D02*
G37*
G36*
X150246Y-90250D02*
X148754D01*
X147376Y-90821D01*
X146321Y-91876D01*
X145750Y-93254D01*
Y-94746D01*
X146321Y-96124D01*
X146759Y-96562D01*
X146321Y-97001D01*
X145750Y-98379D01*
Y-99871D01*
X146321Y-101249D01*
X147376Y-102304D01*
X148754Y-102875D01*
X150246D01*
X151624Y-102304D01*
X152679Y-101249D01*
X153250Y-99871D01*
Y-98379D01*
X152679Y-97001D01*
X152241Y-96562D01*
X152679Y-96124D01*
X153250Y-94746D01*
Y-93254D01*
X152679Y-91876D01*
X151624Y-90821D01*
X150246Y-90250D01*
D02*
G37*
G36*
X257794Y-98750D02*
X255706D01*
X253776Y-99549D01*
X252299Y-101026D01*
X251500Y-102956D01*
Y-105044D01*
X252299Y-106974D01*
X252450Y-107125D01*
X252299Y-107276D01*
X251500Y-109206D01*
Y-111294D01*
X252299Y-113224D01*
X253776Y-114701D01*
X255706Y-115500D01*
X257794D01*
X259724Y-114701D01*
X261201Y-113224D01*
X262000Y-111294D01*
Y-109206D01*
X261201Y-107276D01*
X261050Y-107125D01*
X261201Y-106974D01*
X262000Y-105044D01*
Y-102956D01*
X261201Y-101026D01*
X259724Y-99549D01*
X257794Y-98750D01*
D02*
G37*
G36*
X3496Y-109250D02*
X2004D01*
X626Y-109821D01*
X-429Y-110876D01*
X-1000Y-112254D01*
Y-113746D01*
X-429Y-115124D01*
X626Y-116179D01*
X2004Y-116750D01*
X3496D01*
X4874Y-116179D01*
X5929Y-115124D01*
X6500Y-113746D01*
Y-112254D01*
X5929Y-110876D01*
X4874Y-109821D01*
X3496Y-109250D01*
D02*
G37*
G36*
X-24254D02*
X-25746D01*
X-27124Y-109821D01*
X-28179Y-110876D01*
X-28750Y-112254D01*
Y-113746D01*
X-28179Y-115124D01*
X-27124Y-116179D01*
X-25746Y-116750D01*
X-24254D01*
X-22876Y-116179D01*
X-21821Y-115124D01*
X-21250Y-113746D01*
Y-112254D01*
X-21821Y-110876D01*
X-22876Y-109821D01*
X-24254Y-109250D01*
D02*
G37*
G36*
X-115254Y-115250D02*
X-116746D01*
X-118124Y-115821D01*
X-119179Y-116876D01*
X-119750Y-118254D01*
Y-119746D01*
X-119179Y-121124D01*
X-118124Y-122179D01*
X-116746Y-122750D01*
X-115254D01*
X-113876Y-122179D01*
X-112821Y-121124D01*
X-112250Y-119746D01*
Y-118254D01*
X-112821Y-116876D01*
X-113876Y-115821D01*
X-115254Y-115250D01*
D02*
G37*
G36*
X281544Y-98750D02*
X279456D01*
X277526Y-99549D01*
X276049Y-101026D01*
X275250Y-102956D01*
Y-105044D01*
X276049Y-106974D01*
X276200Y-107125D01*
X276049Y-107276D01*
X275250Y-109206D01*
Y-111294D01*
X276049Y-113224D01*
X277526Y-114701D01*
X279456Y-115500D01*
X281544D01*
X282171Y-115240D01*
X283467Y-116722D01*
X283752Y-117291D01*
X283250Y-118504D01*
Y-119996D01*
X283821Y-121374D01*
X284876Y-122429D01*
X286254Y-123000D01*
X287746D01*
X289124Y-122429D01*
X290179Y-121374D01*
X290750Y-119996D01*
Y-118504D01*
X290179Y-117126D01*
X289124Y-116071D01*
X287746Y-115500D01*
X286254D01*
X286179Y-115531D01*
X284763Y-113412D01*
X284951Y-113224D01*
X285750Y-111294D01*
Y-109206D01*
X284951Y-107276D01*
X284800Y-107125D01*
X284951Y-106974D01*
X285750Y-105044D01*
Y-102956D01*
X284951Y-101026D01*
X283474Y-99549D01*
X281544Y-98750D01*
D02*
G37*
G36*
X210746Y-116250D02*
X209254D01*
X207876Y-116821D01*
X206821Y-117876D01*
X206250Y-119254D01*
Y-120746D01*
X206821Y-122124D01*
X207876Y-123179D01*
X209254Y-123750D01*
X210746D01*
X212124Y-123179D01*
X213179Y-122124D01*
X213750Y-120746D01*
Y-119254D01*
X213179Y-117876D01*
X212124Y-116821D01*
X210746Y-116250D01*
D02*
G37*
G36*
X172746D02*
X171254D01*
X169876Y-116821D01*
X168821Y-117876D01*
X168250Y-119254D01*
Y-120746D01*
X168821Y-122124D01*
X169876Y-123179D01*
X171254Y-123750D01*
X172746D01*
X174124Y-123179D01*
X175179Y-122124D01*
X175750Y-120746D01*
Y-119254D01*
X175179Y-117876D01*
X174124Y-116821D01*
X172746Y-116250D01*
D02*
G37*
G36*
X-146204Y-81000D02*
X-147796D01*
X-149266Y-81609D01*
X-150391Y-82734D01*
X-151000Y-84204D01*
Y-85796D01*
X-150391Y-87266D01*
X-149657Y-88000D01*
X-150391Y-88734D01*
X-151000Y-90204D01*
Y-91796D01*
X-150391Y-93266D01*
X-149657Y-94000D01*
X-150391Y-94734D01*
X-151000Y-96204D01*
Y-97796D01*
X-150391Y-99266D01*
X-149657Y-100000D01*
X-150391Y-100734D01*
X-151000Y-102204D01*
Y-103796D01*
X-150391Y-105266D01*
X-149657Y-106000D01*
X-150391Y-106734D01*
X-151000Y-108204D01*
Y-109796D01*
X-150391Y-111266D01*
X-149657Y-112000D01*
X-150391Y-112734D01*
X-151000Y-114204D01*
Y-115796D01*
X-150391Y-117266D01*
X-149657Y-118000D01*
X-150391Y-118734D01*
X-151000Y-120204D01*
Y-121796D01*
X-150391Y-123266D01*
X-149266Y-124391D01*
X-147796Y-125000D01*
X-146204D01*
X-144734Y-124391D01*
X-144000Y-123657D01*
X-143266Y-124391D01*
X-141796Y-125000D01*
X-140204D01*
X-138734Y-124391D01*
X-137609Y-123266D01*
X-137000Y-121796D01*
Y-120204D01*
X-137609Y-118734D01*
X-138343Y-118000D01*
X-137609Y-117266D01*
X-137000Y-115796D01*
Y-114204D01*
X-137609Y-112734D01*
X-138343Y-112000D01*
X-137609Y-111266D01*
X-137000Y-109796D01*
Y-108204D01*
X-137609Y-106734D01*
X-138343Y-106000D01*
X-137609Y-105266D01*
X-137000Y-103796D01*
Y-103207D01*
X-136221Y-101779D01*
X-134793Y-101000D01*
X-134204D01*
X-132734Y-100391D01*
X-131609Y-99266D01*
X-131000Y-97796D01*
Y-96204D01*
X-131609Y-94734D01*
X-132734Y-93609D01*
X-134204Y-93000D01*
X-134793D01*
X-136221Y-92221D01*
X-137000Y-90793D01*
Y-90204D01*
X-137609Y-88734D01*
X-138734Y-87609D01*
X-140204Y-87000D01*
X-140793D01*
X-142221Y-86221D01*
X-143000Y-84793D01*
Y-84204D01*
X-143609Y-82734D01*
X-144734Y-81609D01*
X-146204Y-81000D01*
D02*
G37*
G36*
X-18754Y-125250D02*
X-20246D01*
X-21624Y-125821D01*
X-22679Y-126876D01*
X-23250Y-128254D01*
Y-129746D01*
X-22679Y-131124D01*
X-21624Y-132179D01*
X-20246Y-132750D01*
X-18754D01*
X-17376Y-132179D01*
X-16321Y-131124D01*
X-15750Y-129746D01*
Y-128254D01*
X-16321Y-126876D01*
X-17376Y-125821D01*
X-18754Y-125250D01*
D02*
G37*
G36*
X256746Y-137000D02*
X255254D01*
X253876Y-137571D01*
X252821Y-138626D01*
X252250Y-140004D01*
Y-141496D01*
X252821Y-142874D01*
X253876Y-143929D01*
X255254Y-144500D01*
X256746D01*
X258124Y-143929D01*
X259179Y-142874D01*
X259750Y-141496D01*
Y-140004D01*
X259179Y-138626D01*
X258124Y-137571D01*
X256746Y-137000D01*
D02*
G37*
G36*
X242496D02*
X241004D01*
X239626Y-137571D01*
X238571Y-138626D01*
X238000Y-140004D01*
Y-141496D01*
X238571Y-142874D01*
X239626Y-143929D01*
X241004Y-144500D01*
X242496D01*
X243874Y-143929D01*
X244929Y-142874D01*
X245500Y-141496D01*
Y-140004D01*
X244929Y-138626D01*
X243874Y-137571D01*
X242496Y-137000D01*
D02*
G37*
G36*
X316144Y-127050D02*
X313856D01*
X311743Y-127925D01*
X310125Y-129543D01*
X309250Y-131656D01*
Y-133944D01*
X310125Y-136057D01*
X310904Y-136836D01*
X309869Y-139336D01*
X306000D01*
X304042Y-139593D01*
X302217Y-140349D01*
X300651Y-141551D01*
X299448Y-143118D01*
X298693Y-144942D01*
X298632Y-145400D01*
X310000D01*
X321367D01*
X321307Y-144942D01*
X320551Y-143118D01*
X319349Y-141551D01*
X317975Y-140497D01*
X317862Y-139592D01*
X318057Y-137757D01*
X318257Y-137674D01*
X319875Y-136057D01*
X320750Y-133944D01*
Y-131656D01*
X319875Y-129543D01*
X318257Y-127925D01*
X316144Y-127050D01*
D02*
G37*
G36*
X352801Y-138327D02*
X350300D01*
X348082Y-138619D01*
X346014Y-139475D01*
X344238Y-140838D01*
X342876Y-142614D01*
X342019Y-144681D01*
X341925Y-145400D01*
X352801D01*
Y-138327D01*
D02*
G37*
G36*
X117746Y-137875D02*
X116254D01*
X114876Y-138446D01*
X113821Y-139501D01*
X113250Y-140879D01*
Y-142371D01*
X113821Y-143749D01*
X114134Y-144062D01*
X113821Y-144376D01*
X113250Y-145754D01*
Y-147246D01*
X113821Y-148624D01*
X114876Y-149679D01*
X116254Y-150250D01*
X117746D01*
X119124Y-149679D01*
X120179Y-148624D01*
X120750Y-147246D01*
Y-145754D01*
X120179Y-144376D01*
X119866Y-144062D01*
X120179Y-143749D01*
X120750Y-142371D01*
Y-140879D01*
X120179Y-139501D01*
X119124Y-138446D01*
X117746Y-137875D01*
D02*
G37*
G36*
X321367Y-148400D02*
X311500D01*
Y-154465D01*
X314000D01*
X315958Y-154207D01*
X317782Y-153451D01*
X319349Y-152249D01*
X320551Y-150683D01*
X321307Y-148858D01*
X321367Y-148400D01*
D02*
G37*
G36*
X308500D02*
X298632D01*
X298693Y-148858D01*
X299448Y-150683D01*
X300651Y-152249D01*
X302217Y-153451D01*
X304042Y-154207D01*
X306000Y-154465D01*
X308500D01*
Y-148400D01*
D02*
G37*
G36*
X210996Y-147750D02*
X209504D01*
X208126Y-148321D01*
X207071Y-149376D01*
X206500Y-150754D01*
Y-152246D01*
X207071Y-153624D01*
X208126Y-154679D01*
X209504Y-155250D01*
X210996D01*
X212374Y-154679D01*
X213429Y-153624D01*
X214000Y-152246D01*
Y-150754D01*
X213429Y-149376D01*
X212374Y-148321D01*
X210996Y-147750D01*
D02*
G37*
G36*
X185496D02*
X184004D01*
X182626Y-148321D01*
X181571Y-149376D01*
X181000Y-150754D01*
Y-152246D01*
X181571Y-153624D01*
X182626Y-154679D01*
X184004Y-155250D01*
X185496D01*
X186874Y-154679D01*
X187929Y-153624D01*
X188500Y-152246D01*
Y-150754D01*
X187929Y-149376D01*
X186874Y-148321D01*
X185496Y-147750D01*
D02*
G37*
G36*
X352801Y-148400D02*
X341925D01*
X342019Y-149119D01*
X342876Y-151187D01*
X344238Y-152963D01*
X346014Y-154325D01*
X348082Y-155182D01*
X350300Y-155474D01*
X352801D01*
Y-148400D01*
D02*
G37*
G36*
X-43254Y-153250D02*
X-44746D01*
X-46124Y-153821D01*
X-47179Y-154876D01*
X-47750Y-156254D01*
Y-157746D01*
X-47179Y-159124D01*
X-46124Y-160179D01*
X-44746Y-160750D01*
X-43254D01*
X-41876Y-160179D01*
X-40821Y-159124D01*
X-40250Y-157746D01*
Y-156254D01*
X-40821Y-154876D01*
X-41876Y-153821D01*
X-43254Y-153250D01*
D02*
G37*
G36*
X-145254D02*
X-146746D01*
X-148124Y-153821D01*
X-149179Y-154876D01*
X-149750Y-156254D01*
Y-157746D01*
X-149179Y-159124D01*
X-148124Y-160179D01*
X-146746Y-160750D01*
X-145254D01*
X-143876Y-160179D01*
X-142821Y-159124D01*
X-142250Y-157746D01*
Y-156254D01*
X-142821Y-154876D01*
X-143876Y-153821D01*
X-145254Y-153250D01*
D02*
G37*
G36*
X-247254D02*
X-248746D01*
X-250124Y-153821D01*
X-251179Y-154876D01*
X-251750Y-156254D01*
Y-157746D01*
X-251179Y-159124D01*
X-250124Y-160179D01*
X-248746Y-160750D01*
X-247254D01*
X-245876Y-160179D01*
X-244821Y-159124D01*
X-244250Y-157746D01*
Y-156254D01*
X-244821Y-154876D01*
X-245876Y-153821D01*
X-247254Y-153250D01*
D02*
G37*
G36*
X3496Y-155250D02*
X2004D01*
X626Y-155821D01*
X-429Y-156876D01*
X-1000Y-158254D01*
Y-159746D01*
X-429Y-161124D01*
X626Y-162179D01*
X2004Y-162750D01*
X3496D01*
X4874Y-162179D01*
X5929Y-161124D01*
X6500Y-159746D01*
Y-158254D01*
X5929Y-156876D01*
X4874Y-155821D01*
X3496Y-155250D01*
D02*
G37*
G36*
X-24254D02*
X-25746D01*
X-27124Y-155821D01*
X-28179Y-156876D01*
X-28750Y-158254D01*
Y-159746D01*
X-28179Y-161124D01*
X-27124Y-162179D01*
X-25746Y-162750D01*
X-24254D01*
X-22876Y-162179D01*
X-21821Y-161124D01*
X-21250Y-159746D01*
Y-158254D01*
X-21821Y-156876D01*
X-22876Y-155821D01*
X-24254Y-155250D01*
D02*
G37*
G36*
X199746Y-161250D02*
X198254D01*
X196876Y-161821D01*
X195821Y-162876D01*
X195250Y-164254D01*
Y-165746D01*
X195821Y-167124D01*
X196876Y-168179D01*
X198254Y-168750D01*
X199746D01*
X201124Y-168179D01*
X202179Y-167124D01*
X202750Y-165746D01*
Y-164254D01*
X202179Y-162876D01*
X201124Y-161821D01*
X199746Y-161250D01*
D02*
G37*
G36*
X174746D02*
X173254D01*
X171876Y-161821D01*
X170821Y-162876D01*
X170250Y-164254D01*
Y-165746D01*
X170821Y-167124D01*
X171876Y-168179D01*
X173254Y-168750D01*
X174746D01*
X176124Y-168179D01*
X177179Y-167124D01*
X177750Y-165746D01*
Y-164254D01*
X177179Y-162876D01*
X176124Y-161821D01*
X174746Y-161250D01*
D02*
G37*
G36*
X-8254Y-177000D02*
X-9746D01*
X-11124Y-177571D01*
X-12179Y-178626D01*
X-12750Y-180004D01*
Y-181496D01*
X-12179Y-182874D01*
X-11124Y-183929D01*
X-9746Y-184500D01*
X-8254D01*
X-6876Y-183929D01*
X-5821Y-182874D01*
X-5250Y-181496D01*
Y-180004D01*
X-5821Y-178626D01*
X-6876Y-177571D01*
X-8254Y-177000D01*
D02*
G37*
G36*
X-44204Y-184000D02*
X-45796D01*
X-47266Y-184609D01*
X-48000Y-185343D01*
X-48734Y-184609D01*
X-50204Y-184000D01*
X-51796D01*
X-53266Y-184609D01*
X-54000Y-185343D01*
X-54734Y-184609D01*
X-56204Y-184000D01*
X-57796D01*
X-59266Y-184609D01*
X-60000Y-185343D01*
X-60734Y-184609D01*
X-62204Y-184000D01*
X-63796D01*
X-65266Y-184609D01*
X-66000Y-185343D01*
X-66734Y-184609D01*
X-68204Y-184000D01*
X-69796D01*
X-71266Y-184609D01*
X-72000Y-185343D01*
X-72734Y-184609D01*
X-74204Y-184000D01*
X-75796D01*
X-77266Y-184609D01*
X-78000Y-185343D01*
X-78734Y-184609D01*
X-80204Y-184000D01*
X-81796D01*
X-83266Y-184609D01*
X-84391Y-185734D01*
X-85000Y-187204D01*
Y-188796D01*
X-84391Y-190266D01*
X-83657Y-191000D01*
X-84391Y-191734D01*
X-85000Y-193204D01*
Y-194796D01*
X-84391Y-196266D01*
X-83657Y-197000D01*
X-84391Y-197734D01*
X-85000Y-199204D01*
Y-200796D01*
X-84391Y-202266D01*
X-83657Y-203000D01*
X-84391Y-203734D01*
X-85000Y-205204D01*
Y-206796D01*
X-84391Y-208266D01*
X-83657Y-209000D01*
X-84391Y-209734D01*
X-85000Y-211204D01*
Y-212796D01*
X-84391Y-214266D01*
X-83266Y-215391D01*
X-81796Y-216000D01*
X-80204D01*
X-78734Y-215391D01*
X-78000Y-214657D01*
X-77266Y-215391D01*
X-75796Y-216000D01*
X-74204D01*
X-72734Y-215391D01*
X-72000Y-214657D01*
X-71266Y-215391D01*
X-69796Y-216000D01*
X-68204D01*
X-66734Y-215391D01*
X-66000Y-214657D01*
X-65266Y-215391D01*
X-63796Y-216000D01*
X-62204D01*
X-60734Y-215391D01*
X-60000Y-214657D01*
X-59266Y-215391D01*
X-57796Y-216000D01*
X-56204D01*
X-54734Y-215391D01*
X-54000Y-214657D01*
X-53266Y-215391D01*
X-51796Y-216000D01*
X-50204D01*
X-48734Y-215391D01*
X-48000Y-214657D01*
X-47266Y-215391D01*
X-45796Y-216000D01*
X-44204D01*
X-42734Y-215391D01*
X-41609Y-214266D01*
X-41000Y-212796D01*
Y-211204D01*
X-41609Y-209734D01*
X-42343Y-209000D01*
X-41609Y-208266D01*
X-41000Y-206796D01*
Y-205204D01*
X-41609Y-203734D01*
X-42343Y-203000D01*
X-41609Y-202266D01*
X-41000Y-200796D01*
Y-199204D01*
X-41609Y-197734D01*
X-42343Y-197000D01*
X-41609Y-196266D01*
X-41000Y-194796D01*
Y-193204D01*
X-41609Y-191734D01*
X-42343Y-191000D01*
X-41609Y-190266D01*
X-41000Y-188796D01*
Y-187204D01*
X-41609Y-185734D01*
X-42734Y-184609D01*
X-44204Y-184000D01*
D02*
G37*
G36*
X-146204D02*
X-147796D01*
X-149266Y-184609D01*
X-150000Y-185343D01*
X-150734Y-184609D01*
X-152204Y-184000D01*
X-153796D01*
X-155266Y-184609D01*
X-156000Y-185343D01*
X-156734Y-184609D01*
X-158204Y-184000D01*
X-159796D01*
X-161266Y-184609D01*
X-162000Y-185343D01*
X-162734Y-184609D01*
X-164204Y-184000D01*
X-165796D01*
X-167266Y-184609D01*
X-168000Y-185343D01*
X-168734Y-184609D01*
X-170204Y-184000D01*
X-171796D01*
X-173266Y-184609D01*
X-174000Y-185343D01*
X-174734Y-184609D01*
X-176204Y-184000D01*
X-177796D01*
X-179266Y-184609D01*
X-180000Y-185343D01*
X-180734Y-184609D01*
X-182204Y-184000D01*
X-183796D01*
X-185266Y-184609D01*
X-186391Y-185734D01*
X-187000Y-187204D01*
Y-188796D01*
X-186391Y-190266D01*
X-185657Y-191000D01*
X-186391Y-191734D01*
X-187000Y-193204D01*
Y-194796D01*
X-186391Y-196266D01*
X-185657Y-197000D01*
X-186391Y-197734D01*
X-187000Y-199204D01*
Y-200796D01*
X-186391Y-202266D01*
X-185657Y-203000D01*
X-186391Y-203734D01*
X-187000Y-205204D01*
Y-206796D01*
X-186391Y-208266D01*
X-185657Y-209000D01*
X-186391Y-209734D01*
X-187000Y-211204D01*
Y-212796D01*
X-186391Y-214266D01*
X-185266Y-215391D01*
X-183796Y-216000D01*
X-182204D01*
X-180734Y-215391D01*
X-180000Y-214657D01*
X-179266Y-215391D01*
X-177796Y-216000D01*
X-176204D01*
X-174734Y-215391D01*
X-174000Y-214657D01*
X-173266Y-215391D01*
X-171796Y-216000D01*
X-170204D01*
X-168734Y-215391D01*
X-168000Y-214657D01*
X-167266Y-215391D01*
X-165796Y-216000D01*
X-164204D01*
X-162734Y-215391D01*
X-162000Y-214657D01*
X-161266Y-215391D01*
X-159796Y-216000D01*
X-158204D01*
X-156734Y-215391D01*
X-156000Y-214657D01*
X-155266Y-215391D01*
X-153796Y-216000D01*
X-152204D01*
X-150734Y-215391D01*
X-150000Y-214657D01*
X-149266Y-215391D01*
X-147796Y-216000D01*
X-146204D01*
X-144734Y-215391D01*
X-143609Y-214266D01*
X-143000Y-212796D01*
Y-211204D01*
X-143609Y-209734D01*
X-144343Y-209000D01*
X-143609Y-208266D01*
X-143000Y-206796D01*
Y-205204D01*
X-143609Y-203734D01*
X-144343Y-203000D01*
X-143609Y-202266D01*
X-143000Y-200796D01*
Y-199204D01*
X-143609Y-197734D01*
X-144343Y-197000D01*
X-143609Y-196266D01*
X-143000Y-194796D01*
Y-193204D01*
X-143609Y-191734D01*
X-144343Y-191000D01*
X-143609Y-190266D01*
X-143000Y-188796D01*
Y-187204D01*
X-143609Y-185734D01*
X-144734Y-184609D01*
X-146204Y-184000D01*
D02*
G37*
G36*
X-248204D02*
X-249796D01*
X-251266Y-184609D01*
X-252000Y-185343D01*
X-252734Y-184609D01*
X-254204Y-184000D01*
X-255796D01*
X-257266Y-184609D01*
X-258000Y-185343D01*
X-258734Y-184609D01*
X-260204Y-184000D01*
X-261796D01*
X-263266Y-184609D01*
X-264000Y-185343D01*
X-264734Y-184609D01*
X-266204Y-184000D01*
X-267796D01*
X-269266Y-184609D01*
X-270000Y-185343D01*
X-270734Y-184609D01*
X-272204Y-184000D01*
X-273796D01*
X-275266Y-184609D01*
X-276000Y-185343D01*
X-276734Y-184609D01*
X-278204Y-184000D01*
X-279796D01*
X-281266Y-184609D01*
X-282000Y-185343D01*
X-282734Y-184609D01*
X-284204Y-184000D01*
X-285796D01*
X-287266Y-184609D01*
X-288391Y-185734D01*
X-289000Y-187204D01*
Y-188796D01*
X-288391Y-190266D01*
X-287657Y-191000D01*
X-288391Y-191734D01*
X-289000Y-193204D01*
Y-194796D01*
X-288391Y-196266D01*
X-287657Y-197000D01*
X-288391Y-197734D01*
X-289000Y-199204D01*
Y-200796D01*
X-288391Y-202266D01*
X-287657Y-203000D01*
X-288391Y-203734D01*
X-289000Y-205204D01*
Y-206796D01*
X-288391Y-208266D01*
X-287657Y-209000D01*
X-288391Y-209734D01*
X-289000Y-211204D01*
Y-212796D01*
X-288391Y-214266D01*
X-287266Y-215391D01*
X-285796Y-216000D01*
X-284204D01*
X-282734Y-215391D01*
X-282000Y-214657D01*
X-281266Y-215391D01*
X-279796Y-216000D01*
X-278204D01*
X-276734Y-215391D01*
X-276000Y-214657D01*
X-275266Y-215391D01*
X-273796Y-216000D01*
X-272204D01*
X-270734Y-215391D01*
X-270000Y-214657D01*
X-269266Y-215391D01*
X-267796Y-216000D01*
X-266204D01*
X-264734Y-215391D01*
X-264000Y-214657D01*
X-263266Y-215391D01*
X-261796Y-216000D01*
X-260204D01*
X-258734Y-215391D01*
X-258000Y-214657D01*
X-257266Y-215391D01*
X-255796Y-216000D01*
X-254204D01*
X-252734Y-215391D01*
X-252000Y-214657D01*
X-251266Y-215391D01*
X-249796Y-216000D01*
X-248204D01*
X-246734Y-215391D01*
X-245609Y-214266D01*
X-245000Y-212796D01*
Y-211204D01*
X-245609Y-209734D01*
X-246343Y-209000D01*
X-245609Y-208266D01*
X-245000Y-206796D01*
Y-205204D01*
X-245609Y-203734D01*
X-246343Y-203000D01*
X-245609Y-202266D01*
X-245000Y-200796D01*
Y-199204D01*
X-245609Y-197734D01*
X-246343Y-197000D01*
X-245609Y-196266D01*
X-245000Y-194796D01*
Y-193204D01*
X-245609Y-191734D01*
X-246343Y-191000D01*
X-245609Y-190266D01*
X-245000Y-188796D01*
Y-187204D01*
X-245609Y-185734D01*
X-246734Y-184609D01*
X-248204Y-184000D01*
D02*
G37*
G36*
X325746Y-189250D02*
X324254D01*
X322876Y-189821D01*
X321821Y-190876D01*
X321250Y-192254D01*
Y-193746D01*
X321821Y-195124D01*
X322876Y-196179D01*
X324254Y-196750D01*
X325746D01*
X327124Y-196179D01*
X328179Y-195124D01*
X328750Y-193746D01*
Y-192254D01*
X328179Y-190876D01*
X327124Y-189821D01*
X325746Y-189250D01*
D02*
G37*
G36*
X144746Y-200000D02*
X143254D01*
X141876Y-200571D01*
X140821Y-201626D01*
X140250Y-203004D01*
Y-204496D01*
X140821Y-205874D01*
X141876Y-206929D01*
X143254Y-207500D01*
X144746D01*
X146124Y-206929D01*
X147179Y-205874D01*
X147750Y-204496D01*
Y-203004D01*
X147179Y-201626D01*
X146124Y-200571D01*
X144746Y-200000D01*
D02*
G37*
G36*
X3496Y-201250D02*
X2004D01*
X626Y-201821D01*
X-429Y-202876D01*
X-1000Y-204254D01*
Y-205746D01*
X-429Y-207124D01*
X626Y-208179D01*
X2004Y-208750D01*
X3496D01*
X4874Y-208179D01*
X5929Y-207124D01*
X6500Y-205746D01*
Y-204254D01*
X5929Y-202876D01*
X4874Y-201821D01*
X3496Y-201250D01*
D02*
G37*
G36*
X-24254D02*
X-25746D01*
X-27124Y-201821D01*
X-28179Y-202876D01*
X-28750Y-204254D01*
Y-205746D01*
X-28179Y-207124D01*
X-27124Y-208179D01*
X-25746Y-208750D01*
X-24254D01*
X-22876Y-208179D01*
X-21821Y-207124D01*
X-21250Y-205746D01*
Y-204254D01*
X-21821Y-202876D01*
X-22876Y-201821D01*
X-24254Y-201250D01*
D02*
G37*
G36*
X117746Y-204750D02*
X116254D01*
X114876Y-205321D01*
X113821Y-206376D01*
X113250Y-207754D01*
Y-209246D01*
X113821Y-210624D01*
X114072Y-210875D01*
X113821Y-211126D01*
X113250Y-212504D01*
Y-213996D01*
X113821Y-215374D01*
X114876Y-216429D01*
X116254Y-217000D01*
X117746D01*
X119124Y-216429D01*
X120179Y-215374D01*
X120750Y-213996D01*
Y-212504D01*
X120179Y-211126D01*
X119928Y-210875D01*
X120179Y-210624D01*
X120750Y-209246D01*
Y-207754D01*
X120179Y-206376D01*
X119124Y-205321D01*
X117746Y-204750D01*
D02*
G37*
G36*
X229746Y-213250D02*
X228254D01*
X226876Y-213821D01*
X225821Y-214876D01*
X225250Y-216254D01*
Y-217746D01*
X225821Y-219124D01*
X226876Y-220179D01*
X228254Y-220750D01*
X229746D01*
X231124Y-220179D01*
X232179Y-219124D01*
X232750Y-217746D01*
Y-216254D01*
X232179Y-214876D01*
X231124Y-213821D01*
X229746Y-213250D01*
D02*
G37*
G36*
X-247504Y-227000D02*
X-248996D01*
X-250374Y-227571D01*
X-251429Y-228626D01*
X-252000Y-230004D01*
Y-231496D01*
X-251429Y-232874D01*
X-250374Y-233929D01*
X-248996Y-234500D01*
X-247504D01*
X-246126Y-233929D01*
X-245071Y-232874D01*
X-244500Y-231496D01*
Y-230004D01*
X-245071Y-228626D01*
X-246126Y-227571D01*
X-247504Y-227000D01*
D02*
G37*
G36*
X-43254Y-227250D02*
X-44746D01*
X-46124Y-227821D01*
X-47179Y-228876D01*
X-47750Y-230254D01*
Y-231746D01*
X-47179Y-233124D01*
X-46124Y-234179D01*
X-44746Y-234750D01*
X-43254D01*
X-41876Y-234179D01*
X-40821Y-233124D01*
X-40250Y-231746D01*
Y-230254D01*
X-40821Y-228876D01*
X-41876Y-227821D01*
X-43254Y-227250D01*
D02*
G37*
G36*
X-145254D02*
X-146746D01*
X-148124Y-227821D01*
X-149179Y-228876D01*
X-149750Y-230254D01*
Y-231746D01*
X-149179Y-233124D01*
X-148124Y-234179D01*
X-146746Y-234750D01*
X-145254D01*
X-143876Y-234179D01*
X-142821Y-233124D01*
X-142250Y-231746D01*
Y-230254D01*
X-142821Y-228876D01*
X-143876Y-227821D01*
X-145254Y-227250D01*
D02*
G37*
G36*
X224900Y-235567D02*
Y-243500D01*
X232833D01*
X232253Y-241333D01*
X231002Y-239167D01*
X229233Y-237398D01*
X227067Y-236147D01*
X224900Y-235567D01*
D02*
G37*
G36*
X221900D02*
X219733Y-236147D01*
X217567Y-237398D01*
X215798Y-239167D01*
X214548Y-241333D01*
X213967Y-243500D01*
X221900D01*
Y-235567D01*
D02*
G37*
G36*
X-309454Y-230250D02*
X-311046D01*
X-312516Y-230859D01*
X-313641Y-231984D01*
X-314250Y-233454D01*
Y-235046D01*
X-313641Y-236516D01*
X-313032Y-237125D01*
X-313641Y-237734D01*
X-314250Y-239204D01*
Y-240796D01*
X-313641Y-242266D01*
X-312516Y-243391D01*
X-311046Y-244000D01*
X-309454D01*
X-307984Y-243391D01*
X-306859Y-242266D01*
X-306250Y-240796D01*
Y-239204D01*
X-306859Y-237734D01*
X-307468Y-237125D01*
X-306859Y-236516D01*
X-306250Y-235046D01*
Y-233454D01*
X-306859Y-231984D01*
X-307984Y-230859D01*
X-309454Y-230250D01*
D02*
G37*
G36*
X3496Y-242250D02*
X2004D01*
X626Y-242821D01*
X-429Y-243876D01*
X-872Y-244945D01*
X-979Y-245204D01*
X-1183Y-245283D01*
X-3500Y-245651D01*
X-3625Y-245350D01*
X-3821Y-244876D01*
X-4876Y-243821D01*
X-6254Y-243250D01*
X-7746D01*
X-9124Y-243821D01*
X-10179Y-244876D01*
X-10750Y-246254D01*
Y-247746D01*
X-10179Y-249124D01*
X-9124Y-250179D01*
X-7746Y-250750D01*
X-6254D01*
X-4876Y-250179D01*
X-3821Y-249124D01*
X-3378Y-248055D01*
X-3271Y-247796D01*
X-3067Y-247717D01*
X-750Y-247349D01*
X-625Y-247650D01*
X-429Y-248124D01*
X626Y-249179D01*
X2004Y-249750D01*
X3496D01*
X4874Y-249179D01*
X5929Y-248124D01*
X6500Y-246746D01*
Y-245254D01*
X5929Y-243876D01*
X4874Y-242821D01*
X3496Y-242250D01*
D02*
G37*
G36*
X249985Y-232000D02*
X247615D01*
X245326Y-232613D01*
X243274Y-233798D01*
X241598Y-235474D01*
X240413Y-237526D01*
X239800Y-239815D01*
Y-242185D01*
X240413Y-244474D01*
X241598Y-246526D01*
X243274Y-248202D01*
X245326Y-249387D01*
X247615Y-250000D01*
X249985D01*
X252274Y-249387D01*
X254326Y-248202D01*
X256002Y-246526D01*
X257187Y-244474D01*
X257800Y-242185D01*
Y-239815D01*
X257187Y-237526D01*
X256002Y-235474D01*
X254326Y-233798D01*
X252274Y-232613D01*
X249985Y-232000D01*
D02*
G37*
G36*
X199185D02*
X196815D01*
X194526Y-232613D01*
X192474Y-233798D01*
X190798Y-235474D01*
X189613Y-237526D01*
X189000Y-239815D01*
Y-242185D01*
X189613Y-244474D01*
X190798Y-246526D01*
X192474Y-248202D01*
X194526Y-249387D01*
X196815Y-250000D01*
X199185D01*
X201474Y-249387D01*
X203526Y-248202D01*
X205202Y-246526D01*
X206387Y-244474D01*
X207000Y-242185D01*
Y-239815D01*
X206387Y-237526D01*
X205202Y-235474D01*
X203526Y-233798D01*
X201474Y-232613D01*
X199185Y-232000D01*
D02*
G37*
G36*
X148385Y-232000D02*
X146015D01*
X143726Y-232613D01*
X141674Y-233798D01*
X139998Y-235474D01*
X138813Y-237526D01*
X138200Y-239815D01*
Y-242185D01*
X138813Y-244474D01*
X139998Y-246526D01*
X141674Y-248202D01*
X143726Y-249387D01*
X146015Y-250000D01*
X148385D01*
X150674Y-249387D01*
X152726Y-248202D01*
X154402Y-246526D01*
X155587Y-244474D01*
X156200Y-242185D01*
Y-239815D01*
X155587Y-237526D01*
X154402Y-235474D01*
X152726Y-233798D01*
X150674Y-232613D01*
X148385Y-232000D01*
D02*
G37*
G36*
X173785Y-236000D02*
X171415D01*
X169126Y-236613D01*
X167074Y-237798D01*
X165398Y-239474D01*
X164213Y-241526D01*
X163600Y-243815D01*
Y-246185D01*
X164213Y-248474D01*
X165398Y-250526D01*
X167074Y-252202D01*
X169126Y-253387D01*
X171415Y-254000D01*
X173785D01*
X176074Y-253387D01*
X178126Y-252202D01*
X179802Y-250526D01*
X180987Y-248474D01*
X181600Y-246185D01*
Y-243815D01*
X180987Y-241526D01*
X179802Y-239474D01*
X178126Y-237798D01*
X176074Y-236613D01*
X173785Y-236000D01*
D02*
G37*
G36*
X122985D02*
X120615D01*
X118326Y-236613D01*
X116274Y-237798D01*
X114598Y-239474D01*
X113413Y-241526D01*
X112800Y-243815D01*
Y-246185D01*
X113413Y-248474D01*
X114598Y-250526D01*
X116274Y-252202D01*
X118326Y-253387D01*
X120615Y-254000D01*
X122985D01*
X125274Y-253387D01*
X127326Y-252202D01*
X129002Y-250526D01*
X130187Y-248474D01*
X130800Y-246185D01*
Y-243815D01*
X130187Y-241526D01*
X129002Y-239474D01*
X127326Y-237798D01*
X125274Y-236613D01*
X122985Y-236000D01*
D02*
G37*
G36*
X232833Y-246500D02*
X224900D01*
Y-254433D01*
X227067Y-253853D01*
X229233Y-252602D01*
X231002Y-250833D01*
X232253Y-248667D01*
X232833Y-246500D01*
D02*
G37*
G36*
X221900D02*
X213967D01*
X214548Y-248667D01*
X215798Y-250833D01*
X217567Y-252602D01*
X219733Y-253853D01*
X221900Y-254433D01*
Y-246500D01*
D02*
G37*
G36*
X-14254Y-257250D02*
X-15746D01*
X-17124Y-257821D01*
X-18179Y-258876D01*
X-18750Y-260254D01*
Y-261746D01*
X-18179Y-263124D01*
X-17124Y-264179D01*
X-15746Y-264750D01*
X-14254D01*
X-12876Y-264179D01*
X-11821Y-263124D01*
X-11250Y-261746D01*
Y-260254D01*
X-11821Y-258876D01*
X-12876Y-257821D01*
X-14254Y-257250D01*
D02*
G37*
G36*
X22996Y-261250D02*
X21504D01*
X20126Y-261821D01*
X19071Y-262876D01*
X18500Y-264254D01*
Y-265746D01*
X19071Y-267124D01*
X20126Y-268179D01*
X21504Y-268750D01*
X22996D01*
X24374Y-268179D01*
X25429Y-267124D01*
X26000Y-265746D01*
Y-264254D01*
X25429Y-262876D01*
X24374Y-261821D01*
X22996Y-261250D01*
D02*
G37*
G36*
X52496Y-264750D02*
X51004D01*
X49626Y-265321D01*
X48571Y-266376D01*
X48000Y-267754D01*
Y-269246D01*
X48571Y-270624D01*
X49626Y-271679D01*
X51004Y-272250D01*
X52496D01*
X53874Y-271679D01*
X54929Y-270624D01*
X55500Y-269246D01*
Y-267754D01*
X54929Y-266376D01*
X53874Y-265321D01*
X52496Y-264750D01*
D02*
G37*
G36*
X-153004Y-298750D02*
X-154496D01*
X-155874Y-299321D01*
X-156929Y-300376D01*
X-157500Y-301754D01*
Y-303246D01*
X-156929Y-304624D01*
X-155874Y-305679D01*
X-154496Y-306250D01*
X-153004D01*
X-151626Y-305679D01*
X-150571Y-304624D01*
X-150000Y-303246D01*
Y-301754D01*
X-150571Y-300376D01*
X-151626Y-299321D01*
X-153004Y-298750D01*
D02*
G37*
G36*
X-163754Y-299000D02*
X-165246D01*
X-166624Y-299571D01*
X-167679Y-300626D01*
X-168250Y-302004D01*
Y-303496D01*
X-167679Y-304874D01*
X-166624Y-305929D01*
X-165246Y-306500D01*
X-163754D01*
X-162376Y-305929D01*
X-161321Y-304874D01*
X-160750Y-303496D01*
Y-302004D01*
X-161321Y-300626D01*
X-162376Y-299571D01*
X-163754Y-299000D01*
D02*
G37*
G36*
X11746Y-299250D02*
X10254D01*
X8876Y-299821D01*
X7821Y-300876D01*
X7250Y-302254D01*
Y-303746D01*
X7821Y-305124D01*
X8876Y-306179D01*
X10254Y-306750D01*
X11746D01*
X13124Y-306179D01*
X14179Y-305124D01*
X14750Y-303746D01*
Y-302254D01*
X14179Y-300876D01*
X13124Y-299821D01*
X11746Y-299250D01*
D02*
G37*
G36*
X-226504Y-299750D02*
X-227996D01*
X-229374Y-300321D01*
X-230429Y-301376D01*
X-231000Y-302754D01*
Y-304246D01*
X-230429Y-305624D01*
X-229374Y-306679D01*
X-227996Y-307250D01*
X-226504D01*
X-225126Y-306679D01*
X-224071Y-305624D01*
X-223500Y-304246D01*
Y-302754D01*
X-224071Y-301376D01*
X-225126Y-300321D01*
X-226504Y-299750D01*
D02*
G37*
G36*
X127746Y-300250D02*
X126254D01*
X124876Y-300821D01*
X123821Y-301876D01*
X123250Y-303254D01*
Y-304167D01*
X122377Y-305377D01*
X121167Y-306250D01*
X120254D01*
X118876Y-306821D01*
X117821Y-307876D01*
X117250Y-309254D01*
Y-310746D01*
X117821Y-312124D01*
X118876Y-313179D01*
X120254Y-313750D01*
X121746D01*
X123124Y-313179D01*
X124179Y-312124D01*
X124750Y-310746D01*
Y-309833D01*
X125623Y-308623D01*
X126833Y-307750D01*
X127746D01*
X129124Y-307179D01*
X130179Y-306124D01*
X130750Y-304746D01*
Y-303254D01*
X130179Y-301876D01*
X129124Y-300821D01*
X127746Y-300250D01*
D02*
G37*
G36*
X198746Y-309250D02*
X197254D01*
X195876Y-309821D01*
X194821Y-310876D01*
X194250Y-312254D01*
Y-313746D01*
X194821Y-315124D01*
X195876Y-316179D01*
X197254Y-316750D01*
X198746D01*
X200124Y-316179D01*
X201179Y-315124D01*
X201750Y-313746D01*
Y-312254D01*
X201179Y-310876D01*
X200124Y-309821D01*
X198746Y-309250D01*
D02*
G37*
G36*
X185746D02*
X184254D01*
X182876Y-309821D01*
X181821Y-310876D01*
X181250Y-312254D01*
Y-313746D01*
X181821Y-315124D01*
X182876Y-316179D01*
X184254Y-316750D01*
X185746D01*
X187124Y-316179D01*
X188179Y-315124D01*
X188750Y-313746D01*
Y-312254D01*
X188179Y-310876D01*
X187124Y-309821D01*
X185746Y-309250D01*
D02*
G37*
G36*
X172746D02*
X171254D01*
X169876Y-309821D01*
X168821Y-310876D01*
X168250Y-312254D01*
Y-313746D01*
X168821Y-315124D01*
X169876Y-316179D01*
X171254Y-316750D01*
X172746D01*
X174124Y-316179D01*
X175179Y-315124D01*
X175750Y-313746D01*
Y-312254D01*
X175179Y-310876D01*
X174124Y-309821D01*
X172746Y-309250D01*
D02*
G37*
G36*
X-190754Y-308000D02*
X-192246D01*
X-193624Y-308571D01*
X-194679Y-309626D01*
X-195250Y-311004D01*
Y-311374D01*
X-197090Y-313097D01*
X-197560Y-313250D01*
X-198746D01*
X-200124Y-313821D01*
X-201179Y-314876D01*
X-201750Y-316254D01*
Y-317746D01*
X-201179Y-319124D01*
X-200124Y-320179D01*
X-198746Y-320750D01*
X-197254D01*
X-195876Y-320179D01*
X-194821Y-319124D01*
X-194250Y-317746D01*
Y-317376D01*
X-192410Y-315653D01*
X-191940Y-315500D01*
X-190754D01*
X-189376Y-314929D01*
X-188321Y-313874D01*
X-187750Y-312496D01*
Y-311004D01*
X-188321Y-309626D01*
X-189376Y-308571D01*
X-190754Y-308000D01*
D02*
G37*
G36*
X-161754Y-314500D02*
X-163246D01*
X-164624Y-315071D01*
X-165679Y-316126D01*
X-166250Y-317504D01*
Y-318996D01*
X-165679Y-320374D01*
X-164624Y-321429D01*
X-163246Y-322000D01*
X-161754D01*
X-160376Y-321429D01*
X-159321Y-320374D01*
X-158750Y-318996D01*
Y-317504D01*
X-159321Y-316126D01*
X-160376Y-315071D01*
X-161754Y-314500D01*
D02*
G37*
G36*
X-176754Y-313250D02*
X-178246D01*
X-179624Y-313821D01*
X-180679Y-314876D01*
X-181250Y-316254D01*
Y-316690D01*
X-181517Y-317914D01*
X-183246Y-319000D01*
X-183409Y-319067D01*
X-184624Y-319571D01*
X-185679Y-320626D01*
X-186250Y-322004D01*
Y-323496D01*
X-185679Y-324874D01*
X-184624Y-325929D01*
X-183246Y-326500D01*
X-181754D01*
X-180376Y-325929D01*
X-179321Y-324874D01*
X-178750Y-323496D01*
Y-323060D01*
X-178483Y-321836D01*
X-176754Y-320750D01*
X-176591Y-320683D01*
X-175376Y-320179D01*
X-174321Y-319124D01*
X-173750Y-317746D01*
Y-316254D01*
X-174321Y-314876D01*
X-175376Y-313821D01*
X-176754Y-313250D01*
D02*
G37*
G36*
X1796Y-320000D02*
X204D01*
X-1266Y-320609D01*
X-2391Y-321734D01*
X-3000Y-323204D01*
Y-324796D01*
X-2391Y-326266D01*
X-1266Y-327391D01*
X204Y-328000D01*
X1796D01*
X3266Y-327391D01*
X4391Y-326266D01*
X5000Y-324796D01*
Y-323204D01*
X4391Y-321734D01*
X3266Y-320609D01*
X1796Y-320000D01*
D02*
G37*
G36*
X-229254Y-327500D02*
X-230746D01*
X-232124Y-328071D01*
X-233179Y-329126D01*
X-235770Y-328847D01*
X-236004Y-328750D01*
X-237496D01*
X-238874Y-329321D01*
X-239929Y-330376D01*
X-240500Y-331754D01*
Y-333246D01*
X-239929Y-334624D01*
X-239773Y-334780D01*
X-239446Y-336865D01*
X-239937Y-337883D01*
X-240429Y-338376D01*
X-241000Y-339754D01*
Y-341246D01*
X-240429Y-342624D01*
X-239374Y-343679D01*
X-237996Y-344250D01*
X-236504D01*
X-235126Y-343679D01*
X-234071Y-342624D01*
X-233500Y-341246D01*
Y-339754D01*
X-234071Y-338376D01*
X-234227Y-338220D01*
X-234454Y-336774D01*
X-232714Y-334716D01*
X-230980Y-334903D01*
X-230746Y-335000D01*
X-229254D01*
X-227876Y-334429D01*
X-226821Y-333374D01*
X-226250Y-331996D01*
Y-330504D01*
X-226821Y-329126D01*
X-227876Y-328071D01*
X-229254Y-327500D01*
D02*
G37*
G36*
X242746Y-325250D02*
X241254D01*
X239876Y-325821D01*
X238821Y-326876D01*
X238250Y-328254D01*
Y-329746D01*
X238821Y-331124D01*
X239876Y-332179D01*
X241254Y-332750D01*
X242746D01*
X244124Y-332179D01*
X245179Y-331124D01*
X245750Y-329746D01*
Y-328254D01*
X245179Y-326876D01*
X244124Y-325821D01*
X242746Y-325250D01*
D02*
G37*
G36*
X-331815Y-315600D02*
X-334185D01*
X-336474Y-316213D01*
X-338526Y-317398D01*
X-340202Y-319074D01*
X-341387Y-321126D01*
X-342000Y-323415D01*
Y-325785D01*
X-341387Y-328074D01*
X-340202Y-330126D01*
X-338526Y-331802D01*
X-336474Y-332987D01*
X-334185Y-333600D01*
X-331815D01*
X-329526Y-332987D01*
X-327474Y-331802D01*
X-325798Y-330126D01*
X-324613Y-328074D01*
X-324000Y-325785D01*
Y-323415D01*
X-324613Y-321126D01*
X-325798Y-319074D01*
X-327474Y-317398D01*
X-329526Y-316213D01*
X-331815Y-315600D01*
D02*
G37*
G36*
X-15898Y-327394D02*
X-17390D01*
X-18769Y-327965D01*
X-19823Y-329020D01*
X-20394Y-330398D01*
Y-331890D01*
X-19823Y-333269D01*
X-18769Y-334323D01*
X-17390Y-334894D01*
X-15898D01*
X-14520Y-334323D01*
X-13465Y-333269D01*
X-12894Y-331890D01*
Y-330398D01*
X-13465Y-329020D01*
X-14520Y-327965D01*
X-15898Y-327394D01*
D02*
G37*
G36*
X-127754Y-319750D02*
X-129246D01*
X-130624Y-320321D01*
X-131679Y-321376D01*
X-132250Y-322754D01*
Y-324246D01*
X-131679Y-325624D01*
X-131553Y-325750D01*
X-130903Y-327375D01*
X-131553Y-329000D01*
X-131679Y-329126D01*
X-132250Y-330504D01*
Y-331996D01*
X-131679Y-333374D01*
X-130624Y-334429D01*
X-129246Y-335000D01*
X-127754D01*
X-126376Y-334429D01*
X-125321Y-333374D01*
X-124750Y-331996D01*
Y-330504D01*
X-125321Y-329126D01*
X-125447Y-329000D01*
X-126097Y-327375D01*
X-125447Y-325750D01*
X-125321Y-325624D01*
X-124750Y-324246D01*
Y-322754D01*
X-125321Y-321376D01*
X-126376Y-320321D01*
X-127754Y-319750D01*
D02*
G37*
G36*
X-331500Y-340567D02*
Y-348500D01*
X-323567D01*
X-324147Y-346333D01*
X-325398Y-344167D01*
X-327167Y-342398D01*
X-329333Y-341147D01*
X-331500Y-340567D01*
D02*
G37*
G36*
X-334500Y-340567D02*
X-336667Y-341147D01*
X-338833Y-342398D01*
X-340602Y-344167D01*
X-341853Y-346333D01*
X-342433Y-348500D01*
X-334500D01*
Y-340567D01*
D02*
G37*
G36*
X-99204Y-341000D02*
X-100796D01*
X-102266Y-341609D01*
X-103391Y-342734D01*
X-104000Y-344204D01*
Y-345796D01*
X-103391Y-347266D01*
X-102907Y-347750D01*
X-103391Y-348234D01*
X-104000Y-349704D01*
Y-351296D01*
X-103391Y-352766D01*
X-102266Y-353891D01*
X-100796Y-354500D01*
X-99204D01*
X-97734Y-353891D01*
X-96609Y-352766D01*
X-96000Y-351296D01*
Y-349704D01*
X-96609Y-348234D01*
X-97093Y-347750D01*
X-96609Y-347266D01*
X-96000Y-345796D01*
Y-344204D01*
X-96609Y-342734D01*
X-97734Y-341609D01*
X-99204Y-341000D01*
D02*
G37*
G36*
X-323567Y-351500D02*
X-331500D01*
Y-359433D01*
X-329333Y-358853D01*
X-327167Y-357602D01*
X-325398Y-355833D01*
X-324147Y-353667D01*
X-323567Y-351500D01*
D02*
G37*
G36*
X-334500D02*
X-342433D01*
X-341853Y-353667D01*
X-340602Y-355833D01*
X-338833Y-357602D01*
X-336667Y-358853D01*
X-334500Y-359433D01*
Y-351500D01*
D02*
G37*
G36*
X148496Y-352750D02*
X147004D01*
X145626Y-353321D01*
X144571Y-354376D01*
X144000Y-355754D01*
Y-357246D01*
X144571Y-358624D01*
X145626Y-359679D01*
X147004Y-360250D01*
X148496D01*
X149874Y-359679D01*
X150929Y-358624D01*
X151500Y-357246D01*
Y-355754D01*
X150929Y-354376D01*
X149874Y-353321D01*
X148496Y-352750D01*
D02*
G37*
G36*
X-238379Y-357875D02*
X-239871D01*
X-241249Y-358446D01*
X-242304Y-359501D01*
X-242875Y-360879D01*
Y-362371D01*
X-242304Y-363749D01*
X-241249Y-364804D01*
X-239871Y-365375D01*
X-238379D01*
X-237001Y-364804D01*
X-235946Y-363749D01*
X-235375Y-362371D01*
Y-360879D01*
X-235946Y-359501D01*
X-237001Y-358446D01*
X-238379Y-357875D01*
D02*
G37*
G36*
X-144004Y-349617D02*
X-145496D01*
X-146874Y-350188D01*
X-147929Y-351243D01*
X-148500Y-352621D01*
Y-354113D01*
X-147929Y-355491D01*
X-146931Y-356489D01*
X-147679Y-357238D01*
X-148250Y-358616D01*
Y-360108D01*
X-148012Y-361650D01*
X-149374Y-362321D01*
X-150429Y-363376D01*
X-151000Y-364754D01*
Y-366246D01*
X-150429Y-367624D01*
X-149374Y-368679D01*
X-147996Y-369250D01*
X-146504D01*
X-145126Y-368679D01*
X-144071Y-367624D01*
X-143500Y-366246D01*
Y-364754D01*
X-143738Y-363212D01*
X-142376Y-362541D01*
X-141321Y-361486D01*
X-140750Y-360108D01*
Y-358616D01*
X-141321Y-357238D01*
X-142319Y-356239D01*
X-141571Y-355491D01*
X-141000Y-354113D01*
Y-352621D01*
X-141571Y-351243D01*
X-142626Y-350188D01*
X-144004Y-349617D01*
D02*
G37*
G36*
X214500Y-373021D02*
Y-375500D01*
X216979D01*
X216603Y-374593D01*
X215407Y-373397D01*
X214500Y-373021D01*
D02*
G37*
G36*
X211500Y-373021D02*
X210593Y-373397D01*
X209397Y-374593D01*
X209021Y-375500D01*
X211500D01*
Y-373021D01*
D02*
G37*
G36*
X200500Y-373021D02*
Y-375500D01*
X202979D01*
X202603Y-374593D01*
X201407Y-373397D01*
X200500Y-373021D01*
D02*
G37*
G36*
X197500Y-373021D02*
X196593Y-373397D01*
X195397Y-374593D01*
X195021Y-375500D01*
X197500D01*
Y-373021D01*
D02*
G37*
G36*
X217905Y-378500D02*
X213000D01*
X207480D01*
X206802Y-379178D01*
X204582D01*
X203905Y-378500D01*
X199000D01*
X194095D01*
X193500Y-379095D01*
Y-384000D01*
Y-388904D01*
X194178Y-389582D01*
Y-391802D01*
X193500Y-392480D01*
Y-398000D01*
Y-402905D01*
X194095Y-403500D01*
X199000D01*
X203905D01*
X204500Y-402905D01*
Y-398000D01*
X207500D01*
Y-402905D01*
X208095Y-403500D01*
X213000D01*
X217905D01*
X218500Y-402905D01*
Y-398000D01*
Y-393095D01*
X217905Y-392500D01*
X213000D01*
Y-389500D01*
X217905D01*
X218500Y-388905D01*
Y-384000D01*
Y-379095D01*
X217905Y-378500D01*
D02*
G37*
G36*
X221500Y-380021D02*
Y-382500D01*
X223979D01*
X223603Y-381592D01*
X222407Y-380397D01*
X221500Y-380021D01*
D02*
G37*
G36*
X190500Y-380021D02*
X189593Y-380397D01*
X188397Y-381593D01*
X188021Y-382500D01*
X190500D01*
Y-380021D01*
D02*
G37*
G36*
X-331815Y-366400D02*
X-334185D01*
X-336474Y-367013D01*
X-338526Y-368198D01*
X-340202Y-369874D01*
X-341387Y-371926D01*
X-342000Y-374215D01*
Y-376585D01*
X-341387Y-378874D01*
X-340202Y-380926D01*
X-338526Y-382602D01*
X-336474Y-383787D01*
X-334185Y-384400D01*
X-331815D01*
X-329526Y-383787D01*
X-327474Y-382602D01*
X-325798Y-380926D01*
X-324613Y-378874D01*
X-324000Y-376585D01*
Y-374215D01*
X-324613Y-371926D01*
X-325798Y-369874D01*
X-327474Y-368198D01*
X-329526Y-367013D01*
X-331815Y-366400D01*
D02*
G37*
G36*
X-305254Y-377250D02*
X-306746D01*
X-308124Y-377821D01*
X-309179Y-378876D01*
X-309750Y-380254D01*
Y-381746D01*
X-309179Y-383124D01*
X-308124Y-384179D01*
X-306746Y-384750D01*
X-305254D01*
X-303876Y-384179D01*
X-302821Y-383124D01*
X-302250Y-381746D01*
Y-380254D01*
X-302821Y-378876D01*
X-303876Y-377821D01*
X-305254Y-377250D01*
D02*
G37*
G36*
X63496Y-373250D02*
X62004D01*
X60626Y-373821D01*
X59571Y-374876D01*
X59000Y-376254D01*
Y-377746D01*
X59571Y-379124D01*
X59876Y-380821D01*
X58821Y-381876D01*
X58250Y-383254D01*
Y-384746D01*
X58821Y-386124D01*
X59876Y-387179D01*
X61254Y-387750D01*
X62746D01*
X64124Y-387179D01*
X65179Y-386124D01*
X65750Y-384746D01*
Y-383254D01*
X65179Y-381876D01*
X64874Y-380179D01*
X65929Y-379124D01*
X66500Y-377746D01*
Y-376254D01*
X65929Y-374876D01*
X64874Y-373821D01*
X63496Y-373250D01*
D02*
G37*
G36*
X223979Y-385500D02*
X221500D01*
Y-387979D01*
X222407Y-387603D01*
X223603Y-386407D01*
X223979Y-385500D01*
D02*
G37*
G36*
X190500Y-385500D02*
X188021D01*
X188397Y-386407D01*
X189593Y-387603D01*
X190500Y-387979D01*
Y-385500D01*
D02*
G37*
G36*
X-233504Y-376750D02*
X-234996D01*
X-236374Y-377321D01*
X-237429Y-378376D01*
X-238000Y-379754D01*
Y-380030D01*
X-239502Y-381747D01*
X-240310Y-382016D01*
X-241230D01*
X-242608Y-382587D01*
X-243663Y-383642D01*
X-244234Y-385020D01*
Y-386512D01*
X-243663Y-387890D01*
X-242608Y-388945D01*
X-241230Y-389516D01*
X-239738D01*
X-238360Y-388945D01*
X-237305Y-387890D01*
X-236734Y-386512D01*
Y-386236D01*
X-235232Y-384519D01*
X-234424Y-384250D01*
X-233504D01*
X-232126Y-383679D01*
X-231071Y-382624D01*
X-230500Y-381246D01*
Y-379754D01*
X-231071Y-378376D01*
X-232126Y-377321D01*
X-233504Y-376750D01*
D02*
G37*
G36*
X221500Y-394021D02*
Y-396500D01*
X223979D01*
X223603Y-395593D01*
X222407Y-394397D01*
X221500Y-394021D01*
D02*
G37*
G36*
X190500Y-394021D02*
X189593Y-394397D01*
X188397Y-395593D01*
X188021Y-396500D01*
X190500D01*
Y-394021D01*
D02*
G37*
G36*
Y-399500D02*
X188021D01*
X188397Y-400407D01*
X189593Y-401603D01*
X190500Y-401979D01*
Y-399500D01*
D02*
G37*
G36*
X223979D02*
X221500D01*
Y-401979D01*
X222407Y-401603D01*
X223603Y-400407D01*
X223979Y-399500D01*
D02*
G37*
G36*
X268746Y-401250D02*
X267254D01*
X265876Y-401821D01*
X264821Y-402876D01*
X264250Y-404254D01*
Y-405746D01*
X264821Y-407124D01*
X265876Y-408179D01*
X267254Y-408750D01*
X268746D01*
X270124Y-408179D01*
X271179Y-407124D01*
X271750Y-405746D01*
Y-404254D01*
X271179Y-402876D01*
X270124Y-401821D01*
X268746Y-401250D01*
D02*
G37*
G36*
X211500Y-406500D02*
X209021D01*
X209397Y-407407D01*
X210593Y-408603D01*
X211500Y-408979D01*
Y-406500D01*
D02*
G37*
G36*
X202979Y-406500D02*
X200500D01*
Y-408979D01*
X201407Y-408603D01*
X202603Y-407407D01*
X202979Y-406500D01*
D02*
G37*
G36*
X216979Y-406500D02*
X214500D01*
Y-408979D01*
X215407Y-408603D01*
X216603Y-407407D01*
X216979Y-406500D01*
D02*
G37*
G36*
X197500Y-406500D02*
X195021D01*
X195397Y-407407D01*
X196593Y-408603D01*
X197500Y-408979D01*
Y-406500D01*
D02*
G37*
G36*
X-331815Y-391800D02*
X-334185D01*
X-336474Y-392413D01*
X-338526Y-393598D01*
X-340202Y-395274D01*
X-341387Y-397326D01*
X-342000Y-399615D01*
Y-401985D01*
X-341387Y-404274D01*
X-340202Y-406326D01*
X-338526Y-408002D01*
X-336474Y-409187D01*
X-334185Y-409800D01*
X-331815D01*
X-329526Y-409187D01*
X-327474Y-408002D01*
X-325798Y-406326D01*
X-324613Y-404274D01*
X-324000Y-401985D01*
Y-399615D01*
X-324613Y-397326D01*
X-325798Y-395274D01*
X-327474Y-393598D01*
X-329526Y-392413D01*
X-331815Y-391800D01*
D02*
G37*
G36*
X268746Y-413250D02*
X267254D01*
X265876Y-413821D01*
X264821Y-414876D01*
X264250Y-416254D01*
Y-417746D01*
X264821Y-419124D01*
X265876Y-420179D01*
X267254Y-420750D01*
X268746D01*
X270124Y-420179D01*
X271179Y-419124D01*
X271750Y-417746D01*
Y-416254D01*
X271179Y-414876D01*
X270124Y-413821D01*
X268746Y-413250D01*
D02*
G37*
G36*
X-103004Y-416750D02*
X-104496D01*
X-105874Y-417321D01*
X-106929Y-418376D01*
X-107500Y-419754D01*
Y-421246D01*
X-106929Y-422624D01*
X-105874Y-423679D01*
X-104496Y-424250D01*
X-103004D01*
X-101626Y-423679D01*
X-100571Y-422624D01*
X-100000Y-421246D01*
Y-419754D01*
X-100571Y-418376D01*
X-101626Y-417321D01*
X-103004Y-416750D01*
D02*
G37*
G36*
X-278254Y-418250D02*
X-279746D01*
X-281124Y-418821D01*
X-282179Y-419876D01*
X-282750Y-421254D01*
Y-422746D01*
X-282179Y-424124D01*
X-281124Y-425179D01*
X-279746Y-425750D01*
X-278254D01*
X-276876Y-425179D01*
X-275821Y-424124D01*
X-275250Y-422746D01*
Y-421254D01*
X-275821Y-419876D01*
X-276876Y-418821D01*
X-278254Y-418250D01*
D02*
G37*
G36*
X268746Y-426250D02*
X267254D01*
X265876Y-426821D01*
X264821Y-427876D01*
X264250Y-429254D01*
Y-430746D01*
X264821Y-432124D01*
X265876Y-433179D01*
X267254Y-433750D01*
X268746D01*
X270124Y-433179D01*
X271179Y-432124D01*
X271750Y-430746D01*
Y-429254D01*
X271179Y-427876D01*
X270124Y-426821D01*
X268746Y-426250D01*
D02*
G37*
G36*
X-331815Y-417200D02*
X-334185D01*
X-336474Y-417813D01*
X-338526Y-418998D01*
X-340202Y-420674D01*
X-341387Y-422726D01*
X-342000Y-425015D01*
Y-427385D01*
X-341387Y-429674D01*
X-340202Y-431726D01*
X-338526Y-433402D01*
X-336474Y-434587D01*
X-334185Y-435200D01*
X-331815D01*
X-329526Y-434587D01*
X-327474Y-433402D01*
X-325798Y-431726D01*
X-324613Y-429674D01*
X-324000Y-427385D01*
Y-425015D01*
X-324613Y-422726D01*
X-325798Y-420674D01*
X-327474Y-418998D01*
X-329526Y-417813D01*
X-331815Y-417200D01*
D02*
G37*
G36*
X-65204Y-433000D02*
X-66796D01*
X-68266Y-433609D01*
X-69391Y-434734D01*
X-70000Y-436204D01*
Y-437796D01*
X-69391Y-439266D01*
X-68266Y-440391D01*
X-66796Y-441000D01*
X-65204D01*
X-63734Y-440391D01*
X-62609Y-439266D01*
X-62000Y-437796D01*
Y-436204D01*
X-62609Y-434734D01*
X-63734Y-433609D01*
X-65204Y-433000D01*
D02*
G37*
G36*
X60746Y-426250D02*
X59254D01*
X57876Y-426821D01*
X56821Y-427876D01*
X56250Y-429254D01*
Y-430746D01*
X56821Y-432124D01*
X57697Y-433000D01*
X56821Y-433876D01*
X56250Y-435254D01*
Y-436746D01*
X56254Y-438250D01*
X54876Y-438821D01*
X53821Y-439876D01*
X53250Y-441254D01*
Y-442746D01*
X53821Y-444124D01*
X54876Y-445179D01*
X56254Y-445750D01*
X57746D01*
X59124Y-445179D01*
X60179Y-444124D01*
X60750Y-442746D01*
Y-441254D01*
X60746Y-439750D01*
X62124Y-439179D01*
X63179Y-438124D01*
X63750Y-436746D01*
Y-435254D01*
X63179Y-433876D01*
X62303Y-433000D01*
X63179Y-432124D01*
X63750Y-430746D01*
Y-429254D01*
X63179Y-427876D01*
X62124Y-426821D01*
X60746Y-426250D01*
D02*
G37*
G36*
X346746Y-448250D02*
X345254D01*
X343876Y-448821D01*
X342821Y-449876D01*
X342250Y-451254D01*
Y-452746D01*
X342821Y-454124D01*
X343876Y-455179D01*
X345254Y-455750D01*
X346746D01*
X348124Y-455179D01*
X349179Y-454124D01*
X349750Y-452746D01*
Y-451254D01*
X349179Y-449876D01*
X348124Y-448821D01*
X346746Y-448250D01*
D02*
G37*
G36*
X67746Y-443250D02*
X66254D01*
X64876Y-443821D01*
X63821Y-444876D01*
X63250Y-446254D01*
X62848Y-447848D01*
X61254Y-448250D01*
X59876Y-448821D01*
X58821Y-449876D01*
X58250Y-451254D01*
Y-452746D01*
X58821Y-454124D01*
X59876Y-455179D01*
X61254Y-455750D01*
X62746D01*
X64124Y-455179D01*
X65179Y-454124D01*
X65750Y-452746D01*
X66152Y-451152D01*
X67746Y-450750D01*
X69124Y-450179D01*
X70179Y-449124D01*
X70750Y-447746D01*
Y-446254D01*
X70179Y-444876D01*
X69124Y-443821D01*
X67746Y-443250D01*
D02*
G37*
G36*
X-251754Y-448750D02*
X-253246D01*
X-254624Y-449321D01*
X-255679Y-450376D01*
X-256250Y-451754D01*
Y-453246D01*
X-255679Y-454624D01*
X-254624Y-455679D01*
X-253246Y-456250D01*
X-251754D01*
X-250376Y-455679D01*
X-249321Y-454624D01*
X-248750Y-453246D01*
Y-451754D01*
X-249321Y-450376D01*
X-250376Y-449321D01*
X-251754Y-448750D01*
D02*
G37*
G36*
X-276754D02*
X-278246D01*
X-279624Y-449321D01*
X-280679Y-450376D01*
X-281250Y-451754D01*
Y-453246D01*
X-280679Y-454624D01*
X-279624Y-455679D01*
X-278246Y-456250D01*
X-276754D01*
X-275376Y-455679D01*
X-274321Y-454624D01*
X-273750Y-453246D01*
Y-451754D01*
X-274321Y-450376D01*
X-275376Y-449321D01*
X-276754Y-448750D01*
D02*
G37*
G36*
X-301754D02*
X-303246D01*
X-304624Y-449321D01*
X-305679Y-450376D01*
X-306250Y-451754D01*
Y-453246D01*
X-305679Y-454624D01*
X-304624Y-455679D01*
X-303246Y-456250D01*
X-301754D01*
X-300376Y-455679D01*
X-299321Y-454624D01*
X-298750Y-453246D01*
Y-451754D01*
X-299321Y-450376D01*
X-300376Y-449321D01*
X-301754Y-448750D01*
D02*
G37*
G36*
X-331815Y-442600D02*
X-334185D01*
X-336474Y-443213D01*
X-338526Y-444398D01*
X-340202Y-446074D01*
X-341387Y-448126D01*
X-342000Y-450415D01*
Y-452785D01*
X-341387Y-455074D01*
X-340202Y-457126D01*
X-338526Y-458802D01*
X-336474Y-459987D01*
X-334185Y-460600D01*
X-331815D01*
X-329526Y-459987D01*
X-327474Y-458802D01*
X-325798Y-457126D01*
X-324613Y-455074D01*
X-324000Y-452785D01*
Y-450415D01*
X-324613Y-448126D01*
X-325798Y-446074D01*
X-327474Y-444398D01*
X-329526Y-443213D01*
X-331815Y-442600D01*
D02*
G37*
G36*
X52746Y-456250D02*
X51254D01*
X49876Y-456821D01*
X48821Y-457876D01*
X48250Y-459254D01*
Y-460746D01*
X48821Y-462124D01*
X49876Y-463179D01*
X51254Y-463750D01*
X52746D01*
X54124Y-463179D01*
X55179Y-462124D01*
X55750Y-460746D01*
Y-459254D01*
X55179Y-457876D01*
X54124Y-456821D01*
X52746Y-456250D01*
D02*
G37*
G36*
X-302004Y-460000D02*
X-303496D01*
X-304874Y-460571D01*
X-305929Y-461626D01*
X-306500Y-463004D01*
X-308254Y-464250D01*
X-309746D01*
X-311124Y-464821D01*
X-312179Y-465876D01*
X-312750Y-467254D01*
Y-468746D01*
X-312179Y-470124D01*
X-311124Y-471179D01*
X-309746Y-471750D01*
X-308876D01*
X-307074Y-473636D01*
X-307000Y-473754D01*
Y-475246D01*
X-306429Y-476624D01*
X-305374Y-477679D01*
X-303996Y-478250D01*
X-302504D01*
X-301126Y-477679D01*
X-300071Y-476624D01*
X-299500Y-475246D01*
Y-473754D01*
X-300071Y-472376D01*
X-301126Y-471321D01*
X-302504Y-470750D01*
X-303504Y-468304D01*
X-303503Y-468190D01*
X-303022Y-467500D01*
X-302004D01*
X-300626Y-466929D01*
X-299571Y-465874D01*
X-299000Y-464496D01*
Y-463004D01*
X-299571Y-461626D01*
X-300626Y-460571D01*
X-302004Y-460000D01*
D02*
G37*
G36*
X-331815Y-468000D02*
X-334185D01*
X-336474Y-468613D01*
X-338526Y-469798D01*
X-340202Y-471474D01*
X-341387Y-473526D01*
X-342000Y-475815D01*
Y-478185D01*
X-341387Y-480474D01*
X-340202Y-482526D01*
X-338526Y-484202D01*
X-336474Y-485387D01*
X-334185Y-486000D01*
X-331815D01*
X-329526Y-485387D01*
X-327474Y-484202D01*
X-325798Y-482526D01*
X-324613Y-480474D01*
X-324000Y-478185D01*
Y-475815D01*
X-324613Y-473526D01*
X-325798Y-471474D01*
X-327474Y-469798D01*
X-329526Y-468613D01*
X-331815Y-468000D01*
D02*
G37*
G36*
X-331500Y-492967D02*
Y-500900D01*
X-323567D01*
X-324147Y-498733D01*
X-325398Y-496567D01*
X-327167Y-494798D01*
X-329333Y-493547D01*
X-331500Y-492967D01*
D02*
G37*
G36*
X-334500D02*
X-336667Y-493547D01*
X-338833Y-494798D01*
X-340602Y-496567D01*
X-341853Y-498733D01*
X-342433Y-500900D01*
X-334500D01*
Y-492967D01*
D02*
G37*
G36*
X-323567Y-503900D02*
X-331500D01*
Y-511833D01*
X-329333Y-511253D01*
X-327167Y-510002D01*
X-325398Y-508233D01*
X-324147Y-506067D01*
X-323567Y-503900D01*
D02*
G37*
G36*
X-334500D02*
X-342433D01*
X-341853Y-506067D01*
X-340602Y-508233D01*
X-338833Y-510002D01*
X-336667Y-511253D01*
X-334500Y-511833D01*
Y-503900D01*
D02*
G37*
G36*
X-200254Y-504250D02*
X-201746D01*
X-203124Y-504821D01*
X-204179Y-505876D01*
X-204750Y-507254D01*
Y-508746D01*
X-204179Y-510124D01*
X-203324Y-511500D01*
X-204179Y-512876D01*
X-204750Y-514254D01*
Y-515746D01*
X-204179Y-517124D01*
X-203124Y-518179D01*
X-201746Y-518750D01*
X-200254D01*
X-198876Y-518179D01*
X-197821Y-517124D01*
X-197250Y-515746D01*
Y-514254D01*
X-197821Y-512876D01*
X-198676Y-511500D01*
X-197821Y-510124D01*
X-197250Y-508746D01*
Y-507254D01*
X-197821Y-505876D01*
X-198876Y-504821D01*
X-200254Y-504250D01*
D02*
G37*
G36*
X31746Y-518500D02*
X30254D01*
X28876Y-519071D01*
X27821Y-520126D01*
X27250Y-521504D01*
Y-522996D01*
X27821Y-524374D01*
X28876Y-525429D01*
X28914Y-525445D01*
X30253Y-526450D01*
X30250Y-528254D01*
Y-529746D01*
X30821Y-531124D01*
X31876Y-532179D01*
X33254Y-532750D01*
X34746D01*
X36124Y-532179D01*
X37179Y-531124D01*
X37750Y-529746D01*
Y-528254D01*
X37179Y-526876D01*
X36124Y-525821D01*
X36086Y-525805D01*
X34747Y-524800D01*
X34750Y-522996D01*
Y-521504D01*
X34179Y-520126D01*
X33124Y-519071D01*
X31746Y-518500D01*
D02*
G37*
%LPD*%
D129*
X121800Y-245000D02*
D03*
X147200Y-241000D02*
D03*
X172600Y-245000D02*
D03*
X198000Y-241000D02*
D03*
X223400Y-245000D02*
D03*
X248800Y-241000D02*
D03*
X-333000Y-324600D02*
D03*
Y-350000D02*
D03*
Y-375400D02*
D03*
Y-400800D02*
D03*
Y-426200D02*
D03*
Y-451600D02*
D03*
Y-477000D02*
D03*
Y-502400D02*
D03*
D130*
X-395000Y-255000D02*
D03*
X395000D02*
D03*
D131*
X354300Y-60900D02*
D03*
X354300Y-146900D02*
D03*
D132*
X310000Y-60900D02*
D03*
Y-146900D02*
D03*
D133*
X206000Y-398000D02*
D03*
X220000Y-398000D02*
D03*
X192000D02*
D03*
X220000Y-384000D02*
D03*
X206000Y-384000D02*
D03*
X192000D02*
D03*
X213000Y-405000D02*
D03*
X199000Y-405000D02*
D03*
X213000Y-391000D02*
D03*
X199000D02*
D03*
X213000Y-377000D02*
D03*
X199000Y-377000D02*
D03*
X-240484Y-385766D02*
D03*
X-237250Y-340500D02*
D03*
X31000Y-522250D02*
D03*
X-147250Y-365500D02*
D03*
X-144500Y-359362D02*
D03*
X-144750Y-353367D02*
D03*
X-303250Y-474500D02*
D03*
X-302750Y-463750D02*
D03*
X144000Y-203750D02*
D03*
X166250Y-216000D02*
D03*
X190750Y-90750D02*
D03*
X-194000Y-373000D02*
D03*
X-190000Y-368000D02*
D03*
X-186000Y-363000D02*
D03*
Y-373000D02*
D03*
X-194000Y-363000D02*
D03*
X-103750Y-420500D02*
D03*
X-16644Y-331144D02*
D03*
X117000Y-213250D02*
D03*
X149500Y-99125D02*
D03*
X117000Y-141625D02*
D03*
X149500Y-94000D02*
D03*
X117000Y-146500D02*
D03*
Y-208500D02*
D03*
X51750Y-268500D02*
D03*
X11000Y-303000D02*
D03*
X-227250Y-303500D02*
D03*
X157250Y-83000D02*
D03*
X152500D02*
D03*
X147750Y-356500D02*
D03*
X62750Y-377000D02*
D03*
X5000Y-129000D02*
D03*
X185035Y-84818D02*
D03*
X210250Y-151500D02*
D03*
X184750D02*
D03*
X149500Y-166250D02*
D03*
X50000Y-150000D02*
D03*
X77250Y-295750D02*
D03*
X42000Y-311000D02*
D03*
X22250Y-265000D02*
D03*
X4500Y-221000D02*
D03*
X2750Y-246000D02*
D03*
Y-205000D02*
D03*
Y-159000D02*
D03*
Y-113000D02*
D03*
X42000Y-355250D02*
D03*
X42500Y-339250D02*
D03*
X121000Y-310000D02*
D03*
X127000Y-304000D02*
D03*
X166000Y-199000D02*
D03*
X-279000Y-422000D02*
D03*
X229000Y-217000D02*
D03*
X355000Y21000D02*
D03*
X-64000Y-332000D02*
D03*
X84000Y-368000D02*
D03*
X-27000Y-149000D02*
D03*
X350000Y-350000D02*
D03*
X300000Y-50000D02*
D03*
X250000D02*
D03*
X275000Y-200000D02*
D03*
X250000Y-350000D02*
D03*
Y-450000D02*
D03*
X225000Y-100000D02*
D03*
X200000Y-350000D02*
D03*
Y-450000D02*
D03*
X150000Y-50000D02*
D03*
X175000Y-400000D02*
D03*
X150000Y-450000D02*
D03*
X100000Y-50000D02*
D03*
X125000Y-400000D02*
D03*
X75000Y0D02*
D03*
X50000Y-50000D02*
D03*
X75000Y-100000D02*
D03*
X50000Y-550000D02*
D03*
X0Y-50000D02*
D03*
Y-550000D02*
D03*
X-50000Y-50000D02*
D03*
Y-550000D02*
D03*
X-75000Y0D02*
D03*
X-100000Y-50000D02*
D03*
Y-550000D02*
D03*
X-125000Y-500000D02*
D03*
X-175000D02*
D03*
X-200000Y-550000D02*
D03*
X-250000Y-50000D02*
D03*
X-225000Y-500000D02*
D03*
X-250000Y-550000D02*
D03*
X-275000Y-400000D02*
D03*
Y-500000D02*
D03*
X-300000Y-550000D02*
D03*
X-350000Y-50000D02*
D03*
Y-150000D02*
D03*
Y-250000D02*
D03*
Y-550000D02*
D03*
X14000Y-279000D02*
D03*
X339000Y-284000D02*
D03*
X242000Y-329000D02*
D03*
X62000Y-384000D02*
D03*
X-15000Y-261000D02*
D03*
X-116000Y-119000D02*
D03*
X292750Y-144500D02*
D03*
X289750Y-70000D02*
D03*
X-239125Y-361625D02*
D03*
X205682Y-85682D02*
D03*
X212000Y-101000D02*
D03*
X260000Y-462000D02*
D03*
X121000D02*
D03*
X256000Y-168000D02*
D03*
X242000D02*
D03*
X-7000Y-247000D02*
D03*
X-9000Y-180750D02*
D03*
X-19500Y-129000D02*
D03*
X210000Y-120000D02*
D03*
X199000Y-165000D02*
D03*
X174000D02*
D03*
X172000Y-120000D02*
D03*
X-201000Y-508000D02*
D03*
X67000Y-447000D02*
D03*
X62000Y-452000D02*
D03*
X-201000Y-515000D02*
D03*
X211000Y-166000D02*
D03*
X186000D02*
D03*
X298000Y-202000D02*
D03*
X60000Y-436000D02*
D03*
Y-430000D02*
D03*
X325000Y-193000D02*
D03*
X57000Y-442000D02*
D03*
X-52000Y-476000D02*
D03*
X-309000Y-468000D02*
D03*
X34000Y-529000D02*
D03*
X52000Y-460000D02*
D03*
X346000Y-452000D02*
D03*
X5000Y-175000D02*
D03*
X268000Y-430000D02*
D03*
Y-417000D02*
D03*
Y-405000D02*
D03*
X-267000D02*
D03*
X-274000Y-386000D02*
D03*
Y-374000D02*
D03*
Y-363000D02*
D03*
X-275000Y-331000D02*
D03*
X-220000Y-437000D02*
D03*
X-210000D02*
D03*
X-200000D02*
D03*
X-52000Y-492000D02*
D03*
Y-438000D02*
D03*
X-127000Y-407000D02*
D03*
X-115000Y-406000D02*
D03*
X-109000Y-374000D02*
D03*
X-85000Y-373000D02*
D03*
X-306000Y-381000D02*
D03*
X198000Y-313000D02*
D03*
X185000D02*
D03*
X172000D02*
D03*
X-252500Y-452500D02*
D03*
X-277500D02*
D03*
X-302500D02*
D03*
X282000Y-78250D02*
D03*
X287000Y-119250D02*
D03*
X241750Y-140750D02*
D03*
X256000D02*
D03*
X287000Y-86500D02*
D03*
X256250Y-80750D02*
D03*
X280605Y-121395D02*
D03*
Y-93645D02*
D03*
X257000Y-93750D02*
D03*
Y-121500D02*
D03*
X280500Y-110250D02*
D03*
Y-104000D02*
D03*
X256750D02*
D03*
Y-110250D02*
D03*
X344500Y-382000D02*
D03*
X333750Y-434750D02*
D03*
X310750Y-431750D02*
D03*
X-248250Y-230750D02*
D03*
X-146000Y-157000D02*
D03*
X-128500Y-331250D02*
D03*
Y-323500D02*
D03*
X-191500Y-311750D02*
D03*
X-162500Y-318250D02*
D03*
X-153750Y-302500D02*
D03*
X-164500Y-302750D02*
D03*
X-177500Y-317000D02*
D03*
X-182500Y-322750D02*
D03*
X-198000Y-317000D02*
D03*
X-236750Y-332500D02*
D03*
X-230000Y-331250D02*
D03*
X-25000Y-205000D02*
D03*
Y-159000D02*
D03*
Y-113000D02*
D03*
X23000Y-198000D02*
D03*
Y-185000D02*
D03*
X-146000Y-231000D02*
D03*
X-44000D02*
D03*
Y-157000D02*
D03*
X-248000D02*
D03*
X23100Y-204350D02*
D03*
X22900Y-191650D02*
D03*
X22800Y-178950D02*
D03*
X-234250Y-380500D02*
D03*
D134*
X-66000Y-437000D02*
D03*
X1000Y-324000D02*
D03*
X-1250Y-338500D02*
D03*
X55000Y-405000D02*
D03*
X6000Y-393000D02*
D03*
X10000Y-469000D02*
D03*
X22000Y-519000D02*
D03*
X10000D02*
D03*
X-2000D02*
D03*
Y-511000D02*
D03*
X10000D02*
D03*
X22000D02*
D03*
X-289000Y-97000D02*
D03*
X-283000Y-91000D02*
D03*
X-289000Y-85000D02*
D03*
X-277000D02*
D03*
X-289000Y-91000D02*
D03*
X-277000D02*
D03*
X-289000Y-103000D02*
D03*
X-301000Y-97000D02*
D03*
X-295000Y-91000D02*
D03*
X-283000Y-97000D02*
D03*
X-295000Y-103000D02*
D03*
X-271000Y-85000D02*
D03*
X-295000Y-97000D02*
D03*
Y-109000D02*
D03*
X-283000Y-85000D02*
D03*
X-75000Y-84000D02*
D03*
X-69000D02*
D03*
X-57000D02*
D03*
X-63000D02*
D03*
Y-90000D02*
D03*
X-57000D02*
D03*
X-69000D02*
D03*
X-57000Y-102000D02*
D03*
X-63000Y-96000D02*
D03*
X-57000D02*
D03*
X-51000D02*
D03*
X-45000D02*
D03*
X-39000D02*
D03*
Y-102000D02*
D03*
X-45000D02*
D03*
X-51000D02*
D03*
Y-90000D02*
D03*
X-45000D02*
D03*
X-51000Y-84000D02*
D03*
Y-108000D02*
D03*
X-45000D02*
D03*
X-39000D02*
D03*
Y-114000D02*
D03*
X-45000D02*
D03*
Y-126000D02*
D03*
Y-120000D02*
D03*
X-147000Y-91000D02*
D03*
X-141000D02*
D03*
X-135000Y-97000D02*
D03*
X-141000D02*
D03*
X-147000D02*
D03*
Y-85000D02*
D03*
Y-103000D02*
D03*
X-141000D02*
D03*
Y-109000D02*
D03*
X-147000D02*
D03*
Y-121000D02*
D03*
X-141000D02*
D03*
Y-115000D02*
D03*
X-147000D02*
D03*
X-208000Y-104000D02*
D03*
X-214000D02*
D03*
X-208000Y-98000D02*
D03*
X-202000D02*
D03*
X-196000D02*
D03*
X-190000D02*
D03*
X-202000Y-92000D02*
D03*
X-196000D02*
D03*
X-190000D02*
D03*
Y-86000D02*
D03*
X-196000D02*
D03*
X-214000Y-116000D02*
D03*
Y-110000D02*
D03*
X-220000D02*
D03*
X-81000Y-70000D02*
D03*
X-348000Y-87000D02*
D03*
X-342000Y-93000D02*
D03*
X-348000D02*
D03*
X-342000Y-81000D02*
D03*
X-348000D02*
D03*
X-342000Y-87000D02*
D03*
X-310250Y-234250D02*
D03*
Y-240000D02*
D03*
X-100000Y-350500D02*
D03*
Y-345000D02*
D03*
X-150000Y-550000D02*
D03*
X38000D02*
D03*
X59000Y-528000D02*
D03*
X-360000Y-421000D02*
D03*
Y-183000D02*
D03*
Y-292000D02*
D03*
X360000Y-317000D02*
D03*
X270000Y-159000D02*
D03*
X291000Y-175000D02*
D03*
X244000Y-70000D02*
D03*
X84000D02*
D03*
X-258000D02*
D03*
X-360000Y-90000D02*
D03*
Y-527000D02*
D03*
X-335000Y-550000D02*
D03*
X338000Y-175000D02*
D03*
X360000Y-199000D02*
D03*
Y-448000D02*
D03*
X333000Y-472000D02*
D03*
X63000Y-481000D02*
D03*
X105500Y-111250D02*
D03*
Y-105250D02*
D03*
X99500Y-111250D02*
D03*
Y-105250D02*
D03*
Y-99250D02*
D03*
X105500D02*
D03*
X30500Y-98750D02*
D03*
Y-104750D02*
D03*
X36500Y-98750D02*
D03*
Y-104750D02*
D03*
Y-110750D02*
D03*
X30500D02*
D03*
X-121000Y-152000D02*
D03*
X-117000Y-292890D02*
D03*
X-111000D02*
D03*
X-105000D02*
D03*
X-99000D02*
D03*
X-93000D02*
D03*
Y-298890D02*
D03*
X-99000D02*
D03*
X-105000D02*
D03*
X-111000D02*
D03*
X-117000D02*
D03*
X-219000Y-293000D02*
D03*
X-213000D02*
D03*
X-207000D02*
D03*
X-201000D02*
D03*
X-195000D02*
D03*
Y-299000D02*
D03*
X-201000D02*
D03*
X-207000D02*
D03*
X-213000D02*
D03*
X-219000D02*
D03*
X-321000D02*
D03*
X-315000D02*
D03*
X-309000D02*
D03*
X-303000D02*
D03*
X-297000D02*
D03*
Y-293000D02*
D03*
X-303000D02*
D03*
X-309000D02*
D03*
X-315000D02*
D03*
X-321000D02*
D03*
X-63000Y-200000D02*
D03*
X-57000D02*
D03*
X-69000D02*
D03*
X-75000D02*
D03*
X-51000D02*
D03*
X-75000Y-206000D02*
D03*
X-69000D02*
D03*
X-63000D02*
D03*
X-57000D02*
D03*
X-51000D02*
D03*
X-45000Y-200000D02*
D03*
Y-206000D02*
D03*
X-81000Y-200000D02*
D03*
Y-206000D02*
D03*
Y-194000D02*
D03*
Y-188000D02*
D03*
X-45000Y-194000D02*
D03*
Y-188000D02*
D03*
X-51000Y-194000D02*
D03*
X-57000D02*
D03*
X-63000D02*
D03*
X-69000D02*
D03*
X-75000D02*
D03*
X-51000Y-188000D02*
D03*
X-75000D02*
D03*
X-69000D02*
D03*
X-57000D02*
D03*
X-63000D02*
D03*
X-81000Y-212000D02*
D03*
X-45000D02*
D03*
X-51000D02*
D03*
X-75000D02*
D03*
X-69000D02*
D03*
X-57000D02*
D03*
X-63000D02*
D03*
X-165000Y-200000D02*
D03*
X-159000D02*
D03*
X-171000D02*
D03*
X-177000D02*
D03*
X-153000D02*
D03*
X-177000Y-206000D02*
D03*
X-171000D02*
D03*
X-165000D02*
D03*
X-159000D02*
D03*
X-153000D02*
D03*
X-147000Y-200000D02*
D03*
Y-206000D02*
D03*
X-183000Y-200000D02*
D03*
Y-206000D02*
D03*
Y-194000D02*
D03*
Y-188000D02*
D03*
X-147000Y-194000D02*
D03*
Y-188000D02*
D03*
X-153000Y-194000D02*
D03*
X-159000D02*
D03*
X-165000D02*
D03*
X-171000D02*
D03*
X-177000D02*
D03*
X-153000Y-188000D02*
D03*
X-177000D02*
D03*
X-171000D02*
D03*
X-159000D02*
D03*
X-165000D02*
D03*
X-183000Y-212000D02*
D03*
X-147000D02*
D03*
X-153000D02*
D03*
X-177000D02*
D03*
X-171000D02*
D03*
X-159000D02*
D03*
X-165000D02*
D03*
X-267000D02*
D03*
X-261000D02*
D03*
X-273000D02*
D03*
X-279000D02*
D03*
X-255000D02*
D03*
X-249000D02*
D03*
X-285000D02*
D03*
X-267000Y-188000D02*
D03*
X-261000D02*
D03*
X-273000D02*
D03*
X-279000D02*
D03*
X-255000D02*
D03*
X-279000Y-194000D02*
D03*
X-273000D02*
D03*
X-267000D02*
D03*
X-261000D02*
D03*
X-255000D02*
D03*
X-249000Y-188000D02*
D03*
Y-194000D02*
D03*
X-285000Y-188000D02*
D03*
Y-194000D02*
D03*
Y-206000D02*
D03*
Y-200000D02*
D03*
X-249000Y-206000D02*
D03*
Y-200000D02*
D03*
X-255000Y-206000D02*
D03*
X-261000D02*
D03*
X-267000D02*
D03*
X-273000D02*
D03*
X-279000D02*
D03*
X-255000Y-200000D02*
D03*
X-279000D02*
D03*
X-273000D02*
D03*
X-261000D02*
D03*
X-267000D02*
D03*
X-121000Y-134000D02*
D03*
Y-140000D02*
D03*
Y-146000D02*
D03*
Y-181000D02*
D03*
Y-175000D02*
D03*
Y-169000D02*
D03*
Y-163000D02*
D03*
Y-211000D02*
D03*
Y-205000D02*
D03*
Y-199000D02*
D03*
Y-193000D02*
D03*
Y-240000D02*
D03*
Y-234000D02*
D03*
Y-228000D02*
D03*
Y-222000D02*
D03*
X-223000Y-134000D02*
D03*
Y-140000D02*
D03*
Y-146000D02*
D03*
Y-152000D02*
D03*
Y-181000D02*
D03*
Y-175000D02*
D03*
Y-169000D02*
D03*
Y-163000D02*
D03*
Y-211000D02*
D03*
Y-205000D02*
D03*
Y-199000D02*
D03*
Y-193000D02*
D03*
Y-240000D02*
D03*
Y-234000D02*
D03*
Y-228000D02*
D03*
Y-222000D02*
D03*
X-325000D02*
D03*
Y-228000D02*
D03*
Y-234000D02*
D03*
Y-240000D02*
D03*
Y-193000D02*
D03*
Y-199000D02*
D03*
Y-205000D02*
D03*
Y-211000D02*
D03*
Y-163000D02*
D03*
Y-169000D02*
D03*
Y-175000D02*
D03*
Y-181000D02*
D03*
Y-152000D02*
D03*
Y-146000D02*
D03*
Y-140000D02*
D03*
Y-134000D02*
D03*
D135*
X285750Y0D02*
D03*
X247650D02*
D03*
X209550D02*
D03*
X171450D02*
D03*
X133350D02*
D03*
X95250D02*
D03*
X57150D02*
D03*
X19050D02*
D03*
X-19050D02*
D03*
X-57150D02*
D03*
X-95250D02*
D03*
X-133350D02*
D03*
X-171450D02*
D03*
X-209550D02*
D03*
X-247650D02*
D03*
X-285750D02*
D03*
M02*
